<?xml version="1.0" encoding="UTF-8" standalone="no"?>
<!-- Created with Inkscape (http://www.inkscape.org/) -->

<svg
   xmlns:dc="http://purl.org/dc/elements/1.1/"
   xmlns:cc="http://creativecommons.org/ns#"
   xmlns:rdf="http://www.w3.org/1999/02/22-rdf-syntax-ns#"
   xmlns:svg="http://www.w3.org/2000/svg"
   xmlns="http://www.w3.org/2000/svg"
   xmlns:sodipodi="http://sodipodi.sourceforge.net/DTD/sodipodi-0.dtd"
   xmlns:inkscape="http://www.inkscape.org/namespaces/inkscape"
   id="svg2"
   version="1.1"
   inkscape:version="0.48.4 r9939"
   width="278.75"
   height="217.25304"
   xml:space="preserve"
   sodipodi:docname="25232-NVHEK4.eps.2017_06_02_16_37_26.0.svg"><metadata
     id="metadata8"><rdf:RDF><cc:Work
         rdf:about=""><dc:format>image/svg+xml</dc:format><dc:type
           rdf:resource="http://purl.org/dc/dcmitype/StillImage" /><dc:title></dc:title></cc:Work></rdf:RDF></metadata><defs
     id="defs6"><clipPath
       clipPathUnits="userSpaceOnUse"
       id="clipPath20"><path
         d="m 3152.9,3984.81 -76.56,75.19 288.73,0 -212.17,-75.19 m -182.9,179.63 -46.39,45.56 46.39,0 0,-45.56 M 1989.42,4369.65 972.887,5385.01 c 8.758,-3.24 18.226,-5.01 28.113,-5.01 l 1258,0 c 44.73,0 81,36.26 81,81 l 0,180 0,0 0,1548 0,0 c 0,1.88 -0.06,3.75 -0.19,5.61 l 1189.78,-1168.5 -625.33,-432.51 944.7,-943.6 -313.96,0 0,150 -880,0 200,-280 -95.82,-148.52 -384.18,377.31 -385.58,-379.14"
         id="path22"
         inkscape:connector-curvature="0" /></clipPath><linearGradient
       x1="0"
       y1="0"
       x2="1"
       y2="0"
       gradientUnits="userSpaceOnUse"
       gradientTransform="matrix(-245.642,364.18,364.18,245.642,404.299,310.241)"
       spreadMethod="pad"
       id="linearGradient24"><stop
         style="stop-opacity:1;stop-color:#f7efde"
         offset="0"
         id="stop26" /><stop
         style="stop-opacity:1;stop-color:#ddd6c8"
         offset="1"
         id="stop28" /></linearGradient><clipPath
       clipPathUnits="userSpaceOnUse"
       id="clipPath36"><path
         d="m 8000,4109.27 -845.72,830.59 C 7142,4966.5 7115.05,4985 7083.8,4985 l -434.94,0 -88.86,685 -327.66,321.8 1012.66,1107 755,-741.5 0,-2248.03"
         id="path38"
         inkscape:connector-curvature="0" /></clipPath><linearGradient
       x1="0"
       y1="0"
       x2="1"
       y2="0"
       gradientUnits="userSpaceOnUse"
       gradientTransform="matrix(-234.138,347.124,347.124,234.138,883.047,311.769)"
       spreadMethod="pad"
       id="linearGradient40"><stop
         style="stop-opacity:1;stop-color:#f7efde"
         offset="0"
         id="stop42" /><stop
         style="stop-opacity:1;stop-color:#ddd6c8"
         offset="1"
         id="stop44" /></linearGradient><clipPath
       clipPathUnits="userSpaceOnUse"
       id="clipPath52"><path
         d="M 3688.77,0 1558.76,0 784.258,773.602 1320,2300 l 455.54,13.4 844.38,-843.4 260.08,0 0,-635.828 c 0,-28.262 15.81,-52.832 39.06,-65.352 L 3688.77,0"
         id="path54"
         inkscape:connector-curvature="0" /></clipPath><linearGradient
       x1="0"
       y1="0"
       x2="1"
       y2="0"
       gradientUnits="userSpaceOnUse"
       gradientTransform="matrix(-258.052,382.577,382.577,258.052,397.234,-147.732)"
       spreadMethod="pad"
       id="linearGradient56"><stop
         style="stop-opacity:1;stop-color:#f7efde"
         offset="0"
         id="stop58" /><stop
         style="stop-opacity:1;stop-color:#ddd6c8"
         offset="1"
         id="stop60" /></linearGradient><clipPath
       clipPathUnits="userSpaceOnUse"
       id="clipPath68"><path
         d="m 8000,1525.15 -635,623.64 -303.46,-211.01 -1257.28,1255.82 8.52,11.3 c 13.87,-21.03 37.71,-34.9 64.79,-34.9 l 1204.86,0 c 42.84,0 77.57,34.73 77.57,77.57 l 0,162.87 c 0.9,4.7 1.37,9.55 1.37,14.51 l 0,513.25 308.55,-308.2 530.08,0 0,-2104.85"
         id="path70"
         inkscape:connector-curvature="0" /></clipPath><linearGradient
       x1="0"
       y1="0"
       x2="1"
       y2="0"
       gradientUnits="userSpaceOnUse"
       gradientTransform="matrix(-244.261,362.132,362.132,244.261,888.108,86.765)"
       spreadMethod="pad"
       id="linearGradient72"><stop
         style="stop-opacity:1;stop-color:#f7efde"
         offset="0"
         id="stop74" /><stop
         style="stop-opacity:1;stop-color:#ddd6c8"
         offset="1"
         id="stop76" /></linearGradient><clipPath
       clipPathUnits="userSpaceOnUse"
       id="clipPath84"><path
         d="m 8000,3630 -530.08,0 -308.55,308.2 0,969.23 0,0 c 0,11.58 -2.54,22.56 -7.09,32.43 L 8000,4109.27 8000,3630"
         id="path86"
         inkscape:connector-curvature="0" /></clipPath><clipPath
       clipPathUnits="userSpaceOnUse"
       id="clipPath96"><path
         d="m 2880,2122.29 -475,466.5 -405,-268.79 -224.46,-6.6 -931.282,930.2 1145.162,1126.05 730.5,-729.65 250.08,0 0,-310 849.64,0 20.36,-20 479.35,-980 -303.52,0 0,0 -1061.66,0 c -40.96,0 -74.17,-33.2 -74.17,-74.17 l 0,-133.54"
         id="path98"
         inkscape:connector-curvature="0" /></clipPath><linearGradient
       x1="0"
       y1="0"
       x2="1"
       y2="0"
       gradientUnits="userSpaceOnUse"
       gradientTransform="matrix(-225.955,334.993,334.993,225.955,392.956,92.335)"
       spreadMethod="pad"
       id="linearGradient100"><stop
         style="stop-opacity:1;stop-color:#f7efde"
         offset="0"
         id="stop102" /><stop
         style="stop-opacity:1;stop-color:#ddd6c8"
         offset="1"
         id="stop104" /></linearGradient><clipPath
       clipPathUnits="userSpaceOnUse"
       id="clipPath112"><path
         d="m 2970,3640 -250.08,0 -730.5,729.65 L 2375,4748.79 2759.18,4371.48 2655,4210 l 268.61,0 46.39,-45.56 0,-104.44 106.34,0 76.56,-75.19 -182.9,-64.81 0,-280"
         id="path114"
         inkscape:connector-curvature="0" /></clipPath><clipPath
       clipPathUnits="userSpaceOnUse"
       id="clipPath124"><path
         d="m 2880,1470 -260.08,0 -844.38,843.4 224.46,6.6 405,268.79 475,-466.5 0,-652.29"
         id="path126"
         inkscape:connector-curvature="0" /></clipPath><clipPath
       clipPathUnits="userSpaceOnUse"
       id="clipPath136"><path
         d="M 8000,0 6671.57,0 6560,860 6125.39,1286.83 7061.54,1937.78 7579.92,1420 8000,1420 8000,0"
         id="path138"
         inkscape:connector-curvature="0" /></clipPath><linearGradient
       x1="0"
       y1="0"
       x2="1"
       y2="0"
       gradientUnits="userSpaceOnUse"
       gradientTransform="matrix(-205.771,305.068,305.068,205.771,868.863,-139.703)"
       spreadMethod="pad"
       id="linearGradient140"><stop
         style="stop-opacity:1;stop-color:#f7efde"
         offset="0"
         id="stop142" /><stop
         style="stop-opacity:1;stop-color:#ddd6c8"
         offset="1"
         id="stop144" /></linearGradient><clipPath
       clipPathUnits="userSpaceOnUse"
       id="clipPath152"><path
         d="m 8000,1420 -420.08,0 -518.38,517.78 303.46,211.01 635,-623.64 0,-105.15"
         id="path154"
         inkscape:connector-curvature="0" /></clipPath><clipPath
       clipPathUnits="userSpaceOnUse"
       id="clipPath164"><path
         d="M 6478.91,0 4303.26,0 4050.47,670.992 c 38.89,16.117 69.26,48.68 82.41,89.008 l 902.95,0 c 40.97,0 74.17,33.199 74.17,74.172 l 0,1421.658 c 0,14.41 -4.11,27.87 -11.22,39.25 L 6125.39,1286.83 5574.26,903.602 6478.91,0"
         id="path166"
         inkscape:connector-curvature="0" /></clipPath><linearGradient
       x1="0"
       y1="0"
       x2="1"
       y2="0"
       gradientUnits="userSpaceOnUse"
       gradientTransform="matrix(-205.781,305.083,305.083,205.781,621.868,-138.21)"
       spreadMethod="pad"
       id="linearGradient168"><stop
         style="stop-opacity:1;stop-color:#f7efde"
         offset="0"
         id="stop170" /><stop
         style="stop-opacity:1;stop-color:#ddd6c8"
         offset="1"
         id="stop172" /></linearGradient><clipPath
       clipPathUnits="userSpaceOnUse"
       id="clipPath180"><path
         d="m 4303.26,0 -614.49,0 -769.71,768.82 c 10.45,-5.629 22.41,-8.82 35.11,-8.82 l 902.95,0 c 18.93,-58.051 73.51,-100 137.88,-100 19.65,0 38.38,3.91 55.47,10.992 L 4303.26,0"
         id="path182"
         inkscape:connector-curvature="0" /></clipPath><clipPath
       clipPathUnits="userSpaceOnUse"
       id="clipPath192"><path
         d="M 6671.57,0 6478.91,0 5574.26,903.602 6125.39,1286.83 6560,860 6671.57,0"
         id="path194"
         inkscape:connector-curvature="0" /></clipPath><clipPath
       clipPathUnits="userSpaceOnUse"
       id="clipPath204"><path
         d="m 5800,3820 -770,0 0,100 -329.35,0 -9.85,19.8 339.2,120.2 0,590 -692.65,0 L 3770,5790 3529.59,6026.11 5095,7108.79 6232.34,5991.8 5694.26,5403.6 6113.35,4985 l -234.32,0 c -42.83,0 -77.57,-34.73 -77.57,-77.57 l 0,-159.92 c -0.96,-4.88 -1.46,-9.92 -1.46,-15.08 l 0,-912.43"
         id="path206"
         inkscape:connector-curvature="0" /></clipPath><linearGradient
       x1="0"
       y1="0"
       x2="1"
       y2="0"
       gradientUnits="userSpaceOnUse"
       gradientTransform="matrix(-205.78,305.081,305.081,205.78,621.867,342.79)"
       spreadMethod="pad"
       id="linearGradient208"><stop
         style="stop-opacity:1;stop-color:#f7efde"
         offset="0"
         id="stop210" /><stop
         style="stop-opacity:1;stop-color:#ddd6c8"
         offset="1"
         id="stop212" /></linearGradient><clipPath
       clipPathUnits="userSpaceOnUse"
       id="clipPath220"><path
         d="m 4700.65,3920 -65.72,0 55.87,19.8 9.85,-19.8 m -363.3,730 -488.39,0 -944.7,943.6 625.33,432.51 L 3770,5790 4337.35,4650"
         id="path222"
         inkscape:connector-curvature="0" /></clipPath><clipPath
       clipPathUnits="userSpaceOnUse"
       id="clipPath232"><path
         d="m 6648.86,4985 -535.51,0 -419.09,418.6 538.08,588.2 327.66,-321.8 88.86,-685"
         id="path234"
         inkscape:connector-curvature="0" /></clipPath><clipPath
       clipPathUnits="userSpaceOnUse"
       id="clipPath360"><path
         d="m 7404.59,1352.89 -776.56,-291.48 c 85.63,-119.629 49.81,-247.328 7.94,-312.469 3.08,-24.589 15.69,-47.711 15.69,-47.711 l 744.12,305.6 c 164.42,189.86 8.81,346.06 8.81,346.06"
         id="path362"
         inkscape:connector-curvature="0" /></clipPath><clipPath
       clipPathUnits="userSpaceOnUse"
       id="clipPath376"><path
         d="m 7348.76,1743.73 -776.57,-291.47 c 85.64,-119.64 49.82,-247.34 7.95,-312.47 3.07,-24.6 15.69,-47.72 15.69,-47.72 l 744.12,305.61 c 164.43,189.85 8.81,346.05 8.81,346.05"
         id="path378"
         inkscape:connector-curvature="0" /></clipPath><clipPath
       clipPathUnits="userSpaceOnUse"
       id="clipPath392"><path
         d="m 7359.74,2155.26 -776.58,-291.47 c 85.65,-119.63 49.83,-247.33 7.94,-312.47 3.09,-24.59 15.71,-47.72 15.71,-47.72 l 744.12,305.61 c 164.42,189.85 8.81,346.05 8.81,346.05"
         id="path394"
         inkscape:connector-curvature="0" /></clipPath></defs><sodipodi:namedview
     pagecolor="#ffffff"
     bordercolor="#666666"
     borderopacity="1"
     objecttolerance="10"
     gridtolerance="10"
     guidetolerance="10"
     inkscape:pageopacity="0"
     inkscape:pageshadow="2"
     inkscape:window-width="640"
     inkscape:window-height="480"
     id="namedview4"
     showgrid="false"
     fit-margin-top="0"
     fit-margin-left="0"
     fit-margin-right="0"
     fit-margin-bottom="0"
     inkscape:zoom="0.34"
     inkscape:cx="-6.5709239"
     inkscape:cy="351.69741"
     inkscape:window-x="75"
     inkscape:window-y="24"
     inkscape:window-maximized="0"
     inkscape:current-layer="g10" /><g
     id="g10"
     inkscape:groupmode="layer"
     inkscape:label="ink_ext_XXXXXX"
     transform="matrix(1.25,0,0,-1.25,-360,299.75304)"><path
       inkscape:connector-curvature="0"
       id="path472"
       style="fill:#fab22c;fill-opacity:1;fill-rule:nonzero;stroke:none"
       d="M 409,83.4172 C 409,79.3199 405.68,76 401.583,76 L 295.417,76 C 291.321,76 288,79.3199 288,83.4172 l 0,142.1658 c 0,4.097 3.321,7.417 7.417,7.417 l 106.166,0 c 4.097,0 7.417,-3.32 7.417,-7.417 l 0,-142.1658" /><path
       inkscape:connector-curvature="0"
       id="path474"
       style="fill:#fab22c;fill-opacity:1;fill-rule:nonzero;stroke:none"
       d="M 511,83.4172 C 511,79.3199 507.68,76 503.583,76 L 397.417,76 C 393.321,76 390,79.3199 390,83.4172 l 0,142.1658 c 0,4.097 3.321,7.417 7.417,7.417 l 106.166,0 c 4.097,0 7.417,-3.32 7.417,-7.417 l 0,-142.1658" /><path
       inkscape:connector-curvature="0"
       id="path476"
       style="fill:#fab22c;fill-opacity:1;fill-rule:nonzero;stroke:none"
       d="M 414,80.5 C 414,72.4922 407.508,66 399.5,66 391.492,66 385,72.4922 385,80.5 l 0,14 c 0,8.008 6.492,14.5 14.5,14.5 8.008,0 14.5,-6.492 14.5,-14.5 l 0,-14" /><path
       inkscape:connector-curvature="0"
       id="path478"
       style="fill:#fcce55;fill-opacity:1;fill-rule:nonzero;stroke:none"
       d="m 385,83 -90,0 0,142 95,0 0,-119.545 c -3.063,-2.659 -5,-6.5808 -5,-10.955 L 385,83" /><path
       inkscape:connector-curvature="0"
       id="path480"
       style="fill:#fcce55;fill-opacity:1;fill-rule:nonzero;stroke:none"
       d="m 502,83 -88,0 0,11.5 c 0,8.008 -6.492,14.5 -14.5,14.5 -3.634,0 -6.956,-1.337 -9.5,-3.545 l 0,119.545 112,0 0,-142" /><path
       inkscape:connector-curvature="0"
       id="path482"
       style="fill:#fcce55;fill-opacity:1;fill-rule:nonzero;stroke:none"
       d="m 414,83 -29,0 0,11.5 c 0,4.3742 1.937,8.296 5,10.955 2.544,2.208 5.866,3.545 9.5,3.545 8.008,0 14.5,-6.492 14.5,-14.5 L 414,83" /><path
       inkscape:connector-curvature="0"
       id="path484"
       style="fill:#ffffff;fill-opacity:1;fill-rule:nonzero;stroke:none"
       d="m 399.43,91.8039 c -36.159,10.3331 -61.533,10.3301 -97.692,0 0,45.3731 0,90.7431 0,136.1161 36.183,16.06 61.437,15.625 97.692,0 0,-45.373 0.002,-90.743 0,-136.1161" /><path
       inkscape:connector-curvature="0"
       id="path486"
       style="fill:#fab22c;fill-opacity:1;fill-rule:nonzero;stroke:none"
       d="m 399,92 99.5,0 -0.771,136 L 399,227.5 399,92" /><path
       inkscape:connector-curvature="0"
       id="path488"
       style="fill:#fdf5c1;fill-opacity:1;fill-rule:nonzero;stroke:none"
       d="m 398.904,91.8039 c 36.159,10.3331 61.533,10.3301 97.692,0 0,45.3731 0,90.7431 0,136.1161 -36.183,16.06 -61.438,15.625 -97.692,0 0,-45.373 -0.002,-90.743 0,-136.1161" /><path
       inkscape:connector-curvature="0"
       id="path490"
       style="fill:#ffffff;fill-opacity:1;fill-rule:nonzero;stroke:none"
       d="m 399,92 c 0,0 32,31.14548 94,42.16034 l 0,99.13378 c 0,0 -61,0 -94,-38.36211 L 399,92" /><path
       inkscape:connector-curvature="0"
       id="path492"
       style="fill:#fdf5c1;fill-opacity:1;fill-rule:nonzero;stroke:none"
       d="m 399,92 0,135 c 0,0 -14,8.5 -31,10.5 0,0 20,-3 31,-145.5" /></g></svg>