<?xml version="1.0" encoding="UTF-8" standalone="no"?>
<!-- Created with Inkscape (http://www.inkscape.org/) -->

<svg
   xmlns:dc="http://purl.org/dc/elements/1.1/"
   xmlns:cc="http://creativecommons.org/ns#"
   xmlns:rdf="http://www.w3.org/1999/02/22-rdf-syntax-ns#"
   xmlns:svg="http://www.w3.org/2000/svg"
   xmlns="http://www.w3.org/2000/svg"
   xmlns:sodipodi="http://sodipodi.sourceforge.net/DTD/sodipodi-0.dtd"
   xmlns:inkscape="http://www.inkscape.org/namespaces/inkscape"
   id="svg2"
   version="1.1"
   inkscape:version="0.48.4 r9939"
   width="142.97729"
   height="80"
   xml:space="preserve"
   sodipodi:docname="car.svg"><metadata
     id="metadata8"><rdf:RDF><cc:Work
         rdf:about=""><dc:format>image/svg+xml</dc:format><dc:type
           rdf:resource="http://purl.org/dc/dcmitype/StillImage" /><dc:title /></cc:Work></rdf:RDF></metadata><defs
     id="defs6"><clipPath
       clipPathUnits="userSpaceOnUse"
       id="clipPath122"><path
         d="m 2892.17,3859.6 c 57.15,-57.15 57.16,-149.78 0,-206.92 -57.15,-57.15 -149.78,-57.15 -206.93,0 -57.14,57.14 -57.14,149.77 0,206.92 57.15,57.15 149.78,57.15 206.93,0 z"
         clip-rule="evenodd"
         id="path124"
         inkscape:connector-curvature="0" /></clipPath></defs><sodipodi:namedview
     pagecolor="#ffffff"
     bordercolor="#666666"
     borderopacity="1"
     objecttolerance="10"
     gridtolerance="10"
     guidetolerance="10"
     inkscape:pageopacity="0"
     inkscape:pageshadow="2"
     inkscape:window-width="1102"
     inkscape:window-height="860"
     id="namedview4"
     showgrid="false"
     fit-margin-top="0"
     fit-margin-left="0"
     fit-margin-right="0"
     fit-margin-bottom="0"
     inkscape:zoom="1.1866823"
     inkscape:cx="76.387064"
     inkscape:cy="-109.78045"
     inkscape:window-x="542"
     inkscape:window-y="525"
     inkscape:window-maximized="0"
     inkscape:current-layer="g10" /><g
     id="g10"
     inkscape:groupmode="layer"
     inkscape:label="ink_ext_XXXXXX"
     transform="matrix(1.25,0,0,-1.25,-287.79268,583.47108)"><path
       inkscape:connector-curvature="0"
       id="path1160"
       style="fill:#ff6600;fill-opacity:1;fill-rule:evenodd;stroke:none"
       d="m 297.3299,427.99384 c 7.67887,-6.651 16.89364,-10.52522 28.11585,-5.28481 3.79266,1.63569 7.42561,3.78268 12.53765,1.28243 0.16921,2.3639 -1.92988,7.72679 -7.06601,4.82536 -3.34278,-1.8892 -4.52294,2.129 -1.10835,3.25099 4.13469,1.52097 10.71936,-0.32743 13.01119,-4.25573 0.38963,7.02022 -6.98579,14.12751 -14.21165,9.50833 -6.37313,-3.56605 -10.09422,3.87522 -1.54133,5.36612 8.55352,1.49165 15.7862,-5.3686 18.22288,-7.91594 -8.71958,25.22302 -38.2073,11.89706 -49.26664,5.04097 l 1.30641,-11.81772" /><path
       inkscape:connector-curvature="0"
       id="path1382"
       style="fill:#d92231;fill-opacity:1;fill-rule:evenodd;stroke:none"
       d="m 297.51147,441.95168 c -0.061,0.158 1.812,4.531 1.812,4.531 l 4.871,-1.02 -1.472,-3.965 -5.211,0.454" /><path
       inkscape:connector-curvature="0"
       id="path1384"
       style="fill:#ef2f45;fill-opacity:1;fill-rule:evenodd;stroke:none"
       d="m 307.77147,444.03168 -13.306,3.13 1.404,2.931 14.406,-0.895 c 0.627,-0.939 -1.095,-4.696 -2.504,-5.166" /><path
       inkscape:connector-curvature="0"
       id="path1386"
       style="fill:#d92231;fill-opacity:1;fill-rule:evenodd;stroke:none"
       d="m 299.23447,441.80168 c -5.186,2.468 -6.483,6.66 -12.905,8.552 -5.119,1.508 -15.344,1.384 -19.958,-0.983 l -27.497,-10.603 17.633,-3.612 c 0,0 31.358,1.774 31.489,1.359 0.131,-0.415 11.238,5.287 11.238,5.287" /><path
       inkscape:connector-curvature="0"
       id="path1388"
       style="fill:#405776;fill-opacity:1;fill-rule:evenodd;stroke:none"
       d="m 288.04647,438.70868 -43.889,-0.076 23.226,8.686 c 4.96,2.489 13.55,2.597 18.436,0.869 1.614,-0.57 11.444,-9.233 2.227,-9.479" /><path
       inkscape:connector-curvature="0"
       id="path1390"
       style="fill:#d92231;fill-opacity:1;fill-rule:evenodd;stroke:none"
       d="m 275.35947,436.91768 2.35508,0 0,12.8957 -2.35508,0 0,-12.8957 z" /><path
       inkscape:connector-curvature="0"
       id="path1392"
       style="fill:#ef2f45;fill-opacity:1;fill-rule:evenodd;stroke:none"
       d="m 299.77647,424.96068 -68.868,0 c -0.027,7.772 3.016,13.631 10.534,14.272 l 43.157,0 c 1.215,0 7.886,0.974 10.492,2.138 2.922,1.305 10.556,1.593 12.004,-1.718 l -1.588,-13.178 c -0.577,-1.474 -3.298,-1.6 -5.731,-1.514" /><path
       inkscape:connector-curvature="0"
       id="path1394"
       style="fill:#d92231;fill-opacity:1;fill-rule:evenodd;stroke:none"
       d="m 285.16547,432.01868 c -1.268,-1.797 -1.787,-3.963 -1.555,-6.061 l 0.151,-0.997 17.235,-0.002 0.166,0.999 c 0.284,2.573 -0.559,5.247 -2.532,7.22 -3.244,3.244 -8.387,3.436 -11.855,0.574 l -0.03,0.029 -0.603,-0.603 c -0.364,-0.364 -0.69,-0.752 -0.977,-1.159" /><path
       inkscape:connector-curvature="0"
       id="path1396"
       style="fill:#313e4f;fill-opacity:1;fill-rule:evenodd;stroke:none"
       d="m 286.74547,432.57368 c -3.115,-3.115 -3.115,-8.166 0,-11.281 3.115,-3.115 8.166,-3.115 11.281,0 3.116,3.115 3.116,8.166 0,11.281 -3.115,3.115 -8.166,3.115 -11.281,0" /><path
       inkscape:connector-curvature="0"
       id="path1398"
       style="fill:#1d2735;fill-opacity:1;fill-rule:evenodd;stroke:none"
       d="m 295.00247,424.31768 c 1.444,1.444 1.444,3.787 0,5.231 -1.444,1.445 -3.787,1.445 -5.231,0 l 5.231,-5.231" /><path
       inkscape:connector-curvature="0"
       id="path1400"
       style="fill:#1d2735;fill-opacity:1;fill-rule:evenodd;stroke:none"
       d="m 286.74547,432.57368 c -3.115,-3.115 -3.115,-8.166 0,-11.281 3.115,-3.115 8.166,-3.115 11.281,0 l -11.281,11.281" /><path
       inkscape:connector-curvature="0"
       id="path1402"
       style="fill:#313e4f;fill-opacity:1;fill-rule:evenodd;stroke:none"
       d="m 289.77147,429.54868 c -1.446,-1.444 -1.446,-3.787 0,-5.231 1.444,-1.445 3.787,-1.445 5.231,0 l -5.231,5.231" /><path
       inkscape:connector-curvature="0"
       id="path1404"
       style="fill:#aed6f0;fill-opacity:1;fill-rule:evenodd;stroke:none"
       d="m 290.72247,428.59268 c -0.92,-0.919 -0.92,-2.409 0,-3.329 0.919,-0.919 2.409,-0.919 3.328,0 l -3.328,3.329" /><path
       inkscape:connector-curvature="0"
       id="path1406"
       style="fill:#e4f2fb;fill-opacity:1;fill-rule:evenodd;stroke:none"
       d="m 294.05047,425.26368 c 0.92,0.92 0.92,2.41 0,3.329 -0.919,0.919 -2.409,0.919 -3.328,0 l 3.328,-3.329" /><path
       inkscape:connector-curvature="0"
       id="path1408"
       style="fill:#1d2735;fill-opacity:1;fill-rule:evenodd;stroke:none"
       d="m 291.41647,427.89868 c -0.536,-0.536 -0.536,-1.405 0,-1.941 0.536,-0.535 1.404,-0.535 1.941,0 l -1.941,1.941" /><path
       inkscape:connector-curvature="0"
       id="path1410"
       style="fill:#313e4f;fill-opacity:1;fill-rule:evenodd;stroke:none"
       d="m 293.35747,425.95768 c 0.535,0.536 0.535,1.405 0,1.941 -0.537,0.536 -1.405,0.536 -1.941,0 l 1.941,-1.941" /><path
       inkscape:connector-curvature="0"
       id="path1412"
       style="fill:#d92231;fill-opacity:1;fill-rule:evenodd;stroke:none"
       d="m 237.05247,432.07468 c -1.27,-1.797 -1.787,-3.962 -1.556,-6.06 l 0.151,-0.997 17.235,-0.002 0.166,0.999 c 0.284,2.572 -0.56,5.247 -2.532,7.219 -3.245,3.245 -8.387,3.436 -11.856,0.575 l -0.028,0.028 -0.604,-0.603 c -0.365,-0.364 -0.69,-0.752 -0.976,-1.159" /><path
       inkscape:connector-curvature="0"
       id="path1414"
       style="fill:#313e4f;fill-opacity:1;fill-rule:evenodd;stroke:none"
       d="m 238.63247,432.62968 c -3.115,-3.115 -3.115,-8.165 0,-11.28 3.115,-3.116 8.166,-3.116 11.281,0 3.115,3.115 3.115,8.165 0,11.28 -3.115,3.116 -8.166,3.116 -11.281,0" /><path
       inkscape:connector-curvature="0"
       id="path1416"
       style="fill:#1d2735;fill-opacity:1;fill-rule:evenodd;stroke:none"
       d="m 246.88847,424.37368 c 1.444,1.445 1.444,3.787 0,5.232 -1.445,1.445 -3.787,1.445 -5.233,0 l 5.233,-5.232" /><path
       inkscape:connector-curvature="0"
       id="path1418"
       style="fill:#1d2735;fill-opacity:1;fill-rule:evenodd;stroke:none"
       d="m 238.63247,432.62968 c -3.115,-3.115 -3.115,-8.165 0,-11.28 3.115,-3.116 8.166,-3.116 11.281,0 l -11.281,11.28" /><path
       inkscape:connector-curvature="0"
       id="path1420"
       style="fill:#313e4f;fill-opacity:1;fill-rule:evenodd;stroke:none"
       d="m 241.65547,429.60568 c -1.444,-1.445 -1.444,-3.787 0,-5.232 1.446,-1.444 3.788,-1.444 5.233,0 l -5.233,5.232" /><path
       inkscape:connector-curvature="0"
       id="path1422"
       style="fill:#aed6f0;fill-opacity:1;fill-rule:evenodd;stroke:none"
       d="m 242.60747,428.64968 c -0.919,-0.92 -0.919,-2.41 0,-3.33 0.919,-0.918 2.41,-0.918 3.33,0 l -3.33,3.33" /><path
       inkscape:connector-curvature="0"
       id="path1424"
       style="fill:#e4f2fb;fill-opacity:1;fill-rule:evenodd;stroke:none"
       d="m 245.93747,425.31968 c 0.919,0.92 0.919,2.41 0,3.33 -0.92,0.919 -2.411,0.919 -3.33,0 l 3.33,-3.33" /><path
       inkscape:connector-curvature="0"
       id="path1426"
       style="fill:#1d2735;fill-opacity:1;fill-rule:evenodd;stroke:none"
       d="m 243.30247,427.95468 c -0.536,-0.535 -0.536,-1.404 0,-1.94 0.535,-0.537 1.404,-0.537 1.94,0 l -1.94,1.94" /><path
       inkscape:connector-curvature="0"
       id="path1428"
       style="fill:#313e4f;fill-opacity:1;fill-rule:evenodd;stroke:none"
       d="m 245.24247,426.01468 c 0.536,0.536 0.536,1.405 0,1.94 -0.536,0.536 -1.405,0.536 -1.94,0 l 1.94,-1.94" /></g></svg>