<?xml version="1.0" encoding="UTF-8" standalone="no"?>
<!-- Created with Inkscape (http://www.inkscape.org/) -->

<svg
   xmlns:dc="http://purl.org/dc/elements/1.1/"
   xmlns:cc="http://creativecommons.org/ns#"
   xmlns:rdf="http://www.w3.org/1999/02/22-rdf-syntax-ns#"
   xmlns:svg="http://www.w3.org/2000/svg"
   xmlns="http://www.w3.org/2000/svg"
   xmlns:sodipodi="http://sodipodi.sourceforge.net/DTD/sodipodi-0.dtd"
   xmlns:inkscape="http://www.inkscape.org/namespaces/inkscape"
   id="svg2"
   version="1.1"
   inkscape:version="0.48.4 r9939"
   width="1055.9272"
   height="1056"
   xml:space="preserve"
   sodipodi:docname="file.eps"><metadata
     id="metadata8"><rdf:RDF><cc:Work
         rdf:about=""><dc:format>image/svg+xml</dc:format><dc:type
           rdf:resource="http://purl.org/dc/dcmitype/StillImage" /><dc:title></dc:title></cc:Work></rdf:RDF></metadata><defs
     id="defs6" /><sodipodi:namedview
     pagecolor="#ffffff"
     bordercolor="#666666"
     borderopacity="1"
     objecttolerance="10"
     gridtolerance="10"
     guidetolerance="10"
     inkscape:pageopacity="0"
     inkscape:pageshadow="2"
     inkscape:window-width="1220"
     inkscape:window-height="1283"
     id="namedview4"
     showgrid="false"
     fit-margin-top="0"
     fit-margin-left="0"
     fit-margin-right="0"
     fit-margin-bottom="0"
     inkscape:zoom="0.3805972"
     inkscape:cx="369.78694"
     inkscape:cy="524.97692"
     inkscape:window-x="65"
     inkscape:window-y="24"
     inkscape:window-maximized="0"
     inkscape:current-layer="g10" /><g
     id="g10"
     inkscape:groupmode="layer"
     inkscape:label="ink_ext_XXXXXX"
     transform="matrix(1.25,0,0,-1.25,-1968.3977,4678.5898)"><path
       inkscape:connector-curvature="0"
       id="path82"
       style="fill:#fcc907;fill-opacity:1;fill-rule:nonzero;stroke:none"
       d="m 2421.06,3478.4773 c 0,18.9657 -15.3809,34.3601 -34.3601,34.3601 -18.982,0 -34.371,-15.3944 -34.371,-34.3601 0,-13.4194 7.6999,-25.026 18.9116,-30.6806 -24.9205,-96.6682 -65.1219,-166.1189 -95.2505,-161.276 -30.2017,4.897 -46.4403,83.9252 -39.4709,183.9483 16.4983,2.5161 29.1493,16.7471 29.1493,33.9813 0,18.9657 -15.3809,34.3601 -34.3601,34.3601 -18.9792,0 -34.3601,-15.3944 -34.3601,-34.3601 0,-14.8804 9.4315,-27.5422 22.6398,-32.331 -17.0394,-98.6162 -51.5402,-171.3135 -81.9394,-168.9056 -30.5291,2.4621 -53.039,80.4622 -53.9399,181.1887 15.0805,3.6525 26.2787,17.2071 26.2787,33.4132 0,18.9657 -15.3782,34.3601 -34.3682,34.3601 -18.9711,0 -34.3601,-15.3944 -34.3601,-34.3601 0,-15.9355 10.8491,-29.3279 25.559,-33.2238 -8.9986,-100.1042 -37.6202,-175.7776 -68.1791,-175.8318 -30.5994,0.054 -59.2509,75.9169 -68.2116,176.2376 13.993,4.3559 24.1414,17.3965 24.1414,32.818 0,18.9657 -15.3809,34.3601 -34.3601,34.3601 -18.9792,0 -34.3601,-15.3944 -34.3601,-34.3601 0,-16.7201 11.9205,-30.6265 27.7316,-33.7108 -0.9497,-100.6183 -23.4407,-178.429 -53.9508,-180.8911 -30.4317,-2.4079 -64.9704,70.4518 -81.9908,169.2303 12.7592,5.0323 21.7903,17.4506 21.7903,32.0063 0,18.9657 -15.3782,34.3601 -34.3601,34.3601 -18.9793,0 -34.371,-15.3944 -34.371,-34.3601 0,-17.5318 13.1326,-31.9792 30.08,-34.0895 6.9424,-99.969 -9.288,-178.9431 -39.4898,-183.8401 -30.1205,-4.8429 -70.3083,64.5807 -95.2289,161.2219 11.2604,5.6545 18.9901,17.2883 18.9901,30.7347 0,18.9657 -15.389,34.3601 -34.3709,34.3601 -18.9684,0 -34.3601,-15.3944 -34.3601,-34.3601 0,-18.8845 15.2104,-34.1707 34.0408,-34.3601 25.2209,-121.8025 50.4498,-243.6321 75.6707,-365.4346 22.4693,6.1957 45.7801,11.7149 69.889,16.5578 76.899,15.4756 158.5597,23.2945 242.7203,23.2945 84.1687,0 165.8403,-7.8189 242.7311,-23.2945 24.1089,-4.8429 47.4197,-10.3621 69.8782,-16.5578 25.229,121.8025 50.4607,243.6321 75.6815,365.4346 18.8683,0.1353 34.1302,15.4485 34.1302,34.3601" /><path
       inkscape:connector-curvature="0"
       id="path84"
       style="fill:#fcc907;fill-opacity:1;fill-rule:nonzero;stroke:none"
       d="m 1688.9003,3064.8574 c 2.8976,-13.9875 5.7898,-27.948 8.6793,-41.9355 198.6095,41.1239 403.5283,41.1239 602.1188,0 2.9004,13.9875 5.7899,27.948 8.6902,41.9355 -92.9806,25.7836 -199.1101,39.5277 -309.7496,39.5277 -110.6287,0 -216.7608,-13.7441 -309.7387,-39.5277" /><path
       inkscape:connector-curvature="0"
       id="path86"
       style="fill:#f9a50d;fill-opacity:1;fill-rule:nonzero;stroke:none"
       d="m 1688.8894,3049.8688 c -6.5717,0 -12.6104,4.3289 -14.4502,10.9844 -2.2104,7.9813 2.4702,16.2332 10.4488,18.4517 94.5417,26.2165 203.0303,40.0687 313.751,40.0687 110.7315,0 219.2202,-13.8522 313.7592,-40.0687 7.9812,-2.2185 12.6591,-10.4704 10.4406,-18.4517 -2.2104,-7.9812 -10.4704,-12.6618 -18.4598,-10.4433 -91.9606,25.486 -197.6815,38.9866 -305.74,38.9866 -108.0503,0 -213.7685,-13.5006 -305.7292,-38.9866 -1.3392,-0.3787 -2.692,-0.5411 -4.0204,-0.5411" /><path
       inkscape:connector-curvature="0"
       id="path88"
       style="fill:#4e8993;fill-opacity:1;fill-rule:nonzero;stroke:none"
       d="m 1680.689,3122.3227 c 15.5594,0 28.1699,12.6077 28.1699,28.1644 0,15.5568 -12.6105,28.1645 -28.1699,28.1645 -15.5513,0 -28.1591,-12.6077 -28.1591,-28.1645 0,-15.5567 12.6078,-28.1644 28.1591,-28.1644" /><path
       inkscape:connector-curvature="0"
       id="path90"
       style="fill:#f14f1b;fill-opacity:1;fill-rule:nonzero;stroke:none"
       d="m 1835.3798,3171.7525 c 0,15.5568 -12.5996,28.1645 -28.1617,28.1645 -15.5487,0 -28.1591,-12.6077 -28.1591,-28.1645 0,-15.5297 12.6104,-28.1374 28.1591,-28.1374 15.5621,0 28.1617,12.6077 28.1617,28.1374" /><path
       inkscape:connector-curvature="0"
       id="path92"
       style="fill:#4e8993;fill-opacity:1;fill-rule:nonzero;stroke:none"
       d="m 2217.4993,3171.7525 c 0,15.5568 -12.6104,28.1645 -28.1617,28.1645 -15.5595,0 -28.1672,-12.6077 -28.1672,-28.1645 0,-15.5567 12.6077,-28.1374 28.1672,-28.1374 15.5513,0 28.1617,12.5807 28.1617,28.1374" /><path
       inkscape:connector-curvature="0"
       id="path94"
       style="fill:#f14f1b;fill-opacity:1;fill-rule:nonzero;stroke:none"
       d="m 2089.9097,3182.7369 c 0,15.5297 -12.6104,28.1374 -28.1726,28.1374 -15.5486,0 -28.159,-12.6077 -28.159,-28.1374 0,-15.5567 12.6104,-28.1644 28.159,-28.1644 15.5622,0 28.1726,12.6077 28.1726,28.1644" /><path
       inkscape:connector-curvature="0"
       id="path96"
       style="fill:#4e8993;fill-opacity:1;fill-rule:nonzero;stroke:none"
       d="m 1962.5284,3182.7369 c 0,15.5297 -12.5996,28.1645 -28.159,28.1645 -15.5514,0 -28.1618,-12.6348 -28.1618,-28.1645 0,-15.5567 12.6104,-28.1644 28.1618,-28.1644 15.5594,0 28.159,12.6077 28.159,28.1644" /><path
       inkscape:connector-curvature="0"
       id="path98"
       style="fill:#f14f1b;fill-opacity:1;fill-rule:nonzero;stroke:none"
       d="m 2316.6891,3178.6516 c -15.5594,0 -28.1699,-12.6077 -28.1699,-28.1645 0,-15.5567 12.6105,-28.1644 28.1699,-28.1644 15.5486,0 28.1591,12.6077 28.1591,28.1644 0,15.5568 -12.6105,28.1645 -28.1591,28.1645" /><path
       inkscape:connector-curvature="0"
       id="path106"
       style="fill:#497676;fill-opacity:1;fill-rule:nonzero;stroke:none"
       d="m 2189.3376,3199.917 c -15.5595,0 -28.1672,-12.6077 -28.1672,-28.1645 0,-15.5567 12.6077,-28.1644 28.1672,-28.1644 15.5513,0 28.1617,12.6077 28.1617,28.1644 0,15.5568 -12.6104,28.1645 -28.1617,28.1645" /><path
       inkscape:connector-curvature="0"
       id="path108"
       style="fill:#d54721;fill-opacity:1;fill-rule:nonzero;stroke:none"
       d="m 2061.7371,3210.9014 c -15.5486,0 -28.159,-12.6348 -28.159,-28.1645 0,-15.5567 12.6104,-28.1644 28.159,-28.1644 15.5622,0 28.1726,12.6077 28.1726,28.1644 0,15.5297 -12.6104,28.1645 -28.1726,28.1645" /><path
       inkscape:connector-curvature="0"
       id="path110"
       style="fill:#d54721;fill-opacity:1;fill-rule:nonzero;stroke:none"
       d="m 2316.6891,3178.6516 c -15.5594,0 -28.1699,-12.6077 -28.1699,-28.1645 0,-15.5567 12.6105,-28.1644 28.1699,-28.1644 1.231,0 2.4485,0.081 3.6498,0.2435 13.8306,1.7856 24.5093,13.6087 24.5093,27.9209 0,10.281 -5.5004,19.2633 -13.7197,24.1874 -4.2206,2.5161 -9.1582,3.9771 -14.4394,3.9771" /></g></svg>