<?xml version="1.0" encoding="UTF-8" standalone="no"?>
<!-- Created with Inkscape (http://www.inkscape.org/) -->

<svg
   xmlns:dc="http://purl.org/dc/elements/1.1/"
   xmlns:cc="http://creativecommons.org/ns#"
   xmlns:rdf="http://www.w3.org/1999/02/22-rdf-syntax-ns#"
   xmlns:svg="http://www.w3.org/2000/svg"
   xmlns="http://www.w3.org/2000/svg"
   xmlns:xlink="http://www.w3.org/1999/xlink"
   xmlns:sodipodi="http://sodipodi.sourceforge.net/DTD/sodipodi-0.dtd"
   xmlns:inkscape="http://www.inkscape.org/namespaces/inkscape"
   id="svg2"
   version="1.1"
   inkscape:version="0.48.4 r9939"
   width="247.1512"
   height="247"
   xml:space="preserve"
   sodipodi:docname="open.svg"><metadata
     id="metadata8"><rdf:RDF><cc:Work
         rdf:about=""><dc:format>image/svg+xml</dc:format><dc:type
           rdf:resource="http://purl.org/dc/dcmitype/StillImage" /><dc:title></dc:title></cc:Work></rdf:RDF></metadata><defs
     id="defs6"><radialGradient
       fx="0"
       fy="0"
       cx="0"
       cy="0"
       r="1"
       gradientUnits="userSpaceOnUse"
       gradientTransform="matrix(400,0,0,-400,400,400)"
       spreadMethod="pad"
       id="radialGradient14"><stop
         style="stop-opacity:1;stop-color:#ffffff"
         offset="0"
         id="stop16" /><stop
         style="stop-opacity:1;stop-color:#dcdede"
         offset="1"
         id="stop18" /></radialGradient><radialGradient
       inkscape:collect="always"
       xlink:href="#radialGradient14"
       id="radialGradient3283"
       gradientUnits="userSpaceOnUse"
       gradientTransform="matrix(40,0,0,-40,40,40)"
       spreadMethod="pad"
       cx="0"
       cy="0"
       fx="0"
       fy="0"
       r="1" /></defs><sodipodi:namedview
     pagecolor="#ffffff"
     bordercolor="#666666"
     borderopacity="1"
     objecttolerance="10"
     gridtolerance="10"
     guidetolerance="10"
     inkscape:pageopacity="0"
     inkscape:pageshadow="2"
     inkscape:window-width="1301"
     inkscape:window-height="744"
     id="namedview4"
     showgrid="false"
     fit-margin-top="0"
     fit-margin-left="0"
     fit-margin-right="0"
     fit-margin-bottom="0"
     inkscape:zoom="2.36"
     inkscape:cx="113.56949"
     inkscape:cy="37.718614"
     inkscape:window-x="65"
     inkscape:window-y="24"
     inkscape:window-maximized="1"
     inkscape:current-layer="g10" /><g
     id="g10"
     inkscape:groupmode="layer"
     inkscape:label="ink_ext_XXXXXX"
     transform="matrix(1.25,0,0,-1.25,-687.49855,1037.9985)"><path
       d="m 741.895,788.18671 c -0.48,0.566 -1.185,0.892 -1.928,0.892 l -78.364,0 c -0.638,0 -1.253,-0.242 -1.722,-0.676 l -22.578,-20.941 -54.737,0 c -1.212,0 -2.252,-0.857 -2.485,-2.044 l -20.267,-103.021 c -0.146,-0.743 0.047,-1.513 0.529,-2.098 0.481,-0.584 1.199,-0.924 1.957,-0.924 l 157.399,0 c 1.243,0 2.302,0.901 2.502,2.127 l 20.266,124.636 c 0.119,0.734 -0.089,1.484 -0.572,2.049"
       style="fill:#000000;fill-opacity:0;fill-rule:nonzero;stroke:#550000;stroke-width:10.43999958;stroke-miterlimit:4;stroke-opacity:1;stroke-dasharray:none"
       id="path3763"
       inkscape:connector-curvature="0" /><path
       inkscape:connector-curvature="0"
       id="path128"
       style="fill:#a3212a;fill-opacity:1;fill-rule:nonzero;stroke:#550000;stroke-width:9.39999962;stroke-miterlimit:4;stroke-opacity:1;stroke-dasharray:none"
       d="m 717.164,777.55771 c -0.059,1.354 -1.175,2.422 -2.53,2.422 l -77.369,0 -22.577,20.941 c -0.469,0.434 -1.085,0.676 -1.722,0.676 l -35.474,0 c -0.701,0 -1.37,-0.29 -1.848,-0.801 l -20.259,-21.611 c -0.467,-0.498 -0.712,-1.161 -0.684,-1.843 l 5.068,-115.544 c 0.059,-1.355 1.174,-2.423 2.531,-2.423 l 157.399,0 c 0.693,0 1.354,0.283 1.831,0.782 0.48,0.499 0.732,1.172 0.701,1.862 l -5.067,115.539" /><path
       inkscape:connector-curvature="0"
       id="path130"
       style="fill:#dfe0e1;fill-opacity:1;fill-rule:nonzero;stroke:none"
       d="m 710.223,759.73571 -147.523,-4.896 c -1.399,-0.046 -2.494,-1.217 -2.448,-2.616 l 2.88,-86.759 c 0.044,-1.398 1.217,-2.494 2.615,-2.448 l 147.524,4.896 c 1.398,0.046 2.495,1.217 2.446,2.617 l -2.877,86.758 c -0.047,1.398 -1.219,2.494 -2.617,2.448" /><path
       inkscape:connector-curvature="0"
       id="path132"
       style="fill:#efeff0;fill-opacity:1;fill-rule:nonzero;stroke:none"
       d="m 717.206,769.02271 -147.589,2.24 c -1.399,0.021 -2.549,-1.095 -2.571,-2.495 l -1.317,-86.796 c -0.023,-1.4 1.095,-2.55 2.494,-2.572 l 147.588,-2.239 c 1.399,-0.021 2.55,1.095 2.57,2.494 l 1.318,86.797 c 0.02,1.399 -1.095,2.55 -2.493,2.571" /><path
       inkscape:connector-curvature="0"
       id="path134"
       style="fill:#ffffff;fill-opacity:1;fill-rule:nonzero;stroke:none"
       d="m 724.871,764.00271 -146.539,17.706 c -1.389,0.168 -2.651,-0.822 -2.819,-2.211 l -10.413,-86.18 c -0.167,-1.389 0.822,-2.651 2.211,-2.819 l 146.539,-17.705 c 1.388,-0.168 2.651,0.821 2.819,2.211 l 10.412,86.179 c 0.169,1.39 -0.82,2.651 -2.21,2.819" /><path
       inkscape:connector-curvature="0"
       id="path136"
       style="fill:#d02836;fill-opacity:1;fill-rule:nonzero;stroke:none"
       d="m 741.895,788.18671 c -0.48,0.566 -1.185,0.892 -1.928,0.892 l -78.364,0 c -0.638,0 -1.253,-0.242 -1.722,-0.676 l -22.578,-20.941 -54.737,0 c -1.212,0 -2.252,-0.857 -2.485,-2.044 l -20.267,-103.021 c -0.146,-0.743 0.047,-1.513 0.529,-2.098 0.481,-0.584 1.199,-0.924 1.957,-0.924 l 157.399,0 c 1.243,0 2.302,0.901 2.502,2.127 l 20.266,124.636 c 0.119,0.734 -0.089,1.484 -0.572,2.049" /><path
       inkscape:connector-curvature="0"
       id="path138"
       style="fill:#000000;fill-opacity:0.0821918;fill-rule:nonzero;stroke:none"
       d="m 560.343,660.29871 c 0.481,-0.584 1.199,-0.924 1.955,-0.924 l 157.401,0 c 1.243,0 2.302,0.901 2.502,2.127 l 5.885,36.195 -168.273,-35.3 c -0.145,-0.743 0.048,-1.513 0.53,-2.098" /></g></svg>