<?xml version="1.0" encoding="UTF-8" standalone="no"?>
<!-- Created with Inkscape (http://www.inkscape.org/) -->

<svg
   xmlns:dc="http://purl.org/dc/elements/1.1/"
   xmlns:cc="http://creativecommons.org/ns#"
   xmlns:rdf="http://www.w3.org/1999/02/22-rdf-syntax-ns#"
   xmlns:svg="http://www.w3.org/2000/svg"
   xmlns="http://www.w3.org/2000/svg"
   xmlns:sodipodi="http://sodipodi.sourceforge.net/DTD/sodipodi-0.dtd"
   xmlns:inkscape="http://www.inkscape.org/namespaces/inkscape"
   id="svg2"
   version="1.1"
   inkscape:version="0.48.4 r9939"
   width="148.86861"
   height="135"
   xml:space="preserve"
   sodipodi:docname="game.svg"><metadata
     id="metadata8"><rdf:RDF><cc:Work
         rdf:about=""><dc:format>image/svg+xml</dc:format><dc:type
           rdf:resource="http://purl.org/dc/dcmitype/StillImage" /></cc:Work></rdf:RDF></metadata><defs
     id="defs6"><clipPath
       clipPathUnits="userSpaceOnUse"
       id="clipPath22"><path
         d="M 0,800 800,800 800,0 0,0 0,800 z"
         id="path24"
         inkscape:connector-curvature="0" /></clipPath><clipPath
       clipPathUnits="userSpaceOnUse"
       id="clipPath48"><path
         d="M 0,800 800,800 800,0 0,0 0,800 z"
         id="path50"
         inkscape:connector-curvature="0" /></clipPath><clipPath
       clipPathUnits="userSpaceOnUse"
       id="clipPath1070"><path
         d="M 0,800 800,800 800,0 0,0 0,800 z"
         id="path1072"
         inkscape:connector-curvature="0" /></clipPath></defs><sodipodi:namedview
     pagecolor="#ffffff"
     bordercolor="#666666"
     borderopacity="1"
     objecttolerance="10"
     gridtolerance="10"
     guidetolerance="10"
     inkscape:pageopacity="0"
     inkscape:pageshadow="2"
     inkscape:window-width="1301"
     inkscape:window-height="744"
     id="namedview4"
     showgrid="false"
     fit-margin-top="0"
     fit-margin-left="0"
     fit-margin-right="0"
     fit-margin-bottom="0"
     inkscape:zoom="2.6700352"
     inkscape:cx="108.9506"
     inkscape:cy="71.373905"
     inkscape:window-x="65"
     inkscape:window-y="24"
     inkscape:window-maximized="1"
     inkscape:current-layer="g10" /><g
     id="g10"
     inkscape:groupmode="layer"
     inkscape:label="72820-OE3PTK-15"
     transform="matrix(1.25,0,0,-1.25,-432.68726,911.74107)"><g
       id="g894"
       transform="matrix(0.96592583,-0.25881905,0.25881905,0.96592583,448.57637,707.0507)"><path
         d="M 0,0 C 0.022,0.34 0.356,2.367 0.187,3.625 -0.244,6.822 -19.816,5.668 -19.373,2.467 L -18.957,-0.522 0,0 z"
         style="fill:#004264;fill-opacity:1;fill-rule:evenodd;stroke:none"
         id="path896"
         inkscape:connector-curvature="0" /></g><g
       id="g898"
       transform="matrix(0.96592583,-0.25881905,0.25881905,0.96592583,363.02776,707.34504)"><path
         d="M 0,0 C -0.187,0.289 -1.471,1.891 -1.943,3.069 -3.14,6.065 14.481,14.674 15.665,11.666 L 16.768,8.859 0,0 z"
         style="fill:#004264;fill-opacity:1;fill-rule:evenodd;stroke:none"
         id="path900"
         inkscape:connector-curvature="0" /></g><g
       id="g902"
       transform="matrix(0.96592583,-0.25881905,0.25881905,0.96592583,405.97813,708.39898)"
       style="fill:#ffffff;stroke:#ff6600;stroke-width:2.11999989;stroke-miterlimit:4;stroke-opacity:1;stroke-dasharray:none"><path
         d="m 0,0 c -2.674,-0.662 -12.677,-3.089 -14.405,-2.839 -1.975,0.287 -7.186,2.057 -8.642,2.039 -5.548,-0.064 -19.401,-6.078 -20.729,-11.025 0,0 -3.321,-17.667 -2.199,-34.748 1.125,-17.082 4.849,-27.645 7.67,-31.721 2.824,-4.078 5.152,-5.44 8.026,-4.978 2.871,0.459 5.917,2.209 11.075,7.873 5.158,5.661 6.923,11.454 13.959,16.368 5.133,3.583 14.255,6.195 18.811,7.342 4.533,1.238 13.761,3.442 19.994,2.842 8.542,-0.826 12.922,-5.004 20.198,-7.404 7.273,-2.399 10.785,-2.427 13.515,-1.418 2.731,1.009 4.09,3.338 4.549,8.277 0.453,4.936 -1.493,15.965 -8.901,31.4 C 55.511,-2.56 43.939,11.197 43.939,11.197 40.355,14.855 25.334,13.29 20.47,10.622 19.192,9.922 15.521,5.821 13.943,4.602 12.559,3.534 2.656,0.737 0,0"
         style="fill:#ffffff;fill-opacity:1;fill-rule:evenodd;stroke:#ff6600;stroke-width:2.11999989;stroke-miterlimit:4;stroke-opacity:1;stroke-dasharray:none"
         id="path904"
         inkscape:connector-curvature="0" /></g><g
       id="g910"
       transform="matrix(0.96592583,-0.25881905,0.25881905,0.96592583,374.49705,684.531)"><path
         d="M 0,0 C 4.568,1.198 7.314,5.903 6.114,10.471 4.915,15.041 0.216,17.787 -4.355,16.587 -8.922,15.388 -11.672,10.686 -10.472,6.115 -9.276,1.55 -4.571,-1.198 0,0"
         style="fill:#004264;fill-opacity:1;fill-rule:evenodd;stroke:none"
         id="path912"
         inkscape:connector-curvature="0" /></g><g
       id="g914"
       transform="matrix(0.96592583,-0.25881905,0.25881905,0.96592583,374.51035,687.11635)"
       style="fill:#55d400"><path
         d="M 0,0 C 3.19,0.838 5.108,4.124 4.271,7.314 3.434,10.507 0.147,12.425 -3.043,11.588 -6.235,10.751 -8.154,7.464 -7.317,4.271 -6.479,1.081 -3.192,-0.837 0,0"
         style="fill:#55d400;fill-opacity:1;fill-rule:evenodd;stroke:none"
         id="path916"
         inkscape:connector-curvature="0" /></g><g
       id="g918"
       transform="matrix(0.96592583,-0.25881905,0.25881905,0.96592583,423.14632,662.55223)"><path
         d="M 0,0 C 4.639,1.218 7.429,5.994 6.211,10.633 4.992,15.271 0.222,18.061 -4.421,16.842 -9.057,15.626 -11.85,10.851 -10.632,6.213 -9.416,1.573 -4.636,-1.216 0,0"
         style="fill:#004264;fill-opacity:1;fill-rule:evenodd;stroke:none"
         id="path920"
         inkscape:connector-curvature="0" /></g><g
       id="g922"
       transform="matrix(0.96592583,-0.25881905,0.25881905,0.96592583,423.15999,665.17496)"><path
         d="M 0,0 C 3.24,0.851 5.193,4.191 4.34,7.431 3.49,10.671 0.15,12.62 -3.09,11.769 -6.33,10.917 -8.279,7.581 -7.429,4.341 -6.58,1.101 -3.24,-0.85 0,0"
         style="fill:#00527a;fill-opacity:1;fill-rule:evenodd;stroke:none"
         id="path924"
         inkscape:connector-curvature="0" /></g><g
       id="g926"
       transform="matrix(0.96592583,-0.25881905,0.25881905,0.96592583,391.6458,662.67101)"><path
         d="M 0,0 C 4.814,1.264 7.707,6.219 6.446,11.03 5.18,15.843 0.228,18.735 -4.586,17.472 -9.397,16.21 -12.29,11.256 -11.028,6.443 -9.766,1.634 -4.811,-1.264 0,0"
         style="fill:#003856;fill-opacity:1;fill-rule:evenodd;stroke:none"
         id="path928"
         inkscape:connector-curvature="0" /></g><g
       id="g930"
       transform="matrix(0.96592583,-0.25881905,0.25881905,0.96592583,391.65506,664.40676)"><path
         d="M 0,0 C 3.886,1.021 6.226,5.024 5.205,8.909 4.183,12.798 0.181,15.134 -3.705,14.115 -7.589,13.094 -9.929,9.095 -8.907,5.205 -7.889,1.32 -3.884,-1.018 0,0"
         style="fill:#004264;fill-opacity:1;fill-rule:evenodd;stroke:none"
         id="path932"
         inkscape:connector-curvature="0" /></g><g
       id="g934"
       transform="matrix(0.96592583,-0.25881905,0.25881905,0.96592583,394.30687,678.5164)"><path
         d="m 0,0 c 0.928,-3.965 1.062,-4.005 5.049,-2.843 0.565,-0.744 0.996,-1.606 1.246,-2.563 0.241,-0.917 0.297,-1.842 0.188,-2.729 -4.118,-0.964 -4.187,-1.049 -3.012,-5.068 -0.703,-0.5 -1.503,-0.881 -2.381,-1.112 -0.993,-0.259 -1.996,-0.303 -2.952,-0.159 -0.903,3.855 -1.056,3.982 -4.786,2.899 -0.525,0.721 -0.931,1.548 -1.172,2.465 -0.25,0.953 -0.297,1.914 -0.172,2.834 3.702,0.873 3.803,1.074 2.731,4.761 0.762,0.598 1.656,1.053 2.646,1.315 C -1.734,0.03 -0.853,0.091 0,0"
         style="fill:#00527a;fill-opacity:1;fill-rule:evenodd;stroke:none"
         id="path936"
         inkscape:connector-curvature="0" /></g><g
       id="g938"
       transform="matrix(0.96592583,-0.25881905,0.25881905,0.96592583,438.40097,698.65066)"><path
         d="m 0,0 c -2.121,0 -3.98,1.433 -4.52,3.484 -0.653,2.492 0.84,5.051 3.33,5.705 0.387,0.102 0.787,0.153 1.184,0.153 2.125,0 3.98,-1.433 4.521,-3.486 C 4.83,4.653 4.658,3.395 4.027,2.317 3.397,1.237 2.387,0.469 1.184,0.153 0.797,0.051 0.4,0 0,0"
         style="fill:#00527a;fill-opacity:1;fill-rule:evenodd;stroke:none"
         id="path940"
         inkscape:connector-curvature="0" /></g><g
       id="g942"
       transform="matrix(0.96592583,-0.25881905,0.25881905,0.96592583,439.58504,698.85517)"><path
         d="M 0,0 C 2.296,0.602 3.674,2.965 3.071,5.26 2.471,7.556 0.109,8.936 -2.187,8.334 -4.483,7.731 -5.864,5.368 -5.261,3.073 -4.659,0.779 -2.293,-0.602 0,0"
         style="fill:#00527a;fill-opacity:1;fill-rule:evenodd;stroke:none"
         id="path944"
         inkscape:connector-curvature="0" /></g><g
       id="g946"
       transform="matrix(0.96592583,-0.25881905,0.25881905,0.96592583,428.74961,689.80242)"><path
         d="m 0,0 c -2.121,0 -3.98,1.433 -4.521,3.486 -0.652,2.491 0.844,5.05 3.334,5.703 0.387,0.102 0.784,0.153 1.181,0.153 2.124,0 3.983,-1.433 4.524,-3.485 C 5.168,3.365 3.674,0.807 1.185,0.153 0.797,0.051 0.4,0 0.003,0 L 0,0 z"
         style="fill:#00527a;fill-opacity:1;fill-rule:evenodd;stroke:none"
         id="path948"
         inkscape:connector-curvature="0" /></g><g
       id="g950"
       transform="matrix(0.96592583,-0.25881905,0.25881905,0.96592583,429.9332,690.00665)"><path
         d="M 0,0 C 2.296,0.603 3.677,2.966 3.074,5.261 2.471,7.556 0.109,8.937 -2.187,8.334 -4.48,7.732 -5.861,5.369 -5.258,3.074 -4.655,0.778 -2.293,-0.602 0,0"
         style="fill:#00527a;fill-opacity:1;fill-rule:evenodd;stroke:none"
         id="path952"
         inkscape:connector-curvature="0" /></g><g
       id="g954"
       transform="matrix(0.96592583,-0.25881905,0.25881905,0.96592583,438.30645,680.3603)"><path
         d="m 0,0 c -2.124,0 -3.983,1.433 -4.52,3.484 -0.316,1.205 -0.141,2.462 0.487,3.541 0.631,1.079 1.64,1.847 2.846,2.162 0.388,0.103 0.784,0.154 1.184,0.154 2.122,0 3.98,-1.434 4.517,-3.485 C 4.83,4.651 4.658,3.393 4.027,2.316 3.399,1.237 2.387,0.469 1.184,0.153 0.797,0.052 0.397,0 0,0"
         style="fill:#00527a;fill-opacity:1;fill-rule:evenodd;stroke:none"
         id="path956"
         inkscape:connector-curvature="0" /></g><g
       id="g958"
       transform="matrix(0.96592583,-0.25881905,0.25881905,0.96592583,439.49009,680.56471)"><path
         d="M 0,0 C 2.3,0.603 3.677,2.963 3.075,5.26 2.471,7.556 0.113,8.936 -2.186,8.333 -4.48,7.731 -5.861,5.369 -5.258,3.073 -4.658,0.777 -2.293,-0.601 0,0"
         style="fill:#00527a;fill-opacity:1;fill-rule:evenodd;stroke:none"
         id="path960"
         inkscape:connector-curvature="0" /></g><g
       id="g962"
       transform="matrix(0.96592583,-0.25881905,0.25881905,0.96592583,447.39624,689.70645)"><path
         d="m 0,0 c -2.124,0 -3.983,1.433 -4.524,3.485 -0.653,2.492 0.844,5.05 3.333,5.703 0.388,0.102 0.787,0.155 1.185,0.155 2.124,0 3.983,-1.435 4.52,-3.487 C 5.167,3.365 3.671,0.807 1.181,0.154 0.794,0.052 0.397,0 0,0"
         style="fill:#00527a;fill-opacity:1;fill-rule:evenodd;stroke:none"
         id="path964"
         inkscape:connector-curvature="0" /></g><g
       id="g966"
       transform="matrix(0.96592583,-0.25881905,0.25881905,0.96592583,448.5799,689.91096)"><path
         d="M 0,0 C 2.296,0.603 3.674,2.966 3.074,5.261 2.471,7.556 0.109,8.937 -2.187,8.334 -4.483,7.732 -5.864,5.368 -5.261,3.074 -4.658,0.778 -2.296,-0.602 0,0"
         style="fill:#00527a;fill-opacity:1;fill-rule:evenodd;stroke:none"
         id="path968"
         inkscape:connector-curvature="0" /></g><g
       id="g970"
       transform="matrix(0.96592583,-0.25881905,0.25881905,0.96592583,398.31541,687.71764)"
       style="fill:#ff0000;stroke:#800000"><path
         d="M 0,0 C 1.278,0.334 2.049,1.653 1.711,2.931 1.377,4.212 0.059,4.98 -1.219,4.644 -2.497,4.308 -3.268,2.993 -2.93,1.712 -2.596,0.435 -1.278,-0.336 0,0"
         style="fill:#ff0000;fill-opacity:1;fill-rule:evenodd;stroke:#800000"
         id="path972"
         inkscape:connector-curvature="0" /></g><g
       id="g974"
       transform="matrix(0.96592583,-0.25881905,0.25881905,0.96592583,413.35777,687.57006)"
       style="fill:#ff0000;stroke:#800000"><path
         d="M 0,0 C 1.318,0.346 2.109,1.701 1.765,3.018 1.418,4.335 0.063,5.128 -1.256,4.781 -2.571,4.436 -3.362,3.081 -3.016,1.764 -2.671,0.448 -1.315,-0.345 0,0"
         style="fill:#ff0000;fill-opacity:1;fill-rule:evenodd;stroke:#800000"
         id="path976"
         inkscape:connector-curvature="0" /></g></g></svg>