<?xml version="1.0" encoding="UTF-8" standalone="no"?>
<!-- Created with Inkscape (http://www.inkscape.org/) -->

<svg
   xmlns:dc="http://purl.org/dc/elements/1.1/"
   xmlns:cc="http://creativecommons.org/ns#"
   xmlns:rdf="http://www.w3.org/1999/02/22-rdf-syntax-ns#"
   xmlns:svg="http://www.w3.org/2000/svg"
   xmlns="http://www.w3.org/2000/svg"
   xmlns:sodipodi="http://sodipodi.sourceforge.net/DTD/sodipodi-0.dtd"
   xmlns:inkscape="http://www.inkscape.org/namespaces/inkscape"
   id="svg2"
   version="1.1"
   inkscape:version="0.48.4 r9939"
   width="230.85001"
   height="230.85001"
   xml:space="preserve"
   sodipodi:docname="12289-NO8IYI.ai"><metadata
     id="metadata8"><rdf:RDF><cc:Work
         rdf:about=""><dc:format>image/svg+xml</dc:format><dc:type
           rdf:resource="http://purl.org/dc/dcmitype/StillImage" /><dc:title></dc:title></cc:Work></rdf:RDF></metadata><defs
     id="defs6"><clipPath
       clipPathUnits="userSpaceOnUse"
       id="clipPath16"><path
         d="M 0,800 800,800 800,0 0,0 0,800 z"
         id="path18"
         inkscape:connector-curvature="0" /></clipPath><clipPath
       clipPathUnits="userSpaceOnUse"
       id="clipPath24"><path
         d="M -4.88281e-4,800 800,800 800,0 -4.88281e-4,0 l 0,800 z"
         id="path26"
         inkscape:connector-curvature="0" /></clipPath><clipPath
       clipPathUnits="userSpaceOnUse"
       id="clipPath28"><path
         d="M 800,0 0,0 0,800 800,800 800,0 z"
         id="path30"
         inkscape:connector-curvature="0" /></clipPath><clipPath
       clipPathUnits="userSpaceOnUse"
       id="clipPath32"><path
         d="m -32768,32767 65535,0 0,-65535 -65535,0 0,65535 z"
         id="path34"
         inkscape:connector-curvature="0" /></clipPath><radialGradient
       fx="0"
       fy="0"
       cx="0"
       cy="0"
       r="1"
       gradientUnits="userSpaceOnUse"
       gradientTransform="matrix(563.45984,0,0,-563.45984,400,400)"
       spreadMethod="pad"
       id="radialGradient36"><stop
         style="stop-opacity:0;stop-color:#ffffff"
         offset="0"
         id="stop38" /><stop
         style="stop-opacity:0.29999237;stop-color:#ffffff"
         offset="1"
         id="stop40" /></radialGradient><mask
       maskUnits="userSpaceOnUse"
       x="0"
       y="0"
       width="1"
       height="1"
       id="mask42"><g
         id="g44"><g
           clip-path="url(#clipPath32)"
           id="g46"><g
             id="g48"><g
               id="g50"><path
                 d="m -32768,32767 65535,0 0,-65535 -65535,0 0,65535 z"
                 style="fill:url(#radialGradient36);stroke:none"
                 id="path52"
                 inkscape:connector-curvature="0" /></g></g></g></g></mask><radialGradient
       fx="0"
       fy="0"
       cx="0"
       cy="0"
       r="1"
       gradientUnits="userSpaceOnUse"
       gradientTransform="matrix(563.45984,0,0,-563.45984,400,400)"
       spreadMethod="pad"
       id="radialGradient54"><stop
         style="stop-opacity:1;stop-color:#ffffff"
         offset="0"
         id="stop56" /><stop
         style="stop-opacity:1;stop-color:#1d1e1c"
         offset="1"
         id="stop58" /></radialGradient><clipPath
       clipPathUnits="userSpaceOnUse"
       id="clipPath210"><path
         d="M 0,800 800,800 800,0 0,0 0,800 z"
         id="path212"
         inkscape:connector-curvature="0" /></clipPath><clipPath
       clipPathUnits="userSpaceOnUse"
       id="clipPath276"><path
         d="m 615.114,653.563 26.864,0 0,-18.587 -26.864,0 0,18.587 z"
         id="path278"
         inkscape:connector-curvature="0" /></clipPath><clipPath
       clipPathUnits="userSpaceOnUse"
       id="clipPath292"><path
         d="m 615.114,644.27 26.864,0 0,-18.588 -26.864,0 0,18.588 z"
         id="path294"
         inkscape:connector-curvature="0" /></clipPath><clipPath
       clipPathUnits="userSpaceOnUse"
       id="clipPath366"><path
         d="m 608.082,141.058 26.864,0 0,-26.616 -26.864,0 0,26.616 z"
         id="path368"
         inkscape:connector-curvature="0" /></clipPath><clipPath
       clipPathUnits="userSpaceOnUse"
       id="clipPath382"><path
         d="m 608.082,131.764 26.864,0 0,-26.615 -26.864,0 0,26.615 z"
         id="path384"
         inkscape:connector-curvature="0" /></clipPath><clipPath
       clipPathUnits="userSpaceOnUse"
       id="clipPath402"><path
         d="m 638.509,141.058 26.864,0 0,-26.616 -26.864,0 0,26.616 z"
         id="path404"
         inkscape:connector-curvature="0" /></clipPath><clipPath
       clipPathUnits="userSpaceOnUse"
       id="clipPath418"><path
         d="m 638.509,131.764 26.864,0 0,-26.615 -26.864,0 0,26.615 z"
         id="path420"
         inkscape:connector-curvature="0" /></clipPath><clipPath
       clipPathUnits="userSpaceOnUse"
       id="clipPath438"><path
         d="m 654.984,205.294 19.272,0 0,-19.091 -19.272,0 0,19.091 z"
         id="path440"
         inkscape:connector-curvature="0" /></clipPath><clipPath
       clipPathUnits="userSpaceOnUse"
       id="clipPath454"><path
         d="m 654.984,198.627 19.272,0 0,-19.092 -19.272,0 0,19.092 z"
         id="path456"
         inkscape:connector-curvature="0" /></clipPath><clipPath
       clipPathUnits="userSpaceOnUse"
       id="clipPath518"><path
         d="m 89.7925,643.213 22.9345,0 0,-22.722 -22.9345,0 0,22.722 z"
         id="path520"
         inkscape:connector-curvature="0" /></clipPath><clipPath
       clipPathUnits="userSpaceOnUse"
       id="clipPath534"><path
         d="m 89.7925,635.279 22.9345,0 0,-22.723 -22.9345,0 0,22.723 z"
         id="path536"
         inkscape:connector-curvature="0" /></clipPath><clipPath
       clipPathUnits="userSpaceOnUse"
       id="clipPath596"><path
         d="m 298.359,643.213 22.935,0 0,-22.722 -22.935,0 0,22.722 z"
         id="path598"
         inkscape:connector-curvature="0" /></clipPath><clipPath
       clipPathUnits="userSpaceOnUse"
       id="clipPath612"><path
         d="m 298.359,635.279 22.935,0 0,-22.723 -22.935,0 0,22.723 z"
         id="path614"
         inkscape:connector-curvature="0" /></clipPath><clipPath
       clipPathUnits="userSpaceOnUse"
       id="clipPath672"><path
         d="m 235.217,655.402 26.864,0 0,-26.614 -26.864,0 0,26.614 z"
         id="path674"
         inkscape:connector-curvature="0" /></clipPath><clipPath
       clipPathUnits="userSpaceOnUse"
       id="clipPath688"><path
         d="m 235.217,646.108 26.864,0 0,-26.615 -26.864,0 0,26.615 z"
         id="path690"
         inkscape:connector-curvature="0" /></clipPath><clipPath
       clipPathUnits="userSpaceOnUse"
       id="clipPath708"><path
         d="m 204.791,655.402 26.863,0 0,-26.614 -26.863,0 0,26.614 z"
         id="path710"
         inkscape:connector-curvature="0" /></clipPath><clipPath
       clipPathUnits="userSpaceOnUse"
       id="clipPath724"><path
         d="m 204.791,646.108 26.863,0 0,-26.615 -26.863,0 0,26.615 z"
         id="path726"
         inkscape:connector-curvature="0" /></clipPath><clipPath
       clipPathUnits="userSpaceOnUse"
       id="clipPath768"><path
         d="m 589.649,427.813 0,-99.762 149.94,0 0,99.762 -74.969,73.338 -74.971,-73.338 z"
         id="path770"
         inkscape:connector-curvature="0" /></clipPath><clipPath
       clipPathUnits="userSpaceOnUse"
       id="clipPath860"><path
         d="M 0,800 800,800 800,0 0,0 0,800 z"
         id="path862"
         inkscape:connector-curvature="0" /></clipPath><clipPath
       clipPathUnits="userSpaceOnUse"
       id="clipPath870"><path
         d="m 589.649,501.15 149.941,0 0,-81.856 -149.941,0 0,81.856 z"
         id="path872"
         inkscape:connector-curvature="0" /></clipPath><clipPath
       clipPathUnits="userSpaceOnUse"
       id="clipPath896"><path
         d="m 694.294,394.86 26.863,0 0,-26.614 -26.863,0 0,26.614 z"
         id="path898"
         inkscape:connector-curvature="0" /></clipPath><clipPath
       clipPathUnits="userSpaceOnUse"
       id="clipPath912"><path
         d="m 694.294,385.566 26.863,0 0,-26.615 -26.863,0 0,26.615 z"
         id="path914"
         inkscape:connector-curvature="0" /></clipPath><clipPath
       clipPathUnits="userSpaceOnUse"
       id="clipPath932"><path
         d="m 663.867,394.86 26.863,0 0,-26.614 -26.863,0 0,26.614 z"
         id="path934"
         inkscape:connector-curvature="0" /></clipPath><clipPath
       clipPathUnits="userSpaceOnUse"
       id="clipPath948"><path
         d="m 663.867,385.566 26.863,0 0,-26.615 -26.863,0 0,26.615 z"
         id="path950"
         inkscape:connector-curvature="0" /></clipPath><clipPath
       clipPathUnits="userSpaceOnUse"
       id="clipPath972"><path
         d="m 622.105,401.81 22.178,0 0,-27.592 -22.178,0 0,27.592 z"
         id="path974"
         inkscape:connector-curvature="0" /></clipPath><clipPath
       clipPathUnits="userSpaceOnUse"
       id="clipPath988"><path
         d="m 622.105,361.825 22.178,0 0,-27.591 -22.178,0 0,27.591 z"
         id="path990"
         inkscape:connector-curvature="0" /></clipPath><clipPath
       clipPathUnits="userSpaceOnUse"
       id="clipPath1174"><path
         d="m 341.8,174.01 0,-99.762 149.941,0 0,99.762 -74.971,73.338 -74.97,-73.338 z"
         id="path1176"
         inkscape:connector-curvature="0" /></clipPath><clipPath
       clipPathUnits="userSpaceOnUse"
       id="clipPath1266"><path
         d="M 0,800 800,800 800,0 0,0 0,800 z"
         id="path1268"
         inkscape:connector-curvature="0" /></clipPath><clipPath
       clipPathUnits="userSpaceOnUse"
       id="clipPath1276"><path
         d="m 341.8,247.348 149.941,0 0,-81.856 -149.941,0 0,81.856 z"
         id="path1278"
         inkscape:connector-curvature="0" /></clipPath><clipPath
       clipPathUnits="userSpaceOnUse"
       id="clipPath1306"><path
         d="m 405.709,148.007 22.178,0 0,-27.592 -22.178,0 0,27.592 z"
         id="path1308"
         inkscape:connector-curvature="0" /></clipPath><clipPath
       clipPathUnits="userSpaceOnUse"
       id="clipPath1322"><path
         d="m 405.709,108.022 22.178,0 0,-27.5904 -22.178,0 0,27.5904 z"
         id="path1324"
         inkscape:connector-curvature="0" /></clipPath><clipPath
       clipPathUnits="userSpaceOnUse"
       id="clipPath1366"><path
         d="m 357.888,141.058 26.864,0 0,-26.615 -26.864,0 0,26.615 z"
         id="path1368"
         inkscape:connector-curvature="0" /></clipPath><clipPath
       clipPathUnits="userSpaceOnUse"
       id="clipPath1382"><path
         d="m 357.888,131.765 26.864,0 0,-26.616 -26.864,0 0,26.616 z"
         id="path1384"
         inkscape:connector-curvature="0" /></clipPath><clipPath
       clipPathUnits="userSpaceOnUse"
       id="clipPath1404"><path
         d="m 448.79,141.058 26.863,0 0,-26.615 -26.863,0 0,26.615 z"
         id="path1406"
         inkscape:connector-curvature="0" /></clipPath><clipPath
       clipPathUnits="userSpaceOnUse"
       id="clipPath1420"><path
         d="m 448.79,131.765 26.863,0 0,-26.616 -26.863,0 0,26.616 z"
         id="path1422"
         inkscape:connector-curvature="0" /></clipPath><clipPath
       clipPathUnits="userSpaceOnUse"
       id="clipPath1490"><path
         d="m 74.8853,401.525 26.8637,0 0,-26.614 -26.8637,0 0,26.614 z"
         id="path1492"
         inkscape:connector-curvature="0" /></clipPath><clipPath
       clipPathUnits="userSpaceOnUse"
       id="clipPath1506"><path
         d="m 74.8853,392.231 26.8637,0 0,-26.615 -26.8637,0 0,26.615 z"
         id="path1508"
         inkscape:connector-curvature="0" /></clipPath><clipPath
       clipPathUnits="userSpaceOnUse"
       id="clipPath1528"><path
         d="m 183.441,401.525 26.864,0 0,-26.614 -26.864,0 0,26.614 z"
         id="path1530"
         inkscape:connector-curvature="0" /></clipPath><clipPath
       clipPathUnits="userSpaceOnUse"
       id="clipPath1544"><path
         d="m 183.441,392.231 26.864,0 0,-26.615 -26.864,0 0,26.615 z"
         id="path1546"
         inkscape:connector-curvature="0" /></clipPath><clipPath
       clipPathUnits="userSpaceOnUse"
       id="clipPath1566"><path
         d="m 104.51,470.175 26.864,0 0,-26.614 -26.864,0 0,26.614 z"
         id="path1568"
         inkscape:connector-curvature="0" /></clipPath><clipPath
       clipPathUnits="userSpaceOnUse"
       id="clipPath1582"><path
         d="m 104.51,460.881 26.864,0 0,-26.615 -26.864,0 0,26.615 z"
         id="path1584"
         inkscape:connector-curvature="0" /></clipPath><clipPath
       clipPathUnits="userSpaceOnUse"
       id="clipPath1602"><path
         d="m 74.084,470.175 26.863,0 0,-26.614 -26.863,0 0,26.614 z"
         id="path1604"
         inkscape:connector-curvature="0" /></clipPath><clipPath
       clipPathUnits="userSpaceOnUse"
       id="clipPath1618"><path
         d="m 74.084,460.881 26.863,0 0,-26.615 -26.863,0 0,26.615 z"
         id="path1620"
         inkscape:connector-curvature="0" /></clipPath><clipPath
       clipPathUnits="userSpaceOnUse"
       id="clipPath1640"><path
         d="m 183.441,470.175 26.864,0 0,-26.614 -26.864,0 0,26.614 z"
         id="path1642"
         inkscape:connector-curvature="0" /></clipPath><clipPath
       clipPathUnits="userSpaceOnUse"
       id="clipPath1656"><path
         d="m 183.441,460.881 26.864,0 0,-26.615 -26.864,0 0,26.615 z"
         id="path1658"
         inkscape:connector-curvature="0" /></clipPath><clipPath
       clipPathUnits="userSpaceOnUse"
       id="clipPath1676"><path
         d="m 153.015,470.175 26.863,0 0,-26.614 -26.863,0 0,26.614 z"
         id="path1678"
         inkscape:connector-curvature="0" /></clipPath><clipPath
       clipPathUnits="userSpaceOnUse"
       id="clipPath1692"><path
         d="m 153.015,460.881 26.863,0 0,-26.615 -26.863,0 0,26.615 z"
         id="path1694"
         inkscape:connector-curvature="0" /></clipPath><clipPath
       clipPathUnits="userSpaceOnUse"
       id="clipPath1756"><path
         d="m 147.522,211.224 22.934,0 0,-22.724 -22.934,0 0,22.724 z"
         id="path1758"
         inkscape:connector-curvature="0" /></clipPath><clipPath
       clipPathUnits="userSpaceOnUse"
       id="clipPath1772"><path
         d="m 147.522,203.288 22.934,0 0,-22.724 -22.934,0 0,22.724 z"
         id="path1774"
         inkscape:connector-curvature="0" /></clipPath><clipPath
       clipPathUnits="userSpaceOnUse"
       id="clipPath1794"><path
         d="m 85.1704,200.741 22.9336,0 0,-22.72 -22.9336,0 0,22.72 z"
         id="path1796"
         inkscape:connector-curvature="0" /></clipPath><clipPath
       clipPathUnits="userSpaceOnUse"
       id="clipPath1810"><path
         d="m 85.1704,192.808 22.9336,0 0,-22.723 -22.9336,0 0,22.723 z"
         id="path1812"
         inkscape:connector-curvature="0" /></clipPath><clipPath
       clipPathUnits="userSpaceOnUse"
       id="clipPath1832"><path
         d="m 85.1704,140.544 22.9336,0 0,-22.721 -22.9336,0 0,22.721 z"
         id="path1834"
         inkscape:connector-curvature="0" /></clipPath><clipPath
       clipPathUnits="userSpaceOnUse"
       id="clipPath1848"><path
         d="m 85.1704,132.611 22.9336,0 0,-22.723 -22.9336,0 0,22.723 z"
         id="path1850"
         inkscape:connector-curvature="0" /></clipPath><clipPath
       clipPathUnits="userSpaceOnUse"
       id="clipPath1870"><path
         d="m 209.436,200.741 22.934,0 0,-22.72 -22.934,0 0,22.72 z"
         id="path1872"
         inkscape:connector-curvature="0" /></clipPath><clipPath
       clipPathUnits="userSpaceOnUse"
       id="clipPath1886"><path
         d="m 209.436,192.808 22.934,0 0,-22.723 -22.934,0 0,22.723 z"
         id="path1888"
         inkscape:connector-curvature="0" /></clipPath><clipPath
       clipPathUnits="userSpaceOnUse"
       id="clipPath1908"><path
         d="m 209.436,140.544 22.934,0 0,-22.721 -22.934,0 0,22.721 z"
         id="path1910"
         inkscape:connector-curvature="0" /></clipPath><clipPath
       clipPathUnits="userSpaceOnUse"
       id="clipPath1924"><path
         d="m 209.436,132.611 22.934,0 0,-22.723 -22.934,0 0,22.723 z"
         id="path1926"
         inkscape:connector-curvature="0" /></clipPath><clipPath
       clipPathUnits="userSpaceOnUse"
       id="clipPath1968"><path
         d="m 407.908,373.565 14.427,0 0,-17.945 -14.427,0 0,17.945 z"
         id="path1970"
         inkscape:connector-curvature="0" /></clipPath><clipPath
       clipPathUnits="userSpaceOnUse"
       id="clipPath1984"><path
         d="m 407.908,347.56 14.427,0 0,-17.945 -14.427,0 0,17.945 z"
         id="path1986"
         inkscape:connector-curvature="0" /></clipPath><clipPath
       clipPathUnits="userSpaceOnUse"
       id="clipPath2008"><path
         d="m 361.959,461.363 21.537,0 0,-21.337 -21.537,0 0,21.337 z"
         id="path2010"
         inkscape:connector-curvature="0" /></clipPath><clipPath
       clipPathUnits="userSpaceOnUse"
       id="clipPath2024"><path
         d="m 361.959,453.912 21.537,0 0,-21.338 -21.537,0 0,21.338 z"
         id="path2026"
         inkscape:connector-curvature="0" /></clipPath><clipPath
       clipPathUnits="userSpaceOnUse"
       id="clipPath2042"><path
         d="m 355.899,429.717 33.657,0 0,-2.951 -33.657,0 0,2.951 z"
         id="path2044"
         inkscape:connector-curvature="0" /></clipPath><clipPath
       clipPathUnits="userSpaceOnUse"
       id="clipPath2060"><path
         d="m 404.322,461.363 21.537,0 0,-21.337 -21.537,0 0,21.337 z"
         id="path2062"
         inkscape:connector-curvature="0" /></clipPath><clipPath
       clipPathUnits="userSpaceOnUse"
       id="clipPath2076"><path
         d="m 404.322,453.912 21.537,0 0,-21.338 -21.537,0 0,21.338 z"
         id="path2078"
         inkscape:connector-curvature="0" /></clipPath><clipPath
       clipPathUnits="userSpaceOnUse"
       id="clipPath2094"><path
         d="m 398.263,429.717 33.656,0 0,-2.951 -33.656,0 0,2.951 z"
         id="path2096"
         inkscape:connector-curvature="0" /></clipPath><clipPath
       clipPathUnits="userSpaceOnUse"
       id="clipPath2112"><path
         d="m 446.686,461.363 21.537,0 0,-21.337 -21.537,0 0,21.337 z"
         id="path2114"
         inkscape:connector-curvature="0" /></clipPath><clipPath
       clipPathUnits="userSpaceOnUse"
       id="clipPath2128"><path
         d="m 446.686,453.912 21.537,0 0,-21.338 -21.537,0 0,21.338 z"
         id="path2130"
         inkscape:connector-curvature="0" /></clipPath><clipPath
       clipPathUnits="userSpaceOnUse"
       id="clipPath2146"><path
         d="m 440.626,429.717 33.656,0 0,-2.951 -33.656,0 0,2.951 z"
         id="path2148"
         inkscape:connector-curvature="0" /></clipPath><clipPath
       clipPathUnits="userSpaceOnUse"
       id="clipPath2164"><path
         d="m 361.959,417.014 21.537,0 0,-21.337 -21.537,0 0,21.337 z"
         id="path2166"
         inkscape:connector-curvature="0" /></clipPath><clipPath
       clipPathUnits="userSpaceOnUse"
       id="clipPath2180"><path
         d="m 361.959,409.563 21.537,0 0,-21.338 -21.537,0 0,21.338 z"
         id="path2182"
         inkscape:connector-curvature="0" /></clipPath><clipPath
       clipPathUnits="userSpaceOnUse"
       id="clipPath2198"><path
         d="m 355.899,385.368 33.657,0 0,-2.951 -33.657,0 0,2.951 z"
         id="path2200"
         inkscape:connector-curvature="0" /></clipPath><clipPath
       clipPathUnits="userSpaceOnUse"
       id="clipPath2216"><path
         d="m 404.322,417.014 21.537,0 0,-21.337 -21.537,0 0,21.337 z"
         id="path2218"
         inkscape:connector-curvature="0" /></clipPath><clipPath
       clipPathUnits="userSpaceOnUse"
       id="clipPath2232"><path
         d="m 404.322,409.563 21.537,0 0,-21.338 -21.537,0 0,21.338 z"
         id="path2234"
         inkscape:connector-curvature="0" /></clipPath><clipPath
       clipPathUnits="userSpaceOnUse"
       id="clipPath2250"><path
         d="m 398.263,385.368 33.656,0 0,-2.951 -33.656,0 0,2.951 z"
         id="path2252"
         inkscape:connector-curvature="0" /></clipPath><clipPath
       clipPathUnits="userSpaceOnUse"
       id="clipPath2268"><path
         d="m 446.686,417.014 21.537,0 0,-21.337 -21.537,0 0,21.337 z"
         id="path2270"
         inkscape:connector-curvature="0" /></clipPath><clipPath
       clipPathUnits="userSpaceOnUse"
       id="clipPath2284"><path
         d="m 446.686,409.563 21.537,0 0,-21.338 -21.537,0 0,21.338 z"
         id="path2286"
         inkscape:connector-curvature="0" /></clipPath><clipPath
       clipPathUnits="userSpaceOnUse"
       id="clipPath2302"><path
         d="m 440.626,385.368 33.656,0 0,-2.951 -33.656,0 0,2.951 z"
         id="path2304"
         inkscape:connector-curvature="0" /></clipPath><clipPath
       clipPathUnits="userSpaceOnUse"
       id="clipPath2320"><path
         d="m 361.959,372.665 21.537,0 0,-21.337 -21.537,0 0,21.337 z"
         id="path2322"
         inkscape:connector-curvature="0" /></clipPath><clipPath
       clipPathUnits="userSpaceOnUse"
       id="clipPath2336"><path
         d="m 361.959,365.214 21.537,0 0,-21.338 -21.537,0 0,21.338 z"
         id="path2338"
         inkscape:connector-curvature="0" /></clipPath><clipPath
       clipPathUnits="userSpaceOnUse"
       id="clipPath2354"><path
         d="m 355.899,341.02 33.657,0 0,-2.953 -33.657,0 0,2.953 z"
         id="path2356"
         inkscape:connector-curvature="0" /></clipPath><clipPath
       clipPathUnits="userSpaceOnUse"
       id="clipPath2372"><path
         d="m 446.686,372.665 21.537,0 0,-21.337 -21.537,0 0,21.337 z"
         id="path2374"
         inkscape:connector-curvature="0" /></clipPath><clipPath
       clipPathUnits="userSpaceOnUse"
       id="clipPath2388"><path
         d="m 446.686,365.214 21.537,0 0,-21.338 -21.537,0 0,21.338 z"
         id="path2390"
         inkscape:connector-curvature="0" /></clipPath><clipPath
       clipPathUnits="userSpaceOnUse"
       id="clipPath2406"><path
         d="m 440.626,341.02 33.656,0 0,-2.953 -33.656,0 0,2.953 z"
         id="path2408"
         inkscape:connector-curvature="0" /></clipPath><clipPath
       clipPathUnits="userSpaceOnUse"
       id="clipPath2424"><path
         d="m 332.194,475.769 169.175,0 -84.588,43.657 -84.587,-43.657 z"
         id="path2426"
         inkscape:connector-curvature="0" /></clipPath><clipPath
       clipPathUnits="userSpaceOnUse"
       id="clipPath3392"><path
         d="M 0,800 800,800 800,0 0,0 0,800 z"
         id="path3394"
         inkscape:connector-curvature="0" /></clipPath></defs><sodipodi:namedview
     pagecolor="#ffffff"
     bordercolor="#666666"
     borderopacity="1"
     objecttolerance="10"
     gridtolerance="10"
     guidetolerance="10"
     inkscape:pageopacity="0"
     inkscape:pageshadow="2"
     inkscape:window-width="1301"
     inkscape:window-height="744"
     id="namedview4"
     showgrid="false"
     fit-margin-top="0"
     fit-margin-left="0"
     fit-margin-right="0"
     fit-margin-bottom="0"
     inkscape:zoom="1.3350176"
     inkscape:cx="156.58808"
     inkscape:cy="114.82686"
     inkscape:window-x="65"
     inkscape:window-y="24"
     inkscape:window-maximized="1"
     inkscape:current-layer="g10" /><g
     id="g10"
     inkscape:groupmode="layer"
     inkscape:label="12289-NO8IYI"
     transform="matrix(1.25,0,0,-1.25,-715.35012,991.47834)"><path
       d="m 624.59,737.49133 -15.344,0 0,22.24028 15.344,0 0,-22.24028 z"
       style="fill:#a62227;fill-opacity:1;fill-rule:nonzero;stroke:none"
       id="path236"
       inkscape:connector-curvature="0" /><g
       id="g238"
       transform="matrix(1,0,0,0.82420249,739.5898,709.32009)"><path
         d="M 0,0 -74.97,73.337 -149.94,0 l 0,-99.762 149.94,0 L 0,0 z"
         style="fill:#f1f1f1;fill-opacity:1;fill-rule:nonzero;stroke:none"
         id="path240"
         inkscape:connector-curvature="0" /></g><g
       id="g242"
       transform="matrix(1,0,0,0.82420249,739.5898,702.29912)"><path
         d="M 0,0 0,8.519 -74.97,81.856 -149.94,8.519 -149.94,0 -74.97,73.542 0,0 z"
         style="fill:#e5e5e5;fill-opacity:1;fill-rule:nonzero;stroke:none"
         id="path244"
         inkscape:connector-curvature="0" /></g><g
       id="g246"
       transform="matrix(1,0,0,0.82420249,743.4502,621.30309)"><path
         d="m 0,0 0,3.785 c 0,1.792 -1.595,3.244 -3.563,3.244 l -150.535,0 c -1.967,0 -3.563,-1.452 -3.563,-3.244 L -157.661,0 0,0 z"
         style="fill:#c59b6d;fill-opacity:1;fill-rule:nonzero;stroke:none"
         id="path248"
         inkscape:connector-curvature="0" /></g><path
       d="m 585.789,621.30268 157.661,0 0,1.15801 -157.661,0 0,-1.15801 z"
       style="fill:#8b6239;fill-opacity:1;fill-rule:nonzero;stroke:none"
       id="path250"
       inkscape:connector-curvature="0" /><g
       id="g252"
       transform="matrix(1,0,0,0.9514374,683.2705,726.52896)"><path
         d="m 0,0 c 0,-11.791 -9.558,-21.349 -21.35,-21.349 -11.791,0 -21.348,9.558 -21.348,21.349 0,11.791 9.557,21.35 21.348,21.35 C -9.558,21.35 0,11.791 0,0"
         style="fill:#9fd6ed;fill-opacity:1;fill-rule:nonzero;stroke:none"
         id="path254"
         inkscape:connector-curvature="0" /></g><g
       id="g256"
       transform="matrix(1,0,0,0.9514374,683.2705,726.52896)"><path
         d="m 0,0 c 0,-11.791 -9.558,-21.349 -21.35,-21.349 -11.791,0 -21.348,9.558 -21.348,21.349 0,11.791 9.557,21.35 21.348,21.35 C -9.558,21.35 0,11.791 0,0 z"
         style="fill:none;stroke:#c0272d;stroke-width:3.56299996;stroke-linecap:butt;stroke-linejoin:miter;stroke-miterlimit:10;stroke-opacity:1;stroke-dasharray:none"
         id="path258"
         inkscape:connector-curvature="0" /></g><g
       id="g260"
       transform="matrix(1,0,0,0.9514374,661.9209,746.84178)"><path
         d="M 0,0 0,-42.699"
         style="fill:none;stroke:#c0272d;stroke-width:3.56299996;stroke-linecap:butt;stroke-linejoin:miter;stroke-miterlimit:10;stroke-opacity:1;stroke-dasharray:none"
         id="path262"
         inkscape:connector-curvature="0" /></g><g
       id="g264"
       transform="matrix(1,0,0,0.9514374,683.2705,726.52896)"><path
         d="M 0,0 -42.699,0"
         style="fill:none;stroke:#c0272d;stroke-width:3.56299996;stroke-linecap:butt;stroke-linejoin:miter;stroke-miterlimit:10;stroke-opacity:1;stroke-dasharray:none"
         id="path266"
         inkscape:connector-curvature="0" /></g><path
       d="m 615.114,650.88055 26.863,0 0,36.9273 -26.863,0 0,-36.9273 z"
       style="fill:#9fd6ed;fill-opacity:1;fill-rule:nonzero;stroke:none"
       id="path268"
       inkscape:connector-curvature="0" /><path
       d="m 641.978,651.46438 -26.863,0 0,36.39523 26.863,0 0,-36.39523 z m -30.426,-3.52047 33.989,0 0,43.43616 -33.989,0 0,-43.43616 z"
       style="fill:#c0272d;fill-opacity:1;fill-rule:nonzero;stroke:none"
       id="path270"
       inkscape:connector-curvature="0" /><g
       id="g272"
       transform="matrix(1,0,0,1.0863686,0,-24.661434)"><g
         id="g274" /><g
         id="g280"><g
           clip-path="url(#clipPath276)"
           id="g282"
           style="opacity:0.30000299"><g
             transform="translate(641.9775,653.5635)"
             id="g284"><path
               d="m 0,0 -26.863,-12.627 0,-5.961 L 0,-5.961 0,0 z"
               style="fill:#f1f1f1;fill-opacity:1;fill-rule:nonzero;stroke:none"
               id="path286"
               inkscape:connector-curvature="0" /></g></g></g></g><g
       id="g288"
       transform="matrix(1,0,0,0.82420249,0,141.80775)"><g
         id="g290" /><g
         id="g296"><g
           clip-path="url(#clipPath292)"
           id="g298"
           style="opacity:0.30000299"><g
             transform="translate(641.9775,644.2695)"
             id="g300"><path
               d="m 0,0 -26.863,-12.627 0,-5.961 L 0,-5.961 0,0 z"
               style="fill:#f1f1f1;fill-opacity:1;fill-rule:nonzero;stroke:none"
               id="path302"
               inkscape:connector-curvature="0" /></g></g></g></g><path
       d="m 649.385,644.98667 -41.677,0 0,11.80094 41.677,0 0,-11.80094 z"
       style="fill:#a62227;fill-opacity:1;fill-rule:nonzero;stroke:none"
       id="path304"
       inkscape:connector-curvature="0" /><g
       id="g306"
       transform="matrix(1,0,0,0.82420249,623.7187,660.23236)"><path
         d="m 0,0 c 0.014,0.13 0.022,0.262 0.022,0.396 0,1.788 -1.252,3.281 -2.927,3.657 -0.462,0.629 -1.199,1.042 -2.039,1.042 -1.09,0 -2.012,-0.692 -2.369,-1.657 -0.769,1.005 -1.978,1.657 -3.339,1.657 -2.323,0 -4.205,-1.883 -4.205,-4.205 0,-0.536 0.104,-1.048 0.288,-1.52 -0.854,-0.453 -1.442,-1.341 -1.442,-2.374 0,-0.424 0.107,-0.819 0.28,-1.175 l 2.944,0 1.716,0 0.179,0 3.027,0 0.504,0 0.34,0 2.005,0 0.057,0 2.558,0 1.491,0 2.819,0 c 0.315,0.436 0.504,0.967 0.504,1.545 C 2.413,-1.25 1.352,-0.126 0,0"
         style="fill:#8bc53f;fill-opacity:1;fill-rule:nonzero;stroke:none"
         id="path308"
         inkscape:connector-curvature="0" /></g><g
       id="g310"
       transform="matrix(1,0,0,0.82420249,633.374,660.23236)"><path
         d="m 0,0 c -0.014,0.13 -0.021,0.262 -0.021,0.396 0,1.788 1.252,3.281 2.926,3.657 0.462,0.629 1.199,1.042 2.039,1.042 1.091,0 2.013,-0.692 2.37,-1.657 0.769,1.005 1.978,1.657 3.339,1.657 2.323,0 4.204,-1.883 4.204,-4.205 0,-0.536 -0.104,-1.048 -0.287,-1.52 0.854,-0.453 1.442,-1.341 1.442,-2.374 0,-0.424 -0.107,-0.819 -0.28,-1.175 l -2.945,0 -1.715,0 -0.179,0 -3.027,0 -0.505,0 -0.34,0 -2.004,0 -0.057,0 -2.558,0 -1.491,0 -2.819,0 c -0.315,0.436 -0.504,0.967 -0.504,1.545 0,1.384 1.061,2.508 2.412,2.634"
         style="fill:#8bc53f;fill-opacity:1;fill-rule:nonzero;stroke:none"
         id="path312"
         inkscape:connector-curvature="0" /></g><path
       d="m 711.829,627.096 -31.473,0 0,65.58344 31.473,0 0,-65.58344 z"
       style="fill:#c59b6d;fill-opacity:1;fill-rule:nonzero;stroke:none"
       id="path314"
       inkscape:connector-curvature="0" /><g
       id="g316"
       transform="matrix(1,0,0,0.82420249,678.5752,694.14801)"><path
         d="m 0,0 0,-83.135 3.564,0 0,3.563 -10e-4,0 0,76.009 27.91,0 0,-76.009 -0.021,0 0,-3.563 3.583,0 L 35.035,0 0,0 z"
         style="fill:#c0272d;fill-opacity:1;fill-rule:nonzero;stroke:none"
         id="path318"
         inkscape:connector-curvature="0" /></g><path
       d="m 716.134,621.30268 -40.083,0 0,5.79332 40.083,0 0,-5.79332 z"
       style="fill:#a62227;fill-opacity:1;fill-rule:nonzero;stroke:none"
       id="path320"
       inkscape:connector-curvature="0" /><g
       id="g322"
       transform="matrix(1,0,0,0.82420249,706.6328,665.49609)"><path
         d="M 0,0 -0.173,6.643 -0.312,13.286 -0.494,26.572 0,26.078 l -21.081,-0.099 0.593,0.593 -0.06,-13.286 -0.03,-6.643 L -20.664,0 -21.081,0.417 C -17.567,0.363 -14.054,0.336 -10.54,0.259 -7.027,0.175 -3.514,0.118 0,0 m 0,0 c -3.514,-0.118 -7.027,-0.175 -10.54,-0.259 -3.514,-0.077 -7.027,-0.104 -10.541,-0.158 l -0.412,-0.007 -0.005,0.424 -0.086,6.643 -0.03,6.643 -0.06,13.286 -0.003,0.596 0.596,-0.002 L 0,27.067 0.501,27.064 0.494,26.572 0.312,13.286 0.173,6.643 0,0 z"
         style="fill:#a57c52;fill-opacity:1;fill-rule:nonzero;stroke:none"
         id="path324"
         inkscape:connector-curvature="0" /></g><g
       id="g326"
       transform="matrix(1,0,0,0.82420249,706.6328,632.54093)"><path
         d="M 0,0 -0.173,6.643 -0.312,13.286 -0.494,26.573 0,26.078 l -21.081,-0.099 0.593,0.594 -0.06,-13.287 -0.03,-6.643 L -20.664,0 -21.081,0.417 C -17.567,0.363 -14.054,0.336 -10.54,0.259 -7.027,0.175 -3.514,0.118 0,0 m 0,0 c -3.514,-0.118 -7.027,-0.175 -10.54,-0.259 -3.514,-0.077 -7.027,-0.104 -10.541,-0.158 l -0.412,-0.007 -0.005,0.424 -0.086,6.643 -0.03,6.643 -0.06,13.287 -0.003,0.595 0.596,-0.002 L 0,27.067 0.501,27.065 0.494,26.573 0.312,13.286 0.173,6.643 0,0 z"
         style="fill:#a57c52;fill-opacity:1;fill-rule:nonzero;stroke:none"
         id="path328"
         inkscape:connector-curvature="0" /></g><g
       id="g330"
       transform="matrix(1,0,0,0.82420249,707.6514,658.88722)"><path
         d="m 0,0 c 0,-0.972 -0.788,-1.759 -1.76,-1.759 -0.971,0 -1.759,0.787 -1.759,1.759 0,0.972 0.788,1.759 1.759,1.759 C -0.788,1.759 0,0.972 0,0"
         style="fill:#754c24;fill-opacity:1;fill-rule:nonzero;stroke:none"
         id="path332"
         inkscape:connector-curvature="0" /></g><g
       id="g334"
       transform="matrix(1,0,0,0.82420249,664.6201,784.20342)"><path
         d="m 0,0 -92.34,-92.34 17.13,0 L 0,-19.299 75.209,-92.34 92.34,-92.34 0,0 z"
         style="fill:#c0272d;fill-opacity:1;fill-rule:nonzero;stroke:none"
         id="path336"
         inkscape:connector-curvature="0" /></g><g
       id="g338"
       transform="matrix(1,0,0,0.82420249,628.5459,760.22102)"><path
         d="m 0,0 c 0,-1.967 -1.595,-3.563 -3.563,-3.563 l -16.13,0 c -1.968,0 -3.564,1.596 -3.564,3.563 l 0,5.938 c 0,1.968 1.596,3.563 3.564,3.563 l 16.13,0 C -1.595,9.501 0,7.906 0,5.938 L 0,0 z"
         style="fill:#c0272d;fill-opacity:1;fill-rule:nonzero;stroke:none"
         id="path340"
         inkscape:connector-curvature="0" /></g><g
       id="g1126"
       transform="translate(354.5747,178.4922)" /><g
       id="g1274" /><g
       id="g1304" /><g
       id="g1320" /><g
       id="g1364" /><g
       id="g1380" /><g
       id="g1402" /><g
       id="g1418" /><g
       id="g1488" /><g
       id="g1504" /><g
       id="g1526" /><g
       id="g1542" /><g
       id="g1564" /><g
       id="g1580" /><g
       id="g1600" /><g
       id="g1616" /><g
       id="g1638" /><g
       id="g1654" /><g
       id="g1674" /><g
       id="g1690" /><g
       id="g1754" /><g
       id="g1770" /><g
       id="g1792" /><g
       id="g1808" /><g
       id="g1830" /><g
       id="g1846" /><g
       id="g1868" /><g
       id="g1884" /><g
       id="g1906" /><g
       id="g1922" /><g
       id="g1966" /><g
       id="g1982" /><g
       id="g2006" /><g
       id="g2022" /><g
       id="g2040" /><g
       id="g2058" /><g
       id="g2074" /><g
       id="g2092" /><g
       id="g2110" /><g
       id="g2126" /><g
       id="g2144" /><g
       id="g2162" /><g
       id="g2178" /><g
       id="g2196" /><g
       id="g2214" /><g
       id="g2230" /><g
       id="g2248" /><g
       id="g2266" /><g
       id="g2282" /><g
       id="g2300" /><g
       id="g2318" /><g
       id="g2334" /><g
       id="g2352" /><g
       id="g2370" /><g
       id="g2386" /><g
       id="g2404" /></g></svg>