<?xml version="1.0" encoding="UTF-8" standalone="no"?>
<!-- Created with Inkscape (http://www.inkscape.org/) -->

<svg
   xmlns:dc="http://purl.org/dc/elements/1.1/"
   xmlns:cc="http://creativecommons.org/ns#"
   xmlns:rdf="http://www.w3.org/1999/02/22-rdf-syntax-ns#"
   xmlns:svg="http://www.w3.org/2000/svg"
   xmlns="http://www.w3.org/2000/svg"
   xmlns:xlink="http://www.w3.org/1999/xlink"
   xmlns:sodipodi="http://sodipodi.sourceforge.net/DTD/sodipodi-0.dtd"
   xmlns:inkscape="http://www.inkscape.org/namespaces/inkscape"
   id="svg2"
   version="1.1"
   inkscape:version="0.48.4 r9939"
   width="234.75121"
   height="177.7775"
   xml:space="preserve"
   sodipodi:docname="open.svg"><metadata
     id="metadata8"><rdf:RDF><cc:Work
         rdf:about=""><dc:format>image/svg+xml</dc:format><dc:type
           rdf:resource="http://purl.org/dc/dcmitype/StillImage" /><dc:title /></cc:Work></rdf:RDF></metadata><defs
     id="defs6"><radialGradient
       fx="0"
       fy="0"
       cx="0"
       cy="0"
       r="1"
       gradientUnits="userSpaceOnUse"
       gradientTransform="matrix(400,0,0,-400,400,400)"
       spreadMethod="pad"
       id="radialGradient14"><stop
         style="stop-opacity:1;stop-color:#ffffff"
         offset="0"
         id="stop16" /><stop
         style="stop-opacity:1;stop-color:#dcdede"
         offset="1"
         id="stop18" /></radialGradient><radialGradient
       inkscape:collect="always"
       xlink:href="#radialGradient14"
       id="radialGradient3283"
       gradientUnits="userSpaceOnUse"
       gradientTransform="matrix(40,0,0,-40,40,40)"
       spreadMethod="pad"
       cx="0"
       cy="0"
       fx="0"
       fy="0"
       r="1" /></defs><sodipodi:namedview
     pagecolor="#ffffff"
     bordercolor="#666666"
     borderopacity="1"
     objecttolerance="10"
     gridtolerance="10"
     guidetolerance="10"
     inkscape:pageopacity="0"
     inkscape:pageshadow="2"
     inkscape:window-width="1301"
     inkscape:window-height="744"
     id="namedview4"
     showgrid="false"
     fit-margin-top="0"
     fit-margin-left="0"
     fit-margin-right="0"
     fit-margin-bottom="0"
     inkscape:zoom="2.36"
     inkscape:cx="105.6337"
     inkscape:cy="86.702107"
     inkscape:window-x="65"
     inkscape:window-y="24"
     inkscape:window-maximized="1"
     inkscape:current-layer="g10" /><g
     id="g10"
     inkscape:groupmode="layer"
     inkscape:label="ink_ext_XXXXXX"
     transform="matrix(1.25,0,0,-1.25,-693.37355,919.7925)"><path
       inkscape:connector-curvature="0"
       id="path128"
       style="fill:#a3212a;fill-opacity:1;fill-rule:nonzero;stroke:none"
       d="m 717.164,711.795 c -0.059,1.354 -1.175,2.422 -2.53,2.422 l -77.369,0 -22.577,20.941 c -0.469,0.434 -1.085,0.676 -1.722,0.676 l -35.474,0 c -0.701,0 -1.37,-0.29 -1.848,-0.801 l -20.259,-21.611 c -0.467,-0.498 -0.712,-1.161 -0.684,-1.843 l 5.068,-115.544 c 0.059,-1.355 1.174,-2.423 2.531,-2.423 l 157.399,0 c 0.693,0 1.354,0.283 1.831,0.782 0.48,0.499 0.732,1.172 0.701,1.862 l -5.067,115.539" /><path
       inkscape:connector-curvature="0"
       id="path130"
       style="fill:#dfe0e1;fill-opacity:1;fill-rule:nonzero;stroke:none"
       d="M 710.223,693.973 562.7,689.077 c -1.399,-0.046 -2.494,-1.217 -2.448,-2.616 l 2.88,-86.759 c 0.044,-1.398 1.217,-2.494 2.615,-2.448 l 147.524,4.896 c 1.398,0.046 2.495,1.217 2.446,2.617 l -2.877,86.758 c -0.047,1.398 -1.219,2.494 -2.617,2.448" /><path
       inkscape:connector-curvature="0"
       id="path132"
       style="fill:#efeff0;fill-opacity:1;fill-rule:nonzero;stroke:none"
       d="m 717.206,703.26 -147.589,2.24 c -1.399,0.021 -2.549,-1.095 -2.571,-2.495 l -1.317,-86.796 c -0.023,-1.4 1.095,-2.55 2.494,-2.572 l 147.588,-2.239 c 1.399,-0.021 2.55,1.095 2.57,2.494 l 1.318,86.797 c 0.02,1.399 -1.095,2.55 -2.493,2.571" /><path
       inkscape:connector-curvature="0"
       id="path134"
       style="fill:#ffffff;fill-opacity:1;fill-rule:nonzero;stroke:none"
       d="m 724.871,698.24 -146.539,17.706 c -1.389,0.168 -2.651,-0.822 -2.819,-2.211 L 565.1,627.555 c -0.167,-1.389 0.822,-2.651 2.211,-2.819 L 713.85,607.031 c 1.388,-0.168 2.651,0.821 2.819,2.211 l 10.412,86.179 c 0.169,1.39 -0.82,2.651 -2.21,2.819" /><path
       inkscape:connector-curvature="0"
       id="path136"
       style="fill:#d02836;fill-opacity:1;fill-rule:nonzero;stroke:none"
       d="m 741.895,722.424 c -0.48,0.566 -1.185,0.892 -1.928,0.892 l -78.364,0 c -0.638,0 -1.253,-0.242 -1.722,-0.676 l -22.578,-20.941 -54.737,0 c -1.212,0 -2.252,-0.857 -2.485,-2.044 L 559.814,596.634 c -0.146,-0.743 0.047,-1.513 0.529,-2.098 0.481,-0.584 1.199,-0.924 1.957,-0.924 l 157.399,0 c 1.243,0 2.302,0.901 2.502,2.127 l 20.266,124.636 c 0.119,0.734 -0.089,1.484 -0.572,2.049" /><path
       inkscape:connector-curvature="0"
       id="path3051"
       d="m 635.16805,605.81452 c -5.78583,0.69687 -13.37638,3.8214 -18.36968,7.56159 -2.77078,2.07544 -7.34409,6.78338 -9.37051,9.64638 -9.9641,14.07755 -9.36801,34.13945 1.41734,47.70234 5.77315,7.25991 13.06278,11.97814 22.44397,14.52692 l 4.09157,1.11165 22.92325,0.15268 c 16.4579,0.10962 23.25224,0.0164 24.08967,-0.33046 0.64152,-0.26573 1.7153,-1.05551 2.38614,-1.75507 l 1.21975,-1.27193 0.21268,-8.16161 c 0.15252,-5.85294 0.38052,-8.46241 0.80601,-9.22502 0.32632,-0.58488 2.36203,-2.88187 4.52377,-5.10442 2.16175,-2.22255 4.06197,-4.47446 4.2227,-5.00425 0.16072,-0.5298 0.46987,-0.85348 0.68698,-0.71929 0.23809,0.14714 0.39474,-3.40518 0.39474,-8.95167 0,-5.29005 -0.16139,-9.09588 -0.38,-8.96077 -0.20899,0.12917 -0.48985,-0.20291 -0.62414,-0.73793 -0.13428,-0.53504 -2.021,-2.84338 -4.19271,-5.12965 -5.61805,-5.91442 -5.43705,-5.43843 -5.43894,-14.30273 -8.6e-4,-6.72256 -0.0855,-7.58816 -0.86005,-8.85862 -1.61558,-2.64986 -1.50579,-2.6388 -25.60387,-2.57705 -11.99757,0.0307 -23.05797,0.20576 -24.57867,0.38891 z"
       style="fill:#ffbe06;stroke-width:1.60000000000000009;stroke-miterlimit:4;stroke-dasharray:none;stroke:#d99400;stroke-opacity:1;fill-opacity:1" /><path
       inkscape:connector-curvature="0"
       id="path138"
       style="fill:#000000;fill-opacity:0.08219178;fill-rule:nonzero;stroke:none"
       d="m 560.343,594.536 c 0.481,-0.584 1.199,-0.924 1.955,-0.924 l 157.401,0 c 1.243,0 2.302,0.901 2.502,2.127 l 5.885,36.195 -168.273,-35.3 c -0.145,-0.743 0.048,-1.513 0.53,-2.098" /></g></svg>