<?xml version="1.0" encoding="UTF-8" standalone="no"?>
<!-- Created with Inkscape (http://www.inkscape.org/) -->

<svg
   xmlns:dc="http://purl.org/dc/elements/1.1/"
   xmlns:cc="http://creativecommons.org/ns#"
   xmlns:rdf="http://www.w3.org/1999/02/22-rdf-syntax-ns#"
   xmlns:svg="http://www.w3.org/2000/svg"
   xmlns="http://www.w3.org/2000/svg"
   xmlns:sodipodi="http://sodipodi.sourceforge.net/DTD/sodipodi-0.dtd"
   xmlns:inkscape="http://www.inkscape.org/namespaces/inkscape"
   id="svg3039"
   version="1.1"
   inkscape:version="0.48.4 r9939"
   width="231.88406"
   height="195.77536"
   sodipodi:docname="piece3.svg">
  <metadata
     id="metadata3045">
    <rdf:RDF>
      <cc:Work
         rdf:about="">
        <dc:format>image/svg+xml</dc:format>
        <dc:type
           rdf:resource="http://purl.org/dc/dcmitype/StillImage" />
        <dc:title />
      </cc:Work>
    </rdf:RDF>
  </metadata>
  <defs
     id="defs3043" />
  <sodipodi:namedview
     pagecolor="#ffffff"
     bordercolor="#666666"
     borderopacity="1"
     objecttolerance="10"
     gridtolerance="10"
     guidetolerance="10"
     inkscape:pageopacity="0"
     inkscape:pageshadow="2"
     inkscape:window-width="1404"
     inkscape:window-height="1024"
     id="namedview3041"
     showgrid="false"
     fit-margin-top="0"
     fit-margin-left="0"
     fit-margin-right="0"
     fit-margin-bottom="0"
     inkscape:zoom="1.0729879"
     inkscape:cx="-137.95628"
     inkscape:cy="91.838192"
     inkscape:window-x="75"
     inkscape:window-y="34"
     inkscape:window-maximized="0"
     inkscape:current-layer="svg3039" />
  <path
     inkscape:connector-curvature="0"
     id="path3053"
     d="M 85.884081,194.40249 C 76.409044,193.2543 64.993689,189.71076 54.808979,184.75619 31.007396,173.1774 13.194226,152.37193 4.819706,126.36961 c -2.40973,-7.48203 -2.78992,-10.47606 -3.17463,-25 -0.51723,-19.526846 0.59681,-26.243086 6.73668,-40.61386 10.80014,-25.278459 30.23968,-44.06418 55.20609,-53.3493166 2.912929,-1.08333 9.121235,-2.96653 13.796235,-4.18488 8.16357,-2.12752 10.617527,-2.22948003 61.999999,-2.57616003 l 53.49999,-0.36097 4.44146,2.29259003 c 8.0863,4.17399 8.52,5.43186 8.83093,25.6130906 0.14981,9.723726 0.52008,18.788384 0.82281,20.143685 0.30273,1.355301 4.77028,6.75929 9.92788,12.008864 5.15761,5.249571 10.07484,11.213741 10.92719,13.253701 1.22353,2.9283 1.54973,7.89925 1.54973,23.61613 0,10.948926 -0.29576,21.385906 -0.65724,23.193306 -0.46627,2.33139 -3.65513,6.42892 -10.97539,14.10285 -5.67498,5.94918 -10.54856,11.83915 -10.83018,13.08883 -0.28161,1.24968 -0.63018,10.22826 -0.77461,19.95242 -0.28704,19.32689 -0.57681,20.35103 -7.1467,25.25793 -2.70013,2.01667 -3.90243,2.06463 -54.93821,2.19177 -28.69772,0.0715 -54.877659,-0.19721 -58.177659,-0.5971 z"
     style="fill:#61af5e" />
  <path
     inkscape:connector-curvature="0"
     id="path3051"
     d="M 84.384081,192.32388 C 70.78213,190.68561 52.937483,183.34015 41.198716,174.5473 c -6.51384,-4.87914 -17.26526,-15.94707 -22.0292,-22.67769 -23.42463,-33.09499 -22.0233,-80.258626 3.33204,-112.143674 13.57215,-17.06736 30.709353,-28.159465 52.76364,-34.1514126 l 9.618885,-2.61337 53.890389,-0.35894 c 38.69096,-0.2577 54.66379,-0.0386 56.63252,0.77688 1.50816,0.62471 4.03249,2.48141 5.6096,4.12601 l 2.86748,2.9901846 0.5,19.187158 c 0.35857,13.759711 0.89456,19.894331 1.89485,21.687159 0.76717,1.375 5.55291,6.775 10.63497,12 5.08206,5.224999 9.54928,10.519029 9.92714,11.764519 0.37787,1.24549 1.10463,2.00643 1.61504,1.69098 0.55974,-0.34593 0.928,8.00524 0.928,21.0445 0,12.436426 -0.37941,21.383546 -0.89333,21.065936 -0.49133,-0.30366 -1.15161,0.477 -1.4673,1.73481 -0.31569,1.2578 -4.75119,6.68449 -9.85668,12.0593 -13.2075,13.90425 -12.78198,12.78525 -12.78643,33.62436 -0.003,15.80412 -0.20093,17.83904 -2.02189,20.82578 -3.79807,6.22956 -3.53997,6.20358 -60.19225,6.05839 -28.20517,-0.0723 -54.207109,-0.48372 -57.782109,-0.9143 z"
     style="fill:#ffcc00;stroke:#806600;stroke-width:7.5;stroke-linejoin:round;stroke-miterlimit:4;stroke-opacity:1;stroke-dasharray:none" />
  <path
     style="fill:#000000;fill-opacity:0.13698629;stroke:none"
     d="M 84.384081,192.32388 C 70.78213,190.68561 52.937483,183.34015 41.198716,174.5473 283.7245,124.29231 230.34,116.34838 217.16676,132.72965 c -21.72044,17.11088 -6.1315,39.81914 -14.80832,54.45014 -3.79807,6.22956 -3.53997,6.20358 -60.19225,6.05839 -28.20517,-0.0723 -54.207109,-0.48372 -57.782109,-0.9143 z"
     id="path4572"
     inkscape:connector-curvature="0"
     sodipodi:nodetypes="scccss" />
</svg>
