<?xml version="1.0" encoding="UTF-8" standalone="no"?>
<!-- Created with Inkscape (http://www.inkscape.org/) -->

<svg
   xmlns:dc="http://purl.org/dc/elements/1.1/"
   xmlns:cc="http://creativecommons.org/ns#"
   xmlns:rdf="http://www.w3.org/1999/02/22-rdf-syntax-ns#"
   xmlns:svg="http://www.w3.org/2000/svg"
   xmlns="http://www.w3.org/2000/svg"
   xmlns:sodipodi="http://sodipodi.sourceforge.net/DTD/sodipodi-0.dtd"
   xmlns:inkscape="http://www.inkscape.org/namespaces/inkscape"
   id="svg3039"
   version="1.1"
   inkscape:version="0.48.4 r9939"
   width="227.85101"
   height="194.72668"
   sodipodi:docname="scratch_piece.png">
  <metadata
     id="metadata3045">
    <rdf:RDF>
      <cc:Work
         rdf:about="">
        <dc:format>image/svg+xml</dc:format>
        <dc:type
           rdf:resource="http://purl.org/dc/dcmitype/StillImage" />
        <dc:title></dc:title>
      </cc:Work>
    </rdf:RDF>
  </metadata>
  <defs
     id="defs3043" />
  <sodipodi:namedview
     pagecolor="#ffffff"
     bordercolor="#666666"
     borderopacity="1"
     objecttolerance="10"
     gridtolerance="10"
     guidetolerance="10"
     inkscape:pageopacity="0"
     inkscape:pageshadow="2"
     inkscape:window-width="897"
     inkscape:window-height="667"
     id="namedview3041"
     showgrid="false"
     fit-margin-top="0"
     fit-margin-left="0"
     fit-margin-right="0"
     fit-margin-bottom="0"
     inkscape:zoom="1.8650794"
     inkscape:cx="112.27867"
     inkscape:cy="103.85853"
     inkscape:window-x="75"
     inkscape:window-y="24"
     inkscape:window-maximized="0"
     inkscape:current-layer="svg3039" />
  <path
     inkscape:connector-curvature="0"
     id="path3053"
     d="M 84.35102,194.11806 C 74.875983,192.96987 63.460628,189.42633 53.275918,184.47176 29.474336,172.89297 11.661167,152.0875 3.2866449,126.08518 0.87691995,118.60315 0.49672295,115.60912 0.11201495,101.08518 -0.40521005,81.558338 0.70882195,74.842098 6.8486909,60.471324 17.648834,35.192865 37.088376,16.407144 62.054785,7.122009 64.967714,6.038676 71.17602,4.155477 75.85102,2.937122 c 8.16357,-2.127513 10.617527,-2.229477 62,-2.576156 L 191.35101,0 l 4.44146,2.292589 c 8.0863,4.173987 8.52,5.43186 8.83093,25.613089 0.14981,9.723726 0.52008,18.788384 0.82281,20.143685 0.30273,1.355301 4.77028,6.75929 9.92788,12.008864 5.15761,5.249571 10.07484,11.213741 10.92719,13.253701 1.22353,2.9283 1.54973,7.89925 1.54973,23.61613 0,10.948922 -0.29576,21.385902 -0.65724,23.193302 -0.46627,2.33139 -3.65513,6.42892 -10.97539,14.10285 -5.67498,5.94918 -10.54856,11.83915 -10.83018,13.08883 -0.28161,1.24968 -0.63018,10.22826 -0.77461,19.95242 -0.28704,19.32689 -0.57681,20.35103 -7.1467,25.25793 -2.70013,2.01667 -3.90243,2.06463 -54.93821,2.19177 -28.69772,0.0715 -54.87766,-0.19721 -58.17766,-0.5971 z"
     style="fill:#61af5e" />
  <path
     inkscape:connector-curvature="0"
     id="path3051"
     d="M 82.85102,192.03945 C 69.249069,190.40118 51.404422,183.05572 39.665652,174.26287 33.151818,169.38373 22.400393,158.3158 17.636458,151.58518 -5.7881781,118.49019 -4.3868421,71.326558 20.968494,39.44151 34.540643,22.37415 51.677848,11.282045 73.732135,5.290094 L 83.35102,2.676729 137.24141,2.317788 c 38.69096,-0.257704 54.66379,-0.03859 56.63252,0.776883 1.50816,0.624704 4.03249,2.481407 5.6096,4.126008 l 2.86748,2.990183 0.5,19.187158 c 0.35857,13.759711 0.89456,19.894331 1.89485,21.687159 0.76717,1.375 5.55291,6.775 10.63497,12 5.08206,5.224999 9.54928,10.519029 9.92714,11.764519 0.37787,1.24549 1.10463,2.00643 1.61504,1.69098 0.55974,-0.34593 0.928,8.00524 0.928,21.0445 0,12.436422 -0.37941,21.383542 -0.89333,21.065932 -0.49133,-0.30366 -1.15161,0.477 -1.4673,1.73481 -0.31569,1.2578 -4.75119,6.68449 -9.85668,12.0593 -13.2075,13.90425 -12.78198,12.78525 -12.78643,33.62436 -0.003,15.80412 -0.20093,17.83904 -2.02189,20.82578 -3.79807,6.22956 -3.53997,6.20358 -60.19225,6.05839 -28.20517,-0.0723 -54.20711,-0.48372 -57.78211,-0.9143 z"
     style="fill:#10b900" />
</svg>
