<?xml version="1.0" encoding="UTF-8" standalone="no"?>
<!-- Created with Inkscape (http://www.inkscape.org/) -->

<svg
   xmlns:dc="http://purl.org/dc/elements/1.1/"
   xmlns:cc="http://creativecommons.org/ns#"
   xmlns:rdf="http://www.w3.org/1999/02/22-rdf-syntax-ns#"
   xmlns:svg="http://www.w3.org/2000/svg"
   xmlns="http://www.w3.org/2000/svg"
   xmlns:sodipodi="http://sodipodi.sourceforge.net/DTD/sodipodi-0.dtd"
   xmlns:inkscape="http://www.inkscape.org/namespaces/inkscape"
   id="svg3039"
   version="1.1"
   inkscape:version="0.48.4 r9939"
   width="419.46982"
   height="419.28278"
   sodipodi:docname="save.svg">
  <metadata
     id="metadata3045">
    <rdf:RDF>
      <cc:Work
         rdf:about="">
        <dc:format>image/svg+xml</dc:format>
        <dc:type
           rdf:resource="http://purl.org/dc/dcmitype/StillImage" />
        <dc:title></dc:title>
      </cc:Work>
    </rdf:RDF>
  </metadata>
  <defs
     id="defs3043" />
  <sodipodi:namedview
     pagecolor="#ffffff"
     bordercolor="#666666"
     borderopacity="1"
     objecttolerance="10"
     gridtolerance="10"
     guidetolerance="10"
     inkscape:pageopacity="0"
     inkscape:pageshadow="2"
     inkscape:window-width="1301"
     inkscape:window-height="744"
     id="namedview3041"
     showgrid="false"
     inkscape:zoom="0.41224878"
     inkscape:cx="347.23832"
     inkscape:cy="486.31301"
     inkscape:window-x="65"
     inkscape:window-y="24"
     inkscape:window-maximized="1"
     inkscape:current-layer="svg3039"
     fit-margin-top="0"
     fit-margin-left="0"
     fit-margin-right="0"
     fit-margin-bottom="0" />
  <path
     inkscape:connector-curvature="0"
     id="path3063"
     d="m 49.927085,402.65473 c -7.62967,-1.72172 -14.29482,-5.57155 -20.67834,-11.94392 -6.50425,-6.4929 -10.59319,-13.86513 -12.37003,-22.30275 -1.49451,-7.09691 -1.58522,-307.453277 -0.0952,-315.309954 3.43098,-18.091493 18.00903,-32.561043 36.19165,-35.922283 3.26767,-0.604061 15.23527,-0.893766 28.46302,-0.689017 44.676745,0.691542 234.018835,0.875241 245.242255,0.237934 l 11.41765,-0.648336 32.83235,32.832357 32.83236,32.832349 0,140.68387 c 0,100.42344 -0.32202,142.20037 -1.12526,145.98308 -1.56125,7.35243 -6.20455,16.16841 -11.49425,21.82353 -4.97319,5.31674 -15.92245,11.559 -21.97189,12.52634 -7.167,1.14605 -314.148085,1.04681 -319.244285,-0.1032 z"
     style="fill:#eaeef0;stroke:#00005e;stroke-width:31.39999961999999911;stroke-miterlimit:4;stroke-opacity:1;stroke-dasharray:none" />
  <path
     inkscape:connector-curvature="0"
     id="path3061"
     d="m 51.600315,401.96889 c -15.67066,-2.66764 -30.6707,-18.06291 -33.82989,-34.72126 -1.35948,-7.16852 -1.34161,-302.956397 0.0189,-312.366457 1.38183,-9.557737 5.22268,-17.066726 12.40166,-24.24571 7.17898,-7.178985 14.68797,-11.019826 24.24571,-12.40166 8.72297,-1.261146 46.345655,-1.299215 48.326105,-0.0489 1.2745,0.80463 1.57517,6.552522 2,38.23469 l 0.5,37.287687 2.76301,5.62399 c 5.26518,10.71706 14.40437,18.76048 25.32096,22.28503 4.55813,1.47165 12.6775,1.61295 78.5,1.3662 l 73.41603,-0.27522 6,-2.93296 c 7.67055,-3.74957 16.31747,-12.39649 20.06704,-20.06704 l 2.93296,-6 0.5,-37.287687 c 0.42483,-31.682168 0.7255,-37.43006 2,-38.23469 0.825,-0.520847 5.78414,-0.953885 11.02031,-0.962307 l 9.5203,-0.01531 32.7297,32.785082 32.72969,32.785072 0,139.57843 c 0,89.57691 -0.36097,141.48184 -1.00765,144.89176 -2.85613,15.06032 -14.25806,28.21642 -29.02512,33.49059 -4.0085,1.43166 -20.50328,1.61468 -160.62969,1.78228 -85.88935,0.10273 -158.114345,-0.14549 -160.499995,-0.55161 z M 336.26277,322.70728 c 0,-64.43295 0.24223,-62.19653 -7.94043,-73.31188 -4.69745,-6.38103 -10.84357,-10.93682 -19.45429,-14.42042 l -5.60528,-2.2677 -89,-0.28716 c -58.96987,-0.19027 -91.30021,0.0694 -95.81711,0.76948 -12.39826,1.92171 -23.828135,9.58269 -29.991795,20.10228 -5.52002,9.42106 -5.69109,11.55405 -5.69109,70.95883 0,30.04278 0.30172,54.92496 0.6705,55.29373 0.36877,0.36878 57.406265,0.55628 126.749995,0.41667 l 126.0795,-0.25383 0,-57 z m -210.82769,14.83898 c -0.36977,-0.36977 -0.67231,-5.09731 -0.67231,-10.50565 l 0,-9.83333 85.03498,0 85.03499,0 -0.28499,10.25 -0.28498,10.25 -84.07769,0.25564 c -46.24273,0.14061 -84.38023,-0.0469 -84.75,-0.41666 z m -0.45729,-52.58898 0.28498,-10.25 84.5,0 84.5,0 0.28498,10.25 0.28499,10.25 -85.06997,0 -85.06997,0 0.28499,-10.25 z M 135.6424,101.41306 c -3.90574,-2.04038 -6.16227,-4.11409 -8.36419,-7.68653 l -3.01544,-4.8923 0.13016,-34.430397 c 0.10569,-27.955432 0.38777,-34.59358 1.5,-35.298156 1.72158,-1.09059 80.91655,-1.155527 82.63005,-0.06775 1.87154,1.188104 3.02769,60.716553 1.31767,67.844733 -1.50645,6.2796 -6.84293,12.85896 -12.52207,15.4385 -3.60422,1.63709 -6.9659,1.84465 -30.19162,1.86417 l -26.13581,0.022 -5.34875,-2.79422 z"
     style="fill:#bac3ca" />
  <path
     inkscape:connector-curvature="0"
     id="path3059"
     d="m 50.013445,400.66214 c -15.76319,-4.24466 -27.94371,-17.02262 -31.20483,-32.73538 -0.75756,-3.65008 -1.00248,-51.97555 -0.81456,-160.71948 l 0.26872,-155.499997 2.28538,-5.652539 c 4.47159,-11.059756 14.06307,-20.659731 24.96254,-24.984622 5.44849,-2.161953 7.09797,-2.284541 31.25208,-2.322629 l 25.499995,-0.04021 0.54107,36 c 0.51428,34.218287 0.65152,36.278107 2.77291,41.619197 3.39285,8.54231 9.37457,16.17345 16.30567,20.80186 11.7715,7.86071 8.48572,7.57894 88.38035,7.57894 66.28716,0 71.34933,-0.12178 76.26273,-1.83459 12.38366,-4.31697 22.47361,-14.08421 27.42329,-26.54621 2.12139,-5.34109 2.25863,-7.40091 2.77291,-41.619197 l 0.54107,-36 9.95561,-0.288692 9.95561,-0.288692 32.29439,32.282922 32.29439,32.282919 0,140.54567 c 0,153.4615 0.26329,146.19947 -5.69773,157.15183 -1.44755,2.65962 -4.95326,7.03112 -7.79046,9.71443 -9.62326,9.10127 -18.70284,12.09961 -36.64012,12.09961 -6.43946,0 -12.31727,-0.23376 -13.0618,-0.51946 -1.12475,-0.43161 -1.28802,-11.65168 -0.96539,-66.34368 0.35297,-59.83547 0.23288,-66.35885 -1.31996,-71.70045 -3.41863,-11.75968 -8.76383,-19.01161 -18.82241,-25.53673 -10.82458,-7.02204 -8.9146,-6.89968 -107.70213,-6.89968 -98.78753,0 -96.87755,-0.12236 -107.70213,6.89968 -10.058575,6.52512 -15.403775,13.77705 -18.822405,25.53673 -1.55284,5.3416 -1.67293,11.86498 -1.31996,71.70045 0.32263,54.692 0.15936,65.91207 -0.96539,66.34368 -2.87705,1.10403 -25.8599,0.34212 -30.93944,-1.02568 z M 137.26277,100.63788 c -4.35771,-2.26177 -8.54459,-6.45912 -10.12316,-10.14848 -1.03895,-2.42818 -1.37684,-8.99288 -1.37684,-26.749997 l 0,-23.53212 41.5,0 41.5,0 0,23.03212 c 0,18.526427 -0.30278,23.756757 -1.54773,26.736347 -1.96988,4.71458 -4.97144,7.92317 -9.66243,10.32885 -3.37555,1.73108 -6.12631,1.90212 -30.5,1.89652 -22.28996,-0.005 -27.29375,-0.2677 -29.78984,-1.56324 z"
     style="fill:#95a5a6" />
  <path
     inkscape:connector-curvature="0"
     id="path3057"
     d="m 50.013445,400.67621 c -15.7999,-4.2969 -27.94507,-17.04325 -31.20483,-32.74945 -0.75756,-3.65008 -1.00248,-51.97555 -0.81456,-160.71948 l 0.26872,-155.499997 2.28538,-5.652539 c 4.47159,-11.059756 14.06307,-20.659731 24.96254,-24.984622 5.44849,-2.161953 7.09797,-2.284541 31.25208,-2.322629 l 25.499995,-0.04021 0.54107,36 c 0.51428,34.218287 0.65152,36.278107 2.77291,41.619197 3.39285,8.54231 9.37457,16.17345 16.30567,20.80186 11.7715,7.86071 8.48572,7.57894 88.38035,7.57894 66.28716,0 71.34933,-0.12178 76.26273,-1.83459 12.38366,-4.31697 22.47361,-14.08421 27.42329,-26.54621 2.12139,-5.34109 2.25863,-7.40091 2.77291,-41.619197 l 0.54107,-36 9.95561,-0.288692 9.95561,-0.288692 32.29439,32.282922 32.29439,32.282919 0,140.54567 c 0,151.48737 0.18591,145.80064 -5.10567,156.173 -3.23549,6.34208 -11.47862,14.42904 -18.05993,17.71776 -8.19655,4.09586 -14.57428,5.18678 -28.4033,4.85841 l -11.9311,-0.2833 -0.5,-68.5 c -0.45738,-62.66158 -0.65191,-68.88075 -2.28229,-72.96723 -5.78315,-14.49527 -16.56674,-24.13604 -30.73124,-27.47443 -9.72665,-2.29245 -180.24629,-2.29245 -189.97294,0 -14.1645,3.33839 -24.948085,12.97916 -30.731235,27.47443 -1.63038,4.08648 -1.82491,10.30565 -2.28229,72.96723 l -0.5,68.5 -13,0.19826 c -8.72008,0.13299 -14.72821,-0.27174 -18.24933,-1.22933 z"
     style="fill:#5da8da" />
  <path
     inkscape:connector-curvature="0"
     id="path3055"
     d="m 51.808075,400.11492 c -15.16272,-2.97228 -29.28796,-17.15244 -31.78405,-31.90764 -0.41869,-2.475 -0.53625,-75.15 -0.26125,-161.5 l 0.5,-156.999997 3.21692,-6.573659 c 3.95395,-8.07974 12.05244,-16.023303 20.02993,-19.646737 5.23381,-2.377232 7.37803,-2.681389 23.75315,-3.369379 9.9,-0.415941 21.7125,-0.7909 26.25,-0.833241 l 8.249995,-0.07698 0,33.052595 c 0,37.969538 0.66068,43.017938 6.89125,52.657848 6.81115,10.53817 17.0438,17.67957 28.90797,20.17496 7.36844,1.54981 137.03312,1.54981 144.40156,0 17.17267,-3.61193 31.0727,-17.51196 34.68463,-34.68463 0.68969,-3.27905 1.11459,-17.86072 1.11459,-38.249994 l 0,-32.950779 9.28215,0 9.28214,0 31.71369,31.75 31.7137,31.749993 0.25416,130.5 c 0.32898,168.91583 0.52348,153.35451 -2.00333,160.27478 -4.11721,11.27594 -12.79715,20.14237 -24.28487,24.80664 -4.50644,1.82971 -8.02376,2.29859 -20.18113,2.69025 l -14.72349,0.47432 -0.27651,-69.37299 -0.27651,-69.373 -3.16452,-6.67961 c -5.55899,-11.7338 -15.11637,-20.12801 -27.14839,-23.84432 -6.17506,-1.90728 -9.5935,-1.97607 -98.20333,-1.97607 -87.11264,0 -92.115,0.0963 -97.85886,1.884 -12.506105,3.89233 -21.798125,11.98315 -27.439915,23.89267 l -3.18498,6.72333 -0.27637,69.25 -0.27636,69.25 -12.22364,-0.10957 c -6.723,-0.0603 -14.22824,-0.50252 -16.67833,-0.98279 z"
     style="fill:#3296d9" />
  <path
     inkscape:connector-curvature="0"
     id="path3053"
     d="m 51.762775,399.83802 c -16.40374,-3.5839 -28.84615,-16.47824 -31.90552,-33.0644 -1.28358,-6.95886 -1.42154,-13.24617 -0.30579,-13.93574 0.43378,-0.26809 1.84993,1.82585 3.14701,4.6532 3.2852,7.16107 11.56096,15.10945 19.79047,19.00759 6.50011,3.07896 7.40015,3.22881 22.27383,3.70861 l 15.5,0.5 0.28498,10.25 0.28499,10.25 -11.78499,-0.0838 c -6.48174,-0.0461 -14.25998,-0.62456 -17.28498,-1.28546 z m 287.215015,-8.88074 0.28498,-10.25 15.5,-0.5 c 14.89485,-0.48048 15.76607,-0.62602 22.31505,-3.7279 8.12401,-3.84788 16.53537,-11.98269 19.84131,-19.18895 2.57412,-5.61106 3.84364,-5.67969 3.84364,-0.20779 0,21.60922 -14.14713,39.28824 -34.43366,43.03016 -3.26351,0.60196 -10.81675,1.09448 -16.78498,1.09448 l -10.85133,0 0.28499,-10.25 z M 111.35986,144.21441 c -12.859395,-4.10714 -23.750495,-15.09963 -27.620695,-27.87785 -1.90156,-6.27836 -1.99378,-9.01137 -1.74212,-51.629277 l 0.26573,-45 9.5,0 9.499995,0 0.54588,35.5 c 0.59852,38.923297 0.8071,40.420707 6.96773,50.021207 6.41399,9.99534 17.17689,17.42254 28.78561,19.8642 3.59782,0.75673 26.87513,1.10984 72.5,1.09981 73.15971,-0.0161 75.19134,-0.15247 84.62415,-5.68046 6.15109,-3.60478 12.37878,-9.54217 16.11374,-15.36259 6.10376,-9.51189 6.31924,-11.06767 6.91701,-49.942167 l 0.54588,-35.5 9.5,0 9.5,0 0.26573,45 c 0.25044,42.411787 0.15185,45.375987 -1.71412,51.537097 -3.93023,12.97693 -14.87438,23.97459 -27.84454,27.98066 -6.20751,1.91731 -9.43623,1.98048 -98.56241,1.92846 -87.43855,-0.051 -92.44614,-0.15006 -98.04757,-1.93909 z"
     style="fill:#2e83bb" />
  <path
     inkscape:connector-curvature="0"
     id="path3051"
     d="m 53.032475,399.15322 c -17.84783,-3.52259 -30.80098,-18.14804 -32.82202,-37.05947 l -0.68251,-6.38647 3.95587,6.0338 c 4.7025,7.17261 10.79644,12.61961 17.85347,15.95812 7.61795,3.60387 12.5958,4.45653 26.17549,4.48363 l 12.25,0.0245 0,9 0,9 -11.25,-0.10957 c -6.1875,-0.0603 -13.15363,-0.48528 -15.4803,-0.94449 z m 286.730295,-7.70876 0,-9.01919 14.75,-0.4472 c 12.26095,-0.37173 15.69552,-0.82592 20.35311,-2.69156 7.8586,-3.14783 16.31436,-10.12564 21.07775,-17.39365 l 4.05397,-6.18558 -0.68251,6.38647 c -1.76001,16.46887 -11.527,29.49761 -26.39978,35.21615 -4.46984,1.71863 -8.5295,2.27594 -19.40254,2.66357 l -13.75,0.49018 0,-9.01919 z M 116.8711,144.12568 c -16.55614,-3.25144 -29.873025,-16.85875 -33.087615,-33.80922 -0.59352,-3.12958 -1.02071,-23.11242 -1.02071,-47.745667 l 0,-42.36351 9,0 8.999995,0 0,32.950779 c 0,35.027788 0.46224,39.758398 4.79277,49.049218 5.23087,11.22246 18.16209,21.18385 31.00645,23.88541 7.37178,1.55051 139.02978,1.55051 146.40156,0 17.17267,-3.61193 31.0727,-17.51196 34.68463,-34.68463 0.68984,-3.27978 1.11459,-17.87103 1.11459,-38.288931 l 0,-32.989712 8.75,0.288933 8.75,0.288933 0.28485,41.5 c 0.18282,26.634527 -0.10456,43.786077 -0.80227,47.882057 -2.95696,17.35918 -16.21431,30.84109 -33.46284,34.02966 -7.14496,1.32082 -178.68841,1.32699 -185.41141,0.007 z"
     style="fill:#287fb8" />
</svg>
