<?xml version="1.0" encoding="UTF-8" standalone="no"?>
<!-- Created with Inkscape (http://www.inkscape.org/) -->

<svg
   xmlns:dc="http://purl.org/dc/elements/1.1/"
   xmlns:cc="http://creativecommons.org/ns#"
   xmlns:rdf="http://www.w3.org/1999/02/22-rdf-syntax-ns#"
   xmlns:svg="http://www.w3.org/2000/svg"
   xmlns="http://www.w3.org/2000/svg"
   xmlns:sodipodi="http://sodipodi.sourceforge.net/DTD/sodipodi-0.dtd"
   xmlns:inkscape="http://www.inkscape.org/namespaces/inkscape"
   id="svg2"
   version="1.1"
   inkscape:version="0.48.4 r9939"
   width="108.75025"
   height="108.74988"
   xml:space="preserve"
   sodipodi:docname="settings.ai.svg"><metadata
     id="metadata8"><rdf:RDF><cc:Work
         rdf:about=""><dc:format>image/svg+xml</dc:format><dc:type
           rdf:resource="http://purl.org/dc/dcmitype/StillImage" /><dc:title></dc:title></cc:Work></rdf:RDF></metadata><defs
     id="defs6"><clipPath
       clipPathUnits="userSpaceOnUse"
       id="clipPath18"><path
         d="M 0,800 800,800 800,0 0,0 0,800 z"
         id="path20"
         inkscape:connector-curvature="0" /></clipPath><clipPath
       clipPathUnits="userSpaceOnUse"
       id="clipPath154"><path
         d="M 0,800 800,800 800,0 0,0 0,800 z"
         id="path156"
         inkscape:connector-curvature="0" /></clipPath></defs><sodipodi:namedview
     pagecolor="#ffffff"
     bordercolor="#666666"
     borderopacity="1"
     objecttolerance="10"
     gridtolerance="10"
     guidetolerance="10"
     inkscape:pageopacity="0"
     inkscape:pageshadow="2"
     inkscape:window-width="640"
     inkscape:window-height="480"
     id="namedview4"
     showgrid="false"
     fit-margin-top="0"
     fit-margin-left="0"
     fit-margin-right="0"
     fit-margin-bottom="0"
     inkscape:zoom="1.888"
     inkscape:cx="72.355437"
     inkscape:cy="74.330811"
     inkscape:window-x="65"
     inkscape:window-y="24"
     inkscape:window-maximized="0"
     inkscape:current-layer="g10" /><g
     id="g10"
     inkscape:groupmode="layer"
     inkscape:label="3"
     transform="matrix(1.25,0,0,-1.25,-759.9995,244.99975)"><g
       id="g292"
       transform="translate(651.0596,167.7168)"
       style="fill:#b3b3b3;stroke:#4d4d4d"><path
         d="m 0,0 c -7.404,0 -13.407,-6.003 -13.407,-13.407 0,-7.405 6.003,-13.407 13.407,-13.407 7.404,0 13.407,6.002 13.407,13.407 C 13.407,-6.003 7.404,0 0,0 m 32.552,-24.291 6.328,-5.803 -4.623,-8.008 -8.076,2.542 c -1.09,-1.283 -2.269,-2.486 -3.534,-3.597 l 2.582,-8.198 -8.005,-4.624 -5.715,6.231 c -1.574,-0.565 -3.199,-1.14 -4.87,-1.473 l -1.863,-8.496 -9.245,0 -1.835,8.38 c -1.7,0.307 -3.355,0.796 -4.959,1.342 l -5.579,-6.052 -8.006,4.637 2.442,7.766 c -1.323,1.119 -2.56,2.336 -3.701,3.639 l -7.881,-2.477 -4.622,8.007 5.983,5.491 c -0.583,1.617 -1.544,3.292 -1.884,5.01 l -8.549,1.79 0,9.246 8.436,1.765 c 0.307,1.724 0.986,3.402 1.538,5.027 l -5.959,5.581 4.687,8.005 7.792,-2.441 c 1.116,1.323 2.348,2.56 3.649,3.7 l -2.475,7.883 8.014,4.622 5.491,-5.984 c 1.618,0.582 3.292,0.858 5.011,1.198 l 1.79,7.865 9.247,0 1.764,-7.752 C 7.624,20.23 9.28,19.899 10.882,19.359 l 5.805,6.375 8.006,-4.599 -2.542,-8.064 c 1.284,-1.089 2.486,-2.264 3.598,-3.526 l 8.198,2.584 4.623,-8.006 -6.23,-5.714 c 0.566,-1.573 0.455,-3.198 0.788,-4.867 l 7.812,-1.862 0,-9.246 -7.696,-1.837 c -0.302,-1.674 -0.158,-3.306 -0.692,-4.888"
         style="fill:#b3b3b3;fill-opacity:1;fill-rule:nonzero;stroke:#4d4d4d"
         id="path294"
         inkscape:connector-curvature="0" /></g><g
       id="g296"
       transform="translate(651.0596,140.9023)"
       style="stroke:#cccccc;stroke-opacity:1"><path
         d="m 0,0 c -7.404,0 -13.407,6.002 -13.407,13.407 0,7.405 6.003,13.407 13.407,13.407 7.404,0 13.407,-6.002 13.407,-13.407 C 13.407,6.002 7.404,0 0,0 m 0,36.292 c -12.639,0 -22.885,-10.247 -22.885,-22.885 0,-12.639 10.246,-22.884 22.885,-22.884 12.639,0 22.884,10.245 22.884,22.884 0,12.638 -10.245,22.885 -22.884,22.885"
         style="fill:#cccccc;fill-opacity:1;fill-rule:nonzero;stroke:#cccccc;stroke-opacity:1"
         id="path298"
         inkscape:connector-curvature="0" /></g></g></svg>