<?xml version="1.0" encoding="UTF-8" standalone="no"?>
<!-- Created with Inkscape (http://www.inkscape.org/) -->

<svg
   xmlns:dc="http://purl.org/dc/elements/1.1/"
   xmlns:cc="http://creativecommons.org/ns#"
   xmlns:rdf="http://www.w3.org/1999/02/22-rdf-syntax-ns#"
   xmlns:svg="http://www.w3.org/2000/svg"
   xmlns="http://www.w3.org/2000/svg"
   xmlns:sodipodi="http://sodipodi.sourceforge.net/DTD/sodipodi-0.dtd"
   xmlns:inkscape="http://www.inkscape.org/namespaces/inkscape"
   width="105.07"
   height="105.06899"
   id="svg5535"
   version="1.1"
   inkscape:version="0.48.4 r9939"
   sodipodi:docname="corn.svg">
  <defs
     id="defs5537">
    <clipPath
       clipPathUnits="userSpaceOnUse"
       id="clipPath8042">
      <path
         inkscape:connector-curvature="0"
         d="m 2649.1,5603.27 240,0 0,240 -240,0 0,-240 z"
         id="path8044" />
    </clipPath>
    <clipPath
       clipPathUnits="userSpaceOnUse"
       id="clipPath7898">
      <path
         inkscape:connector-curvature="0"
         d="m 2156.75,5110.92 240,0 0,240 -240,0 0,-240 z"
         id="path7900" />
    </clipPath>
    <clipPath
       clipPathUnits="userSpaceOnUse"
       id="clipPath7886">
      <path
         inkscape:connector-curvature="0"
         d="m 2156.75,5603.27 240,0 0,240 -240,0 0,-240 z"
         id="path7888" />
    </clipPath>
    <clipPath
       clipPathUnits="userSpaceOnUse"
       id="clipPath7802">
      <path
         inkscape:connector-curvature="0"
         d="m 1664.39,5110.92 240,0 0,240 -240,0 0,-240 z"
         id="path7804" />
    </clipPath>
    <clipPath
       clipPathUnits="userSpaceOnUse"
       id="clipPath7790">
      <path
         inkscape:connector-curvature="0"
         d="m 1664.39,5603.27 240,0 0,240 -240,0 0,-240 z"
         id="path7792" />
    </clipPath>
  </defs>
  <sodipodi:namedview
     id="base"
     pagecolor="#ffffff"
     bordercolor="#666666"
     borderopacity="1.0"
     inkscape:pageopacity="0.0"
     inkscape:pageshadow="2"
     inkscape:zoom="0.7"
     inkscape:cx="196.11809"
     inkscape:cy="79.890691"
     inkscape:document-units="px"
     inkscape:current-layer="layer1"
     showgrid="false"
     fit-margin-top="0"
     fit-margin-left="0"
     fit-margin-right="0"
     fit-margin-bottom="0"
     inkscape:window-width="629"
     inkscape:window-height="501"
     inkscape:window-x="156"
     inkscape:window-y="195"
     inkscape:window-maximized="0" />
  <metadata
     id="metadata5540">
    <rdf:RDF>
      <cc:Work
         rdf:about="">
        <dc:format>image/svg+xml</dc:format>
        <dc:type
           rdf:resource="http://purl.org/dc/dcmitype/StillImage" />
        <dc:title></dc:title>
      </cc:Work>
    </rdf:RDF>
  </metadata>
  <g
     inkscape:label="Layer 1"
     inkscape:groupmode="layer"
     id="layer1"
     transform="translate(-238.00647,-583.33311)">
    <path
       inkscape:connector-curvature="0"
       id="path398"
       style="fill:#63b734;fill-opacity:1;fill-rule:nonzero;stroke:none"
       d="m 295.23647,601.65186 c 5.8075,13.00125 -1.4625,28.8915 -1.4625,28.8915 0,0 -16.685,-5.19025 -22.49125,-18.1915 -5.80875,-13.00125 1.46125,-28.89 1.46125,-28.89 0,0 16.68375,5.19 22.4925,18.19" />
    <path
       inkscape:connector-curvature="0"
       id="path400"
       style="fill:#5aa433;fill-opacity:1;fill-rule:nonzero;stroke:none"
       d="m 270.51647,589.82061 c 5.6725,1.3525 12.79125,4.11375 17.64875,9.81 8.20625,9.6225 7.1625,24.31125 6.825,27.484 1.78375,-5.3265 4.40875,-16.1965 0.2125,-25.59025 -5.8075,-13.00125 -22.4925,-18.19125 -22.4925,-18.19125 0,0 -1.1675,2.58375 -2.19375,6.4875" />
    <path
       inkscape:connector-curvature="0"
       id="path402"
       style="fill:#63b734;fill-opacity:1;fill-rule:nonzero;stroke:none"
       d="m 295.23647,601.65186 c 5.8075,13.00125 -1.4625,28.8915 -1.4625,28.8915 0,0 -16.685,-5.19025 -22.49125,-18.1915 -5.80875,-13.00125 1.46125,-28.89 1.46125,-28.89 0,0 16.68375,5.19 22.4925,18.19" />
    <path
       inkscape:connector-curvature="0"
       id="path404"
       style="fill:#5aa433;fill-opacity:1;fill-rule:nonzero;stroke:none"
       d="m 270.51647,589.82061 c 5.6725,1.3525 12.79125,4.11375 17.64875,9.81 8.20625,9.6225 7.1625,24.31125 6.825,27.484 1.78375,-5.3265 4.40875,-16.1965 0.2125,-25.59025 -5.8075,-13.00125 -22.4925,-18.19125 -22.4925,-18.19125 0,0 -1.1675,2.58375 -2.19375,6.4875" />
    <path
       inkscape:connector-curvature="0"
       id="path406"
       style="fill:#63b734;fill-opacity:1;fill-rule:nonzero;stroke:none"
       d="m 252.55772,656.29911 c 11.285,-8.6835 28.4325,-5.32713 28.4325,-5.32713 0,0 -1.14875,17.43513 -12.43375,26.11863 -11.285,8.68362 -28.4325,5.32775 -28.4325,5.32775 0,0 1.14875,-17.43513 12.43375,-26.11925" />
    <path
       inkscape:connector-curvature="0"
       id="path408"
       style="fill:#5aa433;fill-opacity:1;fill-rule:nonzero;stroke:none"
       d="m 246.82647,683.09799 c -0.01,-5.83101 1.0125,-13.3975 5.41625,-19.45113 7.44,-10.22763 21.96625,-12.64363 25.13,-13.05625 -5.59625,-0.49012 -16.77875,-0.50388 -24.9325,5.77012 -11.285,8.685 -12.43375,26.12013 -12.43375,26.12013 0,0 2.78375,0.53212 6.82,0.61713" />
    <path
       inkscape:connector-curvature="0"
       id="path410"
       style="fill:#2267ba;fill-opacity:1;fill-rule:nonzero;stroke:none"
       d="m 295.19897,624.32186 c 4.41625,12.4875 -2.1275,26.19112 -14.615,30.60625 -12.4875,4.4165 -26.19125,-2.1275 -30.60625,-14.61525 -4.41625,-12.48738 2.1275,-26.18975 14.615,-30.606 12.4875,-4.41625 26.19,2.1275 30.60625,14.615" />
    <path
       inkscape:connector-curvature="0"
       id="path412"
       style="fill:#accae2;fill-opacity:1;fill-rule:nonzero;stroke:none"
       d="m 264.68647,609.67436 c 0.0163,-0.006 0.035,-0.0125 0.0513,-0.0188 -0.0163,0.006 -0.035,0.0125 -0.0513,0.0188 m 0.0675,-0.0238 c 1.715,-0.59375 3.45,-0.98 5.18125,-1.17375 l 0,0 c -1.73125,0.19375 -3.4675,0.58125 -5.18125,1.17375" />
    <path
       inkscape:connector-curvature="0"
       id="path414"
       style="fill:#57a46e;fill-opacity:1;fill-rule:nonzero;stroke:none"
       d="m 269.93522,608.47686 0,0 c 0.88625,-0.1 1.77125,-0.14875 2.65125,-0.14875 -0.88,0 -1.765,0.0487 -2.65125,0.14875 m 2.66125,-0.14875 c -0.004,0 -0.005,0 -0.009,0 l 0,0 c 0.004,0 0.005,0 0.009,0" />
    <path
       inkscape:connector-curvature="0"
       id="path416"
       style="fill:#3174c1;fill-opacity:1;fill-rule:nonzero;stroke:none"
       d="m 290.29522,634.68199 c 0.0175,-2.69876 -0.425,-5.44776 -1.3775,-8.13863 -3.48,-9.844 -12.73,-15.989 -22.6075,-15.989 -1.58375,0 -3.18375,0.15875 -4.77875,0.485 0.97625,-0.50625 1.995,-0.955 3.06125,-1.3325 0.0312,-0.0112 0.0613,-0.0225 0.0937,-0.0325 0.0163,-0.006 0.035,-0.0125 0.0513,-0.0188 0.005,-0.001 0.0112,-0.004 0.0162,-0.005 1.71375,-0.5925 3.45,-0.98 5.18125,-1.17375 0.88625,-0.1 1.77125,-0.14875 2.65125,-0.14875 l 0.001,0 c 0.004,0 0.005,0 0.009,0 8.85375,0.004 17.205,4.9475 21.345,13.06375 -0.55,2.0225 -0.83625,4.12625 -0.8375,6.25737 0,1.77738 0.1975,3.57525 0.61,5.36288 -0.075,0.271 -0.15375,0.5395 -0.2375,0.80713 -1.06375,0.22262 -2.12625,0.50874 -3.18125,0.86275" />
    <path
       inkscape:connector-curvature="0"
       id="path418"
       style="fill:#307fcb;fill-opacity:1;fill-rule:nonzero;stroke:none"
       d="m 244.03147,626.63073 c 0,0 1.875,-1.70137 4.8275,-0.96012 -0.68375,1.75888 0.93,5.424 4.4775,6.1935 0.68375,-1.75825 2.64625,-5.2485 3.8975,-6.38225 1.1625,0.65375 7.72,0.9735 7.72,0.9735 l -4.42,-7.386 c 0,0 3.83875,-5.19 5.06,-5.72875 -0.5675,-0.625 -4.08625,-1.99125 -6.5575,-0.31875 -0.48,-2.41375 -1.585,-4.26125 -1.585,-4.26125 0,0 -4.28875,2.18125 -5.03,5.1325 -2.385,-0.11625 -6.5875,0.27625 -6.5875,0.27625 0,0 -0.2025,4.1725 1.4975,6.04875 -2.4125,0.48 -3.75125,3.4025 -3.3,6.41262" />
    <path
       inkscape:connector-curvature="0"
       id="path420"
       style="fill:#1f59a0;fill-opacity:1;fill-rule:nonzero;stroke:none"
       d="m 251.99147,617.44436 c 1.865,-1.35875 4.16375,-1.38125 5.13375,-0.0487 0.97125,1.33125 0.24625,3.5125 -1.6175,4.8725 -1.865,1.35875 -4.16375,1.38125 -5.13375,0.0487 -0.97125,-1.33125 -0.24625,-3.5125 1.6175,-4.8725" />
    <path
       inkscape:connector-curvature="0"
       id="path422"
       style="fill:#1f62b2;fill-opacity:1;fill-rule:nonzero;stroke:none"
       d="m 271.86147,656.29573 c -9.5575,-0.29149 -18.405,-6.32375 -21.835,-15.84762 -0.007,-0.02 -0.015,-0.041 -0.0225,-0.0601 -0.009,-0.0264 -0.0175,-0.0497 -0.0263,-0.0751 l 0,0 c -0.33875,-0.9585 -0.605,-1.92338 -0.8175,-2.89113 4.1125,8.21775 12.51625,13.23138 21.43375,13.23138 0.96625,0 1.94,-0.0585 2.91375,-0.17863 -0.7575,1.86713 -1.31125,3.81888 -1.64625,5.82125" />
    <path
       inkscape:connector-curvature="0"
       id="path424"
       style="fill:#2769b5;fill-opacity:1;fill-rule:nonzero;stroke:none"
       d="m 293.47647,633.81924 c 0.0838,-0.26763 0.1625,-0.53613 0.2375,-0.80713 0.055,0.24112 0.115,0.48337 0.17875,0.7245 -0.14,0.0264 -0.2775,0.0537 -0.41625,0.0826" />
    <path
       inkscape:connector-curvature="0"
       id="path426"
       style="fill:#2267ba;fill-opacity:1;fill-rule:nonzero;stroke:none"
       d="m 325.08897,650.26786 c -12.4875,4.4165 -26.19125,-2.12738 -30.60625,-14.61475 -4.41625,-12.48875 2.1275,-26.19125 14.615,-30.60625 12.4875,-4.41625 26.19125,2.1275 30.60625,14.615 4.41625,12.48737 -2.1275,26.19 -14.615,30.606" />
    <path
       inkscape:connector-curvature="0"
       id="path428"
       style="fill:#accae2;fill-opacity:1;fill-rule:nonzero;stroke:none"
       d="m 339.70397,619.66186 c -0.006,-0.0175 -0.0125,-0.035 -0.0188,-0.0525 0.006,0.0175 0.0125,0.035 0.0188,0.0525 m -0.0325,-0.09 c -10e-4,-0.004 -0.002,-0.009 -0.004,-0.0112 0.001,0.004 0.002,0.007 0.004,0.0112" />
    <path
       inkscape:connector-curvature="0"
       id="path430"
       style="fill:#3174c1;fill-opacity:1;fill-rule:nonzero;stroke:none"
       d="m 325.08897,650.26786 c 0.9575,-0.33838 1.87625,-0.73875 2.76125,-1.18113 -1.2,0.26275 -2.405,0.43025 -3.60375,0.50638 -0.815,-1.835 -1.8125,-3.5415 -2.96125,-5.1065 0.52875,-0.14738 1.05625,-0.31338 1.5825,-0.5 11.42125,-4.0385 17.86375,-15.84613 15.50375,-27.386 0.49,0.945 0.9275,1.93 1.29625,2.96 0.001,0.002 0.002,0.007 0.004,0.0112 0.005,0.0125 0.009,0.025 0.0138,0.0375 0.006,0.0175 0.0125,0.035 0.0188,0.0525 l 0,0 c 0.93625,2.64625 1.38,5.3475 1.37875,8.0025 -0.004,9.876 -6.1525,19.12363 -15.99375,22.6035" />
    <path
       inkscape:connector-curvature="0"
       id="path432"
       style="fill:#307fcb;fill-opacity:1;fill-rule:nonzero;stroke:none"
       d="m 322.78022,599.10061 c 0,0 1.70125,1.875 0.96,4.8275 -1.75875,-0.68375 -5.4225,0.93 -6.19375,4.4775 1.75875,0.68375 5.24875,2.64625 6.3825,3.89625 -0.65375,1.16375 -0.97375,7.72125 -0.97375,7.72125 l 7.38625,-4.42 c 0,0 5.19,3.83875 5.7275,5.06 0.62625,-0.5675 1.9925,-4.08625 0.32125,-6.5575 2.4125,-0.48 4.26,-1.585 4.26,-1.585 0,0 -2.18125,-4.28875 -5.1325,-5.03125 0.11625,-2.38375 -0.27625,-6.58625 -0.27625,-6.58625 0,0 -4.17375,-0.20375 -6.04875,1.4975 -0.48,-2.41375 -3.4025,-3.75125 -6.4125,-3.3" />
    <path
       inkscape:connector-curvature="0"
       id="path434"
       style="fill:#1f59a0;fill-opacity:1;fill-rule:nonzero;stroke:none"
       d="m 331.96647,607.06061 c 1.35875,1.865 1.38125,4.16375 0.0488,5.13375 -1.33125,0.97125 -3.5125,0.24625 -4.8725,-1.6175 -1.35875,-1.865 -1.38125,-4.16375 -0.0487,-5.13375 1.33125,-0.97125 3.5125,-0.2475 4.8725,1.6175" />
    <path
       inkscape:connector-curvature="0"
       id="path436"
       style="fill:#6b99c6;fill-opacity:1;fill-rule:nonzero;stroke:none"
       d="m 324.60397,650.43298 0,0 c 0.1625,-0.0523 0.3225,-0.1075 0.485,-0.16512 l 0,0 c -0.1625,0.0576 -0.3225,0.11287 -0.485,0.16512" />
    <path
       inkscape:connector-curvature="0"
       id="path438"
       style="fill:#2769b5;fill-opacity:1;fill-rule:nonzero;stroke:none"
       d="m 324.60397,650.43298 c -0.115,-0.28224 -0.23375,-0.5625 -0.3575,-0.83987 1.19875,-0.0761 2.40375,-0.24363 3.60375,-0.50638 -0.885,0.44238 -1.80375,0.84275 -2.76125,1.18113 l 0,0 c -0.1625,0.0576 -0.3225,0.11287 -0.485,0.16512" />
    <path
       inkscape:connector-curvature="0"
       id="path440"
       style="fill:#92b4d0;fill-opacity:1;fill-rule:nonzero;stroke:none"
       d="m 309.14147,605.03061 c 10e-4,0 10e-4,0 0.002,0 0,0 -10e-4,0 -0.002,0" />
    <path
       inkscape:connector-curvature="0"
       id="path442"
       style="fill:#1f62b2;fill-opacity:1;fill-rule:nonzero;stroke:none"
       d="m 293.89272,633.73661 c -0.0637,-0.24113 -0.12375,-0.48338 -0.17875,-0.7245 -0.4125,-1.78763 -0.61,-3.5855 -0.61,-5.36288 0.004,-9.87487 6.1525,-19.12237 15.99375,-22.60237 0.015,-0.005 0.0288,-0.01 0.0437,-0.0163 0.001,0 0.002,0 0.002,0 0.9425,-0.33125 1.8925,-0.5925 2.845,-0.80125 -10.53875,5.27375 -15.80875,17.61 -11.98875,29.02975 -0.31125,-0.0112 -0.62375,-0.0161 -0.93625,-0.0161 -1.58625,0 -3.18625,0.13876 -4.785,0.42138 -0.23875,-0.40138 -0.4675,-0.8125 -0.685,-1.23138 0.0888,0.435 0.19,0.86863 0.3025,1.30275 -10e-4,0 -0.004,0 -0.004,8.8e-4" />
    <path
       inkscape:connector-curvature="0"
       id="path444"
       style="fill:#2769b5;fill-opacity:1;fill-rule:nonzero;stroke:none"
       d="m 293.89647,633.73573 c -0.1125,-0.43412 -0.21375,-0.86775 -0.3025,-1.30275 0.2175,0.41888 0.44625,0.83 0.685,1.23138 -0.1275,0.024 -0.255,0.0464 -0.3825,0.0714" />
    <path
       inkscape:connector-curvature="0"
       id="path446"
       style="fill:#2267ba;fill-opacity:1;fill-rule:nonzero;stroke:none"
       d="m 308.25522,686.81673 c -14.355,5.07613 -30.10875,-2.44625 -35.185,-16.80225 -5.07625,-14.35637 2.44625,-30.11037 16.8025,-35.1865 14.35625,-5.07612 30.10875,2.44625 35.18625,16.80275 5.07625,14.35588 -2.4475,30.10988 -16.80375,35.186" />
    <path
       inkscape:connector-curvature="0"
       id="path448"
       style="fill:#57a46e;fill-opacity:1;fill-rule:nonzero;stroke:none"
       d="m 273.05022,669.95786 c 0,-10e-4 -0.001,-0.002 -0.001,-0.003 0,8.8e-4 0.001,0.002 0.001,0.003" />
    <path
       inkscape:connector-curvature="0"
       id="path450"
       style="fill:#3174c1;fill-opacity:1;fill-rule:nonzero;stroke:none"
       d="m 308.25522,686.81673 c 1.10125,-0.39012 2.1575,-0.84862 3.17625,-1.35887 -1.95875,0.42875 -3.9275,0.63775 -5.87375,0.63775 -6.4075,0 -12.5825,-2.24863 -17.46875,-6.24125 2.69625,0.86863 5.53875,1.32612 8.42625,1.32612 3.0475,0 6.14875,-0.50975 9.1875,-1.58487 13.13,-4.64262 20.5375,-18.21637 17.82375,-31.48488 0.58125,1.1225 1.09875,2.29338 1.5325,3.52001 1.075,3.04249 1.585,6.14737 1.58375,9.19962 -0.002,11.354 -7.0725,21.98537 -18.3875,25.98638" />
    <path
       inkscape:connector-curvature="0"
       id="path452"
       style="fill:#307fcb;fill-opacity:1;fill-rule:nonzero;stroke:none"
       d="m 305.60272,627.99199 c 0,0 1.95625,2.15625 1.10375,5.54987 -2.02375,-0.78613 -6.235,1.06975 -7.12125,5.1475 2.0225,0.78613 6.03375,3.04237 7.3375,4.47987 -0.7525,1.33751 -1.12,8.8765 -1.12,8.8765 l 8.49125,-5.0815 c 0,0 5.9675,4.41263 6.58625,5.81638 0.71875,-0.65137 2.29,-4.69625 0.3675,-7.53763 2.775,-0.55225 4.8975,-1.82225 4.8975,-1.82225 0,0 -2.5075,-4.93162 -5.9,-5.78362 0.13375,-2.74175 -0.3175,-7.57138 -0.3175,-7.57138 0,0 -4.7975,-0.23537 -6.95375,1.72126 -0.55125,-2.77488 -3.91125,-4.3125 -7.37125,-3.795" />
    <path
       inkscape:connector-curvature="0"
       id="path454"
       style="fill:#1f59a0;fill-opacity:1;fill-rule:nonzero;stroke:none"
       d="m 316.16272,637.14436 c 1.5625,2.14262 1.5875,4.78513 0.0563,5.90137 -1.53125,1.11625 -4.03875,0.28375 -5.60125,-1.86037 -1.5625,-2.1435 -1.5875,-4.78613 -0.0562,-5.90225 1.53,-1.11625 4.03875,-0.28225 5.60125,1.86125" />
    <path
       inkscape:connector-curvature="0"
       id="path456"
       style="fill:#1f62b2;fill-opacity:1;fill-rule:nonzero;stroke:none"
       d="m 289.92272,634.81036 c 0,0 10e-4,-10e-4 0.002,-10e-4 -10e-4,0 -0.002,10e-4 -0.002,10e-4" />
    <path
       inkscape:connector-curvature="0"
       id="path458"
       style="fill:#1f62b2;fill-opacity:1;fill-rule:nonzero;stroke:none"
       d="m 288.08897,679.85436 c -6.76125,-2.17625 -12.6175,-6.93363 -16.04,-13.5415 0.24875,1.21875 0.57625,2.435 1,3.64162 -1.06125,-3.02249 -1.565,-6.1075 -1.56375,-9.14012 0.004,-11.35362 7.07375,-21.98488 18.3875,-25.98638 0.0163,-0.006 0.0325,-0.0112 0.05,-0.0176 0,0 10e-4,-10e-4 0.002,-10e-4 1.08375,-0.37987 2.17625,-0.68112 3.27,-0.92137 -12.255,6.13388 -18.31375,20.57275 -13.62625,33.82763 1.74375,4.93125 4.74625,9.05475 8.52,12.13875 m -15.01875,-9.83988 c -0.006,-0.019 -0.0137,-0.0376 -0.02,-0.0566 0.006,0.019 0.0125,0.0376 0.02,0.0566" />
    <path
       inkscape:connector-curvature="0"
       id="path460"
       style="fill:#6b99c6;fill-opacity:1;fill-rule:nonzero;stroke:none"
       d="m 299.06397,688.40173 c -0.002,0 -0.005,0 -0.007,0 0.002,0 0.005,0 0.007,0 l 0,0 m 0.002,0 c 3.04875,-0.001 6.15125,-0.51125 9.18875,-1.585 l 0,0 c -3.03875,1.07375 -6.14,1.584 -9.18875,1.585" />
    <path
       inkscape:connector-curvature="0"
       id="path462"
       style="fill:#2769b5;fill-opacity:1;fill-rule:nonzero;stroke:none"
       d="m 299.06397,688.40173 c -0.002,0 -0.005,0 -0.007,0 -11.3375,-0.004 -21.955,-7.05225 -25.96875,-18.33737 -0.006,-0.0161 -0.0125,-0.0337 -0.0175,-0.0499 l 0,0 c -0.007,-0.019 -0.0137,-0.0376 -0.02,-0.0566 0,-10e-4 -0.001,-0.002 -0.001,-0.003 -0.42375,-1.20663 -0.75125,-2.42288 -1,-3.64163 3.4225,6.60788 9.27875,11.36525 16.04,13.5415 4.88625,3.99262 11.06125,6.24125 17.46875,6.24125 1.94625,0 3.915,-0.209 5.87375,-0.63774 -1.01875,0.51024 -2.075,0.96875 -3.17625,1.35886 l 0,0 c -3.0375,1.07375 -6.14,1.584 -9.18875,1.585 -0.001,0 -0.001,0 -0.002,0" />
  </g>
</svg>
