<?xml version="1.0" encoding="UTF-8" standalone="no"?>
<!-- Created with Inkscape (http://www.inkscape.org/) -->

<svg
   xmlns:dc="http://purl.org/dc/elements/1.1/"
   xmlns:cc="http://creativecommons.org/ns#"
   xmlns:rdf="http://www.w3.org/1999/02/22-rdf-syntax-ns#"
   xmlns:svg="http://www.w3.org/2000/svg"
   xmlns="http://www.w3.org/2000/svg"
   xmlns:sodipodi="http://sodipodi.sourceforge.net/DTD/sodipodi-0.dtd"
   xmlns:inkscape="http://www.inkscape.org/namespaces/inkscape"
   width="60.778469"
   height="75.061501"
   id="svg4297"
   version="1.1"
   inkscape:version="0.48.4 r9939"
   sodipodi:docname="bread.svg">
  <defs
     id="defs4299" />
  <sodipodi:namedview
     id="base"
     pagecolor="#ffffff"
     bordercolor="#666666"
     borderopacity="1.0"
     inkscape:pageopacity="0.0"
     inkscape:pageshadow="2"
     inkscape:zoom="0.7"
     inkscape:cx="202.97934"
     inkscape:cy="31.139201"
     inkscape:document-units="px"
     inkscape:current-layer="layer1"
     showgrid="false"
     fit-margin-top="0"
     fit-margin-left="0"
     fit-margin-right="0"
     fit-margin-bottom="0"
     inkscape:window-width="472"
     inkscape:window-height="383"
     inkscape:window-x="894"
     inkscape:window-y="357"
     inkscape:window-maximized="0" />
  <metadata
     id="metadata4302">
    <rdf:RDF>
      <cc:Work
         rdf:about="">
        <dc:format>image/svg+xml</dc:format>
        <dc:type
           rdf:resource="http://purl.org/dc/dcmitype/StillImage" />
        <dc:title />
      </cc:Work>
    </rdf:RDF>
  </metadata>
  <g
     inkscape:label="Layer 1"
     inkscape:groupmode="layer"
     id="layer1"
     transform="translate(-278.69402,-580.97275)">
    <path
       inkscape:connector-curvature="0"
       id="path146"
       style="fill:#facd2e;fill-opacity:1;fill-rule:nonzero;stroke:none"
       d="m 324.33947,607.3105 c 14.51251,19.77875 19.44501,40.82375 11.02125,47.005 -8.42499,6.18125 -27.01999,-4.83875 -41.53249,-24.6175 -14.51251,-19.77875 -19.44751,-40.825 -11.02126,-47.0075 8.42251,-6.18 27.02,4.84125 41.5325,24.62" />
    <path
       inkscape:connector-curvature="0"
       id="path148"
       style="fill:#f3bd2d;fill-opacity:1;fill-rule:nonzero;stroke:none"
       d="m 299.06073,627.40925 c -0.66125,0 -1.28625,-0.0575 -1.8675,-0.1725 l 23.78875,-17.455 c -0.4375,3.87 -3.78751,8.76 -9.04125,12.615 -4.43376,3.25375 -9.21125,5.0125 -12.88,5.0125" />
    <path
       inkscape:connector-curvature="0"
       id="path150"
       style="fill:#faeb67;fill-opacity:1;fill-rule:nonzero;stroke:none"
       d="m 297.19323,627.23675 c 0.41749,-3.85375 3.77875,-8.77125 9.03375,-12.6275 4.44374,-3.26125 9.2075,-5.0025 12.87124,-5.0025 0.66751,0 1.29751,0.0575 1.88376,0.175 l -23.78875,17.455" />
    <path
       inkscape:connector-curvature="0"
       id="path152"
       style="fill:#f3bd2d;fill-opacity:1;fill-rule:nonzero;stroke:none"
       d="m 292.89573,616.013 c -0.57626,0 -1.12125,-0.05 -1.6275,-0.15 l 20.64249,-15.1475 c -0.37624,3.365 -3.28874,7.6175 -7.83999,10.95625 -3.84625,2.8225 -7.985,4.34125 -11.175,4.34125" />
    <path
       inkscape:connector-curvature="0"
       id="path154"
       style="fill:#f3bd2d;fill-opacity:1;fill-rule:nonzero;stroke:none"
       d="m 308.13697,636.7855 c -0.5725,0 -1.11374,-0.0488 -1.61874,-0.1475 l 20.63374,-15.14 c -0.38124,3.3625 -3.29125,7.61125 -7.83874,10.9475 -3.84625,2.82125 -7.98626,4.34 -11.17626,4.34 m -1.6225,-0.14875 c -0.002,0 -0.004,0 -0.005,-10e-4 l 0.005,-0.004 c 0,0.003 0,0.004 0,0.005 m 20.63876,-15.1425 c -0.002,-10e-4 -0.004,-10e-4 -0.005,-10e-4 l 0.005,-0.004 c 0,10e-4 0,0.003 0,0.005" />
    <path
       inkscape:connector-curvature="0"
       id="path156"
       style="fill:#faeb67;fill-opacity:1;fill-rule:nonzero;stroke:none"
       d="m 291.26823,615.863 c 0.365,-3.34 3.28875,-7.61625 7.83999,-10.955 3.85751,-2.83 8,-4.33875 11.185,-4.33875 0.5725,0 1.11376,0.0488 1.6175,0.14625 l -20.64249,15.1475" />
    <path
       inkscape:connector-curvature="0"
       id="path158"
       style="fill:#faeb67;fill-opacity:1;fill-rule:nonzero;stroke:none"
       d="m 306.51323,636.64175 c 0,-10e-4 10e-4,-0.004 10e-4,-0.005 10e-4,0 0.002,0 0.004,10e-4 l -0.005,0.004 m 10e-4,-0.01 c 0.37126,-3.3375 3.29251,-7.61125 7.83876,-10.9475 3.85624,-2.83 8.00124,-4.3375 11.18625,-4.3375 0.56874,0 1.10749,0.0488 1.60875,0.14625 l -20.63376,15.13875 m 20.6375,-15.13375 c 0,-0.001 0,-0.004 0.001,-0.004 10e-4,0 0.002,0 0.004,0 l -0.005,0.004" />
    <path
       inkscape:connector-curvature="0"
       id="path160"
       style="fill:#f8e565;fill-opacity:1;fill-rule:nonzero;stroke:none"
       d="m 306.51823,636.638 c -0.001,-0.001 -0.002,-0.001 -0.004,-0.001 0,-10e-4 0,-0.002 0,-0.005 l 20.63376,-15.13875 c 0.001,0 0.002,0 0.005,10e-4 -10e-4,0 -10e-4,0.003 -10e-4,0.004 l -20.63375,15.14" />
    <path
       inkscape:connector-curvature="0"
       id="path162"
       style="fill:#f3bd2d;fill-opacity:1;fill-rule:nonzero;stroke:none"
       d="m 287.98572,605.37675 c -0.46,0 -0.89625,-0.0387 -1.30125,-0.12 l 16.48625,-12.09625 c -0.30374,2.68875 -2.6225,6.07625 -6.2625,8.74875 -3.07375,2.255 -6.37624,3.4675 -8.9225,3.4675" />
    <path
       inkscape:connector-curvature="0"
       id="path164"
       style="fill:#f3bd2d;fill-opacity:1;fill-rule:nonzero;stroke:none"
       d="m 316.82447,644.67925 c -0.46125,0 -0.89625,-0.04 -1.30124,-0.12 l 16.485,-12.09625 c -0.30376,2.68875 -2.6225,6.07625 -6.26251,8.7475 -3.07374,2.255 -6.37624,3.46875 -8.92125,3.46875 m -1.3025,-0.12 0,0 0,-10e-4 c 0,10e-4 0,10e-4 0,10e-4 m 16.48626,-12.09625 -0.001,0 0.001,-10e-4 c 0,10e-4 0,10e-4 0,10e-4" />
    <path
       inkscape:connector-curvature="0"
       id="path166"
       style="fill:#faeb67;fill-opacity:1;fill-rule:nonzero;stroke:none"
       d="m 286.68447,605.25675 c 0.28875,-2.66375 2.62001,-6.075 6.26126,-8.7475 3.08625,-2.26375 6.39125,-3.46625 8.93374,-3.46625 0.4575,0 0.88876,0.0388 1.29125,0.1175 l -16.48625,12.09625" />
    <path
       inkscape:connector-curvature="0"
       id="path168"
       style="fill:#faeb67;fill-opacity:1;fill-rule:nonzero;stroke:none"
       d="m 315.52197,644.5605 c 0,-0.001 0,-0.001 0,-0.001 10e-4,0 10e-4,0 10e-4,0 l -10e-4,0.001 m 0,-0.003 c 0.29126,-2.6625 2.62126,-6.075 6.26251,-8.74625 3.08625,-2.265 6.3925,-3.46625 8.93374,-3.46625 0.45626,0 0.8875,0.0388 1.28875,0.1175 l -16.48499,12.095 m 16.48625,-12.095 0,0 0,0 0,0" />
    <path
       inkscape:connector-curvature="0"
       id="path170"
       style="fill:#f8e565;fill-opacity:1;fill-rule:nonzero;stroke:none"
       d="m 315.52323,644.55925 c 0,0 0,0 -0.001,0 0,0 0,0 0,-10e-4 l 16.48499,-12.095 10e-4,0 0,0 -16.485,12.09625" />
    <path
       inkscape:connector-curvature="0"
       id="path176"
       style="fill:#c9a625;fill-opacity:1;fill-rule:nonzero;stroke:none"
       d="m 329.61198,656.03425 c -9.53751,0 -24.00376,-10.28375 -35.78375,-26.33625 -13.02001,-17.745 -18.33126,-36.51 -13.20126,-44.64625 l 0.0238,-0.0238 c -5.15,8.11375 0.15,26.90125 13.18626,44.66375 11.78,16.06 26.245,26.34 35.78,26.34 0.92,10e-4 1.7925,-0.095 2.61374,-0.29 -0.8225,0.19625 -1.6975,0.2925 -2.61874,0.2925" />
  </g>
</svg>
