<?xml version="1.0" encoding="UTF-8" standalone="no"?>
<!-- Created with Inkscape (http://www.inkscape.org/) -->

<svg
   xmlns:dc="http://purl.org/dc/elements/1.1/"
   xmlns:cc="http://creativecommons.org/ns#"
   xmlns:rdf="http://www.w3.org/1999/02/22-rdf-syntax-ns#"
   xmlns:svg="http://www.w3.org/2000/svg"
   xmlns="http://www.w3.org/2000/svg"
   xmlns:sodipodi="http://sodipodi.sourceforge.net/DTD/sodipodi-0.dtd"
   xmlns:inkscape="http://www.inkscape.org/namespaces/inkscape"
   width="53.432796"
   height="71.532593"
   id="svg4297"
   version="1.1"
   inkscape:version="0.48.4 r9939"
   sodipodi:docname="cheese.svg">
  <defs
     id="defs4299" />
  <sodipodi:namedview
     id="base"
     pagecolor="#ffffff"
     bordercolor="#666666"
     borderopacity="1.0"
     inkscape:pageopacity="0.0"
     inkscape:pageshadow="2"
     inkscape:zoom="0.7"
     inkscape:cx="141.35432"
     inkscape:cy="-25.22054"
     inkscape:document-units="px"
     inkscape:current-layer="layer1"
     showgrid="false"
     fit-margin-top="0"
     fit-margin-left="0"
     fit-margin-right="0"
     fit-margin-bottom="0"
     inkscape:window-width="472"
     inkscape:window-height="383"
     inkscape:window-x="1168"
     inkscape:window-y="525"
     inkscape:window-maximized="0" />
  <metadata
     id="metadata4302">
    <rdf:RDF>
      <cc:Work
         rdf:about="">
        <dc:format>image/svg+xml</dc:format>
        <dc:type
           rdf:resource="http://purl.org/dc/dcmitype/StillImage" />
        <dc:title></dc:title>
      </cc:Work>
    </rdf:RDF>
  </metadata>
  <g
     inkscape:label="Layer 1"
     inkscape:groupmode="layer"
     id="layer1"
     transform="translate(81.583944,-528.14193)">
    <path
       inkscape:connector-curvature="0"
       id="path832"
       style="fill:#f68327;fill-opacity:1;fill-rule:nonzero;stroke:none"
       d="m -63.649898,566.14814 c 0.08625,0.65925 0.16375,1.31887 0.2425,1.9775 0.1675,0.0376 0.3225,0.0601 0.485,0.0791 -0.2325,-0.6875 -0.47625,-1.36913 -0.7275,-2.05663" />
    <path
       inkscape:connector-curvature="0"
       id="path834"
       style="fill:#f68327;fill-opacity:1;fill-rule:nonzero;stroke:none"
       d="m -53.562398,566.74726 0.3125,-0.0415 c 0.01875,-0.53125 0.02625,-1.061 0.035,-1.59125 -0.1225,0.54875 -0.2425,1.08488 -0.3475,1.63275" />
    <path
       inkscape:connector-curvature="0"
       id="path836"
       style="fill:#65b731;fill-opacity:1;fill-rule:nonzero;stroke:none"
       d="m -80.874898,557.22339 c 0.71875,1.27387 2.30625,1.79487 3.6425,1.31637 0.3125,0.20213 0.61625,0.38375 0.90125,0.53225 1.5,0.78763 2.88875,0.75388 4.13875,0.24263 0.35625,0.16362 0.7625,0.26762 1.2375,0.28512 l 0.09625,0.01 0.1475,0.0151 c 0.39125,0.71238 0.89375,1.39013 1.5025,1.95363 0.1625,0.85737 0.23375,1.8285 0.61375,2.51362 0.47,0.82375 1.22625,1.25875 2.075,1.43988 0.51,1.2755 1.62,2.314 3.10375,2.59375 l 0.0087,0 c -0.07875,-0.65863 -0.15625,-1.31825 -0.2425,-1.9775 0.25125,0.6875 0.495,1.36912 0.7275,2.05662 1.12875,0.1475 2.24,0.0338 3.27,-0.539 0.26,-0.1485 0.49625,-0.31987 0.705,-0.51125 0.24125,-0.21637 0.45,-0.4585 0.63125,-0.71975 0.17625,-0.0279 0.34625,-0.06 0.51875,-0.104 0.34,-0.0801 0.67875,-0.18262 1.025,-0.30125 0.515,0.24025 1.10125,0.49263 1.2775,0.54488 0.5175,0.13775 1.27375,0.22512 1.9325,0.17287 0.105,-0.54787 0.225,-1.084 0.3475,-1.63275 -0.0087,0.53025 -0.01625,1.06 -0.035,1.59125 0.16625,-0.0288 0.32,-0.0723 0.45875,-0.125 1.33,-0.52 2.51625,-1.06587 3.4175,-2.09862 l 0.3125,0.0963 c 0.225,0.0625 0.4525,0.104 0.67625,0.1225 0.685,0.0786 1.345,-0.0264 1.97875,-0.23488 1.02375,-0.32125 1.97625,-0.92625 2.86375,-1.52787 0.40625,-0.27875 0.79625,-0.60588 1.13375,-0.9785 0.5375,0.605 1.1975,1.00487 1.91875,1.251 1.80375,0.5865 3.9975,0.14262 5.61125,-0.84475 0.3125,-0.18888 0.64125,-0.40625 0.97125,-0.6425 0.1825,0.08 0.37375,0.165 0.62375,0.2715 0.39875,0.162 0.85,0.19862 1.25875,0.23337 0.98125,0.0702 2.2375,-0.36237 2.8525,-1.145 0.625,-0.78225 0.95375,-1.4835 1.01625,-2.4825 0.02625,-0.46625 -0.0625,-0.95112 -0.19,-1.40625 -0.17625,-0.59612 -0.5125,-1.10587 -0.96375,-1.48875 0.04125,-0.33012 0.06875,-0.6685 0.035,-1.01612 -0.0175,-0.23388 -0.0525,-0.45113 -0.0975,-0.6675 0.1575,-0.165 0.30375,-0.34613 0.435,-0.55513 0.91875,-1.46487 0.91875,-3.02737 0.07,-4.27637 l 0.025,-0.086 c 0.235,-0.999 0.27,-1.88225 0.06,-2.89013 -0.31125,-1.541 -1.69,-2.66112 -3.17375,-3.12737 -0.14625,-1.71875 -1.58625,-3.35988 -3.7375,-2.75388 -0.47,0.13275 -0.93875,0.30613 -1.38,0.53025 -0.7625,-0.58737 -1.70875,-0.94537 -2.8875,-0.96387 -0.3125,-0.006 -0.6325,0 -0.955,-0.006 -0.0175,-0.4785 -0.05875,-0.95363 -0.13875,-1.44138 0.8675,-1.335 0.77125,-2.99225 0.425,-4.52587 -0.2675,-1.17138 -1.00375,-1.82375 -1.8725,-2.06638 -0.2775,-0.35362 -0.59875,-0.67387 -0.955,-0.96 -0.6775,-1.55525 -2.11625,-2.86375 -3.91875,-2.7515 -1.1975,0.0879 -2.23875,0.53763 -3.08125,1.28425 -0.5975,0.121 -1.1975,0.30363 -1.76875,0.54725 -1.015,-0.38275 -1.94375,-0.3925 -2.81125,-0.12987 -0.13,-0.0175 -0.25,-0.0366 -0.38125,-0.0366 -2.6275,0.0704 -4.63875,1.93513 -4.9875,4.459 -1.92625,-0.90225 -3.99875,-1.03125 -5.96625,0.67 -0.3575,0.31 -0.68625,0.61525 -1.0075,0.91013 -1.18875,-0.2275 -2.455,-0.165 -3.46875,0.53762 -0.60875,0.416 -1.12875,0.9345 -1.52875,1.53363 l -0.09375,-0.008 c -1.415,-0.11375 -2.48875,1.02387 -2.93125,2.229 -0.1575,0.42725 -0.24,0.86475 -0.2775,1.31 -0.34875,0.27737 -0.69375,0.57225 -1.0325,0.88475 -1.11,1.01512 -1.19625,3.03525 -0.15875,4.1275 -0.14625,0.21625 -0.26625,0.44387 -0.3525,0.685 -0.99875,0.64262 -1.64875,1.3365 -2.0575,2.47275 -0.1475,0.42625 -0.29625,0.88375 -0.43375,1.34612 -0.39,0.26863 -0.7025,0.6035 -1.02,1.024 -1.155,1.53363 -1.06125,3.61613 -0.14,5.2285" />
    <path
       inkscape:connector-curvature="0"
       id="path838"
       style="fill:#73c82c;fill-opacity:1;fill-rule:nonzero;stroke:none"
       d="m -54.324898,594.72964 c -0.01,0.606 0.18375,1.08262 0.4825,1.42975 0.3425,0.39887 0.8175,0.63375 1.3325,0.71625 1.25375,0.23 2.72125,-0.48975 2.73625,-2.146 0.07125,-6.77488 2.3025,-14.05125 4.32,-20.50775 1.2325,-3.91988 2.94125,-7.52588 4.96375,-11.01125 -0.72125,-0.24613 -1.38125,-0.646 -1.91875,-1.251 -0.3375,0.37262 -0.7275,0.69975 -1.13375,0.9785 -0.8875,0.60162 -1.84,1.20662 -2.86375,1.52787 -1.39875,2.73975 -2.57625,5.57713 -3.435,8.55225 -0.1575,0.54488 -0.3125,1.09138 -0.4775,1.64013 l 0,0.0176 c -1.3,4.456 -2.6725,9.05462 -3.42625,13.685 l 0,0.0171 c -0.345,2.11762 -0.5625,4.23637 -0.58,6.3515" />
    <path
       inkscape:connector-curvature="0"
       id="path840"
       style="fill:#65b731;fill-opacity:1;fill-rule:nonzero;stroke:none"
       d="m -57.074898,597.46939 c 0,0.16412 0.0087,0.32137 0.04375,0.46787 l 0.0425,0.2085 c 0.62625,2.2475 4.44,2.01263 4.4675,-0.67637 0,-0.20113 0.01125,-0.38963 0.01125,-0.59375 0.1175,-7.162 1.07,-14.246 2.0725,-21.34225 0.04125,-0.28363 0.07625,-0.57375 0.11875,-0.85738 l 0,-0.0176 c 0.46,-3.30512 0.91875,-6.67237 1.89875,-9.855 l 0.035,-0.1025 c -0.22375,-0.0185 -0.45125,-0.06 -0.67625,-0.1225 l -0.3125,-0.0962 c -0.90125,1.03275 -2.0875,1.57863 -3.4175,2.09863 -0.13875,0.0528 -0.2925,0.0963 -0.45875,0.125 0.01875,-0.53125 0.02625,-1.061 0.035,-1.59125 -0.1225,0.54875 -0.2425,1.08487 -0.3475,1.63275 -0.61375,3.01862 -1.04125,6.05225 -1.48375,9.09862 -0.51125,3.64263 -1.015,7.30375 -1.3875,10.96388 -0.35625,3.53762 -0.605,7.09475 -0.64125,10.65962" />
    <path
       inkscape:connector-curvature="0"
       id="path842"
       style="fill:#73c82c;fill-opacity:1;fill-rule:nonzero;stroke:none"
       d="m -58.376148,595.90839 c 0,0.92725 0.4525,1.561 1.07625,1.899 l 0.26875,0.12987 0.2875,0.0946 0.0063,0 c 1.24875,0.314 2.75875,-0.31 2.895,-1.8725 l 0.01875,-0.251 c 0.0087,-2.50637 0.035,-5.02387 0.07875,-7.53025 l 0,-0.0171 c 0.1125,-7.21625 0.34875,-14.43162 0.495,-21.65525 0.01875,-0.53125 0.02625,-1.061 0.035,-1.59125 -0.1225,0.54875 -0.2425,1.08488 -0.3475,1.63275 -0.65875,0.0522 -1.415,-0.0351 -1.9325,-0.17287 -0.17625,-0.0523 -0.7625,-0.30463 -1.2775,-0.54488 -0.34625,0.11863 -0.685,0.22113 -1.025,0.30125 -0.05875,2.94775 -0.13625,5.88863 -0.205,8.82863 l 0,0.0264 c -0.115,4.19625 -0.21875,8.3975 -0.28625,12.59762 l 0,0.0322 c -0.0525,2.69925 -0.08,5.395 -0.0875,8.09275" />
    <path
       inkscape:connector-curvature="0"
       id="path844"
       style="fill:#64b331;fill-opacity:1;fill-rule:nonzero;stroke:none"
       d="m -63.649898,566.14814 c 0.08625,0.65925 0.16375,1.31887 0.2425,1.9775 0.3475,2.9415 0.67625,5.88925 1.0675,8.83162 0.84,6.39113 1.98625,12.7075 2.08875,19.16838 0.02875,1.6065 1.3975,2.334 2.62125,2.17775 0.225,-0.02 0.44125,-0.08 0.64125,-0.15763 l 0.245,-0.11387 0.0063,0 c 0.61625,-0.3535 1.05875,-0.98725 1.0425,-1.90625 -0.0525,-3.13225 -0.35625,-6.23725 -0.73875,-9.31588 -0.4775,-3.81787 -1.0925,-7.625 -1.55375,-11.4575 l -0.015,-0.1665 0,-0.0264 c -0.3225,-2.66987 -0.61625,-5.34475 -0.945,-8.00487 -0.20875,0.19137 -0.445,0.36275 -0.705,0.51125 -1.03,0.57275 -2.14125,0.6865 -3.27,0.539 -0.2325,-0.6875 -0.47625,-1.36913 -0.7275,-2.05663" />
    <path
       inkscape:connector-curvature="0"
       id="path846"
       style="fill:#73c82c;fill-opacity:1;fill-rule:nonzero;stroke:none"
       d="m -70.858648,559.60964 c 1.92625,5.23875 4.13875,10.35487 5.39625,15.83487 1.6125,7.045 3.14875,14.08888 3.7625,21.30375 0.1925,2.23775 2.935,2.76125 4.07,1.55513 0.1375,-0.14013 0.2525,-0.30513 0.33,-0.496 0.12875,-0.294 0.18875,-0.6505 0.15625,-1.05913 -0.25375,-2.99125 -0.65375,-5.97512 -1.145,-8.93262 l 0,-0.0322 c -0.67,-4.03613 -1.52,-8.03275 -2.43125,-12.02388 -0.58875,-2.586 -1.35875,-5.0825 -2.2025,-7.55475 -0.2325,-0.6875 -0.47625,-1.36912 -0.7275,-2.05662 0.08625,0.65925 0.16375,1.31887 0.2425,1.9775 l -0.0087,0 c -1.48375,-0.27975 -2.59375,-1.31825 -3.10375,-2.59375 -0.84875,-0.18113 -1.605,-0.61613 -2.075,-1.43988 -0.38,-0.68512 -0.45125,-1.65625 -0.61375,-2.51362 -0.60875,-0.5635 -1.11125,-1.24125 -1.5025,-1.95363 l -0.1475,-0.0151" />
    <path
       inkscape:connector-curvature="0"
       id="path848"
       style="fill:#e28d15;fill-opacity:1;fill-rule:nonzero;stroke:none"
       d="m -62.054898,568.26339 0,0 c 0.0025,0 0.0038,0 0.0062,0 -0.0025,0 -0.0038,0 -0.0062,0 m 2.4025,-0.59763 0,0 c 0.26,-0.1485 0.49625,-0.31987 0.705,-0.51125 0.24125,-0.21637 0.45,-0.4585 0.63125,-0.71975 0.17625,-0.0279 0.34625,-0.06 0.51875,-0.104 0.34,-0.0801 0.67875,-0.18262 1.025,-0.30125 l 0,0 c -0.34625,0.11863 -0.685,0.22113 -1.025,0.30125 l 0,0 c -0.17375,0.044 -0.34375,0.0761 -0.51625,0.104 -0.18375,0.26125 -0.39125,0.50338 -0.63375,0.71975 l 0,0 c -0.20875,0.19138 -0.445,0.36275 -0.705,0.51125 l 0,0 m 5.68625,-0.90387 0,0 0.0013,0 -0.0013,0 m 0.34875,-0.0113 c 0.0175,-8.8e-4 0.03625,-0.002 0.055,-0.003 l 0,0 c -0.01375,0.001 -0.0275,0.003 -0.04125,0.003 -0.005,8.7e-4 -0.01,8.7e-4 -0.01375,8.7e-4 m 5.69,-2.02337 0,0 c 0.5225,0 1.03,-0.10013 1.52125,-0.26125 1.02375,-0.32125 1.97625,-0.92625 2.86375,-1.52788 0.40625,-0.27875 0.79625,-0.60587 1.13375,-0.9785 0,0 0,10e-4 0.0012,10e-4 l 0,0 c -0.0012,0 -0.0012,-10e-4 -0.0012,-10e-4 -0.3375,0.37263 -0.7275,0.69975 -1.13375,0.9785 -0.8875,0.60163 -1.84,1.20663 -2.86375,1.52788 l 0,0 c -0.49,0.16112 -0.9975,0.26125 -1.52125,0.26125 m 9.18,-1.25388 c -0.59875,0 -1.18875,-0.0825 -1.7425,-0.26275 l 0,0 c 0.55375,0.18025 1.14375,0.26275 1.7425,0.26275 1.35375,0 2.75,-0.42237 3.86875,-1.1075 0.3125,-0.18887 0.64125,-0.40625 0.97125,-0.6425 l 0,0 c -0.32875,0.23625 -0.65625,0.45363 -0.97125,0.6425 -1.11875,0.68513 -2.515,1.1075 -3.86875,1.1075 m 6.93625,-1.23737 0,0 c 0.9425,0 2.0675,-0.42625 2.63875,-1.15275 0.625,-0.78225 0.95375,-1.4835 1.01625,-2.4825 0.0025,-0.0536 0.005,-0.10888 0.005,-0.1635 0,0.0546 -0.0025,0.10987 -0.005,0.1635 -0.0625,0.999 -0.39125,1.70025 -1.015,2.4825 -0.57125,0.7265 -1.6975,1.15275 -2.64,1.15275 m -40.56625,-24.31248 -0.09375,-0.008 c -0.06625,-0.005 -0.13125,-0.007 -0.19625,-0.007 l 0,0 c 0.065,0 0.13125,0.003 0.1975,0.007 l 0.0925,0.008 0,0 m 4.9975,-2.07125 c -0.38875,-0.0738 -0.78625,-0.11762 -1.18,-0.11762 l 0,0 c 0.39375,0 0.79125,0.0439 1.18,0.11762" />
    <path
       inkscape:connector-curvature="0"
       id="path850"
       style="fill:#5ca533;fill-opacity:1;fill-rule:nonzero;stroke:none"
       d="m -62.054898,568.26339 c -0.225,0 -0.45125,-0.0127 -0.6775,-0.0361 -0.0475,-0.005 -0.095,-0.0103 -0.14375,-0.0166 -0.015,-0.002 -0.03125,-0.003 -0.04625,-0.006 l 0,0 c -0.2325,-0.6875 -0.47625,-1.36913 -0.7275,-2.05663 l 0,0 c 0.0038,0.0264 0.0075,0.0512 0.01,0.0776 0.0825,0.63288 0.1575,1.26763 0.2325,1.89988 l -0.0087,0 c -0.0062,0 -0.01125,-8.8e-4 -0.0175,-0.002 -1.475,-0.28613 -2.57625,-1.32125 -3.08625,-2.59138 l 0,0 c -0.84875,-0.18112 -1.605,-0.61612 -2.075,-1.43987 l 0,0 c -0.38,-0.68513 -0.44875,-1.65625 -0.61375,-2.51363 l 0,0 c -0.60875,-0.5635 -1.11125,-1.24125 -1.5025,-1.95362 l -0.14625,-0.0151 c -0.0013,-0.003 -0.0013,-0.005 -0.0025,-0.007 l -0.07,0 -0.0225,-0.002 c -0.05125,-0.001 -0.1,-0.004 -0.14875,-0.008 -0.4125,-0.0376 -0.77375,-0.13238 -1.085,-0.27738 -0.0012,0 -0.0025,0 -0.0037,10e-4 -0.0012,-10e-4 -0.0012,-10e-4 -0.0025,-10e-4 -0.36125,0.1475 -0.73375,0.25488 -1.1175,0.315 -0.22,0.0336 -0.44375,0.0512 -0.67,0.0512 -0.745,0 -1.5275,-0.189 -2.34375,-0.61625 -0.28625,-0.13862 -0.58625,-0.32375 -0.89875,-0.52487 -0.0025,10e-4 -0.0038,0.002 -0.0063,0.002 -0.0012,0 -0.0025,-10e-4 -0.0037,-0.002 -0.15375,0.0561 -0.31125,0.0971 -0.47,0.126 -0.175,0.0312 -0.3525,0.0464 -0.53,0.0464 -1.0525,0 -2.0925,-0.53513 -2.64,-1.49763 -0.41375,-0.71962 -0.66,-1.53125 -0.70375,-2.34462 0,-0.004 0,-0.008 0,-0.0118 0,-10e-4 0,-10e-4 0,-0.003 -0.04125,-0.8085 0.11625,-1.61863 0.50875,-2.34475 0.035,-0.0615 0.07125,-0.125 0.10875,-0.1875 0.06875,-0.11275 0.1425,-0.22113 0.22375,-0.3285 0.04125,-0.0543 0.0825,-0.108 0.12375,-0.15925 0.23,-0.28125 0.46,-0.52488 0.7225,-0.73588 0.0575,-0.0439 0.11625,-0.0879 0.17625,-0.12887 0,-0.002 0.0012,-0.004 0.0012,-0.006 l 0.0012,0 c 0.13625,-0.46388 0.2875,-0.9135 0.4375,-1.33738 0.1475,-0.42137 0.33,-0.78275 0.55125,-1.1025 0.37875,-0.5425 0.86875,-0.96725 1.4975,-1.37262 l 0,0 c 0.0012,-8.8e-4 0.0012,-8.8e-4 0.0012,-8.8e-4 0.0875,-0.24912 0.2125,-0.47412 0.36125,-0.68662 -1.0375,-1.08888 -0.96125,-3.11225 0.15125,-4.125 0.3375,-0.3125 0.68625,-0.61375 1.0375,-0.88613 0.0375,-0.45275 0.1125,-0.88875 0.27375,-1.3135 l 0.13875,-0.3125 -0.02,0.0195 c 0.47375,-1.03125 1.40875,-1.9385 2.6125,-1.9385 0.065,0 0.13,0.003 0.19625,0.007 l 0.09375,0.008 0,0 0.0025,0 c 0.3975,-0.59912 0.92125,-1.11762 1.5275,-1.53362 0.68125,-0.47275 1.4775,-0.65525 2.2875,-0.65525 0.39375,0 0.79125,0.0439 1.18,0.11762 l 0,0 c 0.32125,-0.29487 0.65,-0.60012 1.0075,-0.91012 1.0875,-0.94 2.2075,-1.32138 3.3175,-1.32138 0.51125,0 1.02,0.0801 1.5225,0.22513 -0.27,0.75637 -0.84125,1.355 -1.65625,1.69387 -0.19375,0.606 -0.6075,1.16113 -1.31,1.57713 -0.27625,0.1665 -0.51875,0.3125 -0.7375,0.45025 0.32125,0.73 0.51875,1.476 0.59875,2.24025 0.91125,0.65862 1.5075,1.49112 2.0875,2.47987 0.56625,0.9625 0.64375,2.51475 0.35875,3.565 l -0.045,0.1885 c 0.545,0.23625 1.03375,0.625 1.3725,1.15625 0.02625,0 0.05375,0 0.08,0 2.18875,0 4.29875,1.38763 5.09875,3.42525 0.21375,0.55375 0.51,1.17088 0.78625,1.8135 0.50625,-0.0561 1.31,-0.12987 2.03375,-0.12987 0.4075,0 0.79,0.0225 1.08125,0.085 1.24125,0.26112 2.33375,1.56975 3.00125,2.55262 1.17125,1.69 2.23625,0.71 4.155,1.35263 1.395,0.4585 2.30875,1.55125 3.01,2.78225 0.11125,0.19375 0.2325,0.30512 0.365,0.374 0.12875,-0.13775 0.26,-0.28525 0.39875,-0.43413 0.47625,-0.50975 1.01375,-0.791 1.55125,-0.8935 0.2425,-0.24375 0.48625,-0.47512 0.72,-0.64012 0.96875,-0.67725 2.22125,-1.30863 3.465,-1.30863 0.30125,0 0.6025,0.0361 0.8975,0.12013 0.60875,0.16212 1.31875,0.63087 1.7625,1.0835 l 0.0063,0.0161 c 0.2425,-0.0762 0.47625,-0.1285 0.6775,-0.1285 1.20625,0 2.22,-0.0113 3.37375,-0.209 l 0.05375,0.13625 c 0.1125,0.40137 0.195,0.82762 0.195,1.24275 0,0.0546 -0.0025,0.10987 -0.005,0.1635 -0.0625,0.999 -0.39125,1.70025 -1.01625,2.4825 -0.57125,0.7265 -1.69625,1.15275 -2.63875,1.15275 -0.06375,0 -0.12625,-0.002 -0.1875,-0.006 -0.0087,0 -0.0175,-10e-4 -0.02625,-10e-4 l 0,0 c -0.4075,-0.0348 -0.86,-0.0714 -1.25875,-0.23338 l 0,0 c -0.25,-0.1065 -0.44,-0.1915 -0.62375,-0.2715 l 0,0 c -0.33,0.23625 -0.65875,0.45363 -0.97125,0.6425 -1.11875,0.68513 -2.515,1.1075 -3.86875,1.1075 -0.59875,0 -1.18875,-0.0825 -1.7425,-0.26275 l 0,0 c -0.71875,-0.24612 -1.38,-0.646 -1.91625,-1.251 -0.0012,0 -0.0012,10e-4 -0.0012,10e-4 -0.0012,0 -0.0012,-10e-4 -0.0012,-10e-4 -0.3375,0.37263 -0.7275,0.69975 -1.13375,0.9785 -0.8875,0.60163 -1.84,1.20663 -2.86375,1.52788 -0.49125,0.16112 -0.99875,0.26125 -1.52125,0.26125 -0.15125,0 -0.30375,-0.009 -0.4575,-0.0264 l 0,0 c -0.22375,-0.0185 -0.45125,-0.06 -0.67625,-0.1225 l -0.3125,-0.0963 c -0.90125,1.03275 -2.0875,1.57862 -3.4175,2.09862 -0.13875,0.0527 -0.2925,0.0962 -0.45875,0.125 0.01875,-0.53125 0.02625,-1.061 0.035,-1.59125 l 0,0 c -0.1225,0.54875 -0.2425,1.08488 -0.3475,1.63275 l 0,0 c -0.01875,10e-4 -0.0375,0.003 -0.055,0.003 -0.11375,0.008 -0.23,0.0113 -0.3475,0.0113 l -0.0013,0 c -0.5475,0 -1.1125,-0.0771 -1.52875,-0.1875 l 0,0 c -0.175,-0.0523 -0.7625,-0.30462 -1.2775,-0.54487 l 0,0 c -0.34625,0.11862 -0.685,0.22112 -1.025,0.30125 -0.1725,0.044 -0.3425,0.0761 -0.51875,0.104 -0.18125,0.26125 -0.39,0.50337 -0.63125,0.71975 -0.20875,0.19137 -0.445,0.36275 -0.705,0.51125 l 0,0 c -0.7625,0.42375 -1.57,0.59612 -2.39625,0.59762 -0.0025,0 -0.0038,0 -0.0062,0" />
    <path
       inkscape:connector-curvature="0"
       id="path852"
       style="fill:#65b531;fill-opacity:1;fill-rule:nonzero;stroke:none"
       d="m -46.406148,564.46601 0,0 c 1.02375,-0.32125 1.97625,-0.92625 2.86375,-1.52787 0.40625,-0.27875 0.79625,-0.60588 1.13375,-0.9785 0,0 0,10e-4 0.0012,10e-4 -0.34,0.37162 -0.73,0.70025 -1.135,0.9775 -0.8875,0.60162 -1.84,1.20662 -2.86375,1.52787 l 0,0 m 5.91625,-1.25537 0,0" />
    <path
       inkscape:connector-curvature="0"
       id="path854"
       style="fill:#5ca533;fill-opacity:1;fill-rule:nonzero;stroke:none"
       d="m -53.562398,566.74726 0,0 c 0.105,-0.54787 0.225,-1.084 0.3475,-1.63275 l 0,0 c -0.1225,0.54875 -0.2425,1.08488 -0.3475,1.63275 l 0,0 m 0.3125,-0.0415 0,0 c 0.16625,-0.0287 0.32,-0.0722 0.45875,-0.125 1.33,-0.52 2.51625,-1.06587 3.4175,-2.09862 l 0.3125,0.0962 c 0.225,0.0625 0.4525,0.104 0.67625,0.1225 l 0,0 c -0.22375,-0.0185 -0.45125,-0.06 -0.67625,-0.1225 l -0.3125,-0.0962 c -0.90125,1.03275 -2.0875,1.57862 -3.4175,2.09862 -0.1375,0.0528 -0.2925,0.0963 -0.45875,0.125" />
    <path
       inkscape:connector-curvature="0"
       id="path856"
       style="fill:#65b531;fill-opacity:1;fill-rule:nonzero;stroke:none"
       d="m -53.966148,566.76189 0,0 0.0013,0 c 0.1175,0 0.23375,-0.003 0.3475,-0.0113 0.0038,0 0.0087,0 0.01375,-8.8e-4 -0.11875,0.009 -0.24,0.0121 -0.3625,0.0121 m 0.40375,-0.0146 0,0 c 0.105,-0.54787 0.225,-1.084 0.3475,-1.63275 l 0,0 c -0.1225,0.54875 -0.2425,1.08488 -0.3475,1.63275 l 0,0 m -1.9325,-0.17287 0,0 m -2.3025,-0.24363 0,0 c 0.34,-0.0801 0.67875,-0.18262 1.025,-0.30125 l 0,0 c -0.34625,0.11863 -0.685,0.22113 -1.0225,0.30125 -0.0012,0 -0.0012,0 -0.0025,0" />
    <path
       inkscape:connector-curvature="0"
       id="path858"
       style="fill:#5aa133;fill-opacity:1;fill-rule:nonzero;stroke:none"
       d="m -62.054898,568.26339 0,0 c 0.0025,0 0.0038,0 0.0062,0 0.82625,-10e-4 1.63375,-0.17388 2.39625,-0.59763 l 0,0 c 0.26,-0.1485 0.49625,-0.31987 0.705,-0.51125 l 0,0 c -0.20875,0.19138 -0.44125,0.36275 -0.7025,0.51125 -0.7675,0.42525 -1.57625,0.59763 -2.405,0.59763 m -0.82125,-0.0528 c -0.015,-0.002 -0.03125,-0.003 -0.04625,-0.006 l 0,0 c -0.2325,-0.6875 -0.47625,-1.36913 -0.7275,-2.05663 l 0,0 c 0.25125,0.6875 0.495,1.36913 0.7275,2.05663 l 0,0 c 0.015,0.003 0.03125,0.004 0.04625,0.006 l 0,0" />
    <path
       inkscape:connector-curvature="0"
       id="path860"
       style="fill:#65b531;fill-opacity:1;fill-rule:nonzero;stroke:none"
       d="m -62.922398,568.20476 0,0 c -0.2325,-0.6875 -0.47625,-1.36912 -0.7275,-2.05662 l 0,0 c 0.25125,0.6875 0.495,1.36912 0.7275,2.05662 l 0,0 m -0.485,-0.0791 -0.0087,0 c -0.0062,0 -0.01125,-8.7e-4 -0.0175,-0.002 0.0062,0.002 0.01125,0.002 0.0175,0.002 l 0.0087,0 0,0 m 0,0 c -0.075,-0.63225 -0.15,-1.267 -0.2325,-1.89987 0.0825,0.63287 0.16,1.26762 0.2325,1.89987 m -3.1125,-2.59375 0,0 c -0.84875,-0.18112 -1.605,-0.61612 -2.075,-1.43987 l 0,0 c 0.47,0.82375 1.22625,1.25875 2.075,1.43987 l 0,0 m -2.68875,-3.9535 0,0 c -0.60875,-0.5635 -1.11125,-1.24125 -1.5025,-1.95362 l -0.14625,-0.0151 0,0 0.14625,0.0151 c 0.39125,0.71237 0.89375,1.39012 1.5025,1.95362 l 0,0" />
    <path
       inkscape:connector-curvature="0"
       id="path864"
       style="fill:#539432;fill-opacity:1;fill-rule:nonzero;stroke:none"
       d="m -70.858648,559.60964 -0.0725,-0.007 0.0012,0 0.07125,0.007 m -0.23125,-0.0176 c -0.39625,-0.0289 -0.7425,-0.11863 -1.0525,-0.25488 0.30625,0.13475 0.64875,0.22513 1.04125,0.25488 0.0038,0 0.0075,0 0.01125,0 m -9.78495,-2.36862 c -0.645,-1.12988 -0.885,-2.48975 -0.57375,-3.7315 -0.11,0.44537 -0.15125,0.90525 -0.1275,1.36375 0,10e-4 0,10e-4 0,0.002 0,0.004 0,0.008 0,0.0118 0.04375,0.81737 0.29,1.63225 0.70125,2.3535 m -0.19375,-4.709 c 0.035,-0.065 0.07125,-0.1285 0.11,-0.19238 l 0,10e-4 c -0.03875,0.0625 -0.075,0.125 -0.10875,0.1875 0,10e-4 -0.0012,0.002 -0.0012,0.004 m 0.45625,-0.67875 c 0.245,-0.30462 0.4925,-0.5625 0.77875,-0.77975 -0.01875,0.0151 -0.03625,0.0288 -0.055,0.0439 -0.265,0.20763 -0.495,0.45125 -0.7225,0.73588 l -0.0012,0 m 0.89875,-0.86865 c 0.1375,-0.461 0.28625,-0.916 0.4325,-1.34225 0.1775,-0.49275 0.4,-0.90287 0.6775,-1.26125 -0.04,0.0523 -0.08,0.10588 -0.1175,0.16113 -0.2225,0.31887 -0.4075,0.67875 -0.5575,1.10012 -0.14875,0.42475 -0.2975,0.87988 -0.4325,1.33975 -0.0012,0.002 -0.0012,0.003 -0.0025,0.003 m 2.69375,-4.67237 c -0.8775,-1.1225 -0.74625,-2.99125 0.3075,-3.95513 0.33875,-0.3125 0.68375,-0.60737 1.0325,-0.88475 0.0375,-0.44525 0.12,-0.88275 0.2775,-1.31 0.03625,-0.10012 0.0775,-0.19875 0.1225,-0.29787 l 0,0 c -0.045,0.0991 -0.08625,0.19775 -0.1225,0.29787 -0.1575,0.42725 -0.24,0.86475 -0.2775,1.31 -0.34875,0.27738 -0.69375,0.57225 -1.03125,0.88475 -1.055,0.96388 -1.18625,2.83263 -0.30875,3.95513" />
    <path
       inkscape:connector-curvature="0"
       id="path866"
       style="fill:#539432;fill-opacity:1;fill-rule:nonzero;stroke:none"
       d="m -54.818648,599.67451 c -0.945,0 -1.88625,-0.50875 -2.17,-1.52875 l 0.0038,-0.003 c 0.2825,1.019 1.21875,1.52888 2.1625,1.52888 0.57,0 1.1425,-0.18613 1.575,-0.55863 l -0.04875,0.0488 c -0.42375,0.34088 -0.97375,0.51225 -1.5225,0.51225" />
    <path
       inkscape:connector-curvature="0"
       id="path868"
       style="fill:#529132;fill-opacity:1;fill-rule:nonzero;stroke:none"
       d="m -57.624898,598.30339 c 0.0012,-0.001 0.0012,-0.001 0.0025,-0.002 0.22375,-0.024 0.43625,-0.0874 0.6375,-0.16163 0,0.002 0,0.003 0,0.004 l -0.0038,0.003 c -0.1975,0.0776 -0.41375,0.13763 -0.63625,0.15763" />
    <path
       inkscape:connector-curvature="0"
       id="path870"
       style="fill:#5da532;fill-opacity:1;fill-rule:nonzero;stroke:none"
       d="m -59.229898,598.93476 c -1.13875,0 -2.345,-0.73 -2.47,-2.1865 -0.61375,-7.21487 -2.15,-14.25875 -3.7625,-21.30375 -1.2575,-5.48 -3.47,-10.59612 -5.39625,-15.83487 l 0.0013,0 c 1.935,5.246 4.14875,10.35637 5.3975,15.83 1.61125,7.05125 3.15,14.0865 3.7625,21.29887 0.13,1.4585 1.3375,2.18988 2.47875,2.18988 0.4175,0 0.825,-0.0976 1.16875,-0.29388 -0.345,0.20013 -0.75875,0.30025 -1.18,0.30025" />
    <path
       inkscape:connector-curvature="0"
       id="path872"
       style="fill:#4b8430;fill-opacity:1;fill-rule:nonzero;stroke:none"
       d="m -74.001148,559.68326 c -0.74125,0 -1.52,-0.185 -2.33,-0.61125 -0.285,-0.1475 -0.58625,-0.32862 -0.8975,-0.52987 0.0025,0 0.0038,-10e-4 0.0063,-0.002 0.3125,0.20112 0.6125,0.38625 0.89875,0.52487 0.81625,0.42725 1.59875,0.61625 2.34375,0.61625 0.22625,0 0.45,-0.0176 0.67,-0.0512 -0.2275,0.0351 -0.4575,0.0536 -0.69125,0.0536 m 3.14375,-0.0736 -0.0013,0 -0.07125,-0.007 0.07,0 c 0.0013,0.002 0.0013,0.005 0.0025,0.007 m -0.24375,-0.0176 c -0.3925,-0.0297 -0.735,-0.12012 -1.04125,-0.25487 -0.01625,-0.007 -0.03125,-0.0137 -0.0475,-0.0215 0.0013,-10e-4 0.0025,-10e-4 0.0038,-10e-4 0.31125,0.145 0.6725,0.23975 1.085,0.27737 m -7.15,-0.876 c -1.04875,0 -2.0825,-0.53275 -2.62375,-1.49262 l 0,0 c -0.41125,-0.72125 -0.6575,-1.53613 -0.70125,-2.3535 0.04375,0.81337 0.29,1.625 0.70375,2.34462 0.5475,0.9625 1.5875,1.49763 2.64,1.49763 0.1775,0 0.355,-0.0151 0.53,-0.0464 -0.18125,0.0336 -0.365,0.0503 -0.54875,0.0503 m -3.32495,-3.85785 c 0,-0.001 0,-0.001 0,-0.002 0,10e-4 0,10e-4 0,0.002 m 0.50875,-2.34725 c 0.03375,-0.0625 0.07,-0.125 0.10875,-0.1875 -0.0375,0.0625 -0.07375,0.126 -0.10875,0.1875 m 0.45625,-0.67525 c 0.2275,-0.28463 0.4575,-0.52825 0.7225,-0.73588 -0.2625,0.211 -0.4925,0.45463 -0.7225,0.73588 m 0.9,-0.87113 c 0.135,-0.45987 0.28375,-0.915 0.4325,-1.33975 0.15,-0.42137 0.335,-0.78125 0.5575,-1.10012 -0.22125,0.31975 -0.40375,0.68112 -0.55125,1.1025 -0.15,0.42387 -0.30125,0.8735 -0.4375,1.33737 l -0.0013,0 m 2.4875,-3.8125 c 0.0875,-0.24212 0.20625,-0.46875 0.3525,-0.685 l 0,0 c -0.0525,-0.0548 -0.1025,-0.11237 -0.14875,-0.17237 -0.8775,-1.1225 -0.74625,-2.99125 0.30875,-3.95513 0.3375,-0.3125 0.6825,-0.60737 1.03125,-0.88475 0.0375,-0.44525 0.12,-0.88275 0.2775,-1.31 0.03625,-0.10012 0.0775,-0.19875 0.1225,-0.29787 l 0.02,-0.0195 -0.13875,0.3125 c -0.16125,0.42475 -0.23625,0.86075 -0.27375,1.3135 -0.35125,0.27237 -0.7,0.57362 -1.0375,0.88612 -1.1125,1.01275 -1.18875,3.03613 -0.15125,4.125 -0.14875,0.2125 -0.27375,0.4375 -0.36125,0.68663 0,0 0,0 -0.0012,8.7e-4" />
  </g>
</svg>
