<?xml version="1.0" encoding="UTF-8" standalone="no"?>
<!-- Created with Inkscape (http://www.inkscape.org/) -->

<svg
   xmlns:dc="http://purl.org/dc/elements/1.1/"
   xmlns:cc="http://creativecommons.org/ns#"
   xmlns:rdf="http://www.w3.org/1999/02/22-rdf-syntax-ns#"
   xmlns:svg="http://www.w3.org/2000/svg"
   xmlns="http://www.w3.org/2000/svg"
   xmlns:sodipodi="http://sodipodi.sourceforge.net/DTD/sodipodi-0.dtd"
   xmlns:inkscape="http://www.inkscape.org/namespaces/inkscape"
   width="47.815147"
   height="79.806816"
   id="svg4297"
   version="1.1"
   inkscape:version="0.48.4 r9939"
   sodipodi:docname="milk.svg">
  <defs
     id="defs4299" />
  <sodipodi:namedview
     id="base"
     pagecolor="#ffffff"
     bordercolor="#666666"
     borderopacity="1.0"
     inkscape:pageopacity="0.0"
     inkscape:pageshadow="2"
     inkscape:zoom="0.7"
     inkscape:cx="-94.272161"
     inkscape:cy="43.377097"
     inkscape:document-units="px"
     inkscape:current-layer="layer1"
     showgrid="false"
     fit-margin-top="0"
     fit-margin-left="0"
     fit-margin-right="0"
     fit-margin-bottom="0"
     inkscape:window-width="472"
     inkscape:window-height="383"
     inkscape:window-x="1168"
     inkscape:window-y="525"
     inkscape:window-maximized="0" />
  <metadata
     id="metadata4302">
    <rdf:RDF>
      <cc:Work
         rdf:about="">
        <dc:format>image/svg+xml</dc:format>
        <dc:type
           rdf:resource="http://purl.org/dc/dcmitype/StillImage" />
        <dc:title></dc:title>
      </cc:Work>
    </rdf:RDF>
  </metadata>
  <g
     inkscape:label="Layer 1"
     inkscape:groupmode="layer"
     id="layer1"
     transform="translate(-154.04254,-588.46535)">
    <path
       inkscape:connector-curvature="0"
       id="path18"
       style="fill:#f68327;fill-opacity:1;fill-rule:nonzero;stroke:none"
       d="m 174.4306,638.30578 c 0.19625,0.29788 0.42625,0.59038 0.64838,0.90625 0.59087,0.78425 1.23925,1.605 1.95462,2.45413 3.3345,3.97125 5.76563,6.90087 8.56488,10.15875 l 0.71587,0.84862 c 0.61275,0.70263 1.23138,1.42238 1.88088,2.186 0.26312,0.294 0.51162,0.59275 0.77925,0.8965 0.24762,0.2675 0.48925,0.55513 0.729,0.84125 0.40625,0.44725 0.80812,0.91363 1.23775,1.3975 0.86525,0.98388 2.05037,2.24125 3.32962,3.56638 l 0.007,0.0113 c 0.25638,0.25975 0.5175,0.51762 0.78463,0.78862 1.05525,1.0425 2.127,2.10888 3.13825,3.07375 1.44725,1.37638 3.9975,4.50875 3.61912,1.71238 -0.19487,-1.04013 -1.752,-5.30225 -2.1485,-6.34138 -2.5615,-6.80225 -4.32862,-12.33837 -6.51312,-18.4545 -0.11325,-0.36137 -0.25488,-0.74425 -0.39113,-1.11037 -0.26812,-0.73875 -0.54,-1.50488 -0.82275,-2.27 -0.8955,-2.46738 -2.74412,-9.31988 -5.7515,-12.921 -0.3335,-0.38525 -0.67387,-0.749 -1.03075,-1.05263 -1.21925,-1.03125 -2.60012,-1.51525 -4.15087,-1.05137 -0.56588,0.0625 -1.16113,0.19387 -1.75688,0.37987 -1.55512,0.48538 -3.17237,1.334 -4.53175,2.37413 -2.46137,1.85587 -4.13475,4.3085 -3.28025,6.33737 0.73388,1.7675 1.70263,3.46725 2.98788,5.2685" />
    <path
       inkscape:connector-curvature="0"
       id="path20"
       style="fill:#f7c493;fill-opacity:1;fill-rule:nonzero;stroke:none"
       d="m 174.54035,636.44841 c -0.4325,0 -0.81925,-0.5425 -0.42625,-0.92975 1.43163,-1.41013 3.1865,-2.37638 4.835,-3.5 0.10013,-0.0687 0.19975,-0.0976 0.293,-0.0976 0.4595,0 0.7695,0.71637 0.27875,1.05125 -1.56537,1.0665 -3.24212,1.97512 -4.601,3.3135 -0.11775,0.11525 -0.2505,0.16262 -0.3795,0.16262" />
    <path
       inkscape:connector-curvature="0"
       id="path22"
       style="fill:#d2a0b4;fill-opacity:1;fill-rule:nonzero;stroke:none"
       d="m 174.84998,638.89466 c -0.14113,-0.186 -0.27838,-0.36863 -0.397,-0.55463 0.12312,0.1845 0.25887,0.36713 0.397,0.55463" />
    <path
       inkscape:connector-curvature="0"
       id="path24"
       style="fill:#f7c493;fill-opacity:1;fill-rule:nonzero;stroke:none"
       d="m 175.08435,639.20966 c -0.0776,-0.1075 -0.15625,-0.211 -0.23437,-0.315 -0.13813,-0.1875 -0.27388,-0.37013 -0.397,-0.55463 -0.006,-0.009 -0.0118,-0.0191 -0.0175,-0.0279 -0.002,-0.002 -0.003,-0.004 -0.004,-0.006 1.437,-1.226 2.56887,-2.76462 3.94925,-4.061 0.11962,-0.10987 0.25387,-0.15775 0.38337,-0.15775 0.44575,0 0.83875,0.55275 0.42675,0.93413 -1.42537,1.33837 -2.59237,2.935 -4.104,4.1875 l -0.002,10e-4" />
    <path
       inkscape:connector-curvature="0"
       id="path26"
       style="fill:#f7c493;fill-opacity:1;fill-rule:nonzero;stroke:none"
       d="m 188.17323,640.49966 c -0.49175,0 -0.82075,-0.7285 -0.293,-1.03125 0.73437,-0.42138 1.52975,-0.6875 2.3325,-0.6875 0.48687,0 0.97612,0.0976 1.45712,0.31737 0.56925,0.25875 0.23338,1.03025 -0.29112,1.03025 -0.0781,0 -0.16063,-0.0175 -0.24463,-0.0561 -0.30025,-0.13625 -0.60837,-0.19525 -0.9155,-0.19525 -0.61375,0 -1.22462,0.23388 -1.767,0.54488 -0.0953,0.0543 -0.1895,0.0776 -0.27837,0.0776" />
    <path
       inkscape:connector-curvature="0"
       id="path28"
       style="fill:#f7c493;fill-opacity:1;fill-rule:nonzero;stroke:none"
       d="m 189.48473,642.83603 c -0.6255,0 -0.59963,-1.03025 0.0747,-1.12 1.07325,-0.14512 2.1255,-0.43125 3.2055,-0.47125 0.13675,0.36625 0.27637,0.74613 0.38925,1.11138 -0.0469,0 -0.0937,-0.002 -0.14113,-0.002 -1.14112,0 -2.292,0.31637 -3.441,0.47512 -0.0302,0.005 -0.0595,0.006 -0.0874,0.006" />
    <path
       inkscape:connector-curvature="0"
       id="path30"
       style="fill:#d2a0b4;fill-opacity:1;fill-rule:nonzero;stroke:none"
       d="m 188.9716,655.76091 c -0.25837,-0.30763 -0.50487,-0.59138 -0.76325,-0.88625 0.25838,0.28912 0.503,0.5825 0.76613,0.88137 l -0.003,0.005" />
    <path
       inkscape:connector-curvature="0"
       id="path32"
       style="fill:#f7c493;fill-opacity:1;fill-rule:nonzero;stroke:none"
       d="m 188.97448,655.75603 c -0.26313,-0.29887 -0.50775,-0.59225 -0.76613,-0.88137 -0.003,-0.004 -0.007,-0.007 -0.0108,-0.0122 -5e-4,0 -0.001,-0.001 -0.001,-0.001 0.72063,-1.32763 2.2075,-2.09863 3.47013,-2.83988 0.0958,-0.0576 0.19,-0.0825 0.27937,-0.0825 0.48088,0 0.80763,0.726 0.29238,1.03613 -1.187,0.69475 -2.644,1.3765 -3.22363,2.71 l -0.04,0.0712" />
    <path
       inkscape:connector-curvature="0"
       id="path34"
       style="fill:#d2a0b4;fill-opacity:1;fill-rule:nonzero;stroke:none"
       d="m 189.53948,656.40103 c -0.1885,-0.21875 -0.37263,-0.435 -0.5645,-0.63625 -10e-4,-10e-4 -0.002,-0.002 -0.002,-0.002 -3.8e-4,-10e-4 -3.8e-4,-10e-4 -8.8e-4,-10e-4 10e-4,-0.001 0.003,-0.003 0.004,-0.003 0.19038,0.206 0.37788,0.42325 0.5635,0.6435" />
    <path
       inkscape:connector-curvature="0"
       id="path36"
       style="fill:#f7c493;fill-opacity:1;fill-rule:nonzero;stroke:none"
       d="m 189.70735,656.59728 c -0.0566,-0.0649 -0.11225,-0.13125 -0.16787,-0.19625 -0.18563,-0.22025 -0.37313,-0.4375 -0.5635,-0.6435 0.44925,-0.37262 0.956,-0.67637 1.45412,-0.99425 0.0986,-0.0585 0.19625,-0.0849 0.288,-0.0849 0.48638,0 0.80913,0.7265 0.291,1.05125 -0.4545,0.2715 -0.89787,0.53763 -1.30175,0.86763" />
    <path
       inkscape:connector-curvature="0"
       id="path38"
       style="fill:#f7c493;fill-opacity:1;fill-rule:nonzero;stroke:none"
       d="m 180.14348,627.46503 c -0.52588,0 -0.70175,-0.88387 -0.106,-1.10262 1.67187,-0.63038 3.26512,-1.36513 5.0205,-1.36513 0.0338,0 0.0679,0 0.102,10e-4 0.357,0.30613 0.69687,0.67 1.03175,1.05613 -0.0854,0.0635 -0.19138,0.109 -0.31825,0.109 -0.0333,0 -0.0684,-0.003 -0.1045,-0.0103 -0.26125,-0.0411 -0.52013,-0.0601 -0.77688,-0.0601 -1.62112,0 -3.15625,0.76025 -4.65875,1.335 -0.0674,0.0249 -0.13087,0.0366 -0.18987,0.0366" />
    <path
       inkscape:connector-curvature="0"
       id="path40"
       style="fill:#d2a0b4;fill-opacity:1;fill-rule:nonzero;stroke:none"
       d="m 186.31535,652.67491 -0.005,0 -0.71,-0.84763 0,0 0.71388,0.84625 c 5e-4,10e-4 5e-4,10e-4 0.001,10e-4" />
    <path
       inkscape:connector-curvature="0"
       id="path42"
       style="fill:#f7c493;fill-opacity:1;fill-rule:nonzero;stroke:none"
       d="m 186.31623,652.67491 -8.8e-4,0 c -5e-4,0 -5e-4,0 -0.001,-10e-4 l -0.71387,-0.84625 c 0.61575,-0.3525 1.24562,-0.68113 1.874,-1.03763 0.0942,-0.0551 0.1875,-0.0786 0.27537,-0.0786 0.48925,0 0.81938,0.72863 0.2955,1.02888 -0.563,0.31987 -1.15675,0.626 -1.72912,0.935" />
    <path
       inkscape:connector-curvature="0"
       id="path44"
       style="fill:#f7c493;fill-opacity:1;fill-rule:nonzero;stroke:none"
       d="m 173.9271,633.50116 c -0.44187,0 -0.834,-0.545 -0.42575,-0.92288 0.40425,-0.37837 0.84763,-0.67625 1.32075,-0.961 0.0962,-0.0585 0.1915,-0.0839 0.28125,-0.0839 0.482,0 0.80625,0.725 0.29013,1.03663 -0.38475,0.23087 -0.75838,0.46725 -1.08838,0.77587 -0.11825,0.10888 -0.25,0.15525 -0.378,0.15525" />
    <path
       inkscape:connector-curvature="0"
       id="path46"
       style="fill:#f7c493;fill-opacity:1;fill-rule:nonzero;stroke:none"
       d="m 182.7181,628.95866 c -0.61325,0 -0.84762,-0.95513 -0.18212,-1.0825 1.19287,-0.22363 2.37212,-0.50638 3.59325,-0.50638 5e-4,0 5e-4,0 0.001,0 0.712,0 0.72662,1.10988 0.009,1.11138 -1.123,8.7e-4 -2.20888,0.25975 -3.30513,0.46625 -0.04,0.007 -0.0786,0.0113 -0.11625,0.0113" />
    <path
       inkscape:connector-curvature="0"
       id="path48"
       style="fill:#d2a0b4;fill-opacity:1;fill-rule:nonzero;stroke:none"
       d="m 195.06048,662.36241 0,-0.004 c 5e-4,10e-4 8.7e-4,10e-4 10e-4,0.002 l -10e-4,10e-4 m -0.191,-0.19625 c -0.14888,-0.1465 -0.292,-0.289 -0.4335,-0.435 0.1425,0.1435 0.2875,0.2875 0.4335,0.435" />
    <path
       inkscape:connector-curvature="0"
       id="path50"
       style="fill:#f7c493;fill-opacity:1;fill-rule:nonzero;stroke:none"
       d="m 195.06185,662.36103 c -5e-4,-0.002 -8.7e-4,-0.002 -0.001,-0.003 l 0,-0.007 c -0.065,-0.0625 -0.1285,-0.12412 -0.191,-0.18512 -0.146,-0.1475 -0.291,-0.2915 -0.4335,-0.435 -0.0504,-0.0514 -0.10062,-0.104 -0.1505,-0.15625 l -0.0121,-0.0127 c -0.001,-10e-4 -0.002,-0.002 -0.003,-0.004 0.27888,-0.51225 0.47025,-1.0235 0.55038,-1.606 0.0371,-0.2885 0.23775,-0.41263 0.4565,-0.41263 0.32075,0 0.68012,0.26763 0.62112,0.68363 -0.10112,0.69775 -0.35837,1.3365 -0.69387,1.95262 l -0.14213,0.18513" />
    <path
       inkscape:connector-curvature="0"
       id="path52"
       style="fill:#73c82c;fill-opacity:1;fill-rule:nonzero;stroke:none"
       d="m 154.7616,615.59003 c 1.03325,0.0523 2.03813,0.002 3.0615,-0.0767 -0.1445,0.96788 0.0615,2.25888 0.4405,2.55038 0.80313,0.58737 1.71425,1.0425 2.68988,1.3725 -0.46238,1.07375 -0.23438,3.52587 0.607,3.14112 0.51212,-0.23725 2.15137,-1.04875 3.92862,-1.7675 -0.16112,0.94138 -0.21675,2.3725 0.583,2.46475 1.05713,0.124 2.05225,-0.0595 3.05525,-0.3135 0.0948,0.3575 0.25138,0.58988 0.52638,0.52988 l 1.03712,-0.22613 c 0.6845,0.59138 1.35638,1.19138 2.038,1.78275 l 0.0768,0.21238 0.144,-0.0166 0.15038,0.13387 c 0.48975,0.415 1.02875,0.9375 1.623,1.32275 1.35937,-1.04012 2.97662,-1.88875 4.53175,-2.37412 -1.27688,-2.27338 -1.46925,-4.91988 -1.57025,-7.53613 0.88712,-0.30612 1.82512,-0.73237 2.51175,-1.28125 0.477,-0.39012 0.28262,-0.82462 0.008,-1.28362 1.06887,-0.55375 1.78175,-1.291 0.96137,-2.71725 -0.1665,-0.27788 -0.42625,-0.76425 -0.7885,-0.8565 0.71,-0.82375 1.1645,-1.7685 0.98675,-2.83638 -0.11712,-0.72225 -1.38612,-0.84375 -2.22162,-0.7735 l 0.062,-0.29787 c 0.0489,-0.44088 -0.48675,-0.63863 -1.085,-0.71338 1.3375,-1.71525 2.53375,-3.5215 3.09237,-5.66987 0.25438,-1.01513 -2.99562,-0.794 -3.44825,-0.45263 -0.2955,0.23 -0.57475,0.44875 -0.86237,0.68988 0.0806,-0.32375 0.13237,-0.6665 0.17537,-1.00238 0.13475,-1.09862 -3.13625,-0.87987 -3.62262,-0.27887 -0.38675,0.47612 -0.79838,0.94487 -1.19775,1.42625 -0.0761,-0.12638 -0.17875,-0.23775 -0.31688,-0.32613 -0.25537,-0.14162 -0.854,-0.21387 -1.39262,-0.30375 0.046,-0.96287 0.1915,-1.92862 0.39262,-2.86275 0.10938,-0.271 0.2105,-0.53862 0.293,-0.8325 0.0498,-0.20212 0.0971,-0.47125 0.11713,-0.72612 0.0361,-0.14113 0.064,-0.29638 0.11187,-0.44475 0.0341,-0.0889 -0.043,-0.13138 -0.16312,-0.129 -0.0502,-0.2275 -0.126,-0.44138 -0.31688,-0.58638 -0.59525,-0.50637 -1.5,-0.54887 -2.32662,-0.48637 -0.20075,-1.70988 -0.40488,-3.435 -0.52588,-5.15863 -0.088,-1.27487 -3.15775,0.63625 -3.0655,1.90775 0.0576,0.76113 0.146,1.5385 0.23638,2.29488 -0.40338,-0.75875 -0.833,-1.50488 -1.34725,-2.21488 -0.77388,-1.08887 -3.09863,1.1685 -2.94963,2.13388 0.0776,0.50487 0.207,0.9785 0.33738,1.4545 -1.1045,-0.375 -2.43463,-0.146 -3.21875,0.82525 -0.24125,0.31887 -0.42188,0.65137 -0.55275,1.00487 -0.46238,0.0889 -0.88225,0.289 -1.00388,0.69138 -0.33062,1.11137 0.49313,2.17137 1.50775,2.51275 l 0.0425,0.0425 0.2285,0.17325 c -0.67375,0.2315 -1.31737,0.774 -1.42525,1.459 -0.12987,0.78762 -0.14937,1.55862 0.2295,2.27887 0.0948,0.1875 0.2095,0.37738 0.32275,0.56738 -0.51612,0.69137 -0.77925,1.5215 -0.61475,2.28612 l -0.32175,0.1225 c -0.47225,0.25 -2.88575,2.61375 -1.11425,2.60263 0.43113,0.001 0.86125,-0.0312 1.28463,-0.044 -0.1455,0.19137 -0.26663,0.4175 -0.32075,0.67525 -0.15188,0.60887 -0.25488,1.36137 -0.2525,2.086 -0.41938,0.0439 -0.84225,0.0913 -1.26413,0.13525 -1.03712,0.14012 -1.11962,3.66012 -0.105,3.709" />
    <path
       inkscape:connector-curvature="0"
       id="path54"
       style="fill:#953154;fill-opacity:1;fill-rule:nonzero;stroke:none"
       d="m 154.88123,611.87853 0.004,-0.004 c 0.0704,-0.009 0.13962,-0.0161 0.2085,-0.0234 0.14312,-0.0153 0.28612,-0.0312 0.42975,-0.0465 0.15625,-0.016 0.313,-0.0326 0.47162,-0.0512 0.0454,-0.005 0.0909,-0.0103 0.13575,-0.0136 0,10e-4 0,0.003 0,0.006 -0.4145,0.0439 -0.8325,0.0913 -1.2495,0.13275 m 1.88813,-5.5425 0.086,-0.0351 c 0,0.002 0,0.002 0,0.003 l -0.086,0.0326 m 0.19787,-9.8325 c 0.17188,-0.105 0.38225,-0.17375 0.6035,-0.21625 -0.001,10e-4 -0.001,0.002 -0.002,0.005 -0.21875,0.0425 -0.42825,0.10888 -0.601,0.21138 m 1.89588,-1.84513 c 0.4425,-0.2525 0.94925,-0.37362 1.45712,-0.37362 0.34425,0 0.68938,0.0553 1.01563,0.16262 0.001,0.005 0.002,0.01 0.004,0.0146 -0.3315,-0.11225 -0.68363,-0.17088 -1.03463,-0.17088 -0.5025,0 -1.003,0.11863 -1.442,0.36725" />
    <path
       inkscape:connector-curvature="0"
       id="path56"
       style="fill:#68ba30;fill-opacity:1;fill-rule:nonzero;stroke:none"
       d="m 167.43398,618.77603 c -0.002,0 -0.003,0 -0.005,0 -1.32525,-10e-4 -2.16113,-0.51025 -2.753,-1.1065 l -0.002,-0.0321 -0.0249,0.0151 c -0.37363,0.15475 -0.76225,0.28363 -1.1885,0.34963 -0.0191,0.004 -0.0381,0.006 -0.0566,0.0103 -0.26275,0.0424 -0.53663,0.0659 -0.8135,0.0659 -5e-4,0 -0.001,0 -0.002,0 -0.002,0 -0.004,0 -0.006,0 -1.02775,-10e-4 -2.09025,-0.32075 -2.71825,-1.126 -5e-4,-10e-4 -0.001,-10e-4 -0.001,-0.002 -0.004,-0.005 -0.007,-0.0103 -0.0112,-0.0151 -0.006,-0.007 -0.0118,-0.0152 -0.0176,-0.0225 l 0,0 c -0.101,-0.145 -0.17675,-0.32525 -0.21438,-0.50638 l -0.0224,-0.007 c -0.7325,-0.21375 -1.24662,-0.40762 -1.774,-0.80025 l 0.0127,-0.0923 -0.11037,0.009 -0.002,-0.002 -0.0121,0 c -0.15675,0.0121 -0.3135,0.0234 -0.46975,0.0336 -0.54,0.0337 -1.07913,0.0561 -1.61913,0.0561 -0.28225,0 -0.565,-0.006 -0.84812,-0.02 -0.6675,-0.0322 -0.85988,-1.57225 -0.61625,-2.65862 0.005,-0.021 0.0103,-0.041 0.0156,-0.0611 0.13725,-0.52538 0.36225,-0.9375 0.69975,-0.975 l 0.008,-0.009 c 0.417,-0.0415 0.835,-0.0889 1.2495,-0.13275 0,-0.002 0,-0.005 0,-0.006 0.005,-10e-4 0.0102,-10e-4 0.0151,-0.002 -0.002,-0.27538 0.0127,-0.55663 0.0386,-0.83 0.008,-0.0664 0.0166,-0.12988 0.0259,-0.19538 l 0.0126,-0.13712 c 0.001,-0.0127 0.003,-0.025 0.004,-0.0376 0.0434,-0.314 0.1015,-0.61375 0.16987,-0.88625 l 0,0 5e-4,-0.002 c 10e-4,-0.003 10e-4,-0.007 0.002,-0.0121 0.0181,-0.0865 0.045,-0.169 0.0772,-0.24913 0.019,-0.0449 0.04,-0.0884 0.061,-0.13075 0.004,-0.008 0.008,-0.0166 0.0121,-0.024 l 0.1475,-0.22112 0.0122,-0.025 c -5e-4,0 -0.001,0 -0.001,0 0.002,-0.003 0.005,-0.006 0.007,-0.0103 -0.416,0.0127 -0.837,0.044 -1.26025,0.044 -0.008,0 -0.0161,0 -0.0245,0 -0.004,0 -0.008,0.001 -0.0121,0.001 -1.0005,0 -0.64212,-0.77 -0.0635,-1.47613 0.0581,-0.0697 0.11813,-0.14012 0.17963,-0.209 l 0.15,-0.16212 0.15037,-0.15038 0.14938,-0.14987 c 0.23775,-0.22513 0.45025,-0.38725 0.563,-0.44975 l 0.22112,-0.0889 0.086,-0.0326 c 0,-0.001 0,-0.001 0,-0.003 l 0.005,-10e-4 -5e-4,-10e-4 0.008,-0.003 c -0.13037,-0.60988 0.008,-1.25875 0.33163,-1.84763 l 0.0102,-0.01 c 0.0171,-0.0351 0.0351,-0.0689 0.0538,-0.10262 0.0669,-0.11125 0.13962,-0.22113 0.21875,-0.32613 -0.11388,-0.18987 -0.22813,-0.38037 -0.32325,-0.56637 -0.3785,-0.72125 -0.3585,-1.49363 -0.22663,-2.28275 0.003,-0.0195 0.007,-0.041 0.0112,-0.0625 l 0.0538,-0.186 c 0.21238,-0.5625 0.76263,-1 1.35,-1.20025 l -0.004,-0.003 c 0.004,-10e-4 0.007,-0.002 0.0108,-0.004 l -0.22362,-0.17625 -0.0454,-0.0401 c -0.13675,-0.0449 -0.2695,-0.1035 -0.397,-0.17475 -0.0835,-0.0489 -0.166,-0.10013 -0.24513,-0.15388 -0.68162,-0.48625 -1.12012,-1.3125 -0.86912,-2.17237 l 0.0112,-0.0126 0.0126,-0.0361 -0.0126,0.0121 c 0.0659,-0.19475 0.20362,-0.33975 0.38187,-0.44725 0.17275,-0.1025 0.38225,-0.16887 0.601,-0.21137 0.001,-0.003 0.001,-0.003 0.002,-0.005 0.003,-10e-4 0.007,-10e-4 0.0102,-0.002 0.13225,-0.355 0.313,-0.6875 0.55225,-1.00488 0.209,-0.25875 0.4575,-0.46525 0.72988,-0.6215 0.439,-0.24862 0.9395,-0.36725 1.442,-0.36725 0.351,0 0.70312,0.0586 1.03462,0.17088 -0.002,-0.005 -0.003,-0.01 -0.004,-0.0146 0.006,0.003 0.0121,0.005 0.0185,0.006 -0.13225,-0.47612 -0.26175,-0.94875 -0.34025,-1.45362 -0.0161,-0.11138 -0.004,-0.23725 0.0424,-0.39013 0.92825,1.25775 0.96488,2.8765 0.55913,4.415 1.92237,2.37013 3.55475,5.12163 1.77,7.58888 -0.4785,0.66512 -1.06438,1.15775 -1.69188,1.55037 0.25738,0.86375 0.36038,1.75338 0.23925,2.58488 0.5815,0.22125 0.98338,0.72225 0.99413,1.5435 l 0.0137,0.0801 0.0146,0.0239 0.0864,0.0874 c 0.13237,0.0723 0.32662,0.16112 0.271,0.16112 -0.0205,0 -0.0756,-0.0121 -0.18113,-0.0425 0.18988,0.0601 0.36088,0.11288 0.52338,0.18663 l 0.18025,0.0971 0.25975,0.17287 0.3965,0.23 c 0.23387,0.101 0.47112,0.0971 0.705,0.11075 0.0845,0.008 0.1705,0.0113 0.25687,0.0113 0.24813,0 0.501,-0.0274 0.7495,-0.061 l 0.0845,0 c 0.17525,-0.17387 0.33688,-0.33987 0.52388,-0.48637 0.295,-0.21725 0.76125,-0.47113 1.17237,-0.47113 0.272,0 0.51963,0.11125 0.67675,0.416 0.6895,1.38038 0.5235,2.77638 0.66463,4.24513 0.0264,0.36525 0.001,0.7265 -0.0571,1.08637 0.1225,0.20513 0.25637,0.39988 0.37787,0.6025 0.16313,0.21488 0.32525,0.42638 0.53375,0.63 0.50238,0.49363 1.01613,0.77238 1.34713,1.351 l 0,0 c -0.0112,-0.005 -0.022,-0.01 -0.0332,-0.0146 -0.36863,-0.16012 -0.75538,-0.21637 -1.16063,-0.21637 -10e-4,0 -0.002,0 -0.003,0 l 0,0 c -0.002,0 -0.004,0 -0.006,0 -0.46287,0 -0.95012,0.0738 -1.4595,0.146 -0.32275,0.0465 -0.65475,0.0929 -0.996,0.12162 -0.009,0 -0.0186,10e-4 -0.0279,10e-4 -0.009,0.001 -0.0176,0.001 -0.0264,0.002 -10e-4,0 -10e-4,0 -0.002,0 -0.12987,0.009 -0.25587,0.0127 -0.37787,0.0127 l 0,0" />
    <path
       inkscape:connector-curvature="0"
       id="path58"
       style="fill:#de721f;fill-opacity:1;fill-rule:nonzero;stroke:none"
       d="m 174.73373,626.69203 -5e-4,0 c 0.63975,-0.48875 1.3365,-0.9345 2.05675,-1.32075 0.003,0.005 0.006,0.01 0.009,0.0146 -0.73,0.36863 -1.42238,0.81888 -2.065,1.30613" />
    <path
       inkscape:connector-curvature="0"
       id="path60"
       style="fill:#63b131;fill-opacity:1;fill-rule:nonzero;stroke:none"
       d="m 174.73323,626.69203 c -0.26513,-0.17237 -0.5195,-0.37112 -0.76363,-0.57612 -0.165,-0.14113 -0.32612,-0.28225 -0.48387,-0.42 -0.12788,-0.11225 -0.2525,-0.22263 -0.374,-0.32463 l -0.149,-0.13525 -0.1455,0.0161 -0.0751,-0.2125 c -0.67725,-0.58637 -1.34275,-1.18112 -2.01913,-1.76612 -0.004,-0.004 -0.008,-0.008 -0.0121,-0.0111 l -5e-4,0 c -0.002,-0.002 -0.004,-0.004 -0.006,-0.005 l -1.0395,0.226 c -0.003,0 -0.006,10e-4 -0.009,10e-4 l -0.2045,-0.0215 c -0.002,-0.003 -0.006,-0.004 -0.009,-0.005 l -0.11475,-0.0937 c -0.0815,-0.0963 -0.142,-0.24025 -0.1875,-0.41263 -0.78362,0.19875 -1.561,0.355 -2.36662,0.355 -0.22763,0 -0.45763,-0.0127 -0.6905,-0.04 -0.79838,-0.0924 -0.74025,-1.52637 -0.581,-2.46637 -1.77938,0.72025 -3.4165,1.53125 -3.92975,1.76912 -0.06,0.0272 -0.11713,0.041 -0.17088,0.041 -0.53075,0 -0.75437,-1.26512 -0.64212,-2.30862 0.0245,-0.20513 0.0616,-0.40138 0.11337,-0.57763 l 0.0805,-0.26375 c 0.004,-0.0111 0.008,-0.0214 0.0128,-0.0312 -0.6055,-0.2065 -1.187,-0.45887 -1.733,-0.76262 -0.10887,-0.061 -0.21625,-0.126 -0.32275,-0.19238 l -0.008,0 c -0.21487,-0.13137 -0.42387,-0.2715 -0.625,-0.419 -0.37012,-0.27587 -0.56887,-1.48237 -0.4575,-2.42962 10e-4,-0.009 0.002,-0.0176 0.003,-0.0264 l -5e-4,0 c 0,0 0,-10e-4 5e-4,-10e-4 l 0,0 c 0.52738,0.39262 1.0415,0.5865 1.774,0.80025 l 0.0224,0.007 c 0.0376,0.18112 0.11338,0.36137 0.21438,0.50637 l 0,0 c 0.006,0.007 0.0118,0.0151 0.0176,0.0225 0.004,0.005 0.007,0.0103 0.0112,0.0151 3.7e-4,8.8e-4 8.7e-4,8.8e-4 0.001,0.002 0.628,0.80525 1.6905,1.125 2.71825,1.126 0.002,0 0.004,0 0.006,0 l 0,0 c 0.001,0 0.002,0 0.002,0 0.27687,0 0.55075,-0.0235 0.8135,-0.0659 0.0185,-0.004 0.0375,-0.006 0.0566,-0.0102 0.42625,-0.066 0.81487,-0.19487 1.1885,-0.34962 l 0.0268,0.017 c 0.59187,0.59625 1.42725,1.105 2.753,1.1065 0.001,0 0.003,0 0.005,0 l 0,0 c 0.122,0 0.2475,-0.004 0.37787,-0.0127 5e-4,0 0.001,0 0.002,0 0.009,-8.8e-4 0.0176,-8.8e-4 0.0264,-0.002 0.009,0 0.0185,-10e-4 0.0279,-10e-4 0.34125,-0.0287 0.67325,-0.0751 0.996,-0.12163 0.50938,-0.0722 0.99663,-0.146 1.4595,-0.146 0.002,0 0.004,0 0.006,0 0.001,0 0.002,0 0.003,0 0.40525,0 0.792,0.0562 1.16063,0.21638 0.0113,0.005 0.022,0.01 0.0333,0.0146 l 0,0 c 0.20462,0.0855 0.39362,0.19537 0.57762,0.35887 2.78125,2.28375 2.62988,2.94538 4.68563,6.28913 -0.72025,0.38625 -1.417,0.832 -2.05675,1.32075" />
    <path
       inkscape:connector-curvature="0"
       id="path62"
       style="fill:#5ca332;fill-opacity:1;fill-rule:nonzero;stroke:none"
       d="m 167.43398,618.77603 c -0.002,0 -0.003,0 -0.005,0 0.001,0 0.003,0 0.005,0 l 0,0 m 0,0 c 0.122,0 0.248,-0.004 0.37787,-0.0127 -0.13037,0.009 -0.25587,0.0127 -0.37787,0.0127 m 0.37987,-0.0127 c 0.009,-8.7e-4 0.0176,-8.7e-4 0.0264,-0.002 -0.009,10e-4 -0.0176,10e-4 -0.0264,0.002 m 3.71288,-0.04 c -0.0112,-0.005 -0.022,-0.01 -0.0332,-0.0146 0.0112,0.005 0.022,0.01 0.0332,0.0146 m -2.66263,-0.085 c 0.50938,-0.0723 0.99663,-0.146 1.4595,-0.146 -0.46287,0 -0.95012,0.0737 -1.4595,0.146 m 1.46875,-0.146 c -0.001,0 -0.002,0 -0.003,0 l 0,0 c 0.001,0 0.002,0 0.003,0 m -7.74462,-0.414 c -0.002,0 -0.004,0 -0.006,0 0.002,0 0.004,0 0.006,0 l 0,0 m 0.002,0 c 0.27687,0 0.55075,-0.0235 0.8135,-0.0659 -0.26275,0.0424 -0.53663,0.0659 -0.8135,0.0659 m -2.72663,-1.126 c -5e-4,-10e-4 -0.001,-10e-4 -0.001,-0.002 3.8e-4,8.8e-4 8.8e-4,8.8e-4 0.001,0.002 m -0.0126,-0.0175 c -0.006,-0.007 -0.0118,-0.0153 -0.0176,-0.0225 0.006,0.007 0.0117,0.0151 0.0176,0.0225" />
    <path
       inkscape:connector-curvature="0"
       id="path64"
       style="fill:#953154;fill-opacity:1;fill-rule:nonzero;stroke:none"
       d="m 157.81235,615.59103 -0.08,-0.0714 c 0.0302,-10e-4 0.0605,-0.003 0.0908,-0.006 -0.004,0.0255 -0.007,0.0514 -0.0108,0.0778" />
    <path
       inkscape:connector-curvature="0"
       id="path66"
       style="fill:#68ba30;fill-opacity:1;fill-rule:nonzero;stroke:none"
       d="m 157.8231,615.59828 -0.007,-0.005 -0.004,-0.002 c 0.004,-0.0264 0.007,-0.0522 0.0108,-0.0777 -0.0302,0.003 -0.0605,0.005 -0.0907,0.006 l -0.007,-0.005 0.11038,-0.009 -0.0128,0.0923 0,0" />
    <path
       inkscape:connector-curvature="0"
       id="path72"
       style="fill:#ce6b1c;fill-opacity:1;fill-rule:nonzero;stroke:none"
       d="m 201.50723,668.27216 c -0.2715,-10e-4 -0.67825,-0.28375 -1.13375,-0.68613 0.455,0.4 0.86275,0.68125 1.13712,0.68125 0.0507,0 0.0967,-0.009 0.13775,-0.0289 l -0.004,0.002 c -0.0405,0.0215 -0.0869,0.0312 -0.13762,0.0312 m -2.51325,-2.0425 c -0.28213,-0.29 -0.55275,-0.56587 -0.79288,-0.79487 -1.01075,-0.96488 -2.08212,-2.02988 -3.13675,-3.07238 l 0.008,0 c 1.05088,1.03713 2.1255,2.11238 3.13775,3.07475 0.23675,0.229 0.50388,0.50388 0.78363,0.7925 m -4.72413,-4.66987 c -1.27875,-1.32375 -2.46337,-2.58113 -3.32862,-3.565 -0.0879,-0.0986 -0.17525,-0.19775 -0.26113,-0.29488 0.0879,0.0986 0.17725,0.19863 0.268,0.29975 0.86188,0.97513 2.04838,2.23488 3.32175,3.55863 l 0,0.002 m -4.2455,-4.605 c -0.1065,-0.12013 -0.213,-0.23875 -0.31937,-0.3565 0.001,0 0.002,-10e-4 0.002,-10e-4 0.001,0 0.002,10e-4 0.003,0.002 0.1045,0.11762 0.209,0.23625 0.314,0.355 m -1.82863,-2.09375 c 0,0 0,-10e-4 -5e-4,-10e-4 -0.649,-0.76225 -1.26762,-1.48238 -1.87937,-2.18363 l 3.7e-4,-10e-4 0.006,0 c 0.61238,0.69875 1.22413,1.42338 1.87363,2.18613 -5e-4,0 -5e-4,0 -5e-4,0 m -6.8775,-8.0835 c -1.31488,-1.5665 -2.69725,-3.22175 -4.28463,-5.11138 -0.71487,-0.84912 -1.36325,-1.66987 -1.95362,-2.45262 l 0.004,-0.004 c 5e-4,10e-4 0.001,10e-4 0.001,0.002 0.58687,0.78762 1.23675,1.60012 1.94962,2.45025 1.588,1.89112 2.96925,3.54737 4.28275,5.11525 m -6.88725,-8.47025 c 0,-10e-4 -3.7e-4,-10e-4 -3.7e-4,-10e-4 -1.28525,-1.80125 -2.254,-3.501 -2.98788,-5.2685 -0.8545,-2.02888 0.81888,-4.4815 3.28025,-6.33738 l 0,0 c -2.46287,1.86225 -4.1245,4.3125 -3.27537,6.33738 0.73737,1.77387 1.69775,3.459 2.98387,5.2685 -5e-4,0 -5e-4,0 -5e-4,10e-4" />
    <path
       inkscape:connector-curvature="0"
       id="path74"
       style="fill:#a88291;fill-opacity:1;fill-rule:nonzero;stroke:none"
       d="m 175.0761,639.21603 c -0.22275,-0.315 -0.45125,-0.60987 -0.647,-0.90775 5e-4,0 0.001,-10e-4 0.002,-10e-4 0.007,0.01 0.0147,0.0215 0.022,0.0327 0.11863,0.186 0.25588,0.36863 0.397,0.55463 0.0761,0.104 0.15288,0.209 0.229,0.31737 0,0 5e-4,0 10e-4,10e-4 l -0.004,0.003" />
    <path
       inkscape:connector-curvature="0"
       id="path76"
       style="fill:#c79f78;fill-opacity:1;fill-rule:nonzero;stroke:none"
       d="m 175.07998,639.21353 c -5e-4,-10e-4 -0.001,-10e-4 -0.001,-10e-4 -0.0761,-0.10837 -0.15288,-0.21337 -0.229,-0.31737 0.0781,0.104 0.15675,0.2075 0.23437,0.315 l -0.004,0.004 m -0.627,-0.8735 c -0.007,-0.0113 -0.0146,-0.023 -0.022,-0.0327 0,-0.002 0,-0.002 5e-4,-0.002 0.001,0.003 0.002,0.004 0.004,0.006 0.006,0.009 0.0116,0.019 0.0175,0.0279" />
    <path
       inkscape:connector-curvature="0"
       id="path78"
       style="fill:#a88291;fill-opacity:1;fill-rule:nonzero;stroke:none"
       d="m 188.9716,655.76091 c -0.26912,-0.30475 -0.51962,-0.6035 -0.77737,-0.8975 5e-4,-0.001 0.001,-0.001 0.001,-0.002 0.004,0.005 0.009,0.009 0.0126,0.0136 0.25837,0.29487 0.50487,0.57862 0.76325,0.88625 l 0,0" />
    <path
       inkscape:connector-curvature="0"
       id="path80"
       style="fill:#c79f78;fill-opacity:1;fill-rule:nonzero;stroke:none"
       d="m 188.20835,654.87466 c -0.004,-0.005 -0.008,-0.009 -0.0126,-0.0136 0,0 0,0 5e-4,0 3.8e-4,0 8.8e-4,0.001 0.001,0.001 0.004,0.005 0.007,0.008 0.0108,0.0122" />
    <path
       inkscape:connector-curvature="0"
       id="path82"
       style="fill:#a88291;fill-opacity:1;fill-rule:nonzero;stroke:none"
       d="m 188.75473,655.94503 0.17875,-0.15625 -0.17875,0.15625 m 0.17875,-0.15625 0,0 0.0128,-0.0113 -0.0128,0.0113" />
    <path
       inkscape:connector-curvature="0"
       id="path84"
       style="fill:#a88291;fill-opacity:1;fill-rule:nonzero;stroke:none"
       d="m 189.7011,656.60216 c -0.23887,-0.2875 -0.4795,-0.57225 -0.72612,-0.83738 0.19187,0.20125 0.376,0.4175 0.5645,0.63625 0.0546,0.0664 0.10937,0.13138 0.164,0.19625 5e-4,0 10e-4,0.001 10e-4,0.001 -10e-4,10e-4 -0.002,0.003 -0.004,0.004 m -0.72863,-0.83975 c -3.7e-4,-10e-4 -3.7e-4,-10e-4 -8.7e-4,-10e-4 l 0,0 c 5e-4,0 5e-4,0 8.7e-4,10e-4" />
    <path
       inkscape:connector-curvature="0"
       id="path86"
       style="fill:#c79f78;fill-opacity:1;fill-rule:nonzero;stroke:none"
       d="m 189.70498,656.59828 c -5e-4,0 -0.001,-0.001 -0.001,-0.001 -0.0546,-0.0649 -0.10938,-0.12987 -0.164,-0.19625 0.0556,0.065 0.11125,0.13138 0.16787,0.19625 -5e-4,0 -0.001,0.001 -0.002,0.001" />
    <path
       inkscape:connector-curvature="0"
       id="path88"
       style="fill:#a88291;fill-opacity:1;fill-rule:nonzero;stroke:none"
       d="m 188.75473,655.94503 0.17875,-0.15625 -0.17875,0.15625 m 0.17875,-0.15625 0,0 0.0128,-0.0113 -0.0128,0.0113" />
    <path
       inkscape:connector-curvature="0"
       id="path90"
       style="fill:#a88291;fill-opacity:1;fill-rule:nonzero;stroke:none"
       d="m 186.31185,652.67741 -0.71575,-0.84763 c 0.001,-0.002 0.003,-0.003 0.004,-0.003 l 0.71,0.84763 0.005,0 c 0,0 0,0.001 5e-4,0.001 -10e-4,0 -0.003,10e-4 -0.004,10e-4" />
    <path
       inkscape:connector-curvature="0"
       id="path92"
       style="fill:#c79f78;fill-opacity:1;fill-rule:nonzero;stroke:none"
       d="m 186.31585,652.67591 c -5e-4,0 -5e-4,-0.001 -5e-4,-0.001 l 8.8e-4,0 -3.8e-4,0.001" />
    <path
       inkscape:connector-curvature="0"
       id="path94"
       style="fill:#a88291;fill-opacity:1;fill-rule:nonzero;stroke:none"
       d="m 195.05948,662.36341 c -0.26863,-0.2685 -0.52638,-0.52875 -0.78375,-0.78613 l -0.009,-0.0126 c 0.001,-0.003 0.002,-0.004 0.003,-0.005 0,0 5e-4,0 10e-4,0.001 l 0.007,0.0113 c 0.0522,0.0538 0.105,0.106 0.15775,0.15875 0.1415,0.146 0.28462,0.2885 0.4335,0.435 0.0635,0.0635 0.127,0.1275 0.191,0.19238 l 0,0.004 -0.001,10e-4" />
    <path
       inkscape:connector-curvature="0"
       id="path96"
       style="fill:#c79f78;fill-opacity:1;fill-rule:nonzero;stroke:none"
       d="m 195.06048,662.35853 c -0.064,-0.0649 -0.1275,-0.12887 -0.191,-0.19237 0.0625,0.061 0.126,0.12262 0.191,0.18512 l 0,0.007 m -0.6245,-0.62737 c -0.0528,-0.0527 -0.1055,-0.105 -0.15775,-0.15875 l -0.007,-0.0113 c -5e-4,-0.001 -0.001,-0.001 -0.001,-0.001 l 0,-10e-4 c 0.001,10e-4 0.002,0.003 0.003,0.004 l 0.0121,0.0127 c 0.0499,0.0523 0.10012,0.10487 0.1505,0.15625" />
    <path
       inkscape:connector-curvature="0"
       id="path98"
       style="fill:#5da532;fill-opacity:1;fill-rule:nonzero;stroke:none"
       d="m 174.72298,626.69991 c -0.59425,-0.38525 -1.13325,-0.90775 -1.623,-1.32275 l -0.15038,-0.13388 -0.0141,10e-4 0.0249,-0.007 0.15038,0.13875 c 0.123,0.101 0.248,0.2085 0.375,0.31975 0.15675,0.13775 0.31787,0.28038 0.48387,0.42 0.24075,0.20413 0.49075,0.40525 0.75338,0.584 m -1.91738,-1.44 -0.0768,-0.21237 c -0.12687,-0.11038 -0.25337,-0.22175 -0.38037,-0.3315 0.1285,0.11125 0.25737,0.22262 0.38725,0.33387 l 0.0743,0.2085 -0.004,10e-4 m -0.93213,-0.96137 c -0.39212,-0.34475 -0.78475,-0.69 -1.18075,-1.03275 l 0.0176,-0.003 c 0.004,0.003 0.008,0.007 0.0126,0.0111 0.39063,0.34875 0.76963,0.6885 1.1505,1.025 m -2.30425,-0.79888 c -0.22262,0 -0.3565,-0.21875 -0.44087,-0.53612 0.002,0 0.004,-10e-4 0.007,-10e-4 0.0381,0.17537 0.10012,0.3125 0.17537,0.38775 l 0.0175,0.0151 c 0.0343,0.04 0.0728,0.0722 0.11475,0.0937 l 0.005,0.003 0.004,10e-4 c 0.0405,0.0185 0.0844,0.0288 0.13225,0.0288 0.0235,0 0.0474,-0.002 0.0722,-0.007 l 0.0151,0.002 -0.0175,0.004 c -0.0299,0.006 -0.0576,0.009 -0.0845,0.009 m -3.32225,-0.2075 c -0.0581,-0.005 -0.11675,-0.0113 -0.17487,-0.0176 -0.007,-10e-4 -0.0146,-0.002 -0.0215,-0.002 0.007,0 0.0148,10e-4 0.0225,0.002 0.0581,0.006 0.11625,0.0127 0.17387,0.0176 m -0.59525,-0.26463 c -0.34762,-0.46637 -0.28762,-1.483 -0.164,-2.2115 0.003,-10e-4 0.007,-0.002 0.0102,-0.004 -0.1255,0.72363 -0.1915,1.74763 0.15375,2.21538 m -4.26262,-0.40925 c -0.69925,0 -0.86525,-2.186 -0.43563,-3.18213 -0.97562,-0.33 -1.88675,-0.78512 -2.68987,-1.3725 -0.36875,-0.28275 -0.57425,-1.51375 -0.45175,-2.47262 l 0.004,0.002 0.006,0.006 c -0.001,0.009 -0.002,0.0175 -0.003,0.0264 -0.11813,0.9575 0.0815,2.1635 0.45312,2.436 0.20013,0.14987 0.41263,0.28762 0.625,0.41262 l 0.004,0 c 0.10888,0.0664 0.21925,0.13138 0.331,0.19238 0.545,0.31 1.12313,0.5625 1.72713,0.7715 l -0.007,0.0224 c -0.0956,0.2325 -0.15963,0.52737 -0.19388,0.84137 -0.0981,0.83888 0.0294,1.81888 0.35063,2.15963 0.0855,0.0937 0.18312,0.15387 0.29587,0.15387 0.0151,0 0.0302,-0.001 0.0459,-0.004 -0.0214,0.004 -0.0424,0.006 -0.0629,0.006 m 0.36713,-0.13375 0.20412,-0.0971 c 0.021,-0.0103 0.0425,-0.0201 0.064,-0.0304 -0.10012,0.0479 -0.1895,0.0904 -0.26812,0.1275 m -6.11763,-6.87212 c -0.29112,0 -0.583,-0.008 -0.877,-0.0224 -0.294,-0.0143 -0.49562,-0.31888 -0.60887,-0.749 0.0689,0.25625 0.17137,0.46775 0.30762,0.59612 0.0874,0.0874 0.1875,0.14988 0.3125,0.14988 0.27588,0.0151 0.55025,0.02 0.82425,0.02 0.55025,0 1.09713,-0.0234 1.644,-0.061 0.15375,-0.009 0.30813,-0.02 0.46238,-0.0298 l 0.022,-10e-4 -0.022,10e-4 0.009,0.006 c -0.69425,0.0527 -1.38038,0.0902 -2.07363,0.0902 m -1.58987,-1.48775 c -0.045,-0.90138 0.17725,-1.92963 0.64787,-2.1875 -0.25537,0.14887 -0.436,0.52637 -0.539,0.98637 -0.0904,0.371 -0.1275,0.79875 -0.10887,1.20113 m 2.082,-2.38625 c -0.002,-0.72263 0.10112,-1.47113 0.2525,-2.07863 0.0541,-0.25625 0.17425,-0.48237 0.31875,-0.67237 0.002,0 0.005,0 0.007,0 -0.0571,0.0762 -0.11088,0.15875 -0.15825,0.24612 l -0.002,0.004 c -0.003,0.007 -0.007,0.0137 -0.01,0.0201 -0.0225,0.0424 -0.0425,0.0859 -0.061,0.13075 -0.0333,0.0791 -0.0616,0.16163 -0.0773,0.24913 -8.8e-4,0.005 -0.002,0.009 -0.003,0.0136 l -0.0118,0.0113 c -0.0605,0.26512 -0.12063,0.564 -0.15813,0.875 -0.0166,0.12112 -0.0309,0.24512 -0.043,0.37012 -0.0327,0.27638 -0.0494,0.55613 -0.0494,0.83 -0.001,0 -0.002,0.001 -0.004,0.001 m -0.72362,-2.70987 c -1.7265,0 0.59625,-2.295 1.10787,-2.59238 -0.22312,0.13625 -0.747,0.6075 -1.15912,1.10988 -0.45213,0.54737 -0.77588,1.13375 -0.43263,1.36775 0.0996,0.0736 0.26275,0.11075 0.51225,0.11075 l 0.0126,0 c 0.22313,0 0.44625,-0.006 0.6675,-0.0146 -0.22312,0.01 -0.44725,0.0186 -0.67187,0.0186 -0.008,0 -0.0161,0 -0.0244,0 -0.004,0 -0.008,0 -0.0122,0 m 1.44775,-2.72763 c -0.16213,-0.75637 0.0942,-1.57612 0.59962,-2.26212 -0.0699,0.0971 -0.13325,0.19475 -0.19037,0.29725 -0.022,0.0376 -0.0435,0.0747 -0.064,0.11237 l -0.002,10e-4 c -0.32463,0.58738 -0.46238,1.23725 -0.33788,1.84863 l -0.005,0.002 m 0.61525,-2.28513 c -0.11325,-0.1885 -0.228,-0.37837 -0.32275,-0.56587 -0.37887,-0.72025 -0.35937,-1.49125 -0.2295,-2.27888 0.0801,-0.50637 0.45213,-0.935 0.91263,-1.21775 -0.43563,0.2715 -0.78913,0.67288 -0.88625,1.145 l -0.0215,0.0766 c -0.0996,0.66213 -0.13725,1.3125 0.0879,1.9375 l 0,0.0123 c 0.0371,0.10013 0.0753,0.21238 0.13725,0.32525 0.10012,0.1875 0.21237,0.375 0.32562,0.5625 -0.001,8.8e-4 -0.002,0.002 -0.003,0.003 m 0.87013,-4.30612 -0.22563,-0.17088 -0.0297,-0.0304 0.0386,0.0304 0.1245,0.0859 0.0956,0.084 c -10e-4,10e-4 -0.002,10e-4 -0.003,10e-4 m -0.29487,-0.22225 c -1.002,-0.3515 -1.80863,-1.40275 -1.481,-2.50387 0.002,-0.006 0.003,-0.0113 0.005,-0.0175 l 0.0156,-0.0152 c -0.003,0.008 -0.005,0.0166 -0.008,0.0255 -8.8e-4,0.003 -0.002,0.007 -0.003,0.0111 l -0.001,0.001 c -0.23775,0.76125 0.0869,1.499 0.63725,1.98638 0.0713,0.0664 0.15037,0.12737 0.23287,0.185 0.0786,0.0562 0.16063,0.1075 0.24513,0.15387 0.0284,0.0161 0.0561,0.0322 0.0845,0.0488 l 0.2725,0.125" />
    <path
       inkscape:connector-curvature="0"
       id="path100"
       style="fill:#549632;fill-opacity:1;fill-rule:nonzero;stroke:none"
       d="m 157.2411,615.54603 c 0.15625,-0.0102 0.313,-0.0215 0.46975,-0.0336 l 0.0121,0 0.002,0.002 -0.022,0.001 c -0.15425,0.01 -0.30862,0.021 -0.46237,0.0298" />
    <path
       inkscape:connector-curvature="0"
       id="path102"
       style="fill:#782943;fill-opacity:1;fill-rule:nonzero;stroke:none"
       d="m 154.6966,611.93716 c 0.0571,-0.0336 0.11825,-0.0546 0.18313,-0.0635 0.0714,-0.008 0.14262,-0.0151 0.21387,-0.0224 -0.0689,0.007 -0.13812,0.0146 -0.2085,0.0234 l -0.004,0.004 c -0.005,10e-4 -0.01,10e-4 -0.0146,0.003 -0.0601,0.007 -0.11675,0.0274 -0.17,0.0561" />
    <path
       inkscape:connector-curvature="0"
       id="path104"
       style="fill:#549632;fill-opacity:1;fill-rule:nonzero;stroke:none"
       d="m 154.1576,612.92353 c 0.103,-0.46 0.28363,-0.8375 0.539,-0.98637 0.0533,-0.0287 0.10988,-0.0489 0.17,-0.0561 0.005,-0.001 0.01,-0.001 0.0146,-0.003 l -0.008,0.009 c -0.3375,0.0375 -0.5625,0.44962 -0.69975,0.975 -0.005,0.0201 -0.0103,0.0401 -0.0156,0.0611" />
    <path
       inkscape:connector-curvature="0"
       id="path106"
       style="fill:#782943;fill-opacity:1;fill-rule:nonzero;stroke:none"
       d="m 155.52335,611.80478 c 0.15725,-0.0175 0.31438,-0.0336 0.47163,-0.0513 -0.15863,0.0186 -0.31538,0.0353 -0.47163,0.0513" />
    <path
       inkscape:connector-curvature="0"
       id="path108"
       style="fill:#549632;fill-opacity:1;fill-rule:nonzero;stroke:none"
       d="m 156.18448,610.90741 c 0.0121,-0.125 0.0264,-0.249 0.043,-0.37013 -0.002,0.0126 -0.003,0.0249 -0.005,0.0376 l -0.0126,0.13713 c -0.009,0.0655 -0.0181,0.129 -0.0259,0.19537 m 0.21287,-1.25637 c 0.001,-0.005 0.002,-0.009 0.003,-0.0136 -8.7e-4,0.005 -10e-4,0.009 -0.002,0.0121 l -5e-4,0.001 m 0.0801,-0.26275 c 0.0185,-0.0449 0.0385,-0.0884 0.061,-0.13075 -0.021,0.0424 -0.042,0.0859 -0.061,0.13075 m 0.0731,-0.15475 c 0.0474,-0.0874 0.10113,-0.16988 0.15825,-0.24613 5e-4,0 0.001,0 0.002,0 l -0.0122,0.025 -0.1475,0.22113" />
    <path
       inkscape:connector-curvature="0"
       id="path110"
       style="fill:#782943;fill-opacity:1;fill-rule:nonzero;stroke:none"
       d="m 156.51498,606.43616 c 0.0108,-0.006 0.021,-0.0126 0.0307,-0.0175 l 0.30912,-0.11775 c 0,0 0,0 5e-4,0 l -0.086,0.0351 -0.23575,0.0899 c -0.006,0.004 -0.0122,0.007 -0.0186,0.0102" />
    <path
       inkscape:connector-curvature="0"
       id="path112"
       style="fill:#549632;fill-opacity:1;fill-rule:nonzero;stroke:none"
       d="m 155.35585,607.54603 c 0.41213,-0.50237 0.936,-0.97362 1.15913,-1.10987 0.006,-0.003 0.0127,-0.006 0.0186,-0.0102 l 0.23575,-0.0899 -0.22113,0.0889 c -0.11275,0.0625 -0.32525,0.22462 -0.563,0.44975 l -0.14937,0.14987 -0.15038,0.15038 -0.15,0.16212 c -0.0615,0.0689 -0.1215,0.13925 -0.17962,0.209 m 1.4995,-1.24512 c -5e-4,0 -5e-4,0 -5e-4,0 l 0.005,-0.002 5e-4,0.001 -0.005,10e-4 m 0.34475,-1.8525 c 0.0205,-0.0376 0.042,-0.0747 0.064,-0.11238 -0.0186,0.0337 -0.0366,0.0675 -0.0537,0.10263 l -0.0103,0.01" />
    <path
       inkscape:connector-curvature="0"
       id="path114"
       style="fill:#782943;fill-opacity:1;fill-rule:nonzero;stroke:none"
       d="m 157.83048,599.95328 c 0.16162,-0.0996 0.3345,-0.18212 0.50975,-0.24362 l 0.003,0.002 c -0.17625,0.0601 -0.35,0.14262 -0.51263,0.24125" />
    <path
       inkscape:connector-curvature="0"
       id="path116"
       style="fill:#549632;fill-opacity:1;fill-rule:nonzero;stroke:none"
       d="m 156.94423,601.09828 c 0.0971,-0.47212 0.45062,-0.8735 0.88625,-1.145 0.16262,-0.0986 0.33637,-0.18112 0.51262,-0.24125 l -0.003,-0.002 c 0.001,0 0.002,0 0.003,-10e-4 l 0.004,0.003 c -0.58737,0.20025 -1.13762,0.63775 -1.35,1.20025 l -0.0537,0.186 m 0.74413,-1.78462 c -0.0845,-0.0464 -0.1665,-0.0976 -0.24513,-0.15388 0.0791,0.0538 0.16163,0.105 0.24513,0.15388 m -1.11425,-2.32625 c 10e-4,-0.004 0.002,-0.008 0.003,-0.0111 0.003,-0.009 0.005,-0.0176 0.008,-0.0255 l 0.0126,-0.0121 -0.0126,0.0361 -0.0112,0.0126" />
    <path
       inkscape:connector-curvature="0"
       id="path118"
       style="fill:#518e31;fill-opacity:1;fill-rule:nonzero;stroke:none"
       d="m 173.9696,626.11591 c -0.166,-0.13963 -0.32712,-0.28225 -0.48387,-0.42 0.15775,0.13775 0.31887,0.27887 0.48387,0.42 m -4.38575,-2.62363 c -0.0479,0 -0.0918,-0.0103 -0.13225,-0.0288 l 0.2045,0.0215 c -0.0249,0.005 -0.0488,0.007 -0.0722,0.007 m -0.14112,-0.0336 c -0.042,-0.0215 -0.0805,-0.0538 -0.11475,-0.0937 l 0.11475,0.0937 m 1.28025,-0.18512 c -0.004,-0.004 -0.008,-0.008 -0.0126,-0.0111 l 5e-4,0 c 0.004,0.003 0.008,0.007 0.0121,0.0111 m -9.96338,-2.97107 c 0.0342,-0.314 0.0983,-0.60888 0.19388,-0.84138 l -0.0805,0.26375 c -0.0517,0.17625 -0.0889,0.3725 -0.11338,0.57763 m -1.52637,-1.63525 c -0.11175,-0.061 -0.22213,-0.126 -0.331,-0.19238 l 0.008,0 c 0.1065,0.0664 0.21387,0.13138 0.32275,0.19238 m -1.4135,-3.041 c 0.001,-0.009 0.002,-0.0176 0.003,-0.0264 l 5e-4,0 c -0.002,0.009 -0.002,0.0175 -0.003,0.0264" />
    <path
       inkscape:connector-curvature="0"
       id="path120"
       style="fill:#782943;fill-opacity:1;fill-rule:nonzero;stroke:none"
       d="m 157.81185,615.59103 -0.0996,-0.0689 c 0.006,-10e-4 0.0132,-10e-4 0.0201,-0.003 l 0.08,0.0714 c 0,0 0,0 -5e-4,0" />
    <path
       inkscape:connector-curvature="0"
       id="path122"
       style="fill:#549632;fill-opacity:1;fill-rule:nonzero;stroke:none"
       d="m 157.81623,615.59341 -0.004,-0.002 c 5e-4,0 5e-4,0 5e-4,0 l 0.004,0.002 m -0.104,-0.0712 -0.009,-0.006 0.022,-10e-4 0.007,0.005 c -0.007,10e-4 -0.0137,10e-4 -0.0201,0.002" />
  </g>
</svg>
