<?xml version="1.0" encoding="UTF-8" standalone="no"?>
<!-- Created with Inkscape (http://www.inkscape.org/) -->

<svg
   xmlns:dc="http://purl.org/dc/elements/1.1/"
   xmlns:cc="http://creativecommons.org/ns#"
   xmlns:rdf="http://www.w3.org/1999/02/22-rdf-syntax-ns#"
   xmlns:svg="http://www.w3.org/2000/svg"
   xmlns="http://www.w3.org/2000/svg"
   xmlns:sodipodi="http://sodipodi.sourceforge.net/DTD/sodipodi-0.dtd"
   xmlns:inkscape="http://www.inkscape.org/namespaces/inkscape"
   width="66.391602"
   height="88.41497"
   id="svg4297"
   version="1.1"
   inkscape:version="0.48.4 r9939"
   sodipodi:docname="carrot.svg">
  <defs
     id="defs4299" />
  <sodipodi:namedview
     id="base"
     pagecolor="#ffffff"
     bordercolor="#666666"
     borderopacity="1.0"
     inkscape:pageopacity="0.0"
     inkscape:pageshadow="2"
     inkscape:zoom="0.7"
     inkscape:cx="114.63792"
     inkscape:cy="120.44173"
     inkscape:document-units="px"
     inkscape:current-layer="layer1"
     showgrid="false"
     fit-margin-top="0"
     fit-margin-left="0"
     fit-margin-right="0"
     fit-margin-bottom="0"
     inkscape:window-width="472"
     inkscape:window-height="383"
     inkscape:window-x="1168"
     inkscape:window-y="525"
     inkscape:window-maximized="0" />
  <metadata
     id="metadata4302">
    <rdf:RDF>
      <cc:Work
         rdf:about="">
        <dc:format>image/svg+xml</dc:format>
        <dc:type
           rdf:resource="http://purl.org/dc/dcmitype/StillImage" />
        <dc:title></dc:title>
      </cc:Work>
    </rdf:RDF>
  </metadata>
  <g
     inkscape:label="Layer 1"
     inkscape:groupmode="layer"
     id="layer1"
     transform="translate(54.867546,-656.92183)">
    <path
       inkscape:connector-curvature="0"
       id="path732"
       style="fill:#f9b00e;fill-opacity:1;fill-rule:nonzero;stroke:none"
       d="m 11.524004,683.16442 -24.16,-4.82125 -0.0162,0 -12.38875,-2.45662 0,-0.016 -9.63125,-1.91513 -14.1825,-2.831 -6.0125,-1.19237 c 16.97,-13.50538 38.85625,-13.00788 38.85625,-13.00788 l 27.535,26.24025" />
    <path
       inkscape:connector-curvature="0"
       id="path734"
       style="fill:#fae24e;fill-opacity:1;fill-rule:nonzero;stroke:none"
       d="m 9.4827542,714.41542 c -1.565,-1.97125 -1.8075,-5.65625 0.7812498,-6.96637 0.12875,-0.0659 0.25625,-0.11475 0.385,-0.14738 l 0.045,-1.316 0.12125,-2.98775 0.045,-1.25 c -1.6224998,-0.40137 -3.0549998,-1.416 -3.8562498,-3.12112 -1.57375,-3.355 0.79875,-6.2875 4.1874998,-6.80513 l 0.0162,0 0.0288,-0.81737 0.2875,-7.83988 -24.16,-4.82125 -0.0162,0 -12.38875,-2.45662 0,-0.016 -9.63125,-1.91513 -14.1825,-2.831 -6.0125,-1.19237 0.7525,18.73487 0.4675,11.95263 0.045,0.9785 16.71625,4.26512 0.0138,0.0161 6.6175,1.67138 15.8225,4.0425 0,0.0136 12.3750002,3.14987 12.3287498,3.15 0,-0.0312 0.0925,-2.59475 c -0.3175,-0.25637 -0.6174998,-0.53512 -0.8812498,-0.86525" />
    <path
       inkscape:connector-curvature="0"
       id="path736"
       style="fill:#3795a7;fill-opacity:1;fill-rule:nonzero;stroke:none"
       d="m -30.250996,707.57555 -6.6125,-1.67525 -0.0238,-0.0122 -0.02,-0.0302 0.0212,0.005 0.0138,0.0161 6.6175,1.67137 0.015,0.005 -0.002,0.005 c -0.002,0.005 -0.006,0.0102 -0.009,0.0151" />
    <path
       inkscape:connector-curvature="0"
       id="path738"
       style="fill:#f4ce3e;fill-opacity:1;fill-rule:nonzero;stroke:none"
       d="m -30.239746,707.55555 -0.015,-0.005 -6.6175,-1.67138 -0.0138,-0.0161 -0.0212,-0.005 -0.005,-0.008 -0.0137,-0.004 c -0.5925,-0.69375 -1.25125,-1.4165 -1.665,-2.25875 -0.95,-1.97512 -1.15875,-4.1265 0.18,-6.01125 0.54375,-0.76612 1.3175,-1.30125 2.1625,-1.455 -1.12375,1.44775 -1.255,3.81875 -0.3375,5.21875 0.4675,0.64888 1.12875,1.04 1.59875,1.79238 0.46625,0.65137 0.46625,1.31162 1.22125,1.87012 0.66,0.5875 2.27375,1.06988 3.94875,1.28375 l 0.0275,-0.18362 c 0.0175,-0.20013 0.025,-0.39888 0.0263,-0.59613 0,0.2035 -0.009,0.40863 -0.0263,0.61475 -0.0437,0.54488 -0.2025,1.03263 -0.44625,1.43113 l -0.001,-10e-4 -0.002,0.005 m -2.54875,-8.3725 0,0 c 0,-0.01 0,-0.021 0,-0.0322 0,0.0113 0,0.0224 0,0.0322" />
    <path
       inkscape:connector-curvature="0"
       id="path740"
       style="fill:#f4ce3e;fill-opacity:1;fill-rule:nonzero;stroke:none"
       d="m -15.102246,686.75042 c -0.82,0 -1.6525,-0.29987 -2.23875,-0.8575 l -0.40625,-0.31637 c -0.19625,-0.13625 -0.39,-0.28713 -0.60125,-0.40725 -0.4525,-0.2715 -0.92,-0.5415 -1.38875,-0.814 -1.0675,-0.6035 -2.0925,-1.23475 -3.02875,-2.02 -1.5475,-1.2925 -2.46375,-3.0795 -2.455,-4.98875 l 5.44,1.08787 0.009,10e-4 c 0.35375,1.5015 2.15375,2.76275 2.96,3.959 0.95,1.50875 0.195,1.50875 0,2.8325 -0.0288,0.3775 0.0312,0.75588 0.15,1.11625 0.48125,0.25338 1.03125,0.38625 1.575,0.38625 1.01125,0 2,-0.459 2.48,-1.45762 0.5475,-1.141 0.79875,-2.38125 0.76875,-3.60975 0.0337,1.23475 -0.2175,2.47987 -0.76875,3.62737 -0.48375,1.001 -1.48,1.461 -2.495,1.461" />
    <path
       inkscape:connector-curvature="0"
       id="path742"
       style="fill:#3795a7;fill-opacity:1;fill-rule:nonzero;stroke:none"
       d="m 10.815254,703.02917 -10e-4,0 10e-4,-0.0312 0.045,-1.25 c -1.5212498,-0.376 -2.8762498,-1.291 -3.6987498,-2.81 0.8225,1.519 2.1775,2.434 3.6999998,2.81 l -0.0462,1.28125 m -4.3087498,-6.50487 c 0,-2.41013 2.03125,-4.29638 4.6849998,-4.70263 l 0.0162,0 0.0275,-0.791 c 0,0 0,10e-4 0.001,10e-4 l -0.0288,0.79 -0.0163,0 c -2.6537498,0.40625 -4.6849998,2.2925 -4.6849998,4.70263" />
    <path
       inkscape:connector-curvature="0"
       id="path744"
       style="fill:#f4ce3e;fill-opacity:1;fill-rule:nonzero;stroke:none"
       d="m 10.814004,703.02917 -0.3025,-0.0136 c -0.315,-0.0299 -0.9637498,-0.12012 -0.9637498,-0.13775 -0.17875,-0.0146 -0.33,-0.0274 -0.51125,-0.0571 -0.40625,-0.0625 -0.81375,-0.1225 -1.205,-0.19775 -0.965,-0.21 -1.915,-0.49512 -2.77375,-0.94975 -2.155,-1.11375 -3.40625,-3.27 -3.27125,-5.69625 0.205,-3.64987 3.24,-5.55912 6.40625,-5.55912 1.03125,0 2.0762498,0.20275 3.0424998,0.61287 l -0.0275,0.791 -0.0162,0 c -2.6537498,0.40625 -4.6849998,2.2925 -4.6849998,4.70263 0,0.6675 0.15625,1.375 0.4975,2.1025 0.05,0.1065 0.1025,0.21 0.1575,0.31112 0.8225,1.519 2.1775,2.434 3.6987498,2.81 l -0.045,1.25 -10e-4,0.0312" />
    <path
       inkscape:connector-curvature="0"
       id="path746"
       style="fill:#f4ce3e;fill-opacity:1;fill-rule:nonzero;stroke:none"
       d="m -23.759746,699.59317 c -1.5225,0 -3.16625,-1.37012 -3.01375,-3.01512 0.0312,-0.26863 0.06,-0.55763 0.0312,-0.82625 l 0,-0.0175 c -0.0312,-0.13388 -0.0637,-0.25638 -0.1075,-0.37363 l -0.0762,-0.13762 -0.12,-0.19488 -0.225,-0.25637 -0.16625,-0.13613 c -0.12125,-0.0762 -0.22625,-0.15 -0.34625,-0.22662 -1.40125,-0.84375 -1.93,-2.69725 -1.08625,-4.12838 0.54625,-0.94 1.57875,-1.48787 2.62625,-1.48787 0.51625,0 1.03625,0.13287 1.50375,0.4175 0.72625,0.43512 1.385,0.96875 1.95,1.58162 -1.08,0.35 -1.88875,1.19088 -1.55625,2.63375 0.345,1.59713 1.835,3.14988 3.19375,4.50588 0.22625,-0.40575 0.3625,-0.87213 0.4075,-1.37113 0.04,-0.42475 0.0425,-0.84375 0.009,-1.25637 0.035,0.4175 0.0325,0.84275 -0.009,1.274 -0.15125,1.62887 -1.25125,3.01512 -3.015,3.01512" />
    <path
       inkscape:connector-curvature="0"
       id="path748"
       style="fill:#f4ce3e;fill-opacity:1;fill-rule:nonzero;stroke:none"
       d="m -38.623496,685.38167 c -1.16625,0 -2.35,-0.53512 -3.08625,-1.49112 -0.4825,-0.62013 -0.79875,-1.34375 -0.845,-2.0665 -3.59,-1.39988 -6.15,-5.36475 -6.34875,-9.2245 l 0.004,0 8.84625,1.77825 0.0175,0.004 c 0.51125,0.56987 0.9825,1.17637 1.28,1.89412 0.66125,1.59713 -0.28625,2.26125 -1.13,3.58588 -1.05625,1.59625 -1.145,3.60262 -0.36375,5.15387 0.51125,0.229 1.06875,0.34863 1.62375,0.34863 0.9825,0 1.9525,-0.3785 2.6275,-1.20513 0.9225,-1.12987 1.295,-2.457 1.2975,-3.8335 0.001,1.38238 -0.37125,2.71725 -1.2975,3.84863 -0.675,0.82762 -1.64375,1.2075 -2.625,1.2075 m 3.4575,-7.60738 c -0.001,-0.003 -0.002,-0.004 -0.002,-0.006 0.24875,-0.7485 0.4125,-1.53762 0.4825,-2.32225 l 10e-4,0 c -0.0675,0.78863 -0.23255,1.57863 -0.4813,2.32863 m -6.47125,-5.17138 -0.0137,-0.003 -0.004,-0.009 0.01,0.003 c 0.002,0.003 0.005,0.006 0.007,0.01" />
    <path
       inkscape:connector-curvature="0"
       id="path750"
       style="fill:#3795a7;fill-opacity:1;fill-rule:nonzero;stroke:none"
       d="m -2.0572458,714.78555 -9.2087502,-2.34375 -3.15875,-0.80375 0,-0.0302 12.3675002,3.14887 0.007,0.002 c -0.002,0.009 -0.005,0.0176 -0.007,0.0264" />
    <path
       inkscape:connector-curvature="0"
       id="path752"
       style="fill:#f4ce3e;fill-opacity:1;fill-rule:nonzero;stroke:none"
       d="m -2.0497458,714.75917 -0.007,-0.002 -12.3675002,-3.14887 0,-0.008 -0.0112,-0.0127 -0.015,-0.004 c -0.87375,-1.83113 -1.2725,-3.81888 -0.82375,-5.855 0.52625,-2.38238 2.36625,-4.37113 4.92875,-4.40238 0.0425,-0.002 0.085,-0.002 0.1275,-0.002 0.19375,0 0.3862502,0.009 0.5762502,0.0255 -0.0487,-0.004 -0.0975,-0.008 -0.14625,-0.0103 -1.5687502,1.55513 -1.2362502,4.6425 0.33,6.20988 1.31375,1.4165 2.3525,1.50787 2.82,3.4815 0.18,0.84375 0.43625,1.8525 0.85875,2.76125 l 3.7225,0.94625 c 0.145,-0.5625 0.2125,-1.14163 0.21125,-1.72413 0.005,0.58888 -0.06,1.17388 -0.20375,1.74513 m -1.58375,-7.04888 c -0.002,-0.003 -0.005,-0.007 -0.007,-0.01 0.32,-0.52737 0.49625,-1.17625 0.48375,-1.80612 0.0162,0.63237 -0.1575,1.28462 -0.47625,1.81587" />
    <path
       inkscape:connector-curvature="0"
       id="path754"
       style="fill:#f4ce3e;fill-opacity:1;fill-rule:nonzero;stroke:none"
       d="m -51.035996,701.3393 c -0.44625,0 -0.89875,-0.0675 -1.34625,-0.1915 l 0,-10e-4 -0.33125,-8.66738 0,-0.0201 c 1.71875,0.69638 3.26875,1.86138 4.445,3.31888 0.755,1.04012 1.1025,2.26125 1.3425,3.52487 0.77375,-0.93112 1.205,-2.11512 1.1525,-3.375 0.12,2.6875 -1.9725,5.02988 -4.76875,5.38238 -0.16375,0.02 -0.32875,0.0289 -0.49375,0.0289" />
    <path
       inkscape:connector-curvature="0"
       id="path756"
       style="fill:#3795a7;fill-opacity:1;fill-rule:nonzero;stroke:none"
       d="m -54.064746,689.93542 -0.015,-0.34712 -0.025,-0.63388 0,-0.0224 0.0388,0.97113 10e-4,0.0323" />
    <path
       inkscape:connector-curvature="0"
       id="path758"
       style="fill:#f4ce3e;fill-opacity:1;fill-rule:nonzero;stroke:none"
       d="m -54.063496,689.94905 -10e-4,-0.0136 -0.001,-0.0323 0.002,0.0459" />
    <path
       inkscape:connector-curvature="0"
       id="path760"
       style="fill:#3795a7;fill-opacity:1;fill-rule:nonzero;stroke:none"
       d="m 10.271504,717.90667 c -0.007,-0.003 -0.015,-0.004 -0.0225,-0.005 l 0.002,-10e-4 0.02,0.006 0,-0.0312 0.0925,-2.59475 0,0 -0.0925,2.626 M 8.3085042,710.9506 c 0,-1.42875 0.575,-2.80275 1.9549998,-3.5015 0.12875,-0.0659 0.25625,-0.11475 0.385,-0.14738 l 0.0438,-1.28762 10e-4,0 -0.045,1.28762 c -0.1275,0.0326 -0.255,0.0815 -0.385,0.14738 -1.3799998,0.69875 -1.9549998,2.07275 -1.9549998,3.5015" />
    <path
       inkscape:connector-curvature="0"
       id="path762"
       style="fill:#f4ce3e;fill-opacity:1;fill-rule:nonzero;stroke:none"
       d="m 10.271504,717.90667 -0.0212,-0.006 10e-4,0 -0.20125,-0.0635 -0.1187498,-0.0297 c -0.18625,-0.0728 -0.37125,-0.1705 -0.54875,-0.294 -2.23,-1.54975 -4.00875,-4.0825 -4.25,-6.855 -0.135,-1.584 0.6325,-3.15137 1.97625,-3.996 0.815,-0.52012 1.7325,-0.70175 2.66375,-0.70175 0.3062498,0 0.6137498,0.02 0.9199998,0.0538 l -0.0437,1.28763 c -0.12875,0.0326 -0.25625,0.0815 -0.385,0.14737 -1.3799998,0.69875 -1.9549998,2.07275 -1.9549998,3.5015 10e-4,1.251 0.44375,2.545 1.17375,3.46488 0.26375,0.33012 0.5637498,0.61037 0.8812498,0.86525 l -0.0925,2.59475 0,0.0312" />
    <path
       inkscape:connector-curvature="0"
       id="path764"
       style="fill:#f4ce3e;fill-opacity:1;fill-rule:nonzero;stroke:none"
       d="m -5.9084958,693.72455 c -0.885,0 -1.76875,-0.22275 -2.52375,-0.68513 -0.87375,-0.56 -1.4625,-1.28362 -1.7925002,-2.09912 -0.12125,-0.0723 -0.2425,-0.1645 -0.3325,-0.2685 -1.22125,-1.20513 -1.1,-3.04638 0,-4.26513 0.9700002,-1.09137 2.5862502,-1.76762 4.1525002,-1.76762 0.96375,0 1.91,0.25637 2.675,0.83012 1.20125,0.914 1.9175,1.92863 2.2075,3.33 -0.0188,-0.0776 -0.0412,-0.15137 -0.0662,-0.22362 -0.67,-0.12888 -1.4125,-0.23875 -2.135,-0.23875 -0.82125,0 -1.6175,0.1435 -2.2525,0.56887 -1.5375,0.96488 -1.97375,2.92238 -1.445,4.56738 0.49,0.15625 1.00625,0.23387 1.52375,0.23387 1.2125,0 2.43,-0.42137 3.32875,-1.21387 0.74625,-0.669 1.1625,-1.70263 1.165,-2.70363 0.002,1.00738 -0.41375,2.04838 -1.16375,2.71975 -0.90125,0.79488 -2.12375,1.21538 -3.34125,1.21538" />
    <path
       inkscape:connector-curvature="0"
       id="path766"
       style="fill:#f3d24a;fill-opacity:1;fill-rule:nonzero;stroke:none"
       d="m -11.838496,681.66205 c -0.015,-0.564 -0.09,-1.125 -0.2225,-1.67538 l 0.005,0.002 c 0.13,0.54888 0.20375,1.10988 0.2175,1.67388" />
    <path
       inkscape:connector-curvature="0"
       id="path768"
       style="fill:#edbd3c;fill-opacity:1;fill-rule:nonzero;stroke:none"
       d="m -15.087246,686.72942 c -0.54375,0 -1.09375,-0.13287 -1.575,-0.38625 -0.11875,-0.36037 -0.17875,-0.73875 -0.15,-1.11625 0.195,-1.32375 0.95,-1.32375 0,-2.8325 -0.80625,-1.19625 -2.60625,-2.4575 -2.96,-3.959 l 7.7075,1.53513 0,0.0161 0.004,0 c 0.1325,0.55037 0.2075,1.11137 0.2225,1.67537 0.03,1.2285 -0.22125,2.46875 -0.76875,3.60975 -0.48,0.99863 -1.46875,1.45763 -2.48,1.45763" />
    <path
       inkscape:connector-curvature="0"
       id="path770"
       style="fill:#f3d24a;fill-opacity:1;fill-rule:nonzero;stroke:none"
       d="m -12.635996,678.37292 -0.0162,0 -6.96375,-1.39012 0,-0.0123 6.96375,1.38725 0.0162,0 0,0.0151" />
    <path
       inkscape:connector-curvature="0"
       id="path772"
       style="fill:#f3d24a;fill-opacity:1;fill-rule:nonzero;stroke:none"
       d="m -34.700996,680.32555 c 0,-0.62113 -0.0762,-1.25238 -0.21125,-1.87988 -0.0612,-0.24025 -0.1525,-0.45012 -0.25625,-0.66262 0,-0.002 10e-4,-0.006 0.002,-0.009 0.1025,0.206 0.19125,0.416 0.25375,0.65625 0.13625,0.63137 0.2125,1.2685 0.21125,1.895" />
    <path
       inkscape:connector-curvature="0"
       id="path774"
       style="fill:#edbd3c;fill-opacity:1;fill-rule:nonzero;stroke:none"
       d="m -38.625996,685.36417 c -0.555,0 -1.1125,-0.11962 -1.62375,-0.34862 -0.78125,-1.55125 -0.6925,-3.55763 0.36375,-5.15388 0.84375,-1.32462 1.79125,-1.98875 1.13,-3.58587 -0.2975,-0.71775 -0.76875,-1.32425 -1.28,-1.89413 l 5.35,1.064 c -0.07,0.78463 -0.23375,1.57375 -0.4825,2.32225 0,0.003 10e-4,0.004 0.002,0.006 -10e-4,0.002 -0.002,0.006 -0.002,0.009 0.10375,0.2125 0.195,0.42238 0.25625,0.66263 0.135,0.6275 0.21125,1.25875 0.21125,1.87987 -0.002,1.3765 -0.375,2.70363 -1.2975,3.8335 -0.675,0.82663 -1.645,1.20513 -2.6275,1.20513" />
    <path
       inkscape:connector-curvature="0"
       id="path776"
       style="fill:#f3d24a;fill-opacity:1;fill-rule:nonzero;stroke:none"
       d="m -34.672246,673.98667 0,0 -6.9725,-1.3935 c -0.005,-0.008 -0.0112,-0.0151 -0.0162,-0.0215 l 6.98875,1.39888 0,0.0161" />
    <path
       inkscape:connector-curvature="0"
       id="path778"
       style="fill:#edbd3c;fill-opacity:1;fill-rule:nonzero;stroke:none"
       d="m -34.672246,673.98667 -6.965,-1.38375 c -0.002,-0.003 -0.005,-0.006 -0.007,-0.01 l 6.9725,1.3935 0,0" />
    <path
       inkscape:connector-curvature="0"
       id="path780"
       style="fill:#f3d24a;fill-opacity:1;fill-rule:nonzero;stroke:none"
       d="m -1.8459958,713.01405 c -0.015,-1.82863 -0.70125,-3.69488 -1.7925,-5.29588 10e-4,-0.003 0.004,-0.005 0.005,-0.008 1.095,1.60013 1.7825,3.47413 1.7875,5.30375 m -1.31125,-7.1196 c -0.0188,-0.73237 -0.29125,-1.44 -0.88875,-1.90137 -1.65875,-1.30613 -3.465,-2.46388 -5.59625,-2.6435 2.135,0.1645 3.93125,1.3295 5.59625,2.62837 0.6025,0.46388 0.875,1.17775 0.88875,1.9165" />
    <path
       inkscape:connector-curvature="0"
       id="path782"
       style="fill:#edbd3c;fill-opacity:1;fill-rule:nonzero;stroke:none"
       d="m -2.0572458,714.73817 -3.7225,-0.94625 c -0.4225,-0.90875 -0.67875,-1.9175 -0.85875,-2.76125 -0.4675,-1.97362 -1.50625,-2.065 -2.82,-3.4815 -1.5662502,-1.56737 -1.8987502,-4.65475 -0.33,-6.20987 0.0488,0.002 0.0975,0.006 0.14625,0.0102 2.13125,0.17962 3.9375,1.33737 5.59625,2.6435 0.5975,0.46137 0.87,1.169 0.88875,1.90137 0.0125,0.62988 -0.16375,1.27875 -0.48375,1.80613 0.002,0.003 0.005,0.006 0.007,0.01 -10e-4,0.003 -0.004,0.005 -0.005,0.008 1.09125,1.601 1.7775,3.46725 1.7925,5.29587 0.001,0.5825 -0.0663,1.16163 -0.21125,1.72413" />
    <path
       inkscape:connector-curvature="0"
       id="path784"
       style="fill:#f3d24a;fill-opacity:1;fill-rule:nonzero;stroke:none"
       d="m -45.773496,695.92805 c -0.0238,-0.52725 -0.1325,-1.06738 -0.3375,-1.60975 -0.98125,-2.6065 -3.64875,-5.20175 -6.4825,-5.6675 -0.0913,-0.0151 -0.18125,-0.0279 -0.27125,-0.0366 l 0,-0.0186 c 0.09,0.01 0.18,0.021 0.27125,0.0376 2.83375,0.46875 5.50125,3.06013 6.4825,5.6675 0.20625,0.54588 0.315,1.09375 0.3375,1.62738" />
    <path
       inkscape:connector-curvature="0"
       id="path786"
       style="fill:#edbd3c;fill-opacity:1;fill-rule:nonzero;stroke:none"
       d="m -46.925996,699.30305 c -0.24,-1.26363 -0.5875,-2.48475 -1.3425,-3.52488 -1.17625,-1.4575 -2.72625,-2.6225 -4.445,-3.31887 l -0.15125,-3.83738 0,-0.008 c 0.09,0.009 0.18,0.0215 0.27125,0.0366 2.83375,0.46575 5.50125,3.061 6.4825,5.6675 0.205,0.54238 0.31375,1.0825 0.3375,1.60975 0.0525,1.25988 -0.37875,2.44388 -1.1525,3.375" />
    <path
       inkscape:connector-curvature="0"
       id="path788"
       style="fill:#f3d24a;fill-opacity:1;fill-rule:nonzero;stroke:none"
       d="m -1.4034958,689.78942 c 0,-0.124 -0.007,-0.2475 -0.02,-0.36912 -0.025,-0.21588 -0.0575,-0.42238 -0.0987,-0.62113 0.0475,0.19238 0.0762,0.3975 0.0987,0.60263 0.0138,0.12737 0.02,0.25725 0.02,0.38762" />
    <path
       inkscape:connector-curvature="0"
       id="path790"
       style="fill:#edbd3c;fill-opacity:1;fill-rule:nonzero;stroke:none"
       d="m -5.8972458,693.70692 c -0.5175,0 -1.03375,-0.0776 -1.52375,-0.23387 -0.52875,-1.645 -0.0925,-3.6025 1.445,-4.56738 0.635,-0.42537 1.43125,-0.56887 2.2525,-0.56887 0.7225,0 1.465,0.10987 2.135,0.23875 0.025,0.0723 0.0475,0.146 0.0662,0.22362 0.0412,0.19875 0.0737,0.40525 0.0987,0.62113 0.0125,0.12162 0.02,0.24512 0.02,0.36912 -0.002,1.001 -0.41875,2.03463 -1.165,2.70363 -0.89875,0.7925 -2.11625,1.21387 -3.32875,1.21387" />
    <path
       inkscape:connector-curvature="0"
       id="path792"
       style="fill:#f3d24a;fill-opacity:1;fill-rule:nonzero;stroke:none"
       d="m -20.735996,695.30405 c -0.14375,-1.70213 -0.90375,-3.2685 -2.05375,-4.51213 0.004,-10e-4 0.006,-0.002 0.01,-0.004 1.15125,1.2515 1.90375,2.814 2.04375,4.51613" />
    <path
       inkscape:connector-curvature="0"
       id="path794"
       style="fill:#edbd3c;fill-opacity:1;fill-rule:nonzero;stroke:none"
       d="m -21.152246,697.93155 c -1.35875,-1.356 -2.84875,-2.90875 -3.19375,-4.50588 -0.3325,-1.44287 0.47625,-2.28375 1.55625,-2.63375 1.15,1.24363 1.91,2.81 2.05375,4.51213 0.0337,0.41262 0.0312,0.83162 -0.009,1.25637 -0.045,0.499 -0.18125,0.96538 -0.4075,1.37113" />
    <path
       inkscape:connector-curvature="0"
       id="path796"
       style="fill:#f3d24a;fill-opacity:1;fill-rule:nonzero;stroke:none"
       d="m -29.763496,705.5058 c -0.002,-2.45175 -1.25625,-4.6465 -3.025,-6.30375 0,-0.006 0,-0.0128 0,-0.019 1.7725,1.6635 3.0275,3.86612 3.025,6.32275 m -3.025,-6.355 c -0.004,-1.05525 -0.6175,-2.14413 -1.5075,-2.66263 -0.48125,-0.28375 -0.97625,-0.41112 -1.46,-0.41112 -0.16625,0 -0.33125,0.0146 -0.4925,0.0435 0.002,-0.003 0.005,-0.006 0.007,-0.01 0.165,-0.0312 0.3325,-0.0478 0.50125,-0.0478 0.4775,0 0.965,0.13037 1.44375,0.41012 0.895,0.521 1.51125,1.61863 1.5075,2.67775" />
    <path
       inkscape:connector-curvature="0"
       id="path798"
       style="fill:#edbd3c;fill-opacity:1;fill-rule:nonzero;stroke:none"
       d="m -29.817246,706.28555 c -1.675,-0.21388 -3.28875,-0.69625 -3.94875,-1.28375 -0.755,-0.5585 -0.755,-1.21875 -1.22125,-1.87013 -0.47,-0.75237 -1.13125,-1.1435 -1.59875,-1.79237 -0.9175,-1.4 -0.78625,-3.771 0.3375,-5.21875 0.16125,-0.0289 0.32625,-0.0435 0.4925,-0.0435 0.48375,0 0.97875,0.12737 1.46,0.41112 0.89,0.5185 1.50375,1.60738 1.5075,2.66263 0,0.0113 0,0.0224 0,0.0323 l 0,0 c 0,0.006 0,0.0126 0,0.019 1.76875,1.65725 3.0225,3.852 3.025,6.30375 -0.001,0.19725 -0.009,0.396 -0.0263,0.59612 l -0.0275,0.18363" />
    <path
       inkscape:connector-curvature="0"
       id="path800"
       style="fill:#f9f44f;fill-opacity:1;fill-rule:nonzero;stroke:none"
       d="m -12.635996,678.37292 -0.0162,0 -6.96375,-1.39012 0,-0.0123 6.96375,1.38725 0.0162,0 0,0.0151 m -22.03625,-4.38625 -6.97875,-1.38713 -0.0138,-0.0289 6.9925,1.39988 0,0.0161 m 22.03625,4.3565 -0.0162,0 -12.38875,-2.45663 0,-0.016 -9.63125,-1.91512 -14.1825,-2.831 -6.0125,-1.19237 0.7525,18.73487 0,0.0312 0.135,3.34463 0.3325,8.605 0.045,0.95025 1.25,0.31637 -0.03,-0.76762 -0.33125,-8.66738 -0.15125,-3.8575 0,-0.0166 -0.64625,-16.92625 4.61125,0.9205 8.84625,1.77825 5.38125,1.07038 9.45,1.89737 5.44125,1.08888 7.71625,1.53612 0,0.0161 23.52875,4.70025 0.0587,-1.5225 -24.15875,-4.82125" />
    <path
       inkscape:connector-curvature="0"
       id="path802"
       style="fill:#d1d1cf;fill-opacity:1;fill-rule:nonzero;stroke:none"
       d="m -21.487246,745.3368 0,0 c 0,0 0.006,0 0.009,0 -0.004,0 -0.006,0 -0.009,0 m 0.0538,0 c 0.0112,0 0.0187,0 0.03,0 -0.01,0 -0.02,0 -0.03,0 m 0.0437,0 c 0.025,0 0.0513,0 0.075,0 -0.025,0 -0.05,0 -0.075,0 m 0.0825,0 c 0.0437,0 0.0888,-0.001 0.1325,-0.001 -0.0437,0 -0.0875,0.001 -0.1325,0.001 m 0.135,-0.001 c 0.0263,0 0.05,0 0.0763,0 -0.025,0 -0.0513,0 -0.0763,0 m 0.0925,0 c 0.01,0 0.0238,0 0.0325,0 -0.01,0 -0.0213,0 -0.0325,0 m 0.0788,-10e-4 c 0.006,0 0.007,0 0.0137,0 -0.005,0 -0.009,0 -0.0137,0 m 0.0787,0 c 0.001,0 -10e-4,0 0.001,0 l -0.001,0 m 2.08875,-0.059 c 0.61125,-0.0284 1.2175,-0.0674 1.82375,-0.11475 l -0.002,0.002 c -0.60375,0.0464 -1.21125,0.084 -1.82125,0.11237" />
    <path
       inkscape:connector-curvature="0"
       id="path806"
       style="fill:#cb9119;fill-opacity:1;fill-rule:nonzero;stroke:none"
       d="m -54.863496,669.93205 -0.004,0 c 0.001,-10e-4 0.002,-0.003 0.004,-0.004 l 0,0.004" />
    <path
       inkscape:connector-curvature="0"
       id="path808"
       style="fill:#c9b740;fill-opacity:1;fill-rule:nonzero;stroke:none"
       d="m 10.076504,717.8568 -12.1174998,-3.09525 0.004,-0.0111 11.96875,3.05662 c 0.0475,0.017 0.0962,0.0346 0.1449998,0.0498 m -24.5237,-6.2675 -15.79125,-4.03375 c 0,-10e-4 10e-4,-0.002 0.002,-0.004 l 15.785,4.03125 c 10e-4,0.002 0.002,0.004 0.004,0.006 m -22.4713,-5.73488 -16.68375,-4.25637 1.25,0.31637 -10e-4,-0.004 0.004,0.002 15.42375,3.9335 c 0.002,0.004 0.005,0.006 0.007,0.009" />
    <path
       inkscape:connector-curvature="0"
       id="path810"
       style="fill:#2c7789;fill-opacity:1;fill-rule:nonzero;stroke:none"
       d="m -30.254746,707.58042 -6.6175,-1.67375 -0.0138,-0.0148 c -0.0112,-0.0126 -0.0212,-0.0254 -0.0325,-0.0375 l 0.0113,0.003 0.02,0.0303 0.0238,0.0122 6.6125,1.67525 c -0.001,10e-4 -0.002,0.002 -0.004,0.005 m 0.0125,-0.02 0.003,-0.005 0.001,0 c -0.001,10e-4 -0.002,0.004 -0.004,0.005" />
    <path
       inkscape:connector-curvature="0"
       id="path812"
       style="fill:#c5a735;fill-opacity:1;fill-rule:nonzero;stroke:none"
       d="m -30.238496,707.55555 -10e-4,0 0.003,-0.005 10e-4,10e-4 c -10e-4,10e-4 -0.002,0.002 -0.002,0.004 m -6.66875,-1.69775 -0.0113,-0.003 c -0.002,-0.003 -0.005,-0.005 -0.007,-0.009 l 0.0137,0.004 0.005,0.008" />
    <path
       inkscape:connector-curvature="0"
       id="path814"
       style="fill:#2c7789;fill-opacity:1;fill-rule:nonzero;stroke:none"
       d="m -2.0572458,714.78792 -9.2087502,-2.34612 9.2087502,2.34375 c 0,0.001 0,0.001 0,0.002 m -12.3675002,-3.14988 -0.007,-0.002 0,-0.0137 c -0.005,-0.0113 -0.01,-0.0224 -0.015,-0.0326 l 0.015,0.004 0,0.0136 0.007,10e-4 0,0.0303" />
    <path
       inkscape:connector-curvature="0"
       id="path816"
       style="fill:#c5a735;fill-opacity:1;fill-rule:nonzero;stroke:none"
       d="m -14.424746,711.6078 -0.007,-10e-4 0,-0.0136 -0.015,-0.004 c -0.001,-0.002 -0.002,-0.004 -0.004,-0.006 l 0.015,0.004 0.0113,0.0127 0,0.008" />
    <path
       inkscape:connector-curvature="0"
       id="path818"
       style="fill:#2c7789;fill-opacity:1;fill-rule:nonzero;stroke:none"
       d="m -53.647246,700.6508 0,0 -0.4325,-11.0625 0.015,0.34712 0.30125,7.69775 0.11625,3.01463 0,0.003" />
    <path
       inkscape:connector-curvature="0"
       id="path820"
       style="fill:#c5a735;fill-opacity:1;fill-rule:nonzero;stroke:none"
       d="m -53.763496,697.63317 -0.30125,-7.69775 10e-4,0.0136 0.0837,2.09375 0.21625,5.59038" />
    <path
       inkscape:connector-curvature="0"
       id="path822"
       style="fill:#2c7789;fill-opacity:1;fill-rule:nonzero;stroke:none"
       d="m -54.104746,688.95442 -0.01,-0.25625 0.01,0.23388 0,0.0224" />
    <path
       inkscape:connector-curvature="0"
       id="path824"
       style="fill:#2c7789;fill-opacity:1;fill-rule:nonzero;stroke:none"
       d="m 10.249004,717.9018 c -0.0575,-0.0127 -0.115,-0.0274 -0.1725,-0.045 l 0.17375,0.0435 -10e-4,0.002" />
    <path
       inkscape:connector-curvature="0"
       id="path826"
       style="fill:#c5a735;fill-opacity:1;fill-rule:nonzero;stroke:none"
       d="m 10.250254,717.9003 -0.17375,-0.0435 c -0.0487,-0.0151 -0.0975,-0.0327 -0.1449998,-0.0498 l 0.1187498,0.0298 0.20125,0.0635" />
    <path
       inkscape:connector-curvature="0"
       id="path828"
       style="fill:#c8c641;fill-opacity:1;fill-rule:nonzero;stroke:none"
       d="m -52.352246,701.91442 -1.25,-0.31637 -0.045,-0.94725 0,-0.003 -0.11625,-3.01463 -0.21625,-5.59037 -0.0837,-2.09375 0.0887,2.08887 0.33625,8.59863 0,0.0127 0.0387,0.9375 1.24625,0.32375 0.001,0.004 m -1.7525,-12.98238 -0.01,-0.23387 0,-0.0312 -0.7525,-18.7349 0.004,0 0.75125,18.73 0,0.0272 0.007,0.24275" />
  </g>
</svg>
