<?xml version="1.0" encoding="UTF-8" standalone="no"?>
<!-- Created with Inkscape (http://www.inkscape.org/) -->

<svg
   xmlns:dc="http://purl.org/dc/elements/1.1/"
   xmlns:cc="http://creativecommons.org/ns#"
   xmlns:rdf="http://www.w3.org/1999/02/22-rdf-syntax-ns#"
   xmlns:svg="http://www.w3.org/2000/svg"
   xmlns="http://www.w3.org/2000/svg"
   xmlns:sodipodi="http://sodipodi.sourceforge.net/DTD/sodipodi-0.dtd"
   xmlns:inkscape="http://www.inkscape.org/namespaces/inkscape"
   width="58.848846"
   height="95.180527"
   id="svg4297"
   version="1.1"
   inkscape:version="0.48.4 r9939"
   sodipodi:docname="bread.svg">
  <defs
     id="defs4299" />
  <sodipodi:namedview
     id="base"
     pagecolor="#ffffff"
     bordercolor="#666666"
     borderopacity="1.0"
     inkscape:pageopacity="0.0"
     inkscape:pageshadow="2"
     inkscape:zoom="0.7"
     inkscape:cx="79.546622"
     inkscape:cy="28.87679"
     inkscape:document-units="px"
     inkscape:current-layer="layer1"
     showgrid="false"
     fit-margin-top="0"
     fit-margin-left="0"
     fit-margin-right="0"
     fit-margin-bottom="0"
     inkscape:window-width="472"
     inkscape:window-height="383"
     inkscape:window-x="1168"
     inkscape:window-y="525"
     inkscape:window-maximized="0" />
  <metadata
     id="metadata4302">
    <rdf:RDF>
      <cc:Work
         rdf:about="">
        <dc:format>image/svg+xml</dc:format>
        <dc:type
           rdf:resource="http://purl.org/dc/dcmitype/StillImage" />
        <dc:title></dc:title>
      </cc:Work>
    </rdf:RDF>
  </metadata>
  <g
     inkscape:label="Layer 1"
     inkscape:groupmode="layer"
     id="layer1"
     transform="translate(-402.12673,-558.59132)">
    <path
       inkscape:connector-curvature="0"
       id="path180"
       style="fill:#f6dcbf;fill-opacity:1;fill-rule:nonzero;stroke:none"
       d="m 445.81903,632.54684 c 1.3725,2.21875 4.2875,2.90375 6.50625,1.53 0.73,-0.45125 1.28375,-1.04875 1.65375,-1.73125 0.4575,-0.85875 1.39,-1.39625 2.135,-1.5125 0.12,-0.01 0.22875,-0.0125 0.33375,-0.015 0.775,-0.0275 1.5575,-0.25625 2.2725,-0.6975 2.235,-1.38375 2.92,-4.2975 1.5475,-6.51625 -0.74875,-1.21 -1.97625,-1.97625 -3.28,-2.17625 -0.205,-0.0238 -0.3875,-0.0375 -0.57875,-0.0712 -2.2825,-0.22 -3.1825,-0.1125 -4.345,-1.99 l -12.515,-20.2225 -6.395,3.95625 12.51625,20.2225 c 1.1625,1.8775 0.68,2.62625 -0.12,4.7325 -0.0712,0.195 -0.145,0.39 -0.21625,0.585 -0.405,1.25625 -0.26375,2.69625 0.485,3.90625" />
    <path
       inkscape:connector-curvature="0"
       id="path182"
       style="fill:#892e4d;fill-opacity:1;fill-rule:nonzero;stroke:none"
       d="m 452.29153,634.09809 c 0.0112,-0.007 0.0225,-0.0137 0.0337,-0.0213 0.006,-0.004 0.0112,-0.006 0.0175,-0.01 -0.006,0.004 -0.0113,0.006 -0.0175,0.01 -0.0113,0.008 -0.0225,0.0138 -0.0337,0.0213 l 0,0 m 6.4425,-3.98625 c 0,-10e-4 10e-4,-10e-4 0.002,-10e-4 l 0,0 c -0.001,0 -0.001,0 -0.002,10e-4 m 0.0863,-0.055 0,0 c 1.31,-0.85625 2.06125,-2.2475 2.14625,-3.6975 0.003,-0.005 0.006,-0.0113 0.009,-0.0163 -0.0838,1.45375 -0.83625,2.8525 -2.155,3.71375 m -13.48625,-1.41625 c 0.007,-0.0237 0.0163,-0.0475 0.025,-0.07 0.005,-0.0125 0.009,-0.0237 0.0137,-0.0362 -0.0125,0.035 -0.0263,0.07 -0.0387,0.10625" />
    <path
       inkscape:connector-curvature="0"
       id="path184"
       style="fill:#d1baa0;fill-opacity:1;fill-rule:nonzero;stroke:none"
       d="m 449.84403,634.78059 c -1.41625,0 -2.80125,-0.63375 -3.71875,-1.79625 -0.10875,-0.13875 -0.21125,-0.285 -0.30625,-0.4375 l 0,0 c -0.11625,-0.18875 -0.21875,-0.38375 -0.30625,-0.58125 -0.42625,-0.96875 -0.50375,-2.03125 -0.26875,-3.01 0.0263,-0.10625 0.0562,-0.21125 0.09,-0.315 l 0,0 c 0.0125,-0.0362 0.0263,-0.0712 0.0387,-0.10625 0.0613,-0.1575 0.12375,-0.3225 0.185,-0.4875 0.79875,-2.09875 1.275,-2.84875 0.1125,-4.72375 l 0,0 -8.6625,-14.0125 -10e-4,0.0125 -0.0125,-0.02 c 0.0375,-0.25375 0.16125,-0.46875 0.34625,-0.63875 0.28875,-0.2625 0.72625,-0.4175 1.21875,-0.44125 0.0412,-10e-4 0.085,-0.002 0.1275,-0.002 0.22,0 0.44875,0.0263 0.68,0.0788 2.20625,3.67375 4.24375,7.22 6.5025,10.8025 1.59625,2.5075 3.94,6.29625 3.76125,6.4925 -1.6325,1.805 -3.16,4.29375 -1.25125,6.095 0.48,0.44875 1.055,0.62625 1.62625,0.62625 0.82875,0 1.6475,-0.3725 2.15,-0.835 1.1325,-0.98125 1.725,-2.20625 3.26,-2.7475 2.43375,-0.8425 3.8975,0.64875 5.55125,-2.37375 -0.085,1.45 -0.83625,2.84125 -2.14625,3.6975 l 0.0362,-0.035 -0.12,0.0888 c -10e-4,0 -0.002,0 -0.002,0.001 -0.005,0.003 -0.01,0.006 -0.0138,0.009 l 0,0 c -0.006,0.004 -0.0112,0.007 -0.0175,0.01 -0.19,0.11625 -0.38375,0.2175 -0.5825,0.30375 -0.53875,0.235 -1.1,0.3575 -1.66375,0.375 l -0.1625,0.0125 c -0.0575,0.003 -0.1175,0.005 -0.18,0.0113 l 0,0 c -0.004,0 -0.006,10e-4 -0.009,10e-4 -0.74375,0.11875 -1.6725,0.65375 -2.12625,1.51125 l 0,0 c -0.13,0.2375 -0.28125,0.46625 -0.455,0.68125 -0.2875,0.35375 -0.63375,0.67375 -1.0375,0.94625 -0.002,10e-4 -0.006,0.004 -0.009,0.006 l -0.001,0 c -0.0437,0.03 -0.0888,0.0588 -0.13375,0.0875 -0.006,0.004 -0.0112,0.006 -0.0175,0.01 -0.0113,0.008 -0.0225,0.0138 -0.0337,0.0213 -0.76625,0.4625 -1.6125,0.6825 -2.4475,0.6825" />
    <path
       inkscape:connector-curvature="0"
       id="path186"
       style="fill:#f89c16;fill-opacity:1;fill-rule:nonzero;stroke:none"
       d="m 429.19903,603.03309 c 3.10875,1.55375 5.16125,3.425 8.24,7.58875 -1.53875,-2.08125 1.14375,-3.11125 2.9975,-1.855 0.18,-1.44125 0.2675,-3.105 0.43875,-4.5625 1.62,0.885 1.77,1.375 3.3875,1.49 -5.84125,-10.1575 -2.2075,-22.3325 -6.29125,-32.40375 -2.1075,-5.1375 -4.695,-8.9 -9.285,-11.9825 -3.085,-2.38625 -9.89125,-3.6275 -14.04125,-1.93375 -5.73625,2.54375 -9.34,4.54125 -11.4925,10.09875 -2.32375,5.99875 -0.37625,11.50625 2.6125,16.35875 6.16375,10.0025 14.21375,12.71375 23.43375,17.20125" />
    <path
       inkscape:connector-curvature="0"
       id="path188"
       style="fill:#b19e87;fill-opacity:1;fill-rule:nonzero;stroke:none"
       d="m 437.34028,608.66434 c 0.28875,-0.2625 0.725,-0.4175 1.21875,-0.44125 -0.4925,0.0238 -0.93,0.17875 -1.21875,0.44125" />
    <path
       inkscape:connector-curvature="0"
       id="path190"
       style="fill:#892e4d;fill-opacity:1;fill-rule:nonzero;stroke:none"
       d="m 444.26278,605.69184 -0.001,0 c -2.335,-4.0625 -3.155,-8.4475 -3.56,-12.89 0.002,0 0.005,0 0.007,0 0.41125,4.44625 1.225,8.815 3.55375,12.89 m -41.1087,-36.2225 c 10e-4,-0.004 0.003,-0.006 0.004,-0.01 0.19875,-0.52125 0.4225,-1.03125 0.6575,-1.51625 0.002,0.002 0.004,0.006 0.006,0.01 -0.23625,0.47375 -0.45875,0.97875 -0.6675,1.51625" />
    <path
       inkscape:connector-curvature="0"
       id="path192"
       style="fill:#d68618;fill-opacity:1;fill-rule:nonzero;stroke:none"
       d="m 437.27528,610.38809 c -1.6725,-2.2575 -3.0575,-3.8175 -4.48125,-5.015 -0.0362,-0.0312 -0.0738,-0.0625 -0.11125,-0.0925 -0.31375,-0.26125 -0.63,-0.50625 -0.9525,-0.7375 -0.2375,-0.17625 -0.48125,-0.34 -0.7325,-0.49625 -0.095,-0.0612 -0.19,-0.12125 -0.28625,-0.18 -0.47875,-0.3 -0.9725,-0.57 -1.50375,-0.83125 -0.57625,-0.2875 -1.15,-0.55125 -1.71375,-0.82625 -0.4525,-0.2125 -0.90125,-0.4225 -1.34625,-0.63125 -0.49125,-0.23 -0.97625,-0.4575 -1.46,-0.68625 -0.72625,-0.3425 -1.44375,-0.685 -2.155,-1.03125 l -0.0113,0 c -1.24625,-0.605 -2.4625,-1.21875 -3.65,-1.87125 -0.86,-0.4725 -1.70375,-0.96625 -2.5275,-1.49125 -0.98625,-0.625 -1.9475,-1.2875 -2.87375,-2.0125 -0.47625,-0.3625 -0.9375,-0.7375 -1.38875,-1.1375 -0.46125,-0.40125 -0.91125,-0.81375 -1.35,-1.25 -1.7625,-1.725 -3.4225,-3.7625 -4.96125,-6.2625 -2.98625,-4.8725 -4.925,-10.35625 -2.61625,-16.36625 0.20875,-0.5375 0.43125,-1.0425 0.6675,-1.51625 4.7175,7.76125 7.91125,14.54125 16.96625,19.19 6.69875,3.57875 13.2325,5.265 19.91375,5.65875 0.405,4.4425 1.225,8.8275 3.56,12.89 -1.615,-0.11625 -1.76625,-0.6025 -3.38625,-1.4875 l 0,0 c -0.17125,1.4575 -0.25875,3.12125 -0.43875,4.5625 l 0,0 c -0.5525,-0.375 -1.17875,-0.54625 -1.74625,-0.54625 -0.0438,0 -0.0888,10e-4 -0.13125,0.002 -0.49375,0.0238 -0.93,0.17875 -1.21875,0.44125 -0.41375,0.37625 -0.525,0.97375 -0.065,1.72375" />
    <path
       inkscape:connector-curvature="0"
       id="path194"
       style="fill:#d1d1cf;fill-opacity:1;fill-rule:nonzero;stroke:none"
       d="m 430.15778,653.77184 c -1.8675,0 -3.7125,-0.09 -5.53375,-0.26875 1.82,0.1775 3.6625,0.26875 5.52875,0.26875 0.26875,0 0.535,-10e-4 0.80375,-0.005 -0.26625,0.004 -0.5325,0.005 -0.79875,0.005" />
    <path
       inkscape:connector-curvature="0"
       id="path198"
       style="fill:#c6b099;fill-opacity:1;fill-rule:nonzero;stroke:none"
       d="m 449.84153,634.78559 c -1.425,0 -2.82125,-0.645 -3.73625,-1.8275 0.006,0.009 0.0125,0.0175 0.02,0.0263 0.91625,1.16625 2.3025,1.80125 3.7175,1.80125 0.8275,0 1.665,-0.2175 2.425,-0.67375 -0.76,0.45625 -1.5975,0.67375 -2.42625,0.67375 m 2.6175,-0.795 c 0.001,0 0.002,0 0.002,-10e-4 0,10e-4 -10e-4,10e-4 -0.002,10e-4 m 0.01,-0.006 c 0.002,-10e-4 0.005,-0.002 0.007,-0.005 l 0.001,0 c 0.002,-0.002 0.006,-0.005 0.009,-0.006 0.405,-0.2725 0.75125,-0.5925 1.0375,-0.94625 0.0462,-0.0575 0.0913,-0.115 0.135,-0.17375 -0.315,0.43 -0.71125,0.81375 -1.19,1.13125 m 3.8075,-3.16125 0.0175,-10e-4 c 0.0525,-10e-4 0.10375,-0.002 0.15375,-0.004 -0.0562,0.001 -0.1125,0.002 -0.17125,0.005 m 0.17125,-0.005 c 0.56375,-0.0213 1.13125,-0.14625 1.6725,-0.38375 0.0188,-0.008 0.0375,-0.0163 0.0562,-0.0238 -0.55875,0.2525 -1.14625,0.3875 -1.72875,0.4075 m 2.29375,-0.71125 c 0.002,-10e-4 0.004,-0.003 0.006,-0.004 -0.002,10e-4 -0.004,0.003 -0.006,0.004 m 0.0163,-0.01 c 0,0 0.001,-10e-4 0.002,-10e-4 -10e-4,0 -0.002,10e-4 -0.002,10e-4" />
    <path
       inkscape:connector-curvature="0"
       id="path200"
       style="fill:#6e273e;fill-opacity:1;fill-rule:nonzero;stroke:none"
       d="m 452.26778,634.11184 c 0.007,-0.005 0.0163,-0.009 0.0238,-0.0138 l 0,0 c -0.007,0.005 -0.0163,0.009 -0.0238,0.0138 m 6.46875,-4.00125 0,0 c 10e-4,-10e-4 0.004,-0.003 0.005,-0.004 -0.001,10e-4 -0.004,0.002 -0.005,0.004 m 0.0112,-0.008 c 0.004,-10e-4 0.006,-0.004 0.01,-0.006 -0.004,0.003 -0.006,0.005 -0.01,0.006 m 0.0125,-0.007 c 0.02,-0.0138 0.04,-0.0263 0.06,-0.0388 l 0,0 c -0.02,0.0125 -0.04,0.025 -0.06,0.0388 m -13.40125,-1.525 c 0.0625,-0.17125 0.1275,-0.3425 0.19125,-0.515 -0.0587,0.16 -0.1175,0.31875 -0.1775,0.47875 -0.005,0.0125 -0.009,0.0238 -0.0137,0.0362" />
    <path
       inkscape:connector-curvature="0"
       id="path202"
       style="fill:#a89682;fill-opacity:1;fill-rule:nonzero;stroke:none"
       d="m 449.84278,634.78559 c -1.415,0 -2.80125,-0.635 -3.7175,-1.80125 0.9175,1.1625 2.3025,1.79625 3.71875,1.79625 0.835,0 1.68125,-0.22 2.4475,-0.6825 -0.007,0.005 -0.0163,0.009 -0.0238,0.0138 -0.76,0.45625 -1.5975,0.67375 -2.425,0.67375 m 2.63375,-0.80625 0.001,0 -0.001,0 m 0.01,-0.006 c 0.40375,-0.2725 0.75,-0.5925 1.0375,-0.94625 -0.28625,0.35375 -0.6325,0.67375 -1.0375,0.94625 m -6.97375,-2.0075 c -0.27,-0.61125 -0.40125,-1.26125 -0.40125,-1.90375 0,-0.37375 0.045,-0.74625 0.1325,-1.10625 -0.235,0.97875 -0.1575,2.04125 0.26875,3.01 m 10.78125,-1.14375 0.1625,-0.0125 c 0.56375,-0.0175 1.125,-0.14 1.66375,-0.375 -0.54125,0.2375 -1.10875,0.3625 -1.6725,0.38375 l 0,0 c -0.05,10e-4 -0.10125,0.002 -0.15375,0.004 m 2.4425,-0.71125 0.12,-0.0888 -0.0362,0.035 c -0.02,0.0125 -0.04,0.025 -0.06,0.0388 -0.001,0 -0.002,10e-4 -0.002,10e-4 -0.004,0.003 -0.006,0.005 -0.01,0.006 -0.002,10e-4 -0.004,0.003 -0.006,0.004 -10e-4,0.001 -0.004,0.003 -0.005,0.004 m -13.36375,-1.57625 c 0.06,-0.16 0.11875,-0.31875 0.1775,-0.47875 l 0,0 c 0.4575,-1.20625 0.81125,-1.96625 0.8125,-2.7475 10e-4,-0.585 -0.195,-1.18125 -0.6925,-1.985 1.1625,1.875 0.68625,2.625 -0.1125,4.72375 -0.0612,0.165 -0.12375,0.33 -0.185,0.4875 m 0.2975,-5.21125 -8.66375,-14 0.001,-0.0125 8.6625,14.0125" />
    <path
       inkscape:connector-curvature="0"
       id="path204"
       style="fill:#cc801a;fill-opacity:1;fill-rule:nonzero;stroke:none"
       d="m 437.43903,610.62184 c -1.8675,-2.525 -3.3575,-4.2075 -4.93375,-5.48625 0.0587,0.0475 0.11875,0.0963 0.1775,0.145 1.46625,1.2225 2.87375,2.80875 4.59875,5.11875 -0.003,-0.004 -0.004,-0.007 -0.006,-0.0112 0.002,0.002 0.004,0.006 0.006,0.009 l -0.0588,-0.10875 c 0.06,0.10875 0.13125,0.22 0.21625,0.33375 m -5.67375,-6.05375 c -0.27,-0.19375 -0.54375,-0.37875 -0.82375,-0.5575 0.0188,0.0125 0.0375,0.0237 0.0562,0.0362 0.24875,0.15875 0.4925,0.32375 0.7325,0.49625 0.0113,0.009 0.0238,0.0175 0.035,0.025 m -0.9925,-0.6625 c -0.49875,-0.3075 -1.01875,-0.595 -1.57375,-0.8725 -9.16125,-4.46 -17.1675,-7.165 -23.31625,-17.0125 3.70875,5.9375 8.08875,9.27625 12.98875,11.96875 1.18875,0.655 2.40875,1.26875 3.65,1.87125 l 0,0 c 0.7125,0.345 1.43625,0.6875 2.16625,1.03125 0.4825,0.22875 0.97,0.45625 1.46,0.68625 1.0025,0.47125 2.02125,0.9525 3.055,1.45625 0.53,0.265 1.02875,0.53875 1.50875,0.8325 0.02,0.0125 0.0413,0.0263 0.0613,0.0388 m -25.03125,-18.1137 c -2.565,-4.17375 -4.35375,-8.8325 -3.31375,-13.87 -1.0325,5.03625 0.74875,9.685 3.31375,13.87 m -1.91,-17.83125 -0.007,-0.015 c 0.31,-0.62125 0.64375,-1.19125 1.0025,-1.71875 -0.36,0.53375 -0.69125,1.11 -0.995,1.73375" />
    <path
       inkscape:connector-curvature="0"
       id="path206"
       style="fill:#6e273e;fill-opacity:1;fill-rule:nonzero;stroke:none"
       d="m 405.88278,586.02059 c -0.0375,-0.0612 -0.0763,-0.1225 -0.115,-0.185 -0.009,-0.0138 -0.0175,-0.0288 -0.0263,-0.0438 0.007,0.0137 0.0163,0.0263 0.0238,0.04 0.0387,0.0638 0.0788,0.12625 0.1175,0.18875 m -3.455,-14.09875 c 0.16625,-0.80875 0.40375,-1.62625 0.7225,-2.45375 0.2075,-0.535 0.43,-1.0375 0.665,-1.52625 0,10e-4 0,10e-4 0,10e-4 -0.235,0.485 -0.45875,0.995 -0.6575,1.51625 -10e-4,0.004 -0.002,0.006 -0.004,0.01 0,0.001 0,0.002 -10e-4,0.004 -0.32,0.825 -0.55875,1.6425 -0.725,2.44875" />
    <path
       inkscape:connector-curvature="0"
       id="path208"
       style="fill:#ac6c1d;fill-opacity:1;fill-rule:nonzero;stroke:none"
       d="m 437.28153,610.39934 c -1.725,-2.31 -3.1325,-3.89625 -4.59875,-5.11875 0.0375,0.03 0.075,0.0612 0.11125,0.0925 1.42375,1.1975 2.80875,2.7575 4.48125,5.015 0.002,0.004 0.004,0.007 0.006,0.0112 m -5.55125,-5.85625 c -0.24,-0.1725 -0.48375,-0.3375 -0.7325,-0.49625 0.25125,0.15625 0.495,0.32 0.7325,0.49625 m -1.01875,-0.67625 c -0.48,-0.29375 -0.97875,-0.5675 -1.50875,-0.8325 -1.03375,-0.50375 -2.0525,-0.985 -3.055,-1.45625 0.445,0.20875 0.89375,0.41875 1.34625,0.63125 0.56375,0.275 1.1375,0.53875 1.71375,0.82625 0.53125,0.26125 1.025,0.53125 1.50375,0.83125 m -6.02375,-2.975 c -0.73,-0.34375 -1.45375,-0.68625 -2.16625,-1.03125 l 0.0112,0 c 0.71125,0.34625 1.42875,0.68875 2.155,1.03125 m -5.81625,-2.9025 c -4.9,-2.6925 -9.28,-6.03125 -12.98875,-11.96875 -0.0387,-0.0625 -0.0788,-0.125 -0.1175,-0.18875 -0.007,-0.0137 -0.0163,-0.0263 -0.0238,-0.04 -2.565,-4.185 -4.34625,-8.83375 -3.31375,-13.87 0.16625,-0.80625 0.405,-1.62375 0.725,-2.44875 0.001,-10e-4 0.001,-0.002 0.001,-0.004 -2.30875,6.01 -0.37,11.49375 2.61625,16.36625 1.53875,2.5 3.19875,4.5375 4.96125,6.2625 0.43875,0.43625 0.88875,0.84875 1.35,1.25 0.45125,0.4 0.9125,0.775 1.38875,1.1375 0.92625,0.725 1.8875,1.3875 2.87375,2.0125 0.82375,0.525 1.6675,1.01875 2.5275,1.49125" />
  </g>
</svg>
