<?xml version="1.0" encoding="UTF-8" standalone="no"?>
<!-- Created with Inkscape (http://www.inkscape.org/) -->

<svg
   xmlns:dc="http://purl.org/dc/elements/1.1/"
   xmlns:cc="http://creativecommons.org/ns#"
   xmlns:rdf="http://www.w3.org/1999/02/22-rdf-syntax-ns#"
   xmlns:svg="http://www.w3.org/2000/svg"
   xmlns="http://www.w3.org/2000/svg"
   xmlns:sodipodi="http://sodipodi.sourceforge.net/DTD/sodipodi-0.dtd"
   xmlns:inkscape="http://www.inkscape.org/namespaces/inkscape"
   width="68.53067"
   height="69.87664"
   id="svg4297"
   version="1.1"
   inkscape:version="0.48.4 r9939"
   sodipodi:docname="fish.svg">
  <defs
     id="defs4299" />
  <sodipodi:namedview
     id="base"
     pagecolor="#ffffff"
     bordercolor="#666666"
     borderopacity="1.0"
     inkscape:pageopacity="0.0"
     inkscape:pageshadow="2"
     inkscape:zoom="0.7"
     inkscape:cx="173.81195"
     inkscape:cy="77.99913"
     inkscape:document-units="px"
     inkscape:current-layer="layer1"
     showgrid="false"
     fit-margin-top="0"
     fit-margin-left="0"
     fit-margin-right="0"
     fit-margin-bottom="0"
     inkscape:window-width="472"
     inkscape:window-height="383"
     inkscape:window-x="894"
     inkscape:window-y="357"
     inkscape:window-maximized="0" />
  <metadata
     id="metadata4302">
    <rdf:RDF>
      <cc:Work
         rdf:about="">
        <dc:format>image/svg+xml</dc:format>
        <dc:type
           rdf:resource="http://purl.org/dc/dcmitype/StillImage" />
        <dc:title />
      </cc:Work>
    </rdf:RDF>
  </metadata>
  <g
     inkscape:label="Layer 1"
     inkscape:groupmode="layer"
     id="layer1"
     transform="translate(-307.8614,-633.01755)">
    <path
       inkscape:connector-curvature="0"
       id="path318"
       style="fill:#76b9d2;fill-opacity:1;fill-rule:nonzero;stroke:none"
       d="m 356.36282,682.76044 c -2.14875,0.1525 -4.33875,0.11 -6.5725,-0.16375 -4.39,-0.4975 -8.87625,-1.79625 -13.23125,-3.85125 -5.255,-2.4575 -10.30125,-6.01625 -14.8025,-10.64125 -2.99625,-3.07625 -5.50625,-6.39 -7.52875,-9.84625 -4.87875,-8.1975 -6.995,-17.11125 -6.205,-25.15625 8.0625,-0.5725 16.91625,1.7825 24.97875,6.88 3.4,2.11625 6.64625,4.7125 9.64125,7.79 4.3525,4.47125 7.7175,9.46 10.035,14.59875 3.0675,6.82625 4.33125,13.885 3.685,20.39" />
    <path
       inkscape:connector-curvature="0"
       id="path320"
       style="fill:#c1e6e9;fill-opacity:1;fill-rule:nonzero;stroke:none"
       d="m 364.54782,691.16794 c -0.6475,6.4125 -3.79375,8.91125 -4.6025,11.72625 -3.0075,-6.73625 -4.22875,-13.72125 -3.5825,-20.13375 6.42875,-0.475 13.37625,0.935 20.02875,4.12375 -2.835,0.7325 -5.415,3.80875 -11.84375,4.28375" />
    <path
       inkscape:connector-curvature="0"
       id="path322"
       style="fill:#c1e6e9;fill-opacity:1;fill-rule:nonzero;stroke:none"
       d="m 326.10532,651.67544 c -3.43125,3.34125 -7.54125,5.52125 -11.8775,6.5825 -4.87875,-8.1975 -6.995,-17.11125 -6.205,-25.15625 8.0625,-0.5725 16.91625,1.7825 24.97875,6.88 -1.1775,4.3075 -3.4675,8.35625 -6.89625,11.69375" />
    <path
       inkscape:connector-curvature="0"
       id="path324"
       style="fill:#100f0d;fill-opacity:1;fill-rule:nonzero;stroke:none"
       d="m 317.58282,641.27419 c -0.89875,0.87375 -2.335,0.855 -3.21125,-0.045 -0.87375,-0.8975 -0.85375,-2.33375 0.045,-3.20875 0.89875,-0.875 2.335,-0.8575 3.21,0.0412 0.875,0.89875 0.855,2.3375 -0.0438,3.2125" />
    <path
       inkscape:connector-curvature="0"
       id="path326"
       style="fill:#ffffff;fill-opacity:1;fill-rule:nonzero;stroke:none"
       d="m 316.70907,639.51419 c -0.405,0.395 -1.0525,0.3875 -1.4475,-0.0187 -0.39625,-0.40625 -0.38625,-1.05375 0.0188,-1.4475 0.405,-0.395 1.05375,-0.3875 1.44875,0.0187 0.395,0.405 0.385,1.05375 -0.02,1.4475" />
    <path
       inkscape:connector-curvature="0"
       id="path328"
       style="fill:#c1e6e9;fill-opacity:1;fill-rule:nonzero;stroke:none"
       d="m 352.67782,662.37044 c -2.3175,-5.13875 -5.6825,-10.1275 -10.03375,-14.59875 -2.99625,-3.0775 -6.2425,-5.67375 -9.6425,-7.79 2.15875,0.10375 3.165,0.675 5.42625,1.0675 1.50625,0.41375 3.74625,0.64125 5.72875,1.32125 -1.0525,0.96125 -2.37625,2.12625 -3.12375,2.61375 2.545,1.87875 5.205,2.8975 6.79625,4.89875 -0.37875,0.01 -1.2875,0.1775 -2.01875,0.56125 0.7475,0.58375 2.42875,1.57375 3.12625,2.325 2.29625,2.3875 -0.745,1.53125 0.20875,2.54125 1.1175,1.20625 2.58,2.55875 2.5825,3.51 -0.0188,1.3 0.67875,1.2175 0.95,3.55" />
    <path
       inkscape:connector-curvature="0"
       id="path330"
       style="fill:#c1e6e9;fill-opacity:1;fill-rule:nonzero;stroke:none"
       d="m 345.48532,685.77169 c -3.04625,-2.46375 -2.82,-2.8075 -8.92625,-7.02625 4.355,2.055 8.84125,3.35375 13.23125,3.85125 -1.85125,1.50875 -2.7975,2.395 -4.305,3.175" />
    <path
       inkscape:connector-curvature="0"
       id="path332"
       style="fill:#dff1f1;fill-opacity:1;fill-rule:nonzero;stroke:none"
       d="m 356.36407,682.76169 c -2.195,-3.17375 -24.39375,-27.93875 -29.05,-32.32375 0.645,-0.71625 1.26,-1.46375 1.78375,-2.2425 22.53875,23.09125 27.26625,34.56625 27.26625,34.56625" />
    <path
       inkscape:connector-curvature="0"
       id="path338"
       style="fill:#5c94aa;fill-opacity:1;fill-rule:nonzero;stroke:none"
       d="m 353.91032,682.84794 c -1.3575,0 -2.73,-0.0812 -4.12,-0.25125 -0.002,0 -0.005,-10e-4 -0.007,-10e-4 10e-4,-10e-4 0.004,-0.003 0.005,-0.005 1.385,0.17125 2.75,0.25 4.09875,0.25 0.83,0 1.65375,-0.03 2.4725,-0.0863 10e-4,0.001 0.002,0.004 0.004,0.005 0,10e-4 0,10e-4 0,10e-4 -0.81125,0.0575 -1.63,0.0875 -2.4525,0.0875 m -17.31625,-4.085 c -0.0112,-0.006 -0.0238,-0.0113 -0.035,-0.0175 -5.255,-2.4575 -10.30125,-6.01625 -14.8025,-10.64125 -2.99625,-3.07625 -5.50625,-6.39 -7.52875,-9.84625 0,-10e-4 0,-10e-4 0,-10e-4 2.025,3.44875 4.5375,6.7725 7.535,9.8475 4.50125,4.625 9.55125,8.175 14.8,10.63625 0.0113,0.008 0.0213,0.015 0.0312,0.0225" />
    <path
       inkscape:connector-curvature="0"
       id="path340"
       style="fill:#99b9bb;fill-opacity:1;fill-rule:nonzero;stroke:none"
       d="m 359.94532,702.89419 c -3.0075,-6.73625 -4.22875,-13.72125 -3.5825,-20.13375 l 0,0 10e-4,0 c -0.6375,6.4075 0.575,13.39 3.58375,20.1225 -10e-4,0.004 -10e-4,0.007 -0.002,0.0112 m 4.60625,-11.72625 c 0,-0.001 0,-0.001 0,-0.003 2.2725,-0.1675 4.065,-0.66 5.5575,-1.26 -1.4925,0.6 -3.28375,1.09375 -5.5575,1.2625 m 10.9175,-3.9675 c 0.3075,-0.12875 0.61125,-0.2375 0.91875,-0.3175 10e-4,0 0.002,0 0.004,10e-4 -0.30875,0.08 -0.615,0.1875 -0.9225,0.31625" />
    <path
       inkscape:connector-curvature="0"
       id="path342"
       style="fill:#99b9bb;fill-opacity:1;fill-rule:nonzero;stroke:none"
       d="m 314.22782,658.25794 c -4.21125,-7.0775 -6.365,-14.6875 -6.36625,-21.8125 0,-1.12625 0.0538,-2.24 0.16125,-3.33875 l 0.004,-0.004 c -0.7875,8.0375 1.325,16.95125 6.2,25.15125 l 0.001,0.003 c 0,0 0,0 0,10e-4 l 0,0" />
    <path
       inkscape:connector-curvature="0"
       id="path344"
       style="fill:#cc801a;fill-opacity:1;fill-rule:nonzero;stroke:none"
       d="m 356.36407,682.75919 c 0,0 -0.001,0 -0.001,-10e-4 0,-10e-4 0.001,-0.003 0.001,-0.005 l 0,0 c 0,0.002 0,0.005 0,0.006" />
    <path
       inkscape:connector-curvature="0"
       id="path346"
       style="fill:#5c94aa;fill-opacity:1;fill-rule:nonzero;stroke:none"
       d="m 356.36282,682.75794 c 0,-10e-4 -10e-4,-0.003 -10e-4,-0.005 0,0 10e-4,0 0.002,0 0,0.002 -10e-4,0.004 -10e-4,0.005" />
    <path
       inkscape:connector-curvature="0"
       id="path348"
       style="fill:#99b9bb;fill-opacity:1;fill-rule:nonzero;stroke:none"
       d="m 345.48532,685.77169 c -3.04625,-2.46375 -2.82,-2.8075 -8.92625,-7.02625 0.0112,0.006 0.0237,0.0113 0.035,0.0175 6.07,4.205 5.85125,4.545 8.895,7.0025 0.365,-0.1875 0.6975,-0.38125 1.01625,-0.58875 -0.32,0.21 -0.65375,0.40625 -1.02,0.595 m 2.1125,-1.38375 c 0.62875,-0.4925 1.30375,-1.07125 2.185,-1.7925 0.002,0 0.005,10e-4 0.007,10e-4 -0.88375,0.72 -1.56125,1.29875 -2.1925,1.79125" />
    <path
       inkscape:connector-curvature="0"
       id="path350"
       style="fill:#b3c1c0;fill-opacity:1;fill-rule:nonzero;stroke:none"
       d="m 356.36407,682.76044 -0.001,0 c 0,-10e-4 0,-10e-4 0,-10e-4 -10e-4,-0.001 -0.002,-0.004 -0.004,-0.005 0.001,0 0.001,-0.001 0.002,-0.001 0,0.002 0.001,0.004 0.001,0.005 0,0.001 10e-4,0.001 10e-4,0.001 0,10e-4 0,0 0,10e-4" />
  </g>
</svg>
