<?xml version="1.0" encoding="UTF-8" standalone="no"?>
<!-- Created with Inkscape (http://www.inkscape.org/) -->

<svg
   xmlns:dc="http://purl.org/dc/elements/1.1/"
   xmlns:cc="http://creativecommons.org/ns#"
   xmlns:rdf="http://www.w3.org/1999/02/22-rdf-syntax-ns#"
   xmlns:svg="http://www.w3.org/2000/svg"
   xmlns="http://www.w3.org/2000/svg"
   xmlns:sodipodi="http://sodipodi.sourceforge.net/DTD/sodipodi-0.dtd"
   xmlns:inkscape="http://www.inkscape.org/namespaces/inkscape"
   width="166"
   height="166.015"
   id="svg5535"
   version="1.1"
   inkscape:version="0.48.4 r9939"
   sodipodi:docname="icecream.svg">
  <defs
     id="defs5537" />
  <sodipodi:namedview
     id="base"
     pagecolor="#ffffff"
     bordercolor="#666666"
     borderopacity="1.0"
     inkscape:pageopacity="0.0"
     inkscape:pageshadow="2"
     inkscape:zoom="1.4"
     inkscape:cx="81.759948"
     inkscape:cy="78.740029"
     inkscape:document-units="px"
     inkscape:current-layer="layer1"
     showgrid="false"
     fit-margin-top="0"
     fit-margin-left="0"
     fit-margin-right="0"
     fit-margin-bottom="0"
     inkscape:window-width="472"
     inkscape:window-height="383"
     inkscape:window-x="393"
     inkscape:window-y="821"
     inkscape:window-maximized="0" />
  <metadata
     id="metadata5540">
    <rdf:RDF>
      <cc:Work
         rdf:about="">
        <dc:format>image/svg+xml</dc:format>
        <dc:type
           rdf:resource="http://purl.org/dc/dcmitype/StillImage" />
        <dc:title />
      </cc:Work>
    </rdf:RDF>
  </metadata>
  <g
     inkscape:label="Layer 1"
     inkscape:groupmode="layer"
     id="layer1"
     transform="translate(-350.48871,-466.83639)">
    <path
       inkscape:connector-curvature="0"
       id="path230"
       style="fill:#ffffff;fill-opacity:1;fill-rule:nonzero;stroke:none"
       d="m 471.58494,503.08746 c 0,19.23125 -15.59125,34.8225 -34.82249,34.8225 -19.2315,0 -34.82225,-15.59125 -34.82225,-34.8225 0,-19.23375 15.59075,-34.8225 34.82225,-34.8225 19.23124,0 34.82249,15.58875 34.82249,34.8225" />
    <path
       inkscape:connector-curvature="0"
       id="path232"
       style="fill:#963d1d;fill-opacity:1;fill-rule:nonzero;stroke:none"
       d="m 436.76245,522.02996 34.71375,0 -17.35625,56.12625 -17.3575,56.12375 -17.3565,-56.12375 -17.35738,-56.12625 34.71388,0" />
    <path
       inkscape:connector-curvature="0"
       id="path234"
       style="fill:#ce7a1b;fill-opacity:1;fill-rule:nonzero;stroke:none"
       d="m 437.94119,565.42121 9.50392,0 0,-13.835 -9.50392,0 0,13.835 z" />
    <path
       inkscape:connector-curvature="0"
       id="path236"
       style="fill:#ce7a1b;fill-opacity:1;fill-rule:nonzero;stroke:none"
       d="m 437.94119,549.22871 9.50392,0 0,-13.28462 -9.50392,0 0,13.28462 z" />
    <path
       inkscape:connector-curvature="0"
       id="path238"
       style="fill:#ce7a1b;fill-opacity:1;fill-rule:nonzero;stroke:none"
       d="m 437.94119,578.15621 9.50392,0 0,-10.37646 -9.50392,0 0,10.37646 z" />
    <path
       inkscape:connector-curvature="0"
       id="path240"
       style="fill:#ce7a1b;fill-opacity:1;fill-rule:nonzero;stroke:none"
       d="m 426.92894,565.42121 8.65431,0 0,-13.835 -8.65431,0 0,13.835 z" />
    <path
       inkscape:connector-curvature="0"
       id="path242"
       style="fill:#ce7a1b;fill-opacity:1;fill-rule:nonzero;stroke:none"
       d="m 415.84595,565.42121 8.72461,0 0,-13.835 -8.72461,0 0,13.835 z" />
    <path
       inkscape:connector-curvature="0"
       id="path244"
       style="fill:#ce7a1b;fill-opacity:1;fill-rule:nonzero;stroke:none"
       d="m 460.88745,533.58621 7.01499,0 3.57376,-11.55625 -10.58875,0 0,11.55625" />
    <path
       inkscape:connector-curvature="0"
       id="path246"
       style="fill:#ce7a1b;fill-opacity:1;fill-rule:nonzero;stroke:none"
       d="m 426.92894,549.22871 8.65431,0 0,-13.28462 -8.65431,0 0,13.28462 z" />
    <path
       inkscape:connector-curvature="0"
       id="path248"
       style="fill:#ce7a1b;fill-opacity:1;fill-rule:nonzero;stroke:none"
       d="m 449.80369,567.77996 0,10.37625 4.31626,0 3.20749,-10.37625 -7.52375,0" />
    <path
       inkscape:connector-curvature="0"
       id="path250"
       style="fill:#ce7a1b;fill-opacity:1;fill-rule:nonzero;stroke:none"
       d="m 435.58319,596.43121 -8.65425,0 0,6.0525 3.08788,9.98375 5.56637,0 0,-16.03625" />
    <path
       inkscape:connector-curvature="0"
       id="path252"
       style="fill:#ce7a1b;fill-opacity:1;fill-rule:nonzero;stroke:none"
       d="m 419.40595,578.15621 5.16462,0 0,-10.37625 -8.37312,0 3.2085,10.37625" />
    <path
       inkscape:connector-curvature="0"
       id="path254"
       style="fill:#ce7a1b;fill-opacity:1;fill-rule:nonzero;stroke:none"
       d="m 420.13457,580.51496 4.19375,13.55875 0.24225,0 0,-13.55875 -4.436,0" />
    <path
       inkscape:connector-curvature="0"
       id="path256"
       style="fill:#ce7a1b;fill-opacity:1;fill-rule:nonzero;stroke:none"
       d="m 449.80369,580.51496 0,11.59625 3.58625,-11.59625 -3.58625,0" />
    <path
       inkscape:connector-curvature="0"
       id="path258"
       style="fill:#ce7a1b;fill-opacity:1;fill-rule:nonzero;stroke:none"
       d="m 437.94119,594.07371 9.50392,0 0,-13.55862 -9.50392,0 0,13.55862 z" />
    <path
       inkscape:connector-curvature="0"
       id="path260"
       style="fill:#ce7a1b;fill-opacity:1;fill-rule:nonzero;stroke:none"
       d="m 426.92894,594.07371 8.65431,0 0,-13.55862 -8.65431,0 0,13.55862 z" />
    <path
       inkscape:connector-curvature="0"
       id="path262"
       style="fill:#ce7a1b;fill-opacity:1;fill-rule:nonzero;stroke:none"
       d="m 426.92894,578.15621 8.65431,0 0,-10.37646 -8.65431,0 0,10.37646 z" />
    <path
       inkscape:connector-curvature="0"
       id="path264"
       style="fill:#ce7a1b;fill-opacity:1;fill-rule:nonzero;stroke:none"
       d="m 437.94119,614.82621 0,15.64125 4.83751,-15.64125 -4.83751,0" />
    <path
       inkscape:connector-curvature="0"
       id="path266"
       style="fill:#ce7a1b;fill-opacity:1;fill-rule:nonzero;stroke:none"
       d="m 413.48757,551.58621 -2.29838,0 2.29838,7.4325 0,-7.4325" />
    <path
       inkscape:connector-curvature="0"
       id="path268"
       style="fill:#ce7a1b;fill-opacity:1;fill-rule:nonzero;stroke:none"
       d="m 435.58319,614.82621 -4.83687,0 4.83687,15.64125 0,-15.64125" />
    <path
       inkscape:connector-curvature="0"
       id="path270"
       style="fill:#ce7a1b;fill-opacity:1;fill-rule:nonzero;stroke:none"
       d="m 410.45969,549.22871 3.02788,0 0,-13.285 -7.13575,0 4.10787,13.285" />
    <path
       inkscape:connector-curvature="0"
       id="path272"
       style="fill:#ce7a1b;fill-opacity:1;fill-rule:nonzero;stroke:none"
       d="m 460.88745,535.94371 0,13.285 2.1775,0 4.10874,-13.285 -6.28624,0" />
    <path
       inkscape:connector-curvature="0"
       id="path274"
       style="fill:#ce7a1b;fill-opacity:1;fill-rule:nonzero;stroke:none"
       d="m 460.88745,551.58621 0,4.685 1.44749,-4.685 -1.44749,0" />
    <path
       inkscape:connector-curvature="0"
       id="path276"
       style="fill:#ce7a1b;fill-opacity:1;fill-rule:nonzero;stroke:none"
       d="m 413.48757,533.58621 0,-11.55625 -11.439,0 3.57375,11.55625 7.86525,0" />
    <path
       inkscape:connector-curvature="0"
       id="path278"
       style="fill:#ce7a1b;fill-opacity:1;fill-rule:nonzero;stroke:none"
       d="m 415.84595,549.22871 8.72461,0 0,-13.28462 -8.72461,0 0,13.28462 z" />
    <path
       inkscape:connector-curvature="0"
       id="path280"
       style="fill:#ce7a1b;fill-opacity:1;fill-rule:nonzero;stroke:none"
       d="m 415.84595,533.58621 8.72461,0 0,-11.55664 -8.72461,0 0,11.55664 z" />
    <path
       inkscape:connector-curvature="0"
       id="path282"
       style="fill:#ce7a1b;fill-opacity:1;fill-rule:nonzero;stroke:none"
       d="m 449.80369,549.22871 8.7251,0 0,-13.28462 -8.7251,0 0,13.28462 z" />
    <path
       inkscape:connector-curvature="0"
       id="path284"
       style="fill:#ce7a1b;fill-opacity:1;fill-rule:nonzero;stroke:none"
       d="m 449.80369,533.58621 8.7251,0 0,-11.55664 -8.7251,0 0,11.55664 z" />
    <path
       inkscape:connector-curvature="0"
       id="path286"
       style="fill:#ce7a1b;fill-opacity:1;fill-rule:nonzero;stroke:none"
       d="m 447.44495,599.73621 0,-3.305 -9.50376,0 0,16.03625 5.56626,0 3.9375,-12.73125" />
    <path
       inkscape:connector-curvature="0"
       id="path288"
       style="fill:#ce7a1b;fill-opacity:1;fill-rule:nonzero;stroke:none"
       d="m 449.80369,551.58621 0,13.835 8.25376,0 0.47125,-1.52375 0,-12.31125 -8.72501,0" />
    <path
       inkscape:connector-curvature="0"
       id="path290"
       style="fill:#ce7a1b;fill-opacity:1;fill-rule:nonzero;stroke:none"
       d="m 426.92894,533.58621 8.65431,0 0,-11.55664 -8.65431,0 0,11.55664 z" />
    <path
       inkscape:connector-curvature="0"
       id="path292"
       style="fill:#ce7a1b;fill-opacity:1;fill-rule:nonzero;stroke:none"
       d="m 437.94119,533.58621 9.50392,0 0,-11.55664 -9.50392,0 0,11.55664 z" />
    <path
       inkscape:connector-curvature="0"
       id="path294"
       style="fill:#ffffff;fill-opacity:1;fill-rule:nonzero;stroke:none"
       d="m 475.89369,516.05746 c 0,-3.63125 -2.97124,-6.6025 -6.60375,-6.6025 l -65.05487,0 c -3.63175,0 -6.6035,2.97125 -6.6035,6.6025 l 0,0.31375 c 0,3.6325 2.97175,6.60375 6.6035,6.60375 l 65.05487,0 c 3.6325,0 6.60375,-2.97125 6.60375,-6.60375 l 0,-0.31375" />
    <path
       inkscape:connector-curvature="0"
       id="path296"
       style="fill:#602918;fill-opacity:1;fill-rule:nonzero;stroke:none"
       d="m 470.86744,496.02746 c -3.26374,-15.8475 -17.29249,-27.7625 -34.10499,-27.7625 -17.67438,0 -32.26313,13.17 -34.51176,30.23 2.16313,1.54875 4.80613,2.47 7.669,2.47 4.81588,0 9.01751,-2.58625 11.32463,-6.4375 0.61575,0.0888 1.24075,0.15 1.88088,0.15 3.31649,0 6.33837,-1.23375 8.65825,-3.25125 1.59037,5.50625 6.659,9.53875 12.67899,9.53875 5.11251,0 9.53875,-2.91125 11.73251,-7.1625 1.45999,0.55625 3.03749,0.875 4.6925,0.875 1.65749,0 3.23874,-0.32 4.70249,-0.87875 1.54501,1.1 3.33751,1.875 5.27751,2.22875" />
  </g>
</svg>
