<?xml version="1.0" encoding="UTF-8" standalone="no"?>
<!-- Created with Inkscape (http://www.inkscape.org/) -->

<svg
   xmlns:dc="http://purl.org/dc/elements/1.1/"
   xmlns:cc="http://creativecommons.org/ns#"
   xmlns:rdf="http://www.w3.org/1999/02/22-rdf-syntax-ns#"
   xmlns:svg="http://www.w3.org/2000/svg"
   xmlns="http://www.w3.org/2000/svg"
   xmlns:sodipodi="http://sodipodi.sourceforge.net/DTD/sodipodi-0.dtd"
   xmlns:inkscape="http://www.inkscape.org/namespaces/inkscape"
   width="132.11"
   height="132.10635"
   id="svg5535"
   version="1.1"
   inkscape:version="0.48.4 r9939"
   sodipodi:docname="New document 5">
  <defs
     id="defs5537" />
  <sodipodi:namedview
     id="base"
     pagecolor="#ffffff"
     bordercolor="#666666"
     borderopacity="1.0"
     inkscape:pageopacity="0.0"
     inkscape:pageshadow="2"
     inkscape:zoom="0.35"
     inkscape:cx="51.09452"
     inkscape:cy="66.053127"
     inkscape:document-units="px"
     inkscape:current-layer="layer1"
     showgrid="false"
     fit-margin-top="0"
     fit-margin-left="0"
     fit-margin-right="0"
     fit-margin-bottom="0"
     inkscape:window-width="472"
     inkscape:window-height="383"
     inkscape:window-x="1011"
     inkscape:window-y="646"
     inkscape:window-maximized="0" />
  <metadata
     id="metadata5540">
    <rdf:RDF>
      <cc:Work
         rdf:about="">
        <dc:format>image/svg+xml</dc:format>
        <dc:type
           rdf:resource="http://purl.org/dc/dcmitype/StillImage" />
        <dc:title></dc:title>
      </cc:Work>
    </rdf:RDF>
  </metadata>
  <g
     inkscape:label="Layer 1"
     inkscape:groupmode="layer"
     id="layer1"
     transform="translate(-323.90548,-466.30896)">
    <path
       inkscape:connector-curvature="0"
       id="path836"
       style="fill:#f4f5f5;fill-opacity:1;fill-rule:nonzero;stroke:none"
       d="m 385.31673,483.61656 -41.41125,0 12.85125,114.79875 57.12,0 12.85125,-114.79875 -41.41125,0" />
    <path
       inkscape:connector-curvature="0"
       id="path838"
       style="fill:#f8a540;fill-opacity:1;fill-rule:nonzero;stroke:none"
       d="m 352.04298,505.84906 9.38,85.615 47.7875,0 10.25625,-85.615 -67.42375,0" />
    <path
       inkscape:connector-curvature="0"
       id="path842"
       style="fill:#f78921;fill-opacity:1;fill-rule:nonzero;stroke:none"
       d="m 409.21048,591.46406 -23.89375,0 0,-85.615 34.15,0 -10.25625,85.615" />
    <path
       inkscape:connector-curvature="0"
       id="path302-3"
       style="fill:#f89a41;fill-opacity:1;fill-rule:nonzero;stroke:none"
       d="m 440.35202,472.04906 c -3.10375,-3.10375 -7.39375,-5.02375 -12.13125,-5.02375 -4.7375,0 -9.02625,1.92 -12.13,5.02375 -3.10625,3.10625 -5.02625,7.39625 -5.02625,12.13375 0,4.7375 1.92,9.025 5.02625,12.13125 3.10375,3.10375 7.3925,5.025 12.13,5.025 4.7375,0 9.0275,-1.92125 12.13125,-5.025 3.105,-3.10625 5.025,-7.39375 5.025,-12.13125 0,-4.7375 -1.92,-9.0275 -5.025,-12.13375" />
    <path
       inkscape:connector-curvature="0"
       id="path304-6"
       style="fill:#f9f036;fill-opacity:1;fill-rule:nonzero;stroke:none"
       d="m 440.34202,495.28781 -5.5,-5.49875 -4.88875,-4.89 14.6925,0 c -0.165,3.88375 -1.675,7.52625 -4.30375,10.38875 m -11.40375,5.3175 0,-14.69125 10.39,10.38875 c -2.8625,2.62875 -6.50625,4.1375 -10.39,4.3025 m -11.82375,-4.3025 10.39,-10.38875 0,14.69125 c -3.88375,-0.165 -7.52625,-1.67375 -10.39,-4.3025 m -5.3175,-11.40375 14.69375,0 -5.195,5.195 -5.195,5.19375 c -2.63,-2.8625 -4.13875,-6.505 -4.30375,-10.38875 m 4.30375,-11.82375 5.90625,5.9075 4.48375,4.4825 -14.69375,0 c 0.165,-3.88375 1.67375,-7.52625 4.30375,-10.39 m 11.40375,-5.3175 0,14.69375 -10.39,-10.39 c 2.86375,-2.62875 6.50625,-4.1375 10.39,-4.30375 m 11.82375,4.30375 -10.39,10.39 0,-14.69375 c 3.88375,0.16625 7.52625,1.675 10.39,4.30375 m 5.3175,11.40375 -14.6925,0 3.9125,-3.91375 6.47625,-6.47625 c 2.62875,2.86375 4.13875,6.50625 4.30375,10.39 m 1.43125,0 c -0.16625,-4.2675 -1.825,-8.26625 -4.7225,-11.4025 l 0.0125,-0.0138 -0.5075,-0.505 -0.5075,-0.5075 -0.0112,0.0125 c -3.13625,-2.89875 -7.13625,-4.55625 -11.4025,-4.72375 l 0,-0.0163 -1.43375,0 0,0.0163 c -4.26625,0.1675 -8.2675,1.825 -11.4025,4.72375 l -0.0112,-0.0125 -0.5075,0.5075 -0.5075,0.505 0.0125,0.0138 c -2.89875,3.13625 -4.55625,7.135 -4.72375,11.4025 l -0.0163,0 0,1.43375 0.0163,0 c 0.1675,4.26625 1.825,8.26625 4.72375,11.4025 l -0.0125,0.0125 0.5075,0.50625 0.5075,0.5075 0.0112,-0.0138 c 3.135,2.9 7.13625,4.55625 11.4025,4.72375 l 0,0.0175 1.43375,0 0,-0.0175 c 4.26625,-0.1675 8.2675,-1.82375 11.4025,-4.72375 l 0.0112,0.0138 0.5075,-0.5075 0.5075,-0.50625 -0.0125,-0.0125 c 2.8975,-3.13625 4.55625,-7.13625 4.7225,-11.4025 l 0.0175,0 0,-1.43375 -0.0175,0" />
    <path
       inkscape:connector-curvature="0"
       id="path840"
       style="fill:#dadad9;fill-opacity:1;fill-rule:nonzero;stroke:none"
       d="m 413.87673,598.41531 -28.56,0 0,-6.95125 23.89375,0 10.25625,-85.615 -34.15,0 0,-22.2325 41.41125,0 -12.85125,114.79875" />
  </g>
</svg>
