<?xml version="1.0" encoding="UTF-8" standalone="no"?>
<!-- Created with Inkscape (http://www.inkscape.org/) -->

<svg
   xmlns:dc="http://purl.org/dc/elements/1.1/"
   xmlns:cc="http://creativecommons.org/ns#"
   xmlns:rdf="http://www.w3.org/1999/02/22-rdf-syntax-ns#"
   xmlns:svg="http://www.w3.org/2000/svg"
   xmlns="http://www.w3.org/2000/svg"
   xmlns:sodipodi="http://sodipodi.sourceforge.net/DTD/sodipodi-0.dtd"
   xmlns:inkscape="http://www.inkscape.org/namespaces/inkscape"
   width="39.576248"
   height="92.917503"
   id="svg4297"
   version="1.1"
   inkscape:version="0.48.4 r9939"
   sodipodi:docname="chocolate.svg">
  <defs
     id="defs4299" />
  <sodipodi:namedview
     id="base"
     pagecolor="#ffffff"
     bordercolor="#666666"
     borderopacity="1.0"
     inkscape:pageopacity="0.0"
     inkscape:pageshadow="2"
     inkscape:zoom="0.7"
     inkscape:cx="107.53409"
     inkscape:cy="32.045121"
     inkscape:document-units="px"
     inkscape:current-layer="layer1"
     showgrid="false"
     fit-margin-top="0"
     fit-margin-left="0"
     fit-margin-right="0"
     fit-margin-bottom="0"
     inkscape:window-width="472"
     inkscape:window-height="383"
     inkscape:window-x="1168"
     inkscape:window-y="525"
     inkscape:window-maximized="0" />
  <metadata
     id="metadata4302">
    <rdf:RDF>
      <cc:Work
         rdf:about="">
        <dc:format>image/svg+xml</dc:format>
        <dc:type
           rdf:resource="http://purl.org/dc/dcmitype/StillImage" />
        <dc:title></dc:title>
      </cc:Work>
    </rdf:RDF>
  </metadata>
  <g
     inkscape:label="Layer 1"
     inkscape:groupmode="layer"
     id="layer1"
     transform="translate(47.763712,-564.02268)">
    <path
       inkscape:connector-curvature="0"
       id="path526"
       style="fill:#e8e7e6;fill-opacity:1;fill-rule:nonzero;stroke:none"
       d="m -8.1874622,586.59018 0,50.7625 -39.5374998,0 0,-50.7625 5.8625,-16.6375 0,-4.4 c 0,-0.8375 0.6875,-1.525 1.5375,-1.525 l 24.7375,0 c 0.85,0 1.5375,0.6875 1.5375,1.525 l 0,4.4 5.8624998,16.6375" />
    <path
       inkscape:connector-curvature="0"
       id="path528"
       style="fill:#ffffff;fill-opacity:1;fill-rule:nonzero;stroke:none"
       d="m -47.763712,637.35643 27.7895,0 0,-50.76125 -27.7895,0 0,50.76125 z" />
    <path
       inkscape:connector-curvature="0"
       id="path530"
       style="fill:#e8e7e6;fill-opacity:1;fill-rule:nonzero;stroke:none"
       d="m -19.973712,637.35643 11.7402398,0 0,-50.76125 -11.7402398,0 0,50.76125 z" />
    <path
       inkscape:connector-curvature="0"
       id="path532"
       style="fill:#e8e7e6;fill-opacity:1;fill-rule:nonzero;stroke:none"
       d="m -8.2337122,586.59518 -5.8624998,-1.53 0,-15.11875 5.8624998,16.64875" />
    <path
       inkscape:connector-curvature="0"
       id="path534"
       style="fill:#cdccca;fill-opacity:1;fill-rule:nonzero;stroke:none"
       d="m -14.096212,569.94643 0,15.11875 -5.8775,1.53 4.7925,-13.5575 1.085,-3.09125" />
    <path
       inkscape:connector-curvature="0"
       id="path536"
       style="fill:#f5f5f5;fill-opacity:1;fill-rule:nonzero;stroke:none"
       d="m -8.2337122,586.59518 -11.7399998,0 5.8775,-1.53 5.8624998,1.53" />
    <path
       inkscape:connector-curvature="0"
       id="path538"
       style="fill:#f5f5f5;fill-opacity:1;fill-rule:nonzero;stroke:none"
       d="m -14.096212,569.47018 0,0.47625 -1.085,3.09125 -4.7925,13.5575 -27.79,0 5.86125,-16.64875 0,-0.47625 27.80625,0" />
    <path
       inkscape:connector-curvature="0"
       id="path540"
       style="fill:#ffffff;fill-opacity:1;fill-rule:nonzero;stroke:none"
       d="m -14.096212,565.55268 0,4.39375 -27.80625,0 0,-4.39375 c 0,-0.84 0.6875,-1.53 1.53,-1.53 l 24.74625,0 c 0.84125,0 1.53,0.69 1.53,1.53" />
    <path
       inkscape:connector-curvature="0"
       id="path542"
       style="fill:#8cd7e4;fill-opacity:1;fill-rule:nonzero;stroke:none"
       d="m -19.973712,620.18643 0,17.17 -27.79,0 0,-4.635 c 3.9325,2.15875 8.73875,2.54 12.22875,-0.95125 2.43125,-2.43375 3.57875,-5.23375 6.50375,-7.40625 2.57,-2.02 5.73875,-3.5025 9.0575,-4.1775" />
    <path
       inkscape:connector-curvature="0"
       id="path544"
       style="fill:#b6e7ed;fill-opacity:1;fill-rule:nonzero;stroke:none"
       d="m -19.973712,617.86018 0,2.32625 c -3.31875,0.675 -6.4875,2.1575 -9.0575,4.1775 -2.925,2.1725 -4.0725,4.9725 -6.50375,7.40625 -3.49,3.49125 -8.29625,3.11 -12.22875,0.95125 l 0,-7.60625 c 0.68875,0.48875 1.3475,0.68875 2.4175,0.535 3.06,-0.6425 6.88625,-2.8175 9.81125,-3.9625 2.555,-1.0125 5.11,-2.29625 7.65125,-3.0625 2.4325,-0.78125 5.20375,-0.84125 7.91,-0.765" />
    <path
       inkscape:connector-curvature="0"
       id="path546"
       style="fill:#ddf4f7;fill-opacity:1;fill-rule:nonzero;stroke:none"
       d="m -19.973712,615.81018 0,2.05 c -2.70625,-0.0763 -5.4775,-0.0163 -7.91,0.765 -2.54125,0.76625 -5.09625,2.05 -7.65125,3.0625 -2.925,1.145 -6.75125,3.32 -9.81125,3.9625 -1.07,0.15375 -1.72875,-0.0462 -2.4175,-0.535 l 0,-9.50375 c 1.02375,0.90375 2.09625,1.7 3.18375,2.24875 2.1575,1.02625 3.68875,0.13875 5.86125,-0.24375 6.335,-1.43875 12.41125,-2.005 18.745,-1.80625" />
    <path
       inkscape:connector-curvature="0"
       id="path548"
       style="fill:#a5d4da;fill-opacity:1;fill-rule:nonzero;stroke:none"
       d="m -17.667462,613.88768 7.9072198,0 0,-24.99613 -7.9072198,0 0,24.99613 z" />
    <path
       inkscape:connector-curvature="0"
       id="path550"
       style="fill:#65858d;fill-opacity:1;fill-rule:nonzero;stroke:none"
       d="m -17.436212,634.64768 0.74756,0 0,-8.54493 -0.74756,0 0,8.54493 z" />
    <path
       inkscape:connector-curvature="0"
       id="path552"
       style="fill:#65858d;fill-opacity:1;fill-rule:nonzero;stroke:none"
       d="m -16.316212,633.69768 1.02636,0 0,-7.59473 -1.02636,0 0,7.59473 z" />
    <path
       inkscape:connector-curvature="0"
       id="path554"
       style="fill:#65858d;fill-opacity:1;fill-rule:nonzero;stroke:none"
       d="m -14.823712,633.69768 0.50244,0 0,-7.59473 -0.50244,0 0,7.59473 z" />
    <path
       inkscape:connector-curvature="0"
       id="path556"
       style="fill:#65858d;fill-opacity:1;fill-rule:nonzero;stroke:none"
       d="m -13.876212,633.69768 0.74365,0 0,-7.59473 -0.74365,0 0,7.59473 z" />
    <path
       inkscape:connector-curvature="0"
       id="path558"
       style="fill:#65858d;fill-opacity:1;fill-rule:nonzero;stroke:none"
       d="m -12.758712,633.69768 0.37597,0 0,-7.59473 -0.37597,0 0,7.59473 z" />
    <path
       inkscape:connector-curvature="0"
       id="path560"
       style="fill:#65858d;fill-opacity:1;fill-rule:nonzero;stroke:none"
       d="m -12.094962,633.69768 0.375,0 0,-7.59473 -0.375,0 0,7.59473 z" />
    <path
       inkscape:connector-curvature="0"
       id="path562"
       style="fill:#65858d;fill-opacity:1;fill-rule:nonzero;stroke:none"
       d="m -11.488712,633.69768 0.53857,0 0,-7.59473 -0.53857,0 0,7.59473 z" />
    <path
       inkscape:connector-curvature="0"
       id="path564"
       style="fill:#65858d;fill-opacity:1;fill-rule:nonzero;stroke:none"
       d="m -10.787462,634.64768 0.74267,0 0,-8.54493 -0.74267,0 0,8.54493 z" />
    <path
       inkscape:connector-curvature="0"
       id="path566"
       style="fill:#8cd7e4;fill-opacity:1;fill-rule:nonzero;stroke:none"
       d="m -35.996212,605.11143 -0.0387,0.11125 -0.1275,0.0788 -0.2425,0.05 c -0.1025,0.009 -0.235,0.0138 -0.39375,0.0138 -0.1625,0 -0.2925,-0.005 -0.39625,-0.0138 l -0.2475,-0.05 -0.12875,-0.0788 -0.0337,-0.11125 0,-3.39625 c 0,-0.1925 -0.0175,-0.3675 -0.0538,-0.5275 -0.0387,-0.1575 -0.0925,-0.2925 -0.17,-0.4075 l -0.28125,-0.26125 c -0.1125,-0.0625 -0.24875,-0.0925 -0.4075,-0.0925 -0.19375,0 -0.38625,0.075 -0.58375,0.22375 -0.19625,0.15 -0.41,0.36875 -0.64125,0.655 l 0,3.80625 -0.0375,0.11125 -0.13,0.0788 -0.25,0.05 c -0.1025,0.009 -0.23125,0.0138 -0.385,0.0138 -0.1575,0 -0.28625,-0.005 -0.39125,-0.0138 l -0.2475,-0.05 -0.13125,-0.0788 -0.0375,-0.11125 0,-3.39625 c 0,-0.1925 -0.0188,-0.3675 -0.055,-0.5275 -0.0375,-0.1575 -0.09,-0.2925 -0.1625,-0.4075 l -0.2825,-0.26125 c -0.12,-0.0625 -0.25125,-0.0925 -0.405,-0.0925 -0.19875,0 -0.39375,0.075 -0.59125,0.22375 -0.1975,0.15 -0.40625,0.36875 -0.635,0.655 l 0,3.80625 -0.0375,0.11125 -0.13375,0.0788 -0.245,0.05 c -0.105,0.009 -0.235,0.0138 -0.3925,0.0138 -0.15875,0 -0.28875,-0.005 -0.39,-0.0138 l -0.24875,-0.05 -0.13125,-0.0788 -0.0387,-0.11125 0,-5.725 0.0312,-0.11125 0.11625,-0.0812 0.21625,-0.0475 c 0.0863,-0.0113 0.1975,-0.0175 0.33,-0.0175 0.13625,0 0.24875,0.006 0.34125,0.0175 l 0.2075,0.0475 0.10625,0.0812 0.0312,0.11125 0,0.66125 c 0.3175,-0.34375 0.6325,-0.60125 0.94625,-0.77125 0.31625,-0.17 0.64375,-0.25625 0.98625,-0.25625 0.235,0 0.44625,0.0263 0.63375,0.075 0.19,0.0475 0.3575,0.1175 0.505,0.21125 0.14625,0.0937 0.275,0.20125 0.38,0.33 0.1075,0.12875 0.19875,0.27125 0.2725,0.43125 0.1675,-0.185 0.3375,-0.3425 0.50125,-0.475 0.165,-0.1325 0.3275,-0.24 0.4875,-0.32625 0.16,-0.0813 0.32,-0.145 0.48125,-0.185 0.16,-0.0412 0.32375,-0.0612 0.49125,-0.0612 0.3825,0 0.7025,0.0638 0.9625,0.19 0.26125,0.13125 0.47,0.305 0.63125,0.525 0.1625,0.22 0.27625,0.47875 0.345,0.77375 0.0675,0.29625 0.10125,0.6075 0.10125,0.9375 l 0,3.665" />
    <path
       inkscape:connector-curvature="0"
       id="path568"
       style="fill:#8cd7e4;fill-opacity:1;fill-rule:nonzero;stroke:none"
       d="m -32.793712,605.11143 -0.0387,0.11125 -0.1325,0.0788 -0.245,0.05 c -0.10375,0.009 -0.235,0.0138 -0.39125,0.0138 -0.16,0 -0.29125,-0.005 -0.3925,-0.0138 l -0.24875,-0.05 -0.13,-0.0788 -0.0387,-0.11125 0,-5.71125 0.0387,-0.11375 0.13,-0.0825 0.24875,-0.055 c 0.10125,-0.0137 0.2325,-0.02 0.3925,-0.02 0.15625,0 0.2875,0.006 0.39125,0.02 l 0.245,0.055 0.1325,0.0825 0.0387,0.11375 0,5.71125 z m 0.1225,-7.66375 c 0,0.32625 -0.0675,0.55 -0.2,0.67375 -0.1325,0.125 -0.37875,0.1875 -0.7375,0.1875 -0.36375,0 -0.60875,-0.06 -0.735,-0.17875 -0.1275,-0.12125 -0.19,-0.335 -0.19,-0.64875 0,-0.3275 0.0662,-0.5525 0.19625,-0.67625 0.13,-0.1275 0.3775,-0.1925 0.7425,-0.1925 0.3575,0 0.6025,0.065 0.73125,0.18625 0.12875,0.11875 0.1925,0.3375 0.1925,0.64875" />
    <path
       inkscape:connector-curvature="0"
       id="path570"
       style="fill:#8cd7e4;fill-opacity:1;fill-rule:nonzero;stroke:none"
       d="m -29.567462,605.11143 -0.0387,0.11125 -0.13125,0.0788 -0.24625,0.05 c -0.1025,0.009 -0.2325,0.0138 -0.39,0.0138 -0.15875,0 -0.29,-0.005 -0.39375,-0.0138 l -0.24375,-0.05 -0.1325,-0.0788 -0.0387,-0.11125 0,-8.44 0.0387,-0.115 0.1325,-0.0863 0.24375,-0.0562 c 0.10375,-0.0125 0.235,-0.0187 0.39375,-0.0187 0.1575,0 0.2875,0.006 0.39,0.0187 l 0.24625,0.0562 0.13125,0.0863 0.0387,0.115 0,8.44" />
    <path
       inkscape:connector-curvature="0"
       id="path572"
       style="fill:#8cd7e4;fill-opacity:1;fill-rule:nonzero;stroke:none"
       d="m -22.637462,605.11768 -0.035,0.1125 -0.1275,0.0737 -0.255,0.0475 c -0.105,0.009 -0.24375,0.0138 -0.4175,0.0138 -0.17375,0 -0.315,-0.003 -0.42375,-0.0125 l -0.27,-0.0425 -0.1625,-0.08 -0.105,-0.135 -1.905,-3.015 0,3.03125 -0.0388,0.11125 -0.13,0.0788 -0.24875,0.05 c -0.1025,0.009 -0.23375,0.0138 -0.39,0.0138 -0.15875,0 -0.29,-0.005 -0.39375,-0.0138 l -0.24625,-0.05 -0.13125,-0.0788 -0.0387,-0.11125 0,-8.44 0.0387,-0.115 0.13125,-0.0863 0.24625,-0.0562 c 0.10375,-0.0125 0.235,-0.0187 0.39375,-0.0187 0.15625,0 0.2875,0.006 0.39,0.0187 l 0.24875,0.0562 0.13,0.0863 0.0388,0.115 0,5.025 1.695,-2.28 0.115,-0.1325 0.16875,-0.09 0.26375,-0.0475 c 0.10625,-0.0113 0.23875,-0.0175 0.40125,-0.0175 0.15625,0 0.29125,0.006 0.4,0.0175 l 0.265,0.0475 0.13875,0.0812 0.0362,0.11875 -0.0475,0.205 -0.14375,0.23 -1.6775,1.9 1.94,2.99625 0.11125,0.21875 0.035,0.17375" />
    <path
       inkscape:connector-curvature="0"
       id="path574"
       style="fill:#d1d1cf;fill-opacity:1;fill-rule:nonzero;stroke:none"
       d="m -28.924962,656.94018 0,0 c 0.37375,0 0.75125,-0.004 1.125,-0.0113 -0.375,0.0113 -0.74875,0.0113 -1.125,0.0113" />
    <path
       inkscape:connector-curvature="0"
       id="path578"
       style="fill:#d1d1cf;fill-opacity:1;fill-rule:nonzero;stroke:none"
       d="m -47.763712,637.35643 0,-50.76125 10e-4,0 0,29.0175 c -10e-4,0 -10e-4,0 -10e-4,-10e-4 l 0,21.745 m 10e-4,-12.24 c -10e-4,-10e-4 -10e-4,-10e-4 -10e-4,-10e-4 0,0 0,0 10e-4,10e-4 l 0,0" />
    <path
       inkscape:connector-curvature="0"
       id="path580"
       style="fill:#bab9b8;fill-opacity:1;fill-rule:nonzero;stroke:none"
       d="m -19.973712,637.35643 11.7402398,0 0,-0.004 -11.7402398,0 0,0.004 z" />
    <path
       inkscape:connector-curvature="0"
       id="path582"
       style="fill:#c5c4c2;fill-opacity:1;fill-rule:nonzero;stroke:none"
       d="m -47.762462,586.59518 -10e-4,0 10e-4,-0.004 0,0.004" />
    <path
       inkscape:connector-curvature="0"
       id="path584"
       style="fill:#d1d1cf;fill-opacity:1;fill-rule:nonzero;stroke:none"
       d="m -41.902462,569.94393 0,-4.39125 c 0,-0.12625 0.015,-0.2475 0.0438,-0.365 -0.0275,0.1175 -0.0425,0.23875 -0.0425,0.36625 l 0,4.38625 -10e-4,0.004 m 0.27375,-5.2625 c 0.0263,-0.0375 0.055,-0.075 0.085,-0.11 l 0.0188,-0.0187 c -0.0375,0.0412 -0.0713,0.0838 -0.10375,0.12875" />
    <path
       inkscape:connector-curvature="0"
       id="path586"
       style="fill:#6dacb8;fill-opacity:1;fill-rule:nonzero;stroke:none"
       d="m -19.973712,637.35643 -27.79,0 0,-4.635 c 0,0 0,0 10e-4,0 l 0,4.63125 27.78875,0 0,0.004" />
    <path
       inkscape:connector-curvature="0"
       id="path588"
       style="fill:#91bcc0;fill-opacity:1;fill-rule:nonzero;stroke:none"
       d="m -47.762462,632.72143 c -10e-4,0 -10e-4,0 -10e-4,0 l 0,-7.60625 c 0,0 0,0 10e-4,10e-4 l 0,7.605" />
    <path
       inkscape:connector-curvature="0"
       id="path590"
       style="fill:#b1c7c8;fill-opacity:1;fill-rule:nonzero;stroke:none"
       d="m -47.762462,625.11643 c -10e-4,-0.001 -10e-4,-0.001 -10e-4,-0.001 l 0,-9.50375 c 0,10e-4 0,10e-4 10e-4,10e-4 l 0,9.50375" />
  </g>
</svg>
