<?xml version="1.0" encoding="UTF-8" standalone="no"?>
<!-- Created with Inkscape (http://www.inkscape.org/) -->

<svg
   xmlns:dc="http://purl.org/dc/elements/1.1/"
   xmlns:cc="http://creativecommons.org/ns#"
   xmlns:rdf="http://www.w3.org/1999/02/22-rdf-syntax-ns#"
   xmlns:svg="http://www.w3.org/2000/svg"
   xmlns="http://www.w3.org/2000/svg"
   xmlns:sodipodi="http://sodipodi.sourceforge.net/DTD/sodipodi-0.dtd"
   xmlns:inkscape="http://www.inkscape.org/namespaces/inkscape"
   id="svg2"
   version="1.1"
   inkscape:version="0.48.4 r9939"
   width="158.21875"
   height="125.56311"
   xml:space="preserve"
   sodipodi:docname="31106-NY9QGO.ai"><metadata
     id="metadata8"><rdf:RDF><cc:Work
         rdf:about=""><dc:format>image/svg+xml</dc:format><dc:type
           rdf:resource="http://purl.org/dc/dcmitype/StillImage" /><dc:title></dc:title></cc:Work></rdf:RDF></metadata><defs
     id="defs6"><clipPath
       clipPathUnits="userSpaceOnUse"
       id="clipPath16"><path
         d="M 0,800 800,800 800,0 0,0 0,800 z"
         id="path18"
         inkscape:connector-curvature="0" /></clipPath><clipPath
       clipPathUnits="userSpaceOnUse"
       id="clipPath24"><path
         d="M -4.88281e-4,800 800,800 800,0 -4.88281e-4,0 l 0,800 z"
         id="path26"
         inkscape:connector-curvature="0" /></clipPath><clipPath
       clipPathUnits="userSpaceOnUse"
       id="clipPath28"><path
         d="M 800,0 0,0 0,800 800,800 800,0 z"
         id="path30"
         inkscape:connector-curvature="0" /></clipPath><clipPath
       clipPathUnits="userSpaceOnUse"
       id="clipPath32"><path
         d="m -32768,32767 65535,0 0,-65535 -65535,0 0,65535 z"
         id="path34"
         inkscape:connector-curvature="0" /></clipPath><radialGradient
       fx="0"
       fy="0"
       cx="0"
       cy="0"
       r="1"
       gradientUnits="userSpaceOnUse"
       gradientTransform="matrix(563.45984,0,0,-563.45984,400,400)"
       spreadMethod="pad"
       id="radialGradient36"><stop
         style="stop-opacity:0;stop-color:#ffffff"
         offset="0"
         id="stop38" /><stop
         style="stop-opacity:0.29999237;stop-color:#ffffff"
         offset="1"
         id="stop40" /></radialGradient><mask
       maskUnits="userSpaceOnUse"
       x="0"
       y="0"
       width="1"
       height="1"
       id="mask42"><g
         id="g44"><g
           clip-path="url(#clipPath32)"
           id="g46"><g
             id="g48"><g
               id="g50"><path
                 d="m -32768,32767 65535,0 0,-65535 -65535,0 0,65535 z"
                 style="fill:url(#radialGradient36);stroke:none"
                 id="path52"
                 inkscape:connector-curvature="0" /></g></g></g></g></mask><radialGradient
       fx="0"
       fy="0"
       cx="0"
       cy="0"
       r="1"
       gradientUnits="userSpaceOnUse"
       gradientTransform="matrix(563.45984,0,0,-563.45984,400,400)"
       spreadMethod="pad"
       id="radialGradient54"><stop
         style="stop-opacity:1;stop-color:#ffffff"
         offset="0"
         id="stop56" /><stop
         style="stop-opacity:1;stop-color:#1d1e1c"
         offset="1"
         id="stop58" /></radialGradient><clipPath
       clipPathUnits="userSpaceOnUse"
       id="clipPath206"><path
         d="M 0,800 800,800 800,0 0,0 0,800 z"
         id="path208"
         inkscape:connector-curvature="0" /></clipPath><clipPath
       clipPathUnits="userSpaceOnUse"
       id="clipPath218"><path
         d="m 48.701,400 c 0,-57.009 46.214,-103.222 103.223,-103.222 l 0,0 c 57.007,0 103.221,46.213 103.221,103.222 l 0,0 c 0,57.007 -46.214,103.222 -103.221,103.222 l 0,0 C 94.915,503.222 48.701,457.007 48.701,400"
         id="path220"
         inkscape:connector-curvature="0" /></clipPath><clipPath
       clipPathUnits="userSpaceOnUse"
       id="clipPath226"><path
         d="m 80.7168,448.12 261.2252,0 0,-215.055 -261.2252,0 0,215.055 z"
         id="path228"
         inkscape:connector-curvature="0" /></clipPath><clipPath
       clipPathUnits="userSpaceOnUse"
       id="clipPath242"><path
         d="M 0,800 800,800 800,0 0,0 0,800 z"
         id="path244"
         inkscape:connector-curvature="0" /></clipPath><clipPath
       clipPathUnits="userSpaceOnUse"
       id="clipPath322"><path
         d="M 296.778,656.262 C 296.778,599.254 342.992,553.04 400,553.04 l 0,0 c 57.009,0 103.222,46.214 103.222,103.222 l 0,0 c 0,57.009 -46.213,103.223 -103.222,103.223 l 0,0 c -57.008,0 -103.222,-46.214 -103.222,-103.223"
         id="path324"
         inkscape:connector-curvature="0" /></clipPath><clipPath
       clipPathUnits="userSpaceOnUse"
       id="clipPath330"><path
         d="m 335.681,720.583 247.452,0 0,-247.453 -247.452,0 0,247.453 z"
         id="path332"
         inkscape:connector-curvature="0" /></clipPath><clipPath
       clipPathUnits="userSpaceOnUse"
       id="clipPath346"><path
         d="M 0,800 800,800 800,0 0,0 0,800 z"
         id="path348"
         inkscape:connector-curvature="0" /></clipPath><clipPath
       clipPathUnits="userSpaceOnUse"
       id="clipPath414"><path
         d="m 48.701,656.262 c 0,-57.008 46.214,-103.222 103.223,-103.222 l 0,0 c 57.007,0 103.221,46.214 103.221,103.222 l 0,0 c 0,57.009 -46.214,103.223 -103.221,103.223 l 0,0 c -57.009,0 -103.223,-46.214 -103.223,-103.223"
         id="path416"
         inkscape:connector-curvature="0" /></clipPath><clipPath
       clipPathUnits="userSpaceOnUse"
       id="clipPath422"><path
         d="m 64.3442,685.077 293.9718,0 0,-176.448 -293.9718,0 0,176.448 z"
         id="path424"
         inkscape:connector-curvature="0" /></clipPath><clipPath
       clipPathUnits="userSpaceOnUse"
       id="clipPath438"><path
         d="M 0,800 800,800 800,0 0,0 0,800 z"
         id="path440"
         inkscape:connector-curvature="0" /></clipPath><clipPath
       clipPathUnits="userSpaceOnUse"
       id="clipPath466"><path
         d="m 544.855,656.262 c 0,-57.008 46.215,-103.222 103.223,-103.222 l 0,0 c 57.007,0 103.22,46.214 103.22,103.222 l 0,0 c 0,57.009 -46.213,103.223 -103.22,103.223 l 0,0 c -57.008,0 -103.223,-46.214 -103.223,-103.223"
         id="path468"
         inkscape:connector-curvature="0" /></clipPath><clipPath
       clipPathUnits="userSpaceOnUse"
       id="clipPath474"><path
         d="m 569.702,717.029 275.564,0 0,-282.802 -275.564,0 0,282.802 z"
         id="path476"
         inkscape:connector-curvature="0" /></clipPath><clipPath
       clipPathUnits="userSpaceOnUse"
       id="clipPath490"><path
         d="M 0,800 800,800 800,0 0,0 0,800 z"
         id="path492"
         inkscape:connector-curvature="0" /></clipPath><clipPath
       clipPathUnits="userSpaceOnUse"
       id="clipPath542"><path
         d="m 48.701,143.738 c 0,-57.009 46.214,-103.223 103.223,-103.223 l 0,0 c 57.007,0 103.221,46.214 103.221,103.223 l 0,0 c 0,57.008 -46.214,103.223 -103.221,103.223 l 0,0 c -57.009,0 -103.223,-46.215 -103.223,-103.223"
         id="path544"
         inkscape:connector-curvature="0" /></clipPath><clipPath
       clipPathUnits="userSpaceOnUse"
       id="clipPath550"><path
         d="m 111.203,216.359 200.253,0 0,-264.0553 -200.253,0 0,264.0553 z"
         id="path552"
         inkscape:connector-curvature="0" /></clipPath><clipPath
       clipPathUnits="userSpaceOnUse"
       id="clipPath566"><path
         d="M 0,800 800,800 800,0 0,0 0,800 z"
         id="path568"
         inkscape:connector-curvature="0" /></clipPath><clipPath
       clipPathUnits="userSpaceOnUse"
       id="clipPath606"><path
         d="M 296.778,143.738 C 296.778,86.729 342.992,40.515 400,40.515 l 0,0 c 57.009,0 103.222,46.214 103.222,103.223 l 0,0 c 0,57.008 -46.213,103.223 -103.222,103.223 l 0,0 c -57.008,0 -103.222,-46.215 -103.222,-103.223"
         id="path608"
         inkscape:connector-curvature="0" /></clipPath><clipPath
       clipPathUnits="userSpaceOnUse"
       id="clipPath614"><path
         d="m 345.516,215.363 227.783,0 0,-262.0632 -227.783,0 0,262.0632 z"
         id="path616"
         inkscape:connector-curvature="0" /></clipPath><clipPath
       clipPathUnits="userSpaceOnUse"
       id="clipPath630"><path
         d="M 0,800 800,800 800,0 0,0 0,800 z"
         id="path632"
         inkscape:connector-curvature="0" /></clipPath><clipPath
       clipPathUnits="userSpaceOnUse"
       id="clipPath662"><path
         d="m 544.855,400 c 0,-57.009 46.215,-103.222 103.223,-103.222 l 0,0 c 57.007,0 103.22,46.213 103.22,103.222 l 0,0 c 0,57.007 -46.213,103.222 -103.22,103.222 l 0,0 C 591.07,503.222 544.855,457.007 544.855,400"
         id="path664"
         inkscape:connector-curvature="0" /></clipPath><clipPath
       clipPathUnits="userSpaceOnUse"
       id="clipPath670"><path
         d="m 596.945,475.013 221.078,0 0,-268.839 -221.078,0 0,268.839 z"
         id="path672"
         inkscape:connector-curvature="0" /></clipPath><clipPath
       clipPathUnits="userSpaceOnUse"
       id="clipPath686"><path
         d="M 0,800 800,800 800,0 0,0 0,800 z"
         id="path688"
         inkscape:connector-curvature="0" /></clipPath><clipPath
       clipPathUnits="userSpaceOnUse"
       id="clipPath742"><path
         d="m 296.778,400 c 0,-57.009 46.214,-103.222 103.222,-103.222 l 0,0 c 57.009,0 103.222,46.213 103.222,103.222 l 0,0 c 0,57.007 -46.213,103.222 -103.222,103.222 l 0,0 C 342.992,503.222 296.778,457.007 296.778,400"
         id="path744"
         inkscape:connector-curvature="0" /></clipPath><clipPath
       clipPathUnits="userSpaceOnUse"
       id="clipPath750"><path
         d="m 336.712,444.482 245.389,0 0,-219.263 -245.389,0 0,219.263 z"
         id="path752"
         inkscape:connector-curvature="0" /></clipPath><clipPath
       clipPathUnits="userSpaceOnUse"
       id="clipPath766"><path
         d="M 0,800 800,800 800,0 0,0 0,800 z"
         id="path768"
         inkscape:connector-curvature="0" /></clipPath><clipPath
       clipPathUnits="userSpaceOnUse"
       id="clipPath866"><path
         d="m 544.855,143.738 c 0,-57.009 46.215,-103.223 103.223,-103.223 l 0,0 c 57.007,0 103.22,46.214 103.22,103.223 l 0,0 c 0,57.008 -46.213,103.223 -103.22,103.223 l 0,0 c -57.008,0 -103.223,-46.215 -103.223,-103.223"
         id="path868"
         inkscape:connector-curvature="0" /></clipPath><clipPath
       clipPathUnits="userSpaceOnUse"
       id="clipPath874"><path
         d="m 582.054,190.709 250.861,0 0,-212.7539 -250.861,0 0,212.7539 z"
         id="path876"
         inkscape:connector-curvature="0" /></clipPath><clipPath
       clipPathUnits="userSpaceOnUse"
       id="clipPath890"><path
         d="M 0,800 800,800 800,0 0,0 0,800 z"
         id="path892"
         inkscape:connector-curvature="0" /></clipPath></defs><sodipodi:namedview
     pagecolor="#ffffff"
     bordercolor="#666666"
     borderopacity="1"
     objecttolerance="10"
     gridtolerance="10"
     guidetolerance="10"
     inkscape:pageopacity="0"
     inkscape:pageshadow="2"
     inkscape:window-width="1357"
     inkscape:window-height="1323"
     id="namedview4"
     showgrid="false"
     fit-margin-top="0"
     fit-margin-left="0"
     fit-margin-right="0"
     fit-margin-bottom="0"
     inkscape:zoom="0.6675088"
     inkscape:cx="-261.32706"
     inkscape:cy="365.79387"
     inkscape:window-x="65"
     inkscape:window-y="24"
     inkscape:window-maximized="0"
     inkscape:current-layer="g10" /><g
     id="g10"
     inkscape:groupmode="layer"
     inkscape:label="31106-NY9QGO"
     transform="matrix(1.25,0,0,-1.25,-420.89,555.60311)"><g
       id="g770"
       transform="translate(460.0488,410.1597)"><path
         d="m 0,0 c -0.005,0.015 0,0.027 -0.007,0.043 -0.195,0.523 -0.389,1.413 -0.804,1.827 -0.504,0.505 0.118,1.414 -0.508,1.795 -0.671,0.406 -1.185,0.226 -1.474,1.278 -0.133,0.486 -0.46,0.716 -0.909,0.795 -1.066,0.188 -4.244,3.732 -4.469,4.779 -0.102,0.487 -0.59,1.206 -1.121,1.351 -1.274,0.35 -0.725,1.14 -0.913,1.972 -0.054,0.235 -0.31,0.439 -0.555,0.422 -1.133,-0.079 -2.568,-0.774 -2.918,1.021 -0.186,0.951 -0.175,1.907 -0.359,2.855 -0.056,0.291 -0.488,0.561 -0.735,0.629 -1.014,0.279 -1.422,-0.651 -2.207,0.689 -0.986,1.682 -2.415,-0.655 -3.294,1 -0.141,0.265 -0.583,0.464 -0.875,0.464 -1.267,0 -1.779,-0.561 -2.331,0.89 -0.103,0.271 -0.392,0.519 -0.707,0.401 -0.361,-0.137 -2.047,-1.213 -2.025,-0.029 0.004,0.336 -0.273,0.807 -0.567,0.971 -1.923,1.077 -3.772,2.214 -5.356,3.73 -0.242,0.231 -0.564,0.201 -0.811,0 -2.098,-1.729 -2.058,1.652 -3.637,0.974 -0.144,-0.062 -4.031,0.728 -4.222,0.893 -0.19,0.164 -0.47,0.238 -0.695,0.09 -1.185,-0.773 -2.544,-4.042 -3.805,-1.517 -0.143,0.286 -0.524,0.347 -0.785,0.206 -0.911,-0.493 -1.923,-1.841 -2.304,-0.212 -0.058,0.247 -0.304,0.421 -0.554,0.421 -1.26,0 -1.583,2.265 -2.752,2.23 -0.512,-0.015 -0.851,-0.057 -1.33,-0.282 -0.204,-0.097 -0.996,1.365 -1.282,1.688 -0.166,0.19 -0.484,0.215 -0.695,0.089 -0.429,-0.257 -1.344,-1.044 -1.314,-0.125 0.01,0.345 -0.068,0.567 -0.261,0.836 -0.173,0.243 -0.507,0.392 -0.785,0.207 -1.312,-0.875 -2.82,-0.589 -3.673,0.712 -0.168,0.256 -0.382,0.269 -0.67,0.313 -1.445,0.217 -2.986,-0.04 -4.462,0.383 -0.57,0.163 -1.589,-0.303 -2.085,-0.363 -1.509,-0.181 -1.091,0.607 -1.985,0.854 -1.22,0.335 -1.657,-1.425 -2.806,-0.85 -0.168,0.085 -0.415,0.126 -0.579,0 -0.437,-0.336 -0.807,-0.657 -1.169,-1.082 -0.893,-1.048 -1.75,-0.604 -2.846,-0.303 -1.58,0.434 -2.636,-1.94 -4.032,-1.623 -0.279,0.063 -0.484,-0.047 -0.65,-0.263 -0.244,-0.32 -0.418,-0.684 -0.532,-1.071 -0.473,-1.6 -1.211,-2.437 -2.573,-3.394 -0.83,-0.585 -0.681,-1.607 -1.794,-0.615 -0.263,0.233 -0.821,0.38 -1.143,0.192 -1.048,-0.614 -1.635,0.473 -2.673,0.37 -1.352,-0.136 -1.469,-1.11 -2.988,-0.079 -0.61,0.414 -1.106,0.517 -1.804,0.339 -0.24,-0.062 -0.859,-1.094 -0.926,-1.035 -0.819,0.717 -1.28,1.713 -2.39,1.934 -0.188,0.038 -0.428,0.015 -0.559,-0.147 -0.427,-0.534 -1.309,-2.226 -2.009,-1.894 -0.545,0.258 -0.87,0.309 -1.351,-0.171 -0.228,-0.229 -0.581,-2.267 -0.671,-2.246 -0.68,0.157 -1.274,-0.872 -1.612,-1.226 -1.348,-1.409 -2.14,-0.749 -2.954,-2.447 -0.348,-0.727 -0.792,-1.409 -1.196,-2.098 -0.423,-0.722 -0.272,-1.824 -0.517,-2.564 -0.253,-0.755 -1.022,-0.957 -1.154,-1.743 -0.236,-1.396 -0.008,-1.302 -1.243,-1.179 -0.186,0.019 -0.413,-0.12 -0.496,-0.283 -0.307,-0.617 -0.933,-0.825 -1.18,-1.312 -0.411,-0.808 -0.581,-1.562 -1.049,-2.361 -0.535,-0.913 -0.786,-1.582 -1.76,-2.153 -0.645,-0.378 -0.67,-1.258 -0.757,-2.029 -0.188,0.124 -0.368,0.181 -0.79,0.14 -0.234,-0.024 -0.514,-0.156 -0.553,-0.422 -0.043,-0.281 -0.056,-0.559 -0.078,-0.835 -0.184,-0.079 -0.329,-0.241 -0.336,-0.497 -0.016,-0.572 -0.065,-1.092 0.165,-1.614 -0.044,-0.314 0.131,-0.665 0.54,-0.665 l 118.277,0 C 0.114,-0.946 0.255,-0.329 0,0"
         style="fill:#f2f2f2;fill-opacity:1;fill-rule:nonzero;stroke:none"
         id="path772"
         inkscape:connector-curvature="0" /></g><g
       id="g774"
       transform="translate(340.0127,407.3208)"><path
         d="m 0,0 c 0.199,-32.965 26.975,-59.629 59.987,-59.629 33.013,0 59.79,26.664 59.988,59.629 L 0,0 z"
         style="fill:#3ec6c5;fill-opacity:1;fill-rule:nonzero;stroke:none"
         id="path776"
         inkscape:connector-curvature="0" /></g><path
       d="m 419.755,344.032 -39.51,0 0,7.317 39.51,0 0,-7.317 z"
       style="fill:#26537c;fill-opacity:1;fill-rule:nonzero;stroke:none"
       id="path778"
       inkscape:connector-curvature="0" /><path
       d="m 463.287,403.296 -126.575,0 0,8.049 126.575,0 0,-8.049 z"
       style="fill:#26537c;fill-opacity:1;fill-rule:nonzero;stroke:none"
       id="path780"
       inkscape:connector-curvature="0" /><g
       id="g782"
       transform="translate(351.1768,417.3936)"><path
         d="m 0,0 c 0,-0.891 -0.353,-1.613 -0.785,-1.613 -0.436,0 -0.788,0.722 -0.788,1.613 0,0.89 0.352,1.611 0.788,1.611 C -0.353,1.611 0,0.89 0,0"
         style="fill:#e6e6e6;fill-opacity:1;fill-rule:nonzero;stroke:none"
         id="path784"
         inkscape:connector-curvature="0" /></g><g
       id="g786"
       transform="translate(362.061,426.3091)"><path
         d="m 0,0 c 0,-0.891 -0.352,-1.612 -0.786,-1.612 -0.434,0 -0.787,0.721 -0.787,1.612 0,0.891 0.353,1.613 0.787,1.613 C -0.352,1.613 0,0.891 0,0"
         style="fill:#e6e6e6;fill-opacity:1;fill-rule:nonzero;stroke:none"
         id="path788"
         inkscape:connector-curvature="0" /></g><g
       id="g790"
       transform="translate(383.9575,422.5068)"><path
         d="m 0,0 c 0,-0.891 -0.352,-1.613 -0.785,-1.613 -0.435,0 -0.787,0.722 -0.787,1.613 0,0.891 0.352,1.612 0.787,1.612 C -0.352,1.612 0,0.891 0,0"
         style="fill:#e6e6e6;fill-opacity:1;fill-rule:nonzero;stroke:none"
         id="path792"
         inkscape:connector-curvature="0" /></g><g
       id="g794"
       transform="translate(393.7935,430.374)"><path
         d="m 0,0 c 0,-0.891 -0.352,-1.612 -0.786,-1.612 -0.436,0 -0.788,0.721 -0.788,1.612 0,0.891 0.352,1.613 0.788,1.613 C -0.352,1.613 0,0.891 0,0"
         style="fill:#e6e6e6;fill-opacity:1;fill-rule:nonzero;stroke:none"
         id="path796"
         inkscape:connector-curvature="0" /></g><g
       id="g798"
       transform="translate(420.542,422.5068)"><path
         d="m 0,0 c 0,-0.891 -0.353,-1.613 -0.787,-1.613 -0.434,0 -0.785,0.722 -0.785,1.613 0,0.891 0.351,1.612 0.785,1.612 C -0.353,1.612 0,0.891 0,0"
         style="fill:#e6e6e6;fill-opacity:1;fill-rule:nonzero;stroke:none"
         id="path800"
         inkscape:connector-curvature="0" /></g><g
       id="g802"
       transform="translate(432.8691,426.3091)"><path
         d="m 0,0 c 0,-0.891 -0.353,-1.612 -0.785,-1.612 -0.436,0 -0.788,0.721 -0.788,1.612 0,0.891 0.352,1.613 0.788,1.613 C -0.353,1.613 0,0.891 0,0"
         style="fill:#e6e6e6;fill-opacity:1;fill-rule:nonzero;stroke:none"
         id="path804"
         inkscape:connector-curvature="0" /></g><g
       id="g806"
       transform="translate(443.4902,419.0049)"><path
         d="m 0,0 c 0,-0.89 -0.352,-1.611 -0.785,-1.611 -0.435,0 -0.787,0.721 -0.787,1.611 0,0.891 0.352,1.613 0.787,1.613 C -0.352,1.613 0,0.891 0,0"
         style="fill:#e6e6e6;fill-opacity:1;fill-rule:nonzero;stroke:none"
         id="path808"
         inkscape:connector-curvature="0" /></g><g
       id="g810"
       transform="translate(407.8242,417.3936)"><path
         d="m 0,0 c 0,-0.891 -0.352,-1.613 -0.787,-1.613 -0.433,0 -0.785,0.722 -0.785,1.613 0,0.89 0.352,1.611 0.785,1.611 C -0.352,1.611 0,0.89 0,0"
         style="fill:#e6e6e6;fill-opacity:1;fill-rule:nonzero;stroke:none"
         id="path812"
         inkscape:connector-curvature="0" /></g><g
       id="g814"
       transform="translate(412.5449,430.374)"><path
         d="m 0,0 c 0,-0.891 -0.353,-1.612 -0.788,-1.612 -0.433,0 -0.785,0.721 -0.785,1.612 0,0.891 0.352,1.613 0.785,1.613 C -0.353,1.613 0,0.891 0,0"
         style="fill:#e6e6e6;fill-opacity:1;fill-rule:nonzero;stroke:none"
         id="path816"
         inkscape:connector-curvature="0" /></g><g
       id="g818"
       transform="translate(438.1133,421.1104)"><path
         d="m 0,0 c 0,-0.891 -0.352,-1.612 -0.785,-1.612 -0.435,0 -0.787,0.721 -0.787,1.612 0,0.891 0.352,1.613 0.787,1.613 C -0.352,1.613 0,0.891 0,0"
         style="fill:#e6e6e6;fill-opacity:1;fill-rule:nonzero;stroke:none"
         id="path820"
         inkscape:connector-curvature="0" /></g><g
       id="g822"
       transform="translate(422.5635,416.3994)"><path
         d="m 0,0 c 0.511,-0.729 0.637,-1.522 0.282,-1.771 -0.356,-0.25 -1.058,0.139 -1.57,0.868 C -1.8,-0.174 -1.925,0.619 -1.568,0.87 -1.214,1.118 -0.512,0.729 0,0"
         style="fill:#e6e6e6;fill-opacity:1;fill-rule:nonzero;stroke:none"
         id="path824"
         inkscape:connector-curvature="0" /></g><g
       id="g826"
       transform="translate(392.8647,421.5625)"><path
         d="m 0,0 c 0.511,-0.729 0.637,-1.522 0.282,-1.772 -0.356,-0.249 -1.059,0.14 -1.571,0.869 -0.51,0.729 -0.637,1.522 -0.28,1.772 C -1.214,1.118 -0.51,0.729 0,0"
         style="fill:#e6e6e6;fill-opacity:1;fill-rule:nonzero;stroke:none"
         id="path828"
         inkscape:connector-curvature="0" /></g><g
       id="g830"
       transform="translate(430.8115,419.457)"><path
         d="m 0,0 c 0.512,-0.729 0.637,-1.523 0.282,-1.772 -0.356,-0.249 -1.058,0.14 -1.57,0.869 -0.511,0.729 -0.637,1.522 -0.28,1.772 C -1.214,1.118 -0.509,0.729 0,0"
         style="fill:#e6e6e6;fill-opacity:1;fill-rule:nonzero;stroke:none"
         id="path832"
         inkscape:connector-curvature="0" /></g><g
       id="g834"
       transform="translate(365.7197,419.457)"><path
         d="m 0,0 c 0.512,-0.729 0.637,-1.523 0.283,-1.772 -0.357,-0.249 -1.059,0.14 -1.571,0.869 -0.511,0.729 -0.637,1.522 -0.28,1.772 C -1.213,1.118 -0.51,0.729 0,0"
         style="fill:#e6e6e6;fill-opacity:1;fill-rule:nonzero;stroke:none"
         id="path836"
         inkscape:connector-curvature="0" /></g><g
       id="g838"
       transform="translate(387.0937,435.9395)"><path
         d="M 0,0 C 0.512,-0.729 0.637,-1.522 0.283,-1.771 -0.074,-2.02 -0.776,-1.632 -1.288,-0.903 -1.799,-0.172 -1.925,0.621 -1.568,0.87 -1.213,1.119 -0.51,0.73 0,0"
         style="fill:#e6e6e6;fill-opacity:1;fill-rule:nonzero;stroke:none"
         id="path840"
         inkscape:connector-curvature="0" /></g><g
       id="g842"
       transform="translate(402.1689,435.9395)"><path
         d="M 0,0 C 0.512,-0.729 0.638,-1.522 0.28,-1.771 -0.073,-2.02 -0.775,-1.632 -1.288,-0.903 -1.799,-0.172 -1.925,0.621 -1.569,0.87 -1.214,1.119 -0.511,0.73 0,0"
         style="fill:#e6e6e6;fill-opacity:1;fill-rule:nonzero;stroke:none"
         id="path844"
         inkscape:connector-curvature="0" /></g><g
       id="g846"
       transform="translate(427.6123,431.6123)"><path
         d="M 0,0 C 0.512,-0.729 0.638,-1.522 0.28,-1.771 -0.073,-2.02 -0.775,-1.632 -1.287,-0.903 -1.799,-0.173 -1.925,0.62 -1.57,0.869 -1.213,1.118 -0.511,0.73 0,0"
         style="fill:#e6e6e6;fill-opacity:1;fill-rule:nonzero;stroke:none"
         id="path848"
         inkscape:connector-curvature="0" /></g><g
       id="g850"
       transform="translate(404.125,427.6016)"><path
         d="M 0,0 C 0.512,-0.73 0.638,-1.523 0.281,-1.772 -0.073,-2.021 -0.775,-1.633 -1.287,-0.903 -1.799,-0.174 -1.924,0.619 -1.57,0.868 -1.213,1.117 -0.511,0.729 0,0"
         style="fill:#e6e6e6;fill-opacity:1;fill-rule:nonzero;stroke:none"
         id="path852"
         inkscape:connector-curvature="0" /></g><g
       id="g854"
       transform="translate(378.9766,428.7622)"><path
         d="m 0,0 c 0,-0.891 -0.352,-1.613 -0.786,-1.613 -0.436,0 -0.788,0.722 -0.788,1.613 0,0.891 0.352,1.612 0.788,1.612 C -0.352,1.612 0,0.891 0,0"
         style="fill:#e6e6e6;fill-opacity:1;fill-rule:nonzero;stroke:none"
         id="path856"
         inkscape:connector-curvature="0" /></g></g></svg>