<?xml version="1.0" encoding="UTF-8" standalone="no"?>
<!-- Created with Inkscape (http://www.inkscape.org/) -->

<svg
   xmlns:dc="http://purl.org/dc/elements/1.1/"
   xmlns:cc="http://creativecommons.org/ns#"
   xmlns:rdf="http://www.w3.org/1999/02/22-rdf-syntax-ns#"
   xmlns:svg="http://www.w3.org/2000/svg"
   xmlns="http://www.w3.org/2000/svg"
   xmlns:sodipodi="http://sodipodi.sourceforge.net/DTD/sodipodi-0.dtd"
   xmlns:inkscape="http://www.inkscape.org/namespaces/inkscape"
   width="132.11"
   height="132.10635"
   id="svg5535"
   version="1.1"
   inkscape:version="0.48.4 r9939"
   sodipodi:docname="juice.svg">
  <defs
     id="defs5537" />
  <sodipodi:namedview
     id="base"
     pagecolor="#ffffff"
     bordercolor="#666666"
     borderopacity="1.0"
     inkscape:pageopacity="0.0"
     inkscape:pageshadow="2"
     inkscape:zoom="0.7"
     inkscape:cx="110.21908"
     inkscape:cy="-10.096091"
     inkscape:document-units="px"
     inkscape:current-layer="layer1"
     showgrid="false"
     fit-margin-top="0"
     fit-margin-left="0"
     fit-margin-right="0"
     fit-margin-bottom="0"
     inkscape:window-width="472"
     inkscape:window-height="383"
     inkscape:window-x="393"
     inkscape:window-y="821"
     inkscape:window-maximized="0" />
  <metadata
     id="metadata5540">
    <rdf:RDF>
      <cc:Work
         rdf:about="">
        <dc:format>image/svg+xml</dc:format>
        <dc:type
           rdf:resource="http://purl.org/dc/dcmitype/StillImage" />
        <dc:title></dc:title>
      </cc:Work>
    </rdf:RDF>
  </metadata>
  <g
     inkscape:label="Layer 1"
     inkscape:groupmode="layer"
     id="layer1"
     transform="translate(-323.90548,-466.30896)">
    <path
       inkscape:connector-curvature="0"
       id="path610"
       style="fill:#84a8de;fill-opacity:1;fill-rule:nonzero;stroke:none"
       d="m 358.98495,589.63209 67.33013,0 0,-115.585 -67.33013,0 0,115.585 z" />
    <path
       inkscape:connector-curvature="0"
       id="path612"
       style="fill:#ffffff;fill-opacity:1;fill-rule:nonzero;stroke:none"
       d="m 392.64995,589.63209 -33.665,0 6.42125,5.7275 54.4875,0 6.42125,-5.7275 -33.665,0" />
    <path
       inkscape:connector-curvature="0"
       id="path614"
       style="fill:#ffffff;fill-opacity:1;fill-rule:nonzero;stroke:none"
       d="m 419.8937,468.31834 -54.4875,0 -6.42125,5.72875 67.33,0 -6.42125,-5.72875" />
    <path
       inkscape:connector-curvature="0"
       id="path616"
       style="fill:#ffffff;fill-opacity:1;fill-rule:nonzero;stroke:none"
       d="m 365.4062,597.03209 54.4975,0 0,-1.67236 -54.4975,0 0,1.67236 z" />
    <path
       inkscape:connector-curvature="0"
       id="path618"
       style="fill:#ffffff;fill-opacity:1;fill-rule:nonzero;stroke:none"
       d="m 365.4012,468.31834 54.4975,0 0,-1.6709 -54.4975,0 0,1.6709 z" />
    <path
       inkscape:connector-curvature="0"
       id="path620"
       style="fill:#e9eae9;fill-opacity:1;fill-rule:nonzero;stroke:none"
       d="m 358.98495,540.53084 67.33013,0 0,-17.38137 -67.33013,0 0,17.38137 z" />
    <path
       inkscape:connector-curvature="0"
       id="path622"
       style="fill:#ffffff;fill-opacity:1;fill-rule:nonzero;stroke:none"
       d="m 415.86745,531.83959 c 0,12.8225 -10.395,23.21625 -23.2175,23.21625 -12.8225,0 -23.2175,-10.39375 -23.2175,-23.21625 0,-12.82375 10.395,-23.21625 23.2175,-23.21625 12.8225,0 23.2175,10.3925 23.2175,23.21625" />
    <path
       inkscape:connector-curvature="0"
       id="path626"
       style="fill:#7198d6;fill-opacity:1;fill-rule:nonzero;stroke:none"
       d="m 426.31495,589.63209 -33.66125,0 -0.001,-34.57625 c 9.74875,-10e-4 18.0925,-6.01 21.53375,-14.525 l 12.12875,0 0,49.10125 m 0,-66.4825 -12.12875,0 c -3.43995,-8.51625 -11.7862,-14.525 -21.53495,-14.52625 l -10e-4,-34.57625 33.665,0 0,49.1025" />
    <path
       inkscape:connector-curvature="0"
       id="path628"
       style="fill:#e8e7e6;fill-opacity:1;fill-rule:nonzero;stroke:none"
       d="m 419.8937,595.35959 -27.23875,0 -10e-4,-5.7275 33.66125,0 -6.42125,5.7275" />
    <path
       inkscape:connector-curvature="0"
       id="path630"
       style="fill:#e8e7e6;fill-opacity:1;fill-rule:nonzero;stroke:none"
       d="m 426.31495,474.04709 -33.665,0 0,-5.72875 27.24375,0 6.42125,5.72875" />
    <path
       inkscape:connector-curvature="0"
       id="path632"
       style="fill:#e8e7e6;fill-opacity:1;fill-rule:nonzero;stroke:none"
       d="m 419.9037,597.03209 -27.24875,0 0,-1.6725 27.24875,0 0,1.6725" />
    <path
       inkscape:connector-curvature="0"
       id="path634"
       style="fill:#e8e7e6;fill-opacity:1;fill-rule:nonzero;stroke:none"
       d="m 419.8987,468.31834 -27.24875,0 0,-0.835 27.24875,-0.83625 0,1.67125" />
    <path
       inkscape:connector-curvature="0"
       id="path636"
       style="fill:#d0d0cf;fill-opacity:1;fill-rule:nonzero;stroke:none"
       d="m 426.31495,540.53084 -12.12875,0 c 1.08375,-2.685 1.68125,-5.6175 1.68125,-8.69125 0,-3.0725 -0.5975,-6.00625 -1.68125,-8.69 l 12.12875,0 0,17.38125" />
    <path
       inkscape:connector-curvature="0"
       id="path638"
       style="fill:#e8e7e6;fill-opacity:1;fill-rule:nonzero;stroke:none"
       d="m 392.65245,555.05584 -10e-4,-46.4325 c 9.74875,0.001 18.095,6.01 21.535,14.52625 1.08375,2.68375 1.68125,5.6175 1.68125,8.69 0,3.07375 -0.5975,6.00625 -1.68125,8.69125 -3.44125,8.515 -11.785,14.52375 -21.53375,14.525" />
  </g>
</svg>
