<?xml version="1.0" encoding="UTF-8" standalone="no"?>
<!-- Created with Inkscape (http://www.inkscape.org/) -->

<svg
   xmlns:dc="http://purl.org/dc/elements/1.1/"
   xmlns:cc="http://creativecommons.org/ns#"
   xmlns:rdf="http://www.w3.org/1999/02/22-rdf-syntax-ns#"
   xmlns:svg="http://www.w3.org/2000/svg"
   xmlns="http://www.w3.org/2000/svg"
   xmlns:sodipodi="http://sodipodi.sourceforge.net/DTD/sodipodi-0.dtd"
   xmlns:inkscape="http://www.inkscape.org/namespaces/inkscape"
   width="63.262062"
   height="62.43"
   id="svg4297"
   version="1.1"
   inkscape:version="0.48.4 r9939"
   sodipodi:docname="New document 3">
  <defs
     id="defs4299" />
  <sodipodi:namedview
     id="base"
     pagecolor="#ffffff"
     bordercolor="#666666"
     borderopacity="1.0"
     inkscape:pageopacity="0.0"
     inkscape:pageshadow="2"
     inkscape:zoom="0.7"
     inkscape:cx="138.30439"
     inkscape:cy="-61.317887"
     inkscape:document-units="px"
     inkscape:current-layer="layer1"
     showgrid="false"
     fit-margin-top="0"
     fit-margin-left="0"
     fit-margin-right="0"
     fit-margin-bottom="0"
     inkscape:window-width="472"
     inkscape:window-height="383"
     inkscape:window-x="1168"
     inkscape:window-y="525"
     inkscape:window-maximized="0" />
  <metadata
     id="metadata4302">
    <rdf:RDF>
      <cc:Work
         rdf:about="">
        <dc:format>image/svg+xml</dc:format>
        <dc:type
           rdf:resource="http://purl.org/dc/dcmitype/StillImage" />
        <dc:title></dc:title>
      </cc:Work>
    </rdf:RDF>
  </metadata>
  <g
     inkscape:label="Layer 1"
     inkscape:groupmode="layer"
     id="layer1"
     transform="translate(-343.36896,-501.14716)">
    <path
       inkscape:connector-curvature="0"
       id="path126"
       style="fill:#ef3520;fill-opacity:1;fill-rule:nonzero;stroke:none"
       d="m 406.4119,534.97091 c -1.771,14.57 -12.1225,27.2525 -26.31738,28.51875 -17.15775,1.26625 -37.86037,-11.40875 -36.67525,-32.00375 1.184,-21.2325 21.59075,-21.86875 36.67525,-19.95875 15.46975,0.91 28.38963,7.28 26.31738,23.44375" />
    <path
       inkscape:connector-curvature="0"
       id="path128"
       style="fill:#90c2c9;fill-opacity:1;fill-rule:nonzero;stroke:none"
       d="m 343.37277,533.49966 c 0,0 0,-10e-4 0,-10e-4 l 0,10e-4 m -3.7e-4,-0.0263 c -0.006,-0.52375 0.002,-1.055 0.0249,-1.59 0.006,-0.1325 0.0126,-0.265 0.0205,-0.3975 0.003,-0.0625 0.007,-0.125 0.0107,-0.18625 0.0328,-0.51375 0.0751,-1.015 0.12988,-1.5025 -0.0601,0.5475 -0.107,1.11 -0.13913,1.68875 -0.0386,0.67125 -0.0537,1.33375 -0.0469,1.9875" />
    <path
       inkscape:connector-curvature="0"
       id="path130"
       style="fill:#db2e23;fill-opacity:1;fill-rule:nonzero;stroke:none"
       d="m 377.73515,563.57466 c -1.52738,0 -3.07225,-0.1025 -4.61725,-0.30875 -0.17375,-0.0213 -0.34713,-0.045 -0.521,-0.07 -1.1235,-0.165 -2.2465,-0.3825 -3.36275,-0.6525 -7.08688,-1.715 -13.8955,-5.50125 -18.74125,-10.96625 -0.3505,-0.38625 -0.68788,-0.78625 -1.00038,-1.1875 -2.13725,-2.6625 -3.8125,-5.67375 -4.86187,-8.99875 -0.2505,-0.775 -0.45063,-1.55 -0.625,-2.35 l -0.0131,-0.025 c -0.38037,-1.76375 -0.59575,-3.6025 -0.61975,-5.51625 l 0,-10e-4 c -3.7e-4,-0.009 -3.7e-4,-0.0163 -3.7e-4,-0.025 -0.007,-0.65375 0.008,-1.31625 0.0469,-1.9875 0.0321,-0.57875 0.079,-1.14125 0.13913,-1.68875 0.0503,-0.4475 0.11087,-0.88375 0.1845,-1.30625 0.0625,-0.46375 0.1495,-0.91375 0.24962,-1.35 l 0.0254,-0.13875 c 0.0869,-0.41125 0.17475,-0.81125 0.30025,-1.2 0.0991,-0.42375 0.22462,-0.8375 0.3745,-1.23625 l 0.0122,-0.0375 c 0.125,-0.4 0.26312,-0.775 0.42525,-1.15 0.13775,-0.35125 0.28762,-0.6875 0.438,-1.01375 0.062,-0.12375 0.11187,-0.23625 0.187,-0.3625 0.0605,-0.14375 0.145,-0.29 0.21775,-0.435 -1.11575,12.77625 3.5245,25.37125 18.22412,31.935 6.3365,2.53875 13.22713,3.17125 19.88238,3.17125 3.48437,0 7.36625,-0.32125 10.84962,-0.95 0.685,-0.0913 1.34563,-0.24625 1.98138,-0.44 -0.65088,0.66625 -1.33,1.3 -2.03513,1.9 l 0.005,-0.005 c -0.0122,0.01 -0.0239,0.0213 -0.0361,0.0312 -0.57912,0.49 -1.17575,0.95625 -1.7895,1.39875 -0.88237,0.62875 -1.796,1.21625 -2.74912,1.7325 -0.0523,0.0325 -0.10488,0.0638 -0.15813,0.095 -0.21825,0.11875 -0.4375,0.23375 -0.65925,0.34625 -0.061,0.0288 -0.122,0.0563 -0.183,0.0838 -0.68712,0.34875 -1.38725,0.66125 -2.10012,0.9375 l -0.19975,0.075 c -0.10738,0.0437 -0.21488,0.0875 -0.32275,0.12875 -0.0884,0.0325 -0.17725,0.065 -0.26663,0.0963 -0.0815,0.0275 -0.164,0.0525 -0.248,0.075 -0.125,0.05 -0.26225,0.1 -0.40037,0.13625 -0.0665,0.0263 -0.13338,0.0512 -0.20075,0.075 -0.164,0.0512 -0.32863,0.1025 -0.49413,0.15125 -0.064,0.0175 -0.12837,0.0337 -0.19237,0.05 -0.0942,0.0288 -0.188,0.0575 -0.28225,0.085 -0.32175,0.0888 -0.646,0.17 -0.97263,0.24625 -0.4385,0.0913 -0.88575,0.19 -1.3325,0.26875 -0.103,0.02 -0.207,0.0387 -0.311,0.0575 -0.62212,0.10125 -1.2525,0.18125 -1.89062,0.23875 -0.52738,0.0388 -1.06113,0.065 -1.59475,0.0788 -0.2535,0.005 -0.50738,0.009 -0.76125,0.009" />
    <path
       inkscape:connector-curvature="0"
       id="path132"
       style="fill:#1f4420;fill-opacity:1;fill-rule:nonzero;stroke:none"
       d="m 379.90452,516.27716 c -0.47362,1.89625 3.15975,5.6225 6.56788,5.50875 -1.42575,1.14625 -4.6225,1.515 -6.64988,0.32125 -1.522,-0.90125 -1.40187,-0.84125 -2.955,-2.29625 -1.2505,-1.1675 -1.63487,-1.22875 -2.53175,-0.565 -1.38087,1.01 -1.6065,1.625 -3.06112,2.54 -1.268,0.79 -3.52825,0.95 -5.14888,-0.12 2.65375,-0.15875 3.12163,-1.8925 5.50338,-5.42875 -4.59225,-2.37375 -5.186,-10.57375 -5.02975,-15.01 0.7925,4.1175 2.53325,7.59875 6.18212,9.98125 1.01075,-2.11625 0.98875,-3.2925 1.71188,-5.48875 0.28662,-0.86625 0.82225,-2.63875 2.04887,-4.5725 0,2.945 -0.27737,2.6125 0.0395,5.62 0,0.955 0.49763,4.42625 0.97325,5.21875 2.05713,3.015 8.69038,-0.53625 11.8125,-2.4075 -2.5865,3.3575 -2.67725,3.2375 -5.209,4.82 -0.63525,0.31625 -4.09525,1.4025 -4.254,1.87875" />
    <path
       inkscape:connector-curvature="0"
       id="path134"
       style="fill:#f5d3cb;fill-opacity:1;fill-rule:nonzero;stroke:none"
       d="m 399.75315,530.63591 c -1.1225,0 -2.10538,-0.34625 -3.268,-0.66 -0.88038,-0.24125 -1.811,-0.28125 -2.67925,-0.57 -0.34125,-0.11375 -0.6645,-0.2775 -0.96138,-0.4675 -0.418,-0.0987 -0.8335,-0.21125 -1.24762,-0.345 -0.13713,-0.0437 -0.26313,-0.11 -0.38275,-0.1825 -1.33838,-0.3025 -2.41213,-1.26 -2.21975,-2.93 0.3565,-3.105 5.40087,-3.365 6.54987,-6.24 0.27925,-0.69625 0.82075,-0.9725 1.38325,-0.9725 0.49563,0 1.00775,0.215 1.37063,0.5425 0.36575,0.195 0.67287,0.45625 0.95462,0.69875 2.72938,2.25 6.04775,6.69875 3.73038,10.0425 -0.36475,0.52375 -0.87788,0.74125 -1.38713,0.74125 -0.0294,0 -0.0586,0 -0.0875,-0.002 -0.2465,0.12125 -0.52187,0.2125 -0.82712,0.265 -0.32325,0.0562 -0.63038,0.08 -0.92825,0.08" />
    <path
       inkscape:connector-curvature="0"
       id="path138"
       style="fill:#d02d23;fill-opacity:1;fill-rule:nonzero;stroke:none"
       d="m 377.71365,563.57716 c -1.73925,0 -3.50238,-0.13625 -5.26363,-0.4025 0.0487,0.007 0.0981,0.0137 0.14688,0.0213 1.71,0.25125 3.419,0.37875 5.107,0.37875 0.26462,0 0.52875,-0.002 0.7925,-0.009 0.3745,-0.009 0.748,-0.0238 1.12012,-0.045 -0.62937,0.0375 -1.26562,0.0563 -1.90287,0.0563 m 3.9195,-0.27125 c 0.11662,-0.0188 0.23287,-0.0375 0.34862,-0.0575 0.55413,-0.0913 1.102,-0.20125 1.6435,-0.32625 0.0484,-0.01 0.0966,-0.02 0.145,-0.03 -0.70062,0.16625 -1.414,0.305 -2.13712,0.41375 m 2.641,-0.54 c 0.1085,-0.0287 0.21637,-0.0587 0.32375,-0.09 0.15875,-0.0438 0.31687,-0.0888 0.47462,-0.135 0.1665,-0.045 0.3315,-0.095 0.49413,-0.15125 0.28525,-0.09 0.56837,-0.18625 0.84912,-0.28625 0.0899,-0.03 0.17875,-0.0625 0.26663,-0.0963 0.96187,-0.35375 1.898,-0.76375 2.80562,-1.225 0.0601,-0.0287 0.11963,-0.0575 0.17925,-0.0875 -1.70262,0.88125 -3.50487,1.58125 -5.39312,2.07125 m -14.82025,-0.17 c -0.002,-0.001 -0.004,-0.001 -0.006,-0.001 0.002,0 0.004,0 0.006,0.001 m -0.0195,-0.005 c -0.37313,-0.0875 -0.74463,-0.18125 -1.11575,-0.28 0.30375,0.08 0.61037,0.15875 0.9155,0.2325 0.0664,0.0163 0.13337,0.0325 0.20025,0.0475 m -1.12363,-0.2825 c -0.0126,-0.004 -0.0249,-0.006 -0.0375,-0.01 0.0116,0.003 0.0264,0.006 0.0375,0.01 m 21.66563,-1.7763 c 0.0571,-0.0312 0.11425,-0.0638 0.17087,-0.0962 1.00638,-0.5475 1.9765,-1.15875 2.90725,-1.8275 0.1005,-0.0725 0.20113,-0.145 0.30075,-0.2175 0.51225,-0.3775 1.01225,-0.76875 1.48875,-1.18125 0.0107,-0.009 0.021,-0.0175 0.0312,-0.0263 l -0.0444,0.0438 c -1.504,1.27125 -3.127,2.3825 -4.8545,3.305 m -43.99663,-38.955 0,-0.0238 c -0.002,0.004 -0.004,0.009 -0.007,0.0137 5e-4,-0.005 10e-4,-0.01 0.002,-0.015 -0.004,0.009 -0.009,0.0175 -0.0131,0.025 0.725,-1.3575 1.58587,-2.5575 2.559,-3.61375 l 0.21,-0.21 c -1.0625,1.11125 -1.98738,2.37375 -2.7505,3.82375" />
    <path
       inkscape:connector-curvature="0"
       id="path140"
       style="fill:#719ba3;fill-opacity:1;fill-rule:nonzero;stroke:none"
       d="m 368.31865,562.31091 c -0.003,-0.001 -0.004,-0.001 -0.008,-0.003 0.002,0 0.005,10e-4 0.008,0.003 m -0.0454,-0.0125 c -13.42676,-3.60875 -25.56888,-14.66125 -24.87601,-30.415 -0.023,0.535 -0.0308,1.06625 -0.0249,1.59 0,0.009 0,0.0163 3.7e-4,0.025 0,0 0,10e-4 0,10e-4 0.17238,14.89255 11.9375,25.31255 24.9005,28.7988 m -24.84475,-30.99875 c 0.24113,-3.90375 1.13625,-7.11125 2.53275,-9.7225 -1.2125,2.27125 -2.04737,4.98625 -2.40287,8.22 -0.0548,0.4875 -0.0971,0.98875 -0.12988,1.5025" />
    <path
       inkscape:connector-curvature="0"
       id="path142"
       style="fill:#b02822;fill-opacity:1;fill-rule:nonzero;stroke:none"
       d="m 377.7039,563.57466 c -1.688,0 -3.397,-0.1275 -5.107,-0.37875 0.17387,0.025 0.34725,0.0487 0.521,0.07 1.545,0.20625 3.08987,0.30875 4.61725,0.30875 0.25387,0 0.50775,-0.004 0.76125,-0.009 -0.26375,0.006 -0.52788,0.009 -0.7925,0.009 m 4.27787,-0.32625 c 0.104,-0.0188 0.208,-0.0375 0.311,-0.0575 0.44675,-0.0788 0.894,-0.1775 1.3325,-0.26875 -0.5415,0.125 -1.08937,0.235 -1.6435,0.32625 m 2.61613,-0.5725 c 0.0943,-0.0275 0.188,-0.0563 0.28225,-0.085 0.064,-0.0163 0.12837,-0.0325 0.19237,-0.05 -0.15775,0.0462 -0.31587,0.0912 -0.47462,0.135 m -15.36375,-0.1325 c -0.30513,-0.0738 -0.61175,-0.1525 -0.9155,-0.2325 -0.002,-0.001 -0.005,-0.003 -0.008,-0.003 -0.0111,-0.004 -0.0259,-0.007 -0.0375,-0.01 -12.96298,-3.48625 -24.7281,-13.90625 -24.90048,-28.79875 0.024,1.91375 0.23938,3.7525 0.61975,5.51625 l 0.0131,0.025 c 0.17437,0.8 0.3745,1.575 0.625,2.35 1.04937,3.325 2.72462,6.33625 4.86187,8.99875 0.3125,0.40125 0.64988,0.80125 1.00038,1.1875 4.84575,5.465 11.65437,9.25125 18.74125,10.96625 m 16.3325,-0.15375 c 0.0674,-0.0238 0.13425,-0.0488 0.20075,-0.075 0.13812,-0.0362 0.27537,-0.0862 0.40037,-0.13625 0.084,-0.0225 0.1665,-0.0475 0.248,-0.075 -0.28075,0.1 -0.56387,0.19625 -0.84912,0.28625 m 1.11575,-0.3825 c 0.10787,-0.0412 0.21537,-0.085 0.32275,-0.12875 l 0.19975,-0.075 c 0.71287,-0.27625 1.413,-0.58875 2.10012,-0.9375 0.061,-0.0275 0.122,-0.055 0.183,-0.0838 -0.90762,0.46125 -1.84375,0.87125 -2.80562,1.225 m 3.46487,-1.57125 c 0.0532,-0.0312 0.10588,-0.0625 0.15813,-0.095 0.95312,-0.51625 1.86675,-1.10375 2.74912,-1.7325 -0.93075,0.66875 -1.90087,1.28 -2.90725,1.8275 m 4.69675,-3.22625 c 0.0122,-0.01 0.0239,-0.0213 0.0361,-0.0312 l -0.005,0.005 c -0.0103,0.009 -0.0205,0.0175 -0.0312,0.0263 m -51.47122,-23.71125 c -3.7e-4,-0.009 -3.7e-4,-0.0163 -3.7e-4,-0.025 0,0.009 0,0.0163 3.7e-4,0.025 m 0.18563,-3.70125 c 0.3555,-3.23375 1.19037,-5.94875 2.40287,-8.22 0.004,-0.008 0.009,-0.0163 0.0131,-0.025 -5e-4,0.005 -0.001,0.01 -0.002,0.015 -0.0727,0.145 -0.15725,0.29125 -0.21775,0.435 -0.0751,0.12625 -0.125,0.23875 -0.187,0.3625 -0.15038,0.32625 -0.30025,0.6625 -0.438,1.01375 -0.16213,0.375 -0.30025,0.75 -0.42525,1.15 l -0.0122,0.0375 c -0.14988,0.39875 -0.27538,0.8125 -0.3745,1.23625 -0.1255,0.38875 -0.21338,0.78875 -0.30025,1.2 l -0.0254,0.13875 c -0.10012,0.43625 -0.18712,0.88625 -0.24962,1.35 -0.0736,0.4225 -0.13425,0.85875 -0.1845,1.30625" />
  </g>
</svg>
