<?xml version="1.0" encoding="UTF-8" standalone="no"?>
<!-- Created with Inkscape (http://www.inkscape.org/) -->

<svg
   xmlns:dc="http://purl.org/dc/elements/1.1/"
   xmlns:cc="http://creativecommons.org/ns#"
   xmlns:rdf="http://www.w3.org/1999/02/22-rdf-syntax-ns#"
   xmlns:svg="http://www.w3.org/2000/svg"
   xmlns="http://www.w3.org/2000/svg"
   xmlns:sodipodi="http://sodipodi.sourceforge.net/DTD/sodipodi-0.dtd"
   xmlns:inkscape="http://www.inkscape.org/namespaces/inkscape"
   id="svg4034"
   version="1.1"
   inkscape:version="0.48.4 r9939"
   width="123.39281"
   height="54.876389"
   sodipodi:docname="set_eyes_white.png">
  <metadata
     id="metadata4040">
    <rdf:RDF>
      <cc:Work
         rdf:about="">
        <dc:format>image/svg+xml</dc:format>
        <dc:type
           rdf:resource="http://purl.org/dc/dcmitype/StillImage" />
        <dc:title></dc:title>
      </cc:Work>
    </rdf:RDF>
  </metadata>
  <defs
     id="defs4038" />
  <sodipodi:namedview
     pagecolor="#ffffff"
     bordercolor="#666666"
     borderopacity="1"
     objecttolerance="10"
     gridtolerance="10"
     guidetolerance="10"
     inkscape:pageopacity="0"
     inkscape:pageshadow="2"
     inkscape:window-width="640"
     inkscape:window-height="480"
     id="namedview4036"
     showgrid="false"
     fit-margin-top="0"
     fit-margin-left="0"
     fit-margin-right="0"
     fit-margin-bottom="0"
     inkscape:zoom="4.6349206"
     inkscape:cx="86.35703"
     inkscape:cy="31.584981"
     inkscape:window-x="684"
     inkscape:window-y="891"
     inkscape:window-maximized="0"
     inkscape:current-layer="svg4034" />
  <path
     transform="matrix(0.97326203,0,0,1,78.87421,-46.229452)"
     sodipodi:open="true"
     sodipodi:end="6.2616989"
     sodipodi:start="0"
     d="m 45.523972,73.828766 a 20.172945,25.027397 0 1 1 -0.0047,-0.537708"
     sodipodi:ry="25.027397"
     sodipodi:rx="20.172945"
     sodipodi:cy="73.828766"
     sodipodi:cx="25.351027"
     id="path4062"
     style="fill:#ffffff"
     sodipodi:type="arc" />
  <path
     sodipodi:type="arc"
     style="fill:#ffffff"
     id="path4058"
     sodipodi:cx="25.351027"
     sodipodi:cy="73.828766"
     sodipodi:rx="20.172945"
     sodipodi:ry="25.027397"
     d="m 45.523972,73.828766 a 20.172945,25.027397 0 1 1 -0.0047,-0.537708"
     sodipodi:start="0"
     sodipodi:end="6.2616989"
     sodipodi:open="true"
     transform="matrix(0.97326203,0,0,1,-5.2696247,-47.092466)" />
  <path
     inkscape:connector-curvature="0"
     id="path4050"
     d="M 12.745015,53.586491 C 8.6243253,52.087841 4.0621793,47.721145 1.7965843,43.107109 0.40598126,40.275056 0.02004826,36.921573 4.4825845e-4,27.5 -0.02845874,13.603895 1.3250663,9.852488 8.6209923,3.607446 12.475076,0.308494 13.363646,0 19.011681,0 c 5.513159,0 6.665967,0.373965 10.738368,3.483475 12.974726,9.90694 15.016086,36.834411 3.572754,47.128002 -4.681446,4.211094 -13.624164,5.503974 -20.577788,2.975014 z M 25.160385,40.933388 C 32.527725,38.141978 36.29279,29.872885 34.532383,20.349967 33.375919,14.09408 29.893061,7.974938 26.058954,5.462734 22.478602,3.116797 16.195718,3.35096 12.521439,5.967278 6.4336053,10.302198 2.8347583,22.49852 5.3735513,30.191137 c 1.273677,3.859279 5.0327417,7.867929 9.6019337,10.239462 3.528803,1.831543 6.314925,1.969083 10.1849,0.502789 z M 96.316056,53.655731 C 80.539806,46.644893 78.443125,19.03236 92.611216,4.864274 c 8.930344,-8.930341 23.172474,-4.944251 28.580564,7.999133 1.88514,4.511771 2.74637,15.991957 1.83685,24.484972 -0.59868,5.590388 -1.27462,7.325947 -4.23163,10.865263 -1.96915,2.356913 -5.1273,4.772409 -7.17033,5.484189 -4.48463,1.56243 -11.744934,1.54246 -15.310614,-0.0421 z M 112.47549,38.147878 c 6.54389,-4.860643 8.13171,-14.348466 4.00413,-23.926122 -2.71383,-6.297159 -6.94592,-9.676302 -12.11875,-9.676302 -5.351314,0 -8.573804,2.166512 -11.918954,8.013218 -9.652713,16.871184 5.57841,36.326146 20.033574,25.589206 z"
     style="fill:#cfcfcf" />
  <path
     inkscape:connector-curvature="0"
     id="path4048"
     d="M 14.505368,53.887411 C 5.7619143,50.397926 0.61136326,41.741644 -0.25664874,29.077605 -0.73299174,22.127919 -0.50454574,20.636135 1.8103583,15.579718 4.8258173,8.993087 7.7464843,5.002975 10.809477,3.285435 14.705214,1.100944 14.493852,1.929001 10.011614,6.411239 4.9117273,11.511126 3.0252943,16.688013 3.0557573,25.5 c 0.05,14.461644 12.0072347,24.111888 23.7018467,19.128879 6.879371,-2.931262 9.717881,-8.810819 9.717881,-20.129163 0,-5.739606 -0.501877,-8.145739 -2.471865,-11.850777 C 32.644094,10.092023 31.908845,8 32.369733,8 c 0.460888,0 2.248227,3.15396 3.971865,7.008801 2.581319,5.773008 3.132904,8.285571 3.12831,14.25 -0.0071,9.168476 -1.251709,13.616051 -5.284453,18.883265 -4.571078,5.970335 -12.971487,8.422725 -19.680087,5.745345 z m 82.377618,-0.40759 c -4.15785,-1.824512 -8.77883,-7.266793 -10.91131,-12.850619 -2.310747,-6.05061 -1.661721,-19.115703 1.2796,-25.758662 2.13898,-4.830882 8.40742,-11.893544 10.50754,-11.83886 0.66917,0.01742 -0.0771,0.995918 -1.65829,2.174431 C 92.140746,8.1574 87.475816,18.329742 87.481846,24 c 0.0118,11.075126 4.94787,19.06985 12.960924,20.992151 8.16044,1.957659 14.15721,-1.252609 18.53838,-9.924205 2.38842,-4.727356 1.65682,-16.035132 -1.45308,-22.459335 C 114.80697,6.987577 109.41831,3 104.54336,3 c -2.56935,0 -3.1763,-0.291565 -2.34257,-1.125304 2.21148,-2.21148 8.50767,0.02083 12.7747,4.529271 5.52786,5.840596 8.5,13.796582 8.5,22.753256 0,9.115603 -1.45961,13.851454 -5.84986,18.980477 -5.61439,6.559151 -13.39983,8.564241 -20.742644,5.342121 z"
     style="fill:#a4a4a4" />
  <path
     inkscape:connector-curvature="0"
     id="path4046"
     d="M 17.298859,54.290831 C 11.107276,53.343551 1.3341943,41.168878 1.5461223,34.667095 1.5956523,33.147562 2.2122253,33.84467 3.6095113,37 c 2.48374,5.608741 5.252588,8.623822 10.2923127,11.207603 7.961652,4.081804 16.825525,0.877959 21.324135,-7.707603 0.864557,-1.65 1.750678,-2.471115 1.969157,-1.8247 0.513678,1.519817 -2.910071,8.151815 -5.774171,11.1849 -2.338447,2.476417 -7.978073,5.245341 -10.163341,4.989971 -0.705166,-0.0824 -2.486601,-0.33411 -3.958745,-0.55935 z m 81.473677,-0.30459 c -6.13427,-2.469868 -14.266471,-15.38826 -13.04514,-20.72282 0.25811,-1.127354 0.81764,-0.320619 1.55123,2.236579 0.63113,2.2 2.58745,5.743405 4.34739,7.874233 8.05485,9.752338 20.419204,8.536385 26.827924,-2.638351 1.65153,-2.879735 3.007,-4.477677 3.01217,-3.550982 0.0274,4.918475 -6.22703,13.750337 -11.51427,16.259301 -3.60212,1.70931 -7.77741,1.91176 -11.179304,0.54204 z M 122.8183,29.5 c 0.004,-4.4 0.17944,-6.075605 0.39069,-3.723567 0.21124,2.352038 0.20827,5.952038 -0.007,8 C 122.98751,35.824395 122.81467,33.9 122.8183,29.5 z m -123.20920174,-2.05 0.133613,-5.95 0.732537,5 c 0.402896,2.75 0.34277,5.4275 -0.133612,5.95 -0.496348,0.544397 -0.809105,-1.590356 -0.732538,-5 z"
     style="fill:#6d6d6d" />
</svg>
