<?xml version="1.0" encoding="UTF-8" standalone="no"?>
<!-- Created with Inkscape (http://www.inkscape.org/) -->

<svg
   xmlns:dc="http://purl.org/dc/elements/1.1/"
   xmlns:cc="http://creativecommons.org/ns#"
   xmlns:rdf="http://www.w3.org/1999/02/22-rdf-syntax-ns#"
   xmlns:svg="http://www.w3.org/2000/svg"
   xmlns="http://www.w3.org/2000/svg"
   xmlns:sodipodi="http://sodipodi.sourceforge.net/DTD/sodipodi-0.dtd"
   xmlns:inkscape="http://www.inkscape.org/namespaces/inkscape"
   id="svg3055"
   version="1.1"
   inkscape:version="0.48.4 r9939"
   width="124.08958"
   height="54.467278"
   sodipodi:docname="set_eyes_blue.png">
  <metadata
     id="metadata3061">
    <rdf:RDF>
      <cc:Work
         rdf:about="">
        <dc:format>image/svg+xml</dc:format>
        <dc:type
           rdf:resource="http://purl.org/dc/dcmitype/StillImage" />
        <dc:title></dc:title>
      </cc:Work>
    </rdf:RDF>
  </metadata>
  <defs
     id="defs3059" />
  <sodipodi:namedview
     pagecolor="#ffffff"
     bordercolor="#666666"
     borderopacity="1"
     objecttolerance="10"
     gridtolerance="10"
     guidetolerance="10"
     inkscape:pageopacity="0"
     inkscape:pageshadow="2"
     inkscape:window-width="640"
     inkscape:window-height="480"
     id="namedview3057"
     showgrid="false"
     fit-margin-top="0"
     fit-margin-left="0"
     fit-margin-right="0"
     fit-margin-bottom="0"
     inkscape:zoom="2.4365079"
     inkscape:cx="57.872711"
     inkscape:cy="48.19869"
     inkscape:window-x="631"
     inkscape:window-y="595"
     inkscape:window-maximized="0"
     inkscape:current-layer="svg3055" />
  <g
     id="g3075"
     transform="translate(-1.0230546,-2.5310877)">
    <path
       style="fill:#0497f6"
       d="M 13.907284,54.692997 C 2.0722178,48.497906 -2.4688424,29.322506 4.4404154,14.717535 12.861955,-3.084139 31.5769,-1.0172192 38.939841,18.527727 c 1.886847,5.008639 2.187501,7.44796 1.863351,15.118078 -0.338485,8.009331 -0.755567,9.748995 -3.35648,14 -5.332922,8.716272 -14.88672,11.576472 -23.539428,7.047192 z m 84.474414,0.7763 C 90.915636,52.194997 86.053546,42.879024 86.021962,31.787513 85.993922,21.940419 88.695346,14.392608 94.3571,8.4990429 c 3.392719,-3.5316291 5.041989,-4.4463548 9.10815,-5.0516063 4.19836,-0.6249299 5.66545,-0.3690452 9.49874,1.6567409 3.75294,1.9833243 5.13404,3.5792134 8.02154,9.2690515 6.09382,12.007928 5.37364,26.821357 -1.72514,35.484489 -5.58029,6.810012 -13.3713,8.904005 -20.878692,5.611579 z"
       id="path3081"
       inkscape:connector-curvature="0" />
    <path
       style="fill:#0f59c7"
       d="M 13.907284,54.692997 C 2.0722178,48.497906 -2.4688424,29.322506 4.4404154,14.717535 12.861955,-3.084139 31.5769,-1.0172192 38.939841,18.527727 c 1.886847,5.008639 2.187501,7.44796 1.863351,15.118078 -0.338485,8.009331 -0.755567,9.748995 -3.35648,14 -5.332922,8.716272 -14.88672,11.576472 -23.539428,7.047192 z M 29.653512,39.491372 C 36.451735,35.037005 38.156822,23.720867 33.452285,14.28009 27.943893,3.226188 17.640591,2.0493148 10.326491,11.638594 6.380982,16.811424 5.8624421,26.532064 9.186984,33 c 4.099301,7.975238 13.601972,10.989202 20.466528,6.491372 z M 98.381698,55.469297 C 90.915636,52.194997 86.053546,42.879024 86.021962,31.787513 85.993922,21.940419 88.695346,14.392608 94.3571,8.4990429 c 3.392719,-3.5316291 5.041989,-4.4463548 9.10815,-5.0516063 4.19836,-0.6249299 5.66545,-0.3690452 9.49874,1.6567409 3.75294,1.9833243 5.13404,3.5792134 8.02154,9.2690515 6.09382,12.007928 5.37364,26.821357 -1.72514,35.484489 -5.58029,6.810012 -13.3713,8.904005 -20.878692,5.611579 z M 112.01513,38.75 C 123.05953,31.244511 120.98754,11.712134 108.65254,7.0513165 95.045056,1.909684 85.594826,26.465967 97.189851,36.836955 102.5553,41.635999 106.93645,42.20134 112.01513,38.75 z"
       id="path3079"
       inkscape:connector-curvature="0" />
    <path
       style="fill:#0d226c"
       d="M 18.788397,56.321437 C 14.451321,55.606688 6.5644305,47.813349 4.5934785,42.294893 3.6515884,39.657702 2.4577371,36.718606 1.9404756,35.763569 0.74440207,33.555219 0.70667592,25 1.8930112,25 3.143963,25 4,27.594307 4,31.385443 c 0,1.772028 1.1685031,5.566749 2.5966736,8.432713 6.5335584,13.111144 24.2445574,13.84012 30.0568824,1.237127 2.27616,-4.93545 3.397968,-5.217604 2.354786,-0.59227 -2.343171,10.389313 -11.209714,17.343309 -20.219945,15.858424 z m 81.565653,-0.31411 C 96.825178,54.583416 90.955862,48.062842 88.912793,43.296554 87.704911,40.478679 87.040751,36.745727 87.110579,33.167095 L 87.221158,27.5 l 1.25342,5.121864 c 0.689381,2.817026 2.297461,6.979485 3.573512,9.249911 4.440327,7.900497 15.49298,10.439454 22.79883,5.237228 3.8031,-2.708044 8.4463,-12.043779 9.25533,-18.609003 0.58571,-4.752943 0.62311,-4.644684 0.75695,2.190983 0.0774,3.955041 -0.27458,7.447701 -0.78226,7.761468 -0.50769,0.313766 -1.20989,1.876392 -1.56046,3.472502 -0.89681,4.083168 -7.03176,11.617147 -10.98901,13.494988 -3.63012,1.722602 -7.81483,1.942592 -11.17342,0.587386 z"
       id="path3077"
       inkscape:connector-curvature="0" />
  </g>
</svg>
