<?xml version="1.0" encoding="UTF-8" standalone="no"?>
<!-- Created with Inkscape (http://www.inkscape.org/) -->

<svg
   xmlns:dc="http://purl.org/dc/elements/1.1/"
   xmlns:cc="http://creativecommons.org/ns#"
   xmlns:rdf="http://www.w3.org/1999/02/22-rdf-syntax-ns#"
   xmlns:svg="http://www.w3.org/2000/svg"
   xmlns="http://www.w3.org/2000/svg"
   xmlns:sodipodi="http://sodipodi.sourceforge.net/DTD/sodipodi-0.dtd"
   xmlns:inkscape="http://www.inkscape.org/namespaces/inkscape"
   id="svg3577"
   version="1.1"
   inkscape:version="0.48.4 r9939"
   width="123.83906"
   height="54.503349"
   sodipodi:docname="set_eyes_pink.png">
  <metadata
     id="metadata3583">
    <rdf:RDF>
      <cc:Work
         rdf:about="">
        <dc:format>image/svg+xml</dc:format>
        <dc:type
           rdf:resource="http://purl.org/dc/dcmitype/StillImage" />
        <dc:title></dc:title>
      </cc:Work>
    </rdf:RDF>
  </metadata>
  <defs
     id="defs3581" />
  <sodipodi:namedview
     pagecolor="#ffffff"
     bordercolor="#666666"
     borderopacity="1"
     objecttolerance="10"
     gridtolerance="10"
     guidetolerance="10"
     inkscape:pageopacity="0"
     inkscape:pageshadow="2"
     inkscape:window-width="640"
     inkscape:window-height="480"
     id="namedview3579"
     showgrid="false"
     fit-margin-top="0"
     fit-margin-left="0"
     fit-margin-right="0"
     fit-margin-bottom="0"
     inkscape:zoom="2.3174603"
     inkscape:cx="65.337837"
     inkscape:cy="29.827249"
     inkscape:window-x="65"
     inkscape:window-y="24"
     inkscape:window-maximized="0"
     inkscape:current-layer="svg3577" />
  <g
     id="g3587"
     transform="translate(-18.374492,-60.351297)">
    <path
       style="fill:#ee1083"
       d="m 31.463992,112.69373 c -8.41311,-4.1644 -12.710677,-12.925805 -12.690411,-25.871812 0.01135,-7.253355 0.422129,-9.336548 2.800783,-14.203837 8.731056,-17.865809 27.241102,-15.87101 34.625752,3.731564 1.886847,5.008639 2.187501,7.44796 1.863351,15.118078 -0.338485,8.009331 -0.755567,9.748997 -3.35648,13.999997 -5.257807,8.59351 -14.607817,11.50033 -23.242995,7.22601 z m 84.177978,0.59748 c -3.87118,-1.69773 -8.0865,-6.59296 -10.65481,-12.37338 -2.9141,-6.558676 -2.14002,-19.687272 1.61309,-27.358358 5.56814,-11.380865 14.76024,-15.478577 23.66002,-10.547316 6.51753,3.611282 11.32605,13.134467 11.84766,23.464136 0.48517,9.607723 -1.14034,15.776458 -5.58727,21.203348 -5.58029,6.81001 -13.3713,8.904 -20.87869,5.61157 z"
       id="path3595"
       inkscape:connector-curvature="0" />
    <path
       style="fill:#e10476"
       d="m 34.546326,114.12091 c -1.217673,-0.23576 -4.479779,-2.46582 -7.249126,-4.9557 -4.267023,-3.83642 -5.36005,-5.59664 -7.164702,-11.53806 -2.818644,-9.279771 -2.255242,-17.254511 1.743213,-24.674519 3.252693,-6.036084 8.479438,-11.130713 11.41936,-11.130713 2.623578,0 2.49292,1.291042 -0.254312,2.512871 -1.220733,0.542921 -3.569619,2.919022 -5.219746,5.280225 -2.466481,3.529342 -3.059527,5.486275 -3.333538,11 -0.395488,7.958128 1.487568,12.474537 6.634553,15.912623 7.584273,5.066143 15.618982,3.364904 19.86299,-4.205719 2.786149,-4.970038 3.105469,-14.948199 0.644348,-20.134628 -0.897001,-1.890288 -1.350675,-3.717122 -1.008165,-4.059632 0.34251,-0.342509 2.253483,2.906774 4.246608,7.220631 3.421557,7.405513 3.599129,8.293618 3.180823,15.908502 -0.48721,8.869219 -2.587333,14.157479 -7.446774,18.751509 -4.541357,4.29332 -9.096147,5.46002 -16.055532,4.11261 z m 80.629004,-1.2824 c -4.45181,-2.35325 -8.56838,-7.64287 -10.60923,-13.632456 -3.54001,-10.389336 0.47942,-26.476346 8.33958,-33.37766 3.95005,-3.468191 5.88614,-3.285169 2.61781,0.247467 -9.80979,10.603119 -8.54592,27.07938 2.45035,31.943551 3.91233,1.73061 5.14235,1.862644 8.36301,0.89771 12.12168,-3.631744 14.30503,-22.703191 3.75159,-32.769857 -1.8305,-1.746058 -4.45316,-3.376614 -5.82816,-3.623457 -1.375,-0.246842 -0.73897,-0.313705 1.41342,-0.148584 5.60635,0.430095 8.5813,3.113667 12.78847,11.535928 3.20135,6.408751 3.70839,8.374044 3.75,14.535039 0.0581,8.603644 -1.71312,14.027359 -6.48104,19.845979 -5.45836,6.66122 -13.28164,8.39149 -20.5558,4.54634 z"
       id="path3593"
       inkscape:connector-curvature="0" />
    <path
       style="fill:#a10c59"
       d="m 34.546326,114.12091 c -1.217673,-0.23576 -4.479779,-2.46582 -7.249126,-4.9557 -4.267023,-3.83642 -5.36005,-5.59664 -7.164702,-11.53806 -2.818644,-9.279771 -2.255242,-17.254511 1.743213,-24.674519 3.153104,-5.851274 8.468632,-11.140393 11.16936,-11.113866 1.136806,0.01116 0.61099,0.723944 -1.559275,2.1137 -6.037445,3.866154 -11.001271,16.086774 -9.622432,23.68981 1.424876,7.856888 7.235412,15.348055 13.033495,16.803275 1.365342,0.34268 4.519185,0.39349 7.008541,0.1129 5.736856,-0.64663 10.644226,-5.126693 12.370881,-11.2937 1.184507,-4.230644 0.968785,-14.853764 -0.384668,-18.942832 -0.364093,-1.1 0.515869,0.475 1.955471,3.5 2.315137,4.86474 2.567853,6.424015 2.187983,13.5 -0.472536,8.802132 -2.578822,14.097132 -7.433209,18.686382 -4.541357,4.29332 -9.096147,5.46002 -16.055532,4.11261 z m 80.629004,-1.2824 c -4.31511,-2.28098 -8.46644,-7.49363 -10.45379,-13.126383 -4.20079,-11.906313 1.14547,-29.964821 10.56367,-35.681765 2.40333,-1.458845 2.3984,-1.432915 -0.16998,0.894582 -15.41198,13.966548 -8.45538,41.690046 9.9409,39.616516 4.97244,-0.56047 9.25564,-4.01947 12.29572,-9.929704 5.54501,-10.780044 -1.92263,-29.594199 -12.65519,-31.883864 l -3.93638,-0.839781 4.41342,0.393667 c 6.14062,0.547729 9.0051,3.054569 13.28847,11.629374 3.20135,6.408751 3.70839,8.374044 3.75,14.535039 0.0581,8.603644 -1.71312,14.027359 -6.48104,19.845979 -5.45836,6.66122 -13.28164,8.39149 -20.5558,4.54634 z M 51.260275,69.821918 c -0.588702,-1.1 -0.845368,-2 -0.570368,-2 0.275,0 0.981666,0.9 1.570368,2 0.588702,1.1 0.845368,2 0.570368,2 -0.275,0 -0.981666,-0.9 -1.570368,-2 z"
       id="path3591"
       inkscape:connector-curvature="0" />
    <path
       style="fill:#6d0f40"
       d="m 36.374578,114.13279 c -2.529988,-0.5149 -2.607851,-0.56473 -8.249179,-5.2786 -3.468977,-2.89867 -8.859562,-13.371168 -7.554434,-14.676295 0.314681,-0.314682 1.294987,1.157849 2.178457,3.27229 3.424803,8.196705 10.757224,12.890775 18.912159,12.107195 4.484507,-0.4309 5.526308,-1.01272 9.323661,-5.20703 4.441756,-4.906078 5.670639,-4.32943 2.356434,1.10574 -3.867823,6.34308 -10.861204,9.91939 -16.967098,8.6767 z m 81.906562,-0.0495 c -3.74258,-1.46947 -10.09891,-8.85399 -12.00395,-13.94568 -2.18924,-5.851261 -2.50209,-7.733542 -1.14608,-6.895481 0.47896,0.296014 1.12998,1.785071 1.4467,3.309017 0.79556,3.827924 6.35995,10.238104 10.32555,11.895044 7.55595,3.15707 15.57402,0.27417 19.93526,-7.16772 3.05313,-5.209745 3.77967,-5.330307 2.41228,-0.40029 -1.06091,3.82501 -8.13811,11.66915 -11.77618,13.05234 -2.58426,0.98254 -6.89773,1.05421 -9.19358,0.15277 z m 23.31534,-25.261332 c 0,-4.125 0.17651,-5.8125 0.39226,-3.75 0.21574,2.0625 0.21574,5.4375 0,7.5 -0.21575,2.0625 -0.39226,0.375 -0.39226,-3.75 z m -123.036541,-1 c 0,-3.025 0.187466,-4.2625 0.41659,-2.75 0.229125,1.5125 0.229125,3.9875 0,5.5 -0.229124,1.5125 -0.41659,0.275 -0.41659,-2.75 z"
       id="path3589"
       inkscape:connector-curvature="0" />
  </g>
</svg>
