<?xml version="1.0" encoding="UTF-8" standalone="no"?>
<!-- Created with Inkscape (http://www.inkscape.org/) -->

<svg
   xmlns:dc="http://purl.org/dc/elements/1.1/"
   xmlns:cc="http://creativecommons.org/ns#"
   xmlns:rdf="http://www.w3.org/1999/02/22-rdf-syntax-ns#"
   xmlns:svg="http://www.w3.org/2000/svg"
   xmlns="http://www.w3.org/2000/svg"
   xmlns:sodipodi="http://sodipodi.sourceforge.net/DTD/sodipodi-0.dtd"
   xmlns:inkscape="http://www.inkscape.org/namespaces/inkscape"
   id="svg3457"
   version="1.1"
   inkscape:version="0.48.4 r9939"
   width="124.03974"
   height="54.794498"
   sodipodi:docname="set_eyes_orange.png">
  <metadata
     id="metadata3463">
    <rdf:RDF>
      <cc:Work
         rdf:about="">
        <dc:format>image/svg+xml</dc:format>
        <dc:type
           rdf:resource="http://purl.org/dc/dcmitype/StillImage" />
        <dc:title></dc:title>
      </cc:Work>
    </rdf:RDF>
  </metadata>
  <defs
     id="defs3461" />
  <sodipodi:namedview
     pagecolor="#ffffff"
     bordercolor="#666666"
     borderopacity="1"
     objecttolerance="10"
     gridtolerance="10"
     guidetolerance="10"
     inkscape:pageopacity="0"
     inkscape:pageshadow="2"
     inkscape:window-width="640"
     inkscape:window-height="480"
     id="namedview3459"
     showgrid="false"
     fit-margin-top="0"
     fit-margin-left="0"
     fit-margin-right="0"
     fit-margin-bottom="0"
     inkscape:zoom="2.3174603"
     inkscape:cx="52.882136"
     inkscape:cy="62.577136"
     inkscape:window-x="65"
     inkscape:window-y="24"
     inkscape:window-maximized="0"
     inkscape:current-layer="svg3457" />
  <g
     id="g3467"
     transform="translate(-1.0562206,-2.1935972)">
    <path
       style="fill:#c18c61"
       d="M 14.5,55.104137 C 5.8937751,51.119585 1.992087,44.012653 1.2668873,31 0.87446313,23.958519 1.1577373,21.556252 2.9177607,17 7.5369763,5.0420271 15.673826,0.11479673 26.044357,2.9958002 33.768731,5.1416833 41.114663,17.312581 41.817666,29.129359 43.006773,49.117056 29.437015,62.019749 14.5,55.104137 z m 83.30256,0.119639 C 89.54093,51.372139 84.343009,40.37658 85.313205,28.804093 86.396292,15.885034 92.701119,6.0148804 101.50535,3.4554197 c 4.84343,-1.408021 5.68219,-1.4038998 9.1498,0.044957 8.80576,3.6792854 13.37757,11.6695813 14.1192,24.6766033 0.62237,10.915491 -0.82473,16.893304 -5.38041,22.225829 -5.50824,6.447529 -14.02399,8.348944 -21.59138,4.820967 z"
       id="path3475"
       inkscape:connector-curvature="0" />
    <path
       style="fill:#ed6d04"
       d="M 18.736088,56.166649 C 13.998591,55.023976 6.5404045,47.733451 4.5932187,42.341715 3.6315162,39.678772 2.3695054,36.517262 1.7887501,35.316137 -0.72853597,30.109857 3.8134196,14.949468 9.7496907,8.7436715 12.947805,5.4003529 18.10988,3.8340289 23.23126,4.6529706 c 4.891234,0.7821398 12.512899,8.8552364 15.023686,15.9135404 2.011299,5.654146 2.308773,16.473042 0.592102,21.534266 -3.354817,9.890929 -12.090083,16.00049 -20.11096,14.065872 z M 23.5,23.930362 c 0,-0.771635 -0.7875,-1.554631 -1.75,-1.739991 -1.723738,-0.331962 -2.436342,1.789953 -1.0625,3.163796 1.048207,1.048207 2.8125,0.155048 2.8125,-1.423805 z m 77.80655,32.371316 C 97.999994,55.659559 91.13075,48.470838 88.939965,43.359944 87.646339,40.342038 87,36.541259 87,31.952042 87,14.964726 96.596431,3.3493922 108.76482,5.608333 c 5.88488,1.0924715 7.89456,3.0177652 12.20513,11.692685 4.75808,9.575528 5.34391,16.468069 2.05234,24.146974 -5.02291,11.71799 -12.28477,16.685139 -21.71574,14.853686 z M 108,24.452028 c 0,-1.878887 -1.97304,-2.878985 -3.21991,-1.632113 -1.49333,1.493329 -0.17969,4.270656 1.68206,3.556237 C 107.30797,26.051581 108,25.185725 108,24.452028 z"
       id="path3473"
       inkscape:connector-curvature="0" />
    <path
       style="fill:#a4510d"
       d="M 18.736088,56.166649 C 13.998591,55.023976 6.5404045,47.733451 4.5932187,42.341715 3.6315162,39.678772 2.3695054,36.517262 1.7887501,35.316137 -0.92677453,29.699858 4.3248077,13.556034 10.68344,7.9730809 12.545824,6.3378864 14.505231,5 15.037677,5 15.570124,5 14.231286,6.6031318 12.062483,8.5625151 4.451789,15.43832 2.5618732,30.43128 8.2679408,38.665138 13.62213,46.391236 22.872235,48.714218 30.214344,44.176545 35.474814,40.925396 37.5,36.06177 37.5,26.679533 c 0,-6.994133 0.127313,-7.522449 1.204896,-5 1.548544,3.624892 1.634829,16.020417 0.142152,20.421244 -3.354817,9.890929 -12.090083,16.00049 -20.11096,14.065872 z m 82.570462,0.135029 c -3.306556,-0.642119 -10.1758,-7.83084 -12.366585,-12.941734 -2.4217,-5.649598 -2.572193,-16.172695 -0.33055,-23.113538 0.885178,-2.740795 3.247678,-6.756418 5.25,-8.923606 2.002322,-2.1671885 2.903868,-3.0138954 2.003436,-1.8815713 -2.650087,3.3325763 -5.534792,9.7812523 -6.146147,13.7395353 -0.787111,5.096238 1.571601,14.429854 4.416162,17.475116 8.385914,8.977587 20.905994,6.654973 25.830264,-4.791802 3.56746,-8.292785 1.52654,-19.162677 -4.85814,-25.87437 -4.15232,-4.3649915 -3.98185,-5.4584629 0.24086,-1.5449903 1.45084,1.3445947 4.21655,5.7705883 6.14602,9.8355413 5.60023,11.79839 4.48429,21.644856 -3.5921,31.694837 -4.74524,5.904819 -9.4763,7.708655 -16.59322,6.326582 z"
       id="path3471"
       inkscape:connector-curvature="0" />
    <path
       style="fill:#6d390f"
       d="m 19.114303,56.310875 c -1.312133,-0.267048 -2.887133,-0.889458 -3.5,-1.383133 C 15.001436,54.434066 12.969885,52.801469 11.099744,51.299749 7.7448961,48.605811 2.933248,39.569776 3.0706372,36.221487 3.1094876,35.274669 4.0380126,36.525 5.134026,39 11.694493,53.814741 27.335078,56.374254 35.75,44.010169 c 1.712629,-2.516373 2.249107,-2.852661 2.246262,-1.408052 -0.0055,2.816928 -3.367381,7.81643 -7.244636,10.773756 -3.583394,2.733188 -7.623009,3.752003 -11.637323,2.935002 z m 82.480607,-0.03007 C 98.768668,55.55805 92.053778,49.009322 89.980178,44.953487 c -0.997262,-1.950582 -2.093038,-5.325582 -2.435058,-7.5 -0.592249,-3.765265 -0.484207,-3.664896 2.269346,2.108172 3.210338,6.730759 6.540387,9.86516 12.320934,11.597054 7.16505,2.146702 14.495,-1.782628 18.91501,-10.13968 2.08349,-3.939322 2.42026,-3.245653 0.96174,1.980967 -1.08106,3.87402 -8.14086,11.718237 -11.79771,13.10857 -2.45603,0.93378 -5.41075,0.992821 -8.61953,0.172236 z M 124.33621,31 c 0,-4.125 0.17651,-5.8125 0.39226,-3.75 0.21574,2.0625 0.21574,5.4375 0,7.5 -0.21575,2.0625 -0.39226,0.375 -0.39226,-3.75 z M 1.2996642,30 c 0,-3.025 0.1874656,-4.2625 0.4165902,-2.75 0.2291247,1.5125 0.2291247,3.9875 0,5.5 C 1.4871298,34.2625 1.2996642,33.025 1.2996642,30 z"
       id="path3469"
       inkscape:connector-curvature="0" />
  </g>
</svg>
