<?xml version="1.0" encoding="UTF-8" standalone="no"?>
<!-- Created with Inkscape (http://www.inkscape.org/) -->

<svg
   xmlns:dc="http://purl.org/dc/elements/1.1/"
   xmlns:cc="http://creativecommons.org/ns#"
   xmlns:rdf="http://www.w3.org/1999/02/22-rdf-syntax-ns#"
   xmlns:svg="http://www.w3.org/2000/svg"
   xmlns="http://www.w3.org/2000/svg"
   xmlns:sodipodi="http://sodipodi.sourceforge.net/DTD/sodipodi-0.dtd"
   xmlns:inkscape="http://www.inkscape.org/namespaces/inkscape"
   id="svg3817"
   version="1.1"
   inkscape:version="0.48.4 r9939"
   width="124"
   height="124"
   sodipodi:docname="set-eyes-red.svg">
  <metadata
     id="metadata3823">
    <rdf:RDF>
      <cc:Work
         rdf:about="">
        <dc:format>image/svg+xml</dc:format>
        <dc:type
           rdf:resource="http://purl.org/dc/dcmitype/StillImage" />
        <dc:title />
      </cc:Work>
    </rdf:RDF>
  </metadata>
  <defs
     id="defs3821" />
  <sodipodi:namedview
     pagecolor="#ffffff"
     bordercolor="#666666"
     borderopacity="1"
     objecttolerance="10"
     gridtolerance="10"
     guidetolerance="10"
     inkscape:pageopacity="0"
     inkscape:pageshadow="2"
     inkscape:window-width="640"
     inkscape:window-height="480"
     id="namedview3819"
     showgrid="false"
     fit-margin-top="0"
     fit-margin-left="0"
     fit-margin-right="0"
     fit-margin-bottom="0"
     inkscape:zoom="2.3174603"
     inkscape:cx="61.136986"
     inkscape:cy="61.327249"
     inkscape:window-x="75"
     inkscape:window-y="34"
     inkscape:window-maximized="0"
     inkscape:current-layer="svg3817" />
  <g
     id="g3827"
     transform="translate(-1,34.172752)">
    <path
       style="fill:#ed0505"
       d="M 15.5,55.10015 C 6.0772605,50.728172 1.5,42.194802 1.5,29 1.5,21.203899 1.7859954,19.972446 4.9535637,14.129476 9.2054391,6.2863686 13.900746,2.8333333 20.313632,2.8333333 c 5.575805,0 9.616807,2.0464595 13.616673,6.8958069 C 38.388641,15.134327 41,22.841513 41,30.594693 41,39.726698 39.369538,45.20828 35.206718,50.0716 29.312875,56.95723 22.983411,58.572315 15.5,55.10015 z M 97.915054,55.01659 C 89.807695,50.731012 85.47585,41.133427 86.246324,29.163494 87.375213,11.625312 98.514918,0.04456614 110.46318,3.9878485 118.3092,6.5772678 125,18.993128 125,30.963258 c 0,8.305649 -1.82955,13.771772 -6.52914,19.506999 -5.45836,6.661211 -13.28164,8.391488 -20.555806,4.546335 z"
       id="path3833"
       inkscape:connector-curvature="0" />
    <path
       style="fill:#a10c0c"
       d="M 15.5,55.10015 C 6.0772605,50.728172 1.5,42.194802 1.5,29 1.5,21.203899 1.7859954,19.972446 4.9535637,14.129476 9.2054391,6.2863686 13.900746,2.8333333 20.313632,2.8333333 c 5.575805,0 9.616807,2.0464595 13.616673,6.8958069 C 38.388641,15.134327 41,22.841513 41,30.594693 41,39.726698 39.369538,45.20828 35.206718,50.0716 29.312875,56.95723 22.983411,58.572315 15.5,55.10015 z M 30.824492,44.325101 C 40.17305,37.496992 40.076161,19.332894 30.638643,9.4833547 26.634693,5.3046007 25.991682,5 21.174298,5 16.654711,5 15.510653,5.4473008 12.062483,8.5625151 1.4874857,18.11639 2.9978705,38.606115 14.747546,44.987799 19.38302,47.505497 26.894011,47.195891 30.824492,44.325101 z M 97.915054,55.016592 C 89.807695,50.731012 85.47585,41.133427 86.246324,29.163494 87.375213,11.625312 98.514918,0.04456614 110.46318,3.9878485 118.3092,6.5772678 125,18.993128 125,30.963258 c 0,8.305649 -1.82955,13.771772 -6.52914,19.506999 -5.45836,6.661211 -13.28164,8.391488 -20.555806,4.546335 z M 113.75188,44.401736 c 3.40419,-2.192443 7.35356,-8.768947 7.9539,-13.244865 0.29406,-2.192378 -0.0244,-6.387056 -0.70766,-9.321507 -2.46569,-10.589346 -7.96468,-16.197991 -15.76568,-16.0800593 -5.699839,0.086167 -8.641247,2.2364172 -12.568651,9.1880273 -4.80237,8.500322 -3.967269,19.385517 2.060035,26.851722 3.908974,4.842165 13.514006,6.157972 19.028056,2.606682 z"
       id="path3831"
       inkscape:connector-curvature="0" />
    <path
       style="fill:#6c0e0e"
       d="M 18.5,56.264182 C 14.025329,55.136978 7.9522139,49.591971 5.488528,44.384167 1.908847,36.817343 2.4691481,34.423212 6.2071321,41.313617 10.181337,48.639459 15.368783,52 22.702999,52 27.682548,52 31.592595,50.048405 34.668726,46.027629 35.311525,45.187433 36.572326,43.6 37.470505,42.5 39.067619,40.544014 39.089213,40.555018 38.451737,43 36.085717,52.074666 26.683191,58.325591 18.5,56.264182 z m 81,-0.780157 C 97.85,54.594736 95.479528,52.911099 94.232284,51.74261 91.20185,48.903527 86.982728,39.813112 87.070462,36.311925 c 0.06597,-2.632842 0.160541,-2.566254 1.484858,1.04554 C 92.152467,47.167924 97.939661,52 106.09213,52 c 5.45495,0 10.27758,-3.045115 14.06461,-8.880702 2.68009,-4.129858 2.92986,-4.301431 2.35731,-1.619298 -0.83378,3.905853 -5.09671,10.06664 -8.78072,12.689884 -3.89039,2.770205 -10.39696,3.361803 -14.23333,1.294141 z M 124.34281,31.5 c 0.004,-4.4 0.17944,-6.075605 0.39069,-3.723567 0.21124,2.352038 0.20827,5.952038 -0.007,8 C 124.51202,37.824395 124.33918,35.9 124.34281,31.5 z M 1,29.5 C 1,26.291667 1.1852321,23.854167 1.411627,24.083333 2.1631681,24.844076 2.4106143,33.922719 1.6991982,34.634135 1.3146392,35.018694 1,32.708333 1,29.5 z"
       id="path3829"
       inkscape:connector-curvature="0" />
  </g>
</svg>
