<?xml version="1.0" encoding="UTF-8" standalone="no"?>
<!-- Created with Inkscape (http://www.inkscape.org/) -->

<svg
   xmlns:dc="http://purl.org/dc/elements/1.1/"
   xmlns:cc="http://creativecommons.org/ns#"
   xmlns:rdf="http://www.w3.org/1999/02/22-rdf-syntax-ns#"
   xmlns:svg="http://www.w3.org/2000/svg"
   xmlns="http://www.w3.org/2000/svg"
   xmlns:sodipodi="http://sodipodi.sourceforge.net/DTD/sodipodi-0.dtd"
   xmlns:inkscape="http://www.inkscape.org/namespaces/inkscape"
   id="svg3301"
   version="1.1"
   inkscape:version="0.48.4 r9939"
   width="140.67123"
   height="140"
   sodipodi:docname="set-eyes-mystery.svg">
  <metadata
     id="metadata3307">
    <rdf:RDF>
      <cc:Work
         rdf:about="">
        <dc:format>image/svg+xml</dc:format>
        <dc:type
           rdf:resource="http://purl.org/dc/dcmitype/StillImage" />
        <dc:title></dc:title>
      </cc:Work>
    </rdf:RDF>
  </metadata>
  <defs
     id="defs3305" />
  <sodipodi:namedview
     pagecolor="#ffffff"
     bordercolor="#666666"
     borderopacity="1"
     objecttolerance="10"
     gridtolerance="10"
     guidetolerance="10"
     inkscape:pageopacity="0"
     inkscape:pageshadow="2"
     inkscape:window-width="1294"
     inkscape:window-height="1012"
     id="namedview3303"
     showgrid="false"
     fit-margin-top="0"
     fit-margin-left="0"
     fit-margin-right="0"
     fit-margin-bottom="0"
     inkscape:zoom="2.3174603"
     inkscape:cx="68.992395"
     inkscape:cy="55.322398"
     inkscape:window-x="65"
     inkscape:window-y="344"
     inkscape:window-maximized="0"
     inkscape:current-layer="svg3301" />
  <path
     sodipodi:type="arc"
     style="fill:#000000;fill-opacity:1;stroke:#550000;stroke-width:0;stroke-linecap:square;stroke-linejoin:miter;stroke-miterlimit:4;stroke-opacity:1;stroke-dasharray:none"
     id="path3766"
     sodipodi:cx="33.873287"
     sodipodi:cy="77.693016"
     sodipodi:rx="80.044518"
     sodipodi:ry="63.647263"
     d="m 113.9178,77.693016 a 80.044518,63.647263 0 1 1 -0.0185,-1.367446"
     sodipodi:start="0"
     sodipodi:end="6.2616989"
     sodipodi:open="true"
     transform="matrix(0.8787062,0,0,0.93559322,41.002453,-3.0246695)" />
  <g
     id="g3311"
     transform="translate(7.8477779,35.191312)">
    <path
       style="fill:#9c9797"
       d="M 15.25209,55.753851 C 13.465739,55.180766 10.024387,52.59532 7.6046416,50.008416 4.1021865,46.264008 2.9566511,44.108164 1.9866234,39.435565 -1.3805793,23.215837 4.1432273,6.9206307 14.3151,3.0666124 19.328832,1.1669607 25.376806,1.7705861 29.610453,4.5931839 c 5.283047,3.5222383 6.90573,5.7545111 9.990934,13.7441981 2.290983,5.932911 2.58096,7.91716 2.192087,15 C 40.813951,51.178194 29.850971,60.437368 15.25209,55.753851 z M 97.877376,55.223776 C 93.362567,53.075466 88.668375,47.710905 86.448407,42.16266 82.532725,32.376407 86.398063,14.736561 94.110424,7.1962998 100.15285,1.2887063 109.64567,0.78704507 116.30276,6.0235148 c 4.3154,3.3944938 7.945,12.1567162 8.47837,20.4676282 0.79359,12.365876 -0.33378,17.749735 -4.865,23.233166 -5.85793,7.088946 -14.28111,9.190836 -22.038754,5.499467 z"
       id="path3339"
       inkscape:connector-curvature="0" />
    <path
       style="fill:#eed00c"
       d="m 19.114303,56.310875 c -1.312133,-0.267048 -2.887133,-0.912671 -3.5,-1.434718 C 15.001436,54.35411 12.633232,52.588112 10.351627,50.951717 4.959995,47.084773 1,37.803763 1,29.034379 1,18.62566 9.0928854,5.2697114 16.531149,3.4028261 c 1.371958,-0.3443395 4.494159,-0.3262 6.938224,0.04031 3.670162,0.5503747 5.222432,1.5324578 8.916709,5.6413838 5.74391,6.3886101 8.024889,13.0192321 8.055083,23.4154801 0.02856,9.833681 -2.415501,15.4599 -8.79353,20.24266 -4.42808,3.320531 -8.314198,4.426901 -12.533332,3.568215 z m 6.744466,-3.932629 c 1.709823,-0.341964 2.864515,-1.016964 2.565983,-1.5 -0.724051,-1.171538 -11.150448,-1.131097 -11.877978,0.04607 -1.003495,1.623689 4.312852,2.453757 9.311995,1.453928 z M 36,21.125 C 36,20.64375 29.475,20.25 21.5,20.25 13.525,20.25 7,20.64375 7,21.125 7,21.60625 13.525,22 21.5,22 29.475,22 36,21.60625 36,21.125 z m 65,35.146109 C 100.175,55.95706 99.275,55.406298 99,55.047193 98.725,54.688088 96.739488,53.071464 94.587752,51.454696 84.42465,43.818361 83.217103,25.686958 91.963833,12.056362 95.58005,6.4209764 99.874089,4 106.25325,4 c 7.66186,0 11.57887,3.9234674 17.49675,17.525625 1.78054,4.092544 1.58067,16.438724 -0.34056,21.036884 -1.73016,4.140844 -9.51441,12.113437 -13.22454,13.54451 -2.54045,0.979905 -6.83998,1.056716 -9.1849,0.16409 z m 7.75,-3.901395 C 112.67677,51.317379 111.18079,50 106.05902,50 c -7.194682,0 -7.584855,1.989306 -0.55902,2.850163 0.55,0.06739 2.0125,-0.148812 3.25,-0.480449 z M 119,21.1 c 0,-1.176075 -26.834949,-1.176075 -27.561803,0 C 91.118653,21.617032 96.864358,22 104.94098,22 112.67344,22 119,21.595 119,21.1 z"
       id="path3337"
       inkscape:connector-curvature="0" />
    <path
       style="fill:#e99e21"
       d="m 19.114303,56.310875 c -1.312133,-0.267048 -2.887133,-0.912671 -3.5,-1.434718 C 15.001436,54.35411 12.633232,52.588112 10.351627,50.951717 4.959995,47.084773 1,37.803763 1,29.034379 1,18.62566 9.0928854,5.2697114 16.531149,3.4028261 c 1.371958,-0.3443395 4.494159,-0.3262 6.938224,0.04031 3.670162,0.5503747 5.222432,1.5324578 8.916709,5.6413838 5.74391,6.3886101 8.024889,13.0192321 8.055083,23.4154801 0.02856,9.833681 -2.415501,15.4599 -8.79353,20.24266 -4.42808,3.320531 -8.314198,4.426901 -12.533332,3.568215 z m 6.744466,-3.932629 c 1.709823,-0.341964 2.864515,-1.016964 2.565983,-1.5 -0.724051,-1.171538 -11.150448,-1.131097 -11.877978,0.04607 -1.003495,1.623689 4.312852,2.453757 9.311995,1.453928 z M 36.149714,26.392483 c 1.375795,-0.386623 1.471757,-0.935061 0.577945,-3.303041 L 35.655889,20.25 l -14.225863,0 c -13.784108,0 -14.263748,0.07079 -15.4458926,2.279647 -0.6710166,1.253806 -0.934247,2.742054 -0.5849565,3.307218 0.6307134,1.020516 27.3765311,1.503774 30.7505371,0.555618 z M 101,56.271109 C 100.175,55.95706 99.275,55.406298 99,55.047193 98.725,54.688088 96.739488,53.071464 94.587752,51.454696 84.42465,43.818361 83.217103,25.686958 91.963833,12.056362 95.58005,6.4209764 99.874089,4 106.25325,4 c 7.66186,0 11.57887,3.9234674 17.49675,17.525625 1.78054,4.092544 1.58067,16.438724 -0.34056,21.036884 -1.73016,4.140844 -9.51441,12.113437 -13.22454,13.54451 -2.54045,0.979905 -6.83998,1.056716 -9.1849,0.16409 z m 7.75,-3.901395 C 112.67677,51.317379 111.18079,50 106.05902,50 c -7.194682,0 -7.584855,1.989306 -0.55902,2.850163 0.55,0.06739 2.0125,-0.148812 3.25,-0.480449 z m 11.51409,-26.02775 c 1.66128,-0.457378 1.66673,-0.650496 0.0935,-3.313823 L 118.68693,20.2 l -13.3618,0 c -12.289126,0 -13.446788,0.158803 -14.420468,1.978141 -2.245444,4.195649 -0.865252,4.661831 13.783178,4.655487 7.59669,-0.0033 14.606,-0.224539 15.57625,-0.491664 z"
       id="path3335"
       inkscape:connector-curvature="0" />
    <path
       style="fill:#c900da"
       d="m 19.114303,56.310875 c -1.312133,-0.267048 -2.887133,-0.912671 -3.5,-1.434718 C 15.001436,54.35411 12.633232,52.588112 10.351627,50.951717 7.1551075,48.659135 5.6063055,46.485302 3.6016272,41.477706 -0.10425062,32.220589 0.04758738,25.083661 4.1323403,16.532296 8.8241047,6.7101624 14.720499,2.2414999 21.629171,3.2720861 24.169074,3.6509707 24.081845,3.7176072 20.872445,3.8501679 18.877289,3.9325756 16.684689,4.675 16,5.5 14.916486,6.8055546 15.548765,7 20.877555,7 26.499671,7 28.803801,5.8945162 25.75,4.6622807 24.966638,4.3461875 25.118699,4.1284228 26.157331,4.0789474 28.821682,3.9520303 36.673235,13.514448 38.638484,19.279761 41.294815,27.072454 41.096047,39.234606 38.218135,45 34.410332,52.628268 25.8687,57.685543 19.114303,56.310875 z m 6.744466,-3.932629 c 1.709823,-0.341964 2.864515,-1.016964 2.565983,-1.5 -0.724051,-1.171538 -11.150448,-1.131097 -11.877978,0.04607 -1.003495,1.623689 4.312852,2.453757 9.311995,1.453928 z M 38.828048,25.658972 C 39.022562,24.646407 38.328297,23.02287 37.285239,22.051113 35.65995,20.536926 33.359073,20.280576 21.194384,20.258361 13.387473,20.244104 7,20.577656 7,20.999588 c 0,0.421932 -0.9,1.002505 -2,1.290161 -1.9347065,0.505937 -2.7436579,3.63326 -1.3105328,5.066385 0.379207,0.379207 8.3609438,0.566707 17.7371938,0.416667 15.641729,-0.250302 17.076894,-0.424638 17.401387,-2.113829 z M 101,56.271109 C 100.175,55.95706 99.275,55.406298 99,55.047193 98.725,54.688088 96.739488,53.071464 94.587752,51.454696 84.42465,43.818361 83.217103,25.686958 91.963833,12.056362 95.58005,6.4209764 99.874089,4 106.25325,4 c 7.66186,0 11.57887,3.9234674 17.49675,17.525625 1.78054,4.092544 1.58067,16.438724 -0.34056,21.036884 -1.73016,4.140844 -9.51441,12.113437 -13.22454,13.54451 -2.54045,0.979905 -6.83998,1.056716 -9.1849,0.16409 z m 7.75,-3.901395 C 112.67677,51.317379 111.18079,50 106.05902,50 c -7.194682,0 -7.584855,1.989306 -0.55902,2.850163 0.55,0.06739 2.0125,-0.148812 3.25,-0.480449 z m 14.07911,-27.192646 c 0.23657,-1.669805 -0.25547,-2.475802 -1.75,-2.866632 C 119.9356,22.011402 119,21.410797 119,20.975759 c 0,-0.435038 -5.94468,-0.780892 -13.2104,-0.768564 -10.029648,0.01702 -13.761675,0.383627 -15.499997,1.522619 -2.220535,1.454951 -3.006563,4.219893 -1.599619,5.626837 0.379492,0.379492 8.141992,0.566992 17.249996,0.416667 16.47474,-0.27191 16.56171,-0.28528 16.88913,-2.59625 z M 108.5,6 c -0.33992,-0.55 -1.68992,-1 -3,-1 -1.31008,0 -2.66008,0.45 -3,1 -0.36852,0.5962848 0.84262,1 3,1 2.15738,0 3.36852,-0.4037152 3,-1 z"
       id="path3333"
       inkscape:connector-curvature="0" />
    <path
       style="fill:#b501e6"
       d="m 19.114303,56.310875 c -1.312133,-0.267048 -2.887133,-0.912671 -3.5,-1.434718 C 15.001436,54.35411 12.633232,52.588112 10.351627,50.951717 7.1551075,48.659135 5.6063055,46.485302 3.6016272,41.477706 -0.10425062,32.220589 0.04758738,25.083661 4.1323403,16.532296 8.8241047,6.7101624 14.720499,2.2414999 21.629171,3.2720861 24.169074,3.6509707 24.081845,3.7176072 20.872445,3.8501679 18.877289,3.9325756 16.684689,4.675 16,5.5 14.916486,6.8055546 15.548765,7 20.877555,7 26.499671,7 28.803801,5.8945162 25.75,4.6622807 24.966638,4.3461875 25.118699,4.1284228 26.157331,4.0789474 28.821682,3.9520303 36.673235,13.514448 38.638484,19.279761 41.294815,27.072454 41.096047,39.234606 38.218135,45 34.410332,52.628268 25.8687,57.685543 19.114303,56.310875 z m 6.744466,-3.932629 c 1.709823,-0.341964 2.864515,-1.016964 2.565983,-1.5 -0.724051,-1.171538 -11.150448,-1.131097 -11.877978,0.04607 -1.003495,1.623689 4.312852,2.453757 9.311995,1.453928 z M 26.75,40.264961 c -2.6125,-0.205999 -6.8875,-0.205999 -9.5,0 -2.6125,0.205998 -0.475,0.374543 4.75,0.374543 5.225,0 7.3625,-0.168545 4.75,-0.374543 z m 3.5,-5.008949 c -4.5375,-0.185293 -11.9625,-0.185293 -16.5,0 -4.5375,0.185294 -0.825,0.336897 8.25,0.336897 9.075,0 12.7875,-0.151603 8.25,-0.336897 z m 8.578048,-9.59704 C 39.022562,24.646407 38.328297,23.02287 37.285239,22.051113 35.65995,20.536926 33.359073,20.280576 21.194384,20.258361 13.387473,20.244104 7,20.577656 7,20.999588 c 0,0.421932 -0.9,1.002505 -2,1.290161 -1.9347065,0.505937 -2.7436579,3.63326 -1.3105328,5.066385 0.379207,0.379207 8.3609438,0.566707 17.7371938,0.416667 15.641729,-0.250302 17.076894,-0.424638 17.401387,-2.113829 z M 101,56.271109 C 100.175,55.95706 99.275,55.406298 99,55.047193 98.725,54.688088 96.739488,53.071464 94.587752,51.454696 84.42465,43.818361 83.217103,25.686958 91.963833,12.056362 95.58005,6.4209764 99.874089,4 106.25325,4 c 7.66186,0 11.57887,3.9234674 17.49675,17.525625 1.78054,4.092544 1.58067,16.438724 -0.34056,21.036884 -1.73016,4.140844 -9.51441,12.113437 -13.22454,13.54451 -2.54045,0.979905 -6.83998,1.056716 -9.1849,0.16409 z m 7.75,-3.901395 C 112.67677,51.317379 111.18079,50 106.05902,50 c -7.194682,0 -7.584855,1.989306 -0.55902,2.850163 0.55,0.06739 2.0125,-0.148812 3.25,-0.480449 z m 1.5,-12.101919 c -2.3375,-0.210535 -6.1625,-0.210535 -8.5,0 -2.3375,0.210535 -0.425,0.382791 4.25,0.382791 4.675,0 6.5875,-0.172256 4.25,-0.382791 z m 3.54748,-5.010249 C 109.5611,35.070565 102.3611,35.06953 97.797482,35.255245 93.233867,35.44096 96.7,35.593945 105.5,35.59521 c 8.8,0.0013 12.53387,-0.150683 8.29748,-0.337664 z m 9.03163,-10.080478 c 0.23657,-1.669805 -0.25547,-2.475802 -1.75,-2.866632 C 119.9356,22.011402 119,21.410797 119,20.975759 c 0,-0.435038 -5.94468,-0.780892 -13.2104,-0.768564 -10.029648,0.01702 -13.761675,0.383627 -15.499997,1.522619 -2.220535,1.454951 -3.006563,4.219893 -1.599619,5.626837 0.379492,0.379492 8.141992,0.566992 17.249996,0.416667 16.47474,-0.27191 16.56171,-0.28528 16.88913,-2.59625 z M 108.5,6 c -0.33992,-0.55 -1.68992,-1 -3,-1 -1.31008,0 -2.66008,0.45 -3,1 -0.36852,0.5962848 0.84262,1 3,1 2.15738,0 3.36852,-0.4037152 3,-1 z"
       id="path3331"
       inkscape:connector-curvature="0" />
    <path
       style="fill:#16a5d4"
       d="m 19.114303,56.310875 c -1.312133,-0.267048 -2.887133,-0.912671 -3.5,-1.434718 C 15.001436,54.35411 12.633232,52.588112 10.351627,50.951717 7.1551075,48.659135 5.6063055,46.485302 3.6016272,41.477706 -0.10425062,32.220589 0.04758738,25.083661 4.1323403,16.532296 8.8241047,6.7101624 14.720499,2.2414999 21.629171,3.2720861 24.169074,3.6509707 24.081845,3.7176072 20.872445,3.8501679 18.877289,3.9325756 16.684689,4.675 16,5.5 14.916486,6.8055546 15.548765,7 20.877555,7 26.499671,7 28.803801,5.8945162 25.75,4.6622807 24.966638,4.3461875 25.118699,4.1284228 26.157331,4.0789474 28.821682,3.9520303 36.673235,13.514448 38.638484,19.279761 41.294815,27.072454 41.096047,39.234606 38.218135,45 34.410332,52.628268 25.8687,57.685543 19.114303,56.310875 z m 6.744466,-3.932629 c 1.709823,-0.341964 2.864515,-1.016964 2.565983,-1.5 -0.724051,-1.171538 -11.150448,-1.131097 -11.877978,0.04607 -1.003495,1.623689 4.312852,2.453757 9.311995,1.453928 z M 37.914811,38.75 c 0.467699,-1.2375 0.651641,-2.5875 0.408759,-3 -0.669024,-1.13624 -32.102613,-0.916533 -32.8107973,0.229333 -0.3328936,0.538634 -0.1186186,1.888634 0.4761668,3 C 7.0002535,40.868991 8.0426951,41 22.067408,41 36.701268,41 37.085041,40.94551 37.914811,38.75 z M 38.828048,25.658972 C 39.022562,24.646407 38.328297,23.02287 37.285239,22.051113 35.65995,20.536926 33.359073,20.280576 21.194384,20.258361 13.387473,20.244104 7,20.577656 7,20.999588 c 0,0.421932 -0.9,1.002505 -2,1.290161 -1.9347065,0.505937 -2.7436579,3.63326 -1.3105328,5.066385 0.379207,0.379207 8.3609438,0.566707 17.7371938,0.416667 15.641729,-0.250302 17.076894,-0.424638 17.401387,-2.113829 z M 101,56.271109 C 100.175,55.95706 99.275,55.406298 99,55.047193 98.725,54.688088 96.739488,53.071464 94.587752,51.454696 84.42465,43.818361 83.217103,25.686958 91.963833,12.056362 95.58005,6.4209764 99.874089,4 106.25325,4 c 7.66186,0 11.57887,3.9234674 17.49675,17.525625 1.78054,4.092544 1.58067,16.438724 -0.34056,21.036884 -1.73016,4.140844 -9.51441,12.113437 -13.22454,13.54451 -2.54045,0.979905 -6.83998,1.056716 -9.1849,0.16409 z m 7.75,-3.901395 C 112.67677,51.317379 111.18079,50 106.05902,50 c -7.194682,0 -7.584855,1.989306 -0.55902,2.850163 0.55,0.06739 2.0125,-0.148812 3.25,-0.480449 z m 12.23943,-12.856979 c 0.67888,-0.817996 0.9731,-2.167996 0.65383,-3 C 121.15971,35.252614 118.47902,35 105.5904,35 c -9.018547,0 -15.724832,0.408499 -16.077627,0.979333 -0.332894,0.538634 -0.118619,1.888634 0.476167,3 C 90.996885,40.862696 92.044927,41 105.41274,41 c 11.47424,0 14.5892,-0.297417 15.57669,-1.487265 z m 1.83968,-14.335667 c 0.23657,-1.669805 -0.25547,-2.475802 -1.75,-2.866632 C 119.9356,22.011402 119,21.410797 119,20.975759 c 0,-0.435038 -5.94468,-0.780892 -13.2104,-0.768564 -10.029648,0.01702 -13.761675,0.383627 -15.499997,1.522619 -2.220535,1.454951 -3.006563,4.219893 -1.599619,5.626837 0.379492,0.379492 8.141992,0.566992 17.249996,0.416667 16.47474,-0.27191 16.56171,-0.28528 16.88913,-2.59625 z M 108.5,6 c -0.33992,-0.55 -1.68992,-1 -3,-1 -1.31008,0 -2.66008,0.45 -3,1 -0.36852,0.5962848 0.84262,1 3,1 2.15738,0 3.36852,-0.4037152 3,-1 z"
       id="path3329"
       inkscape:connector-curvature="0" />
    <path
       style="fill:#ec008e"
       d="m 19.114303,56.310875 c -1.312133,-0.267048 -2.887133,-0.912671 -3.5,-1.434718 C 15.001436,54.35411 12.633232,52.588112 10.351627,50.951717 7.1551075,48.659135 5.6063055,46.485302 3.6016272,41.477706 -0.10425062,32.220589 0.04758738,25.083661 4.1323403,16.532296 8.8241047,6.7101624 14.720499,2.2414999 21.629171,3.2720861 24.169074,3.6509707 24.081845,3.7176072 20.872445,3.8501679 18.877289,3.9325756 16.684689,4.675 16,5.5 14.916486,6.8055546 15.548765,7 20.877555,7 26.499671,7 28.803801,5.8945162 25.75,4.6622807 24.966638,4.3461875 25.118699,4.1284228 26.157331,4.0789474 28.821682,3.9520303 36.673235,13.514448 38.638484,19.279761 41.294815,27.072454 41.096047,39.234606 38.218135,45 34.410332,52.628268 25.8687,57.685543 19.114303,56.310875 z m 6.744466,-3.932629 c 1.709823,-0.341964 2.864515,-1.016964 2.565983,-1.5 -0.724051,-1.171538 -11.150448,-1.131097 -11.877978,0.04607 -1.003495,1.623689 4.312852,2.453757 9.311995,1.453928 z M 37.914811,38.75 c 0.467699,-1.2375 0.651641,-2.5875 0.408759,-3 -0.669024,-1.13624 -32.102613,-0.916533 -32.8107973,0.229333 -0.3328936,0.538634 -0.1186186,1.888634 0.4761668,3 C 7.0002535,40.868991 8.0426951,41 22.067408,41 c 14.63386,0 15.017633,-0.05449 15.847403,-2.25 z m 0.931123,-13.183903 c 0.204351,-1.063646 -0.282086,-2.413646 -1.08097,-3 C 36.966079,21.979744 35.996755,19.8125 35.61091,17.75 L 34.909374,14 21.513704,14 C 7.2296785,14 6.6444745,14.200439 6.7822363,19.045702 c 0.054687,1.923408 -0.5054735,2.910166 -1.8519174,3.262269 -1.869966,0.489007 -2.6453813,3.643633 -1.2408517,5.048163 0.379207,0.379207 8.3609438,0.566707 17.7371938,0.416667 15.943852,-0.255137 17.071785,-0.398025 17.419273,-2.206704 z M 101,56.271109 C 100.175,55.95706 99.275,55.406298 99,55.047193 98.725,54.688088 96.739488,53.071464 94.587752,51.454696 84.42465,43.818361 83.217103,25.686958 91.963833,12.056362 95.58005,6.4209764 99.874089,4 106.25325,4 c 7.66186,0 11.57887,3.9234674 17.49675,17.525625 1.78054,4.092544 1.58067,16.438724 -0.34056,21.036884 -1.73016,4.140844 -9.51441,12.113437 -13.22454,13.54451 -2.54045,0.979905 -6.83998,1.056716 -9.1849,0.16409 z m 7.75,-3.901395 C 112.67677,51.317379 111.18079,50 106.05902,50 c -7.194682,0 -7.584855,1.989306 -0.55902,2.850163 0.55,0.06739 2.0125,-0.148812 3.25,-0.480449 z m 12.23943,-12.856979 c 0.67888,-0.817996 0.9731,-2.167996 0.65383,-3 C 121.15971,35.252614 118.47902,35 105.5904,35 c -9.018547,0 -15.724832,0.408499 -16.077627,0.979333 -0.332894,0.538634 -0.118619,1.888634 0.476167,3 C 90.996885,40.862696 92.044927,41 105.41274,41 c 11.47424,0 14.5892,-0.297417 15.57669,-1.487265 z m 1.83968,-14.335667 c 0.23657,-1.669805 -0.25547,-2.475802 -1.75,-2.866632 C 119.73334,21.958511 119,20.954924 119,19.465156 119,14.128255 118.68226,14 105.4604,14 c -11.889259,0 -12.352653,0.07966 -13.089062,2.25 -0.41989,1.2375 -0.660885,2.788998 -0.535544,3.447774 0.125341,0.658776 -0.686436,1.687108 -1.80395,2.285184 -1.985244,1.06247 -2.718128,3.997424 -1.34186,5.373693 0.379492,0.379492 8.141992,0.566992 17.249996,0.416667 16.47474,-0.27191 16.56171,-0.28528 16.88913,-2.59625 z M 108.5,6 c -0.33992,-0.55 -1.68992,-1 -3,-1 -1.31008,0 -2.66008,0.45 -3,1 -0.36852,0.5962848 0.84262,1 3,1 2.15738,0 3.36852,-0.4037152 3,-1 z"
       id="path3327"
       inkscape:connector-curvature="0" />
    <path
       style="fill:#976664"
       d="m 19.114303,56.310875 c -1.312133,-0.267048 -2.887133,-0.912671 -3.5,-1.434718 C 15.001436,54.35411 12.633232,52.588112 10.351627,50.951717 7.1551075,48.659135 5.6063055,46.485302 3.6016272,41.477706 -0.10425062,32.220589 0.04758738,25.083661 4.1323403,16.532296 8.8241047,6.7101624 14.720499,2.2414999 21.629171,3.2720861 24.169074,3.6509707 24.081845,3.7176072 20.872445,3.8501679 18.877289,3.9325756 16.684689,4.675 16,5.5 14.916486,6.8055546 15.548765,7 20.877555,7 26.499671,7 28.803801,5.8945162 25.75,4.6622807 24.966638,4.3461875 25.118699,4.1284228 26.157331,4.0789474 28.821682,3.9520303 36.673235,13.514448 38.638484,19.279761 41.294815,27.072454 41.096047,39.234606 38.218135,45 34.410332,52.628268 25.8687,57.685543 19.114303,56.310875 z m 6.744466,-3.932629 c 1.709823,-0.341964 2.864515,-1.016964 2.565983,-1.5 -0.724051,-1.171538 -11.150448,-1.131097 -11.877978,0.04607 -1.003495,1.623689 4.312852,2.453757 9.311995,1.453928 z m 8.100965,-11.020193 c 4.264586,-0.852917 5.555399,-4.063245 2.828251,-7.034025 -1.098637,-1.196785 -1.698819,-2.659285 -1.333737,-3.25 C 35.91571,30.327367 31.662414,30 21.5,30 11.431603,30 7.0864404,30.330846 7.5389443,31.063013 c 0.3613381,0.584658 -0.133503,1.936486 -1.099647,3.004063 -1.422968,1.572362 -1.5472782,2.400516 -0.6544633,4.360031 0.6061892,1.330441 2.140088,2.617331 3.4086641,2.859756 3.7490149,0.716438 21.2879209,0.766853 24.7662359,0.07119 z m 4.8862,-15.791956 c 0.204351,-1.063646 -0.282086,-2.413646 -1.08097,-3 C 36.966079,21.979744 35.996755,19.8125 35.61091,17.75 L 34.909374,14 21.513704,14 C 7.2296785,14 6.6444745,14.200439 6.7822363,19.045702 c 0.054687,1.923408 -0.5054735,2.910166 -1.8519174,3.262269 -1.869966,0.489007 -2.6453813,3.643633 -1.2408517,5.048163 0.379207,0.379207 8.3609438,0.566707 17.7371938,0.416667 15.943852,-0.255137 17.071785,-0.398025 17.419273,-2.206704 z M 101,56.271109 C 100.175,55.95706 99.275,55.406298 99,55.047193 98.725,54.688088 96.739488,53.071464 94.587752,51.454696 84.42465,43.818361 83.217103,25.686958 91.963833,12.056362 95.58005,6.4209764 99.874089,4 106.25325,4 c 7.66186,0 11.57887,3.9234674 17.49675,17.525625 1.78054,4.092544 1.58067,16.438724 -0.34056,21.036884 -1.73016,4.140844 -9.51441,12.113437 -13.22454,13.54451 -2.54045,0.979905 -6.83998,1.056716 -9.1849,0.16409 z m 7.75,-3.901395 C 112.67677,51.317379 111.18079,50 106.05902,50 c -7.194682,0 -7.584855,1.989306 -0.55902,2.850163 0.55,0.06739 2.0125,-0.148812 3.25,-0.480449 z m 9.15536,-11.242137 c 3.40792,-0.953598 4.92901,-3.654198 3.31049,-5.877577 -0.70065,-0.9625 -1.53833,-2.5375 -1.86151,-3.5 -0.5207,-1.550735 -2.11823,-1.75 -14.02999,-1.75 -9.324625,0 -13.239049,0.329003 -12.778598,1.074028 0.365082,0.590715 -0.321916,2.123258 -1.526661,3.405651 -1.77451,1.888878 -1.984707,2.716051 -1.106961,4.356134 0.595917,1.113481 2.096972,2.219656 3.335677,2.458167 3.608947,0.694897 22.023603,0.570624 24.657553,-0.166403 z m 4.92375,-15.950509 c 0.23657,-1.669805 -0.25547,-2.475802 -1.75,-2.866632 C 119.73334,21.958511 119,20.954924 119,19.465156 119,14.128255 118.68226,14 105.4604,14 c -11.889259,0 -12.352653,0.07966 -13.089062,2.25 -0.41989,1.2375 -0.660885,2.788998 -0.535544,3.447774 0.125341,0.658776 -0.686436,1.687108 -1.80395,2.285184 -1.985244,1.06247 -2.718128,3.997424 -1.34186,5.373693 0.379492,0.379492 8.141992,0.566992 17.249996,0.416667 16.47474,-0.27191 16.56171,-0.28528 16.88913,-2.59625 z M 108.5,6 c -0.33992,-0.55 -1.68992,-1 -3,-1 -1.31008,0 -2.66008,0.45 -3,1 -0.36852,0.5962848 0.84262,1 3,1 2.15738,0 3.36852,-0.4037152 3,-1 z"
       id="path3325"
       inkscape:connector-curvature="0" />
    <path
       style="fill:#e40a6d"
       d="M 19.114303,56.310875 C 16.562966,55.791622 16.534841,55.773417 10.577138,50.784779 4.8563042,45.994483 0.9533735,36.871237 1.1600371,28.771957 1.2480575,25.322381 1.4926297,23.85 1.7035309,25.5 l 0.3834567,3 17.5182504,-0.321201 c 12.087264,-0.221623 17.944407,0.03248 18.892866,0.819627 C 40.140582,30.361562 40.294641,37.106963 38.79505,42 35.874288,51.53019 27.072368,57.930516 19.114303,56.310875 z M 29.940439,50.488133 C 31.257949,49.170622 30.352995,49 22.047619,49 c -5.159524,0 -9.181356,0.199596 -8.937405,0.443548 0.243951,0.243951 1.781451,1.166525 3.416667,2.050166 3.502565,1.892721 11.083585,1.324391 13.413558,-1.005581 z m 4.019295,-9.13008 c 4.264586,-0.852917 5.555399,-4.063245 2.828251,-7.034025 -1.098637,-1.196785 -1.698819,-2.659285 -1.333737,-3.25 C 35.91571,30.327367 31.662414,30 21.5,30 11.431603,30 7.0864404,30.330846 7.5389443,31.063013 c 0.3613381,0.584658 -0.133503,1.936486 -1.099647,3.004063 -1.422968,1.572362 -1.5472782,2.400516 -0.6544633,4.360031 0.6061892,1.330441 2.140088,2.617331 3.4086641,2.859756 3.7490149,0.716438 21.2879209,0.766853 24.7662359,0.07119 z M 101.02086,56.261338 C 98.249773,55.173307 90.801567,47.510899 88.897996,43.789838 87.07342,40.223196 86.376522,32.788333 87.574223,29.667173 88.362191,27.613762 121.35819,27.18638 122.66788,29.21262 c 0.54915,0.849588 1.03891,-0.07288 1.44021,-2.71262 0.45124,-2.968185 0.6447,-1.898211 0.75,4.147926 0.16051,9.215765 -1.48052,13.222627 -8.41058,20.535926 -5.06852,5.348806 -10.32732,7.079675 -15.42665,5.077486 z m 9.51126,-4.710311 C 112.43945,50.754091 114,49.854091 114,49.551027 114,49.247962 110.14844,49 105.44098,49 c -8.773295,0 -10.346849,1.099493 -4.14175,2.893977 4.53794,1.31235 5.34274,1.282457 9.23289,-0.34295 z m 7.37324,-10.42345 c 3.40792,-0.953598 4.92901,-3.654198 3.31049,-5.877577 -0.70065,-0.9625 -1.53833,-2.5375 -1.86151,-3.5 -0.5207,-1.550735 -2.11823,-1.75 -14.02999,-1.75 -9.324625,0 -13.239049,0.329003 -12.778598,1.074028 0.365082,0.590715 -0.321916,2.123258 -1.526661,3.405651 -1.77451,1.888878 -1.984707,2.716051 -1.106961,4.356134 0.595917,1.113481 2.096972,2.219656 3.335677,2.458167 3.608947,0.694897 22.023603,0.570624 24.657553,-0.166403 z M 2,21.527335 C 2,21.26737 3.1593986,18.605984 4.5764413,15.613145 8.6887147,6.9278919 9.5900894,6.4423908 20.854817,6.845236 31.238622,7.2165779 32.489751,7.76384 35.918265,13.434206 38.738277,18.09818 39.413475,21 37.678679,21 36.806302,21 35.959362,19.59692 35.565978,17.5 L 34.909374,14 21.422463,14 C 8.3546623,14 7.9091263,14.06992 7.085189,16.25 6.6174896,17.4875 6.4646424,18.887812 6.7455285,19.361803 7.0264147,19.835795 6.6360787,20.616405 5.8781153,21.096491 4.3963119,22.035049 2,22.301271 2,21.527335 z M 88,20.125093 C 88,18.331082 94.689999,7.0503472 95.827077,6.9270075 96.197185,6.8868616 100.71944,6.7665408 105.87654,6.6596279 l 9.37653,-0.1943871 2.34253,3.0712063 C 119.90961,12.570279 123,19.053554 123,20.874262 c 0,0.516174 -0.9,0.703143 -2,0.415487 -1.1,-0.287656 -2,-1.333723 -2,-2.324593 C 119,14.19324 118.47305,14 105.4604,14 c -11.889259,0 -12.352653,0.07966 -13.089062,2.25 -0.41989,1.2375 -0.667975,2.758123 -0.5513,3.379162 0.116675,0.621039 -0.695102,1.36641 -1.803951,1.65638 C 88.582774,21.660362 88,21.32492 88,20.125093 z"
       id="path3323"
       inkscape:connector-curvature="0" />
    <path
       style="fill:#3b53af"
       d="M 19.114303,56.310875 C 16.562966,55.791622 16.534841,55.773417 10.577138,50.784779 4.8563042,45.994483 0.9533735,36.871237 1.1600371,28.771957 1.2490923,25.281825 1.4995888,23.949905 1.7248115,25.768984 1.947417,27.566926 2.5504003,28.777868 3.0647744,28.459967 3.5791485,28.142067 4,29.505871 4,31.490643 c 0,4.722667 2.4640901,9.355106 5.6129958,10.552318 3.2807622,1.247343 21.5171732,1.238246 24.8065562,-0.01237 1.402363,-0.533177 3.19495,-2.445677 3.983526,-4.25 1.126199,-2.57683 1.451273,-2.829924 1.515348,-1.179809 0.04487,1.155427 -0.437255,3.630427 -1.071378,5.5 C 35.5744,51.749448 27.009013,57.917622 19.114303,56.310875 z M 29.940439,50.488133 C 31.257949,49.170622 30.352995,49 22.047619,49 c -5.159524,0 -9.181356,0.199596 -8.937405,0.443548 0.243951,0.243951 1.781451,1.166525 3.416667,2.050166 3.502565,1.892721 11.083585,1.324391 13.413558,-1.005581 z m 71.080421,5.773205 c -2.771087,-1.088031 -10.219293,-8.750439 -12.122864,-12.4715 -1.094537,-2.139578 -1.891514,-5.737794 -1.882683,-8.5 0.02078,-6.501686 1.604309,-8.773245 1.836506,-2.634462 0.224748,5.941856 2.10734,8.886456 6.205456,9.706079 5.441075,1.088215 20.301445,0.681191 22.862305,-0.626197 2.50877,-1.280793 6.46316,-7.306954 5.65399,-8.616212 -0.25361,-0.410363 -0.0894,-2.967524 0.36504,-5.68258 0.78855,-4.711791 0.83151,-4.565627 0.94377,3.21146 0.13299,9.213005 -1.52087,13.239568 -8.43487,20.535926 -5.06852,5.348806 -10.32732,7.079675 -15.42665,5.077486 z m 9.51126,-4.710311 C 112.43945,50.754091 114,49.854091 114,49.551027 114,49.247962 110.14844,49 105.44098,49 c -8.773295,0 -10.346849,1.099493 -4.14175,2.893977 4.53794,1.31235 5.34274,1.282457 9.23289,-0.34295 z M 2,21.527335 C 2,21.26737 3.1593986,18.605984 4.5764413,15.613145 8.6887147,6.9278919 9.5900894,6.4423908 20.854817,6.845236 31.238622,7.2165779 32.489751,7.76384 35.918265,13.434206 38.738277,18.09818 39.413475,21 37.678679,21 36.806302,21 35.959362,19.59692 35.565978,17.5 L 34.909374,14 21.422463,14 C 8.3546623,14 7.9091263,14.06992 7.085189,16.25 6.6174896,17.4875 6.4646424,18.887812 6.7455285,19.361803 7.0264147,19.835795 6.6360787,20.616405 5.8781153,21.096491 4.3963119,22.035049 2,22.301271 2,21.527335 z M 88,20.125093 C 88,18.331082 94.689999,7.0503472 95.827077,6.9270075 96.197185,6.8868616 100.71944,6.7665408 105.87654,6.6596279 l 9.37653,-0.1943871 2.34253,3.0712063 C 119.90961,12.570279 123,19.053554 123,20.874262 c 0,0.516174 -0.9,0.703143 -2,0.415487 -1.1,-0.287656 -2,-1.333723 -2,-2.324593 C 119,14.19324 118.47305,14 105.4604,14 c -11.889259,0 -12.352653,0.07966 -13.089062,2.25 -0.41989,1.2375 -0.667975,2.758123 -0.5513,3.379162 0.116675,0.621039 -0.695102,1.36641 -1.803951,1.65638 C 88.582774,21.660362 88,21.32492 88,20.125093 z"
       id="path3321"
       inkscape:connector-curvature="0" />
    <path
       style="fill:#6c6566"
       d="M 19.114303,56.276485 C 16.564817,55.79436 16.543397,55.780581 10.577138,50.784779 4.8563042,45.994483 0.9533735,36.871237 1.1600371,28.771957 c 0.089055,-3.490132 0.3395517,-4.822052 0.5647744,-3.002973 0.2226055,1.797942 0.8255888,3.008884 1.3399629,2.690983 0.5143741,-0.3179 0.9696557,1.136057 1.0117369,3.231016 0.2076935,10.339759 2.876379,11.775102 20.7405447,11.155235 10.741336,-0.372714 14.095775,-1.843015 14.261891,-6.251206 0.04556,-1.209002 0.302977,-1.534218 0.608676,-0.768986 1.831505,4.584663 -5.467909,16.418237 -12.055735,19.544365 -3.467528,1.64545 -4.197321,1.723084 -8.517585,0.906094 z M 29.940439,50.488133 C 31.257949,49.170622 30.352995,49 22.047619,49 c -5.159524,0 -9.181356,0.199596 -8.937405,0.443548 0.243951,0.243951 1.781451,1.166525 3.416667,2.050166 3.502565,1.892721 11.083585,1.324391 13.413558,-1.005581 z m 71.080421,5.773205 C 98.249773,55.173307 90.801567,47.510899 88.897996,43.789838 86.94543,39.973004 86.347853,31.576534 87.859181,29.19361 c 0.502389,-0.792121 0.902972,0.970935 1.017596,4.478665 0.262427,8.030814 2.174171,9.070266 16.972093,9.228045 9.08082,0.09682 15.93463,-1.593566 16.27613,-4.014261 0.27399,-1.942182 0.43637,-2.434486 1.19933,-3.636059 0.43654,-0.6875 0.56745,-1.61609 0.29091,-2.063534 -0.27653,-0.447444 -0.13102,-3.034944 0.32337,-5.75 0.78855,-4.711791 0.83151,-4.565627 0.94377,3.21146 0.13299,9.213005 -1.52087,13.239568 -8.43487,20.535926 -5.06852,5.348806 -10.32732,7.079675 -15.42665,5.077486 z m 9.51126,-4.710311 C 112.43945,50.754091 114,49.854091 114,49.551027 114,49.247962 110.14844,49 105.44098,49 c -8.773295,0 -10.346849,1.099493 -4.14175,2.893977 4.53794,1.31235 5.34274,1.282457 9.23289,-0.34295 z M 2,21 C 2,20.45 3.2375,20.006891 4.75,20.015313 6.892937,20.027245 7.1688747,20.244615 6,21 4.0434661,22.264409 2,22.264409 2,21 z M 88,20.96861 C 88,20.435877 88.675,20 89.5,20 c 0.825,0 1.5,0.176855 1.5,0.393011 0,0.216156 -0.675,0.652033 -1.5,0.968615 C 88.675,21.678209 88,21.501354 88,20.968615 z M 120.5,21 c -1.90836,-0.820049 -1.8969,-0.86265 0.25,-0.929715 C 121.9875,20.031628 123,20.45 123,21 c 0,0.55 -0.1125,0.968372 -0.25,0.929715 C 122.6125,21.891058 121.6,21.472686 120.5,21 z M 36.8125,20.316886 c 0.721875,-0.288871 1.584375,-0.253344 1.916667,0.07895 0.332291,0.332292 -0.258334,0.568641 -1.3125,0.52522 -1.164943,-0.04798 -1.4019,-0.284941 -0.604167,-0.604167 z M 6.9784667,11.030241 C 8.1415269,9.3968732 9.6346693,7.717716 10.296561,7.2987802 10.958452,6.8798444 15.775,6.6840229 21,6.8636212 30.734273,7.1982162 32.863774,8.0084248 35.127808,12.238811 36.009046,13.885419 35.055239,14 20.46709,14 L 4.8638116,14 6.9784667,11.030241 z M 91.891542,12.25 C 94.821363,6.9197815 95.179894,6.7703835 105.44192,6.6036343 l 9.79531,-0.1591655 2.38139,3.1221565 C 118.92838,11.283811 120,12.983806 120,13.344391 120,13.704976 113.45917,14 105.46482,14 91.922009,14 90.995306,13.88052 91.891542,12.25 z"
       id="path3319"
       inkscape:connector-curvature="0" />
    <path
       style="fill:#1ed725"
       d="M 6.66602,46.25 C 5.9040828,44.7375 4.9810805,42.251054 4.6149038,40.724564 3.9525464,37.963379 3.9592414,37.959241 5.9187871,39.918787 c 1.0833125,1.083313 3.5336022,2.263057 5.4450879,2.621654 4.326751,0.811703 22.518614,0.107775 24.886125,-0.96296 2.278789,-1.03061 2.393622,2.058607 0.193296,5.200013 C 34.966164,48.886395 34.200742,49 21.468976,49 L 8.0513603,49 6.66602,46.25 z m 83.956654,-0.01277 c -2.19611,-4.246809 -4.006772,-14.728464 -2.889239,-16.725384 0.700821,-1.252298 1.001263,-0.187497 1.13934,4.03796 0.10314,3.156314 0.41522,6.107166 0.693509,6.557448 1.827988,2.957747 22.836236,4.004885 28.965836,1.443777 3.36173,-1.404627 3.46788,-1.37979 3.46788,0.811434 0,1.243227 -0.91753,3.245265 -2.03896,4.448974 C 118.06652,48.844975 117.00582,49 104.98672,49 L 92.05136,49 90.622674,46.237226 z M 123.75497,35.20987 c -0.2796,-2.084573 -0.1656,-5.572073 0.25334,-7.75 0.64289,-3.342262 0.77963,-2.751131 0.87669,3.790134 0.12462,8.398301 -0.3239,9.970004 -1.13003,3.959866 z M 3,34.940983 C 3,34.358524 2.55,34.160081 2,34.5 1.3754333,34.886003 1.0511273,33.124852 1.1361821,29.809017 c 0.0749,-2.919959 0.3320726,-4.289843 0.5714944,-3.044186 0.2394218,1.245657 0.8531399,2.006599 1.363818,1.690983 C 3.584585,28.138707 4,29.697977 4,31.940983 4,34.173442 3.775,36 3.5,36 3.225,36 3,35.523442 3,34.940983 z M 7,12.5 C 7,11.675 7.9,10.1 9,9 10.717641,7.2823592 12.333333,7 20.444236,7 28.899809,7 30.172796,7.2445646 32.60448,9.3362114 37.162532,13.256883 35.224429,14 20.440983,14 9.1601092,14 7,13.758934 7,12.5 z m 85.572642,0.617537 C 92.272676,12.632183 92.95378,11.057183 94.086205,9.6175373 96.042048,7.1310856 96.608554,7 105.39827,7 c 8.37919,0 9.45846,0.218589 11.42742,2.3144512 C 120.85484,13.603291 119.94326,14 106.05902,14 98.941476,14 92.872608,13.602892 92.572642,13.117537 z"
       id="path3317"
       inkscape:connector-curvature="0" />
    <path
       style="fill:#a50e11"
       d="M 6.66602,46.25 C 5.9040828,44.7375 4.9810805,42.251054 4.6149038,40.724564 3.9525464,37.963379 3.9592414,37.959241 5.9187871,39.918787 c 1.0833125,1.083313 3.5336022,2.263057 5.4450879,2.621654 4.326751,0.811703 22.518614,0.107775 24.886125,-0.96296 2.278789,-1.03061 2.393622,2.058607 0.193296,5.200013 C 34.966164,48.886395 34.200742,49 21.468976,49 L 8.0513603,49 6.66602,46.25 z m 83.956654,-0.01277 c -2.19611,-4.246809 -4.006772,-14.728464 -2.889239,-16.725384 0.700821,-1.252298 1.001263,-0.187497 1.13934,4.03796 0.10314,3.156314 0.41522,6.107166 0.693509,6.557448 1.827988,2.957747 22.836236,4.004885 28.965836,1.443777 3.36173,-1.404627 3.46788,-1.37979 3.46788,0.811434 0,1.243227 -0.91753,3.245265 -2.03896,4.448974 C 118.06652,48.844975 117.00582,49 104.98672,49 L 92.05136,49 90.622674,46.237226 z M 123.75497,35.20987 c -0.2796,-2.084573 -0.1656,-5.572073 0.25334,-7.75 0.64289,-3.342262 0.77963,-2.751131 0.87669,3.790134 0.12462,8.398301 -0.3239,9.970004 -1.13003,3.959866 z M 3,34.940983 C 3,34.358524 2.55,34.160081 2,34.5 1.3754333,34.886003 1.0511273,33.124852 1.1361821,29.809017 c 0.0749,-2.919959 0.3320726,-4.289843 0.5714944,-3.044186 0.2394218,1.245657 0.8531399,2.006599 1.363818,1.690983 C 3.584585,28.138707 4,29.697977 4,31.940983 4,34.173442 3.775,36 3.5,36 3.225,36 3,35.523442 3,34.940983 z"
       id="path3315"
       inkscape:connector-curvature="0" />
    <path
       style="fill:#6a151e"
       d="M 6.66602,46.25 C 5.9040828,44.7375 4.9810805,42.251054 4.6149038,40.724564 l -0.665776,-2.775436 2.0254361,2.025436 C 7.0885538,41.088554 8,42.605256 8,43.345012 c 0,1.471799 2.631544,4.074687 5,4.945553 0.825,0.303347 0.04906,0.587067 -1.72432,0.630488 C 8.7201028,48.983626 7.7640327,48.429634 6.66602,46.25 z m 26.879435,0.295455 c 1.35,-1.35 2.454545,-3.15 2.454545,-4 C 36,41.695455 36.45,41 37,41 c 1.513232,0 1.197909,3.272433 -0.556704,5.777494 C 35.587109,47.999872 34.032563,49 32.988751,49 c -1.712586,0 -1.658243,-0.239599 0.556704,-2.454545 z m 57.077219,-0.308229 c -1.696796,-3.281242 -4.147351,-15.045882 -3.308718,-15.884515 0.322403,-0.322403 0.893798,1.7327 1.269767,4.566896 0.471997,3.558084 1.269928,5.466886 2.577937,6.166911 1.041896,0.557606 1.618012,1.460963 1.280258,2.00746 -0.77373,1.251922 1.354513,3.872707 4.023364,4.954498 1.702135,0.689943 1.50769,0.835112 -1.189602,0.888138 -2.54279,0.04999 -3.526303,-0.520586 -4.653006,-2.699388 z M 116.36514,46.92742 C 117.81431,45.787501 119,44.035646 119,43.034409 c 0,-1.001237 0.675,-2.079453 1.5,-2.396035 2.28669,-0.877486 1.89966,3.555522 -0.53896,6.173065 C 118.83962,48.015147 116.97893,49 115.82619,49 c -1.95451,0 -1.91816,-0.139819 0.53895,-2.07258 z m 7.43663,-11.499649 c -0.22937,-1.964726 -0.10992,-5.452226 0.26543,-7.75 0.56709,-3.471487 0.70363,-2.867574 0.80763,3.572229 0.13219,8.184837 -0.37481,10.158761 -1.07306,4.177771 z M 3.0789474,35.190983 C 3.0355263,34.471024 2.55,34.160081 2,34.5 1.3774683,34.884746 1.0337523,33.114048 1.0894175,29.809017 L 1.1788349,24.5 l 1.390244,5 c 0.7646342,2.75 1.2099226,5.45 0.9895299,6 -0.2203927,0.55 -0.4362404,0.410942 -0.4796614,-0.309017 z"
       id="path3313"
       inkscape:connector-curvature="0" />
  </g>
  <path
     style="fill:none;stroke:#ffffff;stroke-width:2.31;stroke-linecap:butt;stroke-linejoin:miter;stroke-miterlimit:4;stroke-opacity:1;stroke-dasharray:none"
     d="m 58.652945,100.7009 c 16.26527,5.95004 26.385882,0.16761 26.385882,0.16761"
     id="path3782"
     inkscape:connector-curvature="0" />
</svg>
