<?xml version="1.0" encoding="UTF-8" standalone="no"?>
<!-- Created with Inkscape (http://www.inkscape.org/) -->

<svg
   xmlns:dc="http://purl.org/dc/elements/1.1/"
   xmlns:cc="http://creativecommons.org/ns#"
   xmlns:rdf="http://www.w3.org/1999/02/22-rdf-syntax-ns#"
   xmlns:svg="http://www.w3.org/2000/svg"
   xmlns="http://www.w3.org/2000/svg"
   xmlns:sodipodi="http://sodipodi.sourceforge.net/DTD/sodipodi-0.dtd"
   xmlns:inkscape="http://www.inkscape.org/namespaces/inkscape"
   id="svg3301"
   version="1.1"
   inkscape:version="0.48.4 r9939"
   width="140.67123"
   height="140"
   sodipodi:docname="set_eyes_red.svg">
  <metadata
     id="metadata3307">
    <rdf:RDF>
      <cc:Work
         rdf:about="">
        <dc:format>image/svg+xml</dc:format>
        <dc:type
           rdf:resource="http://purl.org/dc/dcmitype/StillImage" />
        <dc:title></dc:title>
      </cc:Work>
    </rdf:RDF>
  </metadata>
  <defs
     id="defs3305" />
  <sodipodi:namedview
     pagecolor="#ffffff"
     bordercolor="#666666"
     borderopacity="1"
     objecttolerance="10"
     gridtolerance="10"
     guidetolerance="10"
     inkscape:pageopacity="0"
     inkscape:pageshadow="2"
     inkscape:window-width="1294"
     inkscape:window-height="1012"
     id="namedview3303"
     showgrid="false"
     fit-margin-top="0"
     fit-margin-left="0"
     fit-margin-right="0"
     fit-margin-bottom="0"
     inkscape:zoom="2.3174603"
     inkscape:cx="68.992395"
     inkscape:cy="55.322398"
     inkscape:window-x="65"
     inkscape:window-y="344"
     inkscape:window-maximized="0"
     inkscape:current-layer="svg3301" />
  <path
     sodipodi:type="arc"
     style="fill:#000000;fill-opacity:1;stroke:#550000;stroke-width:0;stroke-linecap:square;stroke-linejoin:miter;stroke-miterlimit:4;stroke-opacity:1;stroke-dasharray:none"
     id="path3766"
     sodipodi:cx="33.873287"
     sodipodi:cy="77.693016"
     sodipodi:rx="80.044518"
     sodipodi:ry="63.647263"
     d="m 113.9178,77.693016 a 80.044518,63.647263 0 1 1 -0.0185,-1.367446"
     sodipodi:start="0"
     sodipodi:end="6.2616989"
     sodipodi:open="true"
     transform="matrix(0.8787062,0,0,0.93559322,41.002453,-3.0246695)" />
  <path
     style="fill:none;stroke:#ffffff;stroke-width:2.31;stroke-linecap:butt;stroke-linejoin:miter;stroke-miterlimit:4;stroke-opacity:1;stroke-dasharray:none"
     d="m 58.652945,100.7009 c 16.26527,5.95004 26.385882,0.16761 26.385882,0.16761"
     id="path3782"
     inkscape:connector-curvature="0" />
  <g
     id="g2986"
     transform="translate(8.8284571,-31.953691)">
    <path
       sodipodi:type="arc"
       style="fill:#ffffff"
       id="path4062"
       sodipodi:cx="25.351027"
       sodipodi:cy="73.828766"
       sodipodi:rx="20.172945"
       sodipodi:ry="25.027397"
       d="m 45.523972,73.828766 c 0,13.82225 -9.031736,25.027397 -20.172945,25.027397 -11.14121,0 -20.1729455,-11.205147 -20.1729455,-25.027397 0,-13.82225 9.0317355,-25.027397 20.1729455,-25.027397 10.972313,0 19.932551,10.880122 20.168288,24.489689"
       sodipodi:start="0"
       sodipodi:end="6.2616989"
       sodipodi:open="true"
       transform="matrix(0.97326203,0,0,1,78.87421,22.284159)" />
    <path
       transform="matrix(0.97326203,0,0,1,-5.2696247,21.421145)"
       sodipodi:open="true"
       sodipodi:end="6.2616989"
       sodipodi:start="0"
       d="m 45.523972,73.828766 c 0,13.82225 -9.031736,25.027397 -20.172945,25.027397 -11.14121,0 -20.1729455,-11.205147 -20.1729455,-25.027397 0,-13.82225 9.0317355,-25.027397 20.1729455,-25.027397 10.972313,0 19.932551,10.880122 20.168288,24.489689"
       sodipodi:ry="25.027397"
       sodipodi:rx="20.172945"
       sodipodi:cy="73.828766"
       sodipodi:cx="25.351027"
       id="path4058"
       style="fill:#ffffff"
       sodipodi:type="arc" />
    <path
       style="fill:#cfcfcf"
       d="M 12.745015,122.1001 C 8.6243253,120.60145 4.0621793,116.23476 1.7965843,111.62072 0.40598126,108.78867 0.02004826,105.43518 4.4825845e-4,96.013611 -0.02845874,82.117506 1.3250663,78.366099 8.6209923,72.121057 12.475076,68.822105 13.363646,68.513611 19.011681,68.513611 c 5.513159,0 6.665967,0.373965 10.738368,3.483475 12.974726,9.90694 15.016086,36.834414 3.572754,47.128004 -4.681446,4.21109 -13.624164,5.50397 -20.577788,2.97501 z m 12.41537,-12.6531 c 7.36734,-2.79141 11.132405,-11.060504 9.371998,-20.583422 -1.156464,-6.255887 -4.639322,-12.375029 -8.473429,-14.887233 -3.580352,-2.345937 -9.863236,-2.111774 -13.537515,0.504544 -6.0878337,4.33492 -9.6866807,16.531242 -7.1478877,24.223859 1.273677,3.859282 5.0327417,7.867932 9.6019337,10.239462 3.528803,1.83154 6.314925,1.96908 10.1849,0.50279 z m 71.155671,12.72234 c -15.77625,-7.01084 -17.872931,-34.623369 -3.70484,-48.791455 8.930344,-8.930341 23.172474,-4.944251 28.580564,7.999133 1.88514,4.511771 2.74637,15.991957 1.83685,24.484972 -0.59868,5.59039 -1.27462,7.32595 -4.23163,10.86526 -1.96915,2.35692 -5.1273,4.77241 -7.17033,5.48419 -4.48463,1.56243 -11.744934,1.54246 -15.310614,-0.0421 z m 16.159434,-15.50785 c 6.54389,-4.86064 8.13171,-14.348467 4.00413,-23.926123 -2.71383,-6.297159 -6.94592,-9.676302 -12.11875,-9.676302 -5.351314,0 -8.573804,2.166512 -11.918954,8.013218 -9.652713,16.871184 5.57841,36.326147 20.033574,25.589207 z"
       id="path4050"
       inkscape:connector-curvature="0" />
    <path
       style="fill:#a4a4a4"
       d="M 14.505368,122.40102 C 5.7619143,118.91154 0.61136326,110.25526 -0.25664874,97.591216 c -0.476343,-6.949686 -0.247897,-8.44147 2.06700704,-13.497887 3.015459,-6.586631 5.936126,-10.576743 8.9991187,-12.294283 3.895737,-2.184491 3.684375,-1.356434 -0.797863,3.125804 -5.0998867,5.099887 -6.9863197,10.276774 -6.9558567,19.088761 0.05,14.461649 12.0072347,24.111889 23.7018467,19.128879 6.879371,-2.93126 9.717881,-8.81082 9.717881,-20.129163 0,-5.739606 -0.501877,-8.145739 -2.471865,-11.850777 -1.359526,-2.556916 -2.094775,-4.648939 -1.633887,-4.648939 0.460888,0 2.248227,3.15396 3.971865,7.008801 2.581319,5.773008 3.132904,8.285571 3.12831,14.25 -0.0071,9.168478 -1.251709,13.616048 -5.284453,18.883268 -4.571078,5.97033 -12.971487,8.42272 -19.680087,5.74534 z m 82.377618,-0.40759 c -4.15785,-1.82451 -8.77883,-7.26679 -10.91131,-12.85062 -2.310747,-6.05061 -1.661721,-19.1157 1.2796,-25.758659 2.13898,-4.830882 8.40742,-11.893544 10.50754,-11.83886 0.66917,0.01742 -0.0771,0.995918 -1.65829,2.174431 -3.95978,2.951289 -8.62471,13.123631 -8.61868,18.793889 0.0118,11.075129 4.94787,19.069849 12.960924,20.992149 8.16044,1.95766 14.15721,-1.25261 18.53838,-9.9242 2.38842,-4.727359 1.65682,-16.035135 -1.45308,-22.459338 -2.7211,-5.621034 -8.10976,-9.608611 -12.98471,-9.608611 -2.56935,0 -3.1763,-0.291565 -2.34257,-1.125304 2.21148,-2.21148 8.50767,0.02083 12.7747,4.529271 5.52786,5.840596 8.5,13.796582 8.5,22.753256 0,9.115606 -1.45961,13.851456 -5.84986,18.980476 -5.61439,6.55915 -13.39983,8.56424 -20.742644,5.34212 z"
       id="path4048"
       inkscape:connector-curvature="0" />
    <path
       style="fill:#6d6d6d"
       d="M 17.298859,122.80444 C 11.107276,121.85716 1.3341943,109.68249 1.5461223,103.18071 c 0.04953,-1.51954 0.666103,-0.82243 2.063389,2.3329 2.48374,5.60874 5.252588,8.62382 10.2923127,11.2076 7.961652,4.08181 16.825525,0.87796 21.324135,-7.7076 0.864557,-1.65 1.750678,-2.47111 1.969157,-1.8247 0.513678,1.51982 -2.910071,8.15182 -5.774171,11.1849 -2.338447,2.47642 -7.978073,5.24534 -10.163341,4.98997 -0.705166,-0.0824 -2.486601,-0.33411 -3.958745,-0.55935 z m 81.473677,-0.30459 c -6.13427,-2.46987 -14.266471,-15.38826 -13.04514,-20.72282 0.25811,-1.12735 0.81764,-0.32062 1.55123,2.23658 0.63113,2.2 2.58745,5.74341 4.34739,7.87423 8.05485,9.75234 20.419204,8.53639 26.827924,-2.63835 1.65153,-2.87973 3.007,-4.47767 3.01217,-3.55098 0.0274,4.91848 -6.22703,13.75034 -11.51427,16.2593 -3.60212,1.70931 -7.77741,1.91176 -11.179304,0.54204 z M 122.8183,98.013611 c 0.004,-4.4 0.17944,-6.075605 0.39069,-3.723567 0.21124,2.352038 0.20827,5.952036 -0.007,7.999996 -0.21448,2.04797 -0.38732,0.12357 -0.38369,-4.276429 z m -123.20920174,-2.05 0.133613,-5.95 0.732537,5 c 0.402896,2.75 0.34277,5.427499 -0.133612,5.949999 -0.496348,0.5444 -0.809105,-1.590355 -0.732538,-4.999999 z"
       id="path4046"
       inkscape:connector-curvature="0" />
  </g>
</svg>
