<?xml version="1.0" encoding="UTF-8" standalone="no"?>
<!-- Created with Inkscape (http://www.inkscape.org/) -->

<svg
   xmlns:dc="http://purl.org/dc/elements/1.1/"
   xmlns:cc="http://creativecommons.org/ns#"
   xmlns:rdf="http://www.w3.org/1999/02/22-rdf-syntax-ns#"
   xmlns:svg="http://www.w3.org/2000/svg"
   xmlns="http://www.w3.org/2000/svg"
   xmlns:sodipodi="http://sodipodi.sourceforge.net/DTD/sodipodi-0.dtd"
   xmlns:inkscape="http://www.inkscape.org/namespaces/inkscape"
   id="svg3301"
   version="1.1"
   inkscape:version="0.48.4 r9939"
   width="140.67123"
   height="140"
   sodipodi:docname="set_eyes_white.svg">
  <metadata
     id="metadata3307">
    <rdf:RDF>
      <cc:Work
         rdf:about="">
        <dc:format>image/svg+xml</dc:format>
        <dc:type
           rdf:resource="http://purl.org/dc/dcmitype/StillImage" />
        <dc:title></dc:title>
      </cc:Work>
    </rdf:RDF>
  </metadata>
  <defs
     id="defs3305" />
  <sodipodi:namedview
     pagecolor="#ffffff"
     bordercolor="#666666"
     borderopacity="1"
     objecttolerance="10"
     gridtolerance="10"
     guidetolerance="10"
     inkscape:pageopacity="0"
     inkscape:pageshadow="2"
     inkscape:window-width="1294"
     inkscape:window-height="1012"
     id="namedview3303"
     showgrid="false"
     fit-margin-top="0"
     fit-margin-left="0"
     fit-margin-right="0"
     fit-margin-bottom="0"
     inkscape:zoom="2.3174603"
     inkscape:cx="68.992395"
     inkscape:cy="55.322398"
     inkscape:window-x="65"
     inkscape:window-y="344"
     inkscape:window-maximized="0"
     inkscape:current-layer="svg3301" />
  <path
     sodipodi:type="arc"
     style="fill:#000000;fill-opacity:1;stroke:#550000;stroke-width:0;stroke-linecap:square;stroke-linejoin:miter;stroke-miterlimit:4;stroke-opacity:1;stroke-dasharray:none"
     id="path3766"
     sodipodi:cx="33.873287"
     sodipodi:cy="77.693016"
     sodipodi:rx="80.044518"
     sodipodi:ry="63.647263"
     d="m 113.9178,77.693016 a 80.044518,63.647263 0 1 1 -0.0185,-1.367446"
     sodipodi:start="0"
     sodipodi:end="6.2616989"
     sodipodi:open="true"
     transform="matrix(0.8787062,0,0,0.93559322,41.002453,-3.0246695)" />
  <path
     style="fill:none;stroke:#ffffff;stroke-width:2.31;stroke-linecap:butt;stroke-linejoin:miter;stroke-miterlimit:4;stroke-opacity:1;stroke-dasharray:none"
     d="m 58.652945,100.7009 c 16.26527,5.95004 26.385882,0.16761 26.385882,0.16761"
     id="path3782"
     inkscape:connector-curvature="0" />
  <g
     id="g4186"
     transform="translate(7.2271888,32.132534)">
    <path
       style="fill:#f4d403"
       d="M 14.338791,54.692997 C 2.5037246,48.497906 -2.0373356,29.322506 4.8719222,14.717535 13.293462,-3.084139 32.008407,-1.0172192 39.371348,18.527727 c 1.886847,5.008639 2.187501,7.44796 1.863351,15.118078 -0.338485,8.009331 -0.755567,9.748995 -3.35648,14 -5.332922,8.716272 -14.88672,11.576472 -23.539428,7.047192 z m 84.474414,0.7763 C 94.942022,53.771559 90.7267,48.876328 88.158391,43.095917 85.244287,36.537236 86.018368,23.40864 89.771481,15.737554 95.317517,4.4018648 104.03819,0.47579644 113.21392,5.1837049 c 3.97883,2.0414669 5.26361,3.4886828 8.20438,9.2416331 6.09578,11.925019 5.37252,26.769084 -1.7264,35.43238 -5.58029,6.810012 -13.3713,8.904005 -20.878695,5.611579 z"
       id="path4194"
       inkscape:connector-curvature="0" />
    <path
       style="fill:#aa950c"
       d="M 14.338791,54.692997 C 2.5037246,48.497906 -2.0373356,29.322506 4.8719222,14.717535 13.293462,-3.084139 32.008407,-1.0172192 39.371348,18.527727 c 1.886847,5.008639 2.187501,7.44796 1.863351,15.118078 -0.338485,8.009331 -0.755567,9.748995 -3.35648,14 -5.332922,8.716272 -14.88672,11.576472 -23.539428,7.047192 z M 31.255999,43.325101 C 40.750553,36.390357 39.96384,16.942649 29.828779,8.0439473 22.929084,1.985935 13.21253,4.8006452 8.2051154,14.307932 6.497806,17.549501 5.9897398,20.236807 5.9643462,26.159991 c -0.02971,6.930154 0.2529978,8.063645 2.9671606,11.896538 4.1133632,5.808818 8.7102572,8.179328 14.8244922,7.644641 2.65347,-0.232045 6.02847,-1.301276 7.5,-2.376069 z M 98.813205,55.469297 C 94.942022,53.771559 90.7267,48.876328 88.158391,43.095917 85.244287,36.537236 86.018368,23.40864 89.771481,15.737554 95.317517,4.4018648 104.03819,0.47579644 113.21392,5.1837049 c 3.97883,2.0414669 5.26361,3.4886828 8.20438,9.2416331 6.09578,11.925019 5.37252,26.769084 -1.7264,35.43238 -5.58029,6.810012 -13.3713,8.904005 -20.878695,5.611579 z M 114.40732,43.017222 c 8.11865,-5.780983 9.63284,-18.211509 3.63142,-29.811445 C 114.43013,6.2308291 103.84606,3.5851433 98.23302,8.2549671 89.338746,15.654648 87.734324,32.393381 95.161811,40.296507 c 5.663539,6.026209 13.122509,7.080676 19.245509,2.720715 z"
       id="path4192"
       inkscape:connector-curvature="0" />
    <path
       style="fill:#88780f"
       d="m 17.607395,55.862015 c -1.828262,-0.526684 -5.203262,-2.848599 -7.5,-5.159811 C 3.1574393,43.708451 -0.51685536,29.263039 2.7266107,21.684808 c 1.0815977,-2.527111 1.2111413,-2.015455 1.2659255,5 0.049714,6.366209 0.5395409,8.742222 2.6419144,12.815192 3.059466,5.927165 5.0416854,7.868612 10.2599954,10.048962 5.016865,2.09618 11.498917,1.195458 15.475217,-2.150378 1.621216,-1.364162 4.122803,-4.82441 5.559083,-7.68944 L 40.540165,34.5 l -0.58082,4.341766 c -1.053192,7.872847 -4.687361,13.225504 -11.228178,16.537645 -3.548348,1.796813 -6.167376,1.91044 -11.123772,0.482604 z M 99.63199,55.328345 C 91.546351,51.343466 85.771462,39.883488 87.119761,30.498453 L 87.837862,25.5 88.647172,31 c 0.974276,6.62109 4.357062,13.59185 7.867923,16.213086 6.568285,4.903928 15.762105,4.004564 21.089525,-2.063033 3.85336,-4.388725 5.68679,-8.728055 6.75052,-15.977012 L 125.18763,23.5 l 0.12194,7.221487 c 0.2986,17.683339 -13.29452,30.70965 -25.67758,24.606858 z"
       id="path4190"
       inkscape:connector-curvature="0" />
    <path
       style="fill:#6d610f"
       d="m 19.599095,56.317858 c -3.91904,-0.8041 -13.1675882,-9.208535 -13.1675882,-11.965785 0,-0.93065 1.0026407,-0.313953 2.6257908,1.615052 6.9181844,8.221795 17.3816014,9.191542 24.6242094,2.282165 1.5125,-1.44291 2.75,-2.123808 2.75,-1.513106 0,1.685667 -4.995856,7.263816 -6.50556,7.263816 -0.730275,0 -1.477773,0.43981 -1.661107,0.977355 -0.409694,1.201252 -5.503815,1.98926 -8.665745,1.340503 z m 82.332415,0.01894 C 99.285335,55.638012 90.89346,46.874513 90.150734,44.034325 c -0.431563,-1.650298 0.365697,-1.126833 3.037103,1.994104 6.257206,7.310139 13.400903,8.827587 20.891603,4.437748 2.378,-1.393603 4.98702,-3.756103 5.79782,-5.25 0.82767,-1.524982 1.49173,-2.051182 1.51421,-1.199848 0.022,0.833981 -2.14499,3.905586 -4.81557,6.82579 -4.01094,4.38583 -5.53308,5.37151 -8.75,5.666141 -2.14192,0.196174 -4.79439,0.119014 -5.89439,-0.171466 z M 124.76772,31 c 0,-4.125 0.17651,-5.8125 0.39226,-3.75 0.21574,2.0625 0.21574,5.4375 0,7.5 -0.21575,2.0625 -0.39226,0.375 -0.39226,-3.75 z M 1.731171,30 c 0,-3.025 0.1874656,-4.2625 0.4165902,-2.75 0.2291247,1.5125 0.2291247,3.9875 0,5.5 C 1.9186366,34.2625 1.731171,33.025 1.731171,30 z"
       id="path4188"
       inkscape:connector-curvature="0" />
  </g>
</svg>
