<?xml version="1.0" encoding="UTF-8" standalone="no"?>
<!-- Created with Inkscape (http://www.inkscape.org/) -->

<svg
   xmlns:dc="http://purl.org/dc/elements/1.1/"
   xmlns:cc="http://creativecommons.org/ns#"
   xmlns:rdf="http://www.w3.org/1999/02/22-rdf-syntax-ns#"
   xmlns:svg="http://www.w3.org/2000/svg"
   xmlns="http://www.w3.org/2000/svg"
   xmlns:sodipodi="http://sodipodi.sourceforge.net/DTD/sodipodi-0.dtd"
   xmlns:inkscape="http://www.inkscape.org/namespaces/inkscape"
   id="svg3301"
   version="1.1"
   inkscape:version="0.48.4 r9939"
   width="140.67123"
   height="140"
   sodipodi:docname="set_eyes_pink.svg">
  <metadata
     id="metadata3307">
    <rdf:RDF>
      <cc:Work
         rdf:about="">
        <dc:format>image/svg+xml</dc:format>
        <dc:type
           rdf:resource="http://purl.org/dc/dcmitype/StillImage" />
        <dc:title></dc:title>
      </cc:Work>
    </rdf:RDF>
  </metadata>
  <defs
     id="defs3305" />
  <sodipodi:namedview
     pagecolor="#ffffff"
     bordercolor="#666666"
     borderopacity="1"
     objecttolerance="10"
     gridtolerance="10"
     guidetolerance="10"
     inkscape:pageopacity="0"
     inkscape:pageshadow="2"
     inkscape:window-width="1294"
     inkscape:window-height="1012"
     id="namedview3303"
     showgrid="false"
     fit-margin-top="0"
     fit-margin-left="0"
     fit-margin-right="0"
     fit-margin-bottom="0"
     inkscape:zoom="2.3174603"
     inkscape:cx="68.992395"
     inkscape:cy="55.322398"
     inkscape:window-x="65"
     inkscape:window-y="344"
     inkscape:window-maximized="0"
     inkscape:current-layer="svg3301" />
  <path
     sodipodi:type="arc"
     style="fill:#000000;fill-opacity:1;stroke:#550000;stroke-width:0;stroke-linecap:square;stroke-linejoin:miter;stroke-miterlimit:4;stroke-opacity:1;stroke-dasharray:none"
     id="path3766"
     sodipodi:cx="33.873287"
     sodipodi:cy="77.693016"
     sodipodi:rx="80.044518"
     sodipodi:ry="63.647263"
     d="m 113.9178,77.693016 a 80.044518,63.647263 0 1 1 -0.0185,-1.367446"
     sodipodi:start="0"
     sodipodi:end="6.2616989"
     sodipodi:open="true"
     transform="matrix(0.8787062,0,0,0.93559322,41.002453,-3.0246695)" />
  <path
     style="fill:none;stroke:#ffffff;stroke-width:2.31;stroke-linecap:butt;stroke-linejoin:miter;stroke-miterlimit:4;stroke-opacity:1;stroke-dasharray:none"
     d="m 58.652945,100.7009 c 16.26527,5.95004 26.385882,0.16761 26.385882,0.16761"
     id="path3782"
     inkscape:connector-curvature="0" />
  <g
     id="g3707"
     transform="translate(9.0115768,32.995548)">
    <path
       style="fill:#b604ed"
       d="M 13.907284,54.692997 C 2.0722178,48.497906 -2.4688424,29.322506 4.4404154,14.717535 12.861955,-3.084139 31.5769,-1.0172192 38.939841,18.527727 c 1.886847,5.008639 2.187501,7.44796 1.863351,15.118078 -0.338485,8.009331 -0.755567,9.748995 -3.35648,14 -5.332922,8.716272 -14.88672,11.576472 -23.539428,7.047192 z m 84.474414,0.7763 C 94.510515,53.771559 90.295193,48.876328 87.726884,43.095917 84.81278,36.537236 85.586861,23.40864 89.339974,15.737554 94.908112,4.3566893 104.10021,0.25897733 113,5.1902384 c 6.51753,3.6112814 11.32604,13.1344666 11.84766,23.4641356 0.48517,9.607723 -1.14035,15.776461 -5.58727,21.203344 -5.58029,6.810012 -13.3713,8.904005 -20.878692,5.611579 z"
       id="path3715"
       inkscape:connector-curvature="0" />
    <path
       style="fill:#8b0eb1"
       d="M 13.907284,54.692997 C 2.0722178,48.497906 -2.4688424,29.322506 4.4404154,14.717535 12.861955,-3.084139 31.5769,-1.0172192 38.939841,18.527727 c 1.886847,5.008639 2.187501,7.44796 1.863351,15.118078 -0.338485,8.009331 -0.755567,9.748995 -3.35648,14 -5.332922,8.716272 -14.88672,11.576472 -23.539428,7.047192 z M 28.961364,44.51998 C 35.670351,41.050627 38.895999,32.298579 37.082093,22.486258 35.861112,15.881366 31.845448,8.9306332 27.906201,6.6036633 23.697841,4.1177235 17.295809,4.5369975 13.33516,7.557932 7.8904668,11.710802 5.571078,17.240619 5.5328394,26.159991 5.5031289,33.090145 5.7858372,34.223636 8.5,38.056529 c 5.146368,7.26761 13.688365,9.965904 20.461364,6.463451 z M 98.381698,55.469297 C 94.510515,53.771559 90.295193,48.876328 87.726884,43.095917 84.81278,36.537236 85.586861,23.40864 89.339974,15.737554 94.908112,4.3566893 104.10021,0.25897733 113,5.1902384 c 6.51753,3.6112814 11.32604,13.1344666 11.84766,23.4641356 0.48517,9.607723 -1.14035,15.776461 -5.58727,21.203344 -5.58029,6.810012 -13.3713,8.904005 -20.878692,5.611579 z M 113.58584,43.535712 c 5.93351,-3.887784 9.18006,-13.12296 7.34931,-20.905901 -2.69921,-11.4749 -7.7772,-16.9943203 -15.52737,-16.877157 -5.719738,0.086468 -9.333321,2.7700969 -12.706028,9.436133 -2.918076,5.767475 -3.506152,12.375149 -1.684908,18.931785 1.10842,3.990409 6.627315,9.985892 10.198126,11.078797 3.38012,1.034538 9.5113,0.210005 12.37087,-1.663657 z"
       id="path3713"
       inkscape:connector-curvature="0" />
    <path
       style="fill:#720f90"
       d="M 17.175888,55.862015 C 6.1961388,52.698976 -2.3048218,32.845315 2.4489734,21.467881 4.0492932,17.637777 5.5701514,16.683784 4.3905235,20.25 3.3405052,23.424384 3.7941141,32.934883 5.1655769,36.5 10.122449,49.385387 24.303141,54.163526 32.691795,45.774872 c 1.925173,-1.925173 4.364325,-5.92459 5.420337,-8.887593 L 40.032154,31.5 39.6015,37.122396 c -0.681089,8.891938 -4.276094,14.699316 -11.30184,18.257015 -3.548348,1.796813 -6.167376,1.91044 -11.123772,0.482604 z M 99.436291,55.587462 C 91.460873,52.114142 85.291047,39.73452 86.624612,29.881105 L 87.352893,24.5 l 1.239729,6.637561 c 1.961708,10.503068 5.359976,15.397239 12.306598,17.723916 7.52531,2.520498 13.59037,0.167387 18.23854,-7.076152 2.37319,-3.698305 3.21707,-6.336627 3.61586,-11.304753 C 123.44634,21.850811 125,22.190343 125,30.971487 c 0,17.36226 -13.14817,30.022981 -25.563709,24.615975 z"
       id="path3711"
       inkscape:connector-curvature="0" />
    <path
       style="fill:#570f6d"
       d="M 18.75,56.317732 C 17.2375,56.069915 16,55.519277 16,55.094093 16,54.668908 14.921377,53.829576 13.603059,53.228911 10.77754,51.941518 6.5214877,46.543131 5.5386546,43 4.9284423,40.800174 5.0827282,40.873589 6.8236252,43.611438 13.139441,53.544104 25.137131,55.594549 33.026479,48.089593 35.211915,46.010637 37,44.623449 37,45.006953 c 0,1.435017 -4.574508,7.34614 -6.5,8.399218 -1.1,0.601606 -2.24737,1.424553 -2.549711,1.828771 -0.763011,1.020117 -5.895866,1.624207 -9.200289,1.08279 z m 82.88397,0.01907 C 97.661906,55.212594 90.960632,47.837533 89.515621,43 c -0.556611,-1.863395 0.0386,-1.431007 2.337424,1.698022 3.242492,4.413487 5.420078,5.946327 10.529005,7.411548 5.3033,1.520968 9.59044,0.01318 14.81356,-5.209938 5.23119,-5.23119 5.85334,-5.332932 2.84494,-0.465244 -4.78305,7.739132 -12.11441,11.683275 -18.40658,9.902412 z M 124.33621,31 c 0,-4.125 0.17651,-5.8125 0.39226,-3.75 0.21574,2.0625 0.21574,5.4375 0,7.5 -0.21575,2.0625 -0.39226,0.375 -0.39226,-3.75 z M 1.2996642,30 c 0,-3.025 0.1874656,-4.2625 0.4165902,-2.75 0.2291247,1.5125 0.2291247,3.9875 0,5.5 C 1.4871298,34.2625 1.2996642,33.025 1.2996642,30 z"
       id="path3709"
       inkscape:connector-curvature="0" />
  </g>
</svg>
