<?xml version="1.0" encoding="UTF-8" standalone="no"?>
<!-- Created with Inkscape (http://www.inkscape.org/) -->

<svg
   xmlns:dc="http://purl.org/dc/elements/1.1/"
   xmlns:cc="http://creativecommons.org/ns#"
   xmlns:rdf="http://www.w3.org/1999/02/22-rdf-syntax-ns#"
   xmlns:svg="http://www.w3.org/2000/svg"
   xmlns="http://www.w3.org/2000/svg"
   xmlns:sodipodi="http://sodipodi.sourceforge.net/DTD/sodipodi-0.dtd"
   xmlns:inkscape="http://www.inkscape.org/namespaces/inkscape"
   width="605"
   height="605.90869"
   id="svg2996"
   version="1.1"
   inkscape:version="0.48.4 r9939"
   sodipodi:docname="forward.svg">
  <defs
     id="defs2998" />
  <sodipodi:namedview
     id="base"
     pagecolor="#ffffff"
     bordercolor="#666666"
     borderopacity="1.0"
     inkscape:pageopacity="0.0"
     inkscape:pageshadow="2"
     inkscape:zoom="0.35"
     inkscape:cx="256.34375"
     inkscape:cy="303.16907"
     inkscape:document-units="px"
     inkscape:current-layer="layer1"
     showgrid="false"
     fit-margin-top="0"
     fit-margin-left="0"
     fit-margin-right="0"
     fit-margin-bottom="0"
     inkscape:window-width="1301"
     inkscape:window-height="744"
     inkscape:window-x="65"
     inkscape:window-y="24"
     inkscape:window-maximized="1" />
  <metadata
     id="metadata3001">
    <rdf:RDF>
      <cc:Work
         rdf:about="">
        <dc:format>image/svg+xml</dc:format>
        <dc:type
           rdf:resource="http://purl.org/dc/dcmitype/StillImage" />
        <dc:title></dc:title>
      </cc:Work>
    </rdf:RDF>
  </metadata>
  <g
     inkscape:label="Layer 1"
     inkscape:groupmode="layer"
     id="layer1"
     transform="translate(-118.65625,-229.62259)">
    <path
       inkscape:connector-curvature="0"
       id="path2982"
       d="m 452.00258,244.46055 c -4.97207,0.38749 -34.81713,0.76195 -66.32235,0.83213 -38.37132,0.0854 -58.71997,0.49474 -61.63727,1.23968 -10.09409,2.57755 -18.62894,10.91323 -22.83156,22.29878 -5.47463,14.83162 -5.29788,11.20463 -5.75976,118.18822 l -0.41865,96.96382 -1.88393,2.44687 -1.88394,2.44687 -36.33116,-0.50161 c -41.51647,-0.57321 -49.68905,0.0967 -57.84636,4.74141 -17.32232,9.8633 -23.35815,33.67331 -13.71688,54.11011 1.26019,2.67125 16.27367,21.97738 35.5748,45.74633 35.77376,44.05469 62.01575,77.11426 95.54285,120.36463 40.37578,52.08524 80.0381,97.47128 90.90013,104.01801 12.43832,7.49681 25.95737,3.79495 42.09401,-11.52643 7.28803,-6.91981 196.79313,-237.79948 203.93832,-248.46408 3.14172,-4.6892 7.08019,-11.91108 8.75216,-16.04861 2.82362,-6.98746 3.03995,-8.16519 3.03995,-16.55014 0,-7.63657 -0.32903,-9.87727 -2.13563,-14.54406 -3.44442,-8.89748 -8.23399,-15.46672 -13.63787,-18.70528 l -4.77227,-2.86005 -50.33004,-0.30062 -50.33004,-0.30062 -1.03434,-2.20698 c -1.79025,-3.81986 -1.91147,-91.81687 -0.17785,-129.09136 2.72911,-58.67775 0.13834,-80.93078 -11.13419,-95.63586 -7.44961,-9.71804 -16.67612,-14.45327 -32.45747,-16.65781 -8.04313,-1.12356 -30.80487,-1.12525 -45.20066,-0.003 z"
       style="fill:#ffffff;fill-opacity:1;stroke:#442178;stroke-width:28.25099945;stroke-linecap:square;stroke-linejoin:miter;stroke-miterlimit:4;stroke-opacity:1;stroke-dasharray:none" />
  </g>
</svg>
