<?xml version="1.0" encoding="UTF-8" standalone="no"?>
<!-- Created with Inkscape (http://www.inkscape.org/) -->

<svg
   xmlns:dc="http://purl.org/dc/elements/1.1/"
   xmlns:cc="http://creativecommons.org/ns#"
   xmlns:rdf="http://www.w3.org/1999/02/22-rdf-syntax-ns#"
   xmlns:svg="http://www.w3.org/2000/svg"
   xmlns="http://www.w3.org/2000/svg"
   xmlns:sodipodi="http://sodipodi.sourceforge.net/DTD/sodipodi-0.dtd"
   xmlns:inkscape="http://www.inkscape.org/namespaces/inkscape"
   width="540"
   height="540"
   id="svg2"
   version="1.1"
   inkscape:version="0.48.4 r9939"
   sodipodi:docname="bunny.svg">
  <defs
     id="defs4" />
  <sodipodi:namedview
     id="base"
     pagecolor="#e4e5e2"
     bordercolor="#666666"
     borderopacity="1.0"
     inkscape:pageopacity="0.57647059"
     inkscape:pageshadow="2"
     inkscape:zoom="0.24748737"
     inkscape:cx="647.09171"
     inkscape:cy="649.96027"
     inkscape:document-units="px"
     inkscape:current-layer="layer1"
     showgrid="false"
     fit-margin-top="0"
     fit-margin-left="0"
     fit-margin-right="0"
     fit-margin-bottom="0"
     inkscape:window-width="1301"
     inkscape:window-height="744"
     inkscape:window-x="65"
     inkscape:window-y="24"
     inkscape:window-maximized="1" />
  <metadata
     id="metadata7">
    <rdf:RDF>
      <cc:Work
         rdf:about="">
        <dc:format>image/svg+xml</dc:format>
        <dc:type
           rdf:resource="http://purl.org/dc/dcmitype/StillImage" />
        <dc:title></dc:title>
      </cc:Work>
    </rdf:RDF>
  </metadata>
  <g
     inkscape:label="Layer 1"
     inkscape:groupmode="layer"
     id="layer1"
     transform="translate(274.24512,-288.56259)">
    <path
       style="fill:#ffffff;stroke:#ffffff;stroke-width:15.19999980999999956;stroke-miterlimit:4;stroke-dasharray:none"
       d="m 150.23983,393.93457 c -0.36071,-0.0691 -0.40625,0.97313 -0.40625,3.59375 0,4.20889 -0.37161,4.81624 -6.84375,10.96875 -9.033,8.58688 -11.27156,11.80055 -15.6875,22.53125 -5.012,12.17913 -7.64379,16.46172 -13.53125,21.96875 -5.94491,5.56077 -13.43939,9.19431 -22.09375,10.71875 -11.02439,1.94191 -20.76156,-0.0537 -52.34375,-10.6875 -38.2952395,-12.89415 -55.04872,-15.8967 -75.46875,-13.53125 -34.3638,3.98069 -63.99613,21.64842 -81.8125,48.78125 -10.97093,16.70781 -16.2677,32.79718 -18.5625,56.3125 -1.02567,10.51024 -1.65619,13.37494 -3.25,14.96875 -4.95836,4.95837 -13.22903,3.98118 -17.0625,-2.03125 -5.98249,-9.38296 -7.37877,-10.87805 -12.5,-13.375 -15.26339,-7.44191 -32.65067,-4.33388 -39.9375,7.15625 -7.1654,11.29866 -6.50559,21.55691 1.9375,30 10.50411,10.50411 28.71489,11.74554 48,3.28125 3.8468,-1.68837 7.98955,-3.0625 9.1875,-3.0625 3.89072,0 7.70694,3.1896 11.125,9.28125 8.67652,15.46329 25.62917,23.40504 63.34375,29.6875 18.27372,3.04402 26.1601,4.92756 32.5,7.71875 11.04854,4.8642 16.98272,13.70572 17,25.40625 0.0148,9.99818 -4.41972,18.09878 -17.0625,31.15625 -8.29902,8.5713 -9.93204,10.76275 -9.9375,13.40625 -0.008,4.0651 4.20799,7.72285 11.3125,9.84375 2.86142,0.8542 12.68686,2.4259 21.84375,3.5 18.4725805,2.1668 27.9149005,4.9832 44.375,13.25 18.80815,9.446 31.73056,21.3752 48.125,44.4375 5.15755,7.2552 11.26177,14.7399 13.59375,16.625 10.9851,8.8802 22.33168,13.62225 32.625,13.65625 l 6.40625,0.0312 -0.6875,-7.5625 c -2.71652,-29.9778 -23.73179,-55.07625 -62.09375,-74.21875 -14.11521,-7.0434 -16.24699,-7.93285 -32.5,-13.1875 l -14.5,-4.6875 -0.28125,-9.0625 -0.28125,-9.0625 8.28125,-5.8125 c 21.66592,-15.18171 35.35483,-35.1716 40.1875,-58.625 2.26839,-11.00873 2.10591,-29.45317 -0.34375,-39.03125 -1.87214,-7.32 -5.81634,-16.08571 -10,-22.25 -3.94267,-5.80921 -14.64833,-15.75335 -22.78125,-21.125 -9.19911,-6.07586 -10.28125,-7.47896 -10.28125,-13.40625 0,-5.84494 4.16822,-9.96875 10.03125,-9.96875 9.24962,0 33.29442,20.04951 43.1875,36 9.68126,15.609 13.93146,30.96887 13.96875,50.5 0.0571,29.90095 -10.19654,55.39793 -31.3125,77.75 -3.50719,3.7125 -6.15536,6.71898 -5.875,6.6875 0.98356,-0.11046 14.07922,-8.50482 23.25,-14.90625 13.75017,-9.59796 35.61334,-31.85259 44.59375,-45.375 20.26734,-30.51792 29.15625,-62.65796 29.15625,-105.53125 0,-15.61345 0.0595,-16.03125 2.53125,-18.96875 4.45128,-5.29004 7.00019,-5.07379 20.75,1.75 15.97888,7.93003 26.10748,10.45782 42.21875,10.53125 13.0688,0.0596 20.32999,-1.52461 26.5625,-5.71875 5.28366,-3.55562 6.3124,-7.70624 6.3125,-25.71875 1.4e-4,-23.19661 -3.39559,-36.25958 -12.84375,-49.5 -13.70247,-19.20229 -32.0589,-28.06276 -60.53125,-29.15625 -14.43903,-0.55454 -18.22266,-1.42278 -20.53125,-4.71875 -0.51512,-0.73543 -0.84607,-1.1773 -1.0625,-1.21875 z m 46.84375,24.46875 c 2.22342,0 4.45652,0.63059 7.15625,1.9375 5.6369,2.72878 8.59375,7.56006 8.59375,14.03125 0,11.94606 -12.32069,19.52668 -23.09375,14.21875 -11.36075,-5.59748 -11.22253,-22.71137 0.21875,-28.25 2.69973,-1.30691 4.90158,-1.9375 7.125,-1.9375 z"
       id="path4010"
       inkscape:connector-curvature="0" />
    <path
       style="fill:#ffffff;stroke:#ffffff;stroke-width:15.19999980999999956;stroke-miterlimit:4;stroke-dasharray:none"
       d="m 150.2592,388.3532 c -2.6127,-4.44003 -10.93377,-14.32088 -17.23926,-20.47077 -21.38083,-20.8532 -56.99896,-38.82459 -91.80545,-46.32112 -18.37723,-3.95805 -53.79249,-3.65449 -72.33777,0.62003 -12.86125,2.9644 -16.92891,6.19554 -18.52762,14.71738 -0.85579,4.56175 0.18519,5.99052 6.81069,9.34792 11.42801,5.79101 32.76999,8.6424 48.2169305,6.44201 33.6077695,-4.78738 67.5482995,-2.75827 92.9999995,5.55994 16.35429,5.34497 35.19977,16.06766 47,26.74203 5.3638,4.85205 6.0282,5.30962 4.88248,3.36258 z"
       id="path4006"
       inkscape:connector-curvature="0" />
    <path
       style="fill:#ffffff;stroke:#ffffff"
       d="m -263.08716,480.01431 c -2.7151,-2.28461 -3.07299,-3.19551 -3.04493,-7.75 0.0336,-5.45172 1.08475,-7.59759 4.65246,-9.49777 3.49173,-1.85971 76.52941,-1.62133 80.17072,0.26166 6.73246,3.4815 6.82355,13.97083 0.15552,17.90973 -2.49708,1.47506 -7.16167,1.66527 -40.83807,1.66527 l -38.01898,0 -3.07672,-2.58889 z"
       id="path4004"
       inkscape:connector-curvature="0" />
    <path
       style="fill:#ffffff;stroke:#ffffff"
       d="m -245.04702,437.97251 c -1.28047,-0.89688 -2.97776,-3.18547 -3.77175,-5.08576 -1.79886,-4.30528 -0.43525,-9.28089 3.36213,-12.26791 2.47722,-1.94858 3.96746,-2.01564 44.79275,-2.01564 40.82529,0 42.31554,0.0671 44.79275,2.01564 3.79738,2.98702 5.16099,7.96263 3.36213,12.26791 -2.8913,6.91986 -1.43294,6.71645 -48.15488,6.71645 -37.26175,0 -42.32034,-0.18586 -44.38313,-1.63069 z"
       id="path4002"
       inkscape:connector-curvature="0" />
    <path
       style="fill:#ffffff;stroke:#ffffff"
       d="m -227.79685,394.83096 c -5.48127,-4.44 -5.87705,-10.91775 -0.96704,-15.82776 l 3.4,-3.4 59.2,0 59.2,0 3.4,3.4 c 4.61216,4.61215 4.79877,10.35508 0.47692,14.67692 l -2.92307,2.92308 -59.82693,-0.0222 c -55.17516,-0.0205 -59.99276,-0.15657 -61.95988,-1.75 z"
       id="path3980"
       inkscape:connector-curvature="0" />
  </g>
</svg>
