<?xml version="1.0" encoding="UTF-8" standalone="no"?>
<!-- Created with Inkscape (http://www.inkscape.org/) -->

<svg
   xmlns:dc="http://purl.org/dc/elements/1.1/"
   xmlns:cc="http://creativecommons.org/ns#"
   xmlns:rdf="http://www.w3.org/1999/02/22-rdf-syntax-ns#"
   xmlns:svg="http://www.w3.org/2000/svg"
   xmlns="http://www.w3.org/2000/svg"
   xmlns:sodipodi="http://sodipodi.sourceforge.net/DTD/sodipodi-0.dtd"
   xmlns:inkscape="http://www.inkscape.org/namespaces/inkscape"
   id="svg3167"
   version="1.1"
   inkscape:version="0.48.4 r9939"
   width="162"
   height="162"
   sodipodi:docname="dice-3.png">
  <metadata
     id="metadata3173">
    <rdf:RDF>
      <cc:Work
         rdf:about="">
        <dc:format>image/svg+xml</dc:format>
        <dc:type
           rdf:resource="http://purl.org/dc/dcmitype/StillImage" />
        <dc:title></dc:title>
      </cc:Work>
    </rdf:RDF>
  </metadata>
  <defs
     id="defs3171" />
  <sodipodi:namedview
     pagecolor="#ffffff"
     bordercolor="#666666"
     borderopacity="1"
     objecttolerance="10"
     gridtolerance="10"
     guidetolerance="10"
     inkscape:pageopacity="0"
     inkscape:pageshadow="2"
     inkscape:window-width="640"
     inkscape:window-height="480"
     id="namedview3169"
     showgrid="false"
     inkscape:zoom="1.4567901"
     inkscape:cx="81"
     inkscape:cy="81"
     inkscape:window-x="65"
     inkscape:window-y="123"
     inkscape:window-maximized="0"
     inkscape:current-layer="svg3167" />
  <path
     inkscape:connector-curvature="0"
     id="path3949"
     d="M 43.320517,158.47286 C 25.486699,154.15623 10.830375,139.76072 5.2988761,121.12782 c -2.3818223,-8.02319 -2.3818223,-70.11381 0,-78.136997 C 10.903038,24.11316 25.529032,9.9010494 43.779509,5.5991058 52.916166,3.4454427 109.3477,3.4195843 118.44671,5.5648914 c 8.60912,2.0298042 16.91164,6.4279346 23.49852,12.4479706 6.82994,6.242185 11.11994,12.796012 14.58579,22.282725 l 2.65371,7.263735 0,34.5 0,34.499998 -2.65371,7.26373 c -3.46585,9.48672 -7.75585,16.04054 -14.58579,22.28273 -6.58688,6.02004 -14.8894,10.41817 -23.49852,12.44797 -8.76954,2.06763 -66.506608,2.00546 -75.126193,-0.0809 z"
     style="fill:#ffffff" />
  <path
     inkscape:connector-curvature="0"
     id="path3947"
     d="M 43.320517,158.47286 C 25.486699,154.15623 10.830375,139.76072 5.2988761,121.12782 c -2.3818223,-8.02319 -2.3818223,-70.11381 0,-78.136997 C 10.903038,24.11316 25.529032,9.9010494 43.779509,5.5991058 52.916166,3.4454427 109.3477,3.4195843 118.44671,5.5648914 c 8.60912,2.0298042 16.91164,6.4279346 23.49852,12.4479706 6.82994,6.242185 11.11994,12.796012 14.58579,22.282725 l 2.65371,7.263735 0,34.5 0,34.499998 -2.65371,7.26373 c -3.46585,9.48672 -7.75585,16.04054 -14.58579,22.28273 -6.58688,6.02004 -14.8894,10.41817 -23.49852,12.44797 -8.76954,2.06763 -66.506608,2.00546 -75.126193,-0.0809 z m 73.843233,-2.94965 c 18.53362,-4.82739 30.73586,-16.0192 36.18946,-33.1927 2.24829,-7.07989 2.33323,-8.54602 2.33323,-40.271188 0,-31.725174 -0.0849,-33.1913 -2.33323,-40.271192 C 147.89961,24.614627 135.69737,13.422821 117.16375,8.5954282 108.6632,6.3813156 53.823249,6.3674597 45.14654,8.5772323 26.487014,13.329415 12.91421,26.569499 8.2176329,44.600876 c -2.2258395,8.545575 -2.2258395,66.371314 0,74.916894 4.6424641,17.82362 18.1477971,31.1415 36.4688081,35.96262 8.212354,2.16106 64.217819,2.19415 72.477309,0.0428 z m -7.1106,-25.38195 c -4.71386,-2.87438 -6.36719,-5.87664 -6.36297,-11.55445 0.005,-6.20266 2.48398,-10.58198 7.27933,-12.85753 7.06438,-3.35226 14.57801,-1.12363 18.78174,5.5709 1.56332,2.48962 1.9458,4.42425 1.61991,8.19372 -0.36547,4.22744 -1.01276,5.48133 -4.51694,8.75 -3.56131,3.32195 -4.70969,3.81494 -8.87906,3.81168 -2.94834,-0.002 -5.99289,-0.738 -7.92201,-1.91432 z M 74.706374,94.361685 c -12.713045,-6.584219 -9.468544,-25.21656 4.691968,-26.944772 7.723957,-0.942666 15.291679,6.009082 15.284361,14.040292 -0.0095,10.45794 -10.996354,17.555302 -19.976329,12.90448 z M 36.990775,57.103325 c -8.678133,-5.291393 -9.48607,-16.165206 -1.708482,-22.994018 2.985108,-2.62096 4.25905,-3.049985 9.056591,-3.049985 5.120988,0 5.891676,0.310233 9.315825,3.75 4.895627,4.917955 5.839325,9.635875 3.145515,15.725679 -3.489254,7.888039 -12.658712,10.928404 -19.809449,6.568324 z"
     style="fill:#000000" />
</svg>
