<?xml version="1.0" encoding="UTF-8" standalone="no"?>
<!-- Created with Inkscape (http://www.inkscape.org/) -->

<svg
   xmlns:dc="http://purl.org/dc/elements/1.1/"
   xmlns:cc="http://creativecommons.org/ns#"
   xmlns:rdf="http://www.w3.org/1999/02/22-rdf-syntax-ns#"
   xmlns:svg="http://www.w3.org/2000/svg"
   xmlns="http://www.w3.org/2000/svg"
   xmlns:sodipodi="http://sodipodi.sourceforge.net/DTD/sodipodi-0.dtd"
   xmlns:inkscape="http://www.inkscape.org/namespaces/inkscape"
   id="svg3076"
   version="1.1"
   inkscape:version="0.48.4 r9939"
   width="162"
   height="164"
   sodipodi:docname="dice-2.png">
  <metadata
     id="metadata3082">
    <rdf:RDF>
      <cc:Work
         rdf:about="">
        <dc:format>image/svg+xml</dc:format>
        <dc:type
           rdf:resource="http://purl.org/dc/dcmitype/StillImage" />
        <dc:title></dc:title>
      </cc:Work>
    </rdf:RDF>
  </metadata>
  <defs
     id="defs3080" />
  <sodipodi:namedview
     pagecolor="#ffffff"
     bordercolor="#666666"
     borderopacity="1"
     objecttolerance="10"
     gridtolerance="10"
     guidetolerance="10"
     inkscape:pageopacity="0"
     inkscape:pageshadow="2"
     inkscape:window-width="640"
     inkscape:window-height="480"
     id="namedview3078"
     showgrid="false"
     inkscape:zoom="1.4390244"
     inkscape:cx="81"
     inkscape:cy="82"
     inkscape:window-x="65"
     inkscape:window-y="79"
     inkscape:window-maximized="0"
     inkscape:current-layer="svg3076" />
  <path
     inkscape:connector-curvature="0"
     id="path3090"
     d="M 43.328991,158.71862 C 25.399219,154.37876 9.9815473,139.02089 5.2261074,120.76353 c -2.2293589,-8.55909 -2.2293589,-68.357805 0,-76.916891 C 10.045458,25.343902 25.444225,10.1688 43.787983,5.8448681 53.066268,3.6578209 110.69594,3.6333959 119.06386,5.8129642 c 14.70776,3.8308845 27.93718,14.2396058 34.15479,26.8725078 6.02357,12.238637 6.67776,17.867436 6.23179,53.619613 -0.36388,29.172255 -0.55121,31.928055 -2.53505,37.292705 -3.63495,9.82953 -7.3373,15.57599 -14.18487,22.01648 -7.09616,6.67428 -14.48956,10.7926 -23.66666,13.18293 -8.06928,2.10178 -66.979411,2.04066 -75.734869,-0.0786 z"
     style="fill:#ffffff" />
  <path
     inkscape:connector-curvature="0"
     id="path3088"
     d="M 43.328991,158.71862 C 25.399219,154.37876 9.9815473,139.02089 5.2261074,120.76353 c -2.2293589,-8.55909 -2.2293589,-68.357805 0,-76.916891 C 10.045458,25.343902 25.444225,10.1688 43.787983,5.8448681 53.066268,3.6578209 110.69594,3.6333959 119.06386,5.8129642 c 14.70776,3.8308845 27.93718,14.2396058 34.15479,26.8725078 6.02357,12.238637 6.67776,17.867436 6.23179,53.619613 -0.36388,29.172255 -0.55121,31.928055 -2.53505,37.292705 -3.63495,9.82953 -7.3373,15.57599 -14.18487,22.01648 -7.09616,6.67428 -14.48956,10.7926 -23.66666,13.18293 -8.06928,2.10178 -66.979411,2.04066 -75.734869,-0.0786 z m 72.566709,-2.51051 c 7.02501,-1.45423 18.29771,-6.89613 23.44382,-11.31752 5.53643,-4.75674 11.08418,-13.311 14.25706,-21.98347 l 2.59834,-7.10204 0,-33.499995 0,-33.5 -2.59834,-7.102042 C 148.43129,27.584732 140.70383,18.794839 128.19492,12.808939 117.22726,7.560576 112.84128,7.1023336 77.694915,7.5327583 48.243806,7.8934354 45.809901,8.0614721 40.27564,10.116184 c -16.333558,6.06418 -27.699772,18.706635 -32.0502752,35.649 -2.2194236,8.643202 -2.2194236,64.436596 0,73.079796 5.0185412,19.54394 19.4734462,33.42444 38.9695502,37.421 6.169371,1.26467 62.541265,1.21719 68.700785,-0.0579 z m -5.90223,-25.86255 c -8.90103,-5.42727 -8.23423,-19.99593 1.11834,-24.43402 9.24588,-4.38745 19.37662,1.18911 20.33808,11.1953 0.85888,8.93847 -4.80247,15.19076 -13.75497,15.19076 -2.70311,0 -5.77837,-0.77946 -7.70145,-1.95204 z M 37.15212,57.442054 c -8.521543,-5.1966 -9.451226,-16.422987 -1.908462,-23.045622 3.003449,-2.637063 4.312704,-3.091347 8.909328,-3.091347 4.354106,0 5.985981,0.502766 8.501121,2.619116 6.226254,5.239048 7.644211,12.758644 3.57652,18.966724 -3.961216,6.04558 -13.066198,8.21755 -19.078507,4.551129 z"
     style="fill:#000000" />
</svg>
