<?xml version="1.0" encoding="UTF-8" standalone="no"?>
<!-- Created with Inkscape (http://www.inkscape.org/) -->

<svg
   xmlns:dc="http://purl.org/dc/elements/1.1/"
   xmlns:cc="http://creativecommons.org/ns#"
   xmlns:rdf="http://www.w3.org/1999/02/22-rdf-syntax-ns#"
   xmlns:svg="http://www.w3.org/2000/svg"
   xmlns="http://www.w3.org/2000/svg"
   xmlns:sodipodi="http://sodipodi.sourceforge.net/DTD/sodipodi-0.dtd"
   xmlns:inkscape="http://www.inkscape.org/namespaces/inkscape"
   id="svg4136"
   version="1.1"
   inkscape:version="0.48.4 r9939"
   width="159"
   height="161"
   sodipodi:docname="dice-6.png">
  <metadata
     id="metadata4142">
    <rdf:RDF>
      <cc:Work
         rdf:about="">
        <dc:format>image/svg+xml</dc:format>
        <dc:type
           rdf:resource="http://purl.org/dc/dcmitype/StillImage" />
        <dc:title></dc:title>
      </cc:Work>
    </rdf:RDF>
  </metadata>
  <defs
     id="defs4140" />
  <sodipodi:namedview
     pagecolor="#ffffff"
     bordercolor="#666666"
     borderopacity="1"
     objecttolerance="10"
     gridtolerance="10"
     guidetolerance="10"
     inkscape:pageopacity="0"
     inkscape:pageshadow="2"
     inkscape:window-width="640"
     inkscape:window-height="480"
     id="namedview4138"
     showgrid="false"
     inkscape:zoom="1.4658385"
     inkscape:cx="79.5"
     inkscape:cy="80.5"
     inkscape:window-x="65"
     inkscape:window-y="24"
     inkscape:window-maximized="0"
     inkscape:current-layer="svg4136" />
  <path
     inkscape:connector-curvature="0"
     id="path4150"
     d="m 46.317797,157.33017 c -4.911805,-0.7809 -14.583494,-4.65962 -19.5,-7.82024 C 14.99573,141.91002 5.5088974,127.54741 3.3626613,114 c -1.3360862,-8.43361 -1.3360862,-59.566393 0,-68 C 6.2134485,28.005341 19.499475,12.167375 37.817797,4.9268265 43.637738,2.6264212 44.829125,2.5447994 77.517753,2.2069844 105.77808,1.9149329 112.23463,2.1143468 117.51776,3.4424068 137.15548,8.3788864 151.83303,22.95763 156.79989,42.460099 157.99924,47.16936 158.3178,55.047804 158.3178,80 c 0,24.9522 -0.31856,32.83064 -1.51791,37.5399 -4.93029,19.35886 -19.58333,34.0119 -38.94219,38.94219 -4.77358,1.21573 -12.23898,1.4908 -37.500002,1.38173 -17.346945,-0.0749 -32.664901,-0.31504 -34.039901,-0.53365 z"
     style="fill:#ffffff" />
  <path
     inkscape:connector-curvature="0"
     id="path4148"
     d="m 46.317797,157.33017 c -4.911805,-0.7809 -14.583494,-4.65962 -19.5,-7.82024 C 14.99573,141.91002 5.5088974,127.54741 3.3626613,114 c -1.3360862,-8.43361 -1.3360862,-59.566393 0,-68 C 6.2134485,28.005341 19.499475,12.167375 37.817797,4.9268265 43.637738,2.6264212 44.829125,2.5447994 77.517753,2.2069844 105.77808,1.9149329 112.23463,2.1143468 117.51776,3.4424068 137.15548,8.3788864 151.83303,22.95763 156.79989,42.460099 157.99924,47.16936 158.3178,55.047804 158.3178,80 c 0,24.9522 -0.31856,32.83064 -1.51791,37.5399 -4.93029,19.35886 -19.58333,34.0119 -38.94219,38.94219 -4.77358,1.21573 -12.23898,1.4908 -37.500002,1.38173 -17.346945,-0.0749 -32.664901,-0.31504 -34.039901,-0.53365 z m 69.200783,-3.43525 c 18.74057,-3.90811 34.78603,-19.95357 38.69414,-38.69414 1.47422,-7.06939 1.47422,-63.332175 0,-70.401559 C 150.30461,26.05865 134.25915,10.013187 115.51858,6.1050834 106.9809,4.3246609 51.124668,4.638817 43.949878,6.5076124 24.700966,11.521317 10.783169,25.879418 6.7561502,44.878001 c -1.9767259,9.325756 -1.9767259,60.918239 0,70.243999 3.9822988,18.7876 17.8357058,33.22542 36.7711218,38.32231 6.701672,1.80391 63.788368,2.16122 71.991308,0.45061 z M 35.616346,128.04048 c -11.629539,-7.09094 -5.875015,-26.05235 7.901791,-26.03674 7.034218,0.008 13.788863,7.04772 13.795922,14.37823 0.0045,4.70769 -3.135906,10.12176 -7.043145,12.14227 -4.015226,2.07636 -10.824493,1.85158 -14.654568,-0.48376 z m 72.742264,-0.6596 c -4.44587,-3.74095 -6.36294,-7.94254 -5.7407,-12.58173 1.35922,-10.13373 11.1403,-15.531184 20.283,-11.19269 9.35257,4.43809 10.01937,19.00675 1.11834,24.43402 -4.80015,2.92683 -11.7461,2.63428 -15.66064,-0.6596 z M 38.960347,93.003006 c -11.03131,-3.42628 -13.015898,-19.125697 -3.22839,-25.538718 9.001772,-5.898188 21.592007,1.063449 21.582102,11.933595 -0.0087,9.549221 -9.281513,16.422911 -18.353712,13.605123 z m 71.815543,-0.882912 c -12.53028,-5.691703 -10.30205,-23.708369 3.28845,-26.589283 4.54421,-0.963283 9.62023,0.983948 13.20348,5.065041 2.59285,2.953103 3.04998,4.281354 3.04998,8.862219 0,4.396823 -0.4975,5.97972 -2.70331,8.601178 -2.74128,3.257824 -7.76766,5.958802 -11.01457,5.918789 -0.98017,-0.01208 -3.60098,-0.848154 -5.82403,-1.857944 z M 36.817797,55.13944 C 31.879067,52.088813 30.056426,49.335262 29.560661,44.175734 28.713229,35.35634 34.382752,29.011332 43.117457,29.003738 51.416161,28.996523 57.310321,34.601391 57.310321,42.5 c 0,10.631411 -11.880451,17.959071 -20.492524,12.63944 z m 73.915193,0.439148 c -5.90062,-2.569131 -9.53343,-9.987047 -7.96039,-16.25452 0.3712,-1.478993 2.39279,-4.406951 4.49241,-6.506573 C 110.59777,29.484732 111.67514,29 115.74981,29 c 8.85141,0 14.55705,5.438351 14.56425,13.881966 0.009,10.422463 -9.95928,16.885954 -19.58107,12.696622 z"
     style="fill:#000000" />
</svg>
