<?xml version="1.0" encoding="UTF-8" standalone="no"?>
<!-- Created with Inkscape (http://www.inkscape.org/) -->

<svg
   xmlns:dc="http://purl.org/dc/elements/1.1/"
   xmlns:cc="http://creativecommons.org/ns#"
   xmlns:rdf="http://www.w3.org/1999/02/22-rdf-syntax-ns#"
   xmlns:svg="http://www.w3.org/2000/svg"
   xmlns="http://www.w3.org/2000/svg"
   xmlns:sodipodi="http://sodipodi.sourceforge.net/DTD/sodipodi-0.dtd"
   xmlns:inkscape="http://www.inkscape.org/namespaces/inkscape"
   id="svg4026"
   version="1.1"
   inkscape:version="0.48.4 r9939"
   width="162"
   height="162"
   sodipodi:docname="dice-5.png">
  <metadata
     id="metadata4032">
    <rdf:RDF>
      <cc:Work
         rdf:about="">
        <dc:format>image/svg+xml</dc:format>
        <dc:type
           rdf:resource="http://purl.org/dc/dcmitype/StillImage" />
        <dc:title></dc:title>
      </cc:Work>
    </rdf:RDF>
  </metadata>
  <defs
     id="defs4030" />
  <sodipodi:namedview
     pagecolor="#ffffff"
     bordercolor="#666666"
     borderopacity="1"
     objecttolerance="10"
     gridtolerance="10"
     guidetolerance="10"
     inkscape:pageopacity="0"
     inkscape:pageshadow="2"
     inkscape:window-width="640"
     inkscape:window-height="480"
     id="namedview4028"
     showgrid="false"
     inkscape:zoom="1.4567901"
     inkscape:cx="81"
     inkscape:cy="81"
     inkscape:window-x="65"
     inkscape:window-y="24"
     inkscape:window-maximized="0"
     inkscape:current-layer="svg4026" />
  <path
     inkscape:connector-curvature="0"
     id="path4040"
     d="M 43.781644,157.44706 C 26.013453,153.13946 11.286564,139.24848 5.7154611,121.54153 3.6123983,114.85724 3.5,112.80043 3.5,81 3.5,49.199575 3.6123983,47.142758 5.7154611,40.458475 11.360402,22.516839 26.069344,8.7896697 44.239732,4.505569 52.013942,2.6726144 108.78423,2.3546913 117.20078,4.0969749 c 19.08103,3.9499029 35.30412,19.5002441 40.21503,38.5473701 2.31644,8.984405 2.31644,67.726905 0,76.711315 -4.91091,19.04712 -21.134,34.59746 -40.21503,38.54737 -8.0556,1.66756 -66.148057,1.30678 -73.419136,-0.45597 z"
     style="fill:#ffffff" />
  <path
     inkscape:connector-curvature="0"
     id="path4038"
     d="M 43.781644,157.44706 C 26.013453,153.13946 11.286564,139.24848 5.7154611,121.54153 3.6123983,114.85724 3.5,112.80043 3.5,81 3.5,49.199575 3.6123983,47.142758 5.7154611,40.458475 11.360402,22.516839 26.069344,8.7896697 44.239732,4.505569 52.013942,2.6726144 108.78423,2.3546913 117.20078,4.0969749 c 19.08103,3.9499029 35.30412,19.5002441 40.21503,38.5473701 2.31644,8.984405 2.31644,67.726905 0,76.711315 -4.91091,19.04712 -21.134,34.59746 -40.21503,38.54737 -8.0556,1.66756 -66.148057,1.30678 -73.419136,-0.45597 z m 72.419136,-2.54403 c 18.40888,-3.81077 33.4943,-18.23788 38.21503,-36.54737 2.31268,-8.96981 2.31268,-65.741507 0,-74.711315 C 149.69508,25.33485 134.60966,10.907738 116.20078,7.0969749 107.80851,5.3597172 53.002594,5.67529 45.239732,7.505569 27.408301,11.709753 14.217114,23.972259 8.7154611,41.458475 6.6180665,48.124742 6.5,50.231993 6.5,81 c 0,30.76801 0.1180665,32.87526 2.2154611,39.54153 5.4305749,17.2603 18.6435439,29.6817 36.0661829,33.90553 7.261499,1.76042 63.386626,2.11875 71.419136,0.45597 z M 36.419965,129.11432 c -6.026821,-3.67515 -8.155829,-12.75501 -4.425367,-18.87346 3.124219,-5.12413 7.599972,-7.43047 13.439979,-6.92558 4.227441,0.36547 5.481337,1.01276 8.75,4.51694 C 57.456478,111.33987 58,112.57619 58,116.51094 c 0,5.72436 -2.149077,9.99946 -6.298549,12.52954 -4.136604,2.52224 -11.210345,2.55642 -15.281486,0.0738 z m 72.175885,-1.1643 c -12.668094,-11.12274 -0.72201,-30.043492 14.85849,-23.53355 9.06633,3.78816 10.71545,16.71522 2.99692,23.49218 C 123.44061,130.55203 122.14349,131 117.5,131 c -4.62761,0 -5.94395,-0.45089 -8.90415,-3.04998 z M 75.450423,93.6398 c -1.677267,-0.75609 -4.264767,-2.818881 -5.75,-4.58398 C 67.497677,86.438005 67,84.853474 67,80.458071 c 0,-4.580865 0.457125,-5.909116 3.049985,-8.862219 5.800518,-6.606425 14.125332,-7.125566 20.335986,-1.268166 8.682673,8.188815 3.996255,22.469791 -7.919482,24.133133 -2.386682,0.333162 -5.1811,0.0062 -7.016066,-0.821019 z M 37.24086,56.005402 c -12.34098,-7.524387 -7.683296,-25.989282 6.5588,-26.001664 8.610865,-0.0075 14.189716,5.560729 14.196602,14.169537 0.0083,10.410004 -11.927711,17.214436 -20.755402,11.832127 z m 74.17433,0.573186 C 101.96799,52.465275 100.49393,40.163571 108.59585,33.049985 111.55605,30.450893 112.87239,30 117.5,30 c 4.64349,0 5.94061,0.447967 8.95126,3.091347 12.3399,10.834579 0.0382,30.050581 -15.03607,23.487241 z"
     style="fill:#000000" />
</svg>
