<?xml version="1.0" encoding="UTF-8" standalone="no"?>
<!-- Created with Inkscape (http://www.inkscape.org/) -->

<svg
   xmlns:dc="http://purl.org/dc/elements/1.1/"
   xmlns:cc="http://creativecommons.org/ns#"
   xmlns:rdf="http://www.w3.org/1999/02/22-rdf-syntax-ns#"
   xmlns:svg="http://www.w3.org/2000/svg"
   xmlns="http://www.w3.org/2000/svg"
   xmlns:sodipodi="http://sodipodi.sourceforge.net/DTD/sodipodi-0.dtd"
   xmlns:inkscape="http://www.inkscape.org/namespaces/inkscape"
   id="svg3039"
   version="1.1"
   inkscape:version="0.48.4 r9939"
   width="159"
   height="162"
   sodipodi:docname="dice-1.png">
  <metadata
     id="metadata3045">
    <rdf:RDF>
      <cc:Work
         rdf:about="">
        <dc:format>image/svg+xml</dc:format>
        <dc:type
           rdf:resource="http://purl.org/dc/dcmitype/StillImage" />
        <dc:title></dc:title>
      </cc:Work>
    </rdf:RDF>
  </metadata>
  <defs
     id="defs3043" />
  <sodipodi:namedview
     pagecolor="#ffffff"
     bordercolor="#666666"
     borderopacity="1"
     objecttolerance="10"
     gridtolerance="10"
     guidetolerance="10"
     inkscape:pageopacity="0"
     inkscape:pageshadow="2"
     inkscape:window-width="640"
     inkscape:window-height="480"
     id="namedview3041"
     showgrid="false"
     inkscape:zoom="1.4567901"
     inkscape:cx="79.5"
     inkscape:cy="81"
     inkscape:window-x="75"
     inkscape:window-y="34"
     inkscape:window-maximized="0"
     inkscape:current-layer="svg3039" />
  <path
     inkscape:connector-curvature="0"
     id="path3053"
     d="M 40.320516,157.09998 C 22.173112,152.70745 6.5434288,136.90859 2.2262236,118.59337 0.04599183,109.344 0.04599183,52.028879 2.2262236,42.779508 6.6011241,24.21952 22.21952,8.6011244 40.779508,4.2262239 c 7.948,-1.8734769 65.587042,-2.2115748 74.107712,-0.4346996 7.08836,1.4781857 16.34078,5.941702 22.52746,10.8676147 6.26899,4.991443 13.42818,15.435449 16.4703,24.027301 2.23666,6.316989 2.30146,7.499524 2.30146,42 0,34.50048 -0.0648,35.68301 -2.30146,42 -3.04212,8.59185 -10.20131,19.03586 -16.4703,24.0273 -6.18668,4.92591 -15.4391,9.38943 -22.52746,10.86762 -8.16005,1.70167 -67.120138,1.32104 -74.566704,-0.48138 z"
     style="fill:#ffffff" />
  <path
     inkscape:connector-curvature="0"
     id="path3051"
     d="M 40.320516,157.09998 C 22.173112,152.70745 6.5434288,136.90859 2.2262236,118.59337 0.04599183,109.344 0.04599183,52.028879 2.2262236,42.779508 6.6011241,24.21952 22.21952,8.6011244 40.779508,4.2262239 c 7.948,-1.8734769 65.587042,-2.2115748 74.107712,-0.4346996 7.08836,1.4781857 16.34078,5.941702 22.52746,10.8676147 6.26899,4.991443 13.42818,15.435449 16.4703,24.027301 2.23666,6.316989 2.30146,7.499524 2.30146,42 0,34.50048 -0.0648,35.68301 -2.30146,42 -3.04212,8.59185 -10.20131,19.03586 -16.4703,24.0273 -6.18668,4.92591 -15.4391,9.38943 -22.52746,10.86762 -8.16005,1.70167 -67.120138,1.32104 -74.566704,-0.48138 z m 74.272854,-2.95332 c 19.1295,-4.50915 33.44699,-19.35163 37.58215,-38.96022 2.09208,-9.92048 2.09208,-59.079523 0,-69 C 148.04036,26.577853 133.72287,11.735368 114.59337,7.2262239 105.38627,5.0559549 51.99396,5.0542124 42.789553,7.2238806 23.853343,11.687535 9.6771126,25.903261 5.1920092,44.926172 c -2.1145771,8.968671 -2.1145771,62.551868 0,71.520538 4.4307636,18.79244 18.6118458,33.17068 37.1393768,37.65574 8.688759,2.10333 63.384434,2.13679 72.261984,0.0442 z M 71.894975,93.074146 C 59.875129,86.947568 61.859797,69.419219 74.943013,66.15424 c 9.786781,-2.442337 19.408412,7.6352 16.742463,17.535779 -2.251151,8.360138 -12.378303,13.162163 -19.790501,9.384127 z"
     style="fill:#000000" />
</svg>
