<?xml version="1.0" encoding="UTF-8" standalone="no"?>
<!-- Created with Inkscape (http://www.inkscape.org/) -->

<svg
   xmlns:dc="http://purl.org/dc/elements/1.1/"
   xmlns:cc="http://creativecommons.org/ns#"
   xmlns:rdf="http://www.w3.org/1999/02/22-rdf-syntax-ns#"
   xmlns:svg="http://www.w3.org/2000/svg"
   xmlns="http://www.w3.org/2000/svg"
   xmlns:sodipodi="http://sodipodi.sourceforge.net/DTD/sodipodi-0.dtd"
   xmlns:inkscape="http://www.inkscape.org/namespaces/inkscape"
   id="svg3039"
   version="1.1"
   inkscape:version="0.48.4 r9939"
   width="330"
   height="330"
   sodipodi:docname="event_whenlight2.svg">
  <metadata
     id="metadata3045">
    <rdf:RDF>
      <cc:Work
         rdf:about="">
        <dc:format>image/svg+xml</dc:format>
        <dc:type
           rdf:resource="http://purl.org/dc/dcmitype/StillImage" />
        <dc:title />
      </cc:Work>
    </rdf:RDF>
  </metadata>
  <defs
     id="defs3043" />
  <sodipodi:namedview
     pagecolor="#ffffff"
     bordercolor="#666666"
     borderopacity="1"
     objecttolerance="10"
     gridtolerance="10"
     guidetolerance="10"
     inkscape:pageopacity="0"
     inkscape:pageshadow="2"
     inkscape:window-width="640"
     inkscape:window-height="480"
     id="namedview3041"
     showgrid="false"
     inkscape:zoom="0.70412321"
     inkscape:cx="180.4963"
     inkscape:cy="129.94265"
     inkscape:window-x="726"
     inkscape:window-y="260"
     inkscape:window-maximized="0"
     inkscape:current-layer="svg3039"
     fit-margin-top="0"
     fit-margin-left="0"
     fit-margin-right="0"
     fit-margin-bottom="0" />
  <g
     id="g3039"
     transform="matrix(0.90079965,-0.0960395,0.08193577,1.0558555,-20.024268,2.0024)">
    <path
       transform="translate(-7.107073,79.397516)"
       d="m 238.00423,131.05296 c 0,40.21031 -43.16278,72.80721 -96.40677,72.80721 -53.243995,0 -96.406779,-32.5969 -96.406779,-72.80721 0,-40.210306 43.162784,-72.807202 96.406779,-72.807202 53.24399,0 96.40677,32.596896 96.40677,72.807202 z"
       sodipodi:ry="72.807205"
       sodipodi:rx="96.406776"
       sodipodi:cy="131.05296"
       sodipodi:cx="141.59746"
       id="path2989"
       style="fill:#ffffff"
       sodipodi:type="arc" />
    <path
       style="fill:#0256d0"
       d="M 114.47779,320.90901 C 75.796007,314.6221 43.387567,294.65737 21.620917,263.70594 12.479197,250.70673 7.8919671,238.52049 4.9547771,219.43142 c -2.77294,-18.02162 0.66502,-43.45056 8.0969599,-59.88916 10.14331,-22.43586 34.03737,-45.84358 59.38779,-58.17902 22.02421,-10.716911 37.115893,-13.925435 65.500003,-13.925435 28.38411,0 43.4758,3.208524 65.5,13.925435 26.39121,12.84189 50.74355,37.28678 60.50509,60.73505 6.34694,15.24602 7.31711,20.85897 7.31711,42.33313 0,16.71081 -0.30053,20.59786 -2.10112,27.17543 -5.11731,18.69367 -13.75408,33.18687 -29.48005,49.46991 -18.69031,19.35238 -42.6975,32.34331 -71.24103,38.5504 -12.17686,2.64799 -41.29972,3.3398 -53.96174,1.28185 z m 37.14208,-77.49674 c 9.29245,-1.16517 15.5138,-3.06328 16.13346,-4.92224 0.50981,-1.52945 -4.82146,-1.04547 -14.8138,1.34483 -7.55394,1.807 -17.7829,2.01177 -23.5,0.47045 -6.42352,-1.73176 -11.21664,-2.1414 -11.91097,-1.01794 -2.37117,3.83663 17.35519,6.22343 34.09131,4.1249 z M 71.737787,178.83369 c 0.33398,-2.32612 -2.14708,-4.92276 -3.75445,-3.92935 -1.17666,0.72721 -1.41466,4.82289 -0.34257,5.89498 1.31177,1.31177 3.7977,0.1191 4.09702,-1.96563 z m 139.701743,-4.90227 c 0,-3.3447 -2.81639,-4.72384 -3.89685,-1.90822 -0.97459,2.53974 0.32533,5.56864 2.23229,5.20139 1.10754,-0.21329 1.66456,-1.3153 1.66456,-3.29317 z"
       id="path3053"
       inkscape:connector-curvature="0" />
    <path
       style="fill:#05070c"
       d="M 125.4316,321.40414 C 84.903307,318.06449 48.882367,298.66547 25.212737,267.43142 16.828957,256.36834 11.671277,245.55823 7.7565471,230.8446 c -2.86606,-10.77215 -3.16964,-13.30197 -3.16964,-26.41318 0,-13.02321 0.31347,-15.67684 3.07788,-26.05489 6.2020999,-23.28368 14.8336099,-37.33789 33.6221999,-54.74517 17.40553,-16.12591 37.23971,-26.446361 64.152543,-33.380934 8.16649,-2.104241 11.1764,-2.319011 32.5,-2.319011 25.38472,0 29.84632,0.65567 49,7.200959 28.2325,9.647746 55.22621,30.789586 69.53699,54.462306 9.80034,16.21162 14.50938,33.55254 14.61971,53.83674 0.17728,32.59315 -10.38663,56.68601 -35.33784,80.59416 -17.82155,17.07654 -40.49345,28.93146 -65.95923,34.48944 -7.75978,1.6936 -29.6008,4.11773 -33.85963,3.75807 -0.825,-0.0697 -5.55357,-0.4607 -10.50793,-0.86895 z m 35.42605,-78.37307 c 5.80077,-1.61378 8.73785,-3.72925 7.64119,-5.50369 -0.9866,-1.59635 -6.72947,-1.34064 -11.12349,0.4953 -6.05866,2.53147 -21.02498,3.02206 -29.48265,0.96642 -7.46205,-1.81366 -11.95317,-1.48352 -11.95317,0.87866 0,1.45796 6.32621,4.18181 11.5,4.95151 5.90849,0.879 28.09897,-0.30841 33.41812,-1.7882 z M 82.860007,225.47199 c 5.72599,-2.92118 11.98431,-9.90773 14.87106,-16.6015 3.356533,-7.78305 4.143083,-21.74163 1.79163,-31.79516 -3.342,-14.28859 -11.92116,-26.74833 -21.64889,-31.44127 -9.59034,-4.62666 -21.87526,-1.73158 -29.32719,6.91129 -8.24095,9.55799 -11.04387,19.04991 -10.4221,35.29381 0.41175,10.7571 0.66073,11.8955 4.14243,18.94024 4.05969,8.21422 11.19048,15.58242 18.17258,18.7776 5.64497,2.58328 17.27665,2.53917 22.42048,-0.085 z m 139.992383,-6.63337 c 7.95364,-3.97904 10.36054,-6.8132 14.55725,-17.14135 2.1424,-5.27249 2.52807,-7.7991 2.51802,-16.49599 -0.0189,-16.3692 -4.25898,-28.15191 -13.43824,-37.34357 -10.44518,-10.45928 -23.14065,-11.09519 -33.60876,-1.68346 -6.10246,5.48664 -9.10661,10.5179 -11.96957,20.04629 -1.83685,6.11334 -2.12002,9.01685 -1.75552,18 0.54464,13.42264 3.65916,21.90846 10.6692,29.06929 9.94018,10.15399 20.33244,11.89994 33.02762,5.54879 z"
       id="path3051"
       inkscape:connector-curvature="0" />
  </g>
  <path
     style="fill:#e8a342;fill-opacity:1;stroke:#d7e3f4;stroke-width:6.03374386;stroke-linecap:round;stroke-linejoin:round;stroke-miterlimit:4;stroke-opacity:1;stroke-dasharray:6.03374364, 12.06748732;stroke-dashoffset:0"
     d="m 193.54483,139.87362 c 11.99641,-23.84777 26.84798,-50.756796 38.87658,-72.599669"
     id="path3904"
     inkscape:connector-curvature="0" />
  <path
     style="fill:none;stroke:#d7e3f4;stroke-width:7.24278736;stroke-linecap:round;stroke-linejoin:miter;stroke-miterlimit:4;stroke-opacity:1;stroke-dasharray:7.24278774, 14.48557546;stroke-dashoffset:0"
     d="M 81.698108,157.69411 C 124.38357,124.03053 176.11321,100.90992 221.29641,83.356611"
     id="path3908"
     inkscape:connector-curvature="0" />
  <g
     id="g3006"
     transform="matrix(2.977977,0,0,2.9326316,-341.61552,-237.52642)">
    <rect
       y="128.84366"
       x="196.9624"
       height="5.2374024"
       width="17.761625"
       id="rect3047"
       style="fill:#cccccc;stroke:#0700a9;stroke-width:0.63976544;stroke-opacity:1" />
    <path
       transform="matrix(0.63976545,0,0,0.63976545,-197.66447,-277.91797)"
       sodipodi:open="true"
       sodipodi:end="6.2616989"
       sodipodi:start="0"
       d="m 635.69493,654.12848 c 0,3.44008 -2.47002,6.22881 -5.51695,6.22881 -3.04693,0 -5.51695,-2.78873 -5.51695,-6.22881 0,-3.44008 2.47002,-6.22881 5.51695,-6.22881 3.00074,0 5.4512,2.70784 5.51567,6.09498"
       sodipodi:ry="6.2288136"
       sodipodi:rx="5.5169492"
       sodipodi:cy="654.12848"
       sodipodi:cx="630.17798"
       id="path3054"
       style="fill:#cccccc;stroke:#0700a9;stroke-opacity:1"
       sodipodi:type="arc" />
    <rect
       y="133.8533"
       x="198.78412"
       height="5.9205403"
       width="14.118215"
       id="rect3052"
       style="fill:#cccccc;stroke:#0700a9;stroke-width:0.63976544;stroke-opacity:1" />
    <path
       inkscape:connector-curvature="0"
       id="path3045"
       d="m 190.34525,117.04882 c -5.96334,-12.76703 -6.2397,-16.92737 -1.72228,-25.927548 4.56658,-9.098111 15.07223,-12.649857 24.90142,-8.418621 13.35053,5.747073 15.63619,16.421951 7.37343,34.436499 -4.95445,10.80172 -5.28768,11.04102 -15.25091,10.95268 -9.88367,-0.0876 -10.33753,-0.4152 -15.30166,-11.04301 z"
       style="fill:#ffffff;fill-opacity:1;stroke:#000080;stroke-width:0.63976544;stroke-opacity:1" />
  </g>
</svg>
