<?xml version="1.0" encoding="UTF-8" standalone="no"?>
<!-- Created with Inkscape (http://www.inkscape.org/) -->

<svg
   xmlns:dc="http://purl.org/dc/elements/1.1/"
   xmlns:cc="http://creativecommons.org/ns#"
   xmlns:rdf="http://www.w3.org/1999/02/22-rdf-syntax-ns#"
   xmlns:svg="http://www.w3.org/2000/svg"
   xmlns="http://www.w3.org/2000/svg"
   xmlns:sodipodi="http://sodipodi.sourceforge.net/DTD/sodipodi-0.dtd"
   xmlns:inkscape="http://www.inkscape.org/namespaces/inkscape"
   id="svg3039"
   version="1.1"
   inkscape:version="0.48.4 r9939"
   width="330"
   height="330"
   sodipodi:docname="event_whensee2.svg">
  <metadata
     id="metadata3045">
    <rdf:RDF>
      <cc:Work
         rdf:about="">
        <dc:format>image/svg+xml</dc:format>
        <dc:type
           rdf:resource="http://purl.org/dc/dcmitype/StillImage" />
        <dc:title />
      </cc:Work>
    </rdf:RDF>
  </metadata>
  <defs
     id="defs3043" />
  <sodipodi:namedview
     pagecolor="#ffffff"
     bordercolor="#666666"
     borderopacity="1"
     objecttolerance="10"
     gridtolerance="10"
     guidetolerance="10"
     inkscape:pageopacity="0"
     inkscape:pageshadow="2"
     inkscape:window-width="640"
     inkscape:window-height="480"
     id="namedview3041"
     showgrid="false"
     inkscape:zoom="0.70412321"
     inkscape:cx="180.4963"
     inkscape:cy="129.94265"
     inkscape:window-x="1620"
     inkscape:window-y="784"
     inkscape:window-maximized="0"
     inkscape:current-layer="svg3039"
     fit-margin-top="0"
     fit-margin-left="0"
     fit-margin-right="0"
     fit-margin-bottom="0" />
  <g
     id="g3039"
     transform="matrix(0.88495147,-0.09058498,0.08049424,0.99588873,-19.671972,20.630863)">
    <path
       transform="translate(-7.107073,79.397516)"
       d="m 238.00423,131.05296 c 0,40.21031 -43.16278,72.80721 -96.40677,72.80721 -53.243995,0 -96.406779,-32.5969 -96.406779,-72.80721 0,-40.210306 43.162784,-72.807202 96.406779,-72.807202 53.24399,0 96.40677,32.596896 96.40677,72.807202 z"
       sodipodi:ry="72.807205"
       sodipodi:rx="96.406776"
       sodipodi:cy="131.05296"
       sodipodi:cx="141.59746"
       id="path2989"
       style="fill:#ffffff"
       sodipodi:type="arc" />
    <path
       style="fill:#0256d0"
       d="M 114.47779,320.90901 C 75.796007,314.6221 43.387567,294.65737 21.620917,263.70594 12.479197,250.70673 7.8919671,238.52049 4.9547771,219.43142 c -2.77294,-18.02162 0.66502,-43.45056 8.0969599,-59.88916 10.14331,-22.43586 34.03737,-45.84358 59.38779,-58.17902 22.02421,-10.716911 37.115893,-13.925435 65.500003,-13.925435 28.38411,0 43.4758,3.208524 65.5,13.925435 26.39121,12.84189 50.74355,37.28678 60.50509,60.73505 6.34694,15.24602 7.31711,20.85897 7.31711,42.33313 0,16.71081 -0.30053,20.59786 -2.10112,27.17543 -5.11731,18.69367 -13.75408,33.18687 -29.48005,49.46991 -18.69031,19.35238 -42.6975,32.34331 -71.24103,38.5504 -12.17686,2.64799 -41.29972,3.3398 -53.96174,1.28185 z m 37.14208,-77.49674 c 9.29245,-1.16517 15.5138,-3.06328 16.13346,-4.92224 0.50981,-1.52945 -4.82146,-1.04547 -14.8138,1.34483 -7.55394,1.807 -17.7829,2.01177 -23.5,0.47045 -6.42352,-1.73176 -11.21664,-2.1414 -11.91097,-1.01794 -2.37117,3.83663 17.35519,6.22343 34.09131,4.1249 z M 71.737787,178.83369 c 0.33398,-2.32612 -2.14708,-4.92276 -3.75445,-3.92935 -1.17666,0.72721 -1.41466,4.82289 -0.34257,5.89498 1.31177,1.31177 3.7977,0.1191 4.09702,-1.96563 z m 139.701743,-4.90227 c 0,-3.3447 -2.81639,-4.72384 -3.89685,-1.90822 -0.97459,2.53974 0.32533,5.56864 2.23229,5.20139 1.10754,-0.21329 1.66456,-1.3153 1.66456,-3.29317 z"
       id="path3053"
       inkscape:connector-curvature="0" />
    <path
       style="fill:#05070c"
       d="M 125.4316,321.40414 C 84.903307,318.06449 48.882367,298.66547 25.212737,267.43142 16.828957,256.36834 11.671277,245.55823 7.7565471,230.8446 c -2.86606,-10.77215 -3.16964,-13.30197 -3.16964,-26.41318 0,-13.02321 0.31347,-15.67684 3.07788,-26.05489 6.2020999,-23.28368 14.8336099,-37.33789 33.6221999,-54.74517 17.40553,-16.12591 37.23971,-26.446361 64.152543,-33.380934 8.16649,-2.104241 11.1764,-2.319011 32.5,-2.319011 25.38472,0 29.84632,0.65567 49,7.200959 28.2325,9.647746 55.22621,30.789586 69.53699,54.462306 9.80034,16.21162 14.50938,33.55254 14.61971,53.83674 0.17728,32.59315 -10.38663,56.68601 -35.33784,80.59416 -17.82155,17.07654 -40.49345,28.93146 -65.95923,34.48944 -7.75978,1.6936 -29.6008,4.11773 -33.85963,3.75807 -0.825,-0.0697 -5.55357,-0.4607 -10.50793,-0.86895 z m 35.42605,-78.37307 c 5.80077,-1.61378 8.73785,-3.72925 7.64119,-5.50369 -0.9866,-1.59635 -6.72947,-1.34064 -11.12349,0.4953 -6.05866,2.53147 -21.02498,3.02206 -29.48265,0.96642 -7.46205,-1.81366 -11.95317,-1.48352 -11.95317,0.87866 0,1.45796 6.32621,4.18181 11.5,4.95151 5.90849,0.879 28.09897,-0.30841 33.41812,-1.7882 z M 82.860007,225.47199 c 5.72599,-2.92118 11.98431,-9.90773 14.87106,-16.6015 3.356533,-7.78305 4.143083,-21.74163 1.79163,-31.79516 -3.342,-14.28859 -11.92116,-26.74833 -21.64889,-31.44127 -9.59034,-4.62666 -21.87526,-1.73158 -29.32719,6.91129 -8.24095,9.55799 -11.04387,19.04991 -10.4221,35.29381 0.41175,10.7571 0.66073,11.8955 4.14243,18.94024 4.05969,8.21422 11.19048,15.58242 18.17258,18.7776 5.64497,2.58328 17.27665,2.53917 22.42048,-0.085 z m 139.992383,-6.63337 c 7.95364,-3.97904 10.36054,-6.8132 14.55725,-17.14135 2.1424,-5.27249 2.52807,-7.7991 2.51802,-16.49599 -0.0189,-16.3692 -4.25898,-28.15191 -13.43824,-37.34357 -10.44518,-10.45928 -23.14065,-11.09519 -33.60876,-1.68346 -6.10246,5.48664 -9.10661,10.5179 -11.96957,20.04629 -1.83685,6.11334 -2.12002,9.01685 -1.75552,18 0.54464,13.42264 3.65916,21.90846 10.6692,29.06929 9.94018,10.15399 20.33244,11.89994 33.02762,5.54879 z"
       id="path3051"
       inkscape:connector-curvature="0" />
  </g>
  <g
     id="g4060"
     transform="matrix(1.8393797,0,0,1.8732979,-242.516,100.22794)">
    <path
       inkscape:connector-curvature="0"
       id="path4033"
       d="m 268.00617,-44.360204 c -0.75432,0.0235 -1.54412,0.247646 -2.38615,0.655266 -0.97631,0.472619 -1.87993,1.170384 -2.00289,1.557803 -0.13859,0.436632 2.49605,6.46126 6.92357,15.850022 3.9285,8.3306 7.03063,15.26079 6.89883,15.39258 -0.13178,0.13179 -0.89317,-0.13071 -1.69379,-0.58108 -1.33366,-0.75023 -2.05588,-2.02252 -8.58028,-15.12058 -3.91677,-7.863108 -7.44499,-14.639944 -7.83847,-15.058765 -1.97887,-2.1063 -6.4781,-1.709658 -8.46901,0.741811 -1.14128,1.405291 -0.50265,3.140713 7.01011,19.015084 4.13436,8.73585 7.51702,16.03736 7.51702,16.23329 0,0.55793 -0.6249,0.4263 -2.1018,-0.44508 -1.21797,-0.71861 -1.98718,-2.13238 -7.24502,-13.3526 -8.05303,-17.185151 -7.68463,-16.490175 -8.85228,-16.61656 -1.42582,-0.154328 -3.31349,1.173636 -4.12941,2.893063 -1.33424,2.811707 -0.87983,4.340627 5.65013,18.804907 3.296,7.30086 5.9963,13.48313999 5.9963,13.74821999 0,0.8018 -3.16381,-1.04042999 -3.82032,-2.22542999 -0.32402,-0.58483 -2.79286,-5.78117 -5.4894,-11.54751 -2.69654,-5.76635 -5.17529,-10.656 -5.50177,-10.86754 -0.42483,-0.27527 -0.90492,-0.15173 -1.6938,0.43272 -1.8891,1.39959 -2.8807,3.22954 -2.8807,5.31631 0,1.63019 0.75959,3.41761 5.53885,13.06824 3.04331,6.14523999 6.54318,13.76319 7.77665,16.93802 2.84434,7.32099 4.70216,11.06186 7.0843,14.2304 1.91625,2.54885 5.08165,5.34359 6.89884,6.09521 3.49083,1.44387 8.83916,1.81194 13.13006,0.90254 5.7139,-1.21099 10.34006,-3.70513 15.0093,-8.07337 3.87025,-3.62076 6.46178,-7.47338 7.98683,-11.88134 1.07425,-3.10497 1.2122,-4.06599 1.48363,-10.73154 0.32896,-8.07858 0.81669,-10.38103 3.88214,-18.07545 3.13619,-7.872 3.38153,-9.99899 1.31053,-11.63407 -0.83734,-0.66109 -1.45551,-0.79544 -2.93016,-0.65526 -4.37928,0.41628 -7.73194,5.37785 -9.84135,14.53949 -1.01868,4.42435 -1.85207,5.48382 -6.33012,8.08574 -4.31251,2.50574 -8.17588,6.39738999 -9.87845,9.95263 -1.09231,2.28093 -1.34047,3.35664 -1.54544,6.49084 -0.23074,3.52835 -0.283,3.68583 -0.76654,2.57161 -1.35877,-3.13108 -0.92058,-8.31302 1.05091,-12.38824001 1.43446,-2.96514999 5.89896,-7.44459999 9.08718,-9.11190999 1.35259,-0.70735 2.55556,-1.43363 2.67051,-1.61962 0.18781,-0.30387 -9.43808,-21.351528 -12.96932,-28.361902 -1.79301,-3.559565 -3.69626,-5.238415 -5.95922,-5.167949 z"
       style="fill:#f6f6f6;stroke:#999999;stroke-width:0.39563248" />
    <path
       style="fill:#202020"
       d="m 265.71713,35.451897 c -4.34203,-1.10472 -7.92312,-3.61838 -11.4254,-8.0198 -3.12186,-3.92334 -4.61927,-6.72728 -7.87644,-14.74886 -1.5325,-3.77416 -5.29086,-11.98189001 -8.3519,-18.23939 l -5.56553,-11.37726 0.14764,-2.92352 c 0.21176,-4.19349 1.52015,-6.05752 5.18296,-7.38396 1.01419,-0.36729 1.08857,-0.54895 1.09667,-2.67869 0.01,-2.545622 0.93091,-4.954648 2.41722,-6.321024 1.16865,-1.074352 3.54385,-2.095954 4.87305,-2.095954 0.74201,0 1.04635,-0.250922 1.1996,-0.989081 0.11295,-0.543995 0.30893,-1.478629 0.43551,-2.076964 0.12658,-0.598335 0.97851,-1.804939 1.89318,-2.681344 2.81045,-2.692888 6.59284,-3.28951 9.97531,-1.57347 2.29922,1.166467 2.66327,1.202489 3.38148,0.334591 0.84898,-1.025903 3.54992,-2.095903 5.29058,-2.095903 1.95614,0 4.4012,1.096096 5.82071,2.609374 0.91988,0.980646 10.61888,20.260195 13.96078,27.751055 0.60992,1.36714 1.30456,2.42123 1.54362,2.34241 0.23908,-0.0788 1.17597,-2.2261 2.08202,-4.77174 2.39466,-6.72815 4.81216,-10.11874 8.24347,-11.56165 2.12266,-0.892607 5.26314,-0.85994 7.14466,0.0743 3.97834,1.9754 4.1421,4.94882 0.84128,15.27482 -2.76246,8.64178 -3.43617,12.38493 -3.43617,19.09135 0,8.49699 -1.93043,14.14349 -6.82506,19.96325 -4.42322,5.25927 -11.20938,9.57168 -18.09978,11.50191 -3.92229,1.09876 -10.81497,1.39303 -13.94946,0.59554 z m 10.06668,-3.54459 c 5.7139,-1.211 10.33827,-3.69583 15.00751,-8.06408 3.87025,-3.62076 6.46361,-7.47992 7.98866,-11.88788 1.07424,-3.10497 1.2062,-4.06312 1.47763,-10.72866 0.32896,-8.07858 0.8256,-10.38634 3.89105,-18.08076 3.13619,-7.872 3.37357,-9.99069 1.30257,-11.62577 -0.83733,-0.66109 -1.44554,-0.79812 -2.92019,-0.65795 -4.37929,0.41628 -7.74207,5.38007 -9.85149,14.54171 -1.01868,4.42435 -1.84229,5.47715 -6.32034,8.07906 -4.31251,2.50574 -8.17589,6.39859999 -9.87845,9.95384 -1.09231,2.28093 -1.35072,3.35958 -1.55568,6.49378 -0.23074,3.52835 -0.27734,3.68583 -0.76087,2.57161 -1.35877,-3.13108 -0.9179,-8.31636 1.05358,-12.39158001 1.43447,-2.96514999 5.89583,-7.43594999 9.08404,-9.10325999 1.3526,-0.70736 2.55332,-1.43828 2.66827,-1.62427 0.1878,-0.30387 -9.43171,-21.347875 -12.96295,-28.358249 -2.39068,-4.746086 -4.98612,-6.150253 -8.35424,-4.519772 -0.9763,0.472618 -1.87569,1.176287 -1.99866,1.563706 -0.13858,0.436631 2.49166,6.462162 6.91916,15.850925 3.92851,8.3306 7.0349,15.25435 6.90312,15.38615 -0.13179,0.13178 -0.89467,-0.12889 -1.6953,-0.57926 -1.33366,-0.75022 -2.05267,-2.01734 -8.57707,-15.11541 -3.91676,-7.863108 -7.44332,-14.639224 -7.8368,-15.058045 -1.97887,-2.106299 -6.47954,-1.714968 -8.47045,0.736502 -1.14129,1.40529 -0.50287,3.136685 7.00989,19.011063 4.13436,8.73584 7.51701,16.04367 7.51701,16.23961 0,0.55792 -0.63133,0.42392 -2.10822,-0.44747 -1.21797,-0.71861 -1.98482,-2.13238 -7.24265,-13.35259 -8.05303,-17.185157 -7.68058,-16.48588 -8.84822,-16.612265 -1.42582,-0.154329 -3.31544,1.164936 -4.13136,2.884362 -1.33424,2.811703 -0.87431,4.341003 5.65565,18.805283 3.296,7.30086 5.99273,13.49117999 5.99273,13.75625999 0,0.80179 -3.16276,-1.04427999 -3.81926,-2.22926999 -0.32402,-0.58484 -2.79538,-5.78127 -5.49192,-11.54761 -2.69654,-5.76634 -5.16991,-10.65733 -5.49638,-10.86888 -0.42484,-0.27526 -0.90696,-0.15244 -1.69584,0.43202 -1.8891,1.39958 -2.88259,3.23309 -2.88259,5.31987 0,1.63018 0.75401,3.40991 5.53327,13.06054 3.04331,6.14524999 6.54249,13.77075 7.77596,16.94557 2.84434,7.32099 4.70418,11.0537 7.08632,14.22224 1.91625,2.54885 5.07932,5.3451 6.8965,6.09672 3.49083,1.44386 8.84511,1.81161 13.13601,0.90221 z m -39.43898,-9.86731 c -2.31547,-0.72852 -3.28963,-1.3271 -5.45289,-3.35057 -2.03015,-1.89897 -3.44884,-4.19831 -3.44884,-5.5897 0,-0.67646 0.50951,-0.38398 2.93236,1.68331 3.35422,2.86198 6.21517,4.38767 10.6788,5.69483 1.7198,0.50364 3.22795,1.01673 3.35142,1.14022 0.97352,0.97352 -5.26915,1.30026 -8.06085,0.42191 z m 5.4056,-6.76993 c -1.21402,-0.56517 -3.16806,-2.03958 -4.59753,-3.46906 -3.81095,-3.81094 -5.73923,-8.24496 -5.74878,-13.21909 -0.004,-2.22798 0.56824,-4.82682 0.97395,-4.42112 0.0909,0.0909 0.45625,1.58436 0.81194,3.31884 1.25891,6.13898 4.11533,11.30337 8.75657,15.83178 3.38377,3.30152 3.3528,3.61078 -0.19615,1.95865 z m 47.2584,-35.83592 c -0.0984,-0.30838 -0.29073,-1.513 -0.42742,-2.67692 -0.67211,-5.72263 -3.43103,-11.379524 -7.87889,-16.154863 -1.4974,-1.607664 -2.60622,-3.039375 -2.46402,-3.181573 0.48537,-0.485374 3.8731,1.495772 6.00415,3.511234 4.46783,4.225486 6.26073,8.486442 6.04513,14.366642 -0.0818,2.23107 -0.33079,3.92795 -0.61851,4.21527 -0.37801,0.37749 -0.52003,0.36034 -0.66044,-0.0798 z m 3.68347,-5.58166 c -0.0165,-0.0672 -0.0756,-2.08064 -0.13116,-4.47421 -0.0886,-3.818214 -0.27623,-4.860188 -1.5297,-8.495801 -0.78579,-2.279112 -1.36514,-4.207409 -1.28744,-4.285107 0.35382,-0.353822 1.89033,0.89094 3.17246,2.570092 2.69271,3.526537 3.31786,9.000615 1.44675,12.668306 -0.71621,1.40389 -1.56837,2.4324 -1.67091,2.01672 z"
       id="path3998-3"
       inkscape:connector-curvature="0" />
  </g>
</svg>
