<?xml version="1.0" encoding="UTF-8" standalone="no"?>
<!-- Created with Inkscape (http://www.inkscape.org/) -->

<svg
   xmlns:dc="http://purl.org/dc/elements/1.1/"
   xmlns:cc="http://creativecommons.org/ns#"
   xmlns:rdf="http://www.w3.org/1999/02/22-rdf-syntax-ns#"
   xmlns:svg="http://www.w3.org/2000/svg"
   xmlns="http://www.w3.org/2000/svg"
   xmlns:sodipodi="http://sodipodi.sourceforge.net/DTD/sodipodi-0.dtd"
   xmlns:inkscape="http://www.inkscape.org/namespaces/inkscape"
   id="svg4334"
   version="1.1"
   inkscape:version="0.48.4 r9939"
   width="463.8978"
   height="461.92606"
   sodipodi:docname="touch sticker2.png">
  <metadata
     id="metadata4340">
    <rdf:RDF>
      <cc:Work
         rdf:about="">
        <dc:format>image/svg+xml</dc:format>
        <dc:type
           rdf:resource="http://purl.org/dc/dcmitype/StillImage" />
        <dc:title></dc:title>
      </cc:Work>
    </rdf:RDF>
  </metadata>
  <defs
     id="defs4338" />
  <sodipodi:namedview
     pagecolor="#ffffff"
     bordercolor="#666666"
     borderopacity="1"
     objecttolerance="10"
     gridtolerance="10"
     guidetolerance="10"
     inkscape:pageopacity="0"
     inkscape:pageshadow="2"
     inkscape:window-width="640"
     inkscape:window-height="480"
     id="namedview4336"
     showgrid="false"
     fit-margin-top="0"
     fit-margin-left="0"
     fit-margin-right="0"
     fit-margin-bottom="0"
     inkscape:zoom="0.48559671"
     inkscape:cx="232.44118"
     inkscape:cy="220.92606"
     inkscape:window-x="1145"
     inkscape:window-y="703"
     inkscape:window-maximized="0"
     inkscape:current-layer="svg4334" />
  <path
     inkscape:connector-curvature="0"
     id="path4368"
     d="m 239.44118,458.60321 c -5.26268,-2.50214 -7.74326,-5.0564 -30.57564,-31.48384 -6.8334,-7.90934 -17.59936,-20.32481 -23.92436,-27.58992 -6.325,-7.26511 -19.6,-22.5517 -29.5,-33.9702 -9.9,-11.41849 -23.175,-26.72005 -29.5,-34.00347 -6.325,-7.28341 -19.6,-22.58023 -29.499998,-33.99293 -9.9,-11.4127 -23.175,-26.7127 -29.5,-34 C 0.66555229,187.20391 3.0325962,190.02921 1.7492455,185.75 c -2.12863891,-7.09774 -0.078842,-10.57746 21.1346285,-35.878 3.05652,-3.6454 8.707308,-10.57134 12.557308,-15.39097 3.85,-4.81964 9.7,-12.02613 13,-16.01442 3.3,-3.98829 9.15,-11.18829 13,-16 3.85,-4.811707 9.7,-12.011707 13,-15.999997 3.3,-3.988289 9.15,-11.188289 13,-16 3.85,-4.81171 9.7,-12.01171 12.999998,-16 3.3,-3.988289 9.15,-11.188289 13,-16 3.85,-4.81171 9.7,-12.001509 13,-15.97733 3.3,-3.975821 7.95401,-9.730129 10.34224,-12.787352 C 141.03224,4.2629321 146.34093,1 150.94118,1 c 4.25325,0 10.25584,3.3767836 13.34735,7.508606 2.92929,3.915027 9.19992,11.387505 40.27259,47.991394 6.53645,7.7 13.68347,16.248411 15.88226,18.996469 2.19879,2.748058 6.6978,8.154726 9.9978,12.014819 12.61995,14.761872 38.8727,45.923772 54,64.097772 4.95,5.94694 12.8879,15.3441 17.63978,20.88256 9.57472,11.15963 6.22332,9.19819 34.99916,20.48356 5.30142,2.07912 17.22642,7.75686 26.5,12.61719 25.18981,13.20212 40.10594,20.37015 61.32525,29.47021 10.5301,4.51592 20.52913,9.16175 22.22007,10.32409 4.80668,3.30407 8.6527,9.52277 10.27469,16.61333 0.8178,3.575 2.39909,10.40473 3.51398,15.17719 1.11489,4.77245 2.02707,11.8371 2.02707,15.69923 0,9.13995 -3.31201,26.11768 -7.18081,36.80963 -3.31753,9.16845 -5.61116,11.58685 -16.03328,16.90553 -2.59276,1.32315 -5.1876,3.29047 -5.76632,4.37182 -0.57872,1.08135 -2.83007,2.49875 -5.003,3.14977 -5.46183,1.63641 -10.0937,-0.24333 -27.5363,-11.17498 C 386.38683,333.51566 375.19074,327 374.03431,327 c -0.39311,0 -4.96238,4.79929 -10.15393,10.66508 -5.19156,5.8658 -16.4142,18.39917 -24.9392,27.85195 -8.525,9.45278 -22.025,24.52296 -30,33.48929 -7.975,8.96633 -19.225,21.54079 -25,27.94324 -5.775,6.40245 -14.325,15.99903 -19,21.32573 -11.49847,13.10138 -15.90928,14.88783 -25.5,10.32792 z M 250.59392,453.25 c 2.6323,-1.47572 37.47715,-39.8661 105.77942,-116.54264 7.73731,-8.68595 15.07232,-16.04522 16.30002,-16.35394 1.6552,-0.41621 6.56638,2.09414 19,9.71185 32.8048,20.09852 35.45478,21.30682 37.08197,16.9081 0.41233,-1.11465 4.31993,-4.16896 8.68355,-6.78737 4.80616,-2.88395 8.65729,-5.99944 9.76897,-7.9029 2.82342,-4.83436 7.62346,-25.29439 8.34612,-35.57506 0.52837,-7.51672 0.27228,-10.69323 -1.38772,-17.21292 -1.11962,-4.39731 -2.34674,-10.02012 -2.72694,-12.49512 -0.68923,-4.48668 -6.26953,-15.81072 -8.71168,-17.6785 -0.70755,-0.54114 -9.61145,-4.51337 -19.78645,-8.82717 -10.175,-4.3138 -30.26818,-13.80034 -44.65151,-21.08119 -28.24823,-14.29928 -49.69406,-24.23293 -63.67071,-29.4921 l -8.82222,-3.31965 -70.67778,-84.00614 C 196.24618,56.391865 162.76142,16.489353 160.70838,13.922996 158.65535,11.356639 155.6375,8.70264 154.00206,8.025219 148.29934,5.6630726 146.18528,7.7880331 110.75036,51.5 92.470294,74.05 61.860022,111.76029 42.72753,135.30064 10.911212,174.447 7.941182,178.41902 7.941182,181.8228 c 0,4.35609 -0.951544,3.10623 26.019851,34.1772 62.067909,71.50204 84.222297,97.0463 137.899857,159 66.79212,77.0903 66.46256,76.72342 70.58029,78.57369 3.92731,1.76471 4.46573,1.74333 8.15274,-0.32369 z m 33.84726,-205.08523 c -11.74196,-10.03207 -25.46059,-24.87853 -29.78208,-32.23048 -4.71737,-8.02544 -8.42714,-19.58126 -7.01198,-21.84211 0.54814,-0.8757 2.6564,-1.73291 4.68503,-1.90491 3.81381,-0.32337 38.58442,5.87391 45.3066,8.07513 3.79309,1.24208 3.80448,1.26233 4.63553,8.24137 0.96037,8.06504 -0.51095,22.5462 -3.30169,32.49623 -1.0027,3.575 -2.11535,8.1875 -2.47256,10.25 -0.45253,2.61286 -1.1664,3.74997 -2.35416,3.7499 -0.93758,-6e-5 -5.30469,-3.07587 -9.70469,-6.83513 z"
     style="fill:#f1f0f0" />
  <path
     inkscape:connector-curvature="0"
     id="path4366"
     d="m 265.54415,346.40775 c -1.30955,-3.41263 -2.55431,-25.32834 -3.21802,-56.65775 -0.78164,-36.89544 -1.07479,-35.60022 6.57547,-29.05188 l 4.32043,3.69812 -0.70073,31.05188 c -0.665,29.46891 -1.77256,47.28383 -3.16528,50.9132 -0.8024,2.09102 -3.01693,2.11799 -3.81187,0.0464 z m -44.17507,-4.92607 c -2.36431,-5.65858 -3.54024,-29.4054 -3.21787,-64.98168 l 0.28997,-32 6,0 6,0 0.28623,24.5 c 0.35127,30.06674 -1.136,66.02973 -2.95636,71.48634 -1.7989,5.39229 -4.39609,5.79609 -6.40197,0.99534 z m 83.36147,-3.53975 c -0.94085,-0.54849 -2.17584,-2.6723 -2.74443,-4.71959 C 300.91846,329.37804 300.48428,282 301.51671,282 c 0.31654,0 3.69154,1.81985 7.5,4.04411 l 6.92447,4.04411 0,20.30667 c 0,12.24714 -0.43864,21.56494 -1.10518,23.477 -1.62762,4.66898 -6.0339,6.44364 -10.10545,4.07004 z M 168.09206,282.6818 c -3.2747,-3.94577 -3.65143,-11.78629 -3.56439,-74.1818 0.0947,-67.88534 0.25797,-70 5.4044,-70 1.7141,0 2.88497,0.84043 3.78393,2.71604 1.78761,3.72973 3.1729,36.82963 3.17169,75.78396 -0.001,38.10998 -1.14041,59.54049 -3.39711,63.90447 -1.705,3.29712 -3.61527,3.92602 -5.39852,1.77733 z m -56.74589,-47.78679 c -1.8077,-1.99748 -1.90499,-4.18564 -1.90499,-42.8463 0,-31.67801 0.28536,-41.08516 1.28276,-42.28695 2.22468,-2.68058 5.24605,-2.82386 7.70454,-0.36537 2.21329,2.21329 2.28209,2.92598 2.91377,30.18521 0.78714,33.96771 -0.16507,52.39515 -2.86138,55.37454 -2.36637,2.61481 -4.73135,2.59455 -7.1347,-0.0611 z m 107.8398,-5.05022 c -0.68463,-0.68463 -1.24479,-2.27979 -1.24479,-3.54479 0,-2.14577 0.40443,-2.3 6.03138,-2.3 6.42019,0 8.38077,1.52649 6.27533,4.88592 -1.26852,2.02407 -9.3005,2.72029 -11.06192,0.95887 z m 2.61524,-12.67855 c -2.96339,-2.64778 -3.20228,-3.36496 -3.6401,-10.92811 -0.69568,-12.01735 0.28223,-16.68132 4.46938,-21.316 1.94888,-2.15717 3.89701,-3.92213 4.32918,-3.92213 0.43218,0 0.15481,2.09652 -0.61636,4.65893 -2.18195,7.25006 -1.78164,18.06981 0.99166,26.80297 l 2.39379,7.5381 -2.37801,0 c -1.30791,0 -3.8052,-1.27519 -5.54954,-2.83376 z M 219.40387,167.25 c 1.73722,-9.50661 7.41539,-11.10959 9.12226,-2.57526 0.55698,2.78492 0.30482,3.09564 -3.7775,4.65469 -5.94641,2.27096 -6.12691,2.20073 -5.34476,-2.07943 z"
     style="fill:#9be2ee" />
  <path
     inkscape:connector-curvature="0"
     id="path4364"
     d="M 219.34554,402.25 C 8.536575,159.43787 28.941182,183.07045 28.941182,181.72402 c 0,-0.58004 3.507773,-5.36773 7.795051,-10.63932 C 41.023511,165.81312 68.304091,132.25 97.359742,96.5 126.4154,60.75 150.51591,31.372238 150.91644,31.216084 c 0.40053,-0.156153 2.48245,1.861025 4.62649,4.482619 2.14404,2.621594 24.48575,29.226415 49.64825,59.121825 25.1625,29.895412 45.75,54.718542 45.75,55.162522 0,0.44398 -2.8125,-0.086 -6.25,-1.17777 -8.00832,-2.54343 -20.6204,-3.39217 -27.90619,-1.87796 -9.97657,2.07343 -24.77134,14.02416 -29.87295,24.1304 -6.42065,12.71924 -6.41469,33.50456 0.0134,46.56176 3.99215,8.10922 12.46709,16.74342 20.78748,21.17815 5.47164,2.91635 6.80678,3.20237 14.94881,3.20237 7.55185,0 9.70466,-0.38766 13.86002,-2.49581 2.70571,-1.3727 5.31721,-2.4977 5.80331,-2.5 0.48611,-0.002 4.08829,3.03331 8.00483,6.74581 7.86443,7.4547 26.25343,21.55364 37.11134,28.45343 9.90511,6.29433 36.52196,21.37105 52.93461,29.98402 7.66403,4.0219 14.08049,7.77443 14.2588,8.33895 0.25539,0.80859 -39.14226,45.2704 -104.31502,117.7236 -1.85525,2.0625 -3.77188,3.75 -4.25916,3.75 -0.48729,0 -12.50898,-13.3875 -26.71487,-29.75 z m 50.01048,-55.88868 c 1.39272,-3.62937 2.50028,-21.44429 3.16528,-50.9132 l 0.70073,-31.05188 -4.32043,-3.69812 c -7.65026,-6.54834 -7.35711,-7.84356 -6.57547,29.05188 0.66371,31.32941 1.90847,53.24512 3.21802,56.65775 0.79494,2.07156 3.00947,2.04459 3.81187,-0.0464 z m -41.58497,-5.87498 c 1.82036,-5.45661 3.30763,-41.4196 2.95636,-71.48634 l -0.28623,-24.5 -6,0 -6,0 -0.28997,32 c -0.32237,35.57628 0.85356,59.3231 3.21787,64.98168 2.00588,4.80075 4.60307,4.39695 6.40197,-0.99534 z m 84.13069,-2.46523 c 3.32977,-1.78204 4.03944,-6.63556 4.03944,-27.62622 l 0,-20.30667 -6.92447,-4.04411 c -3.80846,-2.22426 -7.18346,-4.04411 -7.5,-4.04411 -1.03243,0 -0.59825,47.37804 0.46941,51.22234 1.4502,5.2217 5.48066,7.17229 9.91562,4.79877 z M 173.49058,280.90447 c 2.2567,-4.36398 3.39593,-25.79449 3.39711,-63.90447 0.001,-38.95433 -1.38408,-72.05423 -3.17169,-75.78396 -0.89896,-1.87561 -2.06983,-2.71604 -3.78393,-2.71604 -5.14643,0 -5.30969,2.11466 -5.4044,70 -0.0657,47.09217 0.22091,63.30607 1.19194,67.4318 2.0448,8.68794 4.9037,10.51736 7.77097,4.97267 z m -55.00971,-45.94833 c 2.69631,-2.97939 3.64852,-21.40683 2.86138,-55.37454 -0.63168,-27.25923 -0.70048,-27.97192 -2.91377,-30.18521 -2.45849,-2.45849 -5.47986,-2.31521 -7.70454,0.36537 -0.9974,1.20179 -1.28276,10.60894 -1.28276,42.28695 0,38.66066 0.0973,40.84882 1.90499,42.8463 2.40335,2.65568 4.76833,2.67594 7.1347,0.0611 z m 94.96031,-5.41164 c -9.27813,-4.84306 -11.55703,-7.20714 -15.9297,-16.52516 -4.14946,-8.84235 -6.1539,-18.64194 -5.1637,-25.24507 1.49777,-9.98783 12.82888,-22.9998 25.32505,-29.08177 5.22003,-2.54063 6.57632,-2.77232 14.26835,-2.4375 7.22042,0.31429 9.51162,0.87654 15.21999,3.73491 6.96385,3.48704 17.15847,11.58871 16.31,12.96156 -0.26642,0.43108 -2.85716,0.34853 -5.7572,-0.18344 -2.90003,-0.53197 -7.58506,-0.69938 -10.41116,-0.37201 -3.60444,0.41752 -6.2866,0.11545 -8.98472,-1.0119 -10.67327,-4.45957 -25.4507,3.74878 -32.61387,18.11588 -4.11151,8.24642 -2.82882,19.20766 3.00308,25.66289 4.32784,4.79039 8.03876,6.83711 12.39645,6.83711 l 3.26188,0 -3.1516,-2.75 c -9.66117,-8.43006 -9.90683,-22.59704 -0.60694,-35.00105 2.48888,-3.31962 8.04911,-6.86726 9.10624,-5.81013 0.32247,0.32246 -0.24072,2.26814 -1.25153,4.32374 -1.18351,2.4068 -2.00172,6.82746 -2.29815,12.41656 -0.54864,10.34419 1.66006,18.94996 7.2356,28.19203 1.94806,3.22914 3.54193,6.21849 3.54193,6.64302 0,1.20558 -2.24554,1.79081 -9.64773,2.5144 -6.54905,0.64019 -7.16203,0.50814 -13.85227,-2.98407 z m 16.80671,-0.65858 C 232.35333,225.52649 230.39275,224 223.97256,224 c -5.62695,0 -6.03138,0.15423 -6.03138,2.3 0,1.265 0.56016,2.86016 1.24479,3.54479 1.76142,1.76142 9.7934,1.0652 11.06192,-0.95887 z m -2.91292,-16.42402 c -2.7733,-8.73316 -3.17361,-19.55291 -0.99166,-26.80297 0.77117,-2.56241 1.04854,-4.65893 0.61636,-4.65893 -0.43217,0 -2.3803,1.76496 -4.32918,3.92213 -4.18715,4.63468 -5.16506,9.29865 -4.46938,21.316 0.43782,7.56315 0.67671,8.28033 3.6401,10.92811 1.74434,1.55857 4.24163,2.83376 5.54954,2.83376 l 2.37801,0 -2.39379,-7.5381 z m -2.58634,-43.13247 c 4.08232,-1.55905 4.33448,-1.86977 3.7775,-4.65469 -1.70687,-8.53433 -7.38504,-6.93135 -9.12226,2.57526 -0.78215,4.28016 -0.60165,4.35039 5.34476,2.07943 z m 43.76398,5.09914 C 266.78848,172.70444 266.39794,170 267.87309,170 c 0.51254,0 1.89319,1.35 3.06809,3 1.69388,2.37883 1.82629,3 0.63952,3 -0.82316,0 -2.20381,-0.70714 -3.06809,-1.57143 z"
     style="fill:#92d9e8" />
  <path
     inkscape:connector-curvature="0"
     id="path4362"
     d="m 238.36556,459.98099 c -4.2564,-2.10693 -9.80227,-7.90008 -30.50159,-31.86162 -6.83253,-7.90934 -17.59779,-20.32481 -23.92279,-27.58992 -6.325,-7.26511 -19.6,-22.5517 -29.5,-33.9702 -9.9,-11.41849 -23.175,-26.72005 -29.5,-34.00347 -6.325,-7.28341 -19.6,-22.58023 -29.499998,-33.99293 -9.9,-11.4127 -23.175,-26.7127 -29.5,-34 C 2.7965742,191.8113 3.046432,192.10421 1.3727012,188.86757 -0.44456951,185.35336 -0.46011801,178.29277 1.3418083,174.83911 2.6538962,172.3243 9.364885,163.8455 21.894822,148.872 c 3.050498,-3.6454 8.69636,-10.57134 12.54636,-15.39097 3.85,-4.81964 9.7,-12.02613 13,-16.01442 3.3,-3.98829 9.15,-11.18829 13,-16 3.85,-4.811707 9.7,-12.011707 13,-15.999997 3.3,-3.988289 9.15,-11.188289 13,-16 3.85,-4.81171 9.7,-12.01171 13,-16 3.299998,-3.988289 9.149998,-11.188289 12.999998,-16 3.85,-4.81171 9.7,-12.001509 13,-15.97733 3.3,-3.975821 7.95488,-9.731217 10.34417,-12.789769 C 140.71693,2.3865539 144.87466,0 150.94118,0 c 5.76784,0 10.63864,2.5531498 14.3613,7.5278319 2.91644,3.8973041 9.20108,11.3860831 40.25864,47.9721681 6.53645,7.7 13.68347,16.248411 15.88226,18.996469 2.19879,2.748058 6.6978,8.154726 9.9978,12.014819 12.84358,15.023462 40.11643,47.396132 53.5,63.504112 4.675,5.62667 12.55,14.94003 17.5,20.69637 8.82766,10.26566 9.16276,10.52949 17.5,13.77769 4.675,1.82139 13.12074,5.12342 18.76832,7.33784 5.64758,2.21443 16.22258,7.23423 23.5,11.15511 19.23047,10.36087 41.53261,21.08964 63.56199,30.57741 10.63167,4.57892 20.81412,9.45707 22.62767,10.84033 4.8682,3.71316 9.29053,11.02791 10.54605,17.44366 0.60878,3.1109 1.98192,9.33592 3.05142,13.83338 2.67707,11.25758 2.52767,23.8993 -0.4529,38.32281 -4.44007,21.48626 -7.08047,25.90914 -19.92845,33.3818 -3.67075,2.135 -6.6741,4.26094 -6.6741,4.72432 0,1.55407 -5.8625,3.8941 -9.70034,3.87192 -5.00779,-0.029 -9.14306,-2.01509 -25.29966,-12.15127 -7.425,-4.65823 -16.2649,-10.08286 -19.64422,-12.05474 l -6.14423,-3.58524 -9.35577,10.578 c -5.14568,5.8179 -14.08078,15.80504 -19.85578,22.19364 -5.775,6.3886 -13.65,15.15797 -17.5,19.4875 -3.85,4.32953 -11.725,13.13167 -17.5,19.56031 -10.59188,11.79072 -35.55239,39.75427 -46.3378,51.91275 -3.21079,3.61956 -7.25377,7.36851 -8.9844,8.33101 -4.19654,2.33393 -11.23013,2.21752 -16.25342,-0.26901 z m 14.30538,-0.50089 c 2.52631,-1.01842 6.57469,-4.71529 12.27024,-11.20481 4.675,-5.3267 13.225,-14.92328 19,-21.32573 5.775,-6.40245 17.025,-18.97691 25,-27.94324 7.975,-8.96633 21.475,-24.03651 30,-33.48929 8.525,-9.45278 19.74764,-21.98615 24.9392,-27.85195 C 369.07193,331.79929 373.6412,327 374.03431,327 c 1.15643,0 12.35252,6.51566 27.38716,15.93819 17.4426,10.93165 22.07447,12.81139 27.5363,11.17498 2.17293,-0.65102 4.42428,-2.06842 5.003,-3.14977 0.57872,-1.08135 3.17356,-3.04867 5.76632,-4.37182 10.42212,-5.31868 12.71575,-7.73708 16.03328,-16.90553 3.8688,-10.69195 7.18081,-27.66968 7.18081,-36.80963 0,-3.86213 -0.91218,-10.92678 -2.02707,-15.69923 -1.11489,-4.77246 -2.69618,-11.60219 -3.51398,-15.17719 -1.62199,-7.09056 -5.46801,-13.30926 -10.27469,-16.61333 -1.69094,-1.16234 -11.68997,-5.80817 -22.22007,-10.32409 -21.21931,-9.10006 -36.13544,-16.26809 -61.32525,-29.47021 -9.27358,-4.86033 -21.19858,-10.53807 -26.5,-12.61719 -28.77584,-11.28537 -25.42444,-9.32393 -34.99916,-20.48356 -4.75188,-5.53846 -12.68978,-14.93562 -17.63978,-20.88256 -15.1273,-18.174 -41.38005,-49.3359 -54,-64.097772 -3.3,-3.860093 -7.79901,-9.266761 -9.9978,-12.014819 C 218.24459,72.748411 211.09757,64.2 204.56112,56.5 173.48845,19.896111 167.21782,12.423633 164.28853,8.508606 161.19702,4.3767836 155.19443,1 150.94118,1 c -4.60025,0 -9.90894,3.2629321 -14.15776,8.701931 -2.38823,3.057223 -7.04224,8.811531 -10.34224,12.787352 -3.3,3.975821 -9.15,11.16562 -13,15.97733 -3.85,4.811711 -9.7,12.011711 -13,16 -3.299998,3.98829 -9.149998,11.18829 -12.999998,16 -3.85,4.811711 -9.7,12.011711 -13,16 -3.3,3.98829 -9.15,11.18829 -13,15.999997 -3.85,4.81171 -9.7,12.01171 -13,16 -3.3,3.98829 -9.15,11.19478 -13,16.01442 -3.85,4.81963 -9.500788,11.74557 -12.557308,15.39097 -21.2134705,25.30054 -23.26326741,28.78026 -21.1346285,35.878 1.2833507,4.27921 -1.08369321,1.45391 65.1919365,77.81285 6.325,7.2873 19.6,22.5873 29.5,34 9.899998,11.4127 23.174998,26.70952 29.499998,33.99293 6.325,7.28342 19.6,22.58498 29.5,34.00347 9.9,11.4185 23.175,26.70509 29.5,33.9702 6.325,7.26511 17.09096,19.68058 23.92436,27.58992 22.83238,26.42744 25.31296,28.9817 30.57564,31.48384 5.86094,2.78659 8.12101,2.93639 13.22976,0.87689 z m -6.91726,-5.16321 c 0.72187,-0.28887 1.58437,-0.25335 1.91667,0.0789 0.33229,0.33229 -0.25834,0.56864 -1.3125,0.52522 -1.16495,-0.048 -1.4019,-0.28494 -0.60417,-0.60416 z m 6.05718,-2.86069 c 1.66273,-1.39909 29.21667,-31.77409 61.23098,-67.5 57.82699,-64.53119 61.03596,-67.78023 63.31006,-64.10066 0.29082,0.47055 -0.5122,0.65656 -1.78447,0.41334 -2.92982,-0.56007 -4.24489,0.65262 -20.31247,18.73112 -44.03814,49.54969 -99.91917,111.75993 -101.70808,113.22776 -1.15814,0.95027 -2.47773,1.73777 -2.93243,1.75 -0.45469,0.0122 0.53369,-1.12247 2.19641,-2.52156 z M 235.78672,448.25 C 233.26812,445.6375 204.50087,412.675 171.85949,375 118.1876,313.05137 96.126242,287.61413 33.961033,216 9.628477,187.96897 7.941182,185.89633 7.941182,184.03776 c 0,-0.82861 0.7875,-0.0664 1.75,1.6938 1.430755,2.61652 143.632858,167.15098 213.476378,247.00212 C 232.91707,443.88015 240.77515,453 240.62997,453 c -0.14519,0 -2.32465,-2.1375 -4.84325,-4.75 z M 421.94118,348.01303 c -1.02934,-0.65627 -0.32335,-0.7673 2.25,-0.35385 3.25485,0.52295 3.75,0.3456 3.75,-1.34313 0,-1.27821 1.28637,-2.53106 3.75,-3.65227 2.91636,-1.32724 3.31848,-1.36842 1.80887,-0.18521 -1.06762,0.83679 -2.31626,1.52143 -2.77475,1.52143 -0.45849,0 -1.26135,1.125 -1.78412,2.5 -1.00195,2.63532 -4.16678,3.31939 -7,1.51303 z m -6.55887,-3.5682 c -1.86402,-1.49339 -1.85176,-1.51185 0.30887,-0.46481 1.2375,0.59969 2.25,1.29951 2.25,1.55516 0,0.76522 -0.51861,0.54424 -2.55887,-1.09035 z m -6.19113,-3.55988 c -3.40851,-2.18287 -4.51156,-3.64875 -1.5,-1.99341 2.29443,1.26116 5.88883,4.0407 5.25,4.05981 -0.275,0.008 -1.9625,-0.92165 -3.75,-2.0664 z m -8,-5 c -3.40851,-2.18287 -4.51156,-3.64875 -1.5,-1.99341 2.29443,1.26116 5.88883,4.0407 5.25,4.05981 -0.275,0.008 -1.9625,-0.92165 -3.75,-2.0664 z M 444.44118,335 c 0.99549,-1.1 2.03498,-2 2.30998,-2 0.275,0 -0.31449,0.9 -1.30998,2 -0.99549,1.1 -2.03498,2 -2.30998,2 -0.275,0 0.31449,-0.9 1.30998,-2 z m -56.77864,-7.39917 c -7.43009,-4.5068 -12.66762,-8.15228 -9.22136,-6.41835 3.2162,1.61818 18.5,11.02361 18.5,11.38464 0,0.6654 0.0511,0.69275 -9.27864,-4.96629 z m 65.35759,-17.18416 c 0.048,-1.16495 0.28494,-1.4019 0.60416,-0.60417 0.28887,0.72187 0.25335,1.58438 -0.0789,1.91667 -0.33229,0.33229 -0.56864,-0.25834 -0.52522,-1.3125 z m 1,-5 c 0.048,-1.16495 0.28494,-1.4019 0.60416,-0.60417 0.28887,0.72187 0.25335,1.58438 -0.0789,1.91667 -0.33229,0.33229 -0.56864,-0.25834 -0.52522,-1.3125 z M 455.27739,292 c 0,-4.125 0.17651,-5.8125 0.39226,-3.75 0.21574,2.0625 0.21574,5.4375 0,7.5 -0.21575,2.0625 -0.39226,0.375 -0.39226,-3.75 z m -4.17832,-23 c 0,-1.375 0.22698,-1.9375 0.50439,-1.25 0.27741,0.6875 0.27741,1.8125 0,2.5 -0.27741,0.6875 -0.50439,0.125 -0.50439,-1.25 z m -1.07894,-5.58333 c 0.048,-1.16495 0.28494,-1.4019 0.60416,-0.60417 0.28887,0.72187 0.25335,1.58438 -0.0789,1.91667 -0.33229,0.33229 -0.56864,-0.25834 -0.52522,-1.3125 z m -163.3941,-12.39685 c -8.63759,-6.94859 -20.59313,-18.51545 -25.89295,-25.05115 -4.21375,-5.19639 -10.80064,-15.84042 -10.77378,-17.40984 0.01,-0.58236 1.31775,1.29838 2.90619,4.17941 4.7008,8.52603 9.31034,14.17708 20.2434,24.81731 12.03728,11.71487 18.53363,17.07786 21.33229,17.61064 1.32001,0.25128 1.60052,0.63205 0.82504,1.11991 -0.70032,0.44058 -4.19062,-1.68679 -8.64019,-5.26628 z m 158.97014,4.15144 c -0.91025,-1.00581 -1.65499,-2.33029 -1.65499,-2.9433 0,-0.613 -1.00013,-1.81507 -2.22251,-2.67126 C 440.4963,248.70052 439.97655,248 440.56369,248 c 1.19638,0 3.16518,2.15383 5.71306,6.25 1.97482,3.17488 1.69801,3.54957 -0.68058,0.92126 z M 297.09907,248 c 0,-1.375 0.22698,-1.9375 0.50439,-1.25 0.27741,0.6875 0.27741,1.8125 0,2.5 -0.27741,0.6875 -0.50439,0.125 -0.50439,-1.25 z m 137.84211,-1.5 c -1.375,-0.78602 -2.05,-1.42913 -1.5,-1.42913 0.55,0 2.125,0.64311 3.5,1.42913 1.375,0.78602 2.05,1.42913 1.5,1.42913 -0.55,0 -2.125,-0.64311 -3.5,-1.42913 z m -7,-3 c -1.375,-0.78602 -2.05,-1.42913 -1.5,-1.42913 0.55,0 2.125,0.64311 3.5,1.42913 1.375,0.78602 2.05,1.42913 1.5,1.42913 -0.55,0 -2.125,-0.64311 -3.5,-1.42913 z m -7,-3 c -1.375,-0.78602 -2.05,-1.42913 -1.5,-1.42913 0.55,0 2.125,0.64311 3.5,1.42913 1.375,0.78602 2.05,1.42913 1.5,1.42913 -0.55,0 -2.125,-0.64311 -3.5,-1.42913 z m -120.92105,-3.08333 c 0.048,-1.16495 0.28494,-1.4019 0.60416,-0.60417 0.28887,0.72187 0.25335,1.58437 -0.0789,1.91667 -0.33229,0.33229 -0.56864,-0.25834 -0.52522,-1.3125 z M 412.94118,237 c -0.825,-0.53316 -1.05,-0.96937 -0.5,-0.96937 0.55,0 1.675,0.43621 2.5,0.96937 0.825,0.53316 1.05,0.96937 0.5,0.96937 -0.55,0 -1.675,-0.43621 -2.5,-0.96937 z m -9,-4 c -1.925,-1.05389 -3.05,-1.91617 -2.5,-1.91617 0.55,0 2.575,0.86228 4.5,1.91617 1.925,1.05389 3.05,1.91617 2.5,1.91617 -0.55,0 -2.575,-0.86228 -4.5,-1.91617 z m -102.80505,-2.5 c 0.0204,-1.65 0.2445,-2.20394 0.49804,-1.23097 0.25354,0.97297 0.23687,2.32297 -0.0371,3 -0.27393,0.67703 -0.48137,-0.11903 -0.46099,-1.76903 z m 84.55505,-6.06573 c -2.6125,-1.35993 -4.75,-2.69656 -4.75,-2.97028 0,-0.44638 9.89973,4.2296 10.91667,5.15631 1.2381,1.12826 -2.01533,-0.025 -6.16667,-2.18603 z M 302.09907,224 c 0,-1.375 0.22698,-1.9375 0.50439,-1.25 0.27741,0.6875 0.27741,1.8125 0,2.5 -0.27741,0.6875 -0.50439,0.125 -0.50439,-1.25 z m 65.84211,-9 c -1.925,-1.05389 -3.14015,-1.93503 -2.70034,-1.95808 1.0597,-0.0556 6.70034,2.87723 6.70034,3.48376 0,0.65451 -0.0585,0.63219 -4,-1.52568 z m -12,-6 c -4.125,-2.14556 -7.15127,-3.92329 -6.72504,-3.95051 1.06304,-0.0679 14.72504,6.85642 14.72504,7.46308 0,0.67523 0.3295,0.8199 -8,-3.51257 z m -53.74782,-1.5 c 0.0111,-2.2 0.21589,-2.98225 0.45508,-1.73834 0.23919,1.24391 0.23011,3.04391 -0.0202,4 -0.25029,0.95609 -0.446,-0.0617 -0.4349,-2.26166 z m -54.13656,-3.59818 c -0.61359,-1.76015 -1.08552,-3.92062 -1.04872,-4.80104 0.0368,-0.88043 0.69223,0.40628 1.45654,2.85935 1.59985,5.13479 1.26352,6.73611 -0.40782,1.94169 z M 339.94118,201.5 c -2.475,-1.32529 -4.05,-2.40963 -3.5,-2.40963 0.55,0 3.025,1.08434 5.5,2.40963 2.475,1.32529 4.05,2.40963 3.5,2.40963 -0.55,0 -3.025,-1.08434 -5.5,-2.40963 z m -40,-0.5 c -0.90129,-0.58246 -1.02463,-0.97549 -0.30902,-0.98469 0.65504,-0.008 1.4691,0.43469 1.80902,0.98469 0.7673,1.24153 0.42112,1.24153 -1.5,0 z m -4.1875,-1.68311 c 0.72187,-0.28887 1.58438,-0.25335 1.91667,0.0789 0.33229,0.33229 -0.25834,0.56864 -1.3125,0.52522 -1.16495,-0.048 -1.4019,-0.28494 -0.60417,-0.60416 z m -4,-1 c 0.72187,-0.28887 1.58438,-0.25335 1.91667,0.0789 0.33229,0.33229 -0.25834,0.56864 -1.3125,0.52522 -1.16495,-0.048 -1.4019,-0.28494 -0.60417,-0.60416 z m -5.0625,-0.97917 c 0.6875,-0.27741 1.8125,-0.27741 2.5,0 0.6875,0.27741 0.125,0.50439 -1.25,0.50439 -1.375,0 -1.9375,-0.22698 -1.25,-0.50439 z m 42.25,-0.83772 c -1.375,-0.78602 -2.05,-1.42913 -1.5,-1.42913 0.55,0 2.125,0.64311 3.5,1.42913 1.375,0.78602 2.05,1.42913 1.5,1.42913 -0.55,0 -2.125,-0.64311 -3.5,-1.42913 z m -47.25,-0.16228 c 0.6875,-0.27741 1.8125,-0.27741 2.5,0 0.6875,0.27741 0.125,0.50439 -1.25,0.50439 -1.375,0 -1.9375,-0.22698 -1.25,-0.50439 z m -5.48097,-1.03071 c 0.97297,-0.25354 2.32297,-0.23687 3,0.0371 0.67703,0.27393 -0.11903,0.48137 -1.76903,0.46099 -1.65,-0.0204 -2.20394,-0.2445 -1.23097,-0.49804 z m -5.51903,-0.96929 c 0.6875,-0.27741 1.8125,-0.27741 2.5,0 0.6875,0.27741 0.125,0.50439 -1.25,0.50439 -1.375,0 -1.9375,-0.22698 -1.25,-0.50439 z M 322.94118,194 c -0.825,-0.53316 -1.05,-0.96937 -0.5,-0.96937 0.55,0 1.675,0.43621 2.5,0.96937 0.825,0.53316 1.05,0.96937 0.5,0.96937 -0.55,0 -1.675,-0.43621 -2.5,-0.96937 z m -76,-1 c 0,-0.55 0.47656,-1 1.05902,-1 0.58246,0 0.7809,0.45 0.44098,1 -0.33992,0.55 -0.81648,1 -1.05902,1 -0.24254,0 -0.44098,-0.45 -0.44098,-1 z m 18.75,0.33772 c 0.6875,-0.27741 1.8125,-0.27741 2.5,0 0.6875,0.27741 0.125,0.50439 -1.25,0.50439 -1.375,0 -1.9375,-0.22698 -1.25,-0.50439 z m -5.48097,-1.03071 c 0.97297,-0.25354 2.32297,-0.23687 3,0.0371 0.67703,0.27393 -0.11903,0.48137 -1.76903,0.46099 -1.65,-0.0204 -2.20394,-0.2445 -1.23097,-0.49804 z M 317.94118,192 c -0.825,-0.53316 -1.05,-0.96937 -0.5,-0.96937 0.55,0 1.675,0.43621 2.5,0.96937 0.825,0.53316 1.05,0.96937 0.5,0.96937 -0.55,0 -1.675,-0.43621 -2.5,-0.96937 z m -65.75,-0.68933 c 0.9625,-0.25152 2.5375,-0.25152 3.5,0 0.9625,0.25153 0.175,0.45733 -1.75,0.45733 -1.925,0 -2.7125,-0.2058 -1.75,-0.45733 z M 312.94118,190 c -0.825,-0.53316 -1.05,-0.96937 -0.5,-0.96937 0.55,0 1.675,0.43621 2.5,0.96937 0.825,0.53316 1.05,0.96937 0.5,0.96937 -0.55,0 -1.675,-0.43621 -2.5,-0.96937 z M 234.28662,102.80552 C 195.32163,56.498556 161.71556,16.336056 159.60647,13.55552 L 155.77175,8.5 l 3.83472,4.415095 c 2.10909,2.428303 33.9443,40.228303 70.7449,84 36.80061,43.771695 68.91777,81.947405 71.37148,84.834905 2.4537,2.8875 4.22456,5.25 3.93524,5.25 -0.28932,0 -32.40649,-37.88752 -71.37147,-84.19448 z M 8.004568,179.80064 c -0.03486,-0.93465 15.58934,-20.95965 34.720449,-44.5 C 61.856126,111.76029 92.286431,74.275 110.34791,52 143.40671,11.229014 146.2196,7.9706632 148.30196,8.035435 c 0.62657,0.01949 0.17984,0.58199 -0.99273,1.25 C 146.13666,9.953446 125.4255,34.8 101.28444,64.5 77.143379,94.2 46.71349,131.62807 33.662467,147.6735 c -13.051023,16.04542 -24.148843,30.22042 -24.661823,31.5 -0.660995,1.64879 -0.951154,1.83147 -0.996076,0.62714 z M 151.44118,8 c -1.31874,-0.5666821 -1.48906,-0.8781547 -0.5,-0.914402 0.825,-0.030235 2.175,0.3812461 3,0.914402 1.82797,1.181322 0.24909,1.181322 -2.5,0 z"
     style="fill:#aeaeae" />
  <path
     inkscape:connector-curvature="0"
     id="path4360"
     d="m 242.86549,430.25 -2.42431,-2.75 3,2.5 c 1.65,1.375 3.1875,2.6125 3.41667,2.75 0.22916,0.1375 -0.0299,0.25 -0.57569,0.25 -0.54579,0 -2.08329,-1.2375 -3.41667,-2.75 z m 5.07569,0.43709 c 0,-0.1721 1.4625,-1.6346 3.25,-3.25 l 3.25,-2.93709 -2.93709,3.25 c -2.73778,3.02946 -3.56291,3.70965 -3.56291,2.93709 z m -11.07569,-7.43709 -2.42431,-2.75 2.75,2.42431 c 2.57029,2.26589 3.20859,3.07569 2.42431,3.07569 -0.17912,0 -1.41662,-1.2375 -2.75,-2.75 z m 22.07569,-4.75 c 1.86578,-1.925 3.61733,-3.5 3.89233,-3.5 0.275,0 -1.02655,1.575 -2.89233,3.5 -1.86578,1.925 -3.61733,3.5 -3.89233,3.5 -0.275,0 1.02655,-1.575 2.89233,-3.5 z m -28.56291,-2.75 -2.93709,-3.25 3.25,2.93709 c 3.02946,2.73778 3.70965,3.56291 2.93709,3.56291 -0.1721,0 -1.6346,-1.4625 -3.25,-3.25 z M 267.44118,409 c 2.14824,-2.2 4.1309,-4 4.4059,-4 0.275,0 -1.25766,1.8 -3.4059,4 -2.14824,2.2 -4.1309,4 -4.4059,4 -0.275,0 1.25766,-1.8 3.4059,-4 z m -44.06291,-1.25 -2.93709,-3.25 3.25,2.93709 c 3.02946,2.73778 3.70965,3.56291 2.93709,3.56291 -0.1721,0 -1.6346,-1.4625 -3.25,-3.25 z m -7,-8 -2.93709,-3.25 3.25,2.93709 c 3.02946,2.73778 3.70965,3.56291 2.93709,3.56291 -0.1721,0 -1.6346,-1.4625 -3.25,-3.25 z M 276.44118,399 c 2.14824,-2.2 4.1309,-4 4.4059,-4 0.275,0 -1.25766,1.8 -3.4059,4 -2.14824,2.2 -4.1309,4 -4.4059,4 -0.275,0 1.25766,-1.8 3.4059,-4 z m -66.06291,-6.25 -2.93709,-3.25 3.25,2.93709 c 3.02946,2.73778 3.70965,3.56291 2.93709,3.56291 -0.1721,0 -1.6346,-1.4625 -3.25,-3.25 z m 74.56291,-3.25 c 1.86578,-1.925 3.61733,-3.5 3.89233,-3.5 0.275,0 -1.02655,1.575 -2.89233,3.5 -1.86578,1.925 -3.61733,3.5 -3.89233,3.5 -0.275,0 1.02655,-1.575 2.89233,-3.5 z m -80.56291,-3.75 -2.93709,-3.25 3.25,2.93709 c 3.02946,2.73778 3.70965,3.56291 2.93709,3.56291 -0.1721,0 -1.6346,-1.4625 -3.25,-3.25 z M 293.44118,380 c 2.14824,-2.2 4.1309,-4 4.4059,-4 0.275,0 -1.25766,1.8 -3.4059,4 -2.14824,2.2 -4.1309,4 -4.4059,4 -0.275,0 1.25766,-1.8 3.4059,-4 z m -96.06291,-2.25 -2.93709,-3.25 3.25,2.93709 c 3.02946,2.73778 3.70965,3.56291 2.93709,3.56291 -0.1721,0 -1.6346,-1.4625 -3.25,-3.25 z M 302.44118,370 c 2.14824,-2.2 4.1309,-4 4.4059,-4 0.275,0 -1.25766,1.8 -3.4059,4 -2.14824,2.2 -4.1309,4 -4.4059,4 -0.275,0 1.25766,-1.8 3.4059,-4 z m -112.06291,-0.25 -2.93709,-3.25 3.25,2.93709 c 3.02946,2.73778 3.70965,3.56291 2.93709,3.56291 -0.1721,0 -1.6346,-1.4625 -3.25,-3.25 z m -6.51278,-7.5 -2.42431,-2.75 2.75,2.42431 c 2.57029,2.26589 3.20859,3.07569 2.42431,3.07569 -0.17912,0 -1.41662,-1.2375 -2.75,-2.75 z m 127.07569,-1.75 c 1.86578,-1.925 3.61733,-3.5 3.89233,-3.5 0.275,0 -1.02655,1.575 -2.89233,3.5 -1.86578,1.925 -3.61733,3.5 -3.89233,3.5 -0.275,0 1.02655,-1.575 2.89233,-3.5 z m -133.56291,-5.75 -2.93709,-3.25 3.25,2.93709 c 3.02946,2.73778 3.70965,3.56291 2.93709,3.56291 -0.1721,0 -1.6346,-1.4625 -3.25,-3.25 z m 142.56291,-4.25 c 1.86578,-1.925 3.61733,-3.5 3.89233,-3.5 0.275,0 -1.02655,1.575 -2.89233,3.5 -1.86578,1.925 -3.61733,3.5 -3.89233,3.5 -0.275,0 1.02655,-1.575 2.89233,-3.5 z m -149.07569,-3.25 -2.42431,-2.75 2.75,2.42431 c 2.57029,2.26589 3.20859,3.07569 2.42431,3.07569 -0.17912,0 -1.41662,-1.2375 -2.75,-2.75 z M 328.44118,341 c 2.14824,-2.2 4.1309,-4 4.4059,-4 0.275,0 -1.25766,1.8 -3.4059,4 -2.14824,2.2 -4.1309,4 -4.4059,4 -0.275,0 1.25766,-1.8 3.4059,-4 z m -164.06291,-1.25 -2.93709,-3.25 3.25,2.93709 c 3.02946,2.73778 3.70965,3.56291 2.93709,3.56291 -0.1721,0 -1.6346,-1.4625 -3.25,-3.25 z m -7,-8 -2.93709,-3.25 3.25,2.93709 c 3.02946,2.73778 3.70965,3.56291 2.93709,3.56291 -0.1721,0 -1.6346,-1.4625 -3.25,-3.25 z m 179.56291,-0.25 c 1.86578,-1.925 3.61733,-3.5 3.89233,-3.5 0.275,0 -1.02655,1.575 -2.89233,3.5 -1.86578,1.925 -3.61733,3.5 -3.89233,3.5 -0.275,0 1.02655,-1.575 2.89233,-3.5 z m -185.56291,-6.75 -2.93709,-3.25 3.25,2.93709 c 3.02946,2.73778 3.70965,3.56291 2.93709,3.56291 -0.1721,0 -1.6346,-1.4625 -3.25,-3.25 z m 191.56291,-0.0629 c 0,-0.1721 1.4625,-1.6346 3.25,-3.25 l 3.25,-2.93709 -2.93709,3.25 c -2.73778,3.02946 -3.56291,3.70965 -3.56291,2.93709 z M 144.37827,316.75 l -2.93709,-3.25 3.25,2.93709 c 3.02946,2.73778 3.70965,3.56291 2.93709,3.56291 -0.1721,0 -1.6346,-1.4625 -3.25,-3.25 z m 208.45968,-2.97068 c 2.00559,-2.27663 2.18652,-2.97404 1.10856,-4.2729 -1.08676,-1.30946 -1.03152,-1.4537 0.35323,-0.92232 2.38618,0.91566 2.01905,2.73438 -1.10856,5.49159 l -2.75,2.42431 2.39677,-2.72068 z M 137.86549,309.25 l -2.42431,-2.75 2.75,2.42431 c 2.57029,2.26589 3.20859,3.07569 2.42431,3.07569 -0.17912,0 -1.41662,-1.2375 -2.75,-2.75 z m -6.48722,-7.5 -2.93709,-3.25 3.25,2.93709 c 3.02946,2.73778 3.70965,3.56291 2.93709,3.56291 -0.1721,0 -1.6346,-1.4625 -3.25,-3.25 z m -6.51278,-7.5 -2.42431,-2.75 2.75,2.42431 c 2.57029,2.26589 3.20859,3.07569 2.42431,3.07569 -0.17912,0 -1.41662,-1.2375 -2.75,-2.75 z m 195.51682,-2.80517 c -1.86402,-1.49339 -1.85176,-1.51185 0.30887,-0.46481 1.2375,0.59969 2.25,1.29951 2.25,1.55516 0,0.76522 -0.51861,0.54424 -2.55887,-1.09035 z M 118.37827,286.75 l -2.93709,-3.25 3.25,2.93709 c 1.7875,1.6154 3.25,3.0779 3.25,3.25 0,0.77256 -0.82513,0.0924 -3.56291,-2.93709 z m -6.51278,-7.5 -2.42431,-2.75 2.75,2.42431 c 2.57029,2.26589 3.20859,3.07569 2.42431,3.07569 -0.17912,0 -1.41662,-1.2375 -2.75,-2.75 z m -6.48722,-7.5 -2.93709,-3.25 3.25,2.93709 c 1.7875,1.6154 3.25,3.0779 3.25,3.25 0,0.77256 -0.82513,0.0924 -3.56291,-2.93709 z m 181.00404,-0.30517 c -1.86402,-1.49339 -1.85176,-1.51185 0.30887,-0.46481 1.2375,0.59969 2.25,1.29951 2.25,1.55516 0,0.76522 -0.51861,0.54424 -2.55887,-1.09035 z M 98.378272,263.75 l -2.93709,-3.25 3.25,2.93709 c 1.787498,1.6154 3.249998,3.0779 3.249998,3.25 0,0.77256 -0.82513,0.0924 -3.562908,-2.93709 z m 177.435348,0.5 c -1.24387,-1.58606 -1.2085,-1.62143 0.37756,-0.37756 1.66575,1.30637 2.19548,2.12756 1.37244,2.12756 -0.20765,0 -0.99515,-0.7875 -1.75,-1.75 z m -4,-3 c -1.24387,-1.58606 -1.2085,-1.62143 0.37756,-0.37756 1.66575,1.30637 2.19548,2.12756 1.37244,2.12756 -0.20765,0 -0.99515,-0.7875 -1.75,-1.75 z m -179.435347,-4.5 -2.937091,-3.25 3.25,2.93709 c 3.02946,2.73778 3.70965,3.56291 2.93709,3.56291 -0.1721,0 -1.6346,-1.4625 -3.249999,-3.25 z m 166.967897,-5 -1.90499,-2.25 2.25,1.90499 c 1.2375,1.04774 2.25,2.06024 2.25,2.25 0,0.80025 -0.80479,0.20945 -2.59501,-1.90499 z m -173.967897,-3 -2.937091,-3.25 3.25,2.93709 c 1.7875,1.6154 3.25,3.0779 3.25,3.25 0,0.77256 -0.825128,0.0924 -3.562909,-2.93709 z M 249.44118,243 c -3.26557,-3.3 -6.40148,-5.99812 -6.9687,-5.99581 -0.56721,0.002 -3.24507,1.1273 -5.95078,2.5 -4.15536,2.10815 -6.30817,2.49581 -13.86002,2.49581 -8.14203,0 -9.47717,-0.28602 -14.94881,-3.20237 -8.32039,-4.43473 -16.79533,-13.06893 -20.78748,-21.17815 -6.42804,-13.0572 -6.434,-33.84252 -0.0134,-46.56176 5.10161,-10.10624 19.89638,-22.05697 29.87295,-24.1304 7.30948,-1.51913 19.90455,-0.66321 27.98199,1.90156 5.70469,1.81137 6.27114,1.84474 5.76909,0.33985 -0.30619,-0.9178 0.8972,0.10412 2.6742,2.27094 1.777,2.16681 6.28706,7.44735 10.02236,11.73452 3.7353,4.28717 6.0978,7.52867 5.25,7.20334 -2.07445,-0.79604 -2.02033,2.00073 0.0793,4.10041 1.4944,1.4944 1.39692,1.56718 -1.25,0.93317 -3.75194,-0.89868 -4.51446,-1.36964 -3.87991,-2.39636 0.88142,-1.42617 -9.15953,-9.46393 -16.2709,-13.02484 -5.70837,-2.85837 -7.99957,-3.42062 -15.21999,-3.73491 -7.69203,-0.33482 -9.04832,-0.10313 -14.26835,2.4375 -12.49617,6.08197 -23.82728,19.09394 -25.32505,29.08177 -0.99438,6.63102 1.01927,16.41346 5.22222,25.36979 4.25554,9.06841 7.45853,12.29672 16.72755,16.85985 6.142,3.02369 6.9371,3.1696 13.61667,2.4988 3.90159,-0.39182 7.64126,-1.22911 8.31038,-1.86065 0.93409,-0.88162 3.40014,1.11641 10.62039,8.60485 5.1721,5.3642 9.20802,9.75309 8.9687,9.75309 -0.23931,0 -3.10694,-2.7 -6.37251,-6 z m -170.575684,-1.75 -2.424314,-2.75 2.75,2.42431 C 81.761471,243.1902 82.39977,244 81.615496,244 c -0.179127,0 -1.416627,-1.2375 -2.75,-2.75 z m -6.487223,-7.5 -2.937091,-3.25 3.25,2.93709 C 75.720637,236.17487 76.400834,237 75.628273,237 c -0.1721,0 -1.6346,-1.4625 -3.25,-3.25 z m -6.512777,-7.5 -2.424314,-2.75 2.75,2.42431 C 68.761471,228.1902 69.39977,229 68.615496,229 c -0.179127,0 -1.416627,-1.2375 -2.75,-2.75 z m -6.487223,-7.5 -2.937091,-3.25 3.25,2.93709 c 1.7875,1.6154 3.25,3.0779 3.25,3.25 0,0.77256 -0.825128,0.0924 -3.562909,-2.93709 z m 155.062877,1.41298 c -10.26691,-6.26121 -14.13492,-19.83629 -8.73693,-30.66298 7.45698,-14.9564 22.79246,-22.96411 33.73696,-17.61638 3.63849,1.77784 3.76502,1.9618 1.40004,2.03543 -1.42998,0.0445 -4.43652,1.41134 -6.68119,3.03738 -2.32802,1.6864 -4.23711,2.48878 -4.4441,1.86782 -0.57102,-1.71307 -6.3277,1.71528 -9.10884,5.4247 -9.29989,12.40401 -9.05423,26.57099 0.60694,35.00105 l 3.1516,2.75 -3.46222,-0.004 c -1.90423,-0.002 -4.81224,-0.82703 -6.46226,-1.83328 z M 52.865496,211.25 l -2.424314,-2.75 2.75,2.42431 C 55.761471,213.1902 56.39977,214 55.615496,214 c -0.179127,0 -1.416627,-1.2375 -2.75,-2.75 z m -6.487223,-7.5 -2.937091,-3.25 3.25,2.93709 C 49.720637,206.17487 50.400834,207 49.628273,207 c -0.1721,0 -1.6346,-1.4625 -3.25,-3.25 z m 179.641857,0.66667 c 0.048,-1.16495 0.28494,-1.4019 0.60416,-0.60417 0.28887,0.72187 0.25335,1.58437 -0.0789,1.91667 -0.3323,0.33229 -0.56864,-0.25834 -0.52522,-1.3125 z M 38.865496,195.25 l -2.424314,-2.75 2.75,2.42431 C 41.761471,197.1902 42.39977,198 41.615496,198 c -0.179127,0 -1.416627,-1.2375 -2.75,-2.75 z m -5.487223,-6.5 -2.937091,-3.25 3.25,2.93709 C 36.720637,191.17487 37.400834,192 36.628273,192 c -0.1721,0 -1.6346,-1.4625 -3.25,-3.25 z m 192.641857,1.66667 c 0.048,-1.16495 0.28494,-1.4019 0.60416,-0.60417 0.28887,0.72187 0.25335,1.58437 -0.0789,1.91667 -0.3323,0.33229 -0.56864,-0.25834 -0.52522,-1.3125 z M 28.270852,182.41672 c -0.368534,-0.96038 0.317696,-2.43571 1.744267,-3.75 l 2.351827,-2.16672 -1.834163,2.21275 c -1.00879,1.21702 -1.56871,2.90452 -1.244267,3.75 0.324443,0.84549 0.364896,1.53725 0.0899,1.53725 -0.275,0 -0.773402,-0.71247 -1.10756,-1.58328 z m 243.462068,-6.09291 c 1.05565,-0.42357 1.05565,-0.82037 0,-2.17106 -1.15417,-1.47674 -1.10537,-1.50659 0.45826,-0.28031 0.9625,0.75485 1.75,1.76735 1.75,2.25 0,0.48266 -0.7875,0.84203 -1.75,0.79861 -1.11289,-0.0502 -1.27973,-0.26764 -0.45826,-0.59724 z M 33.441182,174 c 0.995486,-1.1 2.034975,-2 2.309975,-2 0.275,0 -0.314489,0.9 -1.309975,2 -0.995486,1.1 -2.034975,2 -2.309975,2 -0.275,0 0.314489,-0.9 1.309975,-2 z m 226.312498,-0.68311 c 0.72187,-0.28887 1.58438,-0.25335 1.91667,0.0789 0.33229,0.33229 -0.25834,0.56864 -1.3125,0.52522 -1.16495,-0.048 -1.4019,-0.28494 -0.60417,-0.60416 z m -11.5625,-1.03314 c 1.5125,-0.22913 3.9875,-0.22913 5.5,0 1.5125,0.22912 0.275,0.41659 -2.75,0.41659 -3.025,0 -4.2625,-0.18747 -2.75,-0.41659 z M 36.941182,169.62244 c 0,-0.20765 0.7875,-0.99515 1.75,-1.75 1.586056,-1.24387 1.621426,-1.2085 0.377555,0.37756 -1.306369,1.66575 -2.127555,2.19548 -2.127555,1.37244 z m 5.5,-6.62244 c 0.995486,-1.1 2.034975,-2 2.309975,-2 0.275,0 -0.314489,0.9 -1.309975,2 -0.995486,1.1 -2.034975,2 -2.309975,2 -0.275,0 0.314489,-0.9 1.309975,-2 z m 4.5,-5.5 c 1.291745,-1.375 2.573628,-2.5 2.848628,-2.5 0.275,0 -0.556883,1.125 -1.848628,2.5 -1.291745,1.375 -2.573628,2.5 -2.848628,2.5 -0.275,0 0.556883,-1.125 1.848628,-2.5 z m 4.5,-5.5 c 0.995486,-1.1 2.034975,-2 2.309975,-2 0.275,0 -0.314489,0.9 -1.309975,2 -0.995486,1.1 -2.034975,2 -2.309975,2 -0.275,0 0.314489,-0.9 1.309975,-2 z m 4,-5 c 0.995486,-1.1 2.034975,-2 2.309975,-2 0.275,0 -0.314489,0.9 -1.309975,2 -0.995486,1.1 -2.034975,2 -2.309975,2 -0.275,0 0.314489,-0.9 1.309975,-2 z m 190.904988,-3.25 -1.90499,-2.25 2.25,1.90499 c 2.11444,1.79022 2.70524,2.59501 1.90499,2.59501 -0.18976,0 -1.20226,-1.0125 -2.25,-2.25 z M 59.441182,142 c 0.995486,-1.1 2.034975,-2 2.309975,-2 0.275,0 -0.314489,0.9 -1.309975,2 -0.995486,1.1 -2.034975,2 -2.309975,2 -0.275,0 0.314489,-0.9 1.309975,-2 z m 181.424308,-4.75 -2.42431,-2.75 2.75,2.42431 c 2.57029,2.26589 3.20859,3.07569 2.42431,3.07569 -0.17912,0 -1.41662,-1.2375 -2.75,-2.75 z M 64.441182,136 c 0.995486,-1.1 2.034975,-2 2.309975,-2 0.275,0 -0.314489,0.9 -1.309975,2 -0.995486,1.1 -2.034975,2 -2.309975,2 -0.275,0 0.314489,-0.9 1.309975,-2 z m 4,-5 c 0.995486,-1.1 2.034975,-2 2.309975,-2 0.275,0 -0.314489,0.9 -1.309975,2 -0.995486,1.1 -2.034975,2 -2.309975,2 -0.275,0 0.314489,-0.9 1.309975,-2 z m 166.904988,-0.25 -1.90499,-2.25 2.25,1.90499 c 2.11444,1.79022 2.70524,2.59501 1.90499,2.59501 -0.18976,0 -1.20226,-1.0125 -2.25,-2.25 z M 72.941182,125.5 c 1.291745,-1.375 2.573628,-2.5 2.848628,-2.5 0.275,0 -0.556883,1.125 -1.848628,2.5 -1.291745,1.375 -2.573628,2.5 -2.848628,2.5 -0.275,0 0.556883,-1.125 1.848628,-2.5 z m 157.404988,-0.75 -1.90499,-2.25 2.25,1.90499 c 2.11444,1.79022 2.70524,2.59501 1.90499,2.59501 -0.18976,0 -1.20226,-1.0125 -2.25,-2.25 z M 77.441182,120 c 0.995486,-1.1 2.034975,-2 2.309975,-2 0.275,0 -0.314489,0.9 -1.309975,2 -0.995486,1.1 -2.034975,2 -2.309975,2 -0.275,0 0.314489,-0.9 1.309975,-2 z m 147.424308,-1.75 -2.42431,-2.75 2.75,2.42431 c 2.57029,2.26589 3.20859,3.07569 2.42431,3.07569 -0.17912,0 -1.41662,-1.2375 -2.75,-2.75 z M 81.441182,115 c 0.995486,-1.1 2.034975,-2 2.309975,-2 0.275,0 -0.314489,0.9 -1.309975,2 -0.995486,1.1 -2.034975,2 -2.309975,2 -0.275,0 0.314489,-0.9 1.309975,-2 z m 138.424308,-2.75 -2.42431,-2.75 2.75,2.42431 c 2.57029,2.26589 3.20859,3.07569 2.42431,3.07569 -0.17912,0 -1.41662,-1.2375 -2.75,-2.75 z M 84.941182,110.62244 c 0,-0.20765 0.7875,-0.99515 1.75,-1.75 1.586056,-1.24387 1.621426,-1.2085 0.377555,0.37756 -1.306369,1.66575 -2.127555,2.19548 -2.127555,1.37244 z M 214.34617,105.75 l -1.90499,-2.25 2.25,1.90499 c 2.11444,1.79022 2.70524,2.59501 1.90499,2.59501 -0.18976,0 -1.20226,-1.0125 -2.25,-2.25 z M 90.441182,104 c 0.995486,-1.1 2.034975,-2 2.309975,-2 0.275,0 -0.314489,0.9 -1.309975,2 -0.995486,1.1 -2.034975,2 -2.309975,2 -0.275,0 0.314489,-0.9 1.309975,-2 z m 118.904988,-4.25 -1.90499,-2.25 2.25,1.90499 c 2.11444,1.79022 2.70524,2.59501 1.90499,2.59501 -0.18976,0 -1.20226,-1.0125 -2.25,-2.25 z M 94.441182,99 c 0.99549,-1.1 2.03498,-2 2.30998,-2 0.275,0 -0.31449,0.9 -1.30998,2 -0.99549,1.1 -2.034975,2 -2.309975,2 -0.275,0 0.314489,-0.9 1.309975,-2 z m 4.5,-5.5 c 1.291748,-1.375 2.573628,-2.5 2.848628,-2.5 0.275,0 -0.55688,1.125 -1.848628,2.5 -1.29175,1.375 -2.57363,2.5 -2.84863,2.5 -0.275,0 0.55688,-1.125 1.84863,-2.5 z m 104.924308,-0.25 -2.42431,-2.75 2.75,2.424314 C 206.76147,95.190201 207.39977,96 206.61549,96 c -0.17912,0 -1.41662,-1.2375 -2.75,-2.75 z M 103.44118,88 c 0.99549,-1.1 2.03498,-2 2.30998,-2 0.275,0 -0.31449,0.9 -1.30998,2 -0.99549,1.1 -2.03498,2 -2.30998,2 -0.275,0 0.31449,-0.9 1.30998,-2 z m 94.90499,-1.25 -1.90499,-2.25 2.25,1.904988 C 200.80562,88.195206 201.39642,89 200.59617,89 c -0.18976,0 -1.20226,-1.0125 -2.25,-2.25 z m -91.40499,-3.127555 c 0,-0.207656 0.7875,-0.995156 1.75,-1.75 1.58606,-1.243871 1.62143,-1.208501 0.37756,0.377555 -1.30637,1.665748 -2.12756,2.195479 -2.12756,1.372445 z M 193.34617,80.75 l -1.90499,-2.25 2.25,1.904988 c 1.2375,1.047743 2.25,2.060243 2.25,2.25 0,0.800253 -0.80479,0.209457 -2.59501,-1.904988 z M 112.44118,77 c 0.99549,-1.1 2.03498,-2 2.30998,-2 0.275,0 -0.31449,0.9 -1.30998,2 -0.99549,1.1 -2.03498,2 -2.30998,2 -0.275,0 0.31449,-0.9 1.30998,-2 z m 75.42431,-2.75 -2.42431,-2.75 2.75,2.424314 c 1.5125,1.333373 2.75,2.570873 2.75,2.75 0,0.784274 -0.8098,0.145975 -3.07569,-2.424314 z M 116.44118,72 c 0.99549,-1.1 2.03498,-2 2.30998,-2 0.275,0 -0.31449,0.9 -1.30998,2 -0.99549,1.1 -2.03498,2 -2.30998,2 -0.275,0 0.31449,-0.9 1.30998,-2 z m 65.90499,-4.25 -1.90499,-2.25 2.25,1.904988 C 184.80562,69.195206 185.39642,70 184.59617,70 c -0.18976,0 -1.20226,-1.0125 -2.25,-2.25 z M 120.44118,67 c 0.99549,-1.1 2.03498,-2 2.30998,-2 0.275,0 -0.31449,0.9 -1.30998,2 -0.99549,1.1 -2.03498,2 -2.30998,2 -0.275,0 0.31449,-0.9 1.30998,-2 z m 56.42431,-5.75 -2.42431,-2.75 2.75,2.424314 c 1.5125,1.333373 2.75,2.570873 2.75,2.75 0,0.784274 -0.8098,0.145975 -3.07569,-2.424314 z M 125.44118,61 c 0.99549,-1.1 2.03498,-2 2.30998,-2 0.275,0 -0.31449,0.9 -1.30998,2 -0.99549,1.1 -2.03498,2 -2.30998,2 -0.275,0 0.31449,-0.9 1.30998,-2 z m 4,-5 c 0.99549,-1.1 2.03498,-2 2.30998,-2 0.275,0 -0.31449,0.9 -1.30998,2 -0.99549,1.1 -2.03498,2 -2.30998,2 -0.275,0 0.31449,-0.9 1.30998,-2 z m 42.42431,-0.75 -2.42431,-2.75 2.75,2.424314 C 174.76147,57.190201 175.39977,58 174.61549,58 c -0.17912,0 -1.41662,-1.2375 -2.75,-2.75 z m -38.92431,-3.627555 c 0,-0.207656 0.7875,-0.995156 1.75,-1.75 1.58606,-1.243871 1.62143,-1.208501 0.37756,0.377555 -1.30637,1.665748 -2.12756,2.195479 -2.12756,1.372445 z M 166.86549,49.25 l -2.42431,-2.75 2.75,2.424314 c 1.5125,1.333373 2.75,2.570873 2.75,2.75 0,0.784274 -0.8098,0.145975 -3.07569,-2.424314 z M 138.44118,45 c 0.99549,-1.1 2.03498,-2 2.30998,-2 0.275,0 -0.31449,0.9 -1.30998,2 -0.99549,1.1 -2.03498,2 -2.30998,2 -0.275,0 0.31449,-0.9 1.30998,-2 z m 22.90499,-2.25 -1.90499,-2.25 2.25,1.904988 C 163.80562,44.195206 164.39642,45 163.59617,45 c -0.18976,0 -1.20226,-1.0125 -2.25,-2.25 z M 142.44118,40 c 0.99549,-1.1 2.03498,-2 2.30998,-2 0.275,0 -0.31449,0.9 -1.30998,2 -0.99549,1.1 -2.03498,2 -2.30998,2 -0.275,0 0.31449,-0.9 1.30998,-2 z m 13.90499,-3.25 -1.90499,-2.25 2.25,1.904988 C 158.80562,38.195206 159.39642,39 158.59617,39 c -0.18976,0 -1.20226,-1.0125 -2.25,-2.25 z m -10.40499,-1.127555 c 0,-0.207656 0.7875,-0.995156 1.75,-1.75 1.58606,-1.243871 1.62143,-1.208501 0.37756,0.377555 -1.30637,1.665748 -2.12756,2.195479 -2.12756,1.372445 z M 151.81362,31.25 c -1.24387,-1.586056 -1.2085,-1.621426 0.37756,-0.377555 C 153.85693,32.178814 154.38666,33 153.56362,33 c -0.20765,0 -0.99515,-0.7875 -1.75,-1.75 z"
     style="fill:#76b0e3" />
  <path
     inkscape:connector-curvature="0"
     id="path4358"
     d="m 426.94118,343.0479 c 0,-0.52365 -2.5875,-2.47997 -5.75,-4.34738 -5.17783,-3.05743 -20.88324,-13.08131 -45.54559,-29.0692 -4.83757,-3.13606 -15.18757,-9.58488 -23,-14.33071 -16.33582,-9.92356 -34.00185,-21.56894 -47.79775,-31.5081 l -9.59334,-6.91146 1.23013,-4.19052 c 3.5142,-11.9713 4.43419,-15.88486 5.51193,-23.44732 0.64718,-4.54124 0.999,-12.68066 0.78183,-18.0876 l -0.39486,-9.83081 11.02883,3.4284 c 21.87094,6.79876 35.48513,12.25556 93.52882,37.48797 17.9596,7.80729 33.6021,12.74081 35.89791,11.32192 1.44325,-0.89197 5.95825,5.1369 6.91408,9.23238 0.47553,2.03749 1.84911,7.75453 3.05241,12.70453 3.69962,15.21905 2.41111,32.08223 -3.90513,51.10783 -2.3509,7.08135 -4.06588,8.89561 -13.04232,13.79737 -6.73316,3.67678 -8.91695,4.32398 -8.91695,2.6427 z"
     style="fill:#ef4993" />
  <path
     inkscape:connector-curvature="0"
     id="path4356"
     d="m 232.84544,419.80867 c -6.78284,-7.80523 -11.81201,-13.86969 -11.17594,-13.47658 0.63608,0.39312 6.20168,6.55422 12.368,13.69134 6.16632,7.13711 11.54383,12.97657 11.95001,12.97657 0.40618,0 8.24226,-8.325 17.4135,-18.5 9.17124,-10.175 16.92507,-18.5 17.23073,-18.5 0.30565,0 -3.22141,4.1625 -7.83793,9.25 -4.61651,5.0875 -12.37735,13.6375 -17.24629,19 -4.86895,5.3625 -9.19396,9.75 -9.61114,9.75 -0.41717,0 -6.3081,-6.3861 -13.09094,-14.19133 z M 216.88735,401.25 l -3.44617,-3.75 3.75,3.44617 c 3.49042,3.20761 4.20979,4.05383 3.44617,4.05383 -0.16711,0 -1.85461,-1.6875 -3.75,-3.75 z m -6.50908,-7.5 -2.93709,-3.25 3.25,2.93709 c 3.02946,2.73778 3.70965,3.56291 2.93709,3.56291 -0.1721,0 -1.6346,-1.4625 -3.25,-3.25 z m 82.44499,-12.06665 c 6.81015,-7.55072 12.88515,-14.03609 13.5,-14.41193 0.61486,-0.37584 -4.45402,5.49452 -11.26416,13.04523 -6.81015,7.55072 -12.88515,14.03609 -13.5,14.41193 -0.61486,0.37584 4.45402,-5.49452 11.26416,-13.04523 z M 200.94118,383 c -3.41328,-3.85 -5.98097,-7 -5.70597,-7 0.275,0 3.29269,3.15 6.70597,7 3.41328,3.85 5.98097,7 5.70597,7 -0.275,0 -3.29269,-3.15 -6.70597,-7 z m -10.05383,-11.75 -3.44617,-3.75 3.75,3.44617 c 3.49042,3.20761 4.20979,4.05383 3.44617,4.05383 -0.16711,0 -1.85461,-1.6875 -3.75,-3.75 z M 180.94118,360 c -3.41328,-3.85 -5.98097,-7 -5.70597,-7 0.275,0 3.29269,3.15 6.70597,7 3.41328,3.85 5.98097,7 5.70597,7 -0.275,0 -3.29269,-3.15 -6.70597,-7 z m 129.5,2 c 2.14824,-2.2 4.1309,-4 4.4059,-4 0.275,0 -1.25766,1.8 -3.4059,4 -2.14824,2.2 -4.1309,4 -4.4059,4 -0.275,0 1.25766,-1.8 3.4059,-4 z m 8.45821,-9.25 c 4.14396,-4.41519 5.04179,-5.20909 5.04179,-4.45821 0,0.16049 -2.1375,2.29799 -4.75,4.75 l -4.75,4.45821 4.45821,-4.75 z m -147.5772,-4 c -6.5707,-7.0915 -16.81798,-19.08548 -15.77947,-18.46918 1.23661,0.73387 19.75651,21.71918 19.16754,21.71918 -0.20721,0 -1.73184,-1.4625 -3.38807,-3.25 z m 156.5772,-6 c 4.14396,-4.41519 5.04179,-5.20909 5.04179,-4.45821 0,0.16049 -2.1375,2.29799 -4.75,4.75 l -4.75,4.45821 4.45821,-4.75 z m 16.32955,-18.5 c 6.27596,-7.0125 11.66812,-13.425 11.98259,-14.25 0.42654,-1.11903 0.59181,-1.15436 0.6507,-0.1391 0.0722,1.24447 -22.3923,27.1391 -23.54412,27.1391 -0.275,0 4.63488,-5.7375 10.91083,-12.75 z m -192.85067,1.5 -2.93709,-3.25 3.25,2.93709 c 3.02946,2.73778 3.70965,3.56291 2.93709,3.56291 -0.1721,0 -1.6346,-1.4625 -3.25,-3.25 z m -6.49092,-7.5 -3.44617,-3.75 3.75,3.44617 c 2.0625,1.89539 3.75,3.58289 3.75,3.75 0,0.76362 -0.84622,0.0442 -4.05383,-3.44617 z m -10.09396,-11.5 c -14.11941,-16.01233 -19.29983,-22.10946 -18.24708,-21.476 1.30712,0.78651 25.6861,28.726 25.06526,28.726 -0.23389,0 -3.30207,-3.2625 -6.81818,-7.25 z m 204.89779,-5.31297 c -3.7125,-1.90554 -6.75,-3.68906 -6.75,-3.96339 0,-0.27433 3.15,1.08753 7,3.02636 3.85,1.93883 7,3.74449 7,4.01257 0,0.67065 0.28009,0.78946 -7.25,-3.07554 z m -13,-7.00276 c -2.6125,-1.35993 -4.75,-2.69656 -4.75,-2.97028 0,-0.27373 2.25,0.64248 5,2.03601 2.75,1.39353 5,2.75111 5,3.01685 0,0.66145 0.09,0.69714 -5.25,-2.08258 z m -10.30887,-5.98944 c -1.86402,-1.49339 -1.85176,-1.51185 0.30887,-0.46481 1.2375,0.59969 2.25,1.29951 2.25,1.55516 0,0.76522 -0.51861,0.54424 -2.55887,-1.09035 z m -7.69113,-4.0168 c -3.73844,-2.02814 -3.51088,-2.87286 0.25,-0.92803 1.65,0.85325 3,1.7648 3,2.02568 0,0.6435 -0.10745,0.60721 -3.25,-1.09765 z M 112.32219,280.75 C 105.75149,273.6585 95.504212,261.66452 96.542722,262.28082 97.779332,263.01469 116.29923,284 115.71026,284 c -0.20721,0 -1.73184,-1.4625 -3.38807,-3.25 z m 189.36899,-0.32197 c -3.73844,-2.02814 -3.51088,-2.87286 0.25,-0.92803 1.65,0.85325 3,1.7648 3,2.02568 0,0.6435 -0.10745,0.60721 -3.25,-1.09765 z m -7.5,-4.54308 c -3.40851,-2.18287 -4.51156,-3.64875 -1.5,-1.99341 2.29443,1.26116 5.88883,4.0407 5.25,4.05981 -0.275,0.008 -1.9625,-0.92165 -3.75,-2.0664 z m -13.01335,-8.41152 c -2.88016,-1.93961 -5.23665,-3.74421 -5.23665,-4.01021 0,-0.26601 2.475,1.15966 5.5,3.16815 4.8057,3.1908 6.21756,4.36863 5.23665,4.36863 -0.14484,0 -2.61984,-1.58696 -5.5,-3.52657 z M 272.81362,261.25 c -1.24387,-1.58606 -1.2085,-1.62143 0.37756,-0.37756 1.66575,1.30637 2.19548,2.12756 1.37244,2.12756 -0.20765,0 -0.99515,-0.7875 -1.75,-1.75 z M 88.941182,254 c -3.413283,-3.85 -5.980969,-7 -5.705969,-7 0.275,0 3.292686,3.15 6.705969,7 3.413283,3.85 5.98097,7 5.70597,7 -0.275,0 -3.292687,-3.15 -6.70597,-7 z m 179.872438,4.25 c -1.24387,-1.58606 -1.2085,-1.62143 0.37756,-0.37756 0.9625,0.75485 1.75,1.54235 1.75,1.75 0,0.82304 -0.82119,0.29331 -2.12756,-1.37244 z m -7.37244,-5.35362 c -13.40618,-10.81141 -24.9523,-23.97286 -30.35925,-34.60654 -3.36646,-6.62073 -2.45461,-6.4541 1.15001,0.21016 1.78493,3.3 4.65326,8.025 6.37405,10.5 3.19189,4.59086 16.22522,17.56081 24.33519,24.21686 2.475,2.03129 4.275,3.69742 4,3.70251 -0.275,0.005 -2.75,-1.80525 -5.5,-4.02299 z M 65.79437,227.25 c -8.946468,-10.3125 -19.153511,-22.0125 -22.682316,-26 -3.528806,-3.9875 -6.16274,-7.25 -5.853188,-7.25 0.309552,0 7.88266,8.4375 16.829128,18.75 8.946468,10.3125 19.153511,22.0125 22.682316,26 3.528806,3.9875 6.16274,7.25 5.853188,7.25 -0.309552,0 -7.88266,-8.4375 -16.829128,-18.75 z M 227.44118,209 c -0.37968,-1.72866 -0.48187,-3.35146 -0.22711,-3.60623 0.25477,-0.25477 0.75072,0.97429 1.10211,2.73123 0.35139,1.75694 0.45359,3.37975 0.22711,3.60623 -0.22649,0.22648 -0.72243,-1.00257 -1.10211,-2.73123 z m -1.19013,-11.5 c 0.006,-3.3 0.1923,-4.52944 0.41486,-2.73209 0.22256,1.79735 0.21797,4.49735 -0.0102,6 -0.22818,1.50265 -0.41027,0.0321 -0.40466,-3.26791 z M 31.518729,187.76718 c -2.517651,-2.87806 -4.577547,-5.63874 -4.577547,-6.13486 0,-0.49612 0.975483,0.39615 2.167739,1.98282 1.192257,1.58667 3.530532,4.34736 5.196167,6.13486 1.665635,1.7875 2.750049,3.25 2.409808,3.25 -0.34024,0 -2.678516,-2.35477 -5.196167,-5.23282 z m 195.501401,0.64949 c 0.048,-1.16495 0.28494,-1.4019 0.60416,-0.60417 0.28887,0.72187 0.25335,1.58437 -0.0789,1.91667 -0.3323,0.33229 -0.56864,-0.25834 -0.52522,-1.3125 z m 2.78176,-7.1564 c 1.39765,-2.61153 7.93758,-7.27744 10.12142,-7.22113 0.83483,0.0215 0.15258,0.63393 -1.5161,1.36089 -1.66868,0.72697 -4.5551,2.84289 -6.41426,4.70205 -2.34528,2.34528 -3.01616,2.6999 -2.19106,1.15819 z M 29.441182,178 c 0.995486,-1.1 2.034975,-2 2.309975,-2 0.275,0 -0.314489,0.9 -1.309975,2 -0.995486,1.1 -2.034975,2 -2.309975,2 -0.275,0 0.314489,-0.9 1.309975,-2 z m 243.473798,-0.96264 c 1.26014,-0.79691 1.17895,-1.26583 -0.56011,-3.23469 -2.97151,-3.36419 -15.59049,-18.00952 -17.27815,-20.05267 -0.79503,-0.9625 -1.20901,-1.75 -0.91995,-1.75 0.60411,0 19.87698,22.48675 21.0841,24.60001 0.58675,1.02721 0.18734,1.39591 -1.5,1.38468 -1.81109,-0.0121 -1.98656,-0.21333 -0.82589,-0.94733 z m -7.1613,-1.72047 c 0.72187,-0.28887 1.58438,-0.25335 1.91667,0.0789 0.33229,0.33229 -0.25834,0.56864 -1.3125,0.52522 -1.16495,-0.048 -1.4019,-0.28494 -0.60417,-0.60416 z M 37.941182,167.5 c 3.370659,-4.125 6.353471,-7.5 6.628471,-7.5 0.275,0 -2.257812,3.375 -5.628471,7.5 -3.370659,4.125 -6.353471,7.5 -6.628471,7.5 -0.275,0 2.257812,-3.375 5.628471,-7.5 z m 222.749998,6.83772 c 0.6875,-0.27741 1.8125,-0.27741 2.5,0 0.6875,0.27741 0.125,0.50439 -1.25,0.50439 -1.375,0 -1.9375,-0.22698 -1.25,-0.50439 z m -16.5,-1.02705 c 0.9625,-0.25152 2.5375,-0.25152 3.5,0 0.9625,0.25153 0.175,0.45733 -1.75,0.45733 -1.925,0 -2.7125,-0.2058 -1.75,-0.45733 z m 8.5,-0.0164 c 1.2375,-0.23836 3.2625,-0.23836 4.5,0 1.2375,0.23835 0.225,0.43337 -2.25,0.43337 -2.475,0 -3.4875,-0.19502 -2.25,-0.43337 z M 48.941182,154 c 2.30243,-2.75 4.411237,-5 4.686237,-5 0.275,0 -1.383807,2.25 -3.686237,5 -2.30243,2.75 -4.411237,5 -4.686237,5 -0.275,0 1.383807,-2.25 3.686237,-5 z m 199.371468,-8.70932 c -2.67931,-3.14013 -4.34973,-5.38877 -3.71204,-4.99697 1.39712,0.85841 9.72626,10.70629 9.05516,10.70629 -0.2594,0 -2.66381,-2.5692 -5.34312,-5.70932 z M 55.441182,146 c 0.995486,-1.1 2.034975,-2 2.309975,-2 0.275,0 -0.314489,0.9 -1.309975,2 -0.995486,1.1 -2.034975,2 -2.309975,2 -0.275,0 0.314489,-0.9 1.309975,-2 z m 6.5,-8 c 2.30243,-2.75 4.411237,-5 4.686237,-5 0.275,0 -1.383807,2.25 -3.686237,5 -2.30243,2.75 -4.411237,5 -4.686237,5 -0.275,0 1.383807,-2.25 3.686237,-5 z m 173.499998,-8 c -4.19967,-4.95 -7.41076,-9 -7.13576,-9 0.275,0 3.93609,4.05 8.13576,9 4.19967,4.95 7.41076,9 7.13576,9 -0.275,0 -3.93609,-4.05 -8.13576,-9 z m -166.999998,0 c 0.995486,-1.1 2.034975,-2 2.309975,-2 0.275,0 -0.314489,0.9 -1.309975,2 -0.995486,1.1 -2.034975,2 -2.309975,2 -0.275,0 0.314489,-0.9 1.309975,-2 z m 6.5,-8 c 2.30243,-2.75 4.411237,-5 4.686237,-5 0.275,0 -1.383807,2.25 -3.686237,5 -2.30243,2.75 -4.411237,5 -4.686237,5 -0.275,0 1.383807,-2.25 3.686237,-5 z m 149.924308,-4.75 -2.42431,-2.75 2.75,2.42431 c 2.57029,2.26589 3.20859,3.07569 2.42431,3.07569 -0.17912,0 -1.41662,-1.2375 -2.75,-2.75 z M 85.941182,108.5 c 3.370659,-4.125 6.353471,-7.5 6.628471,-7.5 0.275,0 -2.257812,3.375 -5.628471,7.5 -3.370659,4.125 -6.353471,7.5 -6.628471,7.5 -0.275,0 2.257812,-3.375 5.628471,-7.5 z M 208.80789,98.25 c -7.29846,-8.6625 -17.93897,-21.2625 -23.6456,-28 C 179.45567,63.5125 175.02094,58 175.30733,58 c 0.2864,0 8.95314,10.0125 19.25943,22.25 10.3063,12.2375 20.95128,24.8375 23.65551,28 2.70424,3.1625 4.67801,5.75 4.38616,5.75 -0.29185,0 -6.50209,-7.0875 -13.80054,-15.75 z M 94.441182,98 c 0.99549,-1.1 2.03498,-2 2.30998,-2 0.275,0 -0.31449,0.9 -1.30998,2 -0.99549,1.1 -2.034975,2 -2.309975,2 -0.275,0 0.314489,-0.9 1.309975,-2 z m 4.5,-5.5 c 1.291748,-1.375 2.573628,-2.5 2.848628,-2.5 0.275,0 -0.55688,1.125 -1.848628,2.5 -1.29175,1.375 -2.57363,2.5 -2.84863,2.5 -0.275,0 0.55688,-1.125 1.84863,-2.5 z M 109.94118,79 c 4.45406,-5.5 8.32329,-10 8.59829,-10 0.275,0 -3.14423,4.5 -7.59829,10 -4.45406,5.5 -8.32329,10 -8.59829,10 -0.275,0 3.14423,-4.5 7.59829,-10 z m 13,-16 c 2.30243,-2.75 4.41124,-5 4.68624,-5 0.275,0 -1.38381,2.25 -3.68624,5 -2.30243,2.75 -4.41124,5 -4.68624,5 -0.275,0 1.38381,-2.25 3.68624,-5 z m 11,-13.5 c 3.37066,-4.125 6.35347,-7.5 6.62847,-7.5 0.275,0 -2.25781,3.375 -5.62847,7.5 -3.37066,4.125 -6.35347,7.5 -6.62847,7.5 -0.275,0 2.25781,-3.375 5.62847,-7.5 z m 37.92431,4.75 -2.42431,-2.75 2.75,2.424314 c 1.5125,1.333373 2.75,2.570873 2.75,2.75 0,0.784274 -0.8098,0.145975 -3.07569,-2.424314 z m -10.11851,-12 C 153.69078,32.633067 150.42665,28.396668 153.0789,31 c 2.71396,2.663914 17.01454,20 16.49804,20 -0.275,0 -3.79848,-3.9375 -7.82996,-8.75 z m -16.60307,-6.694187 c 2.3635,-2.994303 4.66957,-5.469303 5.12459,-5.5 0.45503,-0.0307 -1.28713,2.419187 -3.87147,5.444187 -6.04273,7.073089 -6.81939,7.10768 -1.25312,0.05581 z"
     style="fill:#679aa5" />
  <path
     inkscape:connector-curvature="0"
     id="path4352"
     d="m 248.94118,431.5 c 1.86578,-1.925 3.61733,-3.5 3.89233,-3.5 0.275,0 -1.02655,1.575 -2.89233,3.5 -1.86578,1.925 -3.61733,3.5 -3.89233,3.5 -0.275,0 1.02655,-1.575 2.89233,-3.5 z m -6.12756,0.75 c -1.24387,-1.58606 -1.2085,-1.62143 0.37756,-0.37756 1.66575,1.30637 2.19548,2.12756 1.37244,2.12756 -0.20765,0 -0.99515,-0.7875 -1.75,-1.75 z m -5.46745,-6.5 -1.90499,-2.25 2.25,1.90499 c 2.11444,1.79022 2.70524,2.59501 1.90499,2.59501 -0.18976,0 -1.20226,-1.0125 -2.25,-2.25 z m 20.59501,-4.25 c 1.86578,-1.925 3.61733,-3.5 3.89233,-3.5 0.275,0 -1.02655,1.575 -2.89233,3.5 -1.86578,1.925 -3.61733,3.5 -3.89233,3.5 -0.275,0 1.02655,-1.575 2.89233,-3.5 z m -27.07569,-3.25 -2.42431,-2.75 2.75,2.42431 c 2.57029,2.26589 3.20859,3.07569 2.42431,3.07569 -0.17912,0 -1.41662,-1.2375 -2.75,-2.75 z m 33.07569,-3.56291 c 0,-0.1721 1.4625,-1.6346 3.25,-3.25 l 3.25,-2.93709 -2.93709,3.25 c -2.73778,3.02946 -3.56291,3.70965 -3.56291,2.93709 z m -39.59501,-3.93709 -1.90499,-2.25 2.25,1.90499 c 2.11444,1.79022 2.70524,2.59501 1.90499,2.59501 -0.18976,0 -1.20226,-1.0125 -2.25,-2.25 z m -6.48068,-7.5 -2.42431,-2.75 2.75,2.42431 c 2.57029,2.26589 3.20859,3.07569 2.42431,3.07569 -0.17912,0 -1.41662,-1.2375 -2.75,-2.75 z m 55.07569,1.43709 c 0,-0.1721 1.4625,-1.6346 3.25,-3.25 l 3.25,-2.93709 -2.93709,3.25 c -2.73778,3.02946 -3.56291,3.70965 -3.56291,2.93709 z m -62.07569,-9.43709 -2.42431,-2.75 2.75,2.42431 c 2.57029,2.26589 3.20859,3.07569 2.42431,3.07569 -0.17912,0 -1.41662,-1.2375 -2.75,-2.75 z m 73.07569,-2.75 c 1.86578,-1.925 3.61733,-3.5 3.89233,-3.5 0.275,0 -1.02655,1.575 -2.89233,3.5 -1.86578,1.925 -3.61733,3.5 -3.89233,3.5 -0.275,0 1.02655,-1.575 2.89233,-3.5 z m -79.07569,-4.25 -2.42431,-2.75 2.75,2.42431 c 2.57029,2.26589 3.20859,3.07569 2.42431,3.07569 -0.17912,0 -1.41662,-1.2375 -2.75,-2.75 z m 85.07569,-2.56291 c 0,-0.1721 1.4625,-1.6346 3.25,-3.25 l 3.25,-2.93709 -2.93709,3.25 c -2.73778,3.02946 -3.56291,3.70965 -3.56291,2.93709 z m -92.07569,-5.43709 -2.42431,-2.75 2.75,2.42431 c 2.57029,2.26589 3.20859,3.07569 2.42431,3.07569 -0.17912,0 -1.41662,-1.2375 -2.75,-2.75 z m -6,-7 -2.42431,-2.75 2.75,2.42431 c 2.57029,2.26589 3.20859,3.07569 2.42431,3.07569 -0.17912,0 -1.41662,-1.2375 -2.75,-2.75 z m 109.07569,0.25 c 1.29175,-1.375 2.57363,-2.5 2.84863,-2.5 0.275,0 -0.55688,1.125 -1.84863,2.5 -1.29175,1.375 -2.57363,2.5 -2.84863,2.5 -0.275,0 0.55688,-1.125 1.84863,-2.5 z m -116.07569,-8.25 -2.42431,-2.75 2.75,2.42431 c 2.57029,2.26589 3.20859,3.07569 2.42431,3.07569 -0.17912,0 -1.41662,-1.2375 -2.75,-2.75 z m 122.07569,1.43709 c 0,-0.1721 1.4625,-1.6346 3.25,-3.25 l 3.25,-2.93709 -2.93709,3.25 c -2.73778,3.02946 -3.56291,3.70965 -3.56291,2.93709 z M 177.86549,357.25 l -2.42431,-2.75 2.75,2.42431 c 2.57029,2.26589 3.20859,3.07569 2.42431,3.07569 -0.17912,0 -1.41662,-1.2375 -2.75,-2.75 z m 140.07569,-2.75 c 1.86578,-1.925 3.61733,-3.5 3.89233,-3.5 0.275,0 -1.02655,1.575 -2.89233,3.5 -1.86578,1.925 -3.61733,3.5 -3.89233,3.5 -0.275,0 1.02655,-1.575 2.89233,-3.5 z m -146.07569,-4.25 -2.42431,-2.75 2.75,2.42431 c 2.57029,2.26589 3.20859,3.07569 2.42431,3.07569 -0.17912,0 -1.41662,-1.2375 -2.75,-2.75 z m 152.07569,-2.56291 c 0,-0.1721 1.4625,-1.6346 3.25,-3.25 l 3.25,-2.93709 -2.93709,3.25 c -2.73778,3.02946 -3.56291,3.70965 -3.56291,2.93709 z M 164.86549,342.25 l -2.42431,-2.75 2.75,2.42431 c 2.57029,2.26589 3.20859,3.07569 2.42431,3.07569 -0.17912,0 -1.41662,-1.2375 -2.75,-2.75 z m 168.07569,-4.56291 c 0,-0.1721 1.4625,-1.6346 3.25,-3.25 l 3.25,-2.93709 -2.93709,3.25 c -2.73778,3.02946 -3.56291,3.70965 -3.56291,2.93709 z M 158.34617,334.75 l -1.90499,-2.25 2.25,1.90499 c 2.11444,1.79022 2.70524,2.59501 1.90499,2.59501 -0.18976,0 -1.20226,-1.0125 -2.25,-2.25 z m -6.48068,-7.5 -2.42431,-2.75 2.75,2.42431 c 2.57029,2.26589 3.20859,3.07569 2.42431,3.07569 -0.17912,0 -1.41662,-1.2375 -2.75,-2.75 z m 190.07569,0.43709 c 0,-0.1721 1.4625,-1.6346 3.25,-3.25 l 3.25,-2.93709 -2.93709,3.25 c -2.73778,3.02946 -3.56291,3.70965 -3.56291,2.93709 z M 145.37827,319.75 l -2.93709,-3.25 3.25,2.93709 c 3.02946,2.73778 3.70965,3.56291 2.93709,3.56291 -0.1721,0 -1.6346,-1.4625 -3.25,-3.25 z m 207.56291,-4.25 c 1.86578,-1.925 3.61733,-3.5 3.89233,-3.5 0.275,0 -1.02655,1.575 -2.89233,3.5 -1.86578,1.925 -3.61733,3.5 -3.89233,3.5 -0.275,0 1.02655,-1.575 2.89233,-3.5 z m -214.07569,-3.25 -2.42431,-2.75 2.75,2.42431 c 2.57029,2.26589 3.20859,3.07569 2.42431,3.07569 -0.17912,0 -1.41662,-1.2375 -2.75,-2.75 z m -7,-8 -2.42431,-2.75 2.75,2.42431 c 2.57029,2.26589 3.20859,3.07569 2.42431,3.07569 -0.17912,0 -1.41662,-1.2375 -2.75,-2.75 z m 215.51682,0.19483 c -1.86402,-1.49339 -1.85176,-1.51185 0.30887,-0.46481 1.2375,0.59969 2.25,1.29951 2.25,1.55516 0,0.76522 -0.51861,0.54424 -2.55887,-1.09035 z M 125.34617,296.75 l -1.90499,-2.25 2.25,1.90499 c 2.11444,1.79022 2.70524,2.59501 1.90499,2.59501 -0.18976,0 -1.20226,-1.0125 -2.25,-2.25 z m -6.48068,-7.5 -2.42431,-2.75 2.75,2.42431 c 2.57029,2.26589 3.20859,3.07569 2.42431,3.07569 -0.17912,0 -1.41662,-1.2375 -2.75,-2.75 z m -6,-7 -2.42431,-2.75 2.75,2.42431 c 2.57029,2.26589 3.20859,3.07569 2.42431,3.07569 -0.17912,0 -1.41662,-1.2375 -2.75,-2.75 z m -7,-8 -2.42431,-2.75 2.75,2.42431 c 2.57029,2.26589 3.20859,3.07569 2.42431,3.07569 -0.17912,0 -1.41662,-1.2375 -2.75,-2.75 z m -6.999998,-8 -2.42431,-2.75 2.75,2.42431 C 101.76147,268.1902 102.39977,269 101.61549,269 c -0.17912,0 -1.41662,-1.2375 -2.749998,-2.75 z m -5.999996,-7 -2.424314,-2.75 2.75,2.42431 c 2.57029,2.26589 3.20859,3.07569 2.42431,3.07569 -0.17912,0 -1.41662,-1.2375 -2.749996,-2.75 z m 172.948124,-4 c -1.24387,-1.58606 -1.2085,-1.62143 0.37756,-0.37756 1.66575,1.30637 2.19548,2.12756 1.37244,2.12756 -0.20765,0 -0.99515,-0.7875 -1.75,-1.75 z m -179.948124,-4 -2.424314,-2.75 2.75,2.42431 C 88.761471,253.1902 89.39977,254 88.615496,254 c -0.179127,0 -1.416627,-1.2375 -2.75,-2.75 z m 174.948124,0 c -1.24387,-1.58606 -1.2085,-1.62143 0.37756,-0.37756 1.66575,1.30637 2.19548,2.12756 1.37244,2.12756 -0.20765,0 -0.99515,-0.7875 -1.75,-1.75 z m -12.39329,-11.5 -8.97915,-9.25 9.25,8.97915 c 5.0875,4.93853 9.25,9.10103 9.25,9.25 0,0.72605 -1.18122,-0.38796 -9.52085,-8.97915 z m -168.554834,4.5 -2.424314,-2.75 2.75,2.42431 C 82.761471,246.1902 83.39977,247 82.615496,247 c -0.179127,0 -1.416627,-1.2375 -2.75,-2.75 z m -7,-8 -2.424314,-2.75 2.75,2.42431 C 75.761471,238.1902 76.39977,239 75.615496,239 c -0.179127,0 -1.416627,-1.2375 -2.75,-2.75 z m -6.519326,-7.5 -1.904988,-2.25 2.25,1.90499 C 68.805627,230.19521 69.396423,231 68.59617,231 c -0.189757,0 -1.202257,-1.0125 -2.25,-2.25 z m -6.480674,-7.5 -2.424314,-2.75 2.75,2.42431 C 62.761471,223.1902 63.39977,224 62.615496,224 c -0.179127,0 -1.416627,-1.2375 -2.75,-2.75 z m -6.519326,-7.5 -1.904988,-2.25 2.25,1.90499 c 1.2375,1.04774 2.25,2.06024 2.25,2.25 0,0.80025 -0.804794,0.20945 -2.595012,-1.90499 z m -6.480674,-7.5 -2.424314,-2.75 2.75,2.42431 C 49.761471,208.1902 50.39977,209 49.615496,209 c -0.179127,0 -1.416627,-1.2375 -2.75,-2.75 z M 227.09907,203 c 0,-1.375 0.22698,-1.9375 0.50439,-1.25 0.27741,0.6875 0.27741,1.8125 0,2.5 -0.27741,0.6875 -0.50439,0.125 -0.50439,-1.25 z m -187.233574,-4.75 -2.424314,-2.75 2.75,2.42431 C 42.761471,200.1902 43.39977,201 42.615496,201 c -0.179127,0 -1.416627,-1.2375 -2.75,-2.75 z m -6,-7 -2.424314,-2.75 2.75,2.42431 C 36.761471,193.1902 37.39977,194 36.615496,194 c -0.179127,0 -1.416627,-1.2375 -2.75,-2.75 z M 227.09907,192 c 0,-1.375 0.22698,-1.9375 0.50439,-1.25 0.27741,0.6875 0.27741,1.8125 0,2.5 -0.27741,0.6875 -0.50439,0.125 -0.50439,-1.25 z M 27.813627,184.25 c -1.243871,-1.58606 -1.208501,-1.62143 0.377555,-0.37756 0.9625,0.75485 1.75,1.54235 1.75,1.75 0,0.82304 -0.821186,0.29331 -2.127555,-1.37244 z m 246.883783,-5.91436 c 0.69093,-0.27855 0.9589,-0.98755 0.59549,-1.57556 -0.39382,-0.63721 -0.18776,-0.77678 0.51008,-0.34549 1.37672,0.85086 0.55006,2.62054 -1.17082,2.50646 -0.85244,-0.0565 -0.83389,-0.22291 0.0652,-0.58541 z m -245.756228,-0.7132 c 0,-0.20765 0.7875,-0.99515 1.75,-1.75 1.586056,-1.24387 1.621426,-1.2085 0.377555,0.37756 -1.306369,1.66575 -2.127555,2.19548 -2.127555,1.37244 z m 233.812498,-2.30555 c 0.72187,-0.28887 1.58438,-0.25335 1.91667,0.0789 0.33229,0.33229 -0.25834,0.56864 -1.3125,0.52522 -1.16495,-0.048 -1.4019,-0.28494 -0.60417,-0.60416 z m -21.0625,-0.97917 c 0.6875,-0.27741 1.8125,-0.27741 2.5,0 0.6875,0.27741 0.125,0.50439 -1.25,0.50439 -1.375,0 -1.9375,-0.22698 -1.25,-0.50439 z m 16.0625,-0.0208 c 0.72187,-0.28887 1.58438,-0.25335 1.91667,0.0789 0.33229,0.33229 -0.25834,0.56864 -1.3125,0.52522 -1.16495,-0.048 -1.4019,-0.28494 -0.60417,-0.60416 z m 14.59249,-1.56692 -1.90499,-2.25 2.25,1.90499 c 2.11444,1.79022 2.70524,2.59501 1.90499,2.59501 -0.18976,0 -1.20226,-1.0125 -2.25,-2.25 z M 32.941182,172.62244 c 0,-0.20765 0.7875,-0.99515 1.75,-1.75 1.586056,-1.24387 1.621426,-1.2085 0.377555,0.37756 -1.306369,1.66575 -2.127555,2.19548 -2.127555,1.37244 z m 4,-5 c 0,-0.20765 0.7875,-0.99515 1.75,-1.75 1.586056,-1.24387 1.621426,-1.2085 0.377555,0.37756 -1.306369,1.66575 -2.127555,2.19548 -2.127555,1.37244 z M 265.86549,165.25 l -2.42431,-2.75 2.75,2.42431 c 2.57029,2.26589 3.20859,3.07569 2.42431,3.07569 -0.17912,0 -1.41662,-1.2375 -2.75,-2.75 z M 41.941182,161.62244 c 0,-0.20765 0.7875,-0.99515 1.75,-1.75 1.586056,-1.24387 1.621426,-1.2085 0.377555,0.37756 -1.306369,1.66575 -2.127555,2.19548 -2.127555,1.37244 z M 260.86549,159.25 l -2.42431,-2.75 2.75,2.42431 c 2.57029,2.26589 3.20859,3.07569 2.42431,3.07569 -0.17912,0 -1.41662,-1.2375 -2.75,-2.75 z M 45.941182,156.62244 c 0,-0.20765 0.7875,-0.99515 1.75,-1.75 1.586056,-1.24387 1.621426,-1.2085 0.377555,0.37756 -1.306369,1.66575 -2.127555,2.19548 -2.127555,1.37244 z M 255.34617,152.75 l -1.90499,-2.25 2.25,1.90499 c 2.11444,1.79022 2.70524,2.59501 1.90499,2.59501 -0.18976,0 -1.20226,-1.0125 -2.25,-2.25 z M 51.441182,150 c 0.995486,-1.1 2.034975,-2 2.309975,-2 0.275,0 -0.314489,0.9 -1.309975,2 -0.995486,1.1 -2.034975,2 -2.309975,2 -0.275,0 0.314489,-0.9 1.309975,-2 z m 199.904988,-2.25 -1.90499,-2.25 2.25,1.90499 c 1.2375,1.04774 2.25,2.06024 2.25,2.25 0,0.80025 -0.80479,0.20945 -2.59501,-1.90499 z M 54.941182,145.62244 c 0,-0.20765 0.7875,-0.99515 1.75,-1.75 1.586056,-1.24387 1.621426,-1.2085 0.377555,0.37756 -1.306369,1.66575 -2.127555,2.19548 -2.127555,1.37244 z M 245.86549,141.25 l -2.42431,-2.75 2.75,2.42431 c 2.57029,2.26589 3.20859,3.07569 2.42431,3.07569 -0.17912,0 -1.41662,-1.2375 -2.75,-2.75 z M 58.941182,140.62244 c 0,-0.20765 0.7875,-0.99515 1.75,-1.75 1.586056,-1.24387 1.621426,-1.2085 0.377555,0.37756 -1.306369,1.66575 -2.127555,2.19548 -2.127555,1.37244 z M 240.34617,134.75 l -1.90499,-2.25 2.25,1.90499 c 2.11444,1.79022 2.70524,2.59501 1.90499,2.59501 -0.18976,0 -1.20226,-1.0125 -2.25,-2.25 z M 64.441182,134 c 0.995486,-1.1 2.034975,-2 2.309975,-2 0.275,0 -0.314489,0.9 -1.309975,2 -0.995486,1.1 -2.034975,2 -2.309975,2 -0.275,0 0.314489,-0.9 1.309975,-2 z m 170.904988,-5.25 -1.90499,-2.25 2.25,1.90499 c 2.11444,1.79022 2.70524,2.59501 1.90499,2.59501 -0.18976,0 -1.20226,-1.0125 -2.25,-2.25 z m -167.404988,0.87244 c 0,-0.20765 0.7875,-0.99515 1.75,-1.75 1.586056,-1.24387 1.621426,-1.2085 0.377555,0.37756 -1.306369,1.66575 -2.127555,2.19548 -2.127555,1.37244 z m 4,-5 c 0,-0.20765 0.7875,-0.99515 1.75,-1.75 1.586056,-1.24387 1.621426,-1.2085 0.377555,0.37756 -1.306369,1.66575 -2.127555,2.19548 -2.127555,1.37244 z M 229.34617,121.75 l -1.90499,-2.25 2.25,1.90499 c 2.11444,1.79022 2.70524,2.59501 1.90499,2.59501 -0.18976,0 -1.20226,-1.0125 -2.25,-2.25 z M 77.441182,118 c 0.995486,-1.1 2.034975,-2 2.309975,-2 0.275,0 -0.314489,0.9 -1.309975,2 -0.995486,1.1 -2.034975,2 -2.309975,2 -0.275,0 0.314489,-0.9 1.309975,-2 z m 146.904988,-2.25 -1.90499,-2.25 2.25,1.90499 c 2.11444,1.79022 2.70524,2.59501 1.90499,2.59501 -0.18976,0 -1.20226,-1.0125 -2.25,-2.25 z M 80.941182,113.62244 c 0,-0.20765 0.7875,-0.99515 1.75,-1.75 1.586056,-1.24387 1.621426,-1.2085 0.377555,0.37756 -1.306369,1.66575 -2.127555,2.19548 -2.127555,1.37244 z M 219.34617,109.75 l -1.90499,-2.25 2.25,1.90499 c 2.11444,1.79022 2.70524,2.59501 1.90499,2.59501 -0.18976,0 -1.20226,-1.0125 -2.25,-2.25 z M 84.941182,108.62244 c 0,-0.20765 0.7875,-0.99515 1.75,-1.75 1.586056,-1.24387 1.621426,-1.2085 0.377555,0.37756 -1.306369,1.66575 -2.127555,2.19548 -2.127555,1.37244 z M 213.81362,103.25 c -1.24387,-1.58606 -1.2085,-1.62143 0.37756,-0.37756 1.66575,1.30637 2.19548,2.12756 1.37244,2.12756 -0.20765,0 -0.99515,-0.7875 -1.75,-1.75 z M 90.441182,102 c 0.995486,-1.1 2.034975,-2 2.309975,-2 0.275,0 -0.314489,0.9 -1.309975,2 -0.995486,1.1 -2.034975,2 -2.309975,2 -0.275,0 0.314489,-0.9 1.309975,-2 z M 208.81362,97.25 c -1.24387,-1.586056 -1.2085,-1.621426 0.37756,-0.377555 C 210.85693,98.17881 211.38666,99 210.56362,99 c -0.20765,0 -0.99515,-0.7875 -1.75,-1.75 z M 93.941182,97.622445 c 0,-0.207656 0.7875,-0.995156 1.75,-1.75 1.58606,-1.243871 1.62143,-1.208501 0.37756,0.377555 -1.30637,1.665748 -2.12756,2.19548 -2.12756,1.372445 z M 99.441182,91 c 0.995488,-1.1 2.034978,-2 2.309978,-2 0.275,0 -0.31449,0.9 -1.30998,2 -0.995488,1.1 -2.034978,2 -2.309978,2 -0.275,0 0.31449,-0.9 1.30998,-2 z m 103.904988,-0.25 -1.90499,-2.25 2.25,1.904988 C 205.80562,92.195206 206.39642,93 205.59617,93 c -0.18976,0 -1.20226,-1.0125 -2.25,-2.25 z M 103.44118,86 c 0.99549,-1.1 2.03498,-2 2.30998,-2 0.275,0 -0.31449,0.9 -1.30998,2 -0.99549,1.1 -2.03498,2 -2.30998,2 -0.275,0 0.31449,-0.9 1.30998,-2 z m 94.90499,-1.25 -1.90499,-2.25 2.25,1.904988 C 200.80562,86.195206 201.39642,87 200.59617,87 c -0.18976,0 -1.20226,-1.0125 -2.25,-2.25 z m -91.40499,-3.127555 c 0,-0.207656 0.7875,-0.995156 1.75,-1.75 1.58606,-1.243871 1.62143,-1.208501 0.37756,0.377555 -1.30637,1.665748 -2.12756,2.195479 -2.12756,1.372445 z M 192.81362,78.25 c -1.24387,-1.586056 -1.2085,-1.621426 0.37756,-0.377555 0.9625,0.754844 1.75,1.542344 1.75,1.75 0,0.823034 -0.82119,0.293303 -2.12756,-1.372445 z m -81.87244,-1.627555 c 0,-0.207656 0.7875,-0.995156 1.75,-1.75 1.58606,-1.243871 1.62143,-1.208501 0.37756,0.377555 -1.30637,1.665748 -2.12756,2.195479 -2.12756,1.372445 z M 187.34617,71.75 l -1.90499,-2.25 2.25,1.904988 C 189.80562,73.195206 190.39642,74 189.59617,74 c -0.18976,0 -1.20226,-1.0125 -2.25,-2.25 z M 116.44118,70 c 0.99549,-1.1 2.03498,-2 2.30998,-2 0.275,0 -0.31449,0.9 -1.30998,2 -0.99549,1.1 -2.03498,2 -2.30998,2 -0.275,0 0.31449,-0.9 1.30998,-2 z m 65.90499,-4.25 -1.90499,-2.25 2.25,1.904988 C 184.80562,67.195206 185.39642,68 184.59617,68 c -0.18976,0 -1.20226,-1.0125 -2.25,-2.25 z m -62.40499,-0.127555 c 0,-0.207656 0.7875,-0.995156 1.75,-1.75 1.58606,-1.243871 1.62143,-1.208501 0.37756,0.377555 -1.30637,1.665748 -2.12756,2.195479 -2.12756,1.372445 z M 125.44118,59 c 0.99549,-1.1 2.03498,-2 2.30998,-2 0.275,0 -0.31449,0.9 -1.30998,2 -0.99549,1.1 -2.03498,2 -2.30998,2 -0.275,0 0.31449,-0.9 1.30998,-2 z m 50.90499,-0.25 -1.90499,-2.25 2.25,1.904988 C 178.80562,60.195206 179.39642,61 178.59617,61 c -0.18976,0 -1.20226,-1.0125 -2.25,-2.25 z m -47.40499,-4.127555 c 0,-0.207656 0.7875,-0.995156 1.75,-1.75 1.58606,-1.243871 1.62143,-1.208501 0.37756,0.377555 -1.30637,1.665748 -2.12756,2.195479 -2.12756,1.372445 z M 171.34617,52.75 l -1.90499,-2.25 2.25,1.904988 C 173.80562,54.195206 174.39642,55 173.59617,55 c -0.18976,0 -1.20226,-1.0125 -2.25,-2.25 z m -38.40499,-3.127555 c 0,-0.207656 0.7875,-0.995156 1.75,-1.75 1.58606,-1.243871 1.62143,-1.208501 0.37756,0.377555 -1.30637,1.665748 -2.12756,2.195479 -2.12756,1.372445 z M 166.34617,46.75 l -1.90499,-2.25 2.25,1.904988 c 1.2375,1.047743 2.25,2.060243 2.25,2.25 0,0.800253 -0.80479,0.209457 -2.59501,-1.904988 z M 138.44118,43 c 0.99549,-1.1 2.03498,-2 2.30998,-2 0.275,0 -0.31449,0.9 -1.30998,2 -0.99549,1.1 -2.03498,2 -2.30998,2 -0.275,0 0.31449,-0.9 1.30998,-2 z m 22.37244,-2.75 c -1.24387,-1.586056 -1.2085,-1.621426 0.37756,-0.377555 C 162.85693,41.178814 163.38666,42 162.56362,42 c -0.20765,0 -0.99515,-0.7875 -1.75,-1.75 z M 142.44118,38 c 0.99549,-1.1 2.03498,-2 2.30998,-2 0.275,0 -0.31449,0.9 -1.30998,2 -0.99549,1.1 -2.03498,2 -2.30998,2 -0.275,0 0.31449,-0.9 1.30998,-2 z m 13.37244,-3.75 c -1.24387,-1.586056 -1.2085,-1.621426 0.37756,-0.377555 C 157.85693,35.178814 158.38666,36 157.56362,36 c -0.20765,0 -0.99515,-0.7875 -1.75,-1.75 z m -9.87244,-0.627555 c 0,-0.207656 0.7875,-0.995156 1.75,-1.75 1.58606,-1.243871 1.62143,-1.208501 0.37756,0.377555 -1.30637,1.665748 -2.12756,2.195479 -2.12756,1.372445 z"
     style="fill:#517a85" />
  <path
     inkscape:connector-curvature="0"
     id="path4350"
     d="m 415.94118,337.31073 c -5.775,-3.61119 -20.4,-12.94379 -32.5,-20.73911 -12.1,-7.79533 -27.80331,-17.71186 -34.89624,-22.03674 -22.43505,-13.67968 -55.19102,-36.28095 -54.12577,-37.3462 0.29479,-0.29479 2.44534,0.88522 4.779,2.62226 9.57124,7.12425 40.16865,27.44885 53.44742,35.50294 7.81243,4.73853 18.16243,11.18138 23,14.31744 24.66235,15.98789 40.36776,26.01177 45.54559,29.0692 3.1625,1.86741 5.75,3.82373 5.75,4.34738 0,1.24119 0.96278,1.74334 -11,-5.73717 z m 16.5,-85.25468 c -7.67308,-1.90297 -8.90494,-2.40283 -44.5,-18.05691 -31.23965,-13.73865 -53.94006,-22.706 -71,-28.04717 C 304.6992,202.11922 299.60919,200 302.64558,200 c 0.60742,0 7.533,2.07001 15.39017,4.60003 16.27887,5.24181 42.56613,15.63135 67.40543,26.6407 32.42385,14.371 42.99417,18.53797 50.25,19.80929 3.9875,0.69865 7.25,1.64822 7.25,2.11013 0,1.16269 -2.36102,0.91443 -10.5,-1.1041 z"
     style="fill:#ab3469" />
  <path
     inkscape:connector-curvature="0"
     id="path4348"
     d="m 240.94118,451.35861 c -1.375,-0.8735 -30.4,-33.77081 -64.5,-73.10515 C 111.64629,303.51258 66.876981,251.90676 33.92135,213.97012 10.425524,186.92306 8.941182,185.01092 8.941182,181.79047 8.941182,178.71184 2.5379654,186.88257 69.903855,104 100.97264,65.775 130.85484,28.980052 136.30872,22.233449 146.24193,9.945818 148.55566,8.184456 153.22429,9.356208 154.68567,9.722992 181.75867,41.164518 228.445,96.714616 268.56069,144.44658 302.5852,184.625 304.05503,186 c 1.46983,1.375 6.20801,3.79181 10.52929,5.3707 12.39407,4.52848 35.75915,15.32622 63.38955,29.2943 14.00702,7.08102 33.79231,16.42706 43.96731,20.76899 19.83457,8.46392 23.53236,10.57688 18.46429,10.5507 -1.88166,-0.01 -2.50178,-0.30889 -1.69792,-0.81913 0.80875,-0.51336 -5.6957,-3.81829 -18,-9.14588 -10.59651,-4.58813 -32.99137,-15.21329 -49.76637,-23.61146 -26.71861,-13.37631 -49.42776,-23.74172 -62.4919,-28.52392 -3.03701,-1.11172 -6.10828,-3.96374 -12.83932,-11.92278 -4.86608,-5.75384 -37.94472,-45.08604 -73.5081,-87.4049 -35.56337,-42.318858 -65.44818,-77.756358 -66.41068,-78.75 -2.76073,-2.850057 -6.91481,-2.27516 -10.42953,1.44338 -2.94348,3.114176 -126.962493,155.43006 -132.591557,162.84439 -2.967593,3.90877 -3.320243,6.24021 -1.443476,9.5431 2.039313,3.58895 228.673243,264.27003 230.694673,265.35186 1.03862,0.55586 3.22306,1.01065 4.85429,1.01065 3.54707,0 1.26195,2.43286 73.02867,-77.75 30.74284,-34.34808 51.94118,-57.25 52.99141,-57.25 0.96276,0 10.72686,5.46947 21.698,12.15437 10.97114,6.6849 21.74752,13.20448 23.94752,14.48795 5.64134,3.29114 9.38494,3.03448 6.50357,-0.44589 -0.54803,-0.66197 -0.2615,-0.56186 0.63675,0.22246 0.89824,0.78431 1.36701,2.11962 1.04171,2.96734 -0.94981,2.47517 -5.33418,0.40338 -25.18203,-11.89948 -9.9,-6.13661 -20.30232,-12.43655 -23.11627,-13.99988 -5.10206,-2.83453 -5.12304,-2.83707 -7.56022,-0.91465 -1.34418,1.06028 -28.00222,30.50278 -59.2401,65.42778 -31.23787,34.925 -57.89836,64.5125 -59.24554,65.75 -2.89039,2.65509 -7.70924,2.91377 -11.33787,0.60861 z M 243.57853,433.75 c -1.3608,-1.2375 -29.39839,-33.31528 -62.30576,-71.28395 C 148.36539,324.49738 100.06618,268.78681 73.941182,238.66478 41.912771,201.73613 26.448388,183.18128 26.463304,181.69872 26.494708,178.57752 148.85744,27.997333 151.12799,28.28574 c 1.9263,0.244679 126.81319,148.34032 126.81319,150.37992 0,1.5047 -2.50875,1.63924 -5.5,0.29496 -1.79707,-0.80762 -1.74634,-0.87659 0.5,-0.67972 1.375,0.12051 2.69171,-0.18507 2.92602,-0.67905 0.23431,-0.49399 -4.26569,-6.48622 -10,-13.31608 C 186.80569,70.119472 152.18961,29.5 151.00219,29.5 148.9453,29.5 26.795743,180.07186 27.15263,182.16743 c 0.158704,0.93188 8.613552,11.28313 18.788552,23.00277 10.175,11.71964 58.702598,67.66324 107.839108,124.31912 49.1365,56.65587 90.13083,103.5828 91.09851,104.28207 1.57142,1.13555 4.36655,-1.64007 26.16089,-25.97826 13.42082,-14.98731 38.46949,-42.93101 55.66371,-62.09711 17.19422,-19.1661 31.00119,-35.26981 30.68215,-35.78603 -0.31904,-0.51621 -2.34954,-1.84129 -4.51222,-2.9446 -2.16268,-1.10332 -3.93215,-2.22947 -3.93215,-2.50256 0,-0.27309 2.25,0.64364 5,2.03717 2.75,1.39353 5,2.96474 5,3.49157 C 358.94118,310.91323 247.2786,436 246.45585,436 c -0.22173,0 -1.51652,-1.0125 -2.87732,-2.25 z m 174.80378,-94.30517 c -1.86402,-1.49339 -1.85176,-1.51185 0.30887,-0.46481 1.2375,0.59969 2.25,1.29951 2.25,1.55516 0,0.76522 -0.51861,0.54424 -2.55887,-1.09035 z m -78.69113,-39.50692 c -4.2625,-2.17916 -7.75,-4.18669 -7.75,-4.46117 0,-0.27449 3.6,1.31098 8,3.52326 4.4,2.21228 8,4.2423 8,4.51116 0,0.67372 0.37427,0.83582 -8.25,-3.57325 z m -15,-8.00204 c -3.1625,-1.63236 -5.75,-3.1922 -5.75,-3.4663 0,-0.2741 2.7,0.8646 6,2.53043 3.3,1.66583 6,3.24731 6,3.5144 0,0.66669 0.18543,0.74319 -6.25,-2.57853 z m -10,-5.50784 c -3.73844,-2.02814 -3.51088,-2.87286 0.25,-0.92803 1.65,0.85325 3,1.7648 3,2.02568 0,0.6435 -0.10745,0.60721 -3.25,-1.09765 z m -7,-4 c -3.73844,-2.02814 -3.51088,-2.87286 0.25,-0.92803 1.65,0.85325 3,1.7648 3,2.02568 0,0.6435 -0.10745,0.60721 -3.25,-1.09765 z m -9.93751,-5.86279 C 266.44663,257.68682 241.83188,235.88013 233.0579,219.25 c -2.38996,-4.52991 -0.29665,-2.07918 3.41662,4 2.09969,3.4375 7.67615,10.22278 12.39214,15.0784 11.9522,12.30609 23.64368,21.09124 53.71574,40.36279 4.25462,2.72656 0.41511,1.03613 -4.82873,-2.12595 z M 300.81362,263.25 c -1.24387,-1.58606 -1.2085,-1.62143 0.37756,-0.37756 0.9625,0.75485 1.75,1.54235 1.75,1.75 0,0.82304 -0.82119,0.29331 -2.12756,-1.37244 z m -14.56059,-10.5 c -23.29593,-18.65034 -39.246,-39.95495 -40.99989,-54.76381 -0.78054,-6.59041 0.7095,-7.98619 8.5255,-7.98619 6.25869,0 40.12435,6.31488 45.84169,8.54804 2.10147,0.82081 2.69585,1.22655 1.32085,0.90164 -1.375,-0.32491 -11.25971,-2.35901 -21.96602,-4.52022 -20.97503,-4.23407 -29.97336,-4.91235 -32.04555,-2.41552 -2.78229,3.35246 1.80625,17.50391 9.13512,28.17351 4.58327,6.67245 18.80139,21.25604 28.37645,29.10586 9.79665,8.03147 11.10806,9.20669 10.27361,9.20669 -0.36023,0 -4.16802,-2.8125 -8.46176,-6.25 z m -55.68831,-38.28866 c -0.96498,-2.51469 -0.68031,-3.16355 0.49853,-1.13634 0.58369,1.00375 0.8506,2.03566 0.59313,2.29313 -0.25747,0.25747 -0.74872,-0.26309 -1.09166,-1.15679 z m -1.98288,-5.67168 C 228.2445,207.53035 228.01165,205.375 228.0644,204 c 0.0565,-1.47317 0.45333,-0.67762 0.96611,1.93691 0.91858,4.68359 0.59422,6.74593 -0.44867,2.85275 z M 227.19336,197.5 c 0.0111,-2.2 0.21589,-2.98225 0.45508,-1.73834 0.23919,1.24391 0.23011,3.04391 -0.0202,4 -0.25029,0.95609 -0.446,-0.0617 -0.4349,-2.26166 z m 0.94277,-7 c 0.0204,-1.65 0.2445,-2.20394 0.49804,-1.23097 0.25354,0.97297 0.23687,2.32297 -0.0371,3 -0.27393,0.67703 -0.48137,-0.11903 -0.46099,-1.76903 z m 0.84419,-4.67327 c -0.0916,-3.91602 8.85008,-10.96883 13.61199,-10.73654 1.01688,0.0496 0.33152,0.52668 -1.52301,1.06017 -4.71817,1.35727 -9.15686,4.81388 -10.72192,8.34964 -0.75117,1.69702 -1.34492,2.27325 -1.36706,1.32673 z M 264.94118,177 c -2.00973,-0.64363 -2.10779,-0.8064 -0.5,-0.83003 1.1,-0.0162 2.9,0.35734 4,0.83003 2.54822,1.09501 -0.0808,1.09501 -3.5,0 z m -6.25,-1.66228 c 0.6875,-0.27741 1.8125,-0.27741 2.5,0 0.6875,0.27741 0.125,0.50439 -1.25,0.50439 -1.375,0 -1.9375,-0.22698 -1.25,-0.50439 z m -11,-1.06112 c 1.7875,-0.22182 4.7125,-0.22182 6.5,0 1.7875,0.22183 0.325,0.40333 -3.25,0.40333 -3.575,0 -5.0375,-0.1815 -3.25,-0.40333 z"
     style="fill:#596163" />
  <path
     inkscape:connector-curvature="0"
     id="path4346"
     d="M 241.71445,450.93292 C 239.73525,449.77954 13.073829,188.88837 11.226617,185.63749 9.34985,182.3346 9.7025,180.00316 12.670093,176.09439 18.299157,168.68006 142.31817,16.364176 145.26165,13.25 c 3.51472,-3.71854 7.6688,-4.293437 10.42953,-1.44338 0.9625,0.993642 30.84731,36.431142 66.41068,78.75 35.56338,42.31886 68.64202,81.65106 73.5081,87.4049 6.73104,7.95904 9.80231,10.81106 12.83932,11.92278 13.06414,4.7822 35.77329,15.14761 62.4919,28.52392 16.775,8.39817 39.16028,19.01916 49.74507,23.60219 10.58479,4.58303 19.03603,8.54182 18.78055,8.7973 -0.25549,0.25549 -3.07738,-0.0495 -6.27088,-0.67781 -5.50331,-1.08271 -16.26662,-5.47081 -54.25474,-22.11915 -41.92331,-18.37294 -73.27521,-29.03055 -101.50855,-34.50633 -19.20621,-3.72498 -27.97362,-4.33477 -30.95722,-2.15311 -3.9712,2.90382 0.69225,18.22878 9.14843,30.06344 8.895,12.44881 23.90067,26.91863 39.19464,37.79501 17.1714,12.21152 40.20949,27.51828 56.1227,37.28853 9.625,5.90947 29.425,18.41062 44,27.78034 14.575,9.36971 27.5125,17.65046 28.75,18.40166 2.68357,1.62901 2.93986,3.32446 0.5,3.30766 -2.02187,-0.0139 -3.04774,-0.59541 -29.69752,-16.83358 C 383.52252,322.46947 373.75842,317 372.79566,317 c -1.05023,0 -22.24857,22.90192 -52.99141,57.25 -72.4342,80.92861 -69.44552,77.75596 -73.21293,77.71959 -1.73258,-0.0167 -3.92717,-0.48323 -4.87687,-1.03667 z m 61.24024,-77.51911 c 30.85263,-34.42241 55.94933,-63.02529 55.77044,-63.56197 -0.17889,-0.53667 -10.21596,-6.25515 -22.3046,-12.70772 -12.08864,-6.45257 -26.47935,-14.37249 -31.97935,-17.59982 -40.51334,-23.7727 -66.96294,-48.08771 -74.01907,-68.04543 -2.13176,-6.02952 -2.49245,-20.33241 -0.64732,-25.6693 3.5184,-10.17674 17.23383,-13.28412 36.76523,-8.32957 11.48408,2.91318 11.40116,2.9047 11.40116,1.16566 0,-2.0396 -124.88689,-150.135241 -126.81319,-150.37992 -2.27055,-0.288407 -124.633282,150.29178 -124.664686,153.41298 -0.01492,1.48256 15.449467,20.03741 47.477878,56.96606 26.124998,30.12203 74.424208,85.8326 107.331588,123.80127 C 235.70942,425.2753 245.21617,436 246.45585,436 c 0.22173,0 25.64621,-28.16379 56.49884,-62.58619 z"
     style="fill:#060607" />
</svg>
