<?xml version="1.0" encoding="UTF-8" standalone="no"?>
<!-- Created with Inkscape (http://www.inkscape.org/) -->

<svg
   xmlns:dc="http://purl.org/dc/elements/1.1/"
   xmlns:cc="http://creativecommons.org/ns#"
   xmlns:rdf="http://www.w3.org/1999/02/22-rdf-syntax-ns#"
   xmlns:svg="http://www.w3.org/2000/svg"
   xmlns="http://www.w3.org/2000/svg"
   xmlns:sodipodi="http://sodipodi.sourceforge.net/DTD/sodipodi-0.dtd"
   xmlns:inkscape="http://www.inkscape.org/namespaces/inkscape"
   id="svg3039"
   version="1.1"
   inkscape:version="0.48.4 r9939"
   width="1037.1124"
   height="1037"
   sodipodi:docname="4515.jpg">
  <metadata
     id="metadata3045">
    <rdf:RDF>
      <cc:Work
         rdf:about="">
        <dc:format>image/svg+xml</dc:format>
        <dc:type
           rdf:resource="http://purl.org/dc/dcmitype/StillImage" />
        <dc:title></dc:title>
      </cc:Work>
    </rdf:RDF>
  </metadata>
  <defs
     id="defs3043" />
  <sodipodi:namedview
     pagecolor="#ffffff"
     bordercolor="#666666"
     borderopacity="1"
     objecttolerance="10"
     gridtolerance="10"
     guidetolerance="10"
     inkscape:pageopacity="0"
     inkscape:pageshadow="2"
     inkscape:window-width="820"
     inkscape:window-height="716"
     id="namedview3041"
     showgrid="false"
     fit-margin-top="0"
     fit-margin-left="0"
     fit-margin-right="0"
     fit-margin-bottom="0"
     inkscape:zoom="0.12014197"
     inkscape:cx="1750.601"
     inkscape:cy="-415.05768"
     inkscape:window-x="488"
     inkscape:window-y="24"
     inkscape:window-maximized="0"
     inkscape:current-layer="svg3039" />
  <path
     sodipodi:nodetypes="cscsscscsscssccscssccssscssssccscscsssssssscssccccsscsssc"
     inkscape:connector-curvature="0"
     id="path3069"
     d="m 114.884,846.45171 c -7.4303,-1.7996 -17.522,-6.2339 -26.2379,-11.529 -10.3078,-6.2621 -21.921,-15.4388 -23.2616,-18.381 -1.7812,-3.9094 -1.5608,-50.71958 0.3233,-68.65658 1.9731,-18.7845 6.3102,-39.6145 11.453,-55.0059 4.4279,-13.2517 13.6509,-33.0089 19.462,-41.6908 1.9649,-2.9355 3.5725,-5.7848 3.5725,-6.3317 0,-0.5469 -1.6087,-2.9577 -3.575,-5.3572 -4.8733,-5.9473 -7.425,-13.0964 -7.425,-20.803 0,-14.1321 6.1509,-23.6708 19.5267,-30.2815 7.9256,-3.917 7.7219,-3.6039 9.0367,-13.8893 0.9497,-7.4287 4.3038,-22.8924 6.9892,-32.2225 9.1526,-31.7997 29.2048,-61.1198 53.3517,-78.0103 3.6276,-2.5375 7.0129,-4.9753 7.5228,-5.4175 0.5166,-0.4479 -0.8117,-1.5251 -3,-2.4329 -3.244,-1.3457 -115.1947,-49.1038 -168.2747,-71.7858 L 0,378.52573 l 0.6235,-4.5 c 0.3429,-2.475 1.2062,-7.2 1.9185,-10.5 l 1.2951,-6 4.4291,-0.7719 c 2.436,-0.4246 56.4041,-5.7237 119.9291,-11.7759 123.0124,-11.7197 188.8582,-18.0205 214,-20.4777 20.5472,-2.0081 77.3266,-7.4534 125,-11.9879 l 38.5,-3.6618 61,22.9699 c 33.55,12.6334 92.05,34.6682 130,48.9662 37.95,14.298 100.725,37.9422 139.5,52.5427 38.775,14.6004 99.3,37.3995 134.5,50.6646 35.2,13.2652 64.6662,24.7812 65.4805,25.5913 1.1125,1.1068 1.2144,1.9037 0.4097,3.2067 -0.5889,0.9536 -1.8615,4.9776 -2.828,8.9423 -0.9665,3.9647 -2.3807,7.7259 -3.1425,8.3582 -0.7619,0.6323 -55.5055,9.4568 -121.6525,19.61 -66.5064,10.2083 -120.7895,18.9885 -121.4356,19.6418 -1.3585,1.3737 -7.5786,38.8529 -16.7924,101.1815 -11.5683,78.2557 -11.0322,76.0377 -20.4938,84.7974 -22.4102,20.748 -59.8688,33.2895 -112.5454,37.6815 -17.7629,1.4809 -63.1694,1.2304 -86,-0.4746 -137.0449,-10.2345 -284.9106,-57.8525 -335.1068,-107.9163 -11.3295,-11.2996 -18.3932,-24.2418 -18.3932,-33.7005 0,-2.0896 6.7737,-41.6673 15.0527,-87.9504 8.279,-46.2831 14.9165,-84.8401 14.75,-85.6823 -0.2957,-1.4957 -15.523,-8.0607 -18.9992,-8.1911 -3.1226,-0.1172 -22.9348,14.107 -31.7852,22.8201 -19.5866,19.2828 -31.2711,40.4748 -38.3838,69.6162 -2.5209,10.3282 -4.9608,23.5337 -4.4341,23.9985 0.1648,0.1454 3.0161,1.6258 6.3362,3.2897 7.0439,3.5299 13.6917,10.3131 16.6531,16.9921 1.5388,3.4703 2.1031,6.8375 2.1321,12.7197 0.045,9.2159 -1.8056,14.3668 -7.6703,21.3446 -2.0083,2.3895 -3.6515,4.5571 -3.6515,4.8167 0,0.2597 1.0754,1.9046 2.3897,3.6554 15.8702,21.1399 24.2211,72.1236 24.7097,150.8559 0.1674,26.97428 0.5837,25.43148 -9.2474,34.27048 -6.6228,5.9545 -15.7467,10.9956 -23.4963,12.982 -7.45,1.9096 -19.7842,1.91 -27.667,9e-4 z"
     style="fill:#f6d7b1" />
  <path
     sodipodi:nodetypes="csccssscsssccscsscscssscsscsccscssssssscscccsssscsssssscc"
     inkscape:connector-curvature="0"
     id="path3067"
     d="m 119.6953,845.37781 c -8.0297,-1.6723 -12.3359,-3.237 -22,-7.994 -11.4084,-5.6156 -27.3935,-16.7391 -30.1914,-21.0093 -1.3709,-2.0922 -1.6065,-6.22828 -1.6038,-28.15038 0,-26.3239 0.939,-39.0082 4.367,-59.1939 5.4083,-31.8469 15.3214,-57.7668 31.5994,-82.6237 1.2649,-1.9315 1.061,-2.509 -2.2946,-6.5 -2.0256,-2.4091 -4.793,-6.7887 -6.1498,-9.7323 -2.1545,-4.6744 -2.4102,-6.3837 -2.0195,-13.5 0.3076,-5.6026 1.0998,-9.4115 2.5358,-12.1929 2.9383,-5.6911 10.3389,-12.1642 17.7482,-15.5237 l 6.3115,-2.8618 0.692,-5.2848 c 4.4475,-33.9619 16.2622,-66.1597 31.8472,-86.7911 7.7269,-10.2287 19.689,-21.8565 29.7637,-28.9317 4.0669,-2.856 7.3943,-5.6466 7.3943,-6.2014 0,-1.0113 -6.7393,-3.945 -122.5,-53.3267 -34.375,-14.6638 -63.0271,-27.1952 -63.6714,-27.8476 -0.896,-0.9073 -0.6608,-3.3701 1,-10.4732 1.7499,-7.4845 2.5596,-9.3753 4.1714,-9.742 1.1,-0.2502 81.875,-8.1013 179.5,-17.4469 97.625,-9.3455 203.375,-19.492 235,-22.5476 31.625,-3.0556 63.6207,-6.0729 71.1015,-6.7051 l 13.6015,-1.1494 102.3985,38.5643 c 56.3192,21.2103 175.0735,65.9105 263.8985,99.3337 88.825,33.4232 162.0932,61.3135 162.8181,61.9786 1.0893,0.9991 1.0581,2.0592 -0.1796,6.1052 -0.8238,2.6929 -2.092,6.9132 -2.8182,9.3785 -0.9679,3.286 -1.9876,4.7002 -3.8203,5.2986 -1.375,0.449 -56.17,9.0519 -121.7666,19.1176 -65.5966,10.0658 -119.5024,18.5371 -119.7905,18.8253 -1.052,1.0519 -8.9169,50.0721 -19.8591,123.7762 -3.5519,23.925 -7.3907,46.493 -8.5306,50.1512 -1.7928,5.7534 -2.915,7.4315 -8.3129,12.4305 -18.1925,16.8484 -44.6394,27.6811 -83.8714,34.3538 -38.3421,6.5213 -97.1552,6.1261 -154.3689,-1.0374 -87.8789,-11.0029 -177.1349,-35.9053 -238.5,-66.5415 -37.6188,-18.781 -60.971,-37.4158 -70.1148,-55.9509 -4.248,-8.611 -4.8139,-13.9567 -2.7424,-25.9057 0.9534,-5.5 7.8721,-44.3359 15.3747,-86.302 13.9099,-77.8055 14.0822,-79.1556 10.1101,-79.2148 -0.6202,-0.01 -4.9177,-1.5538 -9.55,-3.4324 l -8.4225,-3.4155 -3.5775,1.8266 c -10.1646,5.1898 -26.5057,18.4789 -35.7071,29.0381 -14.4635,16.5979 -24.6012,35.9014 -30.46,58 -2.5741,9.7092 -5.8846,28.904 -5.2639,30.5214 0.2651,0.6908 2.5892,2.0607 5.1648,3.0443 6.3274,2.4165 14.4326,10.2726 17.2629,16.7325 4.743,10.8252 2.6609,23.2171 -5.5934,33.2904 -1.9145,2.3364 -3.4809,4.5655 -3.4809,4.9536 0,0.3881 1.7694,3.3553 3.932,6.5938 14.3986,21.5621 22.7636,71.7482 23.1457,138.864 0.2107,37.01838 1.0041,32.37228 -6.8277,39.98488 -7.5166,7.3063 -17.766,13.171 -26.0492,14.9055 -5.1039,1.0687 -16.5581,1.3238 -20.7008,0.4611 z"
     style="fill:#99989b" />
  <path
     sodipodi:nodetypes="csccssscsssccsccsccccsscssssccscscsssssssccsccssscsssssscc"
     inkscape:connector-curvature="0"
     id="path3065"
     d="m 119.6953,845.37721 c -8.0297,-1.6723 -12.3359,-3.237 -22,-7.994 -11.4084,-5.6156 -27.3935,-16.7391 -30.1914,-21.0093 -1.3709,-2.0922 -1.6065,-6.22828 -1.6038,-28.15038 0,-26.3239 0.939,-39.0082 4.367,-59.1939 5.4083,-31.8469 15.3214,-57.7668 31.5994,-82.6237 1.2649,-1.9315 1.061,-2.509 -2.2946,-6.5 -2.0256,-2.4091 -4.793,-6.7887 -6.1498,-9.7323 -2.1545,-4.6744 -2.4102,-6.3837 -2.0195,-13.5 0.3076,-5.6026 1.0998,-9.4115 2.5358,-12.1929 2.9383,-5.6911 10.3389,-12.1642 17.7482,-15.5237 l 6.3115,-2.8618 0.692,-5.2848 c 4.1312,-31.5467 14.0709,-60.3858 28.0574,-81.4063 9.1069,-13.6869 23.0057,-27.3056 39.1677,-38.3784 1.2041,-0.825 2.3223,-2.0867 2.4847,-2.8038 0.1958,-0.864 -31.0733,-14.7226 -92.7046,-41.0871 l -93,-39.7833 0.1258,-2.9129 c 0.069,-1.6021 0.7835,-5.8379 1.5875,-9.4129 l 1.4617,-6.5 74.9125,-7.1919 c 41.2019,-3.9555 152.5375,-14.6457 247.4125,-23.7561 94.875,-9.1103 173.8024,-16.5615 175.3941,-16.5581 1.5918,0 43.6668,15.3644 93.5,34.1357 49.8333,18.7713 109.0559,41.0816 131.6059,49.5784 22.55,8.4969 65.525,24.6817 95.5,35.9662 29.975,11.2846 87.35,32.897 127.5,48.0276 40.15,15.1307 75.3938,28.4066 78.3194,29.5021 4.2191,1.5797 5.1737,2.3335 4.6148,3.6439 -0.3876,0.9087 -1.6684,5.0138 -2.8463,9.1225 -1.9232,6.7082 -2.445,7.5519 -5.1148,8.2701 -1.6352,0.44 -55.8481,8.8964 -120.4731,18.7921 -64.625,9.8957 -118.2601,18.2333 -119.1891,18.5279 -1.0937,0.3469 -2.0554,2.3693 -2.7284,5.7376 -2.7126,13.5769 -8.7327,51.939 -18.5878,118.4489 -3.5245,23.7858 -7.3357,46.3614 -8.4693,50.1679 -1.8805,6.3143 -2.7039,7.5201 -9.3912,13.7531 -18.8272,17.5485 -49.9192,28.9951 -94.8396,34.9157 -16.5839,2.1858 -69.8849,3.0446 -93.4749,1.5062 -96.8922,-6.3192 -203.0373,-31.9125 -279.3197,-67.3487 -36.7898,-17.0903 -66.6673,-40.0377 -75.4874,-57.9778 -2.1886,-4.4518 -4.0012,-9.7929 -4.269,-12.5794 -0.3337,-3.4732 3.8667,-29.0866 14.8532,-90.5724 10.8107,-60.5021 15.0297,-86.1875 14.3372,-87.2853 -1.3285,-2.1061 -19.3768,-8.5054 -22.1247,-7.8447 -3.0412,0.7313 -18.483,11.2406 -26.3014,17.9001 -20.1716,17.1815 -35.6576,42.5566 -43.0974,70.6184 -2.5741,9.7092 -5.8846,28.904 -5.2639,30.5214 0.2651,0.6908 2.5892,2.0607 5.1648,3.0444 6.3274,2.4164 14.4326,10.2725 17.2629,16.7324 4.743,10.8252 2.6609,23.2171 -5.5934,33.2904 -1.9145,2.3364 -3.4809,4.5655 -3.4809,4.9536 0,0.3881 1.7694,3.3553 3.932,6.5938 14.3986,21.5621 22.7636,71.7482 23.1457,138.864 0.2107,37.01838 1.0041,32.37228 -6.8277,39.98488 -7.5166,7.3063 -17.766,13.171 -26.0492,14.9055 -5.1039,1.0687 -16.5581,1.3238 -20.7008,0.4611 z"
     style="fill:#d6a32b" />
  <path
     sodipodi:nodetypes="ssccscsssssccssscsccccsscssssccscscssssss"
     inkscape:connector-curvature="0"
     id="path3063"
     d="m 555.1953,790.98723 c -97.1343,-7.3117 -200.3459,-32.5404 -275,-67.2202 -36.7898,-17.0903 -66.6673,-40.0377 -75.4874,-57.9778 -2.1886,-4.4518 -4.0012,-9.7929 -4.269,-12.5794 -0.3337,-3.4732 3.8667,-29.0866 14.8532,-90.5724 10.8692,-60.8294 15.0317,-86.1843 14.3311,-87.2948 -0.5429,-0.8609 -4.9907,-2.9847 -9.8838,-4.7198 -4.8932,-1.7351 -9.0636,-3.6554 -9.2676,-4.2674 -0.9535,-2.8604 32.1453,-15.6577 55.0224,-21.2738 55.5694,-13.6417 128.3757,-16.3329 175.4511,-6.4856 3.1269,0.6541 3.25,0.5597 3.25,-2.4948 0,-1.746 0.7082,-4.5441 1.5737,-6.2179 0.8656,-1.6738 1.3278,-3.2892 1.0272,-3.5899 -0.3006,-0.3006 -4.0463,-1.1657 -8.3237,-1.9224 -38.4263,-6.7982 -89.8889,-6.908 -135.7772,-0.2898 -41.1792,5.9391 -73.2942,14.9335 -100.2041,28.064 -9.8525,4.8075 -12.5502,5.7462 -14,4.8715 -0.9878,-0.5959 -43.1959,-18.765 -93.7959,-40.3758 l -92,-39.2922 0.1258,-2.9114 c 0.069,-1.6013 0.7835,-5.8364 1.5875,-9.4114 l 1.4617,-6.5 74.9125,-7.1919 c 41.2019,-3.9555 152.5375,-14.6457 247.4125,-23.7561 94.875,-9.1103 173.8024,-16.5615 175.3941,-16.5581 1.5918,0 43.6668,15.3644 93.5,34.1357 49.8333,18.7713 109.0559,41.0816 131.6059,49.5784 22.55,8.4969 65.525,24.6817 95.5,35.9662 29.975,11.2846 87.35,32.897 127.5,48.0276 40.15,15.1307 75.3938,28.4066 78.3194,29.5021 4.2191,1.5797 5.1737,2.3335 4.6148,3.6439 -0.3876,0.9087 -1.6684,5.0138 -2.8463,9.1225 -1.9232,6.7082 -2.445,7.5519 -5.1148,8.2701 -1.6352,0.44 -55.8481,8.8964 -120.4731,18.7921 -64.625,9.8957 -118.2601,18.2333 -119.1891,18.5279 -1.0937,0.3469 -2.0554,2.3693 -2.7284,5.7376 -2.7126,13.5769 -8.7327,51.939 -18.5878,118.4489 -3.5245,23.7858 -7.3357,46.3614 -8.4693,50.1679 -1.8805,6.3143 -2.7039,7.5201 -9.3912,13.7531 -18.8191,17.5409 -49.7067,28.9183 -94.8396,34.934 -14.2898,1.9047 -78.6631,2.7995 -97.7946,1.3594 z"
     style="fill:#4d95c0" />
  <path
     sodipodi:nodetypes="ssccscsssssccssscsccccsscssssccscscssssss"
     inkscape:connector-curvature="0"
     id="path3061"
     d="m 555.1953,790.98723 c -97.1343,-7.3117 -200.3459,-32.5404 -275,-67.2202 -36.7898,-17.0903 -66.6673,-40.0377 -75.4874,-57.9778 -2.1886,-4.4518 -4.0012,-9.7929 -4.269,-12.5794 -0.3337,-3.4732 3.8667,-29.0866 14.8532,-90.5724 10.8692,-60.8294 15.0317,-86.1843 14.3311,-87.2948 -0.5429,-0.8609 -4.9907,-2.9847 -9.8838,-4.7198 -4.8932,-1.7351 -9.0636,-3.6554 -9.2676,-4.2674 -0.9535,-2.8604 32.1453,-15.6577 55.0224,-21.2738 55.5694,-13.6417 128.3757,-16.3329 175.4511,-6.4856 3.1269,0.6541 3.25,0.5597 3.25,-2.4948 0,-1.746 0.7082,-4.5441 1.5737,-6.2179 0.8656,-1.6738 1.3278,-3.2892 1.0272,-3.5899 -0.3006,-0.3006 -4.0463,-1.1657 -8.3237,-1.9224 -38.4263,-6.7982 -89.8889,-6.908 -135.7772,-0.2898 -41.1792,5.9391 -73.2942,14.9335 -100.2041,28.064 -9.8525,4.8075 -12.5502,5.7462 -14,4.8715 -0.9878,-0.5959 -43.1959,-18.765 -93.7959,-40.3758 l -92,-39.2922 0.1258,-2.9114 c 0.069,-1.6013 0.7835,-5.8364 1.5875,-9.4114 l 1.4617,-6.5 74.9125,-7.1919 c 41.2019,-3.9555 152.5375,-14.6457 247.4125,-23.7561 94.875,-9.1103 173.8024,-16.5615 175.3941,-16.5581 1.5918,0 43.6668,15.3644 93.5,34.1357 49.8333,18.7713 109.0559,41.0816 131.6059,49.5784 22.55,8.4969 65.525,24.6817 95.5,35.9662 29.975,11.2846 87.35,32.897 127.5,48.0276 40.15,15.1307 75.3938,28.4066 78.3194,29.5021 4.2191,1.5797 5.1737,2.3335 4.6148,3.6439 -0.3876,0.9087 -1.6684,5.0138 -2.8463,9.1225 -1.9232,6.7082 -2.445,7.5519 -5.1148,8.2701 -1.6352,0.44 -55.8481,8.8964 -120.4731,18.7921 -64.625,9.8957 -118.2601,18.2333 -119.1891,18.5279 -1.0937,0.3469 -2.0554,2.3693 -2.7284,5.7376 -2.7126,13.5769 -8.7327,51.939 -18.5878,118.4489 -3.5245,23.7858 -7.3357,46.3614 -8.4693,50.1679 -1.8805,6.3143 -2.7039,7.5201 -9.3912,13.7531 -18.8191,17.5409 -49.7067,28.9183 -94.8396,34.934 -14.2898,1.9047 -78.6631,2.7995 -97.7946,1.3594 z"
     style="fill:#457799" />
  <path
     sodipodi:nodetypes="sssscssscsccsssccscscssssssssccccsccssss"
     inkscape:connector-curvature="0"
     id="path3059"
     d="m 556.1953,790.98603 c -114.2253,-8.6167 -234.3997,-41.1165 -304.2528,-82.2817 -30.3536,-17.8877 -50.2265,-39.4892 -51.488,-55.9668 -0.2857,-3.7319 3.7722,-28.3549 14.2902,-86.7119 8.079,-44.825 14.9121,-83.579 15.1846,-86.1201 0.5854,-5.4582 0.7607,-5.3034 -10.6603,-9.4088 -4.6344,-1.6659 -8.5932,-3.5296 -8.7972,-4.1416 -0.9535,-2.8604 32.1453,-15.6577 55.0224,-21.2738 55.5694,-13.6416 128.3757,-16.3329 175.4511,-6.4856 3.1269,0.6542 3.25,0.5597 3.25,-2.4948 0,-1.746 0.7082,-4.5441 1.5737,-6.2179 0.8656,-1.6738 1.3278,-3.2892 1.0272,-3.5898 -0.3006,-0.3007 -4.0463,-1.1658 -8.3237,-1.9225 -28.5319,-5.0477 -68.9729,-6.6129 -101.7772,-3.9391 -55.6174,4.5333 -99.8801,14.9742 -134,31.6088 l -12,5.8503 -5.5,-2.5317 c -3.025,-1.3925 -45.325,-19.5263 -94,-40.2974 -82.7496,-35.3118 -88.493,-37.9206 -88.3925,-40.1508 0.059,-1.3119 0.7277,-5.4407 1.4857,-9.1753 1.0902,-5.3714 1.799,-6.883 3.3925,-7.2345 1.1079,-0.2445 35.3143,-3.6153 76.0143,-7.4908 89.5882,-8.5307 269.7558,-25.8036 370.3926,-35.51 25.5159,-2.461 47.7221,-4.4746 49.347,-4.4746 1.6249,0 15.3982,4.685 30.6074,10.4112 15.2091,5.7261 39.578,14.9055 54.153,20.3987 14.575,5.4931 47.65,17.9528 73.5,27.6881 25.85,9.7353 95.375,35.922 154.5,58.1928 59.125,22.2707 131.8,49.6431 161.5,60.8273 29.7,11.1844 54.8134,20.6512 55.8075,21.0376 1.1997,0.4662 1.5732,1.2474 1.1106,2.3233 -0.3832,0.8916 -1.5797,4.771 -2.6587,8.621 -1.0791,3.85 -2.3021,7.3632 -2.7178,7.807 -0.4156,0.4439 -54.6833,9.1041 -120.5948,19.2449 -65.9114,10.1408 -120.6497,18.6951 -121.6406,19.0096 -0.9908,0.3145 -2.0243,1.5543 -2.2967,2.7551 -1.7344,7.6486 -11.5098,70.1628 -19.9966,127.8792 -6.6707,45.3651 -7.4976,48.4023 -15.231,55.9395 -18.7978,18.3211 -51.4688,30.6385 -96.7819,36.4879 -14.125,1.8234 -78.2715,2.7123 -96.5,1.3372 z"
     style="fill:#dc2424" />
  <path
     inkscape:connector-curvature="0"
     id="path3057"
     d="m 556.1953,790.98613 c -114.2253,-8.6167 -234.3997,-41.1165 -304.2528,-82.2817 -30.3536,-17.8877 -50.2265,-39.4892 -51.488,-55.9668 -0.2857,-3.7319 3.7722,-28.3549 14.2902,-86.7119 8.079,-44.825 14.9121,-83.579 15.1846,-86.1201 0.5854,-5.4582 0.7607,-5.3034 -10.6603,-9.4088 -4.6344,-1.6659 -8.5932,-3.5296 -8.7972,-4.1416 -0.9535,-2.8604 32.1453,-15.6577 55.0224,-21.2738 55.5694,-13.6416 128.3757,-16.3329 175.4511,-6.4856 3.1269,0.6542 3.25,0.5597 3.25,-2.4948 0,-1.746 0.7082,-4.5441 1.5737,-6.2179 0.8656,-1.6738 1.3278,-3.2892 1.0272,-3.5898 -0.3006,-0.3007 -4.0463,-1.1658 -8.3237,-1.9225 -28.5319,-5.0477 -68.9729,-6.6129 -101.7772,-3.9391 -55.6174,4.5333 -99.8801,14.9742 -134,31.6088 l -12,5.8503 -5.5,-2.5317 c -3.025,-1.3925 -45.325,-19.5263 -94,-40.2974 -82.7496,-35.3118 -88.493,-37.9206 -88.3925,-40.1508 0.059,-1.3119 0.7277,-5.4407 1.4857,-9.1753 1.0902,-5.3714 1.799,-6.883 3.3925,-7.2345 1.1079,-0.2445 35.3143,-3.6153 76.0143,-7.4908 89.5882,-8.5307 269.7558,-25.8036 370.3926,-35.51 25.5159,-2.461 47.7221,-4.4746 49.347,-4.4746 1.6249,0 15.3982,4.685 30.6074,10.4112 15.2091,5.7261 39.578,14.9055 54.153,20.3987 14.575,5.4931 47.65,17.9528 73.5,27.6881 25.85,9.7353 95.375,35.922 154.5,58.1928 59.125,22.2707 131.8,49.6431 161.5,60.8273 29.7,11.1844 54.8134,20.6512 55.8075,21.0376 1.1997,0.4662 1.5732,1.2474 1.1106,2.3233 -0.3832,0.8916 -1.5797,4.771 -2.6587,8.621 -1.0791,3.85 -2.3021,7.3632 -2.7178,7.807 -0.4156,0.4439 -54.6833,9.1041 -120.5948,19.2449 -65.9114,10.1408 -120.6497,18.6951 -121.6406,19.0096 -0.9908,0.3145 -2.0243,1.5543 -2.2967,2.7551 -1.7344,7.6486 -11.5098,70.1628 -19.9966,127.8792 -6.6707,45.3651 -7.4976,48.4023 -15.231,55.9395 -18.7978,18.3211 -51.4688,30.6385 -96.7819,36.4879 -14.125,1.8234 -78.2715,2.7123 -96.5,1.3372 z"
     style="fill:#a05d1d"
     sodipodi:nodetypes="sssscssscsccsssccscscssssssssccccsccssss" />
  <path
     sodipodi:nodetypes="ssssccssssccssscsscscssssssssccccsccssss"
     inkscape:connector-curvature="0"
     id="path3055"
     d="m 556.1953,790.98643 c -114.2253,-8.6167 -234.3997,-41.1165 -304.2528,-82.2817 -30.3536,-17.8877 -50.2265,-39.4892 -51.488,-55.9668 -0.2857,-3.7319 3.7722,-28.3549 14.2902,-86.7119 8.079,-44.825 14.9086,-83.5425 15.1768,-86.0388 0.5944,-5.5318 0.3166,-5.7832 -10.4762,-9.4809 -4.5375,-1.5545 -8.25,-3.1152 -8.25,-3.4682 0,-1.9415 23.9554,-11.6647 40.8358,-16.5746 55.7403,-16.213 127.1214,-20.7545 181.0643,-11.5201 11.8366,2.0263 13.0999,1.6928 13.0999,-3.4588 0,-1.8131 0.7791,-4.6539 1.7312,-6.313 0.9522,-1.6591 1.4276,-3.3202 1.0564,-3.6913 -2.2119,-2.212 -31.2334,-6.2291 -52.7876,-7.3068 -57.6701,-2.8836 -120.7451,5.2841 -169.1471,21.903 -10.0134,3.4381 -16.8988,6.4177 -28.9552,12.53 l -8.6023,4.3611 -15.3977,-6.4692 c -8.4687,-3.5581 -50.4977,-21.484 -93.3977,-39.8354 -72.8398,-31.1588 -77.9929,-33.524 -77.8925,-35.7516 0.059,-1.312 0.7277,-5.4409 1.4857,-9.1755 1.0902,-5.3714 1.799,-6.883 3.3925,-7.2345 1.1079,-0.2445 35.3143,-3.6153 76.0143,-7.4908 89.5882,-8.5307 269.7558,-25.8036 370.3926,-35.51 25.5159,-2.461 47.7221,-4.4746 49.347,-4.4746 1.6249,0 15.3982,4.685 30.6074,10.4112 15.2091,5.7261 39.578,14.9055 54.153,20.3987 14.575,5.4931 47.65,17.9528 73.5,27.6881 25.85,9.7353 95.375,35.922 154.5,58.1928 59.125,22.2707 131.8,49.6431 161.5,60.8273 29.7,11.1844 54.8134,20.6512 55.8075,21.0376 1.1997,0.4662 1.5732,1.2474 1.1106,2.3233 -0.3832,0.8916 -1.5797,4.771 -2.6587,8.621 -1.0791,3.85 -2.3021,7.3632 -2.7178,7.807 -0.4156,0.4439 -54.6833,9.1041 -120.5948,19.2449 -65.9114,10.1408 -120.6497,18.6951 -121.6406,19.0096 -0.9908,0.3145 -2.0243,1.5543 -2.2967,2.7551 -1.7344,7.6486 -11.5098,70.1628 -19.9966,127.8792 -6.6707,45.3651 -7.4976,48.4023 -15.231,55.9395 -18.7978,18.3211 -51.4688,30.6385 -96.7819,36.4879 -14.125,1.8234 -78.2715,2.7123 -96.5,1.3372 z"
     style="fill:#535253" />
  <path
     sodipodi:nodetypes="cssssscsscscccssccscsssscccscsccssccsssscssssccssssssccssscsscssccsssssssssscsscssssscssssssscscssscsscscs"
     inkscape:connector-curvature="0"
     id="path3053"
     d="m 566.6953,790.43113 c -2.2,-0.2102 -10.525,-0.8566 -18.5,-1.4363 -118.226,-8.5943 -255.237,-49.4931 -314.7769,-93.9632 -19.4538,-14.53 -32.2231,-31.9471 -32.2231,-43.9517 0,-1.6476 2.4873,-16.8464 5.5273,-33.775 3.04,-16.9286 8.6593,-48.3292 12.4873,-69.7792 10.8147,-60.5998 12.8471,-71.6951 13.1971,-72.045 0.1789,-0.1789 18.767,7.5367 41.3068,17.1459 22.5398,9.6092 43.6815,18.603 46.9815,19.9863 3.3,1.3833 6.6888,2.8842 7.5306,3.3354 0.8419,0.4512 6.2419,2.7184 12,5.0383 5.7582,2.3199 10.9194,4.5523 11.4694,4.9609 0.55,0.4087 2.575,1.3199 4.5,2.025 1.925,0.7052 5.3,2.121 7.5,3.1465 5.5014,2.5641 19.2908,8.4535 29.5,12.5993 4.675,1.8984 13.9,5.8278 20.5,8.732 11.2736,4.9607 18.1069,7.8632 30,12.743 2.75,1.1283 7.25,3.0954 10,4.3714 8.2467,3.8263 21.3786,9.461 22.0495,9.461 0.3448,0 3.6248,1.3954 7.2888,3.1009 3.6639,1.7056 10.0367,4.3715 14.1617,5.9244 4.125,1.5529 9.8603,3.9825 12.7451,5.3991 2.8848,1.4166 5.584,2.5756 5.9982,2.5756 0.4143,0 5.0267,1.8742 10.2499,4.1649 l 9.4967,4.1649 8.505,-1.1955 c 4.6778,-0.6576 12.5551,-1.837 17.5051,-2.621 4.95,-0.7841 16.65,-2.5635 26,-3.9543 9.35,-1.3908 19.7,-2.9933 23,-3.5611 3.3,-0.5677 11.85,-1.8936 19,-2.9463 7.15,-1.0527 19.3,-2.9015 27,-4.1084 7.7,-1.207 14.9,-2.3161 16,-2.4649 8.0861,-1.0931 37.9536,-5.6807 42,-6.4511 2.75,-0.5236 11.3,-1.8694 19,-2.9907 7.7,-1.1213 19.85,-2.9675 27,-4.1028 7.15,-1.1352 15.1375,-2.2972 17.75,-2.5822 5.7154,-0.6234 5.62,-1.1368 2.7829,14.9765 -2.4783,14.0757 -13.5766,86.1435 -19.0184,123.4981 -5.2934,36.3353 -6.3729,39.9665 -14.025,47.1739 -18.9172,17.8179 -51.6219,29.8875 -96.4895,35.6092 -11.3428,1.4465 -74.659,2.7845 -85,1.7962 z m -45,-207.0522 c -8.25,-3.5664 -22.425,-9.6575 -31.5,-13.5356 -9.075,-3.8782 -17.85,-7.634 -19.5,-8.3464 -1.65,-0.7124 -7.05,-2.9714 -12,-5.02 -4.95,-2.0486 -11.925,-5.0564 -15.5,-6.684 -3.575,-1.6277 -10.325,-4.5425 -15,-6.4775 -4.675,-1.9349 -16.375,-6.8666 -26,-10.9594 -9.625,-4.0927 -21.325,-9.0648 -26,-11.049 -4.675,-1.9842 -10.8758,-4.6593 -13.7796,-5.9445 -2.9038,-1.2852 -5.5188,-2.3368 -5.8111,-2.3368 -0.2923,0 -4.3555,-1.8 -9.0295,-4 -4.6739,-2.2 -9.7991,-4 -11.3892,-4 -1.5902,0 -3.2511,-0.5974 -3.6909,-1.3275 -0.4398,-0.7302 -6.8747,-3.9363 -14.2997,-7.1246 -7.425,-3.1884 -15.975,-6.9158 -19,-8.2831 -3.025,-1.3673 -6.625,-2.9176 -8,-3.4453 -1.375,-0.5277 -12.4553,-5.2101 -24.623,-10.4053 l -22.123,-9.446 -8.2125,3.1361 c -9.1251,3.4845 -12.6201,3.5081 -20.1017,0.1355 l -4.4398,-2.0014 8.5,-4.0393 c 49.8547,-23.6915 141.4955,-34.265 208,-23.9991 18.8674,2.9125 17.4441,3.0823 17.8161,-2.1253 0.1738,-2.4339 0.9613,-5.3465 1.75,-6.4725 2.9422,-4.2006 1.9762,-5.1105 -7.3161,-6.891 -20.9154,-4.0076 -35.0308,-5.0934 -66.75,-5.1347 -36.7963,-0.048 -56.567,1.652 -92,7.9098 -25.0596,4.4257 -57.7792,13.9021 -69.492,20.1265 -5.7511,3.0563 -9.7563,3.024 -14.008,-0.1128 -1.8637,-1.375 -3.738,-2.5 -4.165,-2.5 -0.8085,0 -32.1836,-13.1049 -53.835,-22.486 -22.6134,-9.7979 -54.9826,-23.514 -55.4918,-23.514 -0.2749,0 -3.9892,-1.6182 -8.254,-3.596 -4.2648,-1.9778 -11.013,-4.8967 -14.996,-6.4864 -3.983,-1.5897 -8.033,-3.3287 -9,-3.8645 -0.967,-0.5357 -5.1332,-2.3609 -9.2582,-4.0559 -4.125,-1.695 -10.2,-4.2499 -13.5,-5.6775 -3.3,-1.4276 -6.9,-2.9626 -8,-3.4111 -11.8965,-4.85 -15.5,-6.9066 -15.5,-8.8459 0,-1.3489 0.6477,-2.0627 1.8717,-2.0627 1.0295,0 36.917,-3.3621 79.75,-7.4713 42.8331,-4.1092 141.3283,-13.5602 218.8783,-21.0023 77.55,-7.4421 153.7164,-14.7469 169.2588,-16.233 22.0584,-2.1091 29.0796,-2.4655 32,-1.6245 2.0576,0.5926 22.1912,8.0604 44.7412,16.5953 40.6797,15.3966 95.1287,35.9213 211.5,79.7252 33.275,12.5253 83.45,31.4174 111.5,41.9826 28.05,10.5651 73.725,27.7627 101.5,38.2168 63.5511,23.9198 57.3502,21.2775 55.7916,23.7733 -0.6998,1.1206 -2.6267,2.2536 -4.282,2.5178 -1.6553,0.2642 -12.2346,1.8518 -23.5096,3.528 -11.275,1.6762 -24.55,3.6905 -29.5,4.4763 -4.95,0.7857 -15.075,2.3634 -22.5,3.5059 -14.2484,2.1925 -28.525,4.4086 -38.5,5.9763 -3.3,0.5186 -12.075,1.8552 -19.5,2.9702 -7.425,1.115 -20.7,3.1574 -29.5,4.5387 -8.8,1.3813 -20.5,3.1653 -26,3.9644 -5.5,0.7991 -17.2,2.5667 -26,3.928 -8.8,1.3612 -29.5,4.5287 -46,7.0389 -38.336,5.8321 -33.9733,5.1565 -56,8.6721 -10.45,1.6679 -21.7,3.4263 -25,3.9076 -19.467,2.839 -64.3056,9.6855 -121.4137,18.5389 -12.3275,1.9111 -23.8025,3.4383 -25.5,3.3937 -1.6974,-0.045 -9.8363,-2.9992 -18.0863,-6.5657 z"
     style="fill:#3d3d40" />
  <path
     sodipodi:nodetypes="csscscccsscscsssssssscssssccscccsccssccssssscssscscssscsssscsssssscssscssscsssccscscsssccscscsssscssssscscscccsssssssssscccccscccccccccccsccc"
     inkscape:connector-curvature="0"
     id="path3051"
     d="m 511.1953,577.08233 c -15.125,-6.524 -53.6,-22.9806 -85.5,-36.5703 -31.9,-13.5897 -85.8821,-36.6086 -119.9602,-51.1532 l -61.9602,-26.4448 -9.4044,3.5559 c -10.5787,3.9998 -12.0364,4.1345 -17.6752,1.6329 l -4,-1.7745 6,-3.0373 c 3.3,-1.6706 11.7067,-5.1051 18.6816,-7.6324 53.4429,-19.3641 136.3574,-26.4143 194.6678,-16.5524 15.013,2.5391 14.1494,2.6813 14.1572,-2.3305 0,-2.5578 0.7977,-5.4445 1.9934,-7.25 1.0927,-1.65 1.9898,-3.8157 1.9934,-4.8127 0.01,-1.2559 1.9653,-2.7008 6.3827,-4.7038 9.3948,-4.2598 19.4306,-6.5716 34.941,-8.0489 12.0621,-1.1489 16.0629,-1.1061 31.5,0.3366 20.5084,1.9167 33.1347,4.8384 46.79,10.8272 15.5564,6.8224 22.3929,13.5863 22.3929,22.1548 0,7.822 -8.4829,14.2882 -25.0345,19.083 -29.5878,8.5711 -75.884,4.8091 -104.9655,-8.5296 -8.5404,-3.9172 -19.1973,-6.6115 -35,-8.849 -21.1799,-2.9988 -80.7718,-3.0166 -99.5,-0.03 -3.3,0.5263 -11.4,1.6864 -18,2.5779 -6.6,0.8915 -13.8,2.0954 -16,2.6753 -3.7351,0.9845 -10.2535,2.1985 -18.5,3.4456 -1.925,0.2911 -4.85,1.1174 -6.5,1.8363 -1.65,0.7189 -5.025,1.597 -7.5,1.9512 -4.4517,0.6372 -7.8824,2.0704 -6.971,2.9121 0.259,0.2393 12.846,5.686 27.971,12.1037 15.125,6.4178 29.975,12.7208 33,14.0069 3.025,1.286 7.975,3.3628 11,4.6153 3.025,1.2523 8.7456,3.7618 12.7123,5.5764 3.9668,1.8147 14.3168,6.2852 23,9.9346 24.6046,10.3407 43.5027,18.4111 46.7877,19.9806 1.65,0.7883 7.275,3.2029 12.5,5.3657 5.225,2.1629 14.675,6.1511 21,8.8628 22.0832,9.4676 31.6727,13.5612 56,23.9056 13.475,5.7298 28.1,11.9749 32.5,13.8781 4.4,1.9031 8.8926,3.4566 9.9835,3.4521 1.8091,-0.01 20.1089,-2.7777 43.0165,-6.5121 4.95,-0.8069 25.425,-3.9448 45.5,-6.973 36.3279,-5.4799 39.9027,-6.0324 58,-8.965 5.225,-0.8467 20.3,-3.1595 33.5,-5.1396 29.7248,-4.459 38.7595,-5.8397 84.5,-12.914 20.075,-3.1049 40.775,-6.2687 46,-7.0307 5.225,-0.7621 34.475,-5.25 65,-9.9731 69.903,-10.8161 93.316,-14.4029 99,-15.1665 8.0684,-1.084 7.8057,-1.9237 -1.5929,-5.0922 -4.8989,-1.6515 -14.5321,-5.2425 -21.4071,-7.9799 -18.6619,-7.4308 -54.1097,-20.7652 -87,-32.727 -3.575,-1.3002 -8.75,-3.2693 -11.5,-4.3759 -2.75,-1.1065 -9.95,-3.8793 -16,-6.1618 -6.05,-2.2825 -12.35,-4.7301 -14,-5.4391 -1.65,-0.709 -6.6,-2.5211 -11,-4.0269 -4.4,-1.5058 -8.9,-3.1132 -10,-3.5721 -2.4024,-1.0022 -18.0934,-7.0086 -28.5,-10.9096 -4.125,-1.5463 -16.275,-6.1871 -27,-10.313 -10.725,-4.1259 -20.625,-7.8077 -22,-8.1819 -1.375,-0.3742 -3.4,-1.0482 -4.5,-1.4978 -5.0907,-2.0807 -50.412,-19.3191 -66,-25.1037 -2.75,-1.0206 -12.2,-4.5393 -21,-7.8194 -8.8,-3.2802 -22.3,-8.296 -30,-11.1462 -20.4744,-7.5789 -26.2065,-9.7679 -34,-12.984 -3.85,-1.5888 -10.375,-4.0563 -14.5,-5.4834 -4.125,-1.4271 -13.8,-5.0381 -21.5,-8.0245 -7.7,-2.9864 -20.525,-7.8628 -28.5,-10.8364 -7.975,-2.9736 -19.45,-7.376 -25.5,-9.7829 -10.5841,-4.2109 -11.3781,-4.371 -21,-4.2342 -9.0647,0.1289 -64.0951,5.0414 -82.5,7.3648 -4.125,0.5207 -15.6,1.6277 -25.5,2.4601 -9.9,0.8323 -22.05,1.9839 -27,2.5589 -4.95,0.5751 -18.675,1.9187 -30.5,2.9859 -21.5422,1.9441 -47.0781,4.3545 -63,5.9469 -4.675,0.4676 -18.175,1.7968 -30,2.9538 -11.825,1.157 -27.8,2.7713 -35.5,3.5873 -7.7,0.8161 -17.375,1.7208 -21.5,2.0106 -4.125,0.2898 -12,0.9606 -17.5,1.4907 -19.1266,1.8433 -41.1064,3.8977 -58.5,5.4678 -9.625,0.8688 -20.65,2.02 -24.5,2.5582 -3.85,0.5383 -12.4,1.4313 -19,1.9844 -11.8608,0.9942 -27.3515,2.5559 -39,3.9318 l -6,0.7087 5,2.2973 c 2.75,1.2635 6.8,3.0969 9,4.0743 8.0114,3.5591 54.3032,23.3076 65.5,27.9428 6.325,2.6184 18.25,7.6887 26.5,11.2673 30.021,13.0222 76.0862,32.5282 79.5,33.6638 4.5392,1.51 7.3722,3.6911 6.5411,5.0359 -1.1059,1.7894 -4.0959,1.2185 -12.2427,-2.3376 -4.2891,-1.8723 -24.8984,-10.6803 -45.7984,-19.5733 C 28.1835,371.06763 8.5595,362.61673 7.2678,361.42063 c -1.9669,-1.821 -1.2463,-1.9809 14.9275,-3.3113 7.425,-0.6107 20.25,-1.7607 28.5,-2.5555 8.25,-0.7949 33.9,-3.2522 57,-5.4608 23.1,-2.2086 77.325,-7.413 120.5,-11.5655 43.175,-4.1524 113.825,-10.9187 157,-15.0362 43.175,-4.1175 87.8109,-8.4123 99.1909,-9.5439 l 20.6909,-2.0574 43.8091,16.4973 c 78.6865,29.6312 149.1518,56.1791 184.3091,69.4386 18.975,7.1564 62.625,23.595 97,36.5303 34.375,12.9353 75.1,28.2727 90.5,34.0833 15.4,5.8105 46.9976,17.6569 70.2168,26.3252 23.2192,8.6684 42.2317,16.3028 42.25,16.9654 0.041,1.4919 11.9891,-0.4808 -110.9668,18.3207 -57.475,8.7886 -110.125,16.8784 -117,17.9773 -6.875,1.0988 -68.525,10.5601 -137,21.025 -68.475,10.465 -125.625,19.2215 -127,19.4589 -1.6706,0.2885 -11.6234,-3.5035 -30,-11.43 z m -289.5,-138.0566 c 0.3399,-0.55 1.068,-1 1.618,-1 0.55,0 0.7219,0.45 0.382,1 -0.3399,0.55 -1.068,1 -1.618,1 -0.55,0 -0.7219,-0.45 -0.382,-1 z m 3.5,-8 c 0,-0.55 0.9,-1 2,-1 1.1,0 2,0.45 2,1 0,0.55 -0.9,1 -2,1 -1.1,0 -2,-0.45 -2,-1 z m 59,-8 c 1.9759,-1.2769 5.2892,-1.2769 4.5,0 -0.3399,0.55 -1.829,0.9931 -3.309,0.9847 -2.1048,-0.012 -2.3642,-0.2265 -1.191,-0.9847 z m 161.7333,-3.1241 c 0.6784,-0.6834 1.4853,-0.9907 1.7932,-0.6828 0.3079,0.3079 -0.2472,0.8671 -1.2334,1.2426 -1.4252,0.5427 -1.54,0.4278 -0.5598,-0.5598 z m -23.9208,-1.559 c 0.7219,-0.2889 1.5844,-0.2534 1.9167,0.079 0.3323,0.3323 -0.2584,0.5686 -1.3125,0.5252 -1.165,-0.048 -1.4019,-0.2849 -0.6042,-0.6042 z m -92.7292,-0.6733 c 0.2292,-0.196 1.9917,-0.6453 3.9167,-0.9986 2.4624,-0.4518 3.0553,-0.3507 2,0.3411 -1.3556,0.8886 -6.9084,1.5057 -5.9167,0.6575 z m 69.9167,-1.6794 c 2.0482,-0.4864 3.8941,-0.4439 4.45,0.1023 0.5905,0.5802 -0.7341,0.8948 -3.5,0.8311 l -4.45,-0.1023 z"
     style="fill:#353436" />
</svg>
