<?xml version="1.0" encoding="UTF-8" standalone="no"?>
<!-- Created with Inkscape (http://www.inkscape.org/) -->

<svg
   xmlns:dc="http://purl.org/dc/elements/1.1/"
   xmlns:cc="http://creativecommons.org/ns#"
   xmlns:rdf="http://www.w3.org/1999/02/22-rdf-syntax-ns#"
   xmlns:svg="http://www.w3.org/2000/svg"
   xmlns="http://www.w3.org/2000/svg"
   xmlns:sodipodi="http://sodipodi.sourceforge.net/DTD/sodipodi-0.dtd"
   xmlns:inkscape="http://www.inkscape.org/namespaces/inkscape"
   width="355.14252"
   height="355.14001"
   id="svg2"
   version="1.1"
   inkscape:version="0.48.4 r9939"
   sodipodi:docname="improv_up.svg">
  <defs
     id="defs4" />
  <sodipodi:namedview
     id="base"
     pagecolor="#a5dada"
     bordercolor="#666666"
     borderopacity="1.0"
     inkscape:pageopacity="0.19215686"
     inkscape:pageshadow="2"
     inkscape:zoom="0.35"
     inkscape:cx="-134.13708"
     inkscape:cy="272.35479"
     inkscape:document-units="px"
     inkscape:current-layer="layer1"
     showgrid="false"
     fit-margin-top="0"
     fit-margin-left="0"
     fit-margin-right="0"
     fit-margin-bottom="0"
     inkscape:window-width="1075"
     inkscape:window-height="599"
     inkscape:window-x="65"
     inkscape:window-y="24"
     inkscape:window-maximized="0" />
  <metadata
     id="metadata7">
    <rdf:RDF>
      <cc:Work
         rdf:about="">
        <dc:format>image/svg+xml</dc:format>
        <dc:type
           rdf:resource="http://purl.org/dc/dcmitype/StillImage" />
        <dc:title></dc:title>
      </cc:Work>
    </rdf:RDF>
  </metadata>
  <g
     inkscape:label="Layer 1"
     inkscape:groupmode="layer"
     id="layer1"
     transform="translate(-509.13708,-508.2233)">
    <path
       inkscape:connector-curvature="0"
       id="path3052"
       d="m 852.43217,582.25504 c -33.33015,31.28951 -49.06276,35.92609 -95.31695,28.09094 -8.37745,-1.41908 -17.83225,-2.31805 -21.01065,-1.99768 -5.36709,0.54097 -6.05815,0.88484 -9.69741,4.82544 -3.34582,3.62286 -3.95577,4.96697 -4.17346,9.19677 -0.45735,8.88691 2.26179,15.50064 19.0171,46.25509 14.75761,27.08766 19.78879,42.82666 19.17288,59.97835 -0.39956,11.12693 -4.21278,23.29645 -10.2733,32.78629 -5.46095,8.55097 -16.35261,20.32129 -24.29136,26.25099 -20.61543,15.3983 -38.70057,18.18408 -76.49162,11.78253 -8.37746,-1.41908 -17.76848,-2.31996 -20.86893,-2.00195 -5.60232,0.57464 -5.68483,0.62299 -13.34037,7.8171 l -7.70318,7.23888 25.81316,0.87064 c 20.9437,0.7064 26.16898,1.24928 27.69933,2.87779 2.51778,2.67926 3.28406,5.88753 2.01589,8.44013 -0.57142,1.15018 -9.76515,9.89052 -20.4305,19.42298 -18.30257,16.35842 -19.66476,17.41004 -24.25644,18.72604 -5.30916,1.52163 -93.77405,-0.42702 -98.88904,-2.17826 -5.02918,-1.72187 -9.51917,-7.43885 -10.16922,-12.94819 -0.31264,-2.64972 0.12507,-24.36181 0.97269,-48.2491 1.15603,-32.57876 2.03994,-44.72508 3.53733,-48.60854 1.95576,-5.07227 2.39231,-5.54938 21.55363,-23.55576 l 19.55743,-18.37863 3.01015,0.41088 c 1.65559,0.22599 3.95861,1.42018 5.11783,2.65376 1.81761,1.93418 2.00671,5.79613 1.374,28.06029 l -0.7337,25.81742 6.17382,-5.79072 c 15.33733,-14.38489 29.59063,-22.49592 43.89666,-24.97993 9.40473,-1.63298 25.7471,-1.18834 38.50915,1.04775 16.1266,2.82562 24.94489,3.72698 29.62322,3.02795 4.18072,-0.62469 5.26116,-1.24 8.51598,-4.84985 3.10674,-3.44566 3.77,-4.9548 3.98134,-9.05904 0.45596,-8.85496 -2.27577,-15.49463 -19.01846,-46.22593 -14.75761,-27.08766 -19.7888,-42.82665 -19.17288,-59.97835 0.59666,-16.61566 6.61077,-30.05049 20.5258,-45.85224 13.0562,-14.82648 28.8652,-24.42408 44.78367,-27.18807 9.40473,-1.63298 25.7471,-1.18834 38.50915,1.04775 15.96313,2.79697 24.92609,3.72979 29.40594,3.06041 4.52805,-0.67641 4.69597,-0.8002 17.83119,-13.14371 l 13.26011,-12.46086 21.91373,23.31927 21.91372,23.31928 -11.84729,11.12223 z"
       style="fill:#ffffff;fill-opacity:1" />
  </g>
</svg>
