<?xml version="1.0" encoding="UTF-8" standalone="no"?>
<!-- Generator: Adobe Illustrator 19.0.0, SVG Export Plug-In . SVG Version: 6.00 Build 0)  -->

<svg
   xmlns:dc="http://purl.org/dc/elements/1.1/"
   xmlns:cc="http://creativecommons.org/ns#"
   xmlns:rdf="http://www.w3.org/1999/02/22-rdf-syntax-ns#"
   xmlns:svg="http://www.w3.org/2000/svg"
   xmlns="http://www.w3.org/2000/svg"
   xmlns:sodipodi="http://sodipodi.sourceforge.net/DTD/sodipodi-0.dtd"
   xmlns:inkscape="http://www.inkscape.org/namespaces/inkscape"
   version="1.1"
   id="Layer_1"
   x="0px"
   y="0px"
   viewBox="0 0 532 532"
   xml:space="preserve"
   inkscape:version="0.48.4 r9939"
   width="100%"
   height="100%"
   sodipodi:docname="mic6.svg"><metadata
     id="metadata59"><rdf:RDF><cc:Work
         rdf:about=""><dc:format>image/svg+xml</dc:format><dc:type
           rdf:resource="http://purl.org/dc/dcmitype/StillImage" /><dc:title /></cc:Work></rdf:RDF></metadata><defs
     id="defs57" /><sodipodi:namedview
     pagecolor="#ffffff"
     bordercolor="#666666"
     borderopacity="1"
     objecttolerance="10"
     gridtolerance="10"
     guidetolerance="10"
     inkscape:pageopacity="0"
     inkscape:pageshadow="2"
     inkscape:window-width="1140"
     inkscape:window-height="716"
     id="namedview55"
     showgrid="false"
     inkscape:zoom="0.4609375"
     inkscape:cx="209.39036"
     inkscape:cy="266.83421"
     inkscape:window-x="538"
     inkscape:window-y="591"
     inkscape:window-maximized="0"
     inkscape:current-layer="Layer_1"
     fit-margin-top="0"
     fit-margin-left="0"
     fit-margin-right="0"
     fit-margin-bottom="0" /><path
     style="fill:#000000;stroke:#00ccff;stroke-width:20;stroke-miterlimit:4;stroke-opacity:1;stroke-dasharray:none;fill-opacity:0"
     d="m 388.05667,10 c -24.69181,0 -47.48312,8.19688 -65.8125,21.96875 -3.92047,-3.70655 -10.0981,-3.6519 -13.9375,0.1875 l -7.78125,7.78125 c -3.83789,3.83789 -3.88962,9.98554 -0.1875,13.90625 -13.78005,18.33246 -21.9375,41.1126 -21.9375,65.8125 0,4.03291 0.23194,8.0174 0.65625,11.9375 l -0.4375,-0.4375 -22.0625,23.6875 -179.624996,193.0625 c -13.187,14.172 -12.78175,36.2495 0.90625,49.9375 l 10.28125,10.28125 c -19.45965,21.6497 -22.52892,35.04095 -25.46875,48.03125 -3.131,13.832 -6.095,26.9075 -33.125,53.9375 L 41.462924,522 c 30.479,-30.478 34.29625,-47.288 37.65625,-62.125 2.63967,-11.6603 4.98716,-21.94047 20.937496,-39.8125 l 9.84376,9.84375 c 13.68899,13.688 35.76449,14.061 49.93749,0.875 l 193.03125,-179.59375 23.71875,-22.0625 -0.4375,-0.4375 c 0.22939,0.0248 0.45769,0.0392 0.6875,0.0625 0.92513,0.0947 1.85441,0.17879 2.78125,0.25 0.92728,0.0713 1.85275,0.13974 2.78125,0.1875 3.7757,0.1942 7.5368,0.1942 11.3125,0 0.9285,-0.0478 1.85397,-0.11625 2.78125,-0.1875 0.92688,-0.0712 1.85608,-0.15532 2.78125,-0.25 0.50215,-0.051 0.99988,-0.0985 1.5,-0.15625 1.00778,-0.11704 2.0264,-0.26129 3.03125,-0.40625 0.86876,-0.12504 1.7317,-0.26096 2.59375,-0.40625 0.86725,-0.14616 1.73354,-0.30235 2.59375,-0.46875 0.86402,-0.16728 1.73319,-0.34306 2.59375,-0.53125 0.85701,-0.18752 1.71312,-0.38632 2.5625,-0.59375 0.85317,-0.20836 1.71729,-0.42806 2.5625,-0.65625 0.74796,-0.20182 1.50562,-0.40708 2.25,-0.625 0.10561,-0.031 0.20702,-0.0625 0.3125,-0.0937 0.75292,-0.22285 1.50106,-0.44816 2.25,-0.6875 0.094,-0.0301 0.18737,-0.0634 0.28125,-0.0937 0.46817,-0.15102 0.93975,-0.31128 1.40625,-0.46875 0.376,-0.12724 0.75084,-0.24381 1.125,-0.375 0.62875,-0.21985 1.24954,-0.45586 1.875,-0.6875 0.20464,-0.076 0.42093,-0.14157 0.625,-0.21875 0.52752,-0.19903 1.03749,-0.41755 1.5625,-0.625 0.30176,-0.11944 0.60581,-0.22172 0.90625,-0.34375 0.55299,-0.22424 1.10624,-0.45386 1.65625,-0.6875 0.73994,-0.31432 1.48446,-0.66868 2.21875,-1 0.80469,-0.36309 1.60872,-0.74149 2.40625,-1.125 0.35516,-0.17113 0.70948,-0.32517 1.0625,-0.5 0.58299,-0.28818 1.17114,-0.57581 1.75,-0.875 0.21698,-0.11235 0.44012,-0.23 0.65625,-0.34375 0.51118,-0.26863 1.02347,-0.53524 1.53125,-0.8125 0.2832,-0.15478 0.56207,-0.31155 0.84375,-0.46875 0.51406,-0.28665 1.02088,-0.57944 1.53125,-0.875 1.39998,-0.81074 2.78563,-1.65346 4.15625,-2.53125 0.0553,-0.0354 0.10101,-0.0895 0.15625,-0.125 0.37165,-0.23901 0.75644,-0.47539 1.125,-0.71875 0.38971,-0.25731 0.76913,-0.51845 1.15625,-0.78125 0.36763,-0.24947 0.72933,-0.4962 1.09375,-0.75 0.29253,-0.20386 0.58402,-0.41796 0.875,-0.625 0.71526,-0.50894 1.4194,-1.03435 2.125,-1.5625 0.0719,-0.0537 0.14703,-0.10234 0.21875,-0.15625 0.15989,0.14834 0.3019,0.30141 0.46875,0.4375 0.0279,0.0233 0.0656,0.0396 0.0937,0.0625 0.0178,0.0142 0.0446,0.0172 0.0625,0.0312 2.87589,2.312 6.7093,2.80362 10,1.46875 0.0126,-0.005 0.0186,-0.0261 0.0312,-0.0312 0.61494,-0.25238 1.21652,-0.55742 1.78125,-0.9375 0.28035,-0.18511 0.54772,-0.37779 0.8125,-0.59375 0.2379,-0.19759 0.46451,-0.40195 0.6875,-0.625 0.0216,-0.0212 0.0411,-0.0411 0.0625,-0.0625 l 7.625,-7.625 c 0.0314,-0.0314 0.0629,-0.0621 0.0937,-0.0937 3.83789,-3.83789 3.88962,-9.98554 0.1875,-13.90625 0.0533,-0.0709 0.10313,-0.14779 0.15625,-0.21875 0.19575,-0.26175 0.40029,-0.5177 0.59375,-0.78125 0.35209,-0.47908 0.68793,-0.95405 1.03125,-1.4375 0.18465,-0.26021 0.38007,-0.51936 0.5625,-0.78125 0.30013,-0.43067 0.58176,-0.87853 0.875,-1.3125 0.22021,-0.32595 0.43947,-0.64032 0.65625,-0.96875 0.26777,-0.40555 0.51943,-0.81046 0.78125,-1.21875 0.22673,-0.35366 0.46473,-0.70608 0.6875,-1.0625 0.24666,-0.39471 0.47759,-0.79036 0.71875,-1.1875 0.228,-0.37524 0.46389,-0.74682 0.6875,-1.125 0.22413,-0.37942 0.43708,-0.77474 0.65625,-1.15625 0.23294,-0.4051 0.45961,-0.81041 0.6875,-1.21875 0.20139,-0.36115 0.39676,-0.73082 0.59375,-1.09375 0.42367,-0.78055 0.84667,-1.55528 1.25,-2.34375 0.40494,-0.79161 0.80307,-1.5758 1.1875,-2.375 0.22082,-0.45827 0.44165,-0.91321 0.65625,-1.375 0.15959,-0.34396 0.31292,-0.68599 0.46875,-1.03125 0.20957,-0.46353 0.42171,-0.93931 0.625,-1.40625 0.15267,-0.35145 0.28869,-0.70979 0.4375,-1.0625 0.19785,-0.46781 0.40225,-0.93515 0.59375,-1.40625 0.0297,-0.0732 0.0642,-0.14551 0.0937,-0.21875 0.3055,-0.75593 0.5861,-1.51707 0.875,-2.28125 0.1342,-0.35556 0.276,-0.70584 0.4063,-1.0625 0.1741,-0.47536 0.3324,-0.95909 0.5,-1.4375 0.2907,-0.82975 0.5725,-1.66127 0.8437,-2.5 0.1243,-0.38531 0.2551,-0.76986 0.375,-1.15625 0.0195,-0.0626 0.0432,-0.12485 0.0626,-0.1875 0.2365,-0.76694 0.4681,-1.54155 0.6874,-2.3125 0.009,-0.0315 0.0224,-0.0622 0.0313,-0.0937 0.009,-0.0315 0.0223,-0.0622 0.0313,-0.0937 0.2367,-0.83801 0.4398,-1.6889 0.6562,-2.53125 0.2052,-0.7987 0.4068,-1.60399 0.5938,-2.40625 0.017,-0.0733 0.0455,-0.14543 0.0624,-0.21875 0.0961,-0.41625 0.19,-0.83195 0.2813,-1.25 0.009,-0.0423 0.022,-0.0827 0.0313,-0.125 0.1648,-0.75886 0.3197,-1.51662 0.4687,-2.28125 0.0102,-0.0522 0.0212,-0.10405 0.0313,-0.15625 0.0988,-0.51034 0.1897,-1.01981 0.2812,-1.53125 0.0629,-0.35198 0.128,-0.70936 0.1875,-1.0625 0.0139,-0.0822 0.0176,-0.16777 0.0313,-0.25 0.1305,-0.78588 0.2612,-1.58357 0.375,-2.375 0.0862,-0.59787 0.1736,-1.18229 0.25,-1.78125 0.0343,-0.2703 0.0613,-0.54159 0.0937,-0.8125 0.0772,-0.64396 0.1529,-1.29251 0.2187,-1.9375 0.0232,-0.22783 0.0408,-0.45926 0.0626,-0.6875 0.0667,-0.69729 0.134,-1.39553 0.1874,-2.09375 0.0135,-0.17732 0.0187,-0.35369 0.0313,-0.53125 0.0538,-0.74998 0.0866,-1.49925 0.125,-2.25 0.006,-0.12482 0.0253,-0.25007 0.0313,-0.375 0.0388,-0.81369 0.0729,-1.62327 0.0937,-2.4375 0.002,-0.062 -10e-4,-0.12547 0,-0.1875 0.0433,-1.81616 0.0464,-3.65265 0,-5.46875 -0.0206,-0.81492 -0.0554,-1.6271 -0.0937,-2.4375 -0.006,-0.12535 -0.0249,-0.24967 -0.0313,-0.375 -0.0379,-0.74761 -0.0722,-1.50642 -0.125,-2.25 -0.0134,-0.18711 -0.0169,-0.37545 -0.0313,-0.5625 -0.0529,-0.69614 -0.1215,-1.37005 -0.1874,-2.0625 -0.0219,-0.22845 -0.0393,-0.45917 -0.0626,-0.6875 -0.0659,-0.64925 -0.1415,-1.29165 -0.2187,-1.9375 -0.0327,-0.27253 -0.059,-0.54018 -0.0937,-0.8125 -0.0754,-0.59279 -0.1653,-1.19145 -0.25,-1.78125 -0.1138,-0.79143 -0.2445,-1.58912 -0.375,-2.375 -0.0137,-0.0824 -0.0174,-0.16762 -0.0313,-0.25 -0.0599,-0.35492 -0.1241,-0.70807 -0.1875,-1.0625 -0.0916,-0.512604 -0.1826,-1.021144 -0.2812,-1.53125 -0.0744,-0.38398 -0.1403,-0.77293 -0.2188,-1.15625 -0.0987,-0.48226 -0.2075,-0.95757 -0.3125,-1.4375 -0.0895,-0.40921 -0.187,-0.81039 -0.2813,-1.21875 -0.1029,-0.44582 -0.2041,-0.90003 -0.3124,-1.34375 -0.1073,-0.43941 -0.231,-0.87418 -0.3438,-1.3125 -0.1082,-0.42056 -0.1994,-0.83141 -0.3125,-1.25 -0.1206,-0.44685 -0.2487,-0.89816 -0.375,-1.34375 -0.009,-0.0316 -0.0222,-0.0621 -0.0313,-0.0937 -0.2193,-0.77095 -0.4509,-1.54556 -0.6874,-2.3125 -0.0194,-0.0628 -0.0431,-0.12468 -0.0626,-0.1875 -0.1207,-0.38815 -0.25,-0.76997 -0.375,-1.15625 -0.2712,-0.83873 -0.553,-1.67025 -0.8437,-2.5 -0.1675,-0.47914 -0.3256,-0.96026 -0.5,-1.4375 -0.131,-0.35776 -0.2716,-0.7065 -0.4063,-1.0625 -0.2889,-0.76418 -0.5695,-1.52532 -0.875,-2.28125 -0.0297,-0.0735 -0.0638,-0.1453 -0.0937,-0.21875 -0.1909,-0.47071 -0.3961,-0.93769 -0.59375,-1.40625 -0.14825,-0.3505 -0.28572,-0.71387 -0.4375,-1.0625 -0.20476,-0.47136 -0.4133,-0.93721 -0.625,-1.40625 -0.15609,-0.34525 -0.30919,-0.68792 -0.46875,-1.03125 -0.21256,-0.45813 -0.43702,-0.91923 -0.65625,-1.375 -0.38443,-0.7992 -0.78256,-1.58339 -1.1875,-2.375 -0.40333,-0.78847 -0.82633,-1.5632 -1.25,-2.34375 -0.19866,-0.3657 -0.39106,-0.73058 -0.59375,-1.09375 -0.22518,-0.40381 -0.45682,-0.81721 -0.6875,-1.21875 -0.22098,-0.3843 -0.43077,-0.7749 -0.65625,-1.15625 -0.2241,-0.37936 -0.45844,-0.74779 -0.6875,-1.125 -0.23953,-0.39422 -0.47441,-0.79656 -0.71875,-1.1875 -0.22433,-0.35898 -0.45862,-0.70558 -0.6875,-1.0625 -0.26292,-0.4101 -0.51304,-0.8124 -0.78125,-1.21875 -0.21373,-0.3237 -0.43873,-0.64684 -0.65625,-0.96875 -0.29297,-0.43365 -0.57602,-0.8833 -0.875,-1.3125 -0.20577,-0.29526 -0.41599,-0.58132 -0.625,-0.875 -0.32003,-0.45003 -0.64213,-0.89879 -0.96875,-1.34375 -0.19138,-0.26041 -0.39978,-0.52215 -0.59375,-0.78125 -0.36125,-0.48304 -0.72477,-0.96066 -1.09375,-1.4375 -0.16888,-0.21807 -0.32925,-0.43917 -0.5,-0.65625 -0.39645,-0.50448 -0.8137,-1.0027 -1.21875,-1.5 -0.14912,-0.18282 -0.28703,-0.38042 -0.4375,-0.5625 -0.44163,-0.53513 -0.89223,-1.06721 -1.34375,-1.59375 -0.12014,-0.13993 -0.25404,-0.26679 -0.375,-0.40625 -0.57599,-0.66409 -1.1554,-1.31538 -1.75,-1.96875 -0.54049,-0.59467 -1.07173,-1.19862 -1.625,-1.78125 -0.0503,-0.0529 -0.10588,-0.10347 -0.15625,-0.15625 -0.6052,-0.63477 -1.22362,-1.25487 -1.84375,-1.875 -19.84401,-19.84401 -47.25031,-32.125 -77.53125,-32.125 z"
     id="circle3036"
     inkscape:connector-curvature="0" /><circle
     style="fill:#7a7a7c"
     cx="380.427"
     cy="109.657"
     r="109.657"
     id="circle3"
     sodipodi:cx="380.427"
     sodipodi:cy="109.657"
     sodipodi:rx="109.657"
     sodipodi:ry="109.657"
     transform="translate(7.6276457,9.165786)" /><path
     style="fill:#6a6a6b"
     d="m 465.59764,196.36479 c -42.824,42.824 -112.257,42.824 -155.081,0 37.553,-37.553 136.37,-136.370004 155.081,-155.081004 42.825,42.824 42.825,112.257004 0,155.081004 z"
     id="path5"
     inkscape:connector-curvature="0" /><path
     style="fill:#7a7a7c"
     d="m 41.472646,521.16579 -11.934,-11.933 c 27.03,-27.03 29.989,-40.095 33.12,-53.927 3.31,-14.626 6.735,-29.751 33.595,-56.611 l 11.934004,11.933 c -23.412004,23.411 -26.033004,34.993 -29.069004,48.404 -3.36,14.837 -7.167,31.656 -37.646,62.134 z"
     id="path7"
     inkscape:connector-curvature="0" /><path
     style="fill:#4d4d4d"
     d="m 109.89965,429.04579 -32.063004,-32.063 c -13.688,-13.688 -14.086,-35.757 -0.899,-49.929 l 201.668994,-216.744 97.967,97.967 -216.745,201.668 c -14.173,13.187 -36.24,12.789 -49.92899,-0.899 z"
     id="path9"
     inkscape:connector-curvature="0" /><path
     style="fill:#282828"
     d="m 109.89965,429.04579 -16.031004,-16.032 233.720994,-233.721 48.983,48.983 -216.744,201.67 c -14.173,13.186 -36.24,12.788 -49.92899,-0.9 z"
     id="path11"
     inkscape:connector-curvature="0" /><polygon
     style="fill:#00ccff"
     points="248.93,144.84 345.248,241.159 368.945,219.11 270.979,121.144 "
     id="polygon13"
     transform="translate(7.6276457,9.165786)" /><rect
     x="-378.90146"
     y="-84.600655"
     transform="matrix(-0.70710678,-0.70710678,0.70710678,-0.70710678,0,0)"
     style="fill:#7a7a7c"
     width="40.960606"
     height="68.17234"
     id="rect17" /><rect
     x="-378.8956"
     y="-84.59948"
     transform="matrix(-0.70710678,-0.70710678,0.70710678,-0.70710678,0,0)"
     style="fill:#6a6a6b"
     width="20.479803"
     height="68.17234"
     id="rect19" /><path
     style="fill:#c3c3c9"
     d="m 453.65864,206.34379 -153.12,-153.120004 c -3.907,-3.907 -3.907,-10.24 0,-14.147 l 7.77,-7.77 c 3.907,-3.907 10.24,-3.907 14.147,0 l 153.121,153.119004 c 3.907,3.907 3.907,10.24 0,14.147 l -7.77,7.77 c -3.907,3.908 -10.241,3.908 -14.148,0.001 z"
     id="path21"
     inkscape:connector-curvature="0" /><path
     style="fill:#b8b9bd"
     d="m 453.58164,206.26679 -76.484,-76.484 c 7.241,-7.241 15.013,-15.013 21.917,-21.917 l 76.484,76.484 c 3.949,3.949 3.949,10.351 0,14.3 l -7.617,7.617 c -3.949,3.949 -10.351,3.949 -14.3,0 z"
     id="path23"
     inkscape:connector-curvature="0" /><g
     id="g25"
     transform="translate(-11.897778,9.165786)" /><g
     id="g27"
     transform="translate(-11.897778,9.165786)" /><g
     id="g29"
     transform="translate(-11.897778,9.165786)" /><g
     id="g31"
     transform="translate(-11.897778,9.165786)" /><g
     id="g33"
     transform="translate(-11.897778,9.165786)" /><g
     id="g35"
     transform="translate(-11.897778,9.165786)" /><g
     id="g37"
     transform="translate(-11.897778,9.165786)" /><g
     id="g39"
     transform="translate(-11.897778,9.165786)" /><g
     id="g41"
     transform="translate(-11.897778,9.165786)" /><g
     id="g43"
     transform="translate(-11.897778,9.165786)" /><g
     id="g45"
     transform="translate(-11.897778,9.165786)" /><g
     id="g47"
     transform="translate(-11.897778,9.165786)" /><g
     id="g49"
     transform="translate(-11.897778,9.165786)" /><g
     id="g51"
     transform="translate(-11.897778,9.165786)" /><g
     id="g53"
     transform="translate(-11.897778,9.165786)" /></svg>