<?xml version="1.0" encoding="UTF-8" standalone="no"?>
<!-- Created with Inkscape (http://www.inkscape.org/) -->

<svg
   xmlns:dc="http://purl.org/dc/elements/1.1/"
   xmlns:cc="http://creativecommons.org/ns#"
   xmlns:rdf="http://www.w3.org/1999/02/22-rdf-syntax-ns#"
   xmlns:svg="http://www.w3.org/2000/svg"
   xmlns="http://www.w3.org/2000/svg"
   xmlns:sodipodi="http://sodipodi.sourceforge.net/DTD/sodipodi-0.dtd"
   xmlns:inkscape="http://www.inkscape.org/namespaces/inkscape"
   id="svg3039"
   version="1.1"
   inkscape:version="0.48.4 r9939"
   width="1454.519"
   height="1457.002"
   sodipodi:docname="motion.svg">
  <metadata
     id="metadata3045">
    <rdf:RDF>
      <cc:Work
         rdf:about="">
        <dc:format>image/svg+xml</dc:format>
        <dc:type
           rdf:resource="http://purl.org/dc/dcmitype/StillImage" />
        <dc:title />
      </cc:Work>
    </rdf:RDF>
  </metadata>
  <defs
     id="defs3043" />
  <sodipodi:namedview
     pagecolor="#ffffff"
     bordercolor="#666666"
     borderopacity="1"
     objecttolerance="10"
     gridtolerance="10"
     guidetolerance="10"
     inkscape:pageopacity="0"
     inkscape:pageshadow="2"
     inkscape:window-width="1036"
     inkscape:window-height="716"
     id="namedview3041"
     showgrid="false"
     inkscape:zoom="0.28477338"
     inkscape:cx="290.393"
     inkscape:cy="348.97834"
     inkscape:window-x="330"
     inkscape:window-y="24"
     inkscape:window-maximized="0"
     inkscape:current-layer="svg3039"
     fit-margin-top="0"
     fit-margin-left="0"
     fit-margin-right="0"
     fit-margin-bottom="0" />
  <path
     style="fill:#ffffff;fill-opacity:1;stroke:#442178;stroke-width:28.251;stroke-linecap:square;stroke-linejoin:miter;stroke-miterlimit:4;stroke-opacity:1;stroke-dasharray:none"
     d="m 585.26889,755.45457 c -0.38749,-4.97207 -0.76195,-34.81713 -0.83213,-66.32234 -0.0854,-38.37132 -0.49474,-58.71997 -1.23968,-61.63727 -2.57755,-10.09409 -10.91323,-18.62894 -22.29878,-22.83156 -14.83162,-5.47463 -11.20463,-5.29788 -118.18821,-5.75976 l -96.96383,-0.41865 -2.44687,-1.88393 -2.44687,-1.88394 0.50161,-36.33116 c 0.57321,-41.51648 -0.0967,-49.68906 -4.74141,-57.84637 -9.8633,-17.32232 -33.67331,-23.35815 -54.11011,-13.71688 -2.67125,1.26019 -21.97738,16.27367 -45.74633,35.5748 -44.05469,35.77377 -77.11426,62.01576 -120.36463,95.54286 -52.08524,40.37578 -97.471283,80.03809 -104.018015,90.90012 -7.4968109,12.43832 -3.7949459,25.95737 11.526428,42.09401 6.919813,7.28803 237.799487,196.79314 248.464087,203.93833 4.6892,3.14172 11.91108,7.08019 16.04861,8.75216 6.98746,2.8236 8.16519,3.0399 16.55014,3.0399 7.63657,0 9.87727,-0.329 14.54406,-2.13558 8.89748,-3.44442 15.46672,-8.23399 18.70528,-13.63787 l 2.86005,-4.77227 0.30062,-50.33004 0.30062,-50.33005 2.20698,-1.03434 c 3.81986,-1.79025 91.81688,-1.91147 129.09136,-0.17785 58.67775,2.72911 80.93078,0.13834 95.63586,-11.13419 9.71804,-7.44961 14.45327,-16.67612 16.65781,-32.45747 1.12356,-8.04313 1.12525,-30.80487 0.003,-45.20066 z"
     id="path3049"
     inkscape:connector-curvature="0" />
  <path
     inkscape:connector-curvature="0"
     id="path2982"
     d="m 690.96637,585.26889 c 4.97207,-0.38749 34.81713,-0.76195 66.32235,-0.83213 38.37132,-0.0854 58.71997,-0.49474 61.63727,-1.23968 10.09409,-2.57755 18.62894,-10.91323 22.83156,-22.29878 5.47463,-14.83162 5.29788,-11.20463 5.75976,-118.18822 l 0.41865,-96.96382 1.88393,-2.44687 1.88394,-2.44687 36.33116,0.50161 c 41.51647,0.57321 49.68905,-0.0967 57.84636,-4.74141 17.32232,-9.8633 23.35815,-33.67331 13.71688,-54.11011 -1.26019,-2.67125 -16.27367,-21.97738 -35.5748,-45.74633 C 888.24967,192.70159 862.00768,159.64202 828.48058,116.39165 788.1048,64.306405 748.44248,18.920365 737.58045,12.373635 725.14213,4.8768254 711.62308,8.5786854 695.48644,23.900065 688.19841,30.819875 498.69331,261.69955 491.54812,272.36415 c -3.14172,4.6892 -7.08019,11.91108 -8.75216,16.04861 -2.82362,6.98746 -3.03995,8.16519 -3.03995,16.55014 0,7.63657 0.32903,9.87727 2.13563,14.54406 3.44442,8.89748 8.23399,15.46672 13.63787,18.70528 l 4.77227,2.86005 50.33004,0.30062 50.33004,0.30062 1.03434,2.20698 c 1.79025,3.81986 1.91147,91.81687 0.17785,129.09136 -2.72911,58.67775 -0.13834,80.93078 11.13419,95.63586 7.44961,9.71804 16.67612,14.45327 32.45747,16.65781 8.04313,1.12356 30.80487,1.12525 45.20066,0.003 z"
     style="fill:#ffffff;fill-opacity:1;stroke:#442178;stroke-width:28.251;stroke-linecap:square;stroke-linejoin:miter;stroke-miterlimit:4;stroke-opacity:1;stroke-dasharray:none" />
  <path
     inkscape:connector-curvature="0"
     id="path2984"
     d="m 869.25013,704.03058 c 0.38749,4.97207 0.76195,34.81713 0.83213,66.32234 0.0854,38.37132 0.49474,58.71997 1.23968,61.63727 2.57755,10.09409 10.91323,18.62894 22.29878,22.83156 14.83162,5.47463 11.20463,5.29788 118.18818,5.75976 l 96.9638,0.41865 2.4469,1.88393 2.4468,1.88394 -0.5016,36.33116 c -0.5732,41.51648 0.097,49.68906 4.7414,57.84636 9.8633,17.32233 33.6734,23.35815 54.1102,13.71688 2.6712,-1.26018 21.9773,-16.27366 45.7463,-35.57479 44.0547,-35.77377 77.1143,-62.01576 120.3646,-95.54286 52.0853,-40.37578 97.4713,-80.03809 104.018,-90.90012 7.4969,-12.43832 3.795,-25.95737 -11.5264,-42.09401 -6.9198,-7.28803 -237.7995,-196.79315 -248.4641,-203.93834 -4.6892,-3.14172 -11.9111,-7.08019 -16.0486,-8.75216 -6.9874,-2.82362 -8.1652,-3.03995 -16.5501,-3.03995 -7.6366,0 -9.8773,0.32903 -14.5441,2.13563 -8.8975,3.44442 -15.4667,8.23399 -18.7053,13.63787 l -2.86,4.77227 -0.3006,50.33005 -0.3007,50.33005 -2.2069,1.03434 c -3.8199,1.79025 -91.8169,1.91147 -129.09135,0.17785 -58.67775,-2.72911 -80.93078,-0.13834 -95.63586,11.13419 -9.71804,7.44961 -14.45327,16.67612 -16.65781,32.45747 -1.12356,8.04313 -1.12525,30.80487 -0.003,45.20066 z"
     style="fill:#ffffff;fill-opacity:1;stroke:#442178;stroke-width:28.251;stroke-linecap:square;stroke-linejoin:miter;stroke-miterlimit:4;stroke-opacity:1;stroke-dasharray:none" />
  <path
     style="fill:#ffffff;fill-opacity:1;stroke:#442178;stroke-width:28.251;stroke-linecap:square;stroke-linejoin:miter;stroke-miterlimit:4;stroke-opacity:1;stroke-dasharray:none"
     d="m 763.55263,871.73321 c -4.972,0.38749 -34.8171,0.76195 -66.3223,0.83213 -38.3713,0.0854 -58.72,0.49474 -61.6373,1.23968 -10.0941,2.57755 -18.6289,10.91323 -22.8316,22.29878 -5.4746,14.83162 -5.2978,11.20463 -5.7597,118.1882 l -0.4187,96.9638 -1.8839,2.4469 -1.8839,2.4468 -36.3312,-0.5016 c -41.5165,-0.5732 -49.689,0.097 -57.8464,4.7414 -17.3223,9.8633 -23.3581,33.6733 -13.7168,54.1101 1.2602,2.6713 16.2736,21.9774 35.5748,45.7464 35.7737,44.0547 62.0157,77.1142 95.5428,120.3646 40.3758,52.0852 80.0381,97.4712 90.9001,104.018 12.4384,7.4968 25.9574,3.7949 42.0941,-11.5265 7.288,-6.9198 196.79308,-237.7994 203.93827,-248.464 3.14172,-4.6892 7.08019,-11.9111 8.75216,-16.0486 2.82362,-6.9875 3.03995,-8.1652 3.03995,-16.5501 0,-7.6366 -0.32903,-9.8773 -2.13563,-14.5441 -3.44442,-8.8975 -8.23399,-15.4667 -13.63787,-18.7053 l -4.77227,-2.86 -50.33004,-0.3007 -50.33004,-0.3006 -1.03434,-2.207 c -1.79025,-3.8198 -1.91147,-91.8168 -0.17785,-129.09126 2.72911,-58.67776 0.13834,-80.93079 -11.13419,-95.63587 -7.44961,-9.71804 -16.67612,-14.45327 -32.45747,-16.65781 -8.04313,-1.12356 -30.80487,-1.12525 -45.20068,-0.003 z"
     id="path2986"
     inkscape:connector-curvature="0" />
</svg>
