<?xml version="1.0" encoding="UTF-8" standalone="no"?>
<!-- Created with Inkscape (http://www.inkscape.org/) -->

<svg
   xmlns:dc="http://purl.org/dc/elements/1.1/"
   xmlns:cc="http://creativecommons.org/ns#"
   xmlns:rdf="http://www.w3.org/1999/02/22-rdf-syntax-ns#"
   xmlns:svg="http://www.w3.org/2000/svg"
   xmlns="http://www.w3.org/2000/svg"
   xmlns:sodipodi="http://sodipodi.sourceforge.net/DTD/sodipodi-0.dtd"
   xmlns:inkscape="http://www.inkscape.org/namespaces/inkscape"
   width="256.09"
   height="256.09445"
   id="svg2"
   version="1.1"
   inkscape:version="0.48.4 r9939"
   sodipodi:docname="play.svg">
  <defs
     id="defs4" />
  <sodipodi:namedview
     id="base"
     pagecolor="#ffffff"
     bordercolor="#666666"
     borderopacity="1.0"
     inkscape:pageopacity="0.0"
     inkscape:pageshadow="2"
     inkscape:zoom="0.35"
     inkscape:cx="-389.48009"
     inkscape:cy="138.66963"
     inkscape:document-units="px"
     inkscape:current-layer="layer1"
     showgrid="false"
     fit-margin-top="0"
     fit-margin-left="0"
     fit-margin-right="0"
     fit-margin-bottom="0"
     inkscape:window-width="1301"
     inkscape:window-height="601"
     inkscape:window-x="65"
     inkscape:window-y="139"
     inkscape:window-maximized="0" />
  <metadata
     id="metadata7">
    <rdf:RDF>
      <cc:Work
         rdf:about="">
        <dc:format>image/svg+xml</dc:format>
        <dc:type
           rdf:resource="http://purl.org/dc/dcmitype/StillImage" />
        <dc:title />
      </cc:Work>
    </rdf:RDF>
  </metadata>
  <g
     inkscape:label="Layer 1"
     inkscape:groupmode="layer"
     id="layer1"
     transform="translate(-261.62295,-414.93736)">
    <path
       inkscape:connector-curvature="0"
       id="path2998-3"
       d="m 292.33742,664.06036 c -8.31102,-5.15725 -8.0275,-0.82858 -8.0275,-122.55292 0,-100.23459 0.21936,-111.501 2.24776,-115.46054 3.00209,-5.85995 4.06283,-6.39868 12.64668,-6.4232 7.36641,-0.021 13.21278,2.28626 22.80816,9.00143 2.26215,1.58311 6.09767,3.66031 8.5234,4.61599 2.42557,0.9557 5.16634,2.64872 6.09053,3.76228 0.9242,1.11354 6.03133,4.21577 11.34918,6.89383 5.31798,2.67806 11.52301,6.26707 13.789,7.97557 2.266,1.70853 6.27933,4.11472 8.91852,5.3471 7.58974,3.54407 12.51384,6.2711 19.87955,11.00953 3.77026,2.42543 10.24825,6.18537 14.39554,8.35544 4.14729,2.17008 9.28458,5.35216 11.41594,7.0713 2.1315,1.71915 4.5542,3.12573 5.38379,3.12573 0.82946,0 4.63811,2.08388 8.46349,4.63085 3.8255,2.54695 10.96555,6.89076 15.8669,9.65287 4.90133,2.76211 14.09213,8.08166 20.42384,11.8212 6.33184,3.73953 12.03329,6.79916 12.66999,6.79916 0.6367,0 4.0934,2.14129 7.68173,4.75842 14.98905,10.93233 14.06678,9.68479 14.04361,18.99568 -0.0137,4.65547 -0.47423,9.08144 -1.02826,9.83549 -1.57967,2.15006 -15.35867,11.01377 -23.18902,14.91695 -3.90544,1.9467 -7.47841,4.15058 -7.94002,4.8975 -0.46163,0.74692 -3.5823,2.5714 -6.93496,4.05439 -3.35251,1.48298 -9.34229,4.81793 -13.31039,7.41101 -3.96822,2.59306 -12.10583,7.26173 -18.08353,10.37479 -5.97758,3.11309 -11.83862,6.51184 -13.02454,7.55278 -1.18578,1.04095 -5.54928,3.57436 -9.69656,5.6298 -4.14728,2.05544 -9.56919,5.2599 -12.04865,7.12106 -2.47946,1.86114 -8.4495,5.17095 -13.26666,7.35514 -4.81702,2.1842 -9.15707,4.61642 -9.64447,5.40495 -0.48725,0.78854 -4.69705,3.33774 -9.3549,5.66489 -4.65798,2.32716 -9.70465,5.36246 -11.21495,6.74512 -1.51029,1.38266 -6.13743,4.15161 -10.28252,6.15323 -4.1451,2.00162 -10.00436,5.12383 -13.02056,6.93822 -10.7813,6.4855 -25.24923,12.88736 -29.04389,12.85149 -2.12314,-0.02 -5.49183,-1.04901 -7.48623,-2.28653 z"
       style="fill:#37c837;stroke:#008000;stroke-width:9.34200001;stroke-miterlimit:4;stroke-dasharray:none"
       sodipodi:nodetypes="cscsscsssssscscsssscsssccscsscccssscc" />
  </g>
</svg>
