<?xml version="1.0" encoding="UTF-8" standalone="no"?>
<!-- Created with Inkscape (http://www.inkscape.org/) -->

<svg
   xmlns:dc="http://purl.org/dc/elements/1.1/"
   xmlns:cc="http://creativecommons.org/ns#"
   xmlns:rdf="http://www.w3.org/1999/02/22-rdf-syntax-ns#"
   xmlns:svg="http://www.w3.org/2000/svg"
   xmlns="http://www.w3.org/2000/svg"
   xmlns:sodipodi="http://sodipodi.sourceforge.net/DTD/sodipodi-0.dtd"
   xmlns:inkscape="http://www.inkscape.org/namespaces/inkscape"
   width="506.12283"
   height="505.75031"
   id="svg2"
   version="1.1"
   inkscape:version="0.48.4 r9939"
   sodipodi:docname="play.svg">
  <defs
     id="defs4" />
  <sodipodi:namedview
     id="base"
     pagecolor="#ffffff"
     bordercolor="#666666"
     borderopacity="1.0"
     inkscape:pageopacity="0.0"
     inkscape:pageshadow="2"
     inkscape:zoom="0.35"
     inkscape:cx="275.69422"
     inkscape:cy="262.32346"
     inkscape:document-units="px"
     inkscape:current-layer="layer1"
     showgrid="false"
     fit-margin-top="0"
     fit-margin-left="0"
     fit-margin-right="0"
     fit-margin-bottom="0"
     inkscape:window-width="1339"
     inkscape:window-height="601"
     inkscape:window-x="298"
     inkscape:window-y="696"
     inkscape:window-maximized="0" />
  <metadata
     id="metadata7">
    <rdf:RDF>
      <cc:Work
         rdf:about="">
        <dc:format>image/svg+xml</dc:format>
        <dc:type
           rdf:resource="http://purl.org/dc/dcmitype/StillImage" />
        <dc:title></dc:title>
      </cc:Work>
    </rdf:RDF>
  </metadata>
  <g
     inkscape:label="Layer 1"
     inkscape:groupmode="layer"
     id="layer1"
     transform="translate(-99.305778,-288.93534)">
    <path
       inkscape:connector-curvature="0"
       id="path2998"
       d="m 323.9286,790.23865 c -2.2,-0.19732 -4.9,-0.77655 -6,-1.28717 -1.1,-0.51063 -4.475,-1.14119 -7.5,-1.40125 -5.09124,-0.43769 -7.79219,-0.90271 -21.5,-3.7017 -6.41665,-1.31021 -8.61152,-1.41444 -10.65966,-0.50622 -1.19127,0.52825 -1.85176,0.13069 -2.34034,-1.40869 -0.42056,-1.32508 -1.21938,-1.92593 -2.09034,-1.57232 -0.77531,0.31478 -2.08466,0.84546 -2.90966,1.17931 -1.07954,0.43684 -1.50272,-0.0537 -1.50972,-1.75 -0.008,-2.02429 -0.9572,-2.66277 -6.72218,-4.52327 -4.86305,-1.56943 -7.22268,-1.89321 -8.56433,-1.17518 -1.45534,0.77887 -1.95481,0.60035 -2.3326,-0.83372 -0.26439,-1.00365 -2.14357,-2.61863 -4.17594,-3.58885 -9.35847,-4.46754 -18.12909,-9.19399 -22.8647,-12.32171 -2.8432,-1.87784 -5.97738,-3.41426 -6.96483,-3.41426 -0.98745,0 -2.71119,-0.88801 -3.83053,-1.97335 -3.44927,-3.34448 -8.886,-7.6793 -12.10136,-9.64866 -5.49659,-3.36658 -12.55333,-9.6414 -26.36194,-23.44092 -13.95268,-13.9435 -19.8948,-20.82402 -25.31142,-29.30869 -1.71052,-2.67939 -4.60638,-6.32485 -6.43524,-8.10102 -1.82887,-1.77617 -3.32521,-4.12892 -3.32521,-5.22834 0,-1.09942 -1.37401,-3.89571 -3.05336,-6.21399 -2.75474,-3.8028 -7.95229,-13.34044 -12.68661,-23.28026 -0.96802,-2.03237 -2.5812,-3.91155 -3.58485,-4.17594 -1.44289,-0.38011 -1.61484,-0.87306 -0.82156,-2.35531 0.73771,-1.37843 0.403,-3.65824 -1.26458,-8.61345 -1.24731,-3.70638 -2.79011,-7.26113 -3.42844,-7.89947 -0.63833,-0.63833 -1.1606,-1.94028 -1.1606,-2.89321 0,-0.95294 -0.93255,-2.02859 -2.07232,-2.39034 -1.43762,-0.45629 -1.86765,-1.16605 -1.40407,-2.31739 0.36754,-0.91281 0.87554,-2.16302 1.12888,-2.77824 0.25334,-0.61522 -0.49849,-1.36939 -1.67075,-1.67594 -1.85163,-0.48422 -1.97762,-0.84466 -0.95991,-2.74627 0.66151,-1.23603 0.89214,-3.55367 0.52982,-5.32405 -1.45002,-7.08497 -2.67263,-14.48817 -3.36163,-20.35537 -0.40175,-3.42112 -1.28385,-6.77362 -1.96023,-7.45 -1.90733,-1.90733 -1.74931,-62.64305 0.1701,-65.3834 0.76994,-1.09925 1.63511,-4.68688 1.9226,-7.97251 0.28749,-3.28563 1.02197,-8.44888 1.63218,-11.47388 0.61021,-3.025 1.5689,-7.75 2.13042,-10.5 1.31021,-6.41665 1.41444,-8.61152 0.50622,-10.65966 -0.52992,-1.19503 -0.12644,-1.85311 1.44123,-2.35067 1.78128,-0.56535 2.07174,-1.21824 1.59733,-3.59034 -0.46015,-2.3007 -0.22371,-2.90134 1.14513,-2.90905 2.35622,-0.0133 6.51884,-12.57272 5.06646,-15.28651 -0.77887,-1.45534 -0.60035,-1.95481 0.83372,-2.3326 1.00365,-0.26439 2.61863,-2.14357 3.58885,-4.17594 4.46754,-9.35847 9.19399,-18.12909 12.32171,-22.8647 1.87784,-2.8432 3.41426,-5.97738 3.41426,-6.96483 0,-0.98745 0.88801,-2.71119 1.97335,-3.83053 3.34448,-3.44927 7.6793,-8.886 9.64866,-12.10136 4.54048,-7.41321 32.55471,-37.31734 37.37799,-39.89959 1.375,-0.73614 4.3377,-3.06998 6.58378,-5.18633 2.24608,-2.11634 6.00917,-4.97289 8.36242,-6.34789 2.35326,-1.375 5.97511,-4.1875 8.04858,-6.25 2.07346,-2.0625 4.65535,-3.75 5.73753,-3.75 1.08219,0 3.86438,-1.37401 6.18266,-3.05336 3.8028,-2.75474 13.34044,-7.95229 23.28026,-12.68661 2.03237,-0.96802 3.91155,-2.5812 4.17594,-3.58485 0.38011,-1.44289 0.87306,-1.61484 2.35531,-0.82156 1.37843,0.73771 3.65824,0.403 8.61345,-1.26458 3.70638,-1.24731 7.26113,-2.7901 7.89947,-3.42844 0.63833,-0.63833 1.94028,-1.1606 2.89321,-1.1606 0.95294,0 2.02859,-0.93255 2.39034,-2.07232 0.40263,-1.26856 1.20448,-1.85035 2.06739,-1.5 0.77531,0.31478 2.02552,0.82277 2.77824,1.12888 0.83503,0.33958 1.58587,-0.27437 1.92594,-1.57482 0.48422,-1.85163 0.84466,-1.97762 2.74627,-0.95991 1.23603,0.6615 3.55367,0.89214 5.32405,0.52982 8.46357,-1.73216 14.65342,-2.73017 19.88516,-3.20616 5.26554,-0.47906 5.75,-0.72628 5.75,-2.93431 0,-2.45101 1.37697,-3.22827 2.5,-1.41118 0.39067,0.63211 12.10288,1 31.83651,1 25.13908,0 31.60768,0.27261 33.2171,1.39989 1.09925,0.76994 4.68688,1.63511 7.97251,1.9226 3.28563,0.28749 8.44888,1.02628 11.47388,1.64176 10.42743,2.12161 11.77973,2.224 13.9602,1.05705 1.90041,-1.01707 2.26115,-0.89087 2.74528,0.96044 0.30655,1.17226 1.06072,1.9241 1.67594,1.67075 0.61522,-0.25334 1.86543,-0.76134 2.77824,-1.12888 1.16088,-0.46742 1.86422,-0.0237 2.34034,1.47639 0.47612,1.50011 1.17946,1.94381 2.34034,1.47639 0.91281,-0.36754 2.22216,-0.89823 2.90966,-1.17931 0.78972,-0.32288 1.25358,0.35684 1.25972,1.84593 0.008,2.02429 0.9572,2.66277 6.72218,4.52327 4.86305,1.56943 7.22268,1.89321 8.56433,1.17518 1.45534,-0.77887 1.95481,-0.60035 2.3326,0.83372 0.26439,1.00365 2.14357,2.61863 4.17594,3.58885 9.35847,4.46753 18.12909,9.19399 22.8647,12.32171 2.8432,1.87784 5.97738,3.41426 6.96483,3.41426 0.98745,0 2.71119,0.88801 3.83053,1.97335 3.44927,3.34448 8.886,7.6793 12.10136,9.64866 5.51918,3.38041 12.57505,9.66262 26.36194,23.4714 14.03662,14.0589 20.84329,21.6833 23.01673,25.78186 1.932,3.64326 8.09181,11.46211 10.18514,12.92834 1.0285,0.72039 1.87,2.34176 1.87,3.60306 0,1.26129 1.37401,4.19002 3.05336,6.5083 2.75474,3.8028 7.95229,13.34044 12.68661,23.28026 0.96802,2.03237 2.5812,3.91155 3.58485,4.17594 1.44289,0.38011 1.61484,0.87306 0.82156,2.35531 -0.73771,1.37843 -0.403,3.65824 1.26458,8.61345 1.24731,3.70638 2.7901,7.26113 3.42844,7.89947 0.63833,0.63833 1.1606,1.94028 1.1606,2.89321 0,0.95294 0.93254,2.02859 2.07232,2.39034 1.13978,0.36176 1.85795,1.17958 1.59594,1.81739 -0.26202,0.63781 -0.77001,1.88802 -1.12888,2.77824 -0.45309,1.12394 -10e-4,1.78891 1.47888,2.17594 1.85163,0.48422 1.97762,0.84466 0.95991,2.74627 -0.66151,1.23603 -0.89214,3.55367 -0.52982,5.32405 1.74073,8.50544 2.73086,14.66445 3.21044,19.9702 0.50334,5.56859 0.63733,5.80745 2.93432,5.23095 1.94726,-0.48873 2.40689,-0.21853 2.40689,1.41496 0,1.11048 -0.45,2.01905 -1,2.01905 -0.64535,0 -1,11.0925 -1,31.27749 0,25.18967 -0.27247,31.66651 -1.39989,33.27612 -0.76994,1.09925 -1.63511,4.68688 -1.9226,7.97251 -0.28749,3.28563 -1.00754,8.33638 -1.60011,11.22388 -3.68417,17.9524 -3.79775,18.86356 -2.66871,21.40966 0.52992,1.19503 0.12644,1.85311 -1.44123,2.35067 -1.78128,0.56535 -2.07175,1.21824 -1.59733,3.59034 0.46014,2.3007 0.22371,2.90134 -1.14513,2.90905 -2.35622,0.0133 -6.51884,12.57272 -5.06646,15.28651 0.77887,1.45534 0.60035,1.95481 -0.83372,2.3326 -1.00365,0.26439 -2.61863,2.14357 -3.58885,4.17594 -4.46754,9.35847 -9.19399,18.12909 -12.32171,22.8647 -1.87784,2.8432 -3.41426,5.97738 -3.41426,6.96483 0,0.98745 -0.88801,2.71119 -1.97335,3.83053 -3.34448,3.44927 -7.6793,8.886 -9.64866,12.10136 -3.38041,5.51918 -9.66262,12.57505 -23.4714,26.36194 -14.0589,14.03662 -21.6833,20.84329 -25.78186,23.01673 -3.64326,1.932 -11.46211,8.09181 -12.92834,10.18514 -0.72039,1.0285 -2.34176,1.87 -3.60306,1.87 -1.26129,0 -4.19002,1.37401 -6.5083,3.05336 -3.8028,2.75474 -13.34044,7.95229 -23.28026,12.68661 -2.03237,0.96802 -3.91155,2.5812 -4.17594,3.58485 -0.38011,1.44289 -0.87306,1.61484 -2.35531,0.82156 -1.37843,-0.73771 -3.65824,-0.403 -8.61345,1.26458 -3.70638,1.24731 -7.26113,2.7901 -7.89947,3.42844 -0.63833,0.63833 -1.94028,1.1606 -2.89321,1.1606 -0.95294,0 -2.02859,0.93254 -2.39034,2.07232 -0.40263,1.26856 -1.20448,1.85035 -2.06739,1.5 -0.77531,-0.31478 -2.02552,-0.82277 -2.77824,-1.12888 -0.83503,-0.33958 -1.58587,0.27437 -1.92594,1.57482 -0.48422,1.85163 -0.84466,1.97762 -2.74627,0.95991 -1.23603,-0.66151 -3.55367,-0.89214 -5.32405,-0.52982 -5.17762,1.05966 -13.76507,2.5744 -20.13516,3.55165 -3.3,0.50626 -8.7,1.35039 -12,1.87585 -5.63112,0.89665 -47.23317,1.21548 -56,0.42918 z m 44.31531,-47.52034 c 0.70963,-0.70963 4.43369,-1.28596 8.95,-1.38509 4.25408,-0.0934 10.43469,-0.65655 13.73469,-1.25151 3.3,-0.59495 7.72206,-1.37492 9.82681,-1.73328 2.10474,-0.35836 4.06539,-1.27329 4.35699,-2.03318 0.2916,-0.7599 1.80547,-1.38163 3.36417,-1.38163 1.5587,0 3.11211,-0.45 3.45203,-1 0.33992,-0.55 1.88638,-1 3.43657,-1 1.5502,0 3.39574,-0.69548 4.1012,-1.54551 0.70546,-0.85003 1.87453,-1.31838 2.59794,-1.04079 1.23074,0.47228 5.95904,-1.23998 9.36429,-3.39109 0.825,-0.52116 4.875,-2.5417 9,-4.49011 8.7475,-4.13179 20.39801,-10.96212 24.78814,-14.5325 1.6907,-1.375 4.78198,-3.625 6.86952,-5 4.96357,-3.26935 36.11478,-34.43639 39.34234,-39.36234 1.375,-2.09854 3.625,-5.238 5,-6.97659 2.71377,-3.43137 4.29839,-5.99274 7.52357,-12.16107 1.1503,-2.2 3.3718,-6.01242 4.93666,-8.47205 1.56487,-2.45963 3.58617,-6.50963 4.49178,-9 0.90562,-2.49037 2.63199,-6.10144 3.83639,-8.0246 1.20439,-1.92316 1.95955,-4.22212 1.67813,-5.10882 -0.28143,-0.88669 0.17347,-2.1808 1.01089,-2.87579 0.83742,-0.695 1.52936,-2.22103 1.53764,-3.39118 0.0168,-2.37416 1.87513,-7.92733 3.82006,-11.41533 0.70162,-1.25828 0.98519,-3.20303 0.63015,-4.32167 -0.38366,-1.2088 -0.0422,-2.71474 0.84159,-3.71222 1.72609,-1.94804 2.77306,-8.46086 3.13045,-19.47348 0.13913,-4.28733 0.77266,-8.31483 1.40783,-8.95 1.60825,-1.60825 1.6025,-32.90722 -0.006,-34.51606 -0.63866,-0.63866 -1.26599,-4.44116 -1.39407,-8.45 -0.12808,-4.00884 -0.71561,-9.9888 -1.30562,-13.2888 -0.59001,-3.3 -1.36594,-7.72206 -1.7243,-9.82681 -0.35836,-2.10474 -1.27329,-4.06539 -2.03318,-4.35699 -0.76024,-0.2916 -1.38197,-1.80547 -1.38197,-3.36417 0,-1.5587 -0.45,-3.11211 -1,-3.45203 -0.55,-0.33992 -1,-1.88638 -1,-3.43657 0,-1.5502 -0.69548,-3.39574 -1.54551,-4.1012 -0.85003,-0.70546 -1.31838,-1.87453 -1.04079,-2.59794 0.47228,-1.23074 -1.23998,-5.95904 -3.39109,-9.36429 -0.52116,-0.825 -2.5417,-4.875 -4.49011,-9 -4.13179,-8.7475 -10.96212,-20.39801 -14.5325,-24.78814 -1.375,-1.6907 -3.625,-4.78198 -5,-6.86952 -3.26935,-4.96357 -34.43639,-36.11478 -39.36234,-39.34234 -2.09854,-1.375 -5.238,-3.625 -6.97659,-5 -3.43137,-2.71377 -5.99274,-4.29839 -12.16107,-7.52357 -2.2,-1.1503 -5.91145,-3.30805 -8.24767,-4.79501 -2.33622,-1.48696 -6.28635,-3.39572 -8.77807,-4.24168 -2.49172,-0.84596 -6.166,-2.64806 -8.16506,-4.00466 -1.99907,-1.3566 -4.39791,-2.22431 -5.33075,-1.92824 -0.93285,0.29607 -2.26472,-0.14684 -2.95971,-0.98426 -0.695,-0.83742 -1.96408,-1.52258 -2.82019,-1.52258 -2.09061,0 -8.05805,-1.92193 -11.4605,-3.69108 -1.51907,-0.78986 -3.68882,-1.14193 -4.82166,-0.78238 -1.23742,0.39274 -2.72976,0.06 -3.73805,-0.8334 -1.94804,-1.7261 -8.46086,-2.77306 -19.47348,-3.13045 -4.28733,-0.13913 -8.31483,-0.77266 -8.95,-1.40783 -1.65072,-1.65072 -31.91349,-1.59623 -33.57017,0.0605 -0.70963,0.70963 -4.43369,1.28596 -8.95,1.38509 -4.25408,0.0934 -10.43469,0.65655 -13.73469,1.2515 -3.3,0.59495 -7.72206,1.37493 -9.82681,1.73329 -2.10474,0.35835 -4.06539,1.27328 -4.35699,2.03318 -0.2916,0.7599 -1.80547,1.38163 -3.36417,1.38163 -1.5587,0 -3.11211,0.45 -3.45203,1 -0.33992,0.55 -1.88638,1 -3.43657,1 -1.5502,0 -3.39574,0.69548 -4.1012,1.54551 -0.70546,0.85003 -1.89089,1.31211 -2.63429,1.02684 -1.41556,-0.5432 -5.76702,1.00372 -8.32794,2.96053 -0.825,0.63039 -4.04371,2.15287 -7.1527,3.38329 -3.10898,1.23042 -7.91114,3.66514 -10.67147,5.41048 -2.76032,1.74534 -6.50082,4.07335 -8.31223,5.17335 -1.8114,1.1 -4.24996,2.675 -5.41902,3.5 -5.38077,3.79718 -10.15416,7.11983 -12.44458,8.66238 -4.77336,3.21476 -28.24035,26.87919 -34.05115,34.33762 -3.21375,4.125 -6.86458,8.81405 -8.11296,10.42012 -2.98459,3.83973 -5.31664,7.86735 -8.44196,14.57988 -1.40843,3.025 -3.39247,6.4 -4.40898,7.5 -1.01651,1.1 -2.5761,4.15013 -3.46576,6.77807 -0.88966,2.62793 -2.72751,6.41367 -4.08411,8.41273 -1.35661,1.99907 -2.22431,4.39791 -1.92824,5.33075 0.29607,0.93285 -0.14684,2.26472 -0.98426,2.95971 -0.83742,0.695 -1.52936,2.22103 -1.53764,3.39118 -0.0168,2.37416 -1.87513,7.92733 -3.82006,11.41533 -0.70162,1.25828 -0.98519,3.20303 -0.63015,4.32167 0.38366,1.2088 0.0422,2.71474 -0.84159,3.71222 -1.72609,1.94804 -2.77306,8.46086 -3.13045,19.47348 -0.13913,4.28733 -0.77266,8.31483 -1.40783,8.95 -1.65072,1.65072 -1.59623,31.91349 0.0605,33.57017 0.70962,0.70963 1.28596,4.43369 1.38509,8.95 0.0934,4.25408 0.65655,10.43469 1.2515,13.73469 0.59495,3.3 1.37493,7.72206 1.73329,9.82681 0.35835,2.10474 1.27328,4.06539 2.03318,4.35699 0.75989,0.2916 1.3884,1.71953 1.39668,3.17319 0.0183,3.21591 2.07217,9.33825 3.85218,11.48304 0.71772,0.8648 1.03549,2.00835 0.70615,2.54123 -0.63333,1.02476 1.03405,5.59887 2.9595,8.11874 0.63038,0.825 2.15286,4.04371 3.38329,7.1527 1.23042,3.10898 3.66514,7.91114 5.41048,10.67147 1.74534,2.76032 4.07335,6.50082 5.17335,8.31223 1.1,1.8114 2.675,4.25078 3.5,5.42086 5.56741,7.8961 7.27478,10.33831 9.3979,13.44274 2.92012,4.2698 29.53651,30.15183 35.99306,35 2.56362,1.925 6.11191,4.625 7.88509,6 3.52516,2.73357 6.13526,4.34003 12.22395,7.52357 2.2,1.1503 5.91145,3.30805 8.24767,4.79501 2.33622,1.48696 6.28635,3.39572 8.77807,4.24168 2.49172,0.84596 6.166,2.64806 8.16506,4.00466 1.99907,1.35661 4.39791,2.22431 5.33075,1.92824 0.93285,-0.29607 2.26472,0.14684 2.95971,0.98426 0.695,0.83742 2.22103,1.52936 3.39118,1.53764 2.37416,0.0168 7.92733,1.87513 11.41533,3.82006 1.25828,0.70162 3.20303,0.98519 4.32167,0.63015 1.2088,-0.38366 2.71474,-0.0422 3.71222,0.84159 1.94804,1.72609 8.46086,2.77306 19.47348,3.13045 4.28733,0.13913 8.31483,0.77266 8.95,1.40783 1.65072,1.65072 31.91349,1.59623 33.57017,-0.0605 z"
       style="fill:#ffd42a;stroke:#806600;stroke-width:2;stroke-miterlimit:4;stroke-dasharray:none"
       sodipodi:nodetypes="sssssssccsssssssssssssssssssssssssssssssssscsssssssssssssssssssssssssssssssssscsssscsssssssssssssssssssscscssssssssssssscssssssssssssssssssssssssssscsssssssscsssssssssscsssscsscssscsssscsssssssssssssssssscsssssssssssssssssssssssssscsscsssssssssssssssssssssssscsscc" />
    <path
       inkscape:connector-curvature="0"
       id="path2998-3"
       d="m 274.33742,664.06036 c -8.31102,-5.15725 -8.0275,-0.82858 -8.0275,-122.55292 0,-100.23459 0.21936,-111.501 2.24776,-115.46054 3.00209,-5.85995 4.06283,-6.39868 12.64668,-6.4232 7.36641,-0.021 13.21278,2.28626 22.80816,9.00143 2.26215,1.58311 6.09767,3.66031 8.5234,4.61599 2.42557,0.9557 5.16634,2.64872 6.09053,3.76228 0.9242,1.11354 6.03133,4.21577 11.34918,6.89383 5.31798,2.67806 11.52301,6.26707 13.789,7.97557 2.266,1.70853 6.27933,4.11472 8.91852,5.3471 7.58974,3.54407 12.51384,6.2711 19.87955,11.00953 3.77026,2.42543 10.24825,6.18537 14.39554,8.35544 4.14729,2.17008 9.28458,5.35216 11.41594,7.0713 2.1315,1.71915 4.5542,3.12573 5.38379,3.12573 0.82946,0 4.63811,2.08388 8.46349,4.63085 3.8255,2.54695 10.96555,6.89076 15.8669,9.65287 4.90133,2.76211 14.09213,8.08166 20.42384,11.8212 6.33184,3.73953 12.03329,6.79916 12.66999,6.79916 0.6367,0 4.0934,2.14129 7.68173,4.75842 14.98905,10.93233 14.06678,9.68479 14.04361,18.99568 -0.0137,4.65547 -0.47423,9.08144 -1.02826,9.83549 -1.57967,2.15006 -15.35867,11.01377 -23.18902,14.91695 -3.90544,1.9467 -7.47841,4.15058 -7.94002,4.8975 -0.46163,0.74692 -3.5823,2.5714 -6.93496,4.05439 -3.35251,1.48298 -9.34229,4.81793 -13.31039,7.41101 -3.96822,2.59306 -12.10583,7.26173 -18.08353,10.37479 -5.97758,3.11309 -11.83862,6.51184 -13.02454,7.55278 -1.18578,1.04095 -5.54928,3.57436 -9.69656,5.6298 -4.14728,2.05544 -9.56919,5.2599 -12.04865,7.12106 -2.47946,1.86114 -8.4495,5.17095 -13.26666,7.35514 -4.81702,2.1842 -9.15707,4.61642 -9.64447,5.40495 -0.48725,0.78854 -4.69705,3.33774 -9.3549,5.66489 -4.65798,2.32716 -9.70465,5.36246 -11.21495,6.74512 -1.51029,1.38266 -6.13743,4.15161 -10.28252,6.15323 -4.1451,2.00162 -10.00436,5.12383 -13.02056,6.93822 -10.7813,6.4855 -25.24923,12.88736 -29.04389,12.85149 -2.12314,-0.02 -5.49183,-1.04901 -7.48623,-2.28653 z"
       style="fill:#ffd42a;stroke:#806600;stroke-width:2.74200749000000021;stroke-miterlimit:4;stroke-dasharray:none"
       sodipodi:nodetypes="cscsscsssssscscsssscsssccscsscccssscc" />
  </g>
</svg>
