<?xml version="1.0" encoding="UTF-8" standalone="no"?>
<!-- Created with Inkscape (http://www.inkscape.org/) -->

<svg
   xmlns:dc="http://purl.org/dc/elements/1.1/"
   xmlns:cc="http://creativecommons.org/ns#"
   xmlns:rdf="http://www.w3.org/1999/02/22-rdf-syntax-ns#"
   xmlns:svg="http://www.w3.org/2000/svg"
   xmlns="http://www.w3.org/2000/svg"
   xmlns:sodipodi="http://sodipodi.sourceforge.net/DTD/sodipodi-0.dtd"
   xmlns:inkscape="http://www.inkscape.org/namespaces/inkscape"
   width="605"
   height="605.90869"
   id="svg2996"
   version="1.1"
   inkscape:version="0.48.4 r9939"
   sodipodi:docname="left.svg">
  <defs
     id="defs2998" />
  <sodipodi:namedview
     id="base"
     pagecolor="#ffffff"
     bordercolor="#666666"
     borderopacity="1.0"
     inkscape:pageopacity="0.0"
     inkscape:pageshadow="2"
     inkscape:zoom="0.35"
     inkscape:cx="256.34375"
     inkscape:cy="303.16907"
     inkscape:document-units="px"
     inkscape:current-layer="layer1"
     showgrid="false"
     fit-margin-top="0"
     fit-margin-left="0"
     fit-margin-right="0"
     fit-margin-bottom="0"
     inkscape:window-width="1301"
     inkscape:window-height="744"
     inkscape:window-x="65"
     inkscape:window-y="24"
     inkscape:window-maximized="1" />
  <metadata
     id="metadata3001">
    <rdf:RDF>
      <cc:Work
         rdf:about="">
        <dc:format>image/svg+xml</dc:format>
        <dc:type
           rdf:resource="http://purl.org/dc/dcmitype/StillImage" />
        <dc:title></dc:title>
      </cc:Work>
    </rdf:RDF>
  </metadata>
  <g
     inkscape:label="Layer 1"
     inkscape:groupmode="layer"
     id="layer1"
     transform="translate(-118.65625,-229.62259)">
    <path
       inkscape:connector-curvature="0"
       id="path2982"
       d="m 133.09837,501.3596 c 0.38749,4.97207 0.76195,34.81713 0.83213,66.32235 0.0854,38.37132 0.49474,58.71997 1.23968,61.63727 2.57755,10.09409 10.91323,18.62894 22.29878,22.83156 14.83162,5.47463 11.20463,5.29788 118.18822,5.75976 l 96.96382,0.41865 2.44687,1.88393 2.44687,1.88394 -0.50161,36.33116 c -0.57321,41.51647 0.0967,49.68905 4.74141,57.84636 9.8633,17.32232 33.67331,23.35815 54.11011,13.71688 2.67125,-1.26019 21.97738,-16.27367 45.74633,-35.5748 44.05469,-35.77376 77.11426,-62.01575 120.36463,-95.54285 52.08524,-40.37578 97.47128,-80.0381 104.01801,-90.90013 7.49681,-12.43832 3.79495,-25.95737 -11.52643,-42.09401 -6.91981,-7.28803 -237.79948,-196.79313 -248.46408,-203.93832 -4.6892,-3.14172 -11.91108,-7.08019 -16.04861,-8.75216 -6.98746,-2.82362 -8.16519,-3.03995 -16.55014,-3.03995 -7.63657,0 -9.87727,0.32903 -14.54406,2.13563 -8.89748,3.44442 -15.46672,8.23399 -18.70528,13.63787 l -2.86005,4.77227 -0.30062,50.33004 -0.30062,50.33004 -2.20698,1.03434 c -3.81986,1.79025 -91.81687,1.91147 -129.09136,0.17785 -58.67775,-2.72911 -80.93078,-0.13834 -95.63586,11.13419 -9.71804,7.44961 -14.45327,16.67612 -16.65781,32.45747 -1.12356,8.04313 -1.12525,30.80487 -0.003,45.20066 z"
       style="fill:#ffffff;fill-opacity:1;stroke:#442178;stroke-width:28.25099945;stroke-linecap:square;stroke-linejoin:miter;stroke-miterlimit:4;stroke-opacity:1;stroke-dasharray:none" />
  </g>
</svg>
