<?xml version="1.0" encoding="UTF-8" standalone="no"?>
<!-- Created with Inkscape (http://www.inkscape.org/) -->

<svg
   xmlns:dc="http://purl.org/dc/elements/1.1/"
   xmlns:cc="http://creativecommons.org/ns#"
   xmlns:rdf="http://www.w3.org/1999/02/22-rdf-syntax-ns#"
   xmlns:svg="http://www.w3.org/2000/svg"
   xmlns="http://www.w3.org/2000/svg"
   xmlns:sodipodi="http://sodipodi.sourceforge.net/DTD/sodipodi-0.dtd"
   xmlns:inkscape="http://www.inkscape.org/namespaces/inkscape"
   width="99mm"
   height="99.130508mm"
   viewBox="0 0 99 99.130508"
   version="1.1"
   id="svg72"
   inkscape:version="0.48.4 r9939"
   sodipodi:docname="scissors.svg">
  <defs
     id="defs66" />
  <sodipodi:namedview
     id="base"
     pagecolor="#ffffff"
     bordercolor="#666666"
     borderopacity="1.0"
     inkscape:pageopacity="0.0"
     inkscape:pageshadow="2"
     inkscape:zoom="0.98994949"
     inkscape:cx="0.63021218"
     inkscape:cy="182.09049"
     inkscape:document-units="mm"
     inkscape:current-layer="layer1"
     showgrid="false"
     fit-margin-top="0"
     fit-margin-left="0"
     fit-margin-right="0"
     fit-margin-bottom="0"
     inkscape:window-width="769"
     inkscape:window-height="571"
     inkscape:window-x="684"
     inkscape:window-y="688"
     inkscape:window-maximized="0" />
  <metadata
     id="metadata69">
    <rdf:RDF>
      <cc:Work
         rdf:about="">
        <dc:format>image/svg+xml</dc:format>
        <dc:type
           rdf:resource="http://purl.org/dc/dcmitype/StillImage" />
        <dc:title />
      </cc:Work>
    </rdf:RDF>
  </metadata>
  <g
     inkscape:label="Layer 1"
     inkscape:groupmode="layer"
     id="layer1"
     transform="translate(-54.217932,-105.09881)">
    <path
       inkscape:connector-curvature="0"
       id="path39"
       d="m 88.744501,203.48848 c -0.91916,-0.723 -0.93944,-0.82297 -0.84133,-4.14513 l 0.10054,-3.40427 20.813889,-0.0975 c 11.44763,-0.0536 21.17107,-0.0109 21.60763,0.0949 0.75244,0.18238 0.79347,0.36186 0.78836,3.44886 -0.004,1.79106 -0.12203,3.43115 -0.26459,3.64464 -0.76164,1.14066 -1.81504,1.19934 -21.53147,1.19934 -19.510519,0 -19.741689,-0.008 -20.673029,-0.74088 z m -1.19193,-12.23386 c -0.94124,-0.94127 -10.0863,-14.31917 -13.97472,-20.44309 -6.22491,-9.8036 -7.33531,-12.65243 -6.01553,-15.4336 1.16176,-2.44829 4.06491,-3.34371 6.73417,-2.07706 0.67483,0.32023 1.93979,1.53708 2.84208,2.73403 3.1816,4.22059 6.15654,6.79704 9.73057,8.42725 1.68176,0.7671 3.37919,0.79282 3.66211,0.0555 0.11681,-0.30436 -0.22454,-4.39217 -0.75857,-9.08402 -0.534,-4.69186 -1.10212,-9.72128 -1.26245,-11.17648 -0.16038,-1.45521 -0.95857,-8.36084 -1.77377,-15.34584 -0.8152,-6.985 -1.49857,-13.70402 -1.51857,-14.93115 -0.0349,-2.14471 0.0148,-2.27797 1.28133,-3.43958 1.15915,-1.06302 1.54611,-1.20843 3.21564,-1.20843 2.13889,0 3.39781,0.73498 4.058281,2.36929 0.34639,0.85713 2.121249,9.08568 4.28276,19.85571 1.621928,8.08149 3.182298,15.24542 3.395838,15.59094 0.15183,0.24569 0.32713,0.2039 0.50916,-0.12143 0.15272,-0.27285 0.38224,-8.90542 0.51005,-19.18349 0.13042,-10.48732 0.38452,-19.18545 0.57905,-19.82239 0.53604,-1.7551 2.15917,-2.92197 4.06453,-2.92197 2.14471,0 3.52417,0.87573 4.14856,2.63361 0.28169,0.79304 0.91464,6.18803 1.42935,12.18306 0.5081,5.91785 1.07442,12.2219 1.2585,14.00901 0.18411,1.78711 0.33471,4.59745 0.33471,6.24521 0,1.64775 0.14866,3.36057 0.33031,3.80626 0.18168,0.4457 0.427,1.40567 0.54514,2.13327 0.20366,1.25402 0.28343,1.32292 1.53148,1.32292 0.72415,0 1.67697,-0.25238 2.11738,-0.56085 1.49299,-1.04574 5.73955,-0.22498 7.9842,1.54315 0.8606,0.67788 1.27932,0.76941 2.63578,0.57613 0.88696,-0.12637 1.76347,-0.36997 1.94779,-0.54132 0.55214,-0.51328 2.62188,-0.35278 3.64603,0.28274 3.03989,1.88633 3.8293,3.46422 3.28807,6.57221 -0.22112,1.26967 -0.39007,6.43973 -0.39007,11.93579 0,5.33274 -0.16873,10.63787 -0.375,11.78916 -0.40831,2.27922 -2.6507,7.15924 -4.89285,10.64812 l -1.417,2.20486 H 109.7085 c -20.165589,0 -21.568129,-0.0397 -22.155929,-0.62751 z"
       style="fill:#8dd35f;stroke-width:2.39888879999999993;stroke:#225500;stroke-miterlimit:4;stroke-dasharray:none"
       sodipodi:nodetypes="cccccccscccccccccccsccsssccscscccsccsccccccscccscc" />
  </g>
</svg>
