<?xml version="1.0" encoding="UTF-8" standalone="no"?>
<!-- Created with Inkscape (http://www.inkscape.org/) -->

<svg
   xmlns:dc="http://purl.org/dc/elements/1.1/"
   xmlns:cc="http://creativecommons.org/ns#"
   xmlns:rdf="http://www.w3.org/1999/02/22-rdf-syntax-ns#"
   xmlns:svg="http://www.w3.org/2000/svg"
   xmlns="http://www.w3.org/2000/svg"
   xmlns:sodipodi="http://sodipodi.sourceforge.net/DTD/sodipodi-0.dtd"
   xmlns:inkscape="http://www.inkscape.org/namespaces/inkscape"
   width="278.82999"
   height="278.82635"
   id="svg2"
   version="1.1"
   inkscape:version="0.48.4 r9939"
   sodipodi:docname="set-note_a.svg">
  <defs
     id="defs4">
    <clipPath
       clipPathUnits="userSpaceOnUse"
       id="clipPath3018">
      <g
         id="g3020">
        <path
           style="fill:#fdfdfd"
           d="m 122.85715,203.79078 0,-179.999999 240,0 240,0 0,179.999999 0,180 -240,0 -240,0 0,-180 z"
           id="path3022"
           inkscape:connector-curvature="0" />
        <path
           style="fill:#d3d2cf"
           d="m 282.13334,331.04078 c -5.04397,-3.3621 -72.31603,-57.34929 -73.93201,-59.33193 -0.70776,-0.86834 -2.15579,-15.54332 -3.73534,-37.85552 -2.39363,-33.81147 -2.46131,-36.56808 -0.9392,-38.25 0.90218,-0.9969 2.05108,-1.81255 2.5531,-1.81255 0.80606,0 23.74049,17.34349 61.53416,46.5334 6.74129,5.20663 12.47879,9.4666 12.75,9.4666 0.2712,0 0.4931,-1.25546 0.4931,-2.7899 0,-4.98897 2.97615,-14.53798 7.0472,-22.61104 2.19134,-4.34551 3.86468,-7.96811 3.71853,-8.0502 -0.14615,-0.0821 -1.76276,-1.36418 -3.59246,-2.84907 -1.82969,-1.48488 -4.31273,-2.69979 -5.51786,-2.69979 -1.20513,0 -3.84133,-1.12133 -5.85822,-2.49184 -2.80797,-1.90807 -4.20944,-2.28939 -5.98213,-1.62765 -2.51013,0.93701 -6.79948,-0.23759 -8.00854,-2.19307 -1.16844,-1.88977 -3.50934,1.11627 -6.11147,7.84794 -1.61216,4.17063 -2.89745,6.05178 -4.27331,6.25442 -1.87676,0.27641 -13.48273,-7.7291 -19.67174,-13.56907 -3.5371,-3.33762 -3.57723,-7.31559 -0.1558,-15.44453 l 2.59419,-6.16353 -2.6469,-1.92814 c -2.13208,-1.55311 -2.52849,-2.46722 -2.03812,-4.69986 0.56064,-2.55257 0.11014,-3.06899 -5.6973,-6.5309 -3.46834,-2.06754 -7.52218,-4.87915 -9.00855,-6.24803 -2.51163,-2.3131 -2.60447,-2.67837 -1.31473,-5.17245 2.38342,-4.60905 8.84293,-9.56595 16.76147,-12.86245 4.18919,-1.74396 8.51965,-3.17084 9.62324,-3.17084 1.1036,0 3.57161,-1.65889 5.48447,-3.68642 3.23858,-3.43273 3.91389,-3.69949 9.81298,-3.87627 3.48428,-0.10442 9.26818,-0.94903 12.85311,-1.8769 5.21371,-1.34943 6.84677,-2.25976 8.16063,-4.54905 1.29666,-2.25929 2.60648,-3.00656 6.21966,-3.54839 2.5174,-0.3775 5.20185,-0.44663 5.96546,-0.15361 0.7636,0.29303 4.48163,-0.38284 8.26228,-1.50193 4.87557,-1.44318 7.62492,-2.91266 9.45723,-5.05472 2.3316,-2.72574 3.35474,-3.09043 10.5,-3.74262 10.81537,-0.98717 16.33975,-2.84289 20.03476,-6.72995 2.84513,-2.99301 3.64113,-3.28014 9.09345,-3.28014 7.42798,0 16.36425,-2.98134 20.9164,-6.978181 2.91673,-2.560918 4.26165,-3.021818 8.81777,-3.021818 7.54837,0 16.39837,-2.984246 20.22738,-6.820728 2.79716,-2.802626 3.82486,-3.179272 8.67482,-3.179272 3.93762,0 9.17917,-1.27934 18.43685,-4.5 7.11431,-2.475 13.57425,-4.5 14.35542,-4.5 0.78118,0 4.55671,1.997382 8.39008,4.438626 3.83336,2.441244 11.79514,7.503744 17.69284,11.25 5.8977,3.746256 15.67883,9.961373 21.73583,13.811373 6.05701,3.85 13.38162,8.4512 16.27691,10.22489 2.89529,1.77369 7.59133,4.69869 10.43564,6.5 2.84431,1.80131 6.55681,4.04168 8.25,4.9786 l 3.07853,1.70349 0.1443,14.29651 c 0.0794,7.86308 0.0788,18.57151 -10e-4,23.79651 -0.0801,5.225 -0.36248,23.87999 -0.62763,41.45554 -0.43567,28.88003 -0.6521,32.11515 -2.24875,33.61389 -0.97167,0.91209 -14.59168,6.63389 -30.26668,12.71511 -15.675,6.08123 -40.875,15.85268 -56,21.71434 -15.125,5.86166 -38.3,14.85996 -51.5,19.99623 -13.2,5.13626 -28.275,10.99045 -33.5,13.0093 -5.225,2.01886 -21.50435,8.35626 -36.17633,14.08312 -14.67222,5.72686 -26.8443,10.41247 -27.04931,10.41247 -0.20501,0 -2.22929,-1.2375 -4.49841,-2.75 z m 34.72381,-135.16821 c 0,-2.4516 -1.59523,-4.34481 -5.21849,-6.19326 -3.7676,-1.92208 -4.06977,-1.93763 -5.87667,-0.30241 -2.59683,2.3501 -2.60815,6.83106 -0.0155,6.15308 1.03912,-0.27174 2.50162,-0.10611 3.25,0.36806 1.81934,1.1527 7.8607,1.13313 7.8607,-0.0255 z m 30.44423,-10.99155 c 1.08106,-1.7492 -0.72181,-4.1912 -4.52773,-6.13284 -4.46283,-2.27676 -4.9165,-2.35182 -4.9165,-0.81338 0,1.15132 6.90283,7.73675 8.19098,7.81435 0.38004,0.0229 0.944,-0.36776 1.25325,-0.86813 z m 30.24,-13.47074 c -0.67992,-1.77184 -6.328,-4.90491 -7.8985,-4.38141 -0.59328,0.19776 0.66895,2.00836 2.80496,4.02357 3.73381,3.52263 6.37931,3.70849 5.09354,0.35784 z m -28.68423,-5.22558 c 0,-0.91905 -5.09674,-4.79298 -7.43582,-5.65182 -1.37262,-0.50398 -0.81275,0.41735 1.67113,2.75 3.43639,3.22717 5.76469,4.39919 5.76469,2.90182 z m 58.97438,-5.44179 c -1.10337,-2.06167 -5.79437,-4.46548 -6.78368,-3.47617 -0.92842,0.92843 4.0788,5.52404 6.0188,5.52404 1.56549,0 1.6869,-0.32506 0.76488,-2.04787 z m -49.67007,-3.00782 c 0.59036,-2.25753 -0.59468,-3.29388 -5.61701,-4.91223 -3.32413,-1.07114 -4.06095,-1.00391 -5.75,0.52466 -2.98571,2.70204 -2.35175,3.96158 2.8127,5.58824 5.52443,1.74004 7.87145,1.41062 8.55431,-1.20067 z m -103.66105,-7.45704 c 0.75711,-1.973 -1.24377,-4.30828 -5.0748,-5.92296 -2.60123,-1.09635 -3.33493,-1.0619 -4.81846,0.2262 -2.89622,2.51469 -2.1402,4.7475 2,5.90676 5.47643,1.53339 7.24228,1.48641 7.89326,-0.21 z m 183.35674,-0.0355 c 0,-1.51982 -6.01941,-4.76822 -7,-3.77758 -0.54838,0.554 5.04148,5.31288 6.25,5.32088 0.4125,0.003 0.75,-0.69175 0.75,-1.5433 z M 387.6767,146.5416 c -0.22878,-1.61032 -1.42589,-2.61062 -4.21453,-3.52168 -5.06036,-1.65324 -5.62518,-0.9034 -2.09503,2.78129 3.4986,3.65175 6.77786,4.03655 6.30956,0.74039 z m -50.81955,-4.32154 c 0,-0.83614 -2.08972,-2.39611 -4.72034,-3.52373 -4.47429,-1.9179 -4.78704,-1.93215 -6,-0.27333 -2.07444,2.83696 -1.52278,3.86426 2.97034,5.53143 4.54999,1.68828 7.75,0.97214 7.75,-1.73437 z m 130.81955,-2.60095 c -0.1974,-1.34153 -1.39465,-2.52813 -3.13205,-3.10417 -4.04312,-1.34051 -4.58576,-0.025 -1.14842,2.78413 3.69077,3.01625 4.68818,3.09082 4.28047,0.32004 z m -181.38393,0.27583 c 0.94847,-1.53465 -2.78005,-4.91224 -6.18562,-5.60344 -3.95277,-0.80227 -4.07878,0.0248 -0.56291,3.69456 2.66351,2.78011 5.68235,3.63401 6.74853,1.90888 z m 131.56438,-3.5887 c 0,-1.80141 -1.98336,-3.17405 -5.75,-3.97944 -4.11898,-0.88074 -4.13635,0.25032 -0.0553,3.60444 3.19747,2.62796 5.80535,2.79642 5.80535,0.375 z m -51.33187,-3.093 c 0.79742,-2.07804 -1.39276,-4.05937 -5.41813,-4.90147 -4.12111,-0.86213 -4.18252,0.51656 -0.17327,3.89012 3.55657,2.99266 4.74838,3.20823 5.5914,1.01135 z m -50.72433,-4.31745 c 1.23912,-2.31531 -0.0577,-3.57769 -4.6938,-4.56899 -3.91227,-0.83654 -4.08718,0.0816 -0.70953,3.7242 3.00064,3.23605 4.03686,3.39806 5.40333,0.84479 z M 447.2661,126.9381 c 0.85522,-1.38377 -1.66569,-3.81109 -5.15895,-4.96745 -4.06231,-1.34472 -4.26697,0.021 -0.5,3.33649 2.87286,2.52857 4.76684,3.07443 5.65895,1.63096 z m -50.40895,-5.04949 c 0,-1.16709 -1.06272,-2.2869 -2.75,-2.89772 -1.5125,-0.54755 -3.5375,-1.31472 -4.5,-1.70482 -2.84862,-1.15453 -2.11506,2.06554 1,4.38962 3.51144,2.61983 6.25,2.71312 6.25,0.21292 z m -51,-2.59783 c 1.66192,-2.00249 -0.10018,-4.14346 -4.1406,-5.03088 -4.25682,-0.93496 -4.64982,0.0964 -1.34941,3.54131 3.27584,3.41924 3.77592,3.55492 5.49001,1.48957 z m 80,-5.91821 c 0,-0.23002 0.25322,-1.0781 0.56272,-1.88463 0.40375,-1.05217 -0.77412,-1.92192 -4.16959,-3.07887 -2.60276,-0.88685 -4.96068,-1.38408 -5.23981,-1.10494 -0.89944,0.89944 5.15902,6.48665 7.03377,6.48665 0.9971,0 1.81291,-0.1882 1.81291,-0.41821 z m -50.18045,-5.79842 c -0.2194,-1.52193 -1.34346,-2.50901 -3.58665,-3.14956 -4.31192,-1.23129 -5.11315,-0.19969 -2.2292,2.87013 3.01755,3.21203 6.26108,3.36787 5.81585,0.27943 z m 29.5894,-8.636047 c 0.92299,-1.49343 -1.79824,-3.937372 -5.15895,-4.633265 -3.8053,-0.787952 -4.06793,-0.01361 -1.07569,3.171492 2.1866,2.327522 5.25496,3.04693 6.23464,1.461773 z"
           id="path3024"
           inkscape:connector-curvature="0" />
        <path
           style="fill:#aaadaa"
           d="m 284.98109,329.54078 c -0.68845,-1.87405 -3.18118,-55.84953 -3.13731,-67.93261 0.0106,-2.91261 -0.44266,-3.82735 -2.16761,-4.37483 -1.19954,-0.38072 -3.97139,-1.98919 -6.15968,-3.57437 -2.18829,-1.58519 -4.20185,-2.65901 -4.47458,-2.38628 -0.27274,0.27273 1.74145,2.86338 4.47597,5.75698 l 4.97184,5.26111 1.82434,31.27604 c 1.00338,17.20183 1.56196,31.53842 1.24129,31.8591 -0.80371,0.8037 -4.62686,-1.96116 -23.6982,-17.13825 -9.075,-7.22195 -21.93798,-17.2484 -28.58439,-22.28102 -6.64642,-5.03261 -13.94514,-10.85248 -16.21938,-12.93304 l -4.13499,-3.78283 -2.09118,-31.60865 c -1.15016,-17.38475 -1.95143,-33.66159 -1.78062,-36.17076 l 0.31056,-4.56211 3,1.39375 c 1.65,0.76656 12.675,8.85386 24.5,17.97178 36.16104,27.88275 49.03558,37.47599 50.2944,37.47599 0.84872,0 1.20647,-2.59014 1.20853,-8.75 0.003,-7.86279 0.33716,-9.43404 3.29928,-15.49623 4.94042,-10.11093 12.4962,-17.68398 22.97459,-23.02708 4.79776,-2.44646 11.0857,-5.18579 13.9732,-6.0874 2.8875,-0.90161 7.6125,-2.3828 10.5,-3.29152 2.8875,-0.90873 7.32352,-2.68389 9.85781,-3.9448 2.5343,-1.26091 8.70458,-3.44441 13.71172,-4.85223 5.00715,-1.40782 12.65589,-4.12138 16.9972,-6.03015 4.34132,-1.90876 10.50133,-4.14979 13.68893,-4.98005 6.92292,-1.80319 15.70531,-5.02035 18.77642,-6.87817 1.21986,-0.73793 4.91792,-2.14893 8.21792,-3.13557 10.52935,-3.14808 17.93685,-5.77109 20.18106,-7.14617 3.38461,-2.07384 12.57981,-5.37957 14.96533,-5.38013 1.18051,-2.7e-4 5.45551,-1.39655 9.5,-3.10284 4.04448,-1.70629 10.05361,-4.0043 13.35361,-5.1067 3.3,-1.10239 14.775,-5.11596 25.5,-8.91904 10.725,-3.80308 20.00436,-6.90507 20.62079,-6.89331 1.72762,0.033 2.45202,11.8012 1.78643,29.02139 -0.3295,8.525 -0.47232,16.4 -0.31737,17.5 0.15495,1.1 0.19444,15.71261 0.0878,32.47246 -0.1449,22.76478 -0.50807,30.76846 -1.43579,31.64269 -0.683,0.64362 -6.64182,3.20713 -13.24182,5.69668 -6.6,2.48955 -26.625,10.21405 -44.5,17.16556 -17.875,6.95151 -37,14.37857 -42.5,16.50456 -30.24069,11.68935 -66.06559,25.59123 -73.50004,28.52172 -36.05846,14.21343 -57.91079,22.49633 -59.35086,22.49633 -0.93426,0 -2.07059,-1.0125 -2.5252,-2.25 z m 67.52845,-58 c -1.27887,-5.09796 -1.72486,-18.58393 -0.7689,-23.25 0.87251,-4.25877 0.76275,-5.36127 -0.74041,-7.43695 -4.06523,-5.61361 -4.43791,-4.34544 -3.95107,13.44489 0.40758,14.89418 0.66679,16.91565 2.32449,18.12779 2.70851,1.98051 3.77905,1.67814 3.13589,-0.88573 z m 13.03072,-18.9375 c -0.31922,-0.79773 -0.55618,-0.56078 -0.60416,0.60417 -0.0434,1.05416 0.19292,1.64479 0.52522,1.3125 0.33229,-0.3323 0.36781,-1.1948 0.0789,-1.91667 z m 3.45116,-12.64644 c 0.68254,-1.84508 0.38512,-2.39829 -1.71959,-3.1985 -3.80997,-1.44855 -5.41468,-1.17872 -5.41468,0.91047 0,1.90677 3.75122,5.21393 5.4045,4.76473 0.49747,-0.13517 1.27587,-1.24968 1.72977,-2.4767 z m 30.85042,-13.41606 c 0.008,-0.4125 -0.8885,-0.75 -1.99316,-0.75 -1.74453,0 -1.84761,0.2576 -0.78437,1.96011 0.88313,1.41411 1.43834,1.62303 1.99316,0.75 0.42298,-0.66556 0.77595,-1.54761 0.78437,-1.96011 z m 29.01531,-11.75 c 0,-0.55 -0.47656,-1 -1.05902,-1 -0.58246,0 -0.7809,0.45 -0.44098,1 0.33992,0.55 0.81648,1 1.05902,1 0.24254,0 0.44098,-0.45 0.44098,-1 z m -185.05244,-3.51169 c -13.63463,-10.15454 -13.5809,-10.0478 -9.9466,-19.76134 2.40158,-6.4188 12.08429,-16.6554 19.20649,-20.30519 8.22502,-4.21494 50.07349,-18.61865 53.98981,-18.58261 2.0335,0.0187 4.7335,0.57691 6,1.24046 4.18738,2.19384 18.80274,13.03974 18.80274,13.95331 0,1.50882 -2.99717,2.67851 -27.97836,10.919 -13.26341,4.37518 -26.45672,9.30172 -29.31847,10.94788 -8.10306,4.66113 -17.58981,14.85748 -19.74403,21.22089 -0.99193,2.93008 -2.19963,5.45945 -2.68377,5.62083 -0.48414,0.16138 -4.23165,-2.20257 -8.32781,-5.25323 z m 81.62417,-16.73849 c -1.82697,-2.78831 -1.25759,-5.10579 1.89784,-7.72457 1.9001,-1.57694 2.11083,-1.39448 2.95698,2.56042 0.48409,2.26267 0.15326,3.71167 -1.24039,5.43276 l -1.90056,2.34709 -1.71387,-2.6157 z m 11.98511,-7.99982 c 1.0039,-3.26594 1.44659,-3.46579 2.99289,-1.35111 1.66576,2.27807 1.04996,3.60111 -1.67613,3.60111 -1.62102,0 -1.87498,-0.43396 -1.31676,-2.25 z m 18.85755,-3.24032 c -1.6411,-2.50463 -1.62999,-2.74394 0.24394,-5.25387 3.17007,-4.24596 4.34167,-3.96574 4.34167,1.03841 0,5.91057 -2.16867,7.90418 -4.58561,4.21546 z m 12.25228,-5.17635 c -1.04997,-1.04996 -0.77829,-4.14631 0.42929,-4.89264 1.55599,-0.96165 4.29679,2.09343 3.57217,3.98177 -0.61848,1.61173 -2.80327,2.10906 -4.00146,0.91087 z m 18.36851,-5.26759 c -1.56151,-2.91771 -1.2681,-4.49829 1.27927,-6.89143 3.15023,-2.95948 3.68555,-2.75738 3.68555,1.39143 0,3.79892 -1.46699,7.43426 -3,7.43426 -0.5113,0 -1.39547,-0.87042 -1.96482,-1.93426 z m 11.45929,-6.07469 c -0.34296,-0.55492 -0.33107,-1.93051 0.0264,-3.05687 0.93167,-2.93544 3.90984,-2.01724 4.29553,1.32437 0.252,2.18324 -0.0923,2.74145 -1.69098,2.74145 -1.10407,0 -2.28801,-0.45403 -2.63097,-1.00895 z m 18.74721,-5.35996 c -0.85808,-1.88328 -0.7026,-2.9884 0.75844,-5.39089 2.73222,-4.49277 3.67942,-4.60238 4.3447,-0.50275 0.40143,2.47371 0.10502,4.45325 -0.89543,5.98014 -1.89862,2.89766 -2.85701,2.87796 -4.20771,-0.0865 z m -51.24168,-2.43996 c 0,-1.45877 2.82086,-4.70361 3.49926,-4.0252 0.84279,0.84279 -1.24978,4.83407 -2.53444,4.83407 -0.53065,0 -0.96482,-0.36399 -0.96482,-0.80887 z m 62.01531,-3.94113 c 0.0364,-4.15668 3.98017,-5.31012 5.41062,-1.58244 0.83786,2.18344 -0.19132,3.33244 -2.98495,3.33244 -1.66391,0 -2.43611,-0.5571 -2.42567,-1.75 z m -40.01531,-1.14462 c 0.825,-0.45859 3.3,-1.09935 5.5,-1.42392 3.66484,-0.54068 3.83736,-0.46827 2.05887,0.86421 -1.06762,0.79988 -3.54262,1.44065 -5.5,1.42392 -2.44339,-0.0209 -3.08871,-0.29175 -2.05887,-0.86421 z m -10.62,-2.55749 c -0.69661,-1.81536 0.31521,-3.54789 2.07203,-3.54789 1.51596,0 2.84001,2.71845 1.9922,4.09024 -0.87407,1.41427 -3.44506,1.07118 -4.06423,-0.54235 z m 70.22699,-0.12968 c -1.08068,-2.81621 -0.6502,-5.09356 1.47308,-7.79288 2.6082,-3.31578 3.92912,-2.57391 3.88813,2.18369 -0.0479,5.5579 -3.85314,9.53916 -5.36121,5.60919 z M 264.04456,146.7227 c 0.17586,-2.40586 0.88674,-4.46541 1.62518,-4.7084 0.97628,-0.32125 1.2325,0.6638 1,3.84456 -0.17586,2.40586 -0.88674,4.46541 -1.62518,4.7084 -0.97628,0.32125 -1.2325,-0.6638 -1,-3.84456 z m 131.82765,2.31808 c 0.0259,-1.29053 2.58016,-8.17855 3.2996,-8.898 1.09417,-1.09416 0.79142,5.58128 -0.34984,7.71374 -1.0105,1.88812 -2.97977,2.67874 -2.94976,1.18426 z m 63.23494,-2.91667 c -0.6875,-0.275 -1.25,-1.61879 -1.25,-2.98621 0,-2.00632 0.43431,-2.42454 2.25,-2.16667 1.62449,0.23071 2.25,0.99139 2.25,2.73622 0,2.49142 -1.0714,3.2881 -3.25,2.41666 z m -113.81429,-1.64027 c -0.27583,-0.71881 0.12573,-2.79871 0.89236,-4.62199 l 1.39388,-3.31506 0.66323,2.64252 c 0.36477,1.45338 0.1865,3.53328 -0.39616,4.62199 -1.23757,2.31241 -1.86102,2.47663 -2.55331,0.67254 z m 71.56429,-0.57435 c 0,-0.4847 1.97291,-1.37806 4.38424,-1.98525 4.22992,-1.0651 4.40876,-1.26739 5.08045,-5.74656 0.38291,-2.55343 0.93314,-5.26007 1.22274,-6.01475 0.99707,-2.59831 2.31257,-1.36522 2.31257,2.16769 0,4.71426 -3.32463,11.04657 -6.20479,11.81805 -3.34875,0.897 -6.79521,0.7757 -6.79521,-0.23918 z m -141,-2.20204 c 0,-2.43705 2.33677,-2.09257 2.82332,0.4162 0.19138,0.98676 -0.31876,1.66713 -1.25,1.66713 -0.92763,0 -1.57332,-0.855 -1.57332,-2.08333 z m 132.25,0.35269 c -1.51456,-0.52831 -1.65943,-3.89829 -0.2062,-4.79643 1.26846,-0.78395 3.9562,1.28307 3.9562,3.04253 0,1.4748 -1.94381,2.38394 -3.75,1.7539 z m 68.74926,-2.27115 c -1.1557,-2.79011 -1.06253,-3.42135 0.896,-6.07041 1.2022,-1.62607 2.05508,-3.71531 1.89528,-4.64276 -0.43517,-2.52567 7.45163,-3.72829 11.32261,-1.72653 1.58777,0.82107 2.88685,2.11629 2.88685,2.87828 0,1.78696 -5.6611,6.56321 -7.77912,6.56321 -0.89412,0 -3.04454,1.37523 -4.77873,3.05607 l -3.15306,3.05607 -1.28983,-3.11393 z m -181.83488,-2.82603 c 0.20484,-5.22753 1.36998,-6.25038 2.22875,-1.95654 0.44,2.19999 0.16835,3.65145 -0.8795,4.6993 -1.35483,1.35484 -1.49837,1.06305 -1.34925,-2.74276 z m 71.83562,2.82782 c 0,-0.55 1.4625,-0.99311 3.25,-0.98469 2.46622,0.0116 2.88826,0.24909 1.75,0.98469 -1.96549,1.2702 -5,1.2702 -5,0 z m -11,-3.94098 c 0,-2.77982 2.07515,-3.67673 3.61967,-1.56447 1.58767,2.17126 0.94876,3.50545 -1.67869,3.50545 -1.25464,0 -1.94098,-0.68634 -1.94098,-1.94098 z m -40,0.008 c 0,-0.92733 0.99351,-1.32369 6.25,-2.4935 3.78606,-0.84256 3.47387,0.97812 -0.39922,2.32828 -3.8539,1.34385 -5.85078,1.40024 -5.85078,0.16559 z m 59.4641,-3.31702 c 0.38355,-1.2375 0.9385,-3.2625 1.23321,-4.5 0.29471,-1.2375 0.82088,-2.24911 1.16927,-2.24801 1.12753,0.004 1.11501,6.31527 -0.0152,7.67712 -1.74739,2.10547 -3.15767,1.5566 -2.38725,-0.92911 z m 72.20257,1.58333 c -1.31617,-1.31616 -0.61802,-2.18511 2.26423,-2.81815 1.612,-0.35406 3.38843,-1.19503 3.94764,-1.86883 0.96782,-1.16616 2.65682,-6.8845 3.8241,-12.94707 0.51217,-2.66007 0.79684,-2.79289 5.6683,-2.64478 2.82098,0.0858 6.03374,-0.1407 7.13945,-0.50325 1.60088,-0.52492 2.2452,-0.0371 3.16314,2.39478 1.0765,2.85198 1.00123,3.05397 -1.13795,3.05397 -1.25988,0 -2.81182,0.62793 -3.44876,1.39539 -0.63694,0.76747 -2.76845,1.6975 -4.73668,2.06675 -3.11346,0.58409 -3.84765,1.30819 -5.64865,5.57102 -1.53816,3.64073 -2.83187,5.16524 -5.03499,5.93325 -3.442,1.19989 -5.06746,1.2993 -5.99983,0.36692 z m -141.66667,-2.83333 c 0,-2.94847 1.51487,-3.275 2.92963,-0.63148 1.08157,2.02093 0.51546,3.13148 -1.5963,3.13148 -0.75555,0 -1.33333,-1.08333 -1.33333,-2.5 z m 18.73187,-0.12483 c -0.66806,-1.08094 1.37798,-9.37517 2.31269,-9.37517 0.34726,0 0.68819,1.51102 0.75761,3.35782 0.12922,3.43724 -2.03883,7.68631 -3.0703,6.01735 z m 111.8239,-0.28493 c -0.85397,-1.38176 0.48101,-4.09024 2.01604,-4.09024 1.54994,0 3.68069,3.41417 2.72634,4.36852 -0.94573,0.94573 -4.1003,0.76062 -4.74238,-0.27828 z m -40.03765,-1.06092 c -0.32995,-0.53388 0.65599,-1.23568 2.19098,-1.55956 5.4067,-1.14081 6.89006,-3.17237 7.58748,-10.39152 0.35451,-3.66959 2.38344,-3.6277 2.48804,0.0514 0.12345,4.34187 -3.3089,10.73902 -6.3906,11.91068 -3.21361,1.22182 -5.11619,1.21826 -5.8759,-0.011 z m -10.51812,-4.52932 c 0,-2.78742 2.06521,-3.33128 3.96365,-1.0438 1.51243,1.82237 0.52991,3.5438 -2.02267,3.5438 -1.40371,0 -1.94098,-0.692 -1.94098,-2.5 z m -38.25,-0.16228 c 0.6875,-0.27741 1.8125,-0.27741 2.5,0 0.6875,0.27741 0.125,0.50439 -1.25,0.50439 -1.375,0 -1.9375,-0.22698 -1.25,-0.50439 z m 4.25,-0.73073 c 0,-0.21616 0.69837,-0.661 1.55194,-0.98855 0.88992,-0.34149 1.29132,-0.17384 0.94098,0.39301 -0.58726,0.95021 -2.49292,1.40545 -2.49292,0.59554 z m -15.33333,-1.27366 c -0.97708,-0.97707 -0.81374,-4.33333 0.21089,-4.33333 0.48265,0 1.42139,0.65529 2.08609,1.4562 1.7763,2.14031 -0.35908,4.81503 -2.29698,2.87713 z m 18.024,-3.08333 c -0.23506,-0.4125 0.11921,-2.325 0.78726,-4.25 1.12878,-3.25261 1.2656,-3.34096 1.93574,-1.25 1.16322,3.62949 -1.13906,8.27971 -2.723,5.5 z m 71.30933,-1.25 c 0,-0.55 0.92958,-1 2.06574,-1 3.65142,0 5.68183,-1.83067 6.34729,-5.7229 0.35518,-2.07741 1.16955,-5.65155 1.80972,-7.94255 1.09141,-3.90584 1.43653,-4.206326 5.53734,-4.821281 3.24633,-0.486817 5.02659,-0.227839 6.90802,1.004921 l 2.53463,1.66076 -2.78846,2.91052 c -1.53365,1.60079 -3.79661,2.91053 -5.02879,2.91053 -2.47197,0 -6.09151,3.98051 -7.03393,7.73541 -0.33274,1.32574 -1.70226,2.82763 -3.04337,3.33752 -3.21893,1.22383 -7.30819,1.18303 -7.30819,-0.0729 z m -10.66417,-2.56722 c -0.33077,-0.86197 -0.12189,-2.04672 0.46417,-2.63278 1.55545,-1.55545 4.2,-0.18998 4.2,2.16862 0,2.46621 -3.7526,2.83966 -4.66417,0.46416 z m -39.24926,-0.85269 c 0.23095,-0.23094 2.33095,-1.07831 4.66667,-1.88303 4.30417,-1.48291 5.85923,-0.63039 2.3125,1.26776 -1.8284,0.97853 -7.87553,1.51164 -6.97917,0.61528 z m -10.5308,-2.48985 c -0.84306,-1.36411 0.52565,-4.22903 1.81744,-3.80417 1.79047,0.58887 2.01393,4.71393 0.25536,4.71393 -0.8308,0 -1.76355,-0.40939 -2.0728,-0.90976 z m 18.93943,-5.34024 c 1.07192,-5.32591 1.59455,-6.75 2.47717,-6.75 0.88472,0 0.45598,7.49791 -0.51894,9.07535 -1.35593,2.19395 -2.57617,0.74494 -1.95823,-2.32535 z m 20.5048,-2.75 c 0,-0.55 0.92958,-1 2.06574,-1 3.03047,0 5.93426,-1.82798 5.93426,-3.7357 0,-0.915939 0.77474,-4.275106 1.72163,-7.46482 l 1.72164,-5.799479 5.27836,-0.166667 c 2.90311,-0.09167 6.01432,-0.204166 6.91382,-0.25 0.89949,-0.04583 2.00999,0.929167 2.46777,2.166667 0.70413,1.903436 0.49073,2.254899 -1.38544,2.281803 -1.21978,0.01749 -3.09129,0.692492 -4.15891,1.5 -1.06762,0.807509 -2.94342,1.468197 -4.16844,1.468197 -2.33076,0 -6.39043,5.293637 -6.39043,8.332849 0,0.87823 -0.87042,2.06262 -1.93426,2.63197 -2.47152,1.32272 -8.06574,1.34712 -8.06574,0.0352 z m -10.66417,-2.56722 c -0.33077,-0.86197 -0.12189,-2.04672 0.46417,-2.632779 1.55545,-1.555453 4.2,-0.189976 4.2,2.168619 0,2.46621 -3.7526,2.83966 -4.66417,0.46416 z"
           id="path3026"
           inkscape:connector-curvature="0" />
        <path
           style="fill:#666d6e"
           d="m 286.45722,323.54078 c -0.56807,-7.21813 -2.60913,-56.26283 -2.60319,-62.55202 0.003,-2.77654 0.48574,-3.47026 3.03584,-4.35923 2.34919,-0.81893 2.89602,-1.48791 2.4262,-2.96817 -0.72579,-2.28678 -0.76505,-2.26869 24.67382,-11.37259 10.10199,-3.61524 22.86726,-8.34257 28.36726,-10.50519 5.5,-2.16262 14.95,-5.70277 21,-7.867 11.42604,-4.08738 18.41213,-6.68249 42,-15.60167 7.7,-2.91156 16.475,-6.07463 19.5,-7.02903 3.025,-0.95441 8.44699,-3.00779 12.04886,-4.56307 3.60188,-1.55528 10.12688,-3.78606 14.5,-4.95728 8.96535,-2.40111 31.21424,-10.78242 32.00065,-12.05485 0.283,-0.4579 1.12958,-0.59654 1.88128,-0.30808 0.75171,0.28846 3.64734,-0.6312 6.43474,-2.04368 2.78739,-1.41248 5.94788,-2.56814 7.0233,-2.56814 1.07543,0 3.57347,1.89044 5.55121,4.20098 l 3.59588,4.20098 5.40544,-1.83736 c 9.29461,-3.15934 8.83996,-4.78483 8.02399,28.68823 -0.39213,16.08594 -1.11363,29.75097 -1.60334,30.36673 -0.48972,0.61576 -3.0215,1.90894 -5.6262,2.87374 -2.6047,0.96479 -16.66081,6.37499 -31.23581,12.02267 -14.575,5.64768 -36.625,14.14794 -49,18.88947 -44.96321,17.22782 -94.2618,36.26927 -109,42.10095 -23.37921,9.25079 -36.88348,14.49361 -37.33211,14.49361 -0.27349,0 -0.75401,-3.2625 -1.06782,-7.25 z m 81.96126,-53.27289 c 0.0337,-9.33741 0.14624,-17.4568 0.25,-18.0431 0.22262,-1.25781 7.90021,-4.52591 17.64538,-7.51107 3.82618,-1.17205 9.45118,-3.24827 12.5,-4.61384 3.04881,-1.36557 9.36829,-3.82248 14.04329,-5.45979 4.675,-1.63732 12.325,-4.4988 17,-6.35886 4.675,-1.86005 13.9,-5.3625 20.5,-7.78321 32.447,-11.90073 37.75931,-14.5193 33.09026,-16.31098 -1.51304,-0.58061 -6.59579,1.72183 -10.47512,4.74514 -1.31167,1.02223 -2.99917,1.8586 -3.75,1.8586 -2.07152,0 -1.68155,-5.96878 0.6386,-9.77417 2.6723,-4.38298 2.52416,-5.71374 -0.90811,-8.15774 -3.2446,-2.31036 -6.20578,-2.61469 -9.30458,-0.95626 -1.95538,1.04648 -1.80458,1.28168 2.56574,4.00183 2.55376,1.58951 4.64321,3.35331 4.64321,3.91956 0,1.60897 -2.68974,2.24757 -6.47538,1.53738 -4.36141,-0.81821 -6.79135,-3.15486 -5.97046,-5.74124 0.6126,-1.93014 0.56187,-1.9292 -3.34119,0.062 -2.66605,1.36012 -4.12237,2.85435 -4.44943,4.56527 -0.34799,1.82041 -0.055,2.54338 1.03074,2.54338 2.43834,0 8.20572,4.928 8.20572,7.01146 0,1.05033 -0.5625,2.39183 -1.25,2.98112 -2.21028,1.89453 -14.60431,9.00741 -15.69523,9.00741 -1.84625,0 -1.13569,-5.96258 1.19523,-10.02952 1.76085,-3.07231 2.01156,-4.31107 1.1532,-5.69812 -1.24796,-2.01662 -9.26221,-3.92418 -12.0279,-2.86288 -1.53312,0.58831 -1.05421,1.1923 2.89377,3.64959 5.85985,3.64726 6.24049,5.94686 0.98093,5.92619 -5.11034,-0.0201 -8.76971,-2.03983 -8.6706,-4.7856 0.0924,-2.55862 0.0703,-2.56406 -4.16968,-1.03085 -2.36411,0.85487 -3.33958,1.89997 -3.63181,3.89102 -0.34433,2.34609 0.12763,2.9548 3.41591,4.40558 7.82798,3.4537 7.40669,7.86988 -1.18774,12.45067 -3.26599,1.74075 -6.205,3.59676 -6.53113,4.12446 -0.32614,0.5277 -1.43513,0.95946 -2.46442,0.95946 -2.85202,0 -2.97426,-3.92343 -0.27349,-8.77793 3.08362,-5.54265 2.35769,-7.65564 -3.16098,-9.20077 -6.97811,-1.95376 -11.62603,0.47272 -5.64835,2.94875 1.61023,0.66699 3.72984,2.09905 4.71023,3.18237 1.53431,1.6954 1.57919,2.10338 0.3223,2.92982 -1.58541,1.04245 -7.29613,0.34355 -10.29149,-1.25952 -1.29923,-0.69533 -1.72431,-1.75173 -1.39598,-3.46927 0.35721,-1.86862 0.11552,-2.33269 -0.99325,-1.90722 -0.80593,0.30927 -2.44559,0.80833 -3.64369,1.10904 -1.38289,0.34708 -2.57259,1.80621 -3.25789,3.99573 -0.97668,3.12043 -0.8941,3.449 0.8669,3.449 1.07053,0 3.27859,0.94859 4.90679,2.10797 3.92893,2.79764 3.58237,6.54701 -0.86512,9.35973 -10.35668,6.54984 -12.35313,7.60916 -13.27127,7.04172 -1.73132,-1.07002 -1.1185,-6.45074 1.07215,-9.41376 3.29337,-4.45452 2.27505,-7.25478 -3.13849,-8.63045 -2.80547,-0.71292 -5.45425,-0.82241 -6.90575,-0.28547 -2.26275,0.83705 -2.17002,0.98812 2.37596,3.8711 5.75743,3.65125 5.52673,5.46988 -0.68395,5.3916 -5.01334,-0.0632 -7.73516,-1.66946 -7.73516,-4.56488 0,-2.35852 0.15851,-2.37691 -5.94797,0.6902 -2.81177,1.41227 -6.73959,2.83183 -8.7285,3.15459 l -3.61619,0.58683 0.65172,18.09541 0.65172,18.09541 3.68546,3 c 2.02699,1.65 6.41207,5.33874 9.7446,8.19721 3.33254,2.85846 6.73416,5.09816 7.55916,4.97711 1.26299,-0.18531 1.50969,-2.9026 1.56133,-17.19721 z m 36.14738,-7.72711 c 3.05492,-3.34099 5.29129,-8.26122 5.29129,-11.64132 0,-4.97964 -1.73019,-4.43709 -3.57645,1.1215 -0.95829,2.88513 -2.56893,6.60112 -3.57921,8.25776 -3.00995,4.93567 -1.85815,6.33317 1.86437,2.26206 z m 32.38082,-13.87573 c 2.42677,-3.40809 3.95339,-12.87427 2.07624,-12.87427 -0.59877,0 -1.55451,1.6875 -2.12386,3.75 -0.56935,2.0625 -2.1617,5.70843 -3.53855,8.10207 -1.37685,2.39364 -2.50336,4.77198 -2.50336,5.28519 0,1.6375 3.76459,-0.99791 6.08953,-4.26299 z m 28.62971,-10.12427 c 3.63246,-3.79407 5.90321,-10.86626 4.33891,-13.51345 -0.91757,-1.55274 -1.0994,-1.47194 -1.71786,0.76345 -0.38043,1.375 -2.18762,5.37647 -4.01599,8.89215 -1.82836,3.51569 -3.3243,6.55319 -3.3243,6.75 0,1.16754 2.01438,-0.067 4.71924,-2.89215 z M 239.85715,185.99105 c 0,-1.17544 8.90612,-9.54447 11.81195,-11.09963 1.20343,-0.64405 2.18805,-1.0219 2.18805,-0.83965 0,0.18225 -3.15,3.15163 -7,6.59862 -3.85,3.44699 -7,5.85029 -7,5.34066 z m 57.5,-8.40353 c -1.1,-0.62834 -4.32296,-2.84965 -7.16214,-4.93623 -5.28157,-3.88156 -5.88555,-4.01745 -17.33786,-3.90081 l -6.5,0.0662 10.25984,-4.46915 c 11.69,-5.09212 28.09361,-10.55675 31.68904,-10.55675 2.41915,0 20.62171,11.71178 21.28221,13.69327 0.19134,0.57401 -1.58238,1.72433 -3.9416,2.55626 -13.73293,4.84266 -25.25456,8.74651 -25.73597,8.72006 -0.30444,-0.0167 -1.45352,-0.54451 -2.55352,-1.17285 z"
           id="path3028"
           inkscape:connector-curvature="0" />
      </g>
    </clipPath>
  </defs>
  <sodipodi:namedview
     id="base"
     pagecolor="#ffffff"
     bordercolor="#666666"
     borderopacity="1.0"
     inkscape:pageopacity="0.0"
     inkscape:pageshadow="2"
     inkscape:zoom="1.6122035"
     inkscape:cx="197.49607"
     inkscape:cy="104.85189"
     inkscape:document-units="px"
     inkscape:current-layer="layer1"
     showgrid="false"
     fit-margin-top="0"
     fit-margin-left="0"
     fit-margin-right="0"
     fit-margin-bottom="0"
     inkscape:window-width="1568"
     inkscape:window-height="1316"
     inkscape:window-x="1039"
     inkscape:window-y="72"
     inkscape:window-maximized="0" />
  <metadata
     id="metadata7">
    <rdf:RDF>
      <cc:Work
         rdf:about="">
        <dc:format>image/svg+xml</dc:format>
        <dc:type
           rdf:resource="http://purl.org/dc/dcmitype/StillImage" />
        <dc:title></dc:title>
      </cc:Work>
    </rdf:RDF>
  </metadata>
  <g
     inkscape:label="Layer 1"
     inkscape:groupmode="layer"
     id="layer1"
     transform="translate(-206.05654,-38.001961)">
    <path
       inkscape:connector-curvature="0"
       id="path4443"
       d="m 369.29947,314.31426 107.82813,-51.76042 0.28375,-61.70118 -38.30736,-29.82223 -12.48536,5.39885 -4.39825,0 -2.83758,1.19975 -0.63846,1.28544 -0.49658,1.11405 -4.96577,1.88531 -3.12134,-0.17139 -3.33415,0.77127 -1.77349,1.971 0.0709,0.94266 -5.60422,2.05671 -2.55382,-0.0857 -2.97946,0.42848 -1.77349,1.11405 -1.06409,2.05671 -4.89484,1.88531 -4.89482,0 -2.55383,1.19975 -0.99316,2.31379 -5.32045,2.1424 -3.61793,-0.0857 -4.32731,1.54253 -0.63845,2.1424 -6.31363,2.3995 -4.46919,-0.0857 -3.68886,2.1424 0.14188,1.28544 -5.60422,1.88531 -5.88798,3.94202 -4.39826,5.82733 -2.90852,6.68429 -0.85127,4.6276 -0.21282,5.05606 1.41879,1.11405 0.0709,1.28544 -0.63846,0 2.27007,41.56258 34.54756,33.76425 z"
       style="fill:#ffffff;fill-opacity:1;stroke:#5a006d;stroke-width:5.02810717;stroke-linecap:butt;stroke-linejoin:miter;stroke-miterlimit:4;stroke-opacity:1;stroke-dasharray:none" />
    <g
       id="g4033"
       transform="matrix(0.45747598,0,0,0.55263801,464.33841,379.52937)">
      <path
         style="fill:#aaadaa"
         d="m -210.98202,-123.11703 c -1.35988,-0.93781 -13.49751,-10.52791 -26.97251,-21.31132 -13.475,-10.7834 -30.0125,-23.98474 -36.75,-29.33631 -8.95825,-7.11549 -12.25669,-10.32359 -12.27491,-11.93868 -0.0137,-1.21471 -1.09694,-17.46811 -2.40718,-36.11867 -1.31024,-18.65056 -2.15089,-34.51306 -1.8681,-35.25 0.28279,-0.73694 1.18092,-1.33989 1.99583,-1.33989 1.24883,0 22.43119,15.49949 43.30436,31.68652 19.47353,15.10163 31.87933,24.31348 32.74348,24.31348 0.54975,0 1.20206,-3.49832 1.44958,-7.77405 0.36607,-6.32369 1.1253,-9.16879 4.0695,-15.25 3.9776,-8.21566 13.50691,-18.76805 19.91959,-22.05818 4.09153,-2.09923 5.78974,-4.09381 3.9949,-4.69209 -2.5533,-0.8511 -0.97379,-2.22648 2.57295,-2.24042 6.94322,-0.0273 9.6685,-2.56982 7.75442,-7.23441 -0.50885,-1.24008 0.18642,-2.59377 2.38892,-4.65121 1.70866,-1.59613 3.10666,-3.84652 3.10666,-5.00085 0,-2.83049 3.63596,-2.78942 6.68555,0.0755 1.27295,1.19588 2.31445,1.64588 2.31445,1 0,-2.21996 4.72538,-1.24238 6.40804,1.32569 1.26869,1.93626 2.48975,2.5 5.41501,2.5 4.82047,0 6.15326,-1.37113 5.46364,-5.62078 -0.45759,-2.81977 -0.11002,-3.73035 2.08201,-5.4546 3.27449,-2.57572 3.75103,-8.43445 0.76318,-9.38276 -1.02746,-0.32611 -2.61789,-1.42141 -3.53428,-2.43401 -1.59232,-1.7595 -1.44772,-1.87007 3.26265,-2.49492 5.69978,-0.75611 7.01386,-1.97784 7.82343,-7.2737 0.32279,-2.11158 1.24157,-4.59448 2.04174,-5.51757 2.28983,-2.64159 0.72473,-5.12686 -4.83484,-7.67736 -6.40637,-2.93897 -8.76235,-2.10636 -11.80093,4.17052 -3.2941,6.8047 -11.2557,9.19153 -16.81488,5.041 -4.07285,-3.04082 -3.70984,-3.84942 1.76414,-3.92967 6.08779,-0.0893 8.22929,-1.87827 8.40799,-7.02407 0.0912,-2.62534 0.77485,-4.13736 2.34094,-5.1772 2.32156,-1.54146 3.09491,-6.22488 1.02788,-6.22488 -0.65135,0 -3.1381,-0.94583 -5.52612,-2.10185 -5.96351,-2.88689 -8.88218,-2.00595 -11.20898,3.38319 -2.64352,6.12268 -5.18932,7.9802 -11.67423,8.51798 -4.6148,0.3827 -6.06896,0.0869 -8.53428,-1.73575 -3.58252,-2.64867 -7.67484,-1.79285 -9.58336,2.00415 -1.64929,3.28129 -0.44668,4.10046 4.01125,2.73228 2.70216,-0.82932 4.05323,-0.84677 4.83752,-0.0625 1.58279,1.58279 0.34083,2.95485 -3.90145,4.31015 -2.05484,0.65647 -4.93575,2.31226 -6.40203,3.67953 -2.02381,1.88716 -4.31204,2.67935 -9.5,3.2889 -7.95918,0.93516 -17.32029,4.03968 -22.31943,7.40202 -2.78407,1.87252 -5.38533,2.49291 -12.51461,2.9847 -9.45128,0.65196 -9.66854,0.43498 -3.5,-3.49553 1.27349,-0.81145 1.16024,-1.19705 -0.75,-2.55351 -3.30122,-2.34419 -2.77269,-3.17613 2,-3.14814 2.3375,0.0137 5.4875,-0.4658 7,-1.0656 2.42971,-0.96352 2.75,-1.61344 2.75,-5.58011 0,-3.46611 0.45593,-4.73357 2,-5.55993 1.16955,-0.62592 2,-2.09382 2,-3.53518 0,-1.95207 0.51196,-2.46482 2.46104,-2.46482 1.35358,0 3.33109,0.93387 4.39446,2.07528 1.23681,1.32755 2.17286,1.68785 2.59798,1 1.04378,-1.68888 2.26915,-1.28712 4.97516,1.63119 1.99037,2.14652 3.28181,2.65446 6.24211,2.45509 4.95652,-0.3338 6.32925,-1.6631 6.32925,-6.12902 0,-2.46128 0.68243,-4.34016 2.01414,-5.54533 1.25032,-1.13153 1.79301,-2.51946 1.43105,-3.65992 -0.97187,-3.06207 2.3329,-3.40758 5.36451,-0.56085 2.16645,2.03432 3.02398,2.30848 4.40393,1.40795 1.38762,-0.90553 2.2541,-0.60045 4.55471,1.60367 5.01482,4.80449 12.23166,2.37183 12.23166,-4.12307 0,-1.59146 0.89677,-3.65658 2.03527,-4.68691 1.11939,-1.01304 1.77915,-2.5093 1.46613,-3.32503 -1.1648,-3.03541 3.39786,-4.10093 6.07912,-1.41967 0.98584,0.98584 2.87639,1.60243 4.41761,1.44076 1.99723,-0.20949 3.14751,0.4092 4.44638,2.39151 1.52642,2.32961 2.22217,2.59785 5.40054,2.08207 4.16162,-0.6753 6.15495,-2.83668 6.15495,-6.67382 0,-1.45964 0.87486,-3.44562 1.94413,-4.4133 1.06928,-0.96768 2.08178,-2.72033 2.25,-3.89477 0.36009,-2.51387 3.26356,-3.35076 5.41896,-1.56193 0.83435,0.69245 2.63112,1.30777 3.99281,1.36738 1.42469,0.0624 3.42777,1.30227 4.71811,2.9205 2.13076,2.67223 2.44637,2.75718 6.34452,1.70751 4.15101,-1.11775 5.28603,-2.76481 5.31782,-7.71681 0.008,-1.17015 0.67551,-2.67685 1.48446,-3.34821 0.80894,-0.67137 1.37144,-2.18897 1.25,-3.37245 -0.1736,-1.69174 0.39317,-2.22194 2.65101,-2.47996 1.5795,-0.1805 3.357,0.15701 3.95,0.75 0.593,0.593 1.97926,1.07818 3.08057,1.07818 1.10132,0 3.38631,1.34134 5.07776,2.98076 2.81485,2.72826 3.38113,2.89633 6.68514,1.98404 3.62618,-1.00123 4.79052,-2.83488 4.82106,-7.59236 0.008,-1.17015 0.69881,-2.69618 1.53623,-3.39118 0.84146,-0.69835 1.27061,-2.05751 0.95932,-3.03829 -0.80504,-2.53646 0.89155,-3.21337 8.92419,-3.5606 3.90165,-0.16866 10.13025,-1.27975 13.84134,-2.46909 5.43633,-1.74225 7.03726,-1.9219 8.23899,-0.92455 2.13641,1.77306 1.22604,2.60103 -5.02004,4.56566 -3.04144,0.95665 -5.75702,2.10686 -6.03461,2.55601 -0.2776,0.44916 0.44101,1.76238 1.5969,2.91827 1.55176,1.55176 2.83127,1.94137 4.89042,1.4891 2.25175,-0.49457 3.10761,-0.12597 4.44428,1.91404 0.9105,1.38961 3.05648,3.25106 4.76882,4.13655 2.96707,1.53433 3.46388,1.48214 10.57326,-1.1108 6.88506,-2.51112 7.58508,-2.5956 9.08437,-1.09631 2.19501,2.19501 1.21107,2.96445 -8.28982,6.48261 -7.69096,2.84795 -7.99079,3.0776 -7.7617,5.94492 0.19738,2.47038 -0.18899,3.06422 -2.25,3.45821 -1.66545,0.31837 -2.4883,0.0255 -2.4883,-0.88566 0,-2.07216 -4.7198,-1.64153 -7,0.63867 -1.1,1.1 -2,2.54108 -2,3.20239 0,0.66132 -1.40059,2.64744 -3.11242,4.4136 -3.40028,3.5082 -3.14971,5.38401 0.71919,5.38401 1.37013,0 3.5301,1.12366 4.80565,2.5 3.00863,3.24637 7.85744,3.38051 10.03088,0.27749 2.11709,-3.02258 1.95546,-5.49371 -0.4433,-6.77749 -2.73745,-1.46504 -2.55317,-3.35565 0.25831,-2.65002 3.64986,0.91606 5.35617,-0.70594 3.96186,-3.7661 -1.40195,-3.07695 -0.67357,-3.3412 10.77983,-3.91078 4.125,-0.20513 10.3132,-1.21123 13.75156,-2.23576 5.95235,-1.77363 6.33525,-1.77908 8,-0.1139 2.16887,2.16943 1.17555,2.97253 -6.50156,5.25655 -2.8875,0.85906 -5.25,1.91025 -5.25,2.33598 0,1.86127 3.95205,4.08403 7.26135,4.08403 2.53552,0 3.78292,0.51878 4.20783,1.75 0.33218,0.9625 2.22626,2.78411 4.20907,4.04803 l 3.60511,2.29803 5.20799,-2.54803 c 5.61173,-2.74556 10.38802,-3.26866 12.30865,-1.34803 1.91702,1.91702 1.55286,2.27859 -5.3,5.26223 -6.03418,2.62719 -8.21843,4.52038 -5.25,4.55042 0.6875,0.007 5.20209,-1.19345 10.03243,-2.66757 6.0394,-1.8431 9.10492,-2.35773 9.81496,-1.64769 0.9538,0.9538 1.44909,17.85175 1.22527,41.80261 -0.0463,4.95 -0.18465,21.825 -0.30754,37.5 -0.14828,18.91289 -0.6104,29.34097 -1.37377,31 -1.25616,2.72997 -2.29248,3.16481 -71.14135,29.85127 -9.9,3.83733 -29.25,11.33449 -43,16.66037 -36.57018,14.16495 -40.39056,15.64787 -70,27.17128 -14.85,5.77932 -32.04701,12.48993 -38.21558,14.91247 -6.16857,2.42253 -11.58094,4.40461 -12.02749,4.40461 -0.44656,0 -1.92455,-0.76731 -3.28442,-1.70513 z m 54.02749,-136.42279 c 4.2483,-1.96743 4.3762,-2.14164 2.2866,-3.11452 -2.71316,-1.2632 -7.87217,0.59955 -9.36,3.37959 -1.36502,2.55056 1.20123,2.45439 7.0734,-0.26507 z m 29.75032,-10.52083 c 4.90321,-1.87255 5.106,-3.92571 0.36554,-3.7008 -3.51051,0.16655 -6.11586,1.85862 -6.11586,3.97199 0,1.7551 0.50721,1.73117 5.75032,-0.27119 z m 14.66789,-7.95824 c 1.0965,-0.42076 1.58179,-1.90128 1.58179,-4.82568 0,-3.15434 0.60255,-4.78476 2.38825,-6.46235 3.43585,-3.22781 2.31644,-5.62637 -4.02621,-8.62692 -4.77523,-2.25905 -5.7282,-2.4091 -8.06473,-1.26991 -1.45824,0.71098 -3.07729,2.64078 -3.60075,4.29185 -1.30315,4.11034 -4.38441,7.27253 -7.82214,8.02758 -1.58093,0.34723 -2.85977,0.93308 -2.84185,1.30188 0.0614,1.26455 6.85523,3.88274 7.75093,2.98704 1.27595,-1.27595 3.85298,-0.0202 5.67956,2.76747 1.5802,2.41169 5.38284,3.17987 8.95515,1.80904 z m 15.56155,-3.00159 c 4.66682,-1.86729 5.22532,-3.39142 1.24275,-3.39142 -2.89864,0 -7.22251,2.42861 -7.22251,4.0567 0,1.33208 1.36835,1.17984 5.97976,-0.66528 z m 15.71268,-8.48386 c 0.60085,-0.60085 0.87424,-2.73835 0.60754,-4.75 -0.39381,-2.97045 -0.0189,-4.09327 1.99581,-5.97689 3.38389,-3.16376 2.50203,-5.32637 -3.24755,-7.96404 -5.95077,-2.72997 -7.50147,-2.7634 -10.04824,-0.21663 -3.09355,3.09355 -2.46854,4.07685 2.25,3.53978 l 4.25,-0.48374 -2.77371,1.51634 c -1.52554,0.83399 -3.21018,1.24659 -3.74364,0.91689 -0.53346,-0.32969 -3.01263,1.10804 -5.50925,3.19496 -4.11047,3.43592 -4.37644,3.9135 -2.81523,5.05508 0.94825,0.69338 2.96707,1.26069 4.48627,1.26069 1.78508,0 3.39776,0.87325 4.55888,2.46858 1.31613,1.80832 2.74617,2.47698 5.34668,2.5 1.9525,0.0173 4.0416,-0.46018 4.64244,-1.06102 z m -3.69244,-10.90756 c 0,-0.55 0.45,-1 1,-1 0.55,0 1,0.45 1,1 0,0.55 -0.45,1 -1,1 -0.55,0 -1,-0.45 -1,-1 z m 19,8.03712 c 3.07773,-1.65235 3.26995,-1.96908 1.59318,-2.62525 -2.08019,-0.81405 -6.6614,1.26763 -7.34634,3.33813 -0.58292,1.76212 1.66102,1.48407 5.75316,-0.71288 z m 14.69244,-8.12956 c 0.61765,-0.61765 0.86555,-2.78412 0.57038,-4.98475 -0.43174,-3.21887 -0.12476,-4.21402 1.77432,-5.7518 1.36462,-1.105 2.05854,-2.4793 1.71021,-3.38703 -0.62639,-1.63234 -8.40756,-5.78398 -10.84057,-5.78398 -2.39821,0 -5.90678,2.97504 -5.90678,5.00857 0,1.04233 -1.56335,3.41346 -3.47412,5.26917 -3.84341,3.73268 -3.32194,5.72226 1.49981,5.72226 1.50776,0 3.62564,1.06441 4.97431,2.5 2.49652,2.65742 7.68858,3.41142 9.69244,1.40756 z m -169.37174,-2.50116 c 5.78059,-1.96965 6.40633,-2.88392 3.34614,-4.88904 -3.86256,-2.53085 -9.61264,0.28871 -9.65153,4.73264 -0.0188,2.14615 0.43291,2.15735 6.30539,0.1564 z m 184.55954,-0.29135 c 2.72999,-1.45463 3.05445,-1.92613 1.68666,-2.451 -1.867,-0.71644 -7.5669,1.81578 -7.5669,3.36163 0,1.44001 2.07043,1.11938 5.88024,-0.91063 z m -66.05102,-1.61094 c 0.36893,-0.36893 0.67078,-2.66366 0.67078,-5.0994 0,-3.39387 0.42251,-4.56273 1.8083,-5.00256 2.51788,-0.79915 1.89192,-5.02251 -0.67891,-4.58062 -1.02884,0.17685 -3.16839,-0.9218 -4.75455,-2.44144 -3.94992,-3.78426 -7.38372,-2.57535 -10.63606,3.74455 -1.30674,2.53924 -3.47004,5.11533 -4.80733,5.72464 -2.7909,1.27162 -2.92302,1.91726 -0.9309,4.5491 1.15873,1.53084 1.72103,1.66262 2.90427,0.68061 1.68481,-1.39827 4.10613,-0.41014 6.7614,2.75931 1.38908,1.65806 2.27549,1.85146 5.32922,1.16273 2.01466,-0.45438 3.96486,-1.12799 4.33378,-1.49692 z m 80.97849,-9.70959 c 0.23787,-2.86449 -0.15931,-3.99715 -1.75,-4.99055 -2.95758,-1.84704 -2.57617,-2.46545 1.96887,-3.19223 3.63763,-0.58168 3.92402,-0.83552 2.96482,-2.62781 -1.28053,-2.3927 -5.29128,-2.59751 -9.35571,-0.47777 -3.36178,1.75329 -4.63569,1.8822 -4.63569,0.46909 0,-0.56361 1.2375,-1.54395 2.75,-2.17852 2.70593,-1.13529 2.71278,-1.16019 0.42727,-1.55433 -3.39078,-0.58475 -5.17727,0.40149 -5.17727,2.85814 0,1.18982 -1.54423,3.61971 -3.43163,5.39975 -3.53986,3.33852 -3.31357,5.49971 0.57587,5.49971 0.95933,0 3.00683,1.12369 4.55,2.49708 2.15521,1.9181 3.73321,2.43979 6.80576,2.25 3.83954,-0.23717 4.01234,-0.39573 4.30771,-3.95256 z m 13.75116,0.73728 c 1.67447,-1.2665 1.71196,-1.47256 0.27292,-1.5 -2.35289,-0.0449 -4.83179,1.0198 -4.83179,2.07519 0,1.36567 2.39181,1.0639 4.55887,-0.57519 z m -65.35887,-1.3318 c 0.47994,-0.47994 1.14215,-2.63378 1.47159,-4.78631 0.32944,-2.15253 1.25366,-4.66894 2.05383,-5.59203 2.21156,-2.55129 0.76256,-5.98224 -2.21127,-5.23585 -1.73537,0.43554 -2.64199,0.0438 -3.46717,-1.49802 -0.62302,-1.16413 -2.10938,-2.08779 -3.35966,-2.08779 -2.69216,0 -6.68732,2.61475 -6.68732,4.37671 0,0.69481 -1.56793,3.09506 -3.48428,5.33389 -2.95264,3.4495 -3.26449,4.25301 -2.04381,5.26609 0.79227,0.65752 1.88843,0.91864 2.43591,0.58028 0.54749,-0.33837 2.47971,0.76034 4.29381,2.44158 2.70564,2.50747 3.91183,2.96849 6.71206,2.56542 1.87753,-0.27024 3.80637,-0.88403 4.28631,-1.36397 z m -51.8683,-3.45328 c 0.94268,-0.6893 1.98334,-3.0518 2.31256,-5.25 0.32923,-2.1982 1.27351,-4.53622 2.09841,-5.19561 2.75241,-2.20018 0.71788,-5.6108 -4.77732,-8.00855 -6.09327,-2.65871 -9.55397,-1.8656 -10.56866,2.42207 -0.84169,3.55662 -3.7732,6.78447 -7.60191,8.37037 l -3.00766,1.24582 2.33771,1.76334 c 1.42259,1.07306 3.3254,1.56579 4.86084,1.25871 1.83594,-0.36719 3.18221,0.19693 4.94304,2.07125 2.63125,2.80083 6.61507,3.36118 9.40299,1.3226 z m 30.5262,-11.24077 c 0.74684,-0.71125 1.46817,-2.695 1.60296,-4.40834 0.13478,-1.71334 0.96917,-3.91531 1.85421,-4.89326 1.73306,-1.91501 1.267,-6.17994 -0.6817,-6.23828 -0.62335,-0.0187 -2.90656,-0.87246 -5.0738,-1.89733 -5.10541,-2.41432 -7.40074,-1.51651 -10.31994,4.03659 -1.27062,2.41707 -3.28466,5.13973 -4.47564,6.05037 -1.80248,1.37819 -1.95191,1.91294 -0.89159,3.19056 0.70061,0.84417 1.87326,1.30483 2.60591,1.02369 0.73265,-0.28114 2.83725,0.86399 4.67689,2.54474 2.69319,2.46058 3.92924,2.9418 6.3448,2.47017 1.65,-0.32216 3.61105,-1.16767 4.3579,-1.87891 z m 29.73527,-11.0078 c 0.90405,-1.37975 1.42725,-3.61102 1.16653,-4.97486 -0.30479,-1.59443 0.17844,-3.06232 1.3602,-4.13179 1.00811,-0.91234 1.55417,-2.10984 1.21346,-2.66113 -0.34071,-0.55128 -0.6676,-1.86993 -0.72642,-2.93031 -0.0588,-1.06039 -1.2554,-2.6244 -2.65908,-3.47558 -2.36915,-1.43664 -2.90691,-1.37828 -7.5,0.81396 -3.40593,1.62562 -5.04548,3.04776 -5.26111,4.56351 -0.17229,1.21107 -1.81919,3.52417 -3.65978,5.14022 -3.45278,3.03159 -3.19833,5.15783 0.61727,5.15783 0.95933,0 3.00683,1.11078 4.55,2.4684 3.82165,3.36214 8.70673,3.37547 10.89893,0.0297 z m -188.31485,97.75185 c -11.17261,-8.24766 -12.39136,-10.43488 -9.83335,-17.64739 3.27694,-9.2396 11.9585,-19.20111 20.57458,-23.60798 6.91706,-3.53787 50.53801,-18.13293 54.17771,-18.12723 2.0335,0.003 4.67044,0.52661 5.85987,1.16317 3.79874,2.03303 19.94287,14.12848 19.94287,14.94154 0,0.43065 -0.5625,1.24306 -1.25,1.80535 -1.3047,1.06708 -20.3862,7.80778 -39.25,13.86539 -13.43685,4.31488 -22.36554,9.40703 -29.24038,16.67615 -4.79363,5.06856 -6.06185,7.14199 -9.13258,14.931 -0.59629,1.5125 -1.44883,2.75 -1.89453,2.75 -0.4457,0 -4.92508,-3.0375 -9.95419,-6.75 z"
         id="path4037"
         inkscape:connector-curvature="0" />
      <path
         style="fill:#666d6e"
         d="m -208.35446,-130.6619 c -0.56807,-7.21813 -2.60913,-56.26283 -2.60319,-62.55202 0.003,-2.77654 0.48574,-3.47026 3.03584,-4.35923 2.34919,-0.81893 2.89602,-1.48791 2.4262,-2.96817 -0.72579,-2.28678 -0.76505,-2.26869 24.67382,-11.37259 10.10199,-3.61524 22.86726,-8.34257 28.36726,-10.50519 5.5,-2.16262 14.95,-5.70277 21,-7.867 11.42604,-4.08738 18.41213,-6.68249 42,-15.60167 7.7,-2.91156 16.475,-6.07463 19.5,-7.02903 3.025,-0.95441 8.44699,-3.00779 12.04886,-4.56307 3.60188,-1.55528 10.12688,-3.78606 14.5,-4.95728 8.96535,-2.40111 31.21424,-10.78242 32.00065,-12.05485 0.283,-0.4579 1.12958,-0.59654 1.88128,-0.30808 0.75171,0.28846 3.64734,-0.6312 6.43474,-2.04368 2.78739,-1.41248 5.94788,-2.56814 7.0233,-2.56814 1.07543,0 3.57347,1.89044 5.55121,4.20098 l 3.59588,4.20098 5.40544,-1.83736 c 9.29461,-3.15934 8.83996,-4.78483 8.02399,28.68823 -0.39213,16.08594 -1.11363,29.75097 -1.60334,30.36673 -0.48972,0.61576 -3.0215,1.90894 -5.6262,2.87374 -2.6047,0.96479 -16.66081,6.37499 -31.23581,12.02267 -14.575,5.64768 -36.625,14.14794 -49,18.88947 -44.96321,17.22782 -94.2618,36.26927 -109,42.10095 -23.37921,9.25079 -36.88348,14.49361 -37.33211,14.49361 -0.27349,0 -0.75401,-3.2625 -1.06782,-7.25 z m 81.96126,-53.27289 c 0.0337,-9.33741 0.14624,-17.4568 0.25,-18.0431 0.22262,-1.25781 7.90021,-4.52591 17.64538,-7.51107 3.82618,-1.17205 9.45118,-3.24827 12.5,-4.61384 3.04881,-1.36557 9.36829,-3.82248 14.04329,-5.45979 4.675,-1.63732 12.325,-4.4988 17,-6.35886 4.675,-1.86005 13.9,-5.3625 20.5,-7.78321 32.447,-11.90073 37.75931,-14.5193 33.09026,-16.31098 -1.51304,-0.58061 -6.59579,1.72183 -10.47512,4.74514 -1.31167,1.02223 -2.99917,1.8586 -3.75,1.8586 -2.07152,0 -1.68155,-5.96878 0.6386,-9.77417 2.6723,-4.38298 2.52416,-5.71374 -0.90811,-8.15774 -3.2446,-2.31036 -6.20578,-2.61469 -9.30458,-0.95626 -1.95538,1.04648 -1.80458,1.28168 2.56574,4.00183 2.55376,1.58951 4.64321,3.35331 4.64321,3.91956 0,1.60897 -2.68974,2.24757 -6.47538,1.53738 -4.36141,-0.81821 -6.79135,-3.15486 -5.97046,-5.74124 0.6126,-1.93014 0.56187,-1.9292 -3.34119,0.062 -2.66605,1.36012 -4.12237,2.85435 -4.44943,4.56527 -0.34799,1.82041 -0.055,2.54338 1.03074,2.54338 2.43834,0 8.20572,4.928 8.20572,7.01146 0,1.05033 -0.5625,2.39183 -1.25,2.98112 -2.21028,1.89453 -14.60431,9.00741 -15.69523,9.00741 -1.84625,0 -1.13569,-5.96258 1.19523,-10.02952 1.76085,-3.07231 2.01156,-4.31107 1.1532,-5.69812 -1.24796,-2.01662 -9.26221,-3.92418 -12.0279,-2.86288 -1.53312,0.58831 -1.05421,1.1923 2.89377,3.64959 5.85985,3.64726 6.24049,5.94686 0.98093,5.92619 -5.11034,-0.0201 -8.76971,-2.03983 -8.6706,-4.7856 0.0924,-2.55862 0.0703,-2.56406 -4.16968,-1.03085 -2.36411,0.85487 -3.33958,1.89997 -3.63181,3.89102 -0.34433,2.34609 0.12763,2.9548 3.41591,4.40558 7.82798,3.4537 7.40669,7.86988 -1.18774,12.45067 -3.26599,1.74075 -6.205,3.59676 -6.53113,4.12446 -0.32614,0.5277 -1.43513,0.95946 -2.46442,0.95946 -2.85202,0 -2.97426,-3.92343 -0.27349,-8.77793 3.08362,-5.54265 2.35769,-7.65564 -3.16098,-9.20077 -6.97811,-1.95376 -11.62603,0.47272 -5.64835,2.94875 1.61023,0.66699 3.72984,2.09905 4.71023,3.18237 1.53431,1.6954 1.57919,2.10338 0.3223,2.92982 -1.58541,1.04245 -7.29613,0.34355 -10.29149,-1.25952 -1.29923,-0.69533 -1.72431,-1.75173 -1.39598,-3.46927 0.35721,-1.86862 0.11552,-2.33269 -0.99325,-1.90722 -0.80593,0.30927 -2.44559,0.80833 -3.64369,1.10904 -1.38289,0.34708 -2.57259,1.80621 -3.25789,3.99573 -0.97668,3.12043 -0.8941,3.449 0.8669,3.449 1.07053,0 3.27859,0.94859 4.90679,2.10797 3.92893,2.79764 3.58237,6.54701 -0.86512,9.35973 -10.35668,6.54984 -12.35313,7.60916 -13.27127,7.04172 -1.73132,-1.07002 -1.1185,-6.45074 1.07215,-9.41376 3.29337,-4.45452 2.27505,-7.25478 -3.13849,-8.63045 -2.80547,-0.71292 -5.45425,-0.82241 -6.90575,-0.28547 -2.26275,0.83705 -2.17002,0.98812 2.37596,3.8711 5.75743,3.65125 5.52673,5.46988 -0.68395,5.3916 -5.01334,-0.0632 -7.73516,-1.66946 -7.73516,-4.56488 0,-2.35852 0.15851,-2.37691 -5.94797,0.6902 -2.81177,1.41227 -6.73959,2.83183 -8.7285,3.15459 l -3.61619,0.58683 0.65172,18.09541 0.65172,18.09541 3.68546,3 c 2.02699,1.65 6.41207,5.33874 9.7446,8.19721 3.33254,2.85846 6.73416,5.09816 7.55916,4.97711 1.26299,-0.18531 1.50969,-2.9026 1.56133,-17.19721 z m 36.14738,-7.72711 c 3.05492,-3.34099 5.29129,-8.26122 5.29129,-11.64132 0,-4.97964 -1.73019,-4.43709 -3.57645,1.1215 -0.95829,2.88513 -2.56893,6.60112 -3.57921,8.25776 -3.00995,4.93567 -1.85815,6.33317 1.86437,2.26206 z m 32.38082,-13.87573 c 2.42677,-3.40809 3.95339,-12.87427 2.07624,-12.87427 -0.59877,0 -1.55451,1.6875 -2.12386,3.75 -0.56935,2.0625 -2.1617,5.70843 -3.53855,8.10207 -1.37685,2.39364 -2.50336,4.77198 -2.50336,5.28519 0,1.6375 3.76459,-0.99791 6.08953,-4.26299 z m 28.62971,-10.12427 c 3.63246,-3.79407 5.90321,-10.86626 4.33891,-13.51345 -0.91757,-1.55274 -1.0994,-1.47194 -1.71786,0.76345 -0.38043,1.375 -2.18762,5.37647 -4.01599,8.89215 -1.82836,3.51569 -3.3243,6.55319 -3.3243,6.75 0,1.16754 2.01438,-0.067 4.71924,-2.89215 z m -225.71924,-52.54973 c 0,-1.17544 8.90612,-9.54447 11.81195,-11.09963 1.20343,-0.64405 2.18805,-1.0219 2.18805,-0.83965 0,0.18225 -3.15,3.15163 -7,6.59862 -3.85,3.44699 -7,5.85029 -7,5.34066 z m 57.5,-8.40353 c -1.1,-0.62834 -4.32296,-2.84965 -7.16214,-4.93623 -5.28157,-3.88156 -5.88555,-4.01745 -17.33786,-3.90081 l -6.5,0.0662 10.25984,-4.46915 c 11.69,-5.09212 28.09361,-10.55675 31.68904,-10.55675 2.41915,0 20.62171,11.71178 21.28221,13.69327 0.19134,0.57401 -1.58238,1.72433 -3.9416,2.55626 -13.73293,4.84266 -25.25456,8.74651 -25.73597,8.72006 -0.30444,-0.0167 -1.45352,-0.54451 -2.55352,-1.17285 z"
         id="path4035"
         inkscape:connector-curvature="0" />
    </g>
    <path
       inkscape:connector-curvature="0"
       id="path3217"
       d="m 371.89669,227.20291 c -0.72534,-0.5748 -2.0114,-2.10238 -2.85791,-3.39462 -1.95953,-2.99136 -1.73237,-3.26641 4.19627,-5.081 3.49475,-1.06964 4.77899,-1.25771 5.48972,-0.80394 1.72196,1.09941 4.81631,4.41662 4.81631,5.16321 0,0.40759 -0.87493,1.01813 -1.94428,1.35673 -5.17712,1.63932 -7.03384,2.37966 -7.67891,3.06185 -0.59354,0.62771 -0.9068,0.58087 -2.0212,-0.30223 z"
       style="fill:#59a06d" />
    <path
       style="fill:#000000;fill-opacity:0;stroke:#ff4ec7;stroke-width:5.02810717000000018;stroke-linecap:butt;stroke-linejoin:miter;stroke-miterlimit:4;stroke-opacity:1;stroke-dasharray:none"
       d="m 369.29947,314.31426 107.82813,-51.76042 0.28375,-61.70118 -38.30736,-29.82223 -12.48536,5.39885 -4.39825,0 -2.83758,1.19975 -0.63846,1.28544 -0.49658,1.11405 -4.96577,1.88531 -3.12134,-0.17139 -3.33415,0.77127 -1.77349,1.971 0.0709,0.94266 -5.60422,2.05671 -2.55382,-0.0857 -2.97946,0.42848 -1.77349,1.11405 -1.06409,2.05671 -4.89484,1.88531 -4.89482,0 -2.55383,1.19975 -0.99316,2.31379 -5.32045,2.1424 -3.61793,-0.0857 -4.32731,1.54253 -0.63845,2.1424 -6.31363,2.3995 -4.46919,-0.0857 -3.68886,2.1424 0.14188,1.28544 -5.60422,1.88531 -5.88798,3.94202 -4.39826,5.82733 -2.90852,6.68429 -0.85127,4.6276 -0.21282,5.05606 1.41879,1.11405 0.0709,1.28544 -0.63846,0 2.27007,41.56258 34.54756,33.76425 z"
       id="path4001"
       inkscape:connector-curvature="0" />
    <path
       inkscape:connector-curvature="0"
       id="path3750"
       d="m 233.6574,222.0174 c -26.36143,-13.40831 -28.06323,-40.95869 -3.3449,-54.15027 20.50328,-10.94211 48.28872,-8.29179 63.98133,6.10289 l 4.51028,4.13722 18.42758,-67.26403 c 15.89861,-58.032803 18.75513,-67.36597 20.81424,-68.006776 4.98148,-1.550261 7.21659,0.571459 10.06832,9.557581 4.13033,13.015151 9.38769,22.337176 19.1914,34.0289 9.00115,10.734615 11.89867,16.350665 14.41705,27.943505 2.18277,10.04794 -2.53764,27.95211 -9.26994,35.1601 -3.98205,4.26343 -5.23914,4.81491 -8.25548,3.62164 -3.35118,-1.32574 -3.47315,-1.93619 -2.09696,-10.49582 1.87466,-11.6601 0.83536,-18.63561 -3.81479,-25.60388 -6.2981,-9.43769 -18.40117,-10.88338 -27.179,-3.24648 -4.28574,3.72868 -4.46985,4.27143 -15.86596,46.77226 -6.81643,25.42293 -12.66042,44.91743 -14.29557,47.691 -6.27232,10.63926 -22.67513,19.02143 -37.84939,19.34182 -10.22844,0.21596 -22.66781,-2.146 -29.43821,-5.58966 z m -4.21018,-41.62364 c 0.0987,-1.37727 -0.72224,-2.74575 -1.82436,-3.04106 -1.10209,-0.29531 -2.49731,0.47935 -3.10047,1.72146 -0.76943,1.58455 -0.2251,2.49193 1.82436,3.04108 2.04946,0.54915 2.97454,0.0355 3.10047,-1.72148 z m 12.94334,-4.88192 c 8.98734,-2.36746 15.72076,-2.48888 27.40787,-0.49421 7.59899,1.29695 9.98092,1.18181 10.80445,-0.5223 2.32487,-4.81086 -14.84469,-9.29873 -29.73008,-7.771 -9.59596,0.98485 -19.81035,5.22895 -19.00869,7.89813 0.80513,2.68065 3.01703,2.86753 10.52645,0.88938 z"
       style="fill:#000000;stroke:#0658ff;stroke-width:3.52181935;stroke-miterlimit:4;stroke-opacity:1;stroke-dasharray:none" />
    <path
       style="fill:#ff4ec7;fill-opacity:1;stroke:none"
       d="m 233.6574,222.0174 c -26.36143,-13.40831 -28.06323,-40.95869 -3.3449,-54.15027 20.50328,-10.94211 48.28872,-8.29179 63.98133,6.10289 l 4.51028,4.13722 18.42758,-67.26403 c 15.89861,-58.032803 18.75513,-67.36597 20.81424,-68.006776 4.98148,-1.550261 7.21659,0.571459 10.06832,9.557581 4.13033,13.015151 9.38769,22.337176 19.1914,34.0289 9.00115,10.734615 11.89867,16.350665 14.41705,27.943505 2.18277,10.04794 -2.53764,27.95211 -9.26994,35.1601 -3.98205,4.26343 -5.23914,4.81491 -8.25548,3.62164 -3.35118,-1.32574 -3.47315,-1.93619 -2.09696,-10.49582 1.87466,-11.6601 0.83536,-18.63561 -3.81479,-25.60388 -6.2981,-9.43769 -18.40117,-10.88338 -27.179,-3.24648 -4.28574,3.72868 -4.46985,4.27143 -15.86596,46.77226 -6.81643,25.42293 -12.66042,44.91743 -14.29557,47.691 -6.27232,10.63926 -22.67513,19.02143 -37.84939,19.34182 -10.22844,0.21596 -22.66781,-2.146 -29.43821,-5.58966 z m -4.21018,-41.62364 c 0.0987,-1.37727 -0.72224,-2.74575 -1.82436,-3.04106 -1.10209,-0.29531 -2.49731,0.47935 -3.10047,1.72146 -0.76943,1.58455 -0.2251,2.49193 1.82436,3.04108 2.04946,0.54915 2.97454,0.0355 3.10047,-1.72148 z m 12.94334,-4.88192 c 8.98734,-2.36746 15.72076,-2.48888 27.40787,-0.49421 7.59899,1.29695 9.98092,1.18181 10.80445,-0.5223 2.32487,-4.81086 -14.84469,-9.29873 -29.73008,-7.771 -9.59596,0.98485 -19.81035,5.22895 -19.00869,7.89813 0.80513,2.68065 3.01703,2.86753 10.52645,0.88938 z"
       id="path3059"
       inkscape:connector-curvature="0" />
  </g>
</svg>
