<?xml version="1.0" encoding="UTF-8" standalone="no"?>
<!-- Created with Inkscape (http://www.inkscape.org/) -->

<svg
   xmlns:dc="http://purl.org/dc/elements/1.1/"
   xmlns:cc="http://creativecommons.org/ns#"
   xmlns:rdf="http://www.w3.org/1999/02/22-rdf-syntax-ns#"
   xmlns:svg="http://www.w3.org/2000/svg"
   xmlns="http://www.w3.org/2000/svg"
   xmlns:sodipodi="http://sodipodi.sourceforge.net/DTD/sodipodi-0.dtd"
   xmlns:inkscape="http://www.inkscape.org/namespaces/inkscape"
   id="svg3049"
   version="1.1"
   inkscape:version="0.48.4 r9939"
   width="143.5"
   height="143.49915"
   sodipodi:docname="sounds.svg">
  <metadata
     id="metadata3055">
    <rdf:RDF>
      <cc:Work
         rdf:about="">
        <dc:format>image/svg+xml</dc:format>
        <dc:type
           rdf:resource="http://purl.org/dc/dcmitype/StillImage" />
        <dc:title />
      </cc:Work>
    </rdf:RDF>
  </metadata>
  <defs
     id="defs3053" />
  <sodipodi:namedview
     pagecolor="#ffffff"
     bordercolor="#666666"
     borderopacity="1"
     objecttolerance="10"
     gridtolerance="10"
     guidetolerance="10"
     inkscape:pageopacity="0"
     inkscape:pageshadow="2"
     inkscape:window-width="1361"
     inkscape:window-height="1005"
     id="namedview3051"
     showgrid="false"
     fit-margin-top="0"
     fit-margin-left="0"
     fit-margin-right="0"
     fit-margin-bottom="0"
     inkscape:zoom="1.18"
     inkscape:cx="-99.023156"
     inkscape:cy="72.48769"
     inkscape:window-x="368"
     inkscape:window-y="287"
     inkscape:window-maximized="0"
     inkscape:current-layer="svg3049" />
  <path
     inkscape:connector-curvature="0"
     id="path3750"
     d="M 37.96466,142.96032 C 17.42591,138.60987 11.19733,120.032 25.72238,106.44551 37.77058,95.175839 57.30922,91.888199 70.71387,98.875099 l 3.85269,2.008131 0.27717,-49.506718 C 75.08287,8.6640433 75.32677,1.7397323 76.62091,0.92204028 c 3.130846,-1.97819898 5.053206,-0.934039 8.659536,4.70356302 5.22327,8.1652837 10.5408,13.5912287 19.410994,19.8067317 8.14406,5.706691 11.16262,9.025115 15.0193,16.511318 3.34273,6.488566 3.39552,19.63221 0.10367,25.811437 -1.94709,3.654919 -2.70772,4.264009 -4.99517,3.999999 -2.54139,-0.29332 -2.73717,-0.68949 -3.36618,-6.811436 -0.85685,-8.339428 -2.85105,-12.931394 -7.31978,-16.854995 -6.052374,-5.314049 -14.616734,-4.081677 -19.232354,2.767447 -2.25356,3.344055 -2.28008,3.750017 -2.2856,34.985434 -0.003,18.684151 -0.42843,33.124681 -1.04003,35.326861 -2.34606,8.44744 -12.052986,17.20847 -22.398696,20.21605 -6.97368,2.0273 -15.93697,2.6932 -21.21194,1.57587 z M 27.43054,115.19366 c -0.18536,-0.9625 -0.99969,-1.75 -1.80963,-1.75 -0.80993,0 -1.62427,0.7875 -1.80963,1.75 -0.23646,1.22785 0.30348,1.75 1.80963,1.75 1.50615,0 2.04609,-0.52215 1.80963,-1.75 z m 7.97797,-5.72542 c 5.7274,-3.27451 10.32201,-4.59486 18.70202,-5.37439 5.4487,-0.50685 7.06077,-1.02342 7.31235,-2.34318 0.71022,-3.725811 -11.88701,-3.648531 -21.81283,0.13381 -6.39874,2.43831 -12.62272,7.22501 -11.58264,8.9079 1.04456,1.69013 2.59553,1.41189 7.3811,-1.32414 z"
     style="fill:#000000;stroke-width:2.5;stroke-miterlimit:4;stroke-dasharray:none;stroke:#0658ff;stroke-opacity:1" />
  <path
     style="fill:#5fbcd3;stroke-width:0.29999999999999999;stroke-miterlimit:4;stroke-dasharray:none;stroke:none;stroke-opacity:1"
     d="M 37.96466,142.96032 C 17.42591,138.60987 11.19733,120.032 25.72238,106.44551 37.77058,95.175839 57.30922,91.888199 70.71387,98.875099 l 3.85269,2.008131 0.27717,-49.506718 C 75.08287,8.6640433 75.32677,1.7397323 76.62091,0.92204028 c 3.130846,-1.97819898 5.053206,-0.934039 8.659536,4.70356302 5.22327,8.1652837 10.5408,13.5912287 19.410994,19.8067317 8.14406,5.706691 11.16262,9.025115 15.0193,16.511318 3.34273,6.488566 3.39552,19.63221 0.10367,25.811437 -1.94709,3.654919 -2.70772,4.264009 -4.99517,3.999999 -2.54139,-0.29332 -2.73717,-0.68949 -3.36618,-6.811436 -0.85685,-8.339428 -2.85105,-12.931394 -7.31978,-16.854995 -6.052374,-5.314049 -14.616734,-4.081677 -19.232354,2.767447 -2.25356,3.344055 -2.28008,3.750017 -2.2856,34.985434 -0.003,18.684151 -0.42843,33.124681 -1.04003,35.326861 -2.34606,8.44744 -12.052986,17.20847 -22.398696,20.21605 -6.97368,2.0273 -15.93697,2.6932 -21.21194,1.57587 z M 27.43054,115.19366 c -0.18536,-0.9625 -0.99969,-1.75 -1.80963,-1.75 -0.80993,0 -1.62427,0.7875 -1.80963,1.75 -0.23646,1.22785 0.30348,1.75 1.80963,1.75 1.50615,0 2.04609,-0.52215 1.80963,-1.75 z m 7.97797,-5.72542 c 5.7274,-3.27451 10.32201,-4.59486 18.70202,-5.37439 5.4487,-0.50685 7.06077,-1.02342 7.31235,-2.34318 0.71022,-3.725811 -11.88701,-3.648531 -21.81283,0.13381 -6.39874,2.43831 -12.62272,7.22501 -11.58264,8.9079 1.04456,1.69013 2.59553,1.41189 7.3811,-1.32414 z"
     id="path3059"
     inkscape:connector-curvature="0" />
</svg>
