<?xml version="1.0" encoding="UTF-8" standalone="no"?>
<!-- Created with Inkscape (http://www.inkscape.org/) -->

<svg
   xmlns:dc="http://purl.org/dc/elements/1.1/"
   xmlns:cc="http://creativecommons.org/ns#"
   xmlns:rdf="http://www.w3.org/1999/02/22-rdf-syntax-ns#"
   xmlns:svg="http://www.w3.org/2000/svg"
   xmlns="http://www.w3.org/2000/svg"
   xmlns:sodipodi="http://sodipodi.sourceforge.net/DTD/sodipodi-0.dtd"
   xmlns:inkscape="http://www.inkscape.org/namespaces/inkscape"
   id="svg3039"
   version="1.1"
   inkscape:version="0.48.4 r9939"
   width="395.10959"
   height="395.10999"
   sodipodi:docname="sounds.svg">
  <metadata
     id="metadata3045">
    <rdf:RDF>
      <cc:Work
         rdf:about="">
        <dc:format>image/svg+xml</dc:format>
        <dc:type
           rdf:resource="http://purl.org/dc/dcmitype/StillImage" />
      </cc:Work>
    </rdf:RDF>
  </metadata>
  <defs
     id="defs3043" />
  <sodipodi:namedview
     pagecolor="#ffffff"
     bordercolor="#666666"
     borderopacity="1"
     objecttolerance="10"
     gridtolerance="10"
     guidetolerance="10"
     inkscape:pageopacity="0"
     inkscape:pageshadow="2"
     inkscape:window-width="1295"
     inkscape:window-height="1051"
     id="namedview3041"
     showgrid="false"
     showguides="true"
     inkscape:guide-bbox="true"
     inkscape:zoom="0.91189727"
     inkscape:cx="218.11555"
     inkscape:cy="318.51793"
     inkscape:window-x="508"
     inkscape:window-y="136"
     inkscape:window-maximized="0"
     inkscape:current-layer="svg3039"
     fit-margin-top="0"
     fit-margin-left="0"
     fit-margin-right="0"
     fit-margin-bottom="0" />
  <g
     id="g3105"
     transform="translate(34.108244,-716.96882)"
     style="fill:#004455;stroke:#216778;stroke-width:7.69999981;stroke-miterlimit:4;stroke-opacity:1;stroke-dasharray:none">
    <path
       inkscape:connector-curvature="0"
       id="path3097"
       d="m 196.34622,644.43377 c -5.34122,-3.63735 -14.353,-9.52393 -60.96764,-39.82465 -36.454279,-23.69623 -38.227219,-24.81399 -39.358809,-24.81399 -0.4942,0 -1.47978,1.40322 -2.19018,3.11827 -1.778898,4.29464 -6.382298,6.87343 -12.277928,6.87799 -4.87077,0.004 -6.27393,-0.90022 -11.46251,-7.38477 -1.0718,-1.33952 -3.60338,-1.61398 -15,-1.62627 -22.26424,-0.024 -32.93004,-3.75448 -45.0926395,-15.77163 -13.8655799,-13.69976 -19.1067696,-33.20742 -14.1397799,-52.62815 2.75347,-10.76599 6.32609,-16.94322 14.5569594,-25.1697 12.06221,-12.05579 21.7171,-15.40879 44.42499,-15.42812 l 14.5399,-0.0124 2.30873,-3.56318 c 5.5785,-8.60961 18.33765,-7.71553 22.177228,1.55405 0.69117,1.66864 1.62773,3.03389 2.08123,3.03389 0.75541,0 22.164279,-13.59316 50.932809,-32.33886 6.325,-4.1214 16.225,-10.5628 22,-14.31424 5.775,-3.75144 15.18275,-9.86417 20.90611,-13.58385 5.72336,-3.71968 11.23766,-6.76306 12.25401,-6.76306 1.78841,0 1.83973,3.88552 1.5939,120.6667 -0.17232,81.85779 -0.58605,120.77736 -1.28638,121.01079 -0.5678,0.18925 -3.2678,-1.17823 -6,-3.03884 z"
       style="fill:#004455;fill-opacity:1;stroke:#216778;stroke-width:7.69999981;stroke-miterlimit:4;stroke-opacity:1;stroke-dasharray:none"
       sodipodi:nodetypes="cssscsssssscssssssssscc" />
    <path
       inkscape:connector-curvature="0"
       id="path3099"
       d="m 281.33771,675.01641 c -3.21536,-1.844 -4.43425,-4.03873 -4.4682,-8.04542 -0.0285,-3.3606 0.90634,-4.75989 8.93584,-13.3757 28.52032,-30.60285 45.59941,-69.01759 49.21965,-110.70615 3.90452,-44.96214 -10.61367,-92.18198 -39.01791,-126.9042 -3.11816,-3.81173 -6.52607,-7.99223 -7.57314,-9.29 -3.72923,-4.62212 -1.77981,-11.59497 3.75204,-13.42065 5.16516,-1.70466 7.72813,-0.10558 16.27028,10.15132 21.70218,26.05864 35.42258,56.01505 41.90179,91.48614 2.23825,12.25356 3.05146,41.39337 1.54781,55.46308 -4.63386,43.3592 -21.46968,80.77733 -51.32864,114.07948 -10.05547,11.21502 -14.16613,13.47169 -19.23952,10.5621 z M 261.1662,630.83036 c -2.17739,-1.87291 -2.78304,-3.26049 -2.78304,-6.37616 0,-3.27991 0.80706,-4.93012 4.57574,-9.35613 14.39051,-16.9005 24.85838,-38.20346 29.63672,-60.31308 2.4944,-11.54172 2.41367,-40.77859 -0.14513,-52.56076 -3.84067,-17.68459 -11.63933,-35.46512 -21.38394,-48.75423 -7.43774,-10.14316 -8.21797,-11.54939 -8.22358,-14.82148 -0.007,-4.27313 3.93696,-7.82431 8.6904,-7.82431 3.10723,0 4.28359,0.72565 8.02454,4.95 15.23163,17.19988 27.21704,44.29347 31.3862,70.95002 2.05776,13.15676 1.54379,37.09503 -1.07352,50 -5.85473,28.86742 -18.00169,54.0826 -34.08194,70.74875 -6.40506,6.63843 -9.88034,7.43637 -14.62245,3.35738 z m -46.40541,-25.52921 c -4.85904,-4.85903 -4.11992,-7.71002 4.43887,-17.12195 24.34484,-26.77157 30.13038,-63.13176 15.09487,-94.86622 -4.02211,-8.48918 -10.5895,-17.99904 -15.94481,-23.08875 -7.12609,-6.77266 -8.1202,-12.80323 -2.80037,-16.98781 4.85466,-3.81868 7.96466,-2.78708 15.79074,5.23781 12.2191,12.52952 20.82024,27.74466 25.71411,45.48744 1.81901,6.59481 2.14252,10.47037 2.15056,25.76256 0.009,16.72443 -0.18311,18.63779 -2.70797,27 -5.5725,18.45581 -15.41561,35.30507 -27.05613,46.31419 -6.63981,6.27966 -10.12565,6.81696 -14.67987,2.26273 z"
       style="fill:#004455;stroke:#216778;stroke-width:7.69999981;stroke-miterlimit:4;stroke-opacity:1;stroke-dasharray:none"
       sodipodi:nodetypes="sssssssssssssssssscssssssssssssscsss" />
    <path
       inkscape:connector-curvature="0"
       id="path3101"
       d="m 72.355375,585.39399 -3.6627,-3.85029 -15.43247,-0.60707 c -8.48786,-0.33388 -17.44496,-1.10098 -19.90466,-1.70467 C 20.961635,576.19014 7.1942555,566.03869 0.59607558,555.07661 -5.9754744,544.15879 -8.4380344,525.88155 -5.0880744,512.88862 c 3.21844,-12.48281 12.1043699,-25.02751 22.4143294,-31.64339 2.73571,-1.7555 8.18101,-4.3071 12.10066,-5.67022 6.23829,-2.16946 9.10761,-2.5114 23.0183,-2.74311 l 15.89163,-0.26471 3.84184,-4.16145 c 3.39535,-3.67784 4.35679,-4.16146 8.272931,-4.16146 5.617247,0 8.541777,2.0542 10.961637,7.69951 1.80223,4.20443 1.91448,7.44458 1.91448,55.26127 0,55.24718 -0.029,55.55707 -5.60968,59.94683 -1.80807,1.42223 -4.10771,2.09239 -7.180007,2.09239 -3.94317,0 -4.987391,-0.49135 -8.182671,-3.85029 z"
       style="fill:#004455;stroke:#216778;stroke-width:7.69999981;stroke-miterlimit:4;stroke-opacity:1;stroke-dasharray:none" />
    <path
       inkscape:connector-curvature="0"
       id="path3103"
       d="m 73.723743,584.39794 -3.84516,-4.0421 0,-54.29151 0,-54.2915 3.84639,-4.16639 c 3.4217,-3.70637 4.34532,-4.16639 8.36514,-4.16639 5.41908,0 9.18764,2.5702 10.65324,7.26564 1.468398,4.70439 1.827908,107.43539 0.38793,110.85304 -1.81343,4.30399 -5.94924,6.88132 -11.04239,6.88132 -3.98031,0 -4.97909,-0.48262 -8.36515,-4.04211 z"
       style="fill:#004455;stroke:#216778;stroke-width:7.69999981;stroke-miterlimit:4;stroke-opacity:1;stroke-dasharray:none" />
  </g>
  <path
     inkscape:connector-curvature="0"
     id="path3057"
     d="m 207.42556,313.17737 c -5.34122,-3.63735 -14.353,-9.52393 -60.96764,-39.82465 -36.45428,-23.69623 -38.22722,-24.81399 -39.35881,-24.81399 -0.4942,0 -1.47978,1.40322 -2.19018,3.11827 -1.7789,4.29464 -6.3823,6.87343 -12.27793,6.87799 -4.87077,0.004 -6.27393,-0.90022 -11.46251,-7.38477 -1.0718,-1.33952 -3.60338,-1.61398 -15.000002,-1.62627 -22.26424,-0.024 -32.930043,-3.75448 -45.092643,-15.77163 C 7.2102664,220.05256 1.9690764,200.5449 6.9360664,181.12417 c 2.75347,-10.76599 6.3260886,-16.94322 14.5569586,-25.1697 12.06221,-12.05579 21.717103,-15.40879 44.424993,-15.42812 l 14.539902,-0.0124 2.30873,-3.56318 c 5.5785,-8.60961 18.33765,-7.71553 22.17723,1.55405 0.69117,1.66864 1.62773,3.03389 2.08123,3.03389 0.75541,0 22.16428,-13.59316 50.93281,-32.33885 6.325,-4.1214 16.225,-10.562798 22,-14.314238 5.775,-3.75144 15.18275,-9.86418 20.90611,-13.58386 5.72336,-3.71968 11.23766,-6.76306 12.25401,-6.76306 1.78841,0 1.83973,3.88552 1.5939,120.666698 -0.17232,81.85779 -0.58605,120.77736 -1.28638,121.01079 -0.5678,0.18925 -3.2678,-1.17823 -6,-3.03884 z"
     style="fill:#00aad4;fill-opacity:1;stroke:#006680;stroke-width:10.19999981;stroke-miterlimit:4;stroke-dasharray:none"
     sodipodi:nodetypes="cssscsssssscssssssssscc" />
  <path
     inkscape:connector-curvature="0"
     id="path3055"
     d="m 322.02579,339.56722 c -3.21536,-1.844 -4.43425,-4.03873 -4.4682,-8.04542 -0.0285,-3.3606 0.90634,-4.75989 8.93584,-13.3757 28.52032,-30.60285 45.59941,-69.01759 49.21965,-110.70615 3.90452,-44.96214 -10.61367,-92.18198 -39.01791,-126.904198 -3.11816,-3.81172 -6.52607,-7.99222 -7.57314,-9.28999 -3.72923,-4.62212 -1.77981,-11.59497 3.75204,-13.42065 5.16516,-1.70466 7.72813,-0.10558 16.27028,10.15132 21.70218,26.05864 35.42258,56.015038 41.90179,91.486128 2.23825,12.25356 3.05146,41.39337 1.54781,55.46308 -4.63386,43.3592 -21.46968,80.77733 -51.32864,114.07948 -10.05547,11.21502 -14.16613,13.47169 -19.23952,10.5621 z m -20.17151,-44.18605 c -2.17739,-1.87291 -2.78304,-3.26049 -2.78304,-6.37616 0,-3.27991 0.80706,-4.93012 4.57574,-9.35613 14.39051,-16.9005 24.85838,-38.20346 29.63672,-60.31308 2.4944,-11.54172 2.41367,-40.77859 -0.14513,-52.56076 -3.84067,-17.68459 -11.63933,-35.46512 -21.38394,-48.75423 -7.43774,-10.14315 -8.21797,-11.54938 -8.22358,-14.82147 -0.007,-4.273128 3.93696,-7.824308 8.6904,-7.824308 3.10723,0 4.28359,0.72565 8.02454,4.949998 15.23163,17.19987 27.21704,44.29346 31.3862,70.95001 2.05776,13.15676 1.54379,37.09503 -1.07352,50 -5.85473,28.86742 -18.00169,54.0826 -34.08194,70.74875 -6.40506,6.63843 -9.88034,7.43637 -14.62245,3.35738 z m -46.40541,-25.52921 c -4.85904,-4.85903 -4.11992,-7.71002 4.43887,-17.12195 24.34484,-26.77157 30.13038,-63.13176 15.09487,-94.86622 -4.02211,-8.48918 -10.5895,-17.99904 -15.94481,-23.08875 -7.12609,-6.77266 -8.1202,-12.80323 -2.80037,-16.98781 4.85466,-3.81868 7.96466,-2.78708 15.79074,5.23781 12.2191,12.52952 20.82024,27.74466 25.71411,45.48744 1.81901,6.59481 2.14252,10.47037 2.15056,25.76256 0.009,16.72443 -0.18311,18.63779 -2.70797,27 -5.5725,18.45581 -15.41561,35.30507 -27.05613,46.31419 -6.63981,6.27966 -10.12565,6.81696 -14.67987,2.26273 z"
     style="fill:#006680;stroke:#006680;stroke-width:3.5;stroke-miterlimit:4;stroke-dasharray:none"
     sodipodi:nodetypes="sssssssssssssssssscssssssssssssscsss" />
  <path
     inkscape:connector-curvature="0"
     id="path3051"
     d="m 85.89969,253.33521 -3.84516,-4.0421 0,-54.29151 0,-54.2915 3.84639,-4.16639 c 3.4217,-3.70637 4.34532,-4.16639 8.36514,-4.16639 5.41908,0 9.18764,2.5702 10.65324,7.26564 1.4684,4.70439 1.82791,107.43539 0.38793,110.85304 -1.81343,4.30399 -5.94924,6.88132 -11.04239,6.88132 -3.98031,0 -4.97909,-0.48262 -8.36515,-4.04211 z"
     style="fill:#ffd42a" />
</svg>
