<?xml version="1.0" encoding="UTF-8" standalone="no"?>
<!-- Created with Inkscape (http://www.inkscape.org/) -->

<svg
   xmlns:dc="http://purl.org/dc/elements/1.1/"
   xmlns:cc="http://creativecommons.org/ns#"
   xmlns:rdf="http://www.w3.org/1999/02/22-rdf-syntax-ns#"
   xmlns:svg="http://www.w3.org/2000/svg"
   xmlns="http://www.w3.org/2000/svg"
   xmlns:sodipodi="http://sodipodi.sourceforge.net/DTD/sodipodi-0.dtd"
   xmlns:inkscape="http://www.inkscape.org/namespaces/inkscape"
   width="239.10367"
   height="218.77457"
   id="svg2"
   version="1.1"
   inkscape:version="0.48.4 r9939"
   sodipodi:docname="speechbubble.svg">
  <defs
     id="defs4" />
  <sodipodi:namedview
     id="base"
     pagecolor="#ffffff"
     bordercolor="#666666"
     borderopacity="1.0"
     inkscape:pageopacity="0.0"
     inkscape:pageshadow="2"
     inkscape:zoom="1.979899"
     inkscape:cx="-12.870634"
     inkscape:cy="77.939841"
     inkscape:document-units="px"
     inkscape:current-layer="layer1"
     showgrid="false"
     fit-margin-top="0"
     fit-margin-left="0"
     fit-margin-right="0"
     fit-margin-bottom="0"
     inkscape:window-width="1491"
     inkscape:window-height="782"
     inkscape:window-x="1069"
     inkscape:window-y="630"
     inkscape:window-maximized="0" />
  <metadata
     id="metadata7">
    <rdf:RDF>
      <cc:Work
         rdf:about="">
        <dc:format>image/svg+xml</dc:format>
        <dc:type
           rdf:resource="http://purl.org/dc/dcmitype/StillImage" />
        <dc:title />
      </cc:Work>
    </rdf:RDF>
  </metadata>
  <g
     inkscape:label="Layer 1"
     inkscape:groupmode="layer"
     id="layer1"
     transform="translate(-213.31068,-358.51881)">
    <rect
       style="fill:#ffffff;fill-opacity:1;stroke:none"
       id="rect3768"
       width="67.175148"
       height="58.083771"
       x="241.59496"
       y="490.42026" />
    <path
       sodipodi:type="arc"
       style="fill:#ffffff;fill-opacity:1;stroke:none;stroke-width:1;stroke-linecap:round;stroke-linejoin:round;stroke-miterlimit:4;stroke-opacity:1;stroke-dasharray:4, 4;stroke-dashoffset:0"
       id="path3766"
       sodipodi:cx="121.42857"
       sodipodi:cy="142.34599"
       sodipodi:rx="105.71429"
       sodipodi:ry="82.14286"
       d="m 227.14286,142.34599 c 0,45.36625 -47.3299,82.14286 -105.71429,82.14286 -58.384385,0 -105.714283,-36.77661 -105.714283,-82.14286 0,-45.366246 47.329898,-82.142857 105.714283,-82.142857 58.38439,0 105.71429,36.776611 105.71429,82.142857 z"
       transform="matrix(0.99985292,0,0,1.0633177,213.32854,304.28915)" />
    <path
       style="fill:#ffffff"
       d="m 214.21873,576.72312 c 0.27295,-0.63066 2.50191,-5.64665 4.95325,-11.14665 8.59786,-19.29081 13.68514,-36.69756 13.68514,-46.82542 0,-3.58929 -0.86262,-5.69025 -4.6364,-11.29216 -5.82167,-8.64188 -9.82825,-17.46864 -12.62645,-27.81692 -2.89907,-10.72136 -3.06656,-31.57707 -0.33782,-42.0655 7.26812,-27.93634 29.05763,-52.58339 58.71171,-66.41134 10.43652,-4.86664 18.54993,-7.53322 31.38896,-10.3164 14.39845,-3.12123 40.67271,-3.10391 55.18841,0.0364 26.16714,5.66092 47.81539,16.81148 64.25956,33.09875 12.41344,12.295 21.54903,27.81947 25.65268,43.59261 2.77279,10.65772 2.56678,31.43024 -0.41654,42 -8.48171,30.05034 -32.2509,55.38941 -63.98802,68.21424 -25.01019,10.10651 -50.96713,12.40299 -81.21434,7.18523 l -11.51824,-1.98694 -8.78652,4.1175 c -14.66774,6.87353 -42.70607,15.42909 -63.49432,19.37451 -5.2824,1.00256 -7.17932,1.06989 -6.82106,0.24211 z m 47.0197,-31.7468 c 5.01528,-1.70509 13.52884,-5.39069 18.91903,-8.19022 l 9.80034,-5.09007 11.60744,2.29325 c 16.49416,3.25869 29.54642,4.1978 42.13383,3.03151 41.21194,-3.81848 75.47734,-27.22903 85.75583,-58.58946 2.55429,-7.79333 2.89251,-10.23349 2.82133,-20.35486 -0.0676,-9.60672 -0.51609,-12.81706 -2.72441,-19.5 -9.44432,-28.5809 -36.7105,-50.3714 -72.6947,-58.09592 -11.78794,-2.53045 -36.21206,-2.53045 -48,0 -22.62262,4.85627 -41.64813,15.04199 -55.30771,29.61018 -8.62485,9.19856 -13.82209,17.7083 -17.39737,28.48574 -2.27161,6.8476 -2.65713,9.7286 -2.67632,20 -0.0197,10.5629 0.30989,12.95806 2.75241,20 2.94871,8.50129 6.45501,14.86365 12.69288,23.03183 2.26327,2.96365 4.10246,6.66284 4.4747,9 1.06533,6.68895 -1.89275,27.51159 -5.07416,35.71817 -1.01169,2.60971 2.28218,2.26541 12.91688,-1.35015 z"
       id="path2996"
       inkscape:connector-curvature="0" />
  </g>
</svg>
