<?xml version="1.0" encoding="UTF-8" standalone="no"?>
<!-- Created with Inkscape (http://www.inkscape.org/) -->

<svg
   xmlns:dc="http://purl.org/dc/elements/1.1/"
   xmlns:cc="http://creativecommons.org/ns#"
   xmlns:rdf="http://www.w3.org/1999/02/22-rdf-syntax-ns#"
   xmlns:svg="http://www.w3.org/2000/svg"
   xmlns="http://www.w3.org/2000/svg"
   xmlns:sodipodi="http://sodipodi.sourceforge.net/DTD/sodipodi-0.dtd"
   xmlns:inkscape="http://www.inkscape.org/namespaces/inkscape"
   id="svg3119"
   version="1.1"
   inkscape:version="0.48.4 r9939"
   width="279.08432"
   height="223.15746"
   sodipodi:docname="tega.svg">
  <metadata
     id="metadata3125">
    <rdf:RDF>
      <cc:Work
         rdf:about="">
        <dc:format>image/svg+xml</dc:format>
        <dc:type
           rdf:resource="http://purl.org/dc/dcmitype/StillImage" />
        <dc:title />
      </cc:Work>
    </rdf:RDF>
  </metadata>
  <defs
     id="defs3123" />
  <sodipodi:namedview
     pagecolor="#ffffff"
     bordercolor="#666666"
     borderopacity="1"
     objecttolerance="10"
     gridtolerance="10"
     guidetolerance="10"
     inkscape:pageopacity="0"
     inkscape:pageshadow="2"
     inkscape:window-width="1513"
     inkscape:window-height="1161"
     id="namedview3121"
     showgrid="false"
     fit-margin-top="0"
     fit-margin-left="0"
     fit-margin-right="0"
     fit-margin-bottom="0"
     inkscape:zoom="0.95934959"
     inkscape:cx="142.9775"
     inkscape:cy="113.87628"
     inkscape:window-x="75"
     inkscape:window-y="34"
     inkscape:window-maximized="0"
     inkscape:current-layer="svg3119" />
  <path
     sodipodi:type="arc"
     style="fill:#ffffff;fill-opacity:1;stroke:#006680;stroke-width:3.50000000000000000;stroke-linecap:square;stroke-linejoin:miter;stroke-miterlimit:4;stroke-opacity:1;stroke-dasharray:none"
     id="path2985"
     sodipodi:cx="-260.07202"
     sodipodi:cy="45.43288"
     sodipodi:rx="113.09746"
     sodipodi:ry="124.56356"
     d="m -146.97456,45.43288 a 113.09746,124.56356 0 1 1 -0.0261,-2.676217"
     sodipodi:start="0"
     sodipodi:end="6.2616989"
     sodipodi:open="true"
     transform="matrix(0.75013812,0,0,0.78569026,334.76792,72.279083)" />
  <g
     id="g3139"
     transform="translate(245.23174,-5.3798581)">
    <path
       style="fill:#e4df07"
       d="m -110.81182,227.48497 c -1.06799,-0.62078 -4.01759,-0.82561 -7,-0.48608 -2.90704,0.33094 -8.20623,-0.0148 -12.15427,-0.7931 -3.85,-0.75893 -7.34816,-1.16836 -7.77369,-0.90985 -0.42553,0.25851 -2.75897,-0.28817 -5.18542,-1.21483 -2.72527,-1.0408 -6.06105,-1.51103 -8.72631,-1.23012 -2.7781,0.29279 -6.18874,-0.22907 -9.57739,-1.46545 -3.26587,-1.19158 -6.34934,-1.68154 -8.12629,-1.29126 -1.98422,0.43581 -3.36994,0.12246 -4.51289,-1.02048 -0.90717,-0.90718 -2.27994,-1.40746 -3.0506,-1.11173 -0.77065,0.29573 -1.93918,-0.11056 -2.59674,-0.90287 -0.65756,-0.79231 -1.95445,-1.44056 -2.88198,-1.44056 -0.92754,0 -2.55994,-0.66069 -3.62756,-1.4682 -1.06762,-0.8075 -3.1441,-1.4825 -4.6144,-1.5 -1.47031,-0.0175 -4.01027,-1.1568 -5.64436,-2.5318 -1.6341,-1.375 -3.94097,-2.5 -5.12639,-2.5 -1.18541,0 -3.59545,-0.72633 -5.35564,-1.61406 -3.96831,-2.00138 -13.68126,-12.30268 -13.69224,-14.52163 -0.0108,-2.18604 -2.00268,-5.88381 -4.7581,-8.83311 -1.2375,-1.32458 -2.25,-3.15149 -2.25,-4.0598 0,-5.31228 -4.64057,-18.83195 -10.11246,-29.46124 -5.17015,-10.04316 -6.22814,-12.96566 -6.51626,-18 -0.18918,-3.30559 -0.606,-7.22552 -0.92627,-8.71096 -0.32027,-1.48545 -0.26957,-4.7863 0.11267,-7.33524 0.58468,-3.89894 1.33354,-5.09702 4.71868,-7.5492 4.02917,-2.91871 9.03855,-3.83227 10.25157,-1.86957 0.35528,0.57485 2.74434,0.9861 5.30902,0.91389 2.56468,-0.0722 5.50077,0.0199 6.52466,0.20481 1.02388,0.18486 2.21787,-0.33889 2.65331,-1.16389 1.76612,-3.34622 3.17045,-9.840596 2.55036,-11.794306 -0.36319,-1.14433 -0.24257,-2.89624 0.26804,-3.893142 3.99573,-7.801032 10.16387,-22.962474 10.18396,-25.032416 0.01,-0.979072 1.16387,-2.868134 2.56527,-4.197914 1.4014,-1.32978 3.40607,-4.099744 4.45482,-6.155474 1.04876,-2.055731 2.93416,-4.567729 4.18978,-5.582218 1.25562,-1.014489 3.02307,-2.969526 3.92765,-4.344526 3.94896,-6.002535 19.68216,-20.788674 24.8972,-23.398516 7.30886,-3.657685 13.79002,-7.231687 15.25146,-8.410343 0.6581,-0.530756 3.17571,-1.291708 5.59469,-1.691004 2.41898,-0.399296 5.89203,-1.3501752 7.71788,-2.1130652 1.82585,-0.762889 4.59419,-1.387072 6.15185,-1.387072 1.55767,0 3.3742,-0.542076 4.03673,-1.204613 0.81718,-0.817182 4.66058,-1.140102 11.95,-1.004033 20.21224,0.377292 28.63821,1.500067 35.89652,4.7832732 1.73312,0.783955 4.43312,1.433562 6,1.44357 2.65632,0.01697 9.53855,3.776921 13.62977,7.446322 0.9795,0.878506 4.44177,2.949439 7.69394,4.602073 3.25217,1.652635 6.19134,3.881619 6.53147,4.953298 0.34014,1.071679 2.72787,2.998047 5.30606,4.280817 3.1708,1.577619 4.79332,3.05628 5.01424,4.56968 0.18425,1.262166 1.3829,2.638968 2.75,3.158741 1.33287,0.506753 2.42339,1.676528 2.42339,2.599498 0,0.92297 2.22913,4.0351 4.95361,6.915844 2.72449,2.880744 5.27084,6.524224 5.65855,8.096623 0.38772,1.572399 1.69452,4.208907 2.90401,5.858907 1.20948,1.65 2.98057,4.575 3.93575,6.5 3.28326,6.616856 8.73955,24.50413 8.60563,28.21175 -0.2054,5.686936 2.484,7.813206 9.14525,7.230346 2.91346,-0.25493 6.53292,-0.73581 8.04324,-1.06862 7.37405,-1.62495 13.88083,6.12379 16.71879,19.90993 0.65025,3.15875 0.46979,3.9488 -1.093,4.78518 -1.25594,0.67216 -1.87183,2.10152 -1.87183,4.34415 0,1.8383 -0.67903,3.90591 -1.50895,4.59469 -0.82992,0.68877 -1.79179,3.02113 -2.13749,5.18301 -0.38216,2.38987 -1.75065,5.0528 -3.49105,6.79321 -1.57438,1.57438 -2.86251,3.50237 -2.86251,4.28444 0,0.78206 -0.88939,2.22682 -1.97642,3.21057 -1.08703,0.98375 -1.80216,2.07058 -1.58919,2.41519 1.37079,2.21797 -4.55635,17.57718 -7.68439,19.91285 -0.97431,0.72751 -1.75,2.61132 -1.75,4.25 0,1.61882 -0.41786,2.9433 -0.92857,2.9433 -1.87371,0 -4.07143,3.21956 -4.07143,5.96444 0,1.58558 -0.65708,3.07373 -1.5,3.39719 -0.825,0.31658 -1.5,1.42992 -1.5,2.4741 0,2.06631 -6.85374,7.16427 -9.63172,7.16427 -0.92103,0 -4.53187,1.35 -8.02411,3 -3.49223,1.65 -6.97516,3 -7.73985,3 -0.76469,0 -1.62582,0.61364 -1.91362,1.36364 -0.32548,0.8482 -2.09091,1.36363 -4.67062,1.36363 -2.28105,0 -4.65872,0.51137 -5.28372,1.13637 -0.625,0.625 -1.96219,1.13636 -2.97154,1.13636 -1.00935,0 -2.94088,0.72448 -4.29228,1.60995 -1.35141,0.88547 -3.0821,1.37012 -3.84599,1.07699 -1.63309,-0.62668 -7.71566,1.3122 -9.96002,3.17485 -0.8612,0.71473 -2.88221,1.16143 -4.49115,0.99266 -1.60894,-0.16877 -3.6566,0.30004 -4.55036,1.04179 -1.27333,1.05678 -1.93831,1.08864 -3.07263,0.14724 -2.37867,-1.97412 -19.60112,-1.89422 -22.65462,0.1051 -1.79263,1.17374 -3.83111,1.50055 -7.07748,1.13463 -2.81041,-0.31677 -4.82411,-0.086 -5.24899,0.60143 -0.85587,1.38481 -2.51373,1.37864 -4.91703,-0.0183 z m -4.65427,-119.83115 c 0,-4.20509 -6.8841,-4.98878 -9.00536,-1.02516 -0.8969,1.67587 -0.55231,1.91516 3.25106,2.25756 2.33987,0.21066 4.5918,0.46162 5.0043,0.55771 0.4125,0.0961 0.75,-0.70946 0.75,-1.79011 z m 22.72149,0.84333 c 0.69478,-0.69478 3.62454,-0.96212 7.7,-0.70261 3.61818,0.23039 6.57851,0.25269 6.57851,0.0496 0,-1.78889 -5.56006,-9.159606 -7.61621,-10.096446 -4.82669,-2.19919 -8.13706,0.70025 -9.84281,8.620986 -0.73643,3.41969 0.8366,4.47242 3.18051,2.12851 z"
       id="path3145"
       inkscape:connector-curvature="0" />
    <path
       style="fill:#b12311"
       d="m -124.83355,226.43313 c -0.67346,-0.37703 -4.35379,-0.85085 -8.17851,-1.05294 -3.82472,-0.20209 -7.93695,-0.90611 -9.13829,-1.56449 -1.20134,-0.65838 -5.08226,-1.19706 -8.62427,-1.19706 -3.54201,0 -8.40909,-0.72098 -10.81574,-1.60218 -2.40665,-0.8812 -6.03925,-1.56038 -8.07245,-1.50929 -2.0332,0.0511 -3.97226,-0.35292 -4.30902,-0.89782 -0.33676,-0.54489 -1.49184,-0.99071 -2.56685,-0.99071 -1.075,0 -2.73594,-0.38379 -3.69098,-0.85286 -7.76492,-3.8138 -9.77038,-4.60866 -10.95917,-4.34364 -0.74877,0.16692 -2.72699,-0.84558 -4.39605,-2.25 -1.66906,-1.40443 -3.96334,-2.5535 -5.0984,-2.5535 -2.36481,0 -10.78281,-3.98018 -10.78281,-5.09831 0,-0.40909 -2.025,-2.7688 -4.5,-5.2438 -2.475,-2.475 -4.5,-5.36897 -4.5,-6.43106 0,-1.06208 -1.11537,-3.46011 -2.47859,-5.32895 -3.45004,-4.72964 -4.07325,-6.29769 -6.11971,-15.39788 -1.78785,-7.95016 -4.66974,-14.97265 -10.46472,-25.5 -2.23059,-4.05217 -3.28586,-7.70816 -4.00875,-13.88833 -0.53965,-4.61359 -1.21172,-8.76135 -1.49349,-9.21727 -0.28177,-0.45591 -0.20512,-3.14462 0.17033,-5.97492 0.62961,-4.74626 1.04043,-5.37443 5.28878,-8.0869 3.40614,-2.17473 5.25746,-2.76234 7.10615,-2.25549 1.375,0.37698 4.525,0.78978 7,0.91733 2.475,0.12756 5.2875,0.56664 6.25,0.97574 2.52593,1.07362 4.75,-0.0833 4.75,-2.47089 0,-1.13493 0.66905,-3.66476 1.48677,-5.621846 1.04892,-2.51041 1.19537,-4.10283 0.4973,-5.40719 -0.56852,-1.06229 -0.61002,-2.08337 -0.0975,-2.40009 0.49055,-0.30319 1.19317,-1.792995 1.56137,-3.310692 0.3682,-1.517696 1.50438,-4.559448 2.52484,-6.759448 4.71721,-10.169734 6.02727,-13.54353 6.02727,-15.522059 0,-1.172483 1.36738,-3.499168 3.03862,-5.170411 1.67125,-1.671243 3.89532,-4.717888 4.9424,-6.770322 1.04707,-2.052434 3.05469,-4.485812 4.46137,-5.407506 1.40669,-0.921695 2.55761,-2.244134 2.55761,-2.938755 0,-2.365886 19.24719,-20.799414 23.96463,-22.951544 2.49445,-1.137987 5.21037,-2.630557 6.03537,-3.316822 2.27096,-1.889069 13.26511,-7.422581 14.74741,-7.422581 0.7164,0 3.86322,-0.9 6.99291,-2.0000002 3.1297,-1.1 6.9169,-2 8.416,-2 1.49911,0 3.00237,-0.447751 3.34059,-0.995002 0.33822,-0.547252 2.05228,-0.980619 3.80902,-0.96304 29.18779,0.292085 30.78827,0.459048 44.69407,4.6625062 9.60077,2.902128 15.34329,5.558714 19,8.789713 1.375,1.214923 4.63575,3.215042 7.24611,4.444709 2.61036,1.229667 5.6643,3.433963 6.78654,4.898436 1.12225,1.464473 3.69942,3.562678 5.72706,4.662678 2.02764,1.1 4.23683,3.106056 4.90932,4.457901 0.67248,1.351846 2.14706,2.799845 3.27683,3.217776 1.14956,0.425249 2.05414,1.655295 2.05414,2.79321 0,1.118334 1.70066,3.720335 3.77924,5.782224 4.62499,4.587856 7.22076,8.563322 7.22076,11.058718 0,1.034108 0.86612,2.664028 1.92472,3.622044 4.01906,3.637198 13.07528,27.758387 13.07528,34.825927 0,1.813446 0.67849,4.265866 1.50775,5.449796 1.29107,1.84326 2.36206,2.12163 7.45219,1.93699 3.26944,-0.1186 6.26595,-0.53715 6.65891,-0.93011 2.46719,-2.46719 10.2312,1.23352 13.12056,6.2539 4.76363,8.27699 6.79801,18.03162 3.76059,18.03162 -1.07544,0 -1.5,1.09751 -1.5,3.87756 0,2.1496 -0.6398,4.40854 -1.43572,5.06909 -0.78965,0.65535 -1.74866,2.61635 -2.13114,4.35778 -0.74431,3.38882 -2.85206,7.07128 -5.68314,9.92907 -0.9625,0.97157 -1.75,2.39336 -1.75,3.15951 0,0.76616 -0.675,1.65203 -1.5,1.96862 -0.98499,0.37797 -1.5,1.93947 -1.5,4.54797 0,2.1848 -0.45734,4.25502 -1.01631,4.60048 -0.55897,0.34546 -0.76131,1.04072 -0.44964,1.54501 0.66218,1.07143 -4.32772,10.07169 -6.23421,11.2446 -0.71491,0.43983 -1.29984,2.07558 -1.29984,3.63499 0,1.92084 -0.80632,3.36362 -2.5,4.47336 -1.68908,1.10673 -2.5,2.55342 -2.5,4.46003 0,1.55207 -0.9,3.63644 -2,4.63193 -1.1,0.99549 -2,2.5379 -2,3.42758 0,1.55808 -6.56257,5.82992 -8.18307,5.32669 -0.43522,-0.13515 -4.15126,1.32735 -8.25788,3.25 -4.10662,1.92265 -7.84738,3.49573 -8.31281,3.49573 -0.46543,0 -1.36316,0.51692 -1.99494,1.1487 -0.63179,0.63179 -2.63429,1.23764 -4.45,1.34634 -1.81572,0.10869 -5.76995,1.16677 -8.78718,2.35129 -3.01724,1.18452 -6.44978,2.15367 -7.62788,2.15367 -2.66602,0 -9.01922,2.59713 -9.92048,4.05541 -0.40875,0.66136 -2.12732,0.83967 -4.39702,0.4562 -2.75523,-0.46549 -4.06856,-0.21676 -5.04076,0.95467 -1.19761,1.44304 -1.47774,1.43667 -3.14422,-0.0715 -1.28033,-1.15868 -2.7627,-1.46901 -4.93848,-1.03386 -1.70995,0.34199 -3.89866,0.19919 -4.86381,-0.31734 -1.75369,-0.93854 -11.23166,0.69512 -14.01584,2.41584 -1.60658,0.99292 -27.73081,1.30806 -29.43309,0.35505 z m 58.73325,-71.46806 c 15.82302,-5.09609 27.92695,-12.22112 35.59247,-20.95167 7.77262,-8.85253 11.63069,-23.25615 10.78514,-40.264976 -0.82984,-16.692826 -5.7263,-27.25941 -18.4341,-39.78092 -12.98649,-12.79611 -24.82898,-18.646118 -37.8093,-18.677209 -14.70069,-0.03521 -25.79129,6.659859 -31.9009,19.25764 -3.60208,7.427338 -1.84679,6.892952 -18.12411,5.517774 -22.2709,-1.881541 -39.69037,11.846732 -47.01875,37.055445 -4.62118,15.896336 2.52798,36.145286 15.75926,44.635776 9.22416,5.91912 14.20887,7.29765 26.2845,7.269 11.97743,-0.0284 16.82335,-1.46031 20.42112,-6.03414 1.0267,-1.30523 2.19751,-2.37315 2.6018,-2.37315 0.4043,0 3.03954,2.38606 5.85608,5.30236 7.37027,7.6313 14.08709,10.69764 23.43313,10.69764 4.16468,0 9.67172,-0.72539 12.55366,-1.65357 z m -30.86579,-28.65986 c -4.29217,-2.27955 -6.56928,-4.25319 -8,-6.93387 -2.34873,-4.4007 -3.35215,-4.60343 -6.45218,-1.3036 -1.26545,1.347 -4.34905,3.147 -6.85245,4 -8.57978,2.92342 -15.99254,1.55964 -21.44537,-3.94546 -2.52687,-2.5511 -2.75,-3.40819 -2.75,-10.56328 0,-7.00325 0.27206,-8.110226 2.70331,-10.999606 3.44176,-4.0903 7.89495,-5.94075 14.29669,-5.94075 6.61309,0 11.07989,1.9537 14.62497,6.3967 1.58127,1.98178 3.39236,3.603246 4.02465,3.603266 0.63229,2e-5 1.87734,-3.262466 2.76678,-7.249966 3.14833,-14.114446 8.56577,-21.905624 16.2316,-23.343743 6.69254,-1.255528 16.01036,0.294369 22.47074,3.737712 8.6791,4.625916 13.27753,10.27159 15.39113,18.896291 4.35465,17.769566 -3.92479,30.419236 -23.15421,35.375936 -9.80741,2.52801 -16.79254,2.02157 -23.85566,-1.72963 z m -18.5,-18.65139 c 0,-4.20509 -6.8841,-4.98878 -9.00536,-1.02516 -0.8969,1.67587 -0.55231,1.91516 3.25106,2.25756 2.33987,0.21066 4.5918,0.46162 5.0043,0.55771 0.4125,0.0961 0.75,-0.70946 0.75,-1.79011 z m 22.72149,0.84333 c 0.69478,-0.69478 3.62454,-0.96212 7.7,-0.70261 3.61818,0.23039 6.57851,0.25269 6.57851,0.0496 0,-1.78889 -5.56006,-9.159606 -7.61621,-10.096446 -4.82669,-2.19919 -8.13706,0.70025 -9.84281,8.620986 -0.73643,3.41969 0.8366,4.47242 3.18051,2.12851 z"
       id="path3143"
       inkscape:connector-curvature="0" />
    <path
       style="fill:#0e0c04"
       d="m -93.02496,127.15044 c -1.06762,-0.8075 -2.61613,-1.49869 -3.44113,-1.53596 -2.24174,-0.10128 -6.54297,-4.06456 -8.40631,-7.74584 -1.97599,-3.90381 -3.47224,-4.07263 -6.59883,-0.74453 -1.29457,1.378 -4.70914,3.24793 -7.58794,4.15539 -7.12192,2.24499 -15.52466,0.68379 -19.90377,-3.69804 -2.8017,-2.80344 -2.99524,-3.47883 -2.8852,-10.06856 0.13733,-8.224396 1.82861,-11.272396 7.96987,-14.363176 4.72374,-2.37737 12.69501,-2.47043 17.08656,-0.19947 1.68548,0.8716 4.40329,3.25355 6.03957,5.29322 3.60801,4.497486 5.75952,4.082356 6.7116,-1.29499 1.3959,-7.88411 4.88773,-17.254214 7.70238,-20.668873 2.1202,-2.572174 4.43738,-3.974097 8.53981,-5.166707 5.21637,-1.51644 6.12275,-1.51598 12.33441,0.0063 14.448,3.540665 22.6835,11.233893 24.96403,23.320253 3.1766,16.835343 -4.48697,27.954223 -22.50114,32.646313 -7.57869,1.974 -17.4574,2.00593 -20.02391,0.0647 z m 14.87929,-20.65608 c -4.0525,-7.557046 -6.80048,-10.125716 -10.83259,-10.125716 -3.59415,0 -5.28608,1.83153 -6.98891,7.565586 -1.72318,5.80258 -0.79861,7.97718 2.51247,5.90937 1.07881,-0.67373 4.36414,-1.22496 7.30073,-1.22496 4.40223,0 5.75143,0.43874 7.68788,2.5 4.13025,4.39645 4.24784,2.69951 0.32042,-4.62428 z m -36.32042,1.45994 c 0,-3.24678 -3.98257,-5.67299 -7.26411,-4.42535 -2.52817,0.96121 -5.98478,4.88978 -5.28152,6.00266 0.20402,0.32287 3.11026,0.6152 6.45829,0.64964 5.69552,0.0586 6.08734,-0.0848 6.08734,-2.22695 z"
       id="path3141"
       inkscape:connector-curvature="0" />
  </g>
</svg>
