<?xml version="1.0" encoding="UTF-8" standalone="no"?>
<!-- Created with Inkscape (http://www.inkscape.org/) -->

<svg
   xmlns:dc="http://purl.org/dc/elements/1.1/"
   xmlns:cc="http://creativecommons.org/ns#"
   xmlns:rdf="http://www.w3.org/1999/02/22-rdf-syntax-ns#"
   xmlns:svg="http://www.w3.org/2000/svg"
   xmlns="http://www.w3.org/2000/svg"
   xmlns:sodipodi="http://sodipodi.sourceforge.net/DTD/sodipodi-0.dtd"
   xmlns:inkscape="http://www.inkscape.org/namespaces/inkscape"
   id="svg2"
   version="1.1"
   inkscape:version="0.48.4 r9939"
   width="180.80359"
   height="180.8"
   xml:space="preserve"
   sodipodi:docname="train.svg"><metadata
     id="metadata8"><rdf:RDF><cc:Work
         rdf:about=""><dc:format>image/svg+xml</dc:format><dc:type
           rdf:resource="http://purl.org/dc/dcmitype/StillImage" /><dc:title /></cc:Work></rdf:RDF></metadata><defs
     id="defs6" /><sodipodi:namedview
     pagecolor="#ffffff"
     bordercolor="#666666"
     borderopacity="1"
     objecttolerance="10"
     gridtolerance="10"
     guidetolerance="10"
     inkscape:pageopacity="0"
     inkscape:pageshadow="2"
     inkscape:window-width="794"
     inkscape:window-height="716"
     id="namedview4"
     showgrid="false"
     fit-margin-top="0"
     fit-margin-left="0"
     fit-margin-right="0"
     fit-margin-bottom="0"
     inkscape:zoom="2.3733646"
     inkscape:cx="87.832025"
     inkscape:cy="92.753472"
     inkscape:window-x="572"
     inkscape:window-y="24"
     inkscape:window-maximized="0"
     inkscape:current-layer="g10"
     inkscape:object-paths="true" /><g
     id="g10"
     inkscape:groupmode="layer"
     inkscape:label="ink_ext_XXXXXX"
     transform="matrix(1.25,0,0,-1.25,-191.11978,258.117)"><path
       sodipodi:type="arc"
       style="fill:#5fbcd3;fill-opacity:1;stroke:#0b2228;stroke-opacity:1"
       id="path3011"
       sodipodi:cx="65.308128"
       sodipodi:cy="33.264912"
       sodipodi:rx="23.173853"
       sodipodi:ry="21.488482"
       d="m 88.481981,33.264912 a 23.173853,21.488482 0 1 1 -0.0053,-0.461675"
       transform="matrix(3.055163,0,0,-3.2085091,25.724664,240.72373)"
       sodipodi:start="0"
       sodipodi:end="6.2616989"
       sodipodi:open="true" /><g
       id="g3057"
       transform="translate(-93.59527,75.001519)"
       style="fill:#ffffff;stroke:#0b2228;stroke-width:4.11999989;stroke-miterlimit:4;stroke-opacity:1;stroke-dasharray:none"><path
         d="m 374.91227,54.347286 c 0,-1.1406 -1.405,-2.0718 -3.121,-2.0718 l -102.873,0 c -1.717,0 -3.123,0.9312 -3.123,2.0718 l 0,5.7301 c 0,1.1402 1.406,2.0723 3.123,2.0723 l 102.873,0 c 1.716,0 3.121,-0.9321 3.121,-2.0723 l 0,-5.7301"
         style="fill:#ffffff;stroke:#0b2228;stroke-width:4.11999989;stroke-miterlimit:4;stroke-opacity:1;stroke-dasharray:none"
         id="path16-3"
         inkscape:connector-curvature="0" /><path
         d="m 302.21527,54.077386 c 0,-1.875 -1.534,-3.409 -3.408,-3.409 l -24.561,0 c -1.875,0 -3.408,1.534 -3.408,3.409 l 0,6.2699 c 0,1.8731 1.533,3.4082 3.408,3.4082 l 24.561,0 c 1.874,0 3.408,-1.5351 3.408,-3.4082 l 0,-6.2699"
         style="fill:#ffffff;stroke:#0b2228;stroke-width:4.11999989;stroke-miterlimit:4;stroke-opacity:1;stroke-dasharray:none"
         id="path20-6"
         inkscape:connector-curvature="0" /><path
         d="m 338.23227,54.077386 c 0,-1.875 1.534,-3.409 3.41,-3.409 l 24.56,0 c 1.874,0 3.406,1.534 3.406,3.409 l 0,6.2699 c 0,1.8731 -1.532,3.4082 -3.406,3.4082 l -24.56,0 c -1.876,0 -3.41,-1.5351 -3.41,-3.4082 l 0,-6.2699"
         style="fill:#ffffff;stroke:#0b2228;stroke-width:4.11999989;stroke-miterlimit:4;stroke-opacity:1;stroke-dasharray:none"
         id="path22-7"
         inkscape:connector-curvature="0" /><path
         d="m 301.04527,33.548486 c 0,-2.6918 -2.248,-4.8738 -5.024,-4.8738 l -0.837,0 c -2.773,0 -5.02,2.182 -5.02,4.8738 l 0,47.326 c 0,2.692 2.247,4.874 5.02,4.874 l 0.837,0 c 2.776,0 5.024,-2.182 5.024,-4.874 l 0,-47.326"
         style="fill:#ffffff;stroke:#0b2228;stroke-width:4.11999989;stroke-miterlimit:4;stroke-opacity:1;stroke-dasharray:none"
         id="path24-5"
         inkscape:connector-curvature="0" /><path
         d="m 290.16427,38.816486 c 0,-2.0942 -1.992,-3.7899 -4.452,-3.7899 l -0.741,0 c -2.459,0 -4.455,1.6957 -4.455,3.7899 l 0,36.7922 c 0,2.0937 1.996,3.7888 4.455,3.7888 l 0.741,0 c 2.46,0 4.452,-1.6951 4.452,-3.7888 l 0,-36.7922"
         style="fill:#ffffff;stroke:#0b2228;stroke-width:4.11999989;stroke-miterlimit:4;stroke-opacity:1;stroke-dasharray:none"
         id="path26-3"
         inkscape:connector-curvature="0" /><path
         d="m 280.51627,42.816486 c 0,-1.6399 -1.557,-2.968 -3.481,-2.968 l -0.582,0 c -1.924,0 -3.484,1.3281 -3.484,2.968 l 0,28.7922 c 0,1.6386 1.56,2.9679 3.484,2.9679 l 0.582,0 c 1.924,0 3.481,-1.3293 3.481,-2.9679 l 0,-28.7922"
         style="fill:#ffffff;stroke:#0b2228;stroke-width:4.11999989;stroke-miterlimit:4;stroke-opacity:1;stroke-dasharray:none"
         id="path28-5"
         inkscape:connector-curvature="0" /><path
         d="m 339.45927,33.548486 c 0,-2.6918 2.246,-4.8738 5.019,-4.8738 l 0.837,0 c 2.775,0 5.023,2.182 5.023,4.8738 l 0,47.326 c 0,2.692 -2.248,4.874 -5.023,4.874 l -0.837,0 c -2.773,0 -5.019,-2.182 -5.019,-4.874 l 0,-47.326"
         style="fill:#ffffff;stroke:#0b2228;stroke-width:4.11999989;stroke-miterlimit:4;stroke-opacity:1;stroke-dasharray:none"
         id="path30-6"
         inkscape:connector-curvature="0" /><path
         d="m 350.33827,38.816486 c 0,-2.0942 1.993,-3.7899 4.453,-3.7899 l 0.74,0 c 2.46,0 4.453,1.6957 4.453,3.7899 l 0,36.7922 c 0,2.0937 -1.993,3.7888 -4.453,3.7888 l -0.74,0 c -2.46,0 -4.453,-1.6951 -4.453,-3.7888 l 0,-36.7922"
         style="fill:#ffffff;stroke:#0b2228;stroke-width:4.11999989;stroke-miterlimit:4;stroke-opacity:1;stroke-dasharray:none"
         id="path32-2"
         inkscape:connector-curvature="0" /><path
         d="m 359.98427,42.816486 c 0,-1.6399 1.561,-2.968 3.483,-2.968 l 0.582,0 c 1.924,0 3.485,1.3281 3.485,2.968 l 0,28.7922 c 0,1.6386 -1.561,2.9679 -3.485,2.9679 l -0.582,0 c -1.922,0 -3.483,-1.3293 -3.483,-2.9679 l 0,-28.7922"
         style="fill:#ffffff;stroke:#0b2228;stroke-width:4.11999989;stroke-miterlimit:4;stroke-opacity:1;stroke-dasharray:none"
         id="path34-9"
         inkscape:connector-curvature="0" /><path
         d="m 295.18427,28.674686 c -2.773,0 -5.02,2.182 -5.02,4.8738 l 0,47.326 c 0,2.692 2.247,4.874 5.02,4.874 l 0,-57.0738"
         style="fill:#ffffff;stroke:#0b2228;stroke-width:4.11999989;stroke-miterlimit:4;stroke-opacity:1;stroke-dasharray:none"
         id="path36-1"
         inkscape:connector-curvature="0" /><path
         d="m 284.97127,35.026586 c -2.459,0 -4.455,1.6957 -4.455,3.7899 l 0,36.7922 c 0,2.0937 1.996,3.7888 4.455,3.7888 l 0,-44.3709"
         style="fill:#ffffff;stroke:#0b2228;stroke-width:4.11999989;stroke-miterlimit:4;stroke-opacity:1;stroke-dasharray:none"
         id="path38-2"
         inkscape:connector-curvature="0" /><path
         d="m 276.45327,39.848486 c -1.924,0 -3.484,1.3281 -3.484,2.968 l 0,28.7922 c 0,1.6386 1.56,2.9679 3.484,2.9679 l 0,-34.7281"
         style="fill:#ffffff;stroke:#0b2228;stroke-width:4.11999989;stroke-miterlimit:4;stroke-opacity:1;stroke-dasharray:none"
         id="path40-7"
         inkscape:connector-curvature="0" /><path
         d="m 339.45927,33.548486 c 0,-2.6918 2.246,-4.8738 5.019,-4.8738 l 0,57.0738 c -2.773,0 -5.019,-2.182 -5.019,-4.874 l 0,-47.326"
         style="fill:#ffffff;stroke:#0b2228;stroke-width:4.11999989;stroke-miterlimit:4;stroke-opacity:1;stroke-dasharray:none"
         id="path42-0"
         inkscape:connector-curvature="0" /><path
         d="m 350.33827,38.816486 c 0,-2.0942 1.993,-3.7899 4.453,-3.7899 l 0,44.3709 c -2.46,0 -4.453,-1.6951 -4.453,-3.7888 l 0,-36.7922"
         style="fill:#ffffff;stroke:#0b2228;stroke-width:4.11999989;stroke-miterlimit:4;stroke-opacity:1;stroke-dasharray:none"
         id="path44-9"
         inkscape:connector-curvature="0" /><path
         d="m 359.98427,42.816486 c 0,-1.6399 1.561,-2.968 3.483,-2.968 l 0,34.7281 c -1.922,0 -3.483,-1.3293 -3.483,-2.9679 l 0,-28.7922"
         style="fill:#ffffff;stroke:#0b2228;stroke-width:4.11999989;stroke-miterlimit:4;stroke-opacity:1;stroke-dasharray:none"
         id="path46-3"
         inkscape:connector-curvature="0" /></g><path
       inkscape:connector-curvature="0"
       id="path16"
       style="fill:#ffffff;fill-opacity:1;fill-rule:nonzero;stroke:#0b2228;stroke-opacity:1"
       d="m 281.457,129.2488 c 0,-1.1406 -1.405,-2.0718 -3.121,-2.0718 l -102.873,0 c -1.717,0 -3.123,0.9312 -3.123,2.0718 l 0,5.7301 c 0,1.1402 1.406,2.0723 3.123,2.0723 l 102.873,0 c 1.716,0 3.121,-0.9321 3.121,-2.0723 l 0,-5.7301" /><path
       inkscape:connector-curvature="0"
       id="path24"
       style="fill:#ffffff;fill-opacity:1;fill-rule:nonzero;stroke:#0b2228;stroke-opacity:1"
       d="m 207.59,108.45 c 0,-2.6918 -2.248,-4.8738 -5.024,-4.8738 l -0.837,0 c -2.773,0 -5.02,2.182 -5.02,4.8738 l 0,47.326 c 0,2.692 2.247,4.874 5.02,4.874 l 0.837,0 c 2.776,0 5.024,-2.182 5.024,-4.874 l 0,-47.326" /><path
       inkscape:connector-curvature="0"
       id="path26"
       style="fill:#ffffff;fill-opacity:1;fill-rule:nonzero;stroke:#0b2228;stroke-opacity:1"
       d="m 196.709,113.718 c 0,-2.0942 -1.992,-3.7899 -4.452,-3.7899 l -0.741,0 c -2.459,0 -4.455,1.6957 -4.455,3.7899 l 0,36.7922 c 0,2.0937 1.996,3.7888 4.455,3.7888 l 0.741,0 c 2.46,0 4.452,-1.6951 4.452,-3.7888 l 0,-36.7922" /><path
       inkscape:connector-curvature="0"
       id="path28"
       style="fill:#ffffff;fill-opacity:1;fill-rule:nonzero;stroke:#0b2228;stroke-opacity:1"
       d="m 187.061,117.718 c 0,-1.6399 -1.557,-2.968 -3.481,-2.968 l -0.582,0 c -1.924,0 -3.484,1.3281 -3.484,2.968 l 0,28.7922 c 0,1.6386 1.56,2.9679 3.484,2.9679 l 0.582,0 c 1.924,0 3.481,-1.3293 3.481,-2.9679 l 0,-28.7922" /><path
       inkscape:connector-curvature="0"
       id="path30"
       style="fill:#ffffff;fill-opacity:1;fill-rule:nonzero;stroke:#0b2228;stroke-opacity:1"
       d="m 246.004,108.45 c 0,-2.6918 2.246,-4.8738 5.019,-4.8738 l 0.837,0 c 2.775,0 5.023,2.182 5.023,4.8738 l 0,47.326 c 0,2.692 -2.248,4.874 -5.023,4.874 l -0.837,0 c -2.773,0 -5.019,-2.182 -5.019,-4.874 l 0,-47.326" /><path
       inkscape:connector-curvature="0"
       id="path32"
       style="fill:#ffffff;fill-opacity:1;fill-rule:nonzero;stroke:#0b2228;stroke-opacity:1"
       d="m 256.883,113.718 c 0,-2.0942 1.993,-3.7899 4.453,-3.7899 l 0.74,0 c 2.46,0 4.453,1.6957 4.453,3.7899 l 0,36.7922 c 0,2.0937 -1.993,3.7888 -4.453,3.7888 l -0.74,0 c -2.46,0 -4.453,-1.6951 -4.453,-3.7888 l 0,-36.7922" /><path
       inkscape:connector-curvature="0"
       id="path34"
       style="fill:#ffffff;fill-opacity:1;fill-rule:nonzero;stroke:#0b2228;stroke-opacity:1"
       d="m 266.529,117.718 c 0,-1.6399 1.561,-2.968 3.483,-2.968 l 0.582,0 c 1.924,0 3.485,1.3281 3.485,2.968 l 0,28.7922 c 0,1.6386 -1.561,2.9679 -3.485,2.9679 l -0.582,0 c -1.922,0 -3.483,-1.3293 -3.483,-2.9679 l 0,-28.7922" /><path
       inkscape:connector-curvature="0"
       id="path36"
       style="fill:none;fill-opacity:1;fill-rule:nonzero;stroke:none;stroke-opacity:1"
       d="m 201.729,103.5762 c -2.773,0 -5.02,2.182 -5.02,4.8738 l 0,47.326 c 0,2.692 2.247,4.874 5.02,4.874 l 0,-57.0738" /><path
       inkscape:connector-curvature="0"
       id="path38"
       style="fill:none;fill-opacity:1;fill-rule:nonzero;stroke:none;stroke-opacity:1"
       d="m 191.516,109.9281 c -2.459,0 -4.455,1.6957 -4.455,3.7899 l 0,36.7922 c 0,2.0937 1.996,3.7888 4.455,3.7888 l 0,-44.3709" /><path
       inkscape:connector-curvature="0"
       id="path40"
       style="fill:none;fill-opacity:1;fill-rule:nonzero;stroke:none;stroke-opacity:1"
       d="m 182.998,114.75 c -1.924,0 -3.484,1.3281 -3.484,2.968 l 0,28.7922 c 0,1.6386 1.56,2.9679 3.484,2.9679 l 0,-34.7281" /><path
       inkscape:connector-curvature="0"
       id="path42"
       style="fill:none;fill-opacity:1;fill-rule:nonzero;stroke:none;stroke-opacity:1"
       d="m 246.004,108.45 c 0,-2.6918 2.246,-4.8738 5.019,-4.8738 l 0,57.0738 c -2.773,0 -5.019,-2.182 -5.019,-4.874 l 0,-47.326" /><path
       inkscape:connector-curvature="0"
       id="path44"
       style="fill:none;fill-opacity:1;fill-rule:nonzero;stroke:none;stroke-opacity:1"
       d="m 256.883,113.718 c 0,-2.0942 1.993,-3.7899 4.453,-3.7899 l 0,44.3709 c -2.46,0 -4.453,-1.6951 -4.453,-3.7888 l 0,-36.7922" /><path
       inkscape:connector-curvature="0"
       id="path46"
       style="fill:none;fill-opacity:1;fill-rule:nonzero;stroke:none;stroke-opacity:1"
       d="m 266.529,117.718 c 0,-1.6399 1.561,-2.968 3.483,-2.968 l 0,34.7281 c -1.922,0 -3.483,-1.3293 -3.483,-2.9679 l 0,-28.7922" /></g></svg>