<?xml version="1.0" encoding="UTF-8" standalone="no"?>
<!-- Created with Inkscape (http://www.inkscape.org/) -->

<svg
   xmlns:dc="http://purl.org/dc/elements/1.1/"
   xmlns:cc="http://creativecommons.org/ns#"
   xmlns:rdf="http://www.w3.org/1999/02/22-rdf-syntax-ns#"
   xmlns:svg="http://www.w3.org/2000/svg"
   xmlns="http://www.w3.org/2000/svg"
   xmlns:sodipodi="http://sodipodi.sourceforge.net/DTD/sodipodi-0.dtd"
   xmlns:inkscape="http://www.inkscape.org/namespaces/inkscape"
   width="110.86275"
   height="110.86"
   id="svg2"
   version="1.1"
   inkscape:version="0.48.4 r9939"
   sodipodi:docname="New document 1">
  <defs
     id="defs4" />
  <sodipodi:namedview
     id="base"
     pagecolor="#e4e5e2"
     bordercolor="#666666"
     borderopacity="1.0"
     inkscape:pageopacity="0.57647059"
     inkscape:pageshadow="2"
     inkscape:zoom="1.979899"
     inkscape:cx="77.956291"
     inkscape:cy="34.329487"
     inkscape:document-units="px"
     inkscape:current-layer="layer1"
     showgrid="false"
     fit-margin-top="0"
     fit-margin-left="0"
     fit-margin-right="0"
     fit-margin-bottom="0"
     inkscape:window-width="1301"
     inkscape:window-height="744"
     inkscape:window-x="65"
     inkscape:window-y="24"
     inkscape:window-maximized="1" />
  <metadata
     id="metadata7">
    <rdf:RDF>
      <cc:Work
         rdf:about="">
        <dc:format>image/svg+xml</dc:format>
        <dc:type
           rdf:resource="http://purl.org/dc/dcmitype/StillImage" />
        <dc:title></dc:title>
      </cc:Work>
    </rdf:RDF>
  </metadata>
  <g
     inkscape:label="Layer 1"
     inkscape:groupmode="layer"
     id="layer1"
     transform="translate(242.64113,-435.58077)">
    <path
       style="fill:#ffffff;fill-opacity:1;stroke:#ffffff;stroke-width:2.29999995;stroke-linecap:square;stroke-linejoin:miter;stroke-miterlimit:4;stroke-opacity:1;stroke-dasharray:none"
       d="m -201.14957,461.93038 c -1.67176,-0.086 -3.30262,-0.0749 -4.9375,0.0312 -1.63488,0.10611 -3.26435,0.30386 -4.84375,0.59375 -1.5794,0.28989 -3.11969,0.69091 -4.625,1.15625 -1.50531,0.46534 -2.96239,0.99254 -4.375,1.625 -1.41261,0.63246 -2.79243,1.36499 -4.09375,2.15625 -1.30132,0.79125 -2.54734,1.65203 -3.71875,2.59375 -1.17141,0.94172 -2.25834,1.9474 -3.28125,3.03125 -1.02291,1.08385 -1.9567,2.2511 -2.8125,3.46875 -1.17926,1.67788 -1.95772,3.05776 -2.46875,4.65625 -0.51103,1.59849 -0.77761,3.42661 -0.9375,5.9375 -0.11405,1.79113 -0.0655,3.58102 0.0625,5.09375 0.12801,1.51273 0.34076,2.72298 0.65625,3.3125 0.4604,0.86027 0.64678,1.46582 0.5,2.0625 -0.14678,0.59668 -0.6282,1.18779 -1.5,2 -0.58187,0.5421 -1.01834,1.16632 -1.28125,1.71875 -0.26291,0.55243 -0.33923,1.04769 -0.15625,1.34375 0.14509,0.23475 0.45291,0.40717 0.90625,0.5625 0.45334,0.15533 1.03835,0.29609 1.75,0.375 1.42331,0.15782 3.31178,0.16108 5.46875,0.0312 2.15697,-0.12983 4.60259,-0.38782 7.09375,-0.78125 2.49116,-0.39344 5.04288,-0.92951 7.46875,-1.5625 3.88038,-1.01253 7.75234,-2.21987 11.5,-3.5625 3.74766,-1.34264 7.37905,-2.81516 10.75,-4.375 3.37095,-1.55984 6.46849,-3.21085 9.21875,-4.875 2.75026,-1.66415 5.14567,-3.34444 7.03125,-5 1.03258,-0.90662 1.83191,-1.76343 2.375,-2.5625 0.54309,-0.79907 0.82306,-1.54869 0.875,-2.21875 0.0519,-0.67006 -0.15287,-1.26169 -0.59375,-1.78125 -0.44088,-0.51956 -1.12714,-0.96491 -2.0625,-1.3125 -0.75625,-0.28103 -1.77031,-0.9795 -2.8125,-1.90625 -1.04219,-0.92675 -2.1125,-2.06243 -2.9375,-3.1875 -1.04082,-1.4194 -2.12957,-2.65008 -3.34375,-3.6875 -1.21418,-1.03742 -2.53416,-1.90133 -4,-2.59375 -1.46584,-0.69242 -3.07921,-1.20935 -4.875,-1.59375 -1.79579,-0.3844 -3.79596,-0.63663 -6,-0.75 z"
       id="path3868"
       inkscape:connector-curvature="0" />
    <path
       style="fill:#ffffff;fill-opacity:1;stroke:#ffffff;stroke-width:2.29999995;stroke-linecap:square;stroke-linejoin:miter;stroke-miterlimit:4;stroke-opacity:1;stroke-dasharray:none"
       d="m -147.86607,452.94702 c -0.21315,-0.002 -0.41779,0.0153 -0.625,0.0312 -0.82883,0.0639 -1.59018,0.28227 -2.34375,0.625 -0.75357,0.34273 -1.49433,0.80228 -2.1875,1.4375 -0.69317,0.63522 -1.35234,1.43366 -2,2.375 -0.64766,0.94134 -1.28924,2.05141 -1.90625,3.3125 -1.23402,2.52217 -2.39307,5.67956 -3.59375,9.5625 -0.51906,1.67861 -0.99478,3.04568 -1.46875,4.21875 -0.47397,1.17307 -0.97183,2.15703 -1.59375,3.125 -0.62192,0.96797 -1.34961,1.90545 -2.3125,2.96875 -0.96289,1.0633 -2.15935,2.25967 -3.65625,3.71875 -1.7403,1.69633 -3.67347,3.35361 -5.78125,4.96875 -2.10778,1.61514 -4.37654,3.18368 -6.78125,4.6875 -2.40471,1.50382 -4.9314,2.95015 -7.5625,4.3125 -2.6311,1.36235 -5.36931,2.65301 -8.15625,3.84375 -2.78694,1.19074 -5.62776,2.26101 -8.5,3.25 -2.87224,0.98899 -5.76926,1.8679 -8.65625,2.625 -2.88699,0.7571 -5.76255,1.41118 -8.59375,1.90625 -2.8312,0.49507 -5.63889,0.8596 -8.34375,1.0625 -2.59628,0.19475 -4.6306,0.37354 -6.15625,0.59375 -1.52565,0.22021 -2.53013,0.47944 -3.03125,0.75 -0.25056,0.13528 -0.37193,0.25371 -0.375,0.40625 -0.003,0.15254 0.10509,0.3271 0.34375,0.5 0.47732,0.3458 1.43409,0.74156 2.84375,1.1875 1.82256,0.57655 2.93822,1.04537 3.625,1.65625 0.34339,0.30544 0.58134,0.65133 0.75,1.0625 0.16865,0.41117 0.27701,0.88708 0.34375,1.46875 0.0894,0.77906 -0.0593,1.86238 -0.375,3 -0.31565,1.13762 -0.79819,2.33487 -1.375,3.3125 -1.13903,1.93052 -2.09375,3.69394 -2.09375,3.9375 0,0.24356 1.98248,0.4375 4.40625,0.4375 1.01122,0 1.83905,-0.0182 2.53125,-0.125 0.6922,-0.10684 1.27124,-0.29719 1.84375,-0.625 0.57251,-0.32781 1.12908,-0.80583 1.78125,-1.46875 0.65217,-0.66292 1.38135,-1.51284 2.3125,-2.625 l 4.0625,-4.84375 4.78125,0.78125 c 1.89707,0.31208 3.97631,0.52939 6.15625,0.65625 2.17994,0.12686 4.47563,0.17889 6.75,0.125 2.27437,-0.0539 4.53841,-0.20732 6.71875,-0.4375 2.18034,-0.23018 4.25839,-0.5355 6.15625,-0.9375 2.2235,-0.47098 3.87335,-0.84117 5.09375,-1.0625 1.2204,-0.22133 2.02068,-0.29345 2.59375,-0.21875 0.57307,0.0747 0.90598,0.30166 1.1875,0.71875 0.28152,0.41709 0.52927,1.00663 0.875,1.8125 0.75786,1.76648 1.40305,3.1766 2.0625,4.28125 0.65945,1.10465 1.31547,1.91037 2.0625,2.5 0.74703,0.58963 1.57313,0.96609 2.59375,1.1875 1.02062,0.22141 2.23855,0.28125 3.71875,0.28125 2.286,0 3.64838,-0.0556 4.375,-0.28125 0.36331,-0.11284 0.57229,-0.26518 0.65625,-0.46875 0.084,-0.20357 0.028,-0.46406 -0.0937,-0.78125 -0.90108,-2.34817 -1.64023,-4.64137 -2.21875,-6.875 -0.57852,-2.23363 -0.996,-4.40262 -1.25,-6.53125 -0.254,-2.12863 -0.32249,-4.21682 -0.25,-6.25 0.0725,-2.03319 0.28655,-4.02147 0.6875,-5.96875 0.40095,-1.94728 0.98738,-3.84782 1.71875,-5.71875 0.73137,-1.87093 1.62375,-3.69588 2.6875,-5.5 1.06375,-1.80412 2.28939,-3.59689 3.6875,-5.34375 1.39811,-1.74686 2.95308,-3.4571 4.6875,-5.15625 l 4.46875,-4.375 2.71875,2.125 c 1.0042,0.7899 2.04697,1.34584 3.0625,1.71875 1.01553,0.37291 2.02503,0.56317 3,0.5625 0.97497,-6.7e-4 1.89873,-0.16917 2.78125,-0.5 0.88252,-0.33083 1.69934,-0.81993 2.4375,-1.4375 0.73816,-0.61757 1.39559,-1.38911 1.9375,-2.25 0.54191,-0.86089 0.98748,-1.81421 1.28125,-2.875 0.29377,-1.06079 0.44378,-2.22023 0.4375,-3.4375 -0.006,-1.21727 -0.17303,-2.48216 -0.53125,-3.8125 -0.40752,-1.51341 -0.91714,-2.89103 -1.5,-4.125 -0.58286,-1.23397 -1.25369,-2.33359 -2.03125,-3.3125 -0.77756,-0.97891 -1.63338,-1.84554 -2.625,-2.59375 -0.99162,-0.74821 -2.11871,-1.39561 -3.34375,-1.9375 -1.02398,-0.45295 -1.98728,-0.7674 -2.90625,-0.96875 -0.68923,-0.15101 -1.36055,-0.24465 -2,-0.25 z m 3.375,6.3125 c 0.38132,0 0.91265,0.23448 1.4375,0.625 0.52485,0.39052 1.05374,0.93873 1.46875,1.53125 0.49011,0.69972 0.76185,1.41455 0.84375,2.09375 0.0819,0.6792 -0.0372,1.31926 -0.3125,1.875 -0.27531,0.55574 -0.69973,1.04566 -1.28125,1.375 -0.58152,0.32934 -1.31951,0.5 -2.15625,0.5 -0.66916,0 -1.38098,-0.19697 -2,-0.53125 -0.61902,-0.33429 -1.13424,-0.80425 -1.40625,-1.3125 -0.28439,-0.53139 -0.36722,-1.16712 -0.28125,-1.84375 0.086,-0.67663 0.3341,-1.39477 0.6875,-2.03125 0.3534,-0.63648 0.82587,-1.21406 1.34375,-1.625 0.51788,-0.41094 1.07682,-0.65625 1.65625,-0.65625 z"
       id="path3860"
       inkscape:connector-curvature="0" />
  </g>
</svg>
