<?xml version="1.0" encoding="UTF-8" standalone="no"?>
<!-- Created with Inkscape (http://www.inkscape.org/) -->

<svg
   xmlns:dc="http://purl.org/dc/elements/1.1/"
   xmlns:cc="http://creativecommons.org/ns#"
   xmlns:rdf="http://www.w3.org/1999/02/22-rdf-syntax-ns#"
   xmlns:svg="http://www.w3.org/2000/svg"
   xmlns="http://www.w3.org/2000/svg"
   xmlns:sodipodi="http://sodipodi.sourceforge.net/DTD/sodipodi-0.dtd"
   xmlns:inkscape="http://www.inkscape.org/namespaces/inkscape"
   id="svg3039"
   version="1.1"
   inkscape:version="0.48.4 r9939"
   width="352"
   height="400"
   sodipodi:docname="control_sametime.svg">
  <metadata
     id="metadata3045">
    <rdf:RDF>
      <cc:Work
         rdf:about="">
        <dc:format>image/svg+xml</dc:format>
        <dc:type
           rdf:resource="http://purl.org/dc/dcmitype/StillImage" />
        <dc:title />
      </cc:Work>
    </rdf:RDF>
  </metadata>
  <defs
     id="defs3043" />
  <sodipodi:namedview
     pagecolor="#ffffff"
     bordercolor="#666666"
     borderopacity="1"
     objecttolerance="10"
     gridtolerance="10"
     guidetolerance="10"
     inkscape:pageopacity="0"
     inkscape:pageshadow="2"
     inkscape:window-width="880"
     inkscape:window-height="898"
     id="namedview3041"
     showgrid="false"
     inkscape:zoom="1.4090909"
     inkscape:cx="176"
     inkscape:cy="200"
     inkscape:window-x="920"
     inkscape:window-y="421"
     inkscape:window-maximized="0"
     inkscape:current-layer="svg3039" />
  <path
     inkscape:connector-curvature="0"
     id="path3053"
     d="m 254.87097,376.27701 c 0,-15.71247 -0.31463,-21.19544 -1.25,-21.78334 -0.6875,-0.4321 -6.22336,-0.86473 -12.30191,-0.96138 -38.23665,-0.60799 -72.44645,-19.01881 -93.14892,-50.1303 -11.01819,-16.55805 -16.55696,-32.82111 -18.64762,-54.75359 -0.68224,-7.15708 -1.58449,-13.56958 -2.00501,-14.25 -0.59461,-0.96211 -15.08947,-1.23711 -65.205559,-1.23711 l -64.4409833,0 0,-35.99271 0,-35.9927 64.7260093,-0.2573 64.726013,-0.25729 0.70434,-2.5 c 0.38738,-1.375 1.17665,-7.93101 1.75393,-14.56892 2.96474,-34.09048 21.24556,-65.10317 49.42824,-83.853052 19.84097,-13.20015 37.52174,-18.196864 70.16147,-19.828133 l 5,-0.24989 0.5,-21.306075 0.5,-21.306076 47.31202,39.727385 47.31203,39.727385 -3.31203,3.236658 c -6.89686,6.739929 -89.32948,75.420718 -90.52207,75.420718 -0.95034,0 -1.31407,-4.96642 -1.51966,-20.75 l -0.27029,-20.75 -6.77404,-0.29624 c -19.3382,-0.84568 -34.4984,7.6502 -42.03283,23.55549 l -3.19313,6.74075 0,53.5 0,53.5 3.20928,6.77526 c 7.49321,15.81926 22.75582,24.36328 42.01668,23.52098 l 6.77404,-0.29624 0.27029,-20.75 c 0.20617,-15.82788 0.56783,-20.75 1.52462,-20.75 1.19417,0 83.62175,68.67074 90.47803,75.3776 l 3.27294,3.20161 -45.69408,38.4604 c -25.13175,21.15321 -46.51707,39.04841 -47.52294,39.76709 -1.75523,1.2541 -1.82886,0.46139 -1.82886,-19.69098 z"
     style="fill:#ffffff" />
  <path
     inkscape:connector-curvature="0"
     id="path3051"
     d="m 254.87097,376.27701 c 0,-15.71247 -0.31463,-21.19544 -1.25,-21.78334 -0.6875,-0.4321 -6.22336,-0.86473 -12.30191,-0.96138 -38.23665,-0.60799 -72.44645,-19.01881 -93.14892,-50.1303 -11.01819,-16.55805 -16.55696,-32.82111 -18.64762,-54.75359 -0.68224,-7.15708 -1.58449,-13.56958 -2.00501,-14.25 -0.59461,-0.96211 -15.08947,-1.23711 -65.205559,-1.23711 l -64.4409833,0 0,-35.99271 0,-35.9927 64.7260093,-0.2573 64.726013,-0.25729 0.70434,-2.5 c 0.38738,-1.375 1.17665,-7.93101 1.75393,-14.56892 2.96474,-34.09048 21.24556,-65.10317 49.42824,-83.853052 19.84097,-13.20015 37.52174,-18.196864 70.16147,-19.828133 l 5,-0.24989 0.5,-21.306075 0.5,-21.306076 47.31202,39.727385 47.31203,39.727385 -3.31203,3.236658 c -6.89686,6.739929 -89.32948,75.420718 -90.52207,75.420718 -0.95034,0 -1.31407,-4.96642 -1.51966,-20.75 l -0.27029,-20.75 -6.77404,-0.29624 c -19.3382,-0.84568 -34.4984,7.6502 -42.03283,23.55549 l -3.19313,6.74075 0,53.5 0,53.5 3.20928,6.77526 c 7.49321,15.81926 22.75582,24.36328 42.01668,23.52098 l 6.77404,-0.29624 0.27029,-20.75 c 0.20617,-15.82788 0.56783,-20.75 1.52462,-20.75 1.19417,0 83.62175,68.67074 90.47803,75.3776 l 3.27294,3.20161 -45.69408,38.4604 c -25.13175,21.15321 -46.51707,39.04841 -47.52294,39.76709 -1.75523,1.2541 -1.82886,0.46139 -1.82886,-19.69098 z m 47.30593,-23.19158 c 22.93174,-19.29172 41.69309,-35.37922 41.6919,-35.75 -0.002,-0.71832 -82.58517,-70.44371 -84.10136,-71.00747 -0.50736,-0.18865 -0.89647,7.32728 -0.89647,17.31574 0,10.25361 -0.43377,18.45958 -1.03518,19.58333 -0.86754,1.62101 -2.12264,1.93105 -7.75,1.91445 -17.89854,-0.0528 -29.60287,-4.16216 -39.02564,-13.7018 -6.22262,-6.2998 -10.33384,-13.81774 -12.07324,-22.07761 -1.53087,-7.26959 -1.53203,-97.12406 -0.001,-104.40156 2.79175,-13.27316 11.36686,-24.46282 23.22736,-30.30936 8.0175,-3.95217 15.48218,-5.47552 26.87287,-5.48407 6.60743,-0.005 7.8634,0.27185 8.75,1.92847 0.60088,1.12275 1.03518,9.30383 1.03518,19.5 0,9.66116 0.22898,17.56574 0.50884,17.56574 0.73122,0 83.93225,-70.097787 84.28717,-71.012877 0.32504,-0.838927 -82.66146,-70.9871182 -83.97932,-70.9871182 -0.44937,0 -0.81704,7.8381962 -0.81704,17.4182132 0,9.580016 -0.27314,18.130016 -0.60699,19 -0.49843,1.298893 -2.4257,1.581787 -10.77623,1.581787 -21.38035,0 -35.9786,3.15292 -53.11678,11.472125 -20.26882,9.838881 -35.63302,24.079358 -46.93141,43.498915 -8.46744,14.553725 -13.03314,30.412545 -14.57633,50.630365 -0.53659,7.03008 -1.45167,13.2582 -2.03351,13.84027 -0.71152,0.71182 -22.07778,1.22203 -65.258316,1.55832 l -64.2004363,0.5 0,31.5 0,31.5 64.1336203,0.25731 c 52.663412,0.21129 64.335782,0.50089 65.263952,1.61926 0.62168,0.74908 1.57627,7.22185 2.12131,14.38392 1.22771,16.13253 4.52619,29.43673 10.34218,41.7144 6.10113,12.87962 10.67403,19.52177 20.44478,29.69615 21.80915,22.71006 49.49899,33.81597 84.33717,33.82614 7.86893,0.002 9.75468,0.29383 10.25,1.58461 0.33385,0.86998 0.60699,9.41998 0.60699,19 0,9.58001 0.36267,17.41821 0.80593,17.41821 0.44326,0 19.56826,-15.78414 42.5,-35.07586 z"
     style="fill:#d45500" />
</svg>
