<?xml version="1.0" encoding="UTF-8" standalone="no"?>
<!-- Created with Inkscape (http://www.inkscape.org/) -->

<svg
   xmlns:dc="http://purl.org/dc/elements/1.1/"
   xmlns:cc="http://creativecommons.org/ns#"
   xmlns:rdf="http://www.w3.org/1999/02/22-rdf-syntax-ns#"
   xmlns:svg="http://www.w3.org/2000/svg"
   xmlns="http://www.w3.org/2000/svg"
   xmlns:sodipodi="http://sodipodi.sourceforge.net/DTD/sodipodi-0.dtd"
   xmlns:inkscape="http://www.inkscape.org/namespaces/inkscape"
   id="svg4908"
   version="1.1"
   inkscape:version="0.48.4 r9939"
   width="161"
   height="159"
   sodipodi:docname="dice-4.png">
  <metadata
     id="metadata4914">
    <rdf:RDF>
      <cc:Work
         rdf:about="">
        <dc:format>image/svg+xml</dc:format>
        <dc:type
           rdf:resource="http://purl.org/dc/dcmitype/StillImage" />
        <dc:title></dc:title>
      </cc:Work>
    </rdf:RDF>
  </metadata>
  <defs
     id="defs4912" />
  <sodipodi:namedview
     pagecolor="#ffffff"
     bordercolor="#666666"
     borderopacity="1"
     objecttolerance="10"
     gridtolerance="10"
     guidetolerance="10"
     inkscape:pageopacity="0"
     inkscape:pageshadow="2"
     inkscape:window-width="640"
     inkscape:window-height="480"
     id="namedview4910"
     showgrid="false"
     inkscape:zoom="1.4842767"
     inkscape:cx="80.5"
     inkscape:cy="79.5"
     inkscape:window-x="221"
     inkscape:window-y="155"
     inkscape:window-maximized="0"
     inkscape:current-layer="svg4908" />
  <path
     inkscape:connector-curvature="0"
     id="path4922"
     d="m 43.455372,155.44706 c -18.8646,-4.5734 -34.5091407,-20.43199 -39.0091272,-39.54285 -1.7774505,-7.5486 -1.7774505,-66.259822 0,-73.808423 C 9.0027033,22.745103 24.652152,7.0468795 43.91346,2.5055685 c 9.099007,-2.1453071 65.53055,-2.1194487 74.6672,0.034214 18.25048,4.3019436 32.87647,18.5140541 38.48063,37.3917171 2.38183,8.023187 2.38183,70.11381 0,78.137 -5.60416,18.87766 -20.23015,33.08977 -38.48063,37.39172 -8.80769,2.07612 -66.549038,2.066 -75.125288,-0.0132 z"
     style="fill:#ffffff" />
  <path
     inkscape:connector-curvature="0"
     id="path4920"
     d="m 43.455372,155.44706 c -18.8646,-4.5734 -34.5091407,-20.43199 -39.0091272,-39.54285 -1.7774505,-7.5486 -1.7774505,-66.259822 0,-73.808423 C 9.0027033,22.745103 24.652152,7.0468795 43.91346,2.5055685 c 9.099007,-2.1453071 65.53055,-2.1194487 74.6672,0.034214 18.25048,4.3019436 32.87647,18.5140541 38.48063,37.3917171 2.38183,8.023187 2.38183,70.11381 0,78.137 -5.60416,18.87766 -20.23015,33.08977 -38.48063,37.39172 -8.80769,2.07612 -66.549038,2.066 -75.125288,-0.0132 z m 74.125288,-2.98684 c 17.66771,-4.16458 31.17174,-17.2594 36.49769,-35.39172 2.3489,-7.99687 2.3489,-68.140129 0,-76.137 C 148.7524,22.799181 135.24837,9.7043575 117.58066,5.5397829 c -9.22339,-2.1741075 -63.590475,-2.1741075 -72.813864,0 C 26.757437,9.7848905 11.780097,24.540628 7.7590183,42 c -1.3705381,5.950823 -1.3705381,68.04918 0,74 3.9664527,17.22219 18.9546527,32.15493 36.5487857,36.41354 8.707585,2.10765 64.378976,2.14311 73.272856,0.0467 z M 35.714536,126.38088 c -4.445871,-3.74095 -6.36294,-7.94254 -5.740694,-12.58173 1.368691,-10.20435 11.140626,-15.531031 20.416817,-11.12919 9.306913,4.41642 9.893571,18.93836 0.98452,24.37052 -4.800153,2.92683 -11.746096,2.63428 -15.660643,-0.6596 z M 107.70546,125.25 c -4.87916,-4.90141 -5.83798,-9.63892 -3.17102,-15.66801 2.32768,-5.26212 5.6372,-7.65836 11.488,-8.31783 13.8871,-1.56527 20.75388,15.2925 10.05544,24.68586 -2.98511,2.62096 -4.25905,3.04998 -9.05659,3.04998 -5.12099,0 -5.89168,-0.31023 -9.31583,-3.75 z M 36.978062,54.044002 C 30.170312,49.893053 27.907422,41.915027 31.649355,35.257154 34.413036,30.339848 38.275081,28 43.62768,28 c 8.383454,0 14.038572,5.63958 14.038572,14 0,5.646262 -2.648196,10.134191 -7.275593,12.330035 -4.655097,2.208989 -9.489738,2.105887 -13.412597,-0.286032 z m 73.695668,0.204444 c -2.34175,-1.169837 -4.26522,-3.29031 -5.81234,-6.407669 -3.09362,-6.233446 -2.25707,-10.96637 2.84407,-16.090777 3.42415,-3.439767 4.19484,-3.75 9.31583,-3.75 4.79754,0 6.07148,0.429024 9.05659,3.049984 12.85457,11.286462 -0.12386,30.83182 -15.40415,23.198462 z"
     style="fill:#000000" />
</svg>
