<?xml version="1.0" encoding="UTF-8" standalone="no"?>
<!-- Created with Inkscape (http://www.inkscape.org/) -->

<svg
   xmlns:dc="http://purl.org/dc/elements/1.1/"
   xmlns:cc="http://creativecommons.org/ns#"
   xmlns:rdf="http://www.w3.org/1999/02/22-rdf-syntax-ns#"
   xmlns:svg="http://www.w3.org/2000/svg"
   xmlns="http://www.w3.org/2000/svg"
   xmlns:sodipodi="http://sodipodi.sourceforge.net/DTD/sodipodi-0.dtd"
   xmlns:inkscape="http://www.inkscape.org/namespaces/inkscape"
   id="svg3039"
   version="1.1"
   inkscape:version="0.48.4 r9939"
   width="1969"
   height="1969"
   sodipodi:docname="event_whentouched.svg">
  <metadata
     id="metadata3045">
    <rdf:RDF>
      <cc:Work
         rdf:about="">
        <dc:format>image/svg+xml</dc:format>
        <dc:type
           rdf:resource="http://purl.org/dc/dcmitype/StillImage" />
        <dc:title></dc:title>
      </cc:Work>
    </rdf:RDF>
  </metadata>
  <defs
     id="defs3043" />
  <sodipodi:namedview
     pagecolor="#ffffff"
     bordercolor="#666666"
     borderopacity="1"
     objecttolerance="10"
     gridtolerance="10"
     guidetolerance="10"
     inkscape:pageopacity="0"
     inkscape:pageshadow="2"
     inkscape:window-width="1025"
     inkscape:window-height="965"
     id="namedview3041"
     showgrid="false"
     inkscape:zoom="0.1198578"
     inkscape:cx="984.50003"
     inkscape:cy="984.50003"
     inkscape:window-x="530"
     inkscape:window-y="235"
     inkscape:window-maximized="0"
     inkscape:current-layer="svg3039" />
  <path
     inkscape:connector-curvature="0"
     id="path3064"
     d="m 948.20238,1916.0391 c -74.83963,-6.0518 -123.74792,-15.3607 -169.32435,-32.2277 -39.1719,-14.4969 -77.18847,-46.5056 -92.00931,-77.4689 -6.1188,-12.7832 -8.76639,-27.1878 -7.13457,-38.8168 0.7054,-5.027 1.64642,-9.5039 2.09117,-9.9486 0.84796,-0.848 1.14541,-0.6892 17.95225,9.5868 15.03121,9.1903 50.20826,26.1866 66.12301,31.9482 41.60525,15.0626 96.55076,25.4602 160.96174,30.4599 108.30078,8.4062 210.49028,-2.3628 269.32498,-28.3823 3.8099,-1.6849 7.0806,-3.0635 7.2681,-3.0635 1.4293,0 3.2606,14.2894 2.7836,21.7209 -1.3398,20.8767 -18.8118,41.5103 -52.2519,61.7068 -30.255,18.273 -52.4269,25.6103 -95.7856,31.6983 -14.6575,2.0579 -25.7994,2.5819 -61.17932,2.8765 -23.79193,0.1981 -45.76084,0.1578 -48.8198,-0.089 z m -2.47189,-136.569 c -63.51752,-3.7697 -122.92095,-14.445 -164.99854,-29.6514 -17.34135,-6.2669 -51.68027,-24.2407 -71.22319,-37.2799 -100.54738,-67.0858 -191.54364,-188.172 -237.56998,-316.1278 -19.11206,-53.1325 -29.82852,-112.4812 -27.44412,-151.9878 5.15493,-85.4118 35.55261,-162.5001 91.38027,-231.7395 11.12745,-13.80066 42.30998,-45.99404 43.44779,-44.85623 0.40301,0.40304 -4.28827,29.57046 -10.42509,64.81663 -26.00406,149.3513 -32.93705,197.8902 -36.01742,252.1628 -1.32631,23.3683 0.0467,55.2802 2.48335,57.7169 0.60677,0.6067 1.83599,0.822 2.7316,0.4783 4.40118,-1.6889 70.73488,-278.3811 96.67185,-403.23909 13.28753,-63.96493 25.80775,-148.11926 31.71932,-213.20042 6.37633,-70.19785 8.14054,-166.73842 4.24616,-232.35751 -2.43771,-41.07478 -2.68178,-68.38966 -0.71784,-80.33637 8.39563,-51.07105 38.98217,-84.05199 87.23432,-94.06328 14.16736,-2.93943 40.56929,-3.1369 55.17197,-0.41266 60.2414,11.23841 102.98282,49.23586 112.99718,100.4554 2.53925,12.98729 2.20258,33.25662 -1.27179,76.56698 -7.22916,90.1159 -9.23732,142.45879 -9.32754,243.12485 -0.0939,104.69268 2.79533,142.17454 14.8626,192.80734 11.08555,46.51353 27.62323,84.69036 53.80707,124.21236 15.93837,24.0574 20.56574,26.7654 14.85717,8.6945 -16.37626,-51.8398 -27.57998,-131.94035 -31.76785,-227.12214 -0.8444,-19.18952 -1.14572,-35.27941 -0.66976,-35.75537 0.47609,-0.47596 9.89608,-1.69176 20.93356,-2.70165 16.40912,-1.50143 23.67372,-1.58139 39.84332,-0.43839 62.4554,4.41492 109.8113,23.82035 148.0632,60.67312 22.5439,21.71912 34.553,41.88417 49.0282,82.32513 13.8556,38.7094 20.7063,56.80791 28.0702,74.1566 17.5074,41.2459 42.8382,82.9556 48.9546,80.6085 1.8531,-0.7111 1.8699,-1.3022 0.1896,-6.7057 -4.1365,-13.3021 -9.1654,-39.8304 -23.2646,-122.72255 -0.9827,-5.77804 -1.4147,-10.89744 -0.9599,-11.37649 0.4548,-0.47893 5.5517,0.1713 11.3267,1.44506 56.3833,12.43632 94.7687,41.84187 122.6983,93.99438 23.9535,44.7277 40.3856,112.8155 40.4273,167.5136 0.053,69.7525 -20.468,176.3728 -48.1964,250.4113 -27.0426,72.2072 -61.5069,130.4209 -109.6652,185.2354 -31.219,35.5338 -85.5825,82.7803 -109.7071,95.3449 -28.2161,14.6954 -76.6612,25.2803 -134.7179,29.4348 -19.8267,1.4188 -78.53703,1.3593 -103.20141,-0.1051 z m -74.41644,-66.5038 c 5.31419,-2.7252 9.03586,-6.5261 11.85666,-12.1093 1.69942,-3.3635 1.99852,-9.1514 1.99852,-38.6711 0,-19.0936 -0.57892,-44.288 -1.2865,-55.9877 -1.57471,-26.0377 -9.41715,-107.9371 -11.14994,-116.4401 -4.37042,-21.445 -29.30609,-28.8565 -43.65392,-12.9752 -7.69759,8.5203 -7.75778,9.8639 -2.74095,61.1771 6.1854,63.2666 6.93611,74.6816 7.92388,120.5045 l 0.8659,40.1682 3.70067,5.4704 c 7.0277,10.3884 21.70392,14.3925 32.48568,8.8632 z m 129.19815,-4.9812 c 4.6137,-1.7541 11.4443,-8.2428 13.7153,-13.0286 2.2722,-4.7882 6.698,-34.5631 11.2112,-75.4242 5.5122,-49.9051 6.5612,-66.8352 11.845,-191.1622 0.7993,-18.8084 1.0781,-36.6992 0.6196,-39.7572 -2.9663,-19.7803 -29.8051,-27.7662 -43.60304,-12.9741 -6.26612,6.7178 -6.56534,9.0138 -9.05268,69.4673 -4.60809,111.999 -7.41294,148.186 -16.70984,215.5855 -3.11569,22.5878 -3.09542,28.5812 0.11742,34.8512 2.10184,4.1019 9.06441,10.6846 12.91771,12.2131 3.98407,1.5803 15.03391,1.714 18.93933,0.2292 z m 109.3296,-8.1768 c 10.1004,-4.2077 13.0184,-8.7717 25.067,-39.2052 14.734,-37.2163 28.0869,-77.7266 34.9258,-105.9579 9.4611,-39.0557 16.9427,-75.709 16.9027,-82.8083 -0.048,-8.5595 -3.6154,-15.2013 -10.9223,-20.3368 -4.6669,-3.2801 -6.394,-3.7551 -13.67,-3.7593 -7.026,0 -9.1346,0.5283 -13.4853,3.4046 -8.8166,5.8289 -10.6228,10.0078 -16.9559,39.2307 -15.6583,72.2523 -23.5103,98.4583 -47.9663,160.0862 -3.7834,9.534 -7.2362,19.5685 -7.6727,22.2989 -2.9205,18.2638 16.853,34.0974 33.777,27.0471 z"
     style="fill:#fdfdfd" />
  <path
     inkscape:connector-curvature="0"
     id="path3060"
     d="m 946.34847,1965.4795 c -2.71908,-0.2483 -12.73023,-1.068 -22.247,-1.8217 -53.47177,-4.2341 -109.02882,-14.9679 -150.44518,-29.0663 -90.61503,-30.846 -151.57962,-103.9877 -143.26238,-171.8778 0.867,-7.077 3.28401,-17.4249 5.77473,-24.723 2.35598,-6.9033 4.2836,-13.0716 4.2836,-13.7072 0,-0.6355 -4.55472,-4.9683 -10.12161,-9.6281 -15.71942,-13.1583 -43.06608,-40.1771 -60.60336,-59.8768 -83.76538,-94.0945 -145.63633,-213.8437 -167.14065,-323.4955 -10.42699,-53.1679 -10.19703,-100.3642 0.7514,-154.2188 17.0972,-84.1 61.92805,-166.5775 124.62814,-229.28459 16.83014,-16.83195 36.12655,-32.89057 50.68888,-42.18364 5.09827,-3.2535 10.31973,-6.65655 11.60326,-7.56237 1.80688,-1.27512 3.13567,-6.09765 5.88637,-21.36292 8.49356,-47.13582 17.32688,-112.50528 21.45306,-158.7598 5.76436,-64.61834 7.2676,-157.44778 3.5826,-221.23401 -3.79738,-65.73127 -2.68659,-87.64414 5.9206,-116.79672 18.93398,-64.12941 72.62455,-106.07894 143.0104,-111.73688 80.11059,-6.43966 160.74074,37.18971 191.41218,103.5742 15.84135,34.28648 17.89338,55.87187 12.11436,127.43129 -5.87025,72.68781 -8.19938,121.4626 -8.99533,188.37075 l -0.76332,64.15835 10.3917,-0.84305 c 44.88198,-3.6411 77.37018,-1.38617 115.10218,7.989 75.4973,18.75863 134.9902,65.17216 166.7286,130.07369 3.3671,6.88545 6.575,12.97198 7.1287,13.52568 0.5537,0.5537 6.0121,1.75887 12.1297,2.67804 87.4201,13.1355 144.1288,53.59994 182.588,130.28518 18.8611,37.608 33.7631,88.7033 40.2392,137.9699 3.7793,28.7504 2.7433,79.1936 -2.4495,119.2686 -25.6788,198.1776 -99.9147,347.0246 -227.4046,455.9587 -9.5029,8.12 -18.5171,15.6313 -20.0315,16.6921 -3.0699,2.1502 -3.3773,0.1588 3.3532,21.7269 5.9103,18.9396 5.5448,44.5791 -0.8718,61.1792 -12.789,33.0853 -37.6851,57.6007 -84.6335,83.3399 -25.5444,14.0045 -43.9858,20.5054 -75.1956,26.5078 -31.3763,6.0345 -46.3905,7.2382 -94.5498,7.5806 -24.81158,0.1764 -47.33666,0.1174 -50.05573,-0.1307 z m 87.75203,-47.516 c 37.3096,-3.169 66.5005,-8.941 88.37,-17.4736 8.3231,-3.2473 31.3386,-15.704 41.4042,-22.4091 34.863,-23.224 49.2855,-47.048 43.8858,-72.4932 -2.1296,-10.0346 -3.1046,-10.615 -11.5546,-6.878 -72.4042,32.0207 -206.57665,40.4288 -335.75555,21.0408 -65.05331,-9.7636 -113.37028,-26.5543 -163.06531,-56.6668 -8.45348,-5.1224 -15.80768,-9.0429 -16.34268,-8.7123 -2.09061,1.2921 -3.90546,11.4963 -3.82527,21.5079 0.15239,19.0249 7.96961,37.1372 24.67003,57.16 14.39145,17.2543 39.86406,36.6553 61.24512,46.6466 39.97203,18.6787 111.54802,33.8446 180.46267,38.2373 22.67784,1.4454 73.69519,1.4683 90.50559,0.041 z m 9.9087,-135.9255 c 49.1881,-3.1294 85.9523,-9.4263 116.6064,-19.972 22.8718,-7.8685 30.2436,-12.0717 54.5508,-31.1036 107.2402,-83.967 175.855,-191.2285 212.0131,-331.4282 10.0241,-38.8677 18.1005,-82.1546 22.9448,-122.9764 3.6254,-30.5502 3.9487,-78.6416 0.6772,-100.7295 -6.6888,-45.1599 -19.6424,-89.2785 -35.2929,-120.2052 -28.2395,-55.80338 -68.7718,-87.59405 -127.9299,-100.33923 -6.9294,-1.4929 -12.7159,-2.17304 -13.3231,-1.56582 -0.6072,0.60722 1.914,18.4765 5.8046,41.14298 10.1283,59.00497 12.5861,72.18307 15.8866,85.18157 1.6397,6.4578 2.7125,12.0196 2.384,12.3595 -0.9865,1.0206 -7.4625,-7.3126 -15.368,-19.7751 -13.8658,-21.8588 -32.2582,-62.0285 -46.1207,-100.72944 -15.8348,-44.20688 -18.5214,-51.40576 -22.601,-60.56127 -27.2731,-61.20643 -93.3968,-104.57459 -172.7249,-113.28405 -12.2185,-1.34149 -64.7776,-0.66617 -73.18906,0.94031 -2.36733,0.45211 -4.27612,1.70424 -4.71735,3.09468 -0.40762,1.28439 -0.14313,16.37972 0.58793,33.54513 3.78076,88.778 13.55905,164.46484 27.95583,216.38484 2.41725,8.7179 4.19553,16.4492 3.95168,17.1808 -0.495,1.4851 -15.13228,-19.6713 -22.85298,-33.0314 -28.56934,-49.4371 -45.70398,-104.66192 -52.15264,-168.08835 -8.10124,-79.68071 -5.8449,-233.86783 5.47066,-373.83542 3.71722,-45.9793 3.86541,-61.02466 0.74997,-76.11949 -7.53518,-36.50961 -33.34961,-68.50997 -69.52965,-86.19108 -23.58811,-11.52745 -39.93817,-15.54313 -67.17109,-16.49763 -17.21033,-0.60321 -21.44588,-0.34752 -32.65681,1.97147 -16.75289,3.46533 -29.83774,8.59169 -41.70639,16.33963 -26.30343,17.17106 -41.79472,42.15567 -47.94763,77.33072 -2.4476,13.99241 -2.42989,39.19755 0.0562,80.03877 2.34256,38.48311 2.68151,130.9612 0.62061,169.32435 -3.90693,72.7269 -13.3551,152.17766 -27.86656,234.33309 -9.67026,54.74739 -31.0515,150.67834 -65.67227,294.65104 -17.78859,73.975 -35.84949,145.8988 -37.17571,148.0446 -3.21045,5.1947 -4.98461,-29.0381 -2.99665,-57.8207 3.70037,-53.5752 11.8235,-109.2938 36.51539,-250.4683 11.54377,-66.00084 11.45008,-65.31538 8.92809,-65.31538 -1.07995,0 -9.09258,7.09123 -17.80586,15.75829 -75.842,75.43969 -120.38997,177.77509 -120.38263,276.54249 0.002,29.0616 2.83564,52.2374 10.19971,83.4262 21.59458,91.4588 72.71584,189.6779 141.09334,271.082 17.36518,20.6734 52.75248,56.0721 71.96676,71.9898 50.71254,42.0118 99.40742,67.9363 151.72241,80.7745 63.74284,15.6427 155.08615,23.1443 226.49766,18.6008 z m -191.4228,-69.7664 c -2.62576,-0.9361 -6.37018,-3.231 -8.32074,-5.0998 -6.41666,-6.1474 -7.06108,-10.2414 -7.86259,-49.9432 -0.89321,-44.2496 -1.98159,-60.9491 -7.61181,-116.7968 -2.39859,-23.7919 -4.1257,-45.8898 -3.83785,-49.1064 1.80287,-20.1475 28.56984,-27.9533 40.80025,-11.8983 4.54345,5.9642 5.29973,10.4065 10.06961,59.1508 5.56545,56.8722 6.97431,80.7413 7.25894,122.9765 0.25955,38.5351 0.25362,38.5679 -8.32161,46.097 -4.04512,3.5517 -11.19395,6.4807 -15.5462,6.3694 -1.01965,-0.026 -4.00223,-0.8131 -6.628,-1.7492 z m 132.12071,-6.1828 c -7.34473,-1.9712 -13.37589,-7.9337 -15.62778,-15.4498 -1.32851,-4.4342 -1.00655,-9.1173 2.40775,-35.0228 9.37599,-71.1407 11.83985,-103.5547 15.70736,-206.6442 1.09653,-29.2301 2.55136,-56.099 3.23299,-59.7087 1.34124,-7.104 6.20753,-13.8436 12.25287,-16.9697 4.4311,-2.2914 12.9222,-2.594 18.7568,-0.6685 5.7248,1.8894 12.9615,10.1382 14.0891,16.0597 0.7841,4.1173 -1.8919,83.4684 -4.5883,136.0618 -3.4489,67.2685 -14.0399,160.7165 -19.4019,171.1898 -2.981,5.8225 -7.9277,9.7508 -14.61752,11.6083 -5.65469,1.5699 -4.50279,1.6129 -12.21137,-0.4559 z m 107.44079,-8.5685 c -9.3755,-4.0845 -15.1722,-14.5679 -13.7291,-24.8297 0.3834,-2.726 4.0718,-13.2991 8.1966,-23.4957 22.3181,-55.1709 30.8759,-83.298 45.1251,-148.3133 9.0335,-41.217 10.2573,-44.2124 19.9882,-48.9231 15.2347,-7.375 33.2749,3.8208 32.9472,20.4471 -0.2524,12.8007 -19.2506,94.2003 -29.0016,124.2596 -12.3643,38.115 -32.7205,90.0523 -37.2067,94.9294 -6.2123,6.7538 -18.2156,9.4562 -26.3197,5.9257 z M 644.16008,268.84297 c 0,-11.69292 3.709,-26.10929 9.82584,-38.19161 18.09692,-35.74609 56.76601,-61.35309 110.03741,-72.86771 18.46044,-3.99021 54.00002,-4.53515 73.96867,-1.13415 50.12446,8.537 87.99379,35.00061 107.12435,74.85978 5.95367,12.40467 12.17158,32.212 11.52432,36.711 -0.34978,2.43042 -1.29255,1.69449 -6.94774,-5.42284 -28.51645,-35.88937 -74.5702,-57.79456 -129.12045,-61.41533 -38.21589,-2.53659 -80.75727,5.07504 -112.27375,20.0884 -23.50941,11.19907 -46.88974,30.83644 -57.34096,48.16124 -2.71908,4.50737 -5.36091,8.21499 -5.87073,8.23917 -0.50983,0.0241 -0.92696,-4.03842 -0.92696,-9.02795 z m -34.20936,-64.59676 c -1.19279,-3.10838 0.52995,-28.60396 2.58014,-38.1843 9.38354,-43.84862 38.05663,-78.678023 83.40895,-101.317468 46.53289,-23.22878 109.00478,-28.564598 160.18473,-13.681605 53.07404,15.433803 95.06784,49.751363 116.83912,95.481733 5.4819,11.51458 12.78535,31.91986 14.06356,39.29244 0.47151,2.71908 1.14312,5.91708 1.49253,7.10668 1.42665,4.85638 -2.20283,1.581 -8.90189,-8.03364 -8.6484,-12.41248 -27.51261,-31.22016 -40.7717,-40.64967 -35.51028,-25.25408 -76.16518,-39.54154 -123.29557,-43.33013 -51.30568,-4.124217 -104.96079,9.68804 -143.22306,36.86946 -20.76168,14.74905 -42.70923,38.64403 -54.58655,59.43011 -5.29293,9.26298 -6.50816,10.35749 -7.79026,7.01639 z"
     style="fill:#2c89a0" />
</svg>
