<?xml version="1.0" encoding="UTF-8" standalone="no"?>
<!-- Created with Inkscape (http://www.inkscape.org/) -->

<svg
   xmlns:dc="http://purl.org/dc/elements/1.1/"
   xmlns:cc="http://creativecommons.org/ns#"
   xmlns:rdf="http://www.w3.org/1999/02/22-rdf-syntax-ns#"
   xmlns:svg="http://www.w3.org/2000/svg"
   xmlns="http://www.w3.org/2000/svg"
   xmlns:sodipodi="http://sodipodi.sourceforge.net/DTD/sodipodi-0.dtd"
   xmlns:inkscape="http://www.inkscape.org/namespaces/inkscape"
   id="svg3039"
   version="1.1"
   inkscape:version="0.48.4 r9939"
   width="270"
   height="237"
   sodipodi:docname="expressions.svg">
  <metadata
     id="metadata3045">
    <rdf:RDF>
      <cc:Work
         rdf:about="">
        <dc:format>image/svg+xml</dc:format>
        <dc:type
           rdf:resource="http://purl.org/dc/dcmitype/StillImage" />
        <dc:title />
      </cc:Work>
    </rdf:RDF>
  </metadata>
  <defs
     id="defs3043" />
  <sodipodi:namedview
     pagecolor="#ffffff"
     bordercolor="#666666"
     borderopacity="1"
     objecttolerance="10"
     gridtolerance="10"
     guidetolerance="10"
     inkscape:pageopacity="0"
     inkscape:pageshadow="2"
     inkscape:window-width="640"
     inkscape:window-height="480"
     id="namedview3041"
     showgrid="false"
     inkscape:zoom="0.99578059"
     inkscape:cx="135"
     inkscape:cy="118.5"
     inkscape:window-x="1061"
     inkscape:window-y="846"
     inkscape:window-maximized="0"
     inkscape:current-layer="svg3039" />
  <path
     sodipodi:type="arc"
     style="fill:#ffffff"
     id="path2989"
     sodipodi:cx="141.59746"
     sodipodi:cy="131.05296"
     sodipodi:rx="96.406776"
     sodipodi:ry="72.807205"
     d="m 238.00423,131.05296 a 96.406776,72.807205 0 1 1 -192.813549,0 96.406776,72.807205 0 1 1 192.813549,0 z"
     transform="translate(-9.0381356,-6.0254237)" />
  <path
     inkscape:connector-curvature="0"
     id="path3053"
     d="M 112.54673,235.48607 C 73.864949,229.19916 41.456508,209.23443 19.68986,178.283 10.548142,165.28379 5.9609091,153.09755 3.0237186,134.00848 0.25077386,115.98686 3.6887417,90.557918 11.120676,74.119323 21.26399,51.683465 45.158049,28.275743 70.508471,15.940302 92.532674,5.2233887 107.62436,2.0148647 136.00847,2.0148647 c 28.38411,0 43.4758,3.208524 65.5,13.9254373 26.39121,12.841888 50.74355,37.286781 60.50509,60.735044 6.34694,15.246023 7.31711,20.858973 7.31711,42.333134 0,16.71081 -0.30053,20.59786 -2.10112,27.17543 -5.11731,18.69367 -13.75408,33.18687 -29.48005,49.46991 -18.69031,19.35238 -42.6975,32.34331 -71.24103,38.5504 -12.17686,2.64799 -41.29972,3.3398 -53.96174,1.28185 z m 37.14208,-77.49674 c 9.29245,-1.16517 15.5138,-3.06328 16.13346,-4.92224 0.50981,-1.52945 -4.82146,-1.04547 -14.8138,1.34483 -7.55394,1.807 -17.7829,2.01177 -23.5,0.47045 -6.42352,-1.73176 -11.21664,-2.1414 -11.91097,-1.01794 -2.37117,3.83663 17.35519,6.22343 34.09131,4.1249 z M 69.806728,93.410754 c 0.333984,-2.326122 -2.147078,-4.922764 -3.754452,-3.929352 -1.176653,0.727211 -1.41466,4.822884 -0.342569,5.894976 1.31177,1.31177 3.797697,0.119099 4.097021,-1.965624 z M 209.50847,88.508475 c 0,-3.344696 -2.81639,-4.723832 -3.89685,-1.908215 -0.97459,2.539743 0.32533,5.568638 2.23229,5.20139 1.10754,-0.213293 1.66456,-1.315297 1.66456,-3.293175 z"
     style="fill:#0256d0" />
  <path
     inkscape:connector-curvature="0"
     id="path3051"
     d="M 123.50054,235.9812 C 82.972246,232.64155 46.951311,213.24253 23.281674,182.00848 14.897903,170.9454 9.7402175,160.13529 5.8254864,145.42166 2.9594287,134.64951 2.6558458,132.11969 2.6558458,119.00848 c 0,-13.02321 0.3134756,-15.67684 3.0778859,-26.054887 C 11.935831,69.669906 20.567335,55.615704 39.355927,38.208421 56.761463,22.082513 76.595641,11.762059 103.50847,4.8274862 c 8.16649,-2.1042416 11.1764,-2.3190112 32.5,-2.3190112 25.38472,0 29.84632,0.6556704 49,7.2009592 28.2325,9.6477468 55.22621,30.7895888 69.53699,54.4623068 9.80034,16.211617 14.50938,33.552541 14.61971,53.836739 0.17728,32.59315 -10.38663,56.68601 -35.33784,80.59416 -17.82155,17.07654 -40.49345,28.93146 -65.95923,34.48944 -7.75978,1.6936 -29.6008,4.11773 -33.85963,3.75807 -0.825,-0.0697 -5.55357,-0.4607 -10.50793,-0.86895 z m 35.42605,-78.37307 c 5.80077,-1.61378 8.73785,-3.72925 7.64119,-5.50369 -0.9866,-1.59635 -6.72947,-1.34064 -11.12349,0.4953 -6.05866,2.53147 -21.02498,3.02206 -29.48265,0.96642 -7.46205,-1.81366 -11.95317,-1.48352 -11.95317,0.87866 0,1.45796 6.32621,4.18181 11.5,4.95151 5.90849,0.879 28.09897,-0.30841 33.41812,-1.7882 z M 80.928946,140.04905 c 5.725994,-2.92118 11.984314,-9.90773 14.871067,-16.6015 3.356523,-7.78305 4.143075,-21.74163 1.791625,-31.795163 C 94.249637,77.363804 85.670479,64.904059 75.942747,60.211115 66.352412,55.584455 54.067493,58.479539 46.615563,67.122407 38.37461,76.680397 35.571686,86.172321 36.193456,102.41622 c 0.411752,10.7571 0.660732,11.8955 4.142433,18.94024 4.059686,8.21422 11.190481,15.58242 18.172582,18.7776 5.644972,2.58328 17.276649,2.53917 22.420475,-0.085 z m 139.992384,-6.63337 c 7.95364,-3.97904 10.36054,-6.8132 14.55725,-17.14135 2.1424,-5.27249 2.52807,-7.7991 2.51802,-16.495985 C 237.9777,83.40914 233.73762,71.626429 224.55836,62.434768 214.11318,51.975493 201.41771,51.339579 190.9496,60.751311 c -6.10246,5.486641 -9.10661,10.517903 -11.96957,20.046288 -1.83685,6.113344 -2.12002,9.016854 -1.75552,18 0.54464,13.422641 3.65916,21.908461 10.6692,29.069291 9.94018,10.15399 20.33244,11.89994 33.02762,5.54879 z"
     style="fill:#05070c" />
</svg>
