<?xml version="1.0" encoding="UTF-8" standalone="no"?>
<!-- Created with Inkscape (http://www.inkscape.org/) -->

<svg
   xmlns:dc="http://purl.org/dc/elements/1.1/"
   xmlns:cc="http://creativecommons.org/ns#"
   xmlns:rdf="http://www.w3.org/1999/02/22-rdf-syntax-ns#"
   xmlns:svg="http://www.w3.org/2000/svg"
   xmlns="http://www.w3.org/2000/svg"
   xmlns:sodipodi="http://sodipodi.sourceforge.net/DTD/sodipodi-0.dtd"
   xmlns:inkscape="http://www.inkscape.org/namespaces/inkscape"
   id="svg4087"
   version="1.1"
   inkscape:version="0.48.4 r9939"
   width="225"
   height="225"
   sodipodi:docname="looks.svg">
  <metadata
     id="metadata4093">
    <rdf:RDF>
      <cc:Work
         rdf:about="">
        <dc:format>image/svg+xml</dc:format>
        <dc:type
           rdf:resource="http://purl.org/dc/dcmitype/StillImage" />
        <dc:title></dc:title>
      </cc:Work>
    </rdf:RDF>
  </metadata>
  <defs
     id="defs4091" />
  <sodipodi:namedview
     pagecolor="#000000"
     bordercolor="#666666"
     borderopacity="1"
     objecttolerance="10"
     gridtolerance="10"
     guidetolerance="10"
     inkscape:pageopacity="0"
     inkscape:pageshadow="2"
     inkscape:window-width="936"
     inkscape:window-height="906"
     id="namedview4089"
     showgrid="false"
     inkscape:zoom="1.0488889"
     inkscape:cx="112.5"
     inkscape:cy="83.575492"
     inkscape:window-x="1136"
     inkscape:window-y="286"
     inkscape:window-maximized="0"
     inkscape:current-layer="g4131" />
  <g
     id="g4131">
    <path
       style="fill:#eff005"
       d="m 116.48522,110.01633 c 0.98736,-1.09102 4.2818,-3.45352 7.32097,-5.25 3.03917,-1.79648 6.68858,-4.04905 8.10979,-5.005708 1.42121,-0.956658 3.70902,-2.292328 5.08402,-2.968155 1.375,-0.675828 13.075,-7.362195 26,-14.858594 12.925,-7.496399 26.5375,-15.311959 30.25,-17.367911 3.7125,-2.055951 6.75,-4.042871 6.75,-4.415376 0,-1.291797 -6.8251,-10.672512 -10.90218,-14.984439 -5.04779,-5.338539 -5.40828,-6.818754 -0.51443,-2.112314 4.88515,4.698085 13.68005,18.070326 17.91908,27.245136 4.55236,9.852981 8.5282,26.316236 8.38023,34.701031 -0.13034,7.38605 -0.26297,6.99861 -1.93517,-5.653147 -0.66538,-5.034231 -1.52907,-9.669771 -1.91931,-10.301199 -0.75515,-1.221856 -8.05661,0.168677 -21.02822,4.004739 -11.11455,3.286877 -21.253,5.990925 -27.5,7.334577 -3.3,0.70979 -7.575,1.80404 -9.5,2.43166 C 143.02097,106.07015 118.73378,112 115.38717,112 c -0.38343,0 0.11069,-0.89265 1.09805,-1.98367 z"
       id="path4161"
       inkscape:connector-curvature="0" />
    <path
       style="fill:#f003ed"
       d="m 106.5,109.48697 c -5.84716,-2.48165 -8.074586,-3.58527 -14.663568,-7.26529 -3.664962,-2.04692 -8.614962,-4.78978 -11,-6.095236 C 78.451394,94.820988 69.075,89.413975 60,84.11086 50.925,78.807745 42.301307,73.800845 40.836239,72.984416 c -1.465069,-0.816429 -5.065069,-3.121095 -8,-5.12148 -8.537095,-5.818697 -9.103861,-5.79346 -12.426834,0.553336 -1.573745,3.005812 -3.01492,5.311547 -3.202612,5.123854 -0.557958,-0.557957 4.72437,-10.532085 9.509076,-17.955104 C 31.680604,47.882706 39.929628,38.83356 47.5,32.784916 c 4.66137,-3.724383 4.614915,-3.645645 -0.68593,1.1626 l -5.685931,5.157545 3.185931,3.015905 c 8.481211,8.028591 21.978032,21.37144 29.108429,28.77636 4.357374,4.525135 10.008207,10.111928 12.557405,12.415096 C 88.529103,85.61559 94.158166,91.55 98.488933,96.5 c 4.330767,4.95 8.769207,10.01073 9.863207,11.24606 2.51415,2.83896 1.96071,3.35917 -1.85214,1.74091 z M 14.085598,82 C 14.055363,81.175 14.466844,79.825 15,79 c 1.181322,-1.827966 1.181322,-0.249085 0,2.5 -0.566682,1.31874 -0.878155,1.489055 -0.914402,0.5 z"
       id="path4159"
       inkscape:connector-curvature="0" />
    <path
       style="fill:#06e1db"
       d="M 89.755173,213.0148 C 76.498353,210.08276 59.194447,202.15592 51.5,195.49029 c -1.972628,-1.70887 -1.163671,-1.38168 2.362212,0.95542 C 56.811429,198.40057 59.990583,200 60.927,200 c 0.936416,0 2.458146,-1.4625 3.381622,-3.25 0.923475,-1.7875 2.115099,-3.925 2.648052,-4.75 1.563087,-2.41963 18.101756,-31.25319 29.539926,-51.5 3.72858,-6.6 7.56373,-13.14699 8.52255,-14.54886 0.95882,-1.40188 2.95201,-4.93412 4.42931,-7.84944 1.4773,-2.91531 2.83032,-5.14332 3.0067,-4.95113 0.17637,0.19218 1.29329,4.39943 2.48203,9.34943 1.18874,4.95 2.756,10.575 3.4828,12.5 1.33892,3.54627 3.65011,11.98417 6.02593,22 0.71755,3.025 2.31689,9.1 3.55408,13.5 1.23719,4.4 2.80702,10.475 3.4885,13.5 0.68149,3.025 2.15251,8.425 3.26895,12 1.11644,3.575 2.42956,8.075 2.91805,10 1.27977,5.04327 4.10977,4.96383 16.33976,-0.45865 5.6622,-2.51049 10.45676,-4.40266 10.65459,-4.20483 0.78631,0.7863 -18.1804,8.88368 -25.44076,10.86131 -11.3432,3.08975 -37.26266,3.51776 -49.473917,0.81697 z M 43.946167,189.25 40.5,185.5 l 3.75,3.44617 c 2.0625,1.89539 3.75,3.58289 3.75,3.75 0,0.76362 -0.846216,0.0443 -4.053833,-3.44617 z"
       id="path4157"
       inkscape:connector-curvature="0" />
    <path
       style="fill:#faab03"
       d="m 116.1068,107.75 c 1.80118,-2.3375 17.36399,-18.402121 34.58403,-35.699157 C 167.91087,54.753806 182,40.066047 182,39.411379 182,38.75671 179.05524,36.033831 175.45609,33.360536 171.85693,30.687241 166.87956,26.8125 164.39527,24.75 161.91097,22.6875 159.38073,21 158.77251,21 c -0.60821,0 -0.80182,-0.304025 -0.43023,-0.67561 1.08119,-1.081198 20.08915,12.283675 24.08798,16.936742 2.00358,2.331377 5.50276,6.372087 7.77595,8.979356 4.24673,4.870827 9.7819,12.74341 9.78951,13.923446 0.002,0.365164 -3.03322,2.346077 -6.74572,4.402028 -3.7125,2.055952 -17.325,9.871512 -30.25,17.367911 -12.925,7.496399 -24.625,14.182766 -26,14.858594 -1.375,0.675827 -3.66281,2.011497 -5.08402,2.968155 -1.42121,0.956658 -5.07062,3.209228 -8.10979,5.005708 -3.03917,1.79648 -6.33361,4.15898 -7.32097,5.25 -3.37169,3.72568 -3.66091,1.99357 -0.37842,-2.26633 z"
       id="path4155"
       inkscape:connector-curvature="0" />
    <path
       style="fill:#a7fc01"
       d="m 187,183.62244 c 0,-0.20765 0.7875,-0.99515 1.75,-1.75 1.58606,-1.24387 1.62143,-1.2085 0.37756,0.37756 C 187.82119,183.91575 187,184.44548 187,183.62244 z M 211.57216,134.5 c 0.28528,-4.4 0.76323,-10.84826 1.06211,-14.32948 l 0.54342,-6.32947 -41.33884,0.26597 C 149.10248,114.25331 126.45,113.99234 121.5,113.52708 l -9,-0.84591 11,-2.23352 c 10.0822,-2.04716 20.56737,-4.76398 29.5,-7.64378 1.925,-0.6206 6.2,-1.70911 9.5,-2.4189 6.247,-1.343652 16.38545,-4.0477 27.5,-7.334577 12.97161,-3.836062 20.27307,-5.226595 21.02822,-4.004739 0.39024,0.631428 1.33104,5.266968 2.09066,10.301199 1.83401,12.154617 1.58984,31.638967 -0.47814,38.153147 l -1.58728,5 0.5187,-8 z"
       id="path4153"
       inkscape:connector-curvature="0" />
    <path
       style="fill:#fa03a5"
       d="M 109.48095,109.38614 C 104.51982,102.88176 90.746485,87.590518 85.995479,83.312422 83.437714,81.009254 77.779873,75.422461 73.422499,70.897326 66.290729,63.49098 52.796879,50.151145 44.30908,42.116198 L 41.118161,39.095525 46.80908,34.250594 C 56.223568,26.235627 60.207173,23.404503 66.5,20.256375 c 5.997231,-3.000249 20.718666,-8.291129 22.863769,-8.217233 1.431702,0.04932 -4.190656,2.571625 -11.310278,5.074021 -2.99558,1.052883 -6.578743,2.656201 -7.962585,3.562928 -2.392374,1.567544 -2.419586,1.686914 -0.55349,2.427978 1.87646,0.74518 1.863847,0.808999 -0.287416,1.454288 -2.59131,0.777284 -2.91233,2.647068 -0.76101,4.432505 0.818944,0.679663 1.239897,1.63879 0.935452,2.131393 -0.955062,1.545324 0.593686,4.748723 2.604406,5.386901 1.200236,0.38094 2.350286,2.185124 3.050531,4.785634 0.618193,2.295795 2.42823,5.820913 4.022304,7.833596 C 80.695758,51.141068 82,53.051814 82,53.374487 c 0,0.322673 1.509353,2.957916 3.354117,5.856096 C 87.198882,62.128762 90.870045,68.325 93.512258,73 c 2.642213,4.675 5.358207,8.95 6.035542,9.5 0.67733,0.55 1.79248,2.8 2.47811,5 0.68563,2.2 2.31028,6.02142 3.61034,8.492043 1.30006,2.470624 2.36375,5.073087 2.36375,5.783247 0,0.71016 1.13258,3.52624 2.51685,6.25795 1.38426,2.73172 2.33767,4.96676 2.11868,4.96676 -0.21898,0 -1.63854,-1.62624 -3.15458,-3.61386 z M 88.486501,51.985084 C 87.045005,50.392249 86.88883,49.396453 87.666818,46.758665 L 88.627927,43.5 l 1.686037,3.20034 c 2.866375,5.440794 1.607734,9.080594 -1.827463,5.284744 z M 75,32.5 c 0,-0.916667 0.48375,-1.505417 1.075,-1.308333 0.59125,0.197083 1.075,0.785833 1.075,1.308333 0,0.5225 -0.48375,1.11125 -1.075,1.308333 C 75.48375,34.005417 75,33.416667 75,32.5 z m 9.2,-0.7 C 82.735756,30.335756 82.60475,26 84.024751,26 84.999574,26 87,30.077904 87,32.0651 87,33.362721 85.633327,33.233327 84.2,31.8 z M 77.5,22 c -0.339919,-0.55 0.110081,-1 1,-1 0.889919,0 1.339919,0.45 1,1 -0.339919,0.55 -0.789919,1 -1,1 -0.210081,0 -0.660081,-0.45 -1,-1 z M 91.75,11.337719 c 0.6875,-0.277412 1.8125,-0.277412 2.5,0 0.6875,0.277413 0.125,0.504386 -1.25,0.504386 -1.375,0 -1.9375,-0.226973 -1.25,-0.504386 z m 6,-1 c 0.6875,-0.277412 1.8125,-0.277412 2.5,0 0.6875,0.277413 0.125,0.504386 -1.25,0.504386 -1.375,0 -1.9375,-0.226973 -1.25,-0.504386 z m 11.5,-1.0661874 c 2.0625,-0.2157442 5.4375,-0.2157442 7.5,0 2.0625,0.2157442 0.375,0.3922622 -3.75,0.3922622 -4.125,0 -5.8125,-0.176518 -3.75,-0.3922622 z"
       id="path4151"
       inkscape:connector-curvature="0" />
    <path
       style="fill:#a302fa"
       d="m 11.5,134 c -0.384211,-2.27412 -0.473565,-4.35977 -0.198565,-4.63477 0.275,-0.275 0.814354,1.36065 1.198565,3.63477 0.384211,2.27412 0.473565,4.35977 0.198565,4.63477 C 12.423565,137.90977 11.884211,136.27412 11.5,134 z M 9.6696896,120.25 C 8.7623174,108.86861 11.311094,86.859328 13.920774,83.540895 14.370993,82.968403 15.302207,80.7 15.990138,78.5 c 0.687931,-2.2 2.614025,-6.596417 4.28021,-9.769815 3.508799,-6.682827 3.985139,-6.715702 12.565891,-0.867249 2.934931,2.000385 6.534931,4.305051 8,5.12148 C 42.301307,73.800845 50.925,78.807745 60,84.11086 c 9.075,5.303115 18.451394,10.710128 20.836432,12.015584 2.385038,1.305456 7.335038,4.048316 11,6.095236 3.664962,2.04692 7.788568,4.22958 9.163568,4.85036 1.375,0.62077 4.525,2.09601 7,3.27832 l 4.5,2.14964 -51,0.5 -51,0.5 0.356511,7.25 c 0.196081,3.9875 0.14828,7.25 -0.106224,7.25 -0.254504,0 -0.740773,-3.4875 -1.0805974,-7.75 z"
       id="path4149"
       inkscape:connector-curvature="0" />
    <path
       style="fill:#fa6604"
       d="m 113.01957,110.87443 c -0.0108,-0.34406 1.10815,-3.17555 2.48648,-6.29218 C 118.93477,96.829284 122,87.943977 122,85.757936 c 0,-0.99626 1.16285,-5.511857 2.5841,-10.034659 4.04176,-12.861902 4.4155,-14.239025 4.42206,-16.294275 0.003,-1.060951 0.72819,-3.279002 1.61067,-4.929002 0.88247,-1.65 2.65079,-8.080125 3.92959,-14.289166 1.27879,-6.209041 3.25399,-13.973333 4.38933,-17.253982 C 140.07109,19.676204 141,16.762214 141,16.48132 c 0,-0.280894 -1.4625,-1.40242 -3.25,-2.49228 -4.32009,-2.634008 -3.08893,-2.504403 6.08203,0.640259 9.87758,3.38696 16.74304,6.844845 21.34421,10.750313 2.02194,1.716213 6.63444,5.307629 10.25,7.980924 C 179.04181,36.033831 182,38.762863 182,39.425053 182,40.087242 168.13152,54.550001 151.18116,71.564517 134.23079,88.579033 118.7146,104.525 116.70073,107 c -2.01387,2.475 -3.67039,4.21849 -3.68116,3.87443 z M 130.98469,69.75 C 130.99311,69.3375 130.55,69 130,69 c -0.55,0 -0.99311,1.0125 -0.98469,2.25 0.0124,1.819438 0.20082,1.962959 0.98469,0.75 0.53316,-0.825 0.97627,-1.8375 0.98469,-2.25 z m 24.49719,-41.720683 c 0.32995,-0.533876 -0.56444,-1.262919 -1.98755,-1.620097 -2.85381,-0.716261 -4.04918,-0.116008 -3.03545,1.524249 0.82379,1.332924 4.21841,1.3977 5.023,0.09585 z m -3.22318,-6.6892 C 153.51243,20.565267 152.03625,19 150.05177,19 c -1.00661,0 -2.89255,0.928505 -4.19099,2.063345 L 143.5,23.12669 l 3.99238,-0.65413 c 2.19582,-0.359771 4.34066,-0.86937 4.76632,-1.132443 z M 131.8125,11.316886 c 0.72187,-0.288871 1.58437,-0.253344 1.91667,0.07895 0.33229,0.332292 -0.25834,0.568641 -1.3125,0.52522 -1.16495,-0.04798 -1.4019,-0.284941 -0.60417,-0.604167 z M 121.75,10.294267 c 1.2375,-0.238353 3.2625,-0.238353 4.5,0 1.2375,0.238353 0.225,0.433369 -2.25,0.433369 -2.475,0 -3.4875,-0.195016 -2.25,-0.433369 z"
       id="path4147"
       inkscape:connector-curvature="0" />
    <path
       style="fill:#64fb03"
       d="m 188.23207,181 c 0.68696,-1.1 1.66052,-2 2.16346,-2 0.50295,0 0.1,0.9 -0.89553,2 -0.99549,1.1 -1.96904,2 -2.16346,2 -0.19442,0 0.20857,-0.9 0.89553,-2 z m 8.33222,-10.29313 c 0.37553,-0.98622 0.93469,-1.54122 1.24258,-1.23333 0.30789,0.30789 6.4e-4,1.11479 -0.68278,1.79313 -0.98762,0.98026 -1.10248,0.8654 -0.5598,-0.5598 z M 200.34495,160.5 c 0.57047,-4.16204 -0.35303,-5.91398 -1.84495,-3.5 -1.04948,1.69809 -3.33169,1.10566 -4.01326,-1.04179 -0.476,-1.49974 -1.1825,-1.87216 -2.66124,-1.40282 -1.38686,0.44017 -2.83958,-0.14688 -4.66935,-1.88689 -1.46088,-1.38922 -4.00615,-2.8498 -5.65615,-3.24574 -1.65,-0.39593 -4.575,-1.94424 -6.5,-3.44067 -1.925,-1.49643 -5.975,-3.96229 -9,-5.47969 -3.025,-1.51739 -6.76215,-3.64938 -8.30478,-4.73775 -1.54263,-1.08837 -6.04263,-3.54025 -10,-5.44863 -3.95737,-1.90838 -7.87022,-4.28137 -8.69522,-5.27332 -0.825,-0.99195 -5.55,-3.46348 -10.5,-5.4923 -16.09633,-6.59727 -16.19505,-6.68021 -7,-5.88138 4.4,0.38225 26.84016,0.57987 49.86702,0.43916 l 41.86702,-0.25583 -0.62061,6.82382 c -0.34133,3.75311 -0.9897,10.87383 -1.44082,15.82383 -0.68215,7.48509 -1.56525,10.63718 -5.24641,18.72635 -2.43441,5.3495 -4.82487,9.737 -5.31212,9.75 -0.48726,0.013 -0.60837,-2.00135 -0.26913,-4.47635 z"
       id="path4145"
       inkscape:connector-curvature="0" />
    <path
       style="fill:#02fb61"
       d="M 137.97525,207.4349 C 137.43886,206.0241 137,204.29842 137,203.60006 c 0,-0.69836 -0.96395,-4.15657 -2.1421,-7.6849 -1.17816,-3.52834 -2.69704,-8.89016 -3.37528,-11.91516 -0.67825,-3.025 -2.24543,-9.1 -3.48262,-13.5 -1.23719,-4.4 -2.82879,-10.475 -3.53688,-13.5 -1.65797,-7.08292 -4.27445,-16.67655 -5.59099,-20.5 C 117.60292,132.814 113,114.85244 113,113.58572 c 0,-1.29891 6.70422,6.33187 8.60466,9.79386 0.8694,1.58377 2.77651,3.97499 4.23803,5.31382 9.5388,8.73803 17.91042,16.9765 18.25428,17.96394 0.53011,1.52227 16.32215,17.76385 26.97221,27.74001 5.68957,5.32955 8.3291,8.49973 8.11796,9.75 -0.38552,2.28295 1.60081,2.3899 4.65502,0.25065 4.03464,-2.82597 3.75152,-0.39878 -0.36559,3.13418 -9.14918,7.85108 -16.20046,12.25149 -27.58418,17.21417 -13.7969,6.01469 -16.49842,6.42006 -17.91714,2.68855 z m 54.69518,-31.8885 c 1.51563,-1.89949 2.92444,-3.28486 3.13069,-3.07861 0.55966,0.55966 -4.04103,6.53221 -5.03181,6.53221 -0.47002,0 0.38549,-1.55412 1.90112,-3.4536 z M 198,168.24489 c 0,-0.55 0.675,-1.5602 1.5,-2.24489 0.83674,-0.69443 1.5,-0.80272 1.5,-0.24489 0,0.55 -0.675,1.5602 -1.5,2.24489 -0.83674,0.69443 -1.5,0.80272 -1.5,0.24489 z"
       id="path4143"
       inkscape:connector-curvature="0" />
    <path
       style="fill:#0360f9"
       d="M 53.862212,196.34244 C 35.618307,183.89829 22.508123,166.99739 14.986461,146.22605 c -3.785057,-10.45257 -1.605645,-7.97499 3.436149,3.90625 2.603427,6.13511 5.888098,13.00266 7.299269,15.26122 C 30.033592,172.29437 38.094097,182 39.513523,182 c 0.737724,0 2.298018,-1.2375 3.467319,-2.75 2.264416,-2.92904 50.847196,-52.25 51.467981,-52.25 0.202017,0 2.996176,-2.49134 6.209237,-5.53632 3.21307,-3.04498 7.09765,-6.21595 8.6324,-7.0466 l 2.79046,-1.51029 -2.65923,5.24774 c -1.46258,2.88626 -3.44372,6.39473 -4.40254,7.79661 -0.95882,1.40187 -4.79397,7.94886 -8.52255,14.54886 -11.43817,20.24681 -27.976839,49.08037 -29.539926,51.5 -0.532953,0.825 -1.724577,2.9625 -2.648052,4.75 -0.923476,1.7875 -2.445206,3.25 -3.381622,3.25 -0.936417,0 -4.115571,-1.6459 -7.064788,-3.65756 z M 23.194949,150.5 c 0.02038,-1.65 0.244498,-2.20394 0.498042,-1.23097 0.253543,0.97297 0.236869,2.32297 -0.03705,3 C 23.382014,152.94606 23.174569,152.15 23.194949,150.5 z m 37.971303,-9.63016 c -2.585698,-0.96099 -2.456791,-3.18442 0.214654,-3.70242 C 63.120313,136.83015 66,138.6057 66,140.01546 c 0,1.33135 -2.406091,1.75664 -4.833748,0.85438 z M 79.638374,130.5 c 0.643904,-1.67799 1.957974,-1.96214 2.796865,-0.60478 0.304301,0.49236 -0.155946,1.16736 -1.02277,1.5 -2.252202,0.86425 -2.417298,0.78094 -1.774095,-0.89522 z m -0.785128,-5.75325 c 0.503846,-0.50384 1.980485,-0.74864 3.281419,-0.544 2.00168,0.31488 1.860839,0.45573 -0.916083,0.91609 -1.987219,0.32944 -2.920113,0.18269 -2.365336,-0.37209 z"
       id="path4141"
       inkscape:connector-curvature="0" />
    <path
       style="fill:#fb025e"
       d="M 110.18861,107.45131 C 108.98487,104.97366 108,102.39245 108,101.71529 c 0,-0.67716 -1.06369,-3.252623 -2.36375,-5.723247 C 104.33619,93.52142 102.71154,89.7 102.02591,87.5 101.34028,85.3 100.22513,83.05 99.5478,82.5 98.870465,81.95 96.154471,77.675 93.512258,73 90.870045,68.325 87.198882,62.128762 85.354117,59.230583 83.509353,56.332403 82,53.69716 82,53.374487 c 0,-0.322673 -1.304242,-2.233419 -2.898317,-4.246101 -1.594074,-2.012683 -3.404111,-5.537801 -4.022304,-7.833596 -0.700245,-2.60051 -1.850295,-4.404694 -3.050531,-4.785634 -2.01072,-0.638178 -3.559468,-3.841577 -2.604406,-5.386901 0.304445,-0.492603 -0.116508,-1.45173 -0.935452,-2.131393 -2.15132,-1.785437 -1.8303,-3.655221 0.76101,-4.432505 2.063151,-0.618859 2.096622,-0.736261 0.40305,-1.413726 -1.650589,-0.66027 -1.682153,-0.875588 -0.296887,-2.025257 1.765315,-1.465081 14.679069,-6.601615 22.143837,-8.807863 2.75,-0.812776 10.175,-1.608158 16.5,-1.767517 6.325,-0.159358 9.5875,-0.09729 7.25,0.137923 l -4.25,0.427665 0.008,43.695209 c 0.004,25.282856 0.44342,46.381409 1.04193,50.069949 0.56891,3.50611 0.87538,6.53373 0.68105,6.72806 -0.19432,0.19433 -1.33819,-1.67384 -2.54192,-4.15149 z M 92,51.391323 C 92,50.571469 91.241284,48.460527 90.313964,46.70034 L 88.627927,43.5 87.666818,46.758665 c -0.777988,2.637788 -0.621813,3.633584 0.819683,5.226419 C 90.393323,54.092099 92,53.82058 92,51.391323 z M 77.15,32.5 c 0,-0.5225 -0.48375,-1.11125 -1.075,-1.308333 C 75.48375,30.994583 75,31.583333 75,32.5 c 0,0.916667 0.48375,1.505417 1.075,1.308333 C 76.66625,33.61125 77.15,33.0225 77.15,32.5 z M 87,32.0651 C 87,30.077904 84.999574,26 84.024751,26 82.60475,26 82.735756,30.335756 84.2,31.8 85.633327,33.233327 87,33.362721 87,32.0651 z M 79.5,22 c 0.339919,-0.55 -0.110081,-1 -1,-1 -0.889919,0 -1.339919,0.45 -1,1 0.339919,0.55 0.789919,1 1,1 0.210081,0 0.660081,-0.45 1,-1 z m 49.3125,-10.683114 c 0.72187,-0.288871 1.58437,-0.253344 1.91667,0.07895 0.33229,0.332292 -0.25834,0.568641 -1.3125,0.52522 -1.16495,-0.04798 -1.4019,-0.284941 -0.60417,-0.604167 z"
       id="path4139"
       inkscape:connector-curvature="0" />
    <path
       style="fill:#142cfb"
       d="M 33.229925,175.75 C 26.169661,166.8216 23.824601,162.79139 18.50534,150.44439 13.281274,138.31835 11.40503,130.9671 10.862694,120.5 L 10.5,113.5 61,113.28015 c 40.15432,-0.17481 50.05948,0.0301 48.34973,1 -1.18265,0.67092 -4.9428,3.80735 -8.3559,6.96985 -3.41309,3.1625 -6.364627,5.75 -6.558967,5.75 -0.611272,0 -49.221492,49.36221 -51.454021,52.25 -1.169301,1.5125 -2.729595,2.75 -3.467319,2.75 -0.737724,0 -3.565343,-2.8125 -6.283598,-6.25 z M 23.692991,149.26903 C 23.439447,148.29606 23.215328,148.85 23.194949,150.5 c -0.02038,1.65 0.187065,2.44606 0.460988,1.76903 0.273923,-0.67703 0.290597,-2.02703 0.03705,-3 z M 66,140.01546 c 0,-1.40976 -2.879687,-3.18531 -4.619094,-2.84804 -2.671445,0.518 -2.800352,2.74143 -0.214654,3.70242 C 63.593909,141.7721 66,141.34681 66,140.01546 z m 15.412469,-8.62024 c 0.866824,-0.33264 1.327071,-1.00764 1.02277,-1.5 -0.838891,-1.35736 -2.152961,-1.07321 -2.796865,0.60478 -0.643203,1.67616 -0.478107,1.75947 1.774095,0.89522 z m 0.722196,-7.19247 c -1.300934,-0.20464 -2.777573,0.0402 -3.281419,0.544 -0.554777,0.55478 0.378117,0.70153 2.365336,0.37209 2.776922,-0.46036 2.917763,-0.60121 0.916083,-0.91609 z"
       id="path4137"
       inkscape:connector-curvature="0" />
    <path
       style="fill:#13fb11"
       d="m 179.18714,184.14735 c 0.21114,-1.25027 -2.42839,-4.42045 -8.11796,-9.75 -10.65006,-9.97616 -26.4421,-26.21774 -26.97221,-27.74001 -0.34386,-0.98744 -8.71548,-9.22591 -18.25428,-17.96394 -1.46152,-1.33883 -3.33126,-3.73005 -4.15499,-5.31382 -0.82372,-1.58377 -2.66543,-3.97052 -4.09269,-5.30389 -3.19244,-2.98244 -3.34116,-4.33198 -0.34501,-3.13067 14.65437,5.87573 20.49308,8.58641 21.75,10.09768 0.825,0.99195 4.73785,3.36494 8.69522,5.27332 3.95737,1.90838 8.45737,4.36026 10,5.44863 1.54263,1.08837 5.27978,3.22036 8.30478,4.73775 3.025,1.5174 7.075,3.98326 9,5.47969 1.925,1.49643 4.85,3.04474 6.5,3.44067 1.65,0.39594 4.19527,1.85652 5.65615,3.24574 1.82977,1.74001 3.28249,2.32706 4.66935,1.88689 1.47874,-0.46934 2.18524,-0.0969 2.66124,1.40282 0.68157,2.14745 2.96378,2.73988 4.01326,1.04179 1.52392,-2.46575 2.41263,-0.63581 1.82118,3.75 -0.69548,5.15725 -2.84388,9.08262 -9.0957,16.61886 -6.11884,7.37596 -12.77185,11.1221 -12.03834,6.77849 z"
       id="path4135"
       inkscape:connector-curvature="0" />
    <path
       style="fill:#fa130e"
       d="m 112.44368,107.96789 c -0.54633,-0.84982 -1.0748,-21.57356 -1.25509,-49.21789 l -0.3114,-47.75 7.8114,0.01562 c 8.76414,0.01753 18.78929,2.033691 20.97362,4.218018 1.26124,1.261236 1.17535,2.227781 -0.67239,7.566978 -1.16507,3.366578 -3.16461,11.201176 -4.4434,17.410217 C 133.26762,46.419875 131.4993,52.85 130.61683,54.5 c -0.88248,1.65 -1.60728,3.868051 -1.61067,4.929002 -0.007,2.05525 -0.3803,3.432373 -4.42206,16.294275 C 123.16285,80.246079 122,84.761676 122,85.757936 c 0,2.127248 -2.95808,10.775735 -6.27171,18.336504 -1.8034,4.11483 -2.55763,5.00427 -3.28461,3.87345 z M 129.01531,71.25 C 129.00689,70.0125 129.45,69 130,69 c 1.25292,0 1.25292,1.061241 0,3 -0.78387,1.212959 -0.9723,1.069438 -0.98469,-0.75 z m 21.44357,-43.316531 c -1.01373,-1.640257 0.18164,-2.24051 3.03545,-1.524249 1.42311,0.357178 2.3175,1.086221 1.98755,1.620097 -0.80459,1.301852 -4.19921,1.237076 -5.023,-0.09585 z m -4.5981,-6.870124 c 2.48027,-2.167775 5.62318,-2.707328 6.59651,-1.132443 0.77335,1.251299 -0.23268,1.76631 -4.96491,2.541658 l -3.99238,0.65413 2.36078,-2.063345 z"
       id="path4133"
       inkscape:connector-curvature="0" />
  </g>
</svg>
